<?xml version="1.0" encoding="UTF-8" standalone="no"?>
<!DOCTYPE svg PUBLIC "-//W3C//DTD SVG 1.1//EN"
 "http://www.w3.org/Graphics/SVG/1.1/DTD/svg11.dtd">
<!-- Generated by graphviz version 2.38.0 (20140413.2041)
 -->
<!-- Title: LittleWeebLibrary.StartUp.StartUp Pages: 1 -->
<svg width="615pt" height="149pt"
 viewBox="0.00 0.00 615.00 149.00" xmlns="http://www.w3.org/2000/svg" xmlns:xlink="http://www.w3.org/1999/xlink">
<g id="graph0" class="graph" transform="scale(1 1) rotate(0) translate(4 145)">
<title>LittleWeebLibrary.StartUp.StartUp</title>
<polygon fill="white" stroke="none" points="-4,4 -4,-145 611,-145 611,4 -4,4"/>
<!-- Node0 -->
<g id="node1" class="node"><title>Node0</title>
<polygon fill="#bfbfbf" stroke="black" points="0,-55.5 0,-85.5 131,-85.5 131,-55.5 0,-55.5"/>
<text text-anchor="start" x="8" y="-73.5" font-family="Helvetica,sans-Serif" font-size="10.00">LittleWeebLibrary.StartUp.</text>
<text text-anchor="middle" x="65.5" y="-62.5" font-family="Helvetica,sans-Serif" font-size="10.00">StartUp</text>
</g>
<!-- Node1 -->
<g id="node2" class="node"><title>Node1</title>
<g id="a_node2"><a xlink:href="class_little_weeb_library_1_1_handlers_1_1_debug_handler.html#ac253016968e2d0141b49ab227a715242" target="_top" xlink:title="LittleWeebLibrary.Handlers.\lDebugHandler.SetSettings">
<polygon fill="white" stroke="black" points="206,-110.5 206,-140.5 343,-140.5 343,-110.5 206,-110.5"/>
<text text-anchor="start" x="214" y="-128.5" font-family="Helvetica,sans-Serif" font-size="10.00">LittleWeebLibrary.Handlers.</text>
<text text-anchor="middle" x="274.5" y="-117.5" font-family="Helvetica,sans-Serif" font-size="10.00">DebugHandler.SetSettings</text>
</a>
</g>
</g>
<!-- Node0&#45;&gt;Node1 -->
<g id="edge1" class="edge"><title>Node0&#45;&gt;Node1</title>
<path fill="none" stroke="midnightblue" d="M114.642,-85.5047C131.179,-90.4898 149.845,-95.9303 167,-100.5 176.566,-103.048 186.652,-105.595 196.649,-108.036"/>
<polygon fill="midnightblue" stroke="midnightblue" points="196.052,-111.492 206.595,-110.437 197.695,-104.688 196.052,-111.492"/>
</g>
<!-- Node3 -->
<g id="node4" class="node"><title>Node3</title>
<g id="a_node4"><a xlink:href="class_little_weeb_library_1_1_services_1_1_settings_web_socket_service.html#af799e00c29f6eec4ca8874cda559c225" target="_top" xlink:title="LittleWeebLibrary.Services.\lSettingsWebSocketService.SetSettings\lClasses">
<polygon fill="white" stroke="black" points="180,-50 180,-91 369,-91 369,-50 180,-50"/>
<text text-anchor="start" x="188" y="-79" font-family="Helvetica,sans-Serif" font-size="10.00">LittleWeebLibrary.Services.</text>
<text text-anchor="start" x="188" y="-68" font-family="Helvetica,sans-Serif" font-size="10.00">SettingsWebSocketService.SetSettings</text>
<text text-anchor="middle" x="274.5" y="-57" font-family="Helvetica,sans-Serif" font-size="10.00">Classes</text>
</a>
</g>
</g>
<!-- Node0&#45;&gt;Node3 -->
<g id="edge3" class="edge"><title>Node0&#45;&gt;Node3</title>
<path fill="none" stroke="midnightblue" d="M131.145,-70.5C143.433,-70.5 156.577,-70.5 169.727,-70.5"/>
<polygon fill="midnightblue" stroke="midnightblue" points="169.77,-74.0001 179.77,-70.5 169.77,-67.0001 169.77,-74.0001"/>
</g>
<!-- Node6 -->
<g id="node7" class="node"><title>Node6</title>
<g id="a_node7"><a xlink:href="interface_little_weeb_library_1_1_controllers_1_1_i_base_web_socket_controller.html#a80d53e08202c06f729b0aa90d36c152f" target="_top" xlink:title="LittleWeebLibrary.Controllers.\lIBaseWebSocketController.SetSubControllers">
<polygon fill="white" stroke="black" points="167,-0.5 167,-30.5 382,-30.5 382,-0.5 167,-0.5"/>
<text text-anchor="start" x="175" y="-18.5" font-family="Helvetica,sans-Serif" font-size="10.00">LittleWeebLibrary.Controllers.</text>
<text text-anchor="middle" x="274.5" y="-7.5" font-family="Helvetica,sans-Serif" font-size="10.00">IBaseWebSocketController.SetSubControllers</text>
</a>
</g>
</g>
<!-- Node0&#45;&gt;Node6 -->
<g id="edge7" class="edge"><title>Node0&#45;&gt;Node6</title>
<path fill="none" stroke="midnightblue" d="M114.642,-55.4953C131.179,-50.5102 149.845,-45.0697 167,-40.5 176.566,-37.9519 186.652,-35.4049 196.649,-32.9644"/>
<polygon fill="midnightblue" stroke="midnightblue" points="197.695,-36.3124 206.595,-30.5631 196.052,-29.508 197.695,-36.3124"/>
</g>
<!-- Node2 -->
<g id="node3" class="node"><title>Node2</title>
<g id="a_node3"><a xlink:href="interface_little_weeb_library_1_1_handlers_1_1_i_settings_handler.html#a493bc8df18211fa8c3874371b809e006" target="_top" xlink:title="LittleWeebLibrary.Handlers.\lISettingsHandler.GetLittleWeebSettings">
<polygon fill="white" stroke="black" points="418,-108.5 418,-138.5 607,-138.5 607,-108.5 418,-108.5"/>
<text text-anchor="start" x="426" y="-126.5" font-family="Helvetica,sans-Serif" font-size="10.00">LittleWeebLibrary.Handlers.</text>
<text text-anchor="middle" x="512.5" y="-115.5" font-family="Helvetica,sans-Serif" font-size="10.00">ISettingsHandler.GetLittleWeebSettings</text>
</a>
</g>
</g>
<!-- Node1&#45;&gt;Node2 -->
<g id="edge2" class="edge"><title>Node1&#45;&gt;Node2</title>
<path fill="none" stroke="midnightblue" d="M343.128,-124.927C363.326,-124.756 385.948,-124.564 407.895,-124.378"/>
<polygon fill="midnightblue" stroke="midnightblue" points="407.951,-127.878 417.921,-124.293 407.891,-120.878 407.951,-127.878"/>
</g>
<!-- Node3&#45;&gt;Node2 -->
<g id="edge5" class="edge"><title>Node3&#45;&gt;Node2</title>
<path fill="none" stroke="midnightblue" d="M367.082,-91.067C389.441,-96.0884 413.134,-101.409 434.722,-106.258"/>
<polygon fill="midnightblue" stroke="midnightblue" points="433.956,-109.673 444.48,-108.449 435.49,-102.843 433.956,-109.673"/>
</g>
<!-- Node4 -->
<g id="node5" class="node"><title>Node4</title>
<g id="a_node5"><a xlink:href="class_little_weeb_library_1_1_handlers_1_1_debug_handler.html#afccb37dfd6b2114af72000c2f4fe4607" target="_top" xlink:title="LittleWeebLibrary.Handlers.\lDebugHandler.TraceMessage">
<polygon fill="white" stroke="black" points="440.5,-56.5 440.5,-86.5 584.5,-86.5 584.5,-56.5 440.5,-56.5"/>
<text text-anchor="start" x="448.5" y="-74.5" font-family="Helvetica,sans-Serif" font-size="10.00">LittleWeebLibrary.Handlers.</text>
<text text-anchor="middle" x="512.5" y="-63.5" font-family="Helvetica,sans-Serif" font-size="10.00">DebugHandler.TraceMessage</text>
</a>
</g>
</g>
<!-- Node3&#45;&gt;Node4 -->
<g id="edge4" class="edge"><title>Node3&#45;&gt;Node4</title>
<path fill="none" stroke="midnightblue" d="M369.112,-70.8967C389.277,-70.9821 410.434,-71.0718 430.089,-71.155"/>
<polygon fill="midnightblue" stroke="midnightblue" points="430.202,-74.6555 440.217,-71.198 430.232,-67.6555 430.202,-74.6555"/>
</g>
<!-- Node5 -->
<g id="node6" class="node"><title>Node5</title>
<g id="a_node6"><a xlink:href="interface_little_weeb_library_1_1_handlers_1_1_i_settings_handler.html#a8ee9be789e628c80fae0db96d890569b" target="_top" xlink:title="LittleWeebLibrary.Handlers.\lISettingsHandler.GetIrcSettings">
<polygon fill="white" stroke="black" points="436,-7.5 436,-37.5 589,-37.5 589,-7.5 436,-7.5"/>
<text text-anchor="start" x="444" y="-25.5" font-family="Helvetica,sans-Serif" font-size="10.00">LittleWeebLibrary.Handlers.</text>
<text text-anchor="middle" x="512.5" y="-14.5" font-family="Helvetica,sans-Serif" font-size="10.00">ISettingsHandler.GetIrcSettings</text>
</a>
</g>
</g>
<!-- Node3&#45;&gt;Node5 -->
<g id="edge6" class="edge"><title>Node3&#45;&gt;Node5</title>
<path fill="none" stroke="midnightblue" d="M369.112,-51.4602C388.51,-47.515 408.826,-43.3828 427.84,-39.5157"/>
<polygon fill="midnightblue" stroke="midnightblue" points="428.55,-42.9429 437.652,-37.52 427.155,-36.0834 428.55,-42.9429"/>
</g>
</g>
</svg>
