<?xml version="1.0" encoding="UTF-8" standalone="no"?>
<!DOCTYPE svg PUBLIC "-//W3C//DTD SVG 1.1//EN"
 "http://www.w3.org/Graphics/SVG/1.1/DTD/svg11.dtd">
<!-- Generated by graphviz version 2.38.0 (20140413.2041)
 -->
<!-- Title: LittleWeebLibrary.Handlers.DirectoryHandler.GetDrives Pages: 1 -->
<svg width="325pt" height="235pt"
 viewBox="0.00 0.00 325.00 235.00" xmlns="http://www.w3.org/2000/svg" xmlns:xlink="http://www.w3.org/1999/xlink">
<g id="graph0" class="graph" transform="scale(1 1) rotate(0) translate(4 231)">
<title>LittleWeebLibrary.Handlers.DirectoryHandler.GetDrives</title>
<polygon fill="white" stroke="none" points="-4,4 -4,-231 321,-231 321,4 -4,4"/>
<!-- Node3 -->
<g id="node1" class="node"><title>Node3</title>
<polygon fill="#bfbfbf" stroke="black" points="0,-98.5 0,-128.5 137,-128.5 137,-98.5 0,-98.5"/>
<text text-anchor="start" x="8" y="-116.5" font-family="Helvetica,sans-Serif" font-size="10.00">LittleWeebLibrary.Handlers.</text>
<text text-anchor="middle" x="68.5" y="-105.5" font-family="Helvetica,sans-Serif" font-size="10.00">DirectoryHandler.GetDrives</text>
</g>
<!-- Node4 -->
<g id="node2" class="node"><title>Node4</title>
<g id="a_node2"><a xlink:href="class_little_weeb_library_1_1_models_1_1_json_directories.html#a06826e97f8dd170ecad5574cf8ef816a" target="_top" xlink:title="LittleWeebLibrary.Models.\lJsonDirectories.ToJson">
<polygon fill="white" stroke="black" points="180,-196.5 180,-226.5 310,-226.5 310,-196.5 180,-196.5"/>
<text text-anchor="start" x="188" y="-214.5" font-family="Helvetica,sans-Serif" font-size="10.00">LittleWeebLibrary.Models.</text>
<text text-anchor="middle" x="245" y="-203.5" font-family="Helvetica,sans-Serif" font-size="10.00">JsonDirectories.ToJson</text>
</a>
</g>
</g>
<!-- Node3&#45;&gt;Node4 -->
<g id="edge1" class="edge"><title>Node3&#45;&gt;Node4</title>
<path fill="none" stroke="midnightblue" d="M87.1394,-128.606C106.941,-144.947 140.56,-170.885 173,-187.5 176.483,-189.284 180.128,-190.98 183.849,-192.584"/>
<polygon fill="midnightblue" stroke="midnightblue" points="182.621,-195.863 193.203,-196.381 185.253,-189.377 182.621,-195.863"/>
</g>
<!-- Node5 -->
<g id="node3" class="node"><title>Node5</title>
<g id="a_node3"><a xlink:href="class_little_weeb_library_1_1_models_1_1_json_error.html#a0e3e7dd2e2990404b7f0461742b23440" target="_top" xlink:title="LittleWeebLibrary.Models.\lJsonError.ToJson">
<polygon fill="white" stroke="black" points="180,-147.5 180,-177.5 310,-177.5 310,-147.5 180,-147.5"/>
<text text-anchor="start" x="188" y="-165.5" font-family="Helvetica,sans-Serif" font-size="10.00">LittleWeebLibrary.Models.</text>
<text text-anchor="middle" x="245" y="-154.5" font-family="Helvetica,sans-Serif" font-size="10.00">JsonError.ToJson</text>
</a>
</g>
</g>
<!-- Node3&#45;&gt;Node5 -->
<g id="edge2" class="edge"><title>Node3&#45;&gt;Node5</title>
<path fill="none" stroke="midnightblue" d="M123.28,-128.601C141.443,-133.702 161.888,-139.443 180.719,-144.73"/>
<polygon fill="midnightblue" stroke="midnightblue" points="179.824,-148.115 190.398,-147.448 181.717,-141.375 179.824,-148.115"/>
</g>
<!-- Node6 -->
<g id="node4" class="node"><title>Node6</title>
<g id="a_node4"><a xlink:href="class_little_weeb_library_1_1_models_1_1_json_directory.html#a3527cf5cff598f63b5f95cf7d6158b55" target="_top" xlink:title="LittleWeebLibrary.Models.\lJsonDirectory.ToJson">
<polygon fill="white" stroke="black" points="180,-98.5 180,-128.5 310,-128.5 310,-98.5 180,-98.5"/>
<text text-anchor="start" x="188" y="-116.5" font-family="Helvetica,sans-Serif" font-size="10.00">LittleWeebLibrary.Models.</text>
<text text-anchor="middle" x="245" y="-105.5" font-family="Helvetica,sans-Serif" font-size="10.00">JsonDirectory.ToJson</text>
</a>
</g>
</g>
<!-- Node3&#45;&gt;Node6 -->
<g id="edge3" class="edge"><title>Node3&#45;&gt;Node6</title>
<path fill="none" stroke="midnightblue" d="M137.466,-113.5C148.054,-113.5 159.041,-113.5 169.759,-113.5"/>
<polygon fill="midnightblue" stroke="midnightblue" points="169.932,-117 179.932,-113.5 169.932,-110 169.932,-117"/>
</g>
<!-- Node7 -->
<g id="node5" class="node"><title>Node7</title>
<g id="a_node5"><a xlink:href="class_little_weeb_library_1_1_models_1_1_json_error.html#ad7d5522c90119111d2e929f39e7f6d3c" target="_top" xlink:title="LittleWeebLibrary.Models.\lJsonError.ToString">
<polygon fill="white" stroke="black" points="180,-49.5 180,-79.5 310,-79.5 310,-49.5 180,-49.5"/>
<text text-anchor="start" x="188" y="-67.5" font-family="Helvetica,sans-Serif" font-size="10.00">LittleWeebLibrary.Models.</text>
<text text-anchor="middle" x="245" y="-56.5" font-family="Helvetica,sans-Serif" font-size="10.00">JsonError.ToString</text>
</a>
</g>
</g>
<!-- Node3&#45;&gt;Node7 -->
<g id="edge4" class="edge"><title>Node3&#45;&gt;Node7</title>
<path fill="none" stroke="midnightblue" d="M123.28,-98.3986C141.443,-93.2981 161.888,-87.5571 180.719,-82.2695"/>
<polygon fill="midnightblue" stroke="midnightblue" points="181.717,-85.6248 190.398,-79.5516 179.824,-78.8854 181.717,-85.6248"/>
</g>
<!-- Node8 -->
<g id="node6" class="node"><title>Node8</title>
<g id="a_node6"><a xlink:href="class_little_weeb_library_1_1_handlers_1_1_debug_handler.html#afccb37dfd6b2114af72000c2f4fe4607" target="_top" xlink:title="LittleWeebLibrary.Handlers.\lDebugHandler.TraceMessage">
<polygon fill="white" stroke="black" points="173,-0.5 173,-30.5 317,-30.5 317,-0.5 173,-0.5"/>
<text text-anchor="start" x="181" y="-18.5" font-family="Helvetica,sans-Serif" font-size="10.00">LittleWeebLibrary.Handlers.</text>
<text text-anchor="middle" x="245" y="-7.5" font-family="Helvetica,sans-Serif" font-size="10.00">DebugHandler.TraceMessage</text>
</a>
</g>
</g>
<!-- Node3&#45;&gt;Node8 -->
<g id="edge5" class="edge"><title>Node3&#45;&gt;Node8</title>
<path fill="none" stroke="midnightblue" d="M87.5775,-98.4C107.491,-82.3457 140.954,-57.0377 173,-40.5 177.206,-38.3294 181.643,-36.2725 186.162,-34.3407"/>
<polygon fill="midnightblue" stroke="midnightblue" points="187.55,-37.5547 195.503,-30.5547 184.921,-31.0672 187.55,-37.5547"/>
</g>
</g>
</svg>
