<?xml version="1.0" encoding="UTF-8" standalone="no"?>
<!DOCTYPE svg PUBLIC "-//W3C//DTD SVG 1.1//EN"
 "http://www.w3.org/Graphics/SVG/1.1/DTD/svg11.dtd">
<!-- Generated by graphviz version 2.38.0 (20140413.2041)
 -->
<!-- Title: LittleWeebLibrary.Handlers.NiblHandler.SearchNibl Pages: 1 -->
<svg width="827pt" height="161pt"
 viewBox="0.00 0.00 827.00 161.00" xmlns="http://www.w3.org/2000/svg" xmlns:xlink="http://www.w3.org/1999/xlink">
<g id="graph0" class="graph" transform="scale(1 1) rotate(0) translate(4 157)">
<title>LittleWeebLibrary.Handlers.NiblHandler.SearchNibl</title>
<polygon fill="white" stroke="none" points="-4,4 -4,-157 823,-157 823,4 -4,4"/>
<!-- Node16 -->
<g id="node1" class="node"><title>Node16</title>
<polygon fill="#bfbfbf" stroke="black" points="0,-62 0,-92 137,-92 137,-62 0,-62"/>
<text text-anchor="start" x="8" y="-80" font-family="Helvetica,sans-Serif" font-size="10.00">LittleWeebLibrary.Handlers.</text>
<text text-anchor="middle" x="68.5" y="-69" font-family="Helvetica,sans-Serif" font-size="10.00">NiblHandler.SearchNibl</text>
</g>
<!-- Node17 -->
<g id="node2" class="node"><title>Node17</title>
<g id="a_node2"><a xlink:href="class_little_weeb_library_1_1_handlers_1_1_anime_profile_handler.html#a2f28ad03d4dfe8d90c0392da8af39651" target="_top" xlink:title="LittleWeebLibrary.Handlers.\lAnimeProfileHandler.AnimeLatest\lEpisode">
<polygon fill="white" stroke="black" points="187.5,-111.5 187.5,-152.5 349.5,-152.5 349.5,-111.5 187.5,-111.5"/>
<text text-anchor="start" x="195.5" y="-140.5" font-family="Helvetica,sans-Serif" font-size="10.00">LittleWeebLibrary.Handlers.</text>
<text text-anchor="start" x="195.5" y="-129.5" font-family="Helvetica,sans-Serif" font-size="10.00">AnimeProfileHandler.AnimeLatest</text>
<text text-anchor="middle" x="268.5" y="-118.5" font-family="Helvetica,sans-Serif" font-size="10.00">Episode</text>
</a>
</g>
</g>
<!-- Node16&#45;&gt;Node17 -->
<g id="edge1" class="edge"><title>Node16&#45;&gt;Node17</title>
<path fill="none" stroke="midnightblue" d="M133.41,-94.7527C152.545,-100.068 173.689,-105.941 193.42,-111.422"/>
<polygon fill="midnightblue" stroke="midnightblue" points="134.176,-91.3332 123.604,-92.029 132.303,-98.0778 134.176,-91.3332"/>
</g>
<!-- Node18 -->
<g id="node3" class="node"><title>Node18</title>
<g id="a_node3"><a xlink:href="class_little_weeb_library_1_1_handlers_1_1_anime_profile_handler.html#a5b163eb7e68b1e40904fa55454d8ba54" target="_top" xlink:title="LittleWeebLibrary.Handlers.\lAnimeProfileHandler.GetAnimeEpisodes">
<polygon fill="white" stroke="black" points="173,-62 173,-92 364,-92 364,-62 173,-62"/>
<text text-anchor="start" x="181" y="-80" font-family="Helvetica,sans-Serif" font-size="10.00">LittleWeebLibrary.Handlers.</text>
<text text-anchor="middle" x="268.5" y="-69" font-family="Helvetica,sans-Serif" font-size="10.00">AnimeProfileHandler.GetAnimeEpisodes</text>
</a>
</g>
</g>
<!-- Node16&#45;&gt;Node18 -->
<g id="edge2" class="edge"><title>Node16&#45;&gt;Node18</title>
<path fill="none" stroke="midnightblue" d="M147.235,-77C155.657,-77 164.294,-77 172.887,-77"/>
<polygon fill="midnightblue" stroke="midnightblue" points="147.087,-73.5001 137.087,-77 147.087,-80.5001 147.087,-73.5001"/>
</g>
<!-- Node21 -->
<g id="node6" class="node"><title>Node21</title>
<g id="a_node6"><a xlink:href="class_little_weeb_library_1_1_services_1_1_info_api_web_socket_service.html#a299be5b400f1368ab169599395a3e56d" target="_top" xlink:title="LittleWeebLibrary.Services.\lInfoApiWebSocketService.GetFiles\lForAnime">
<polygon fill="white" stroke="black" points="403.5,-0.5 403.5,-41.5 571.5,-41.5 571.5,-0.5 403.5,-0.5"/>
<text text-anchor="start" x="411.5" y="-29.5" font-family="Helvetica,sans-Serif" font-size="10.00">LittleWeebLibrary.Services.</text>
<text text-anchor="start" x="411.5" y="-18.5" font-family="Helvetica,sans-Serif" font-size="10.00">InfoApiWebSocketService.GetFiles</text>
<text text-anchor="middle" x="487.5" y="-7.5" font-family="Helvetica,sans-Serif" font-size="10.00">ForAnime</text>
</a>
</g>
</g>
<!-- Node16&#45;&gt;Node21 -->
<g id="edge5" class="edge"><title>Node16&#45;&gt;Node21</title>
<path fill="none" stroke="midnightblue" d="M135.436,-59.632C147.853,-56.7721 160.776,-54.0705 173,-52 250.516,-38.8705 339.828,-30.7115 403.246,-26.0807"/>
<polygon fill="midnightblue" stroke="midnightblue" points="134.538,-56.2475 125.609,-61.9505 136.146,-63.0605 134.538,-56.2475"/>
</g>
<!-- Node19 -->
<g id="node4" class="node"><title>Node19</title>
<g id="a_node4"><a xlink:href="class_little_weeb_library_1_1_services_1_1_info_api_web_socket_service.html#a754f738fba586cc927d64251329c736a" target="_top" xlink:title="LittleWeebLibrary.Services.\lInfoApiWebSocketService.GetAnime\lEpisodes">
<polygon fill="white" stroke="black" points="400,-60.5 400,-101.5 575,-101.5 575,-60.5 400,-60.5"/>
<text text-anchor="start" x="408" y="-89.5" font-family="Helvetica,sans-Serif" font-size="10.00">LittleWeebLibrary.Services.</text>
<text text-anchor="start" x="408" y="-78.5" font-family="Helvetica,sans-Serif" font-size="10.00">InfoApiWebSocketService.GetAnime</text>
<text text-anchor="middle" x="487.5" y="-67.5" font-family="Helvetica,sans-Serif" font-size="10.00">Episodes</text>
</a>
</g>
</g>
<!-- Node18&#45;&gt;Node19 -->
<g id="edge3" class="edge"><title>Node18&#45;&gt;Node19</title>
<path fill="none" stroke="midnightblue" d="M374.111,-78.9283C382.707,-79.0868 391.336,-79.2458 399.781,-79.4015"/>
<polygon fill="midnightblue" stroke="midnightblue" points="374.111,-75.4278 364.048,-78.7428 373.982,-82.4266 374.111,-75.4278"/>
</g>
<!-- Node20 -->
<g id="node5" class="node"><title>Node20</title>
<g id="a_node5"><a xlink:href="class_little_weeb_library_1_1_controllers_1_1_sub_controllers_1_1_info_api_web_socket_controller.html#ad620537574b819085ff8eb394add2912" target="_top" xlink:title="LittleWeebLibrary.Controllers.\lSubControllers.InfoApiWebSocketController.\lOnWebSocketEvent">
<polygon fill="white" stroke="black" points="611,-30.5 611,-71.5 819,-71.5 819,-30.5 611,-30.5"/>
<text text-anchor="start" x="619" y="-59.5" font-family="Helvetica,sans-Serif" font-size="10.00">LittleWeebLibrary.Controllers.</text>
<text text-anchor="start" x="619" y="-48.5" font-family="Helvetica,sans-Serif" font-size="10.00">SubControllers.InfoApiWebSocketController.</text>
<text text-anchor="middle" x="715" y="-37.5" font-family="Helvetica,sans-Serif" font-size="10.00">OnWebSocketEvent</text>
</a>
</g>
</g>
<!-- Node19&#45;&gt;Node20 -->
<g id="edge4" class="edge"><title>Node19&#45;&gt;Node20</title>
<path fill="none" stroke="midnightblue" d="M584.972,-68.1655C593.494,-67.0319 602.142,-65.8814 610.716,-64.7406"/>
<polygon fill="midnightblue" stroke="midnightblue" points="584.49,-64.6987 575.039,-69.487 585.414,-71.6376 584.49,-64.6987"/>
</g>
<!-- Node21&#45;&gt;Node20 -->
<g id="edge6" class="edge"><title>Node21&#45;&gt;Node20</title>
<path fill="none" stroke="midnightblue" d="M581.512,-33.3741C591.194,-34.6622 601.076,-35.9769 610.862,-37.2787"/>
<polygon fill="midnightblue" stroke="midnightblue" points="581.881,-29.8925 571.507,-32.0431 580.958,-36.8314 581.881,-29.8925"/>
</g>
</g>
</svg>
