<?xml version="1.0" encoding="UTF-8" standalone="no"?>
<!DOCTYPE svg PUBLIC "-//W3C//DTD SVG 1.1//EN"
 "http://www.w3.org/Graphics/SVG/1.1/DTD/svg11.dtd">
<!-- Generated by graphviz version 2.38.0 (20140413.2041)
 -->
<!-- Title: LittleWeebLibrary.Handlers.SettingsHandler.GetLittleWeebSettings Pages: 1 -->
<svg width="623pt" height="280pt"
 viewBox="0.00 0.00 623.00 280.00" xmlns="http://www.w3.org/2000/svg" xmlns:xlink="http://www.w3.org/1999/xlink">
<g id="graph0" class="graph" transform="scale(1 1) rotate(0) translate(4 276)">
<title>LittleWeebLibrary.Handlers.SettingsHandler.GetLittleWeebSettings</title>
<polygon fill="white" stroke="none" points="-4,4 -4,-276 619,-276 619,4 -4,4"/>
<!-- Node22 -->
<g id="node1" class="node"><title>Node22</title>
<polygon fill="#bfbfbf" stroke="black" points="0,-121 0,-151 187,-151 187,-121 0,-121"/>
<text text-anchor="start" x="8" y="-139" font-family="Helvetica,sans-Serif" font-size="10.00">LittleWeebLibrary.Handlers.</text>
<text text-anchor="middle" x="93.5" y="-128" font-family="Helvetica,sans-Serif" font-size="10.00">SettingsHandler.GetLittleWeebSettings</text>
</g>
<!-- Node23 -->
<g id="node2" class="node"><title>Node23</title>
<g id="a_node2"><a xlink:href="class_little_weeb_library_1_1_services_1_1_download_web_socket_service.html#a33a4c5640800b885662c686013c02971" target="_top" xlink:title="LittleWeebLibrary.Services.\lDownloadWebSocketService.Download\lWebSocketService">
<polygon fill="white" stroke="black" points="223,-230.5 223,-271.5 409,-271.5 409,-230.5 223,-230.5"/>
<text text-anchor="start" x="231" y="-259.5" font-family="Helvetica,sans-Serif" font-size="10.00">LittleWeebLibrary.Services.</text>
<text text-anchor="start" x="231" y="-248.5" font-family="Helvetica,sans-Serif" font-size="10.00">DownloadWebSocketService.Download</text>
<text text-anchor="middle" x="316" y="-237.5" font-family="Helvetica,sans-Serif" font-size="10.00">WebSocketService</text>
</a>
</g>
</g>
<!-- Node22&#45;&gt;Node23 -->
<g id="edge1" class="edge"><title>Node22&#45;&gt;Node23</title>
<path fill="none" stroke="midnightblue" d="M121.957,-157.333C147.125,-176.098 185.994,-203.133 223,-221 229.959,-224.36 237.388,-227.481 244.893,-230.341"/>
<polygon fill="midnightblue" stroke="midnightblue" points="124.061,-154.537 113.969,-151.312 119.848,-160.127 124.061,-154.537"/>
</g>
<!-- Node24 -->
<g id="node3" class="node"><title>Node24</title>
<g id="a_node3"><a xlink:href="class_little_weeb_library_1_1_services_1_1_settings_web_socket_service.html#a50cbfe4ba270c9e84b6b7b427a1b9ce0" target="_top" xlink:title="LittleWeebLibrary.Services.\lSettingsWebSocketService.GetCurrent\lLittleWeebSettings">
<polygon fill="white" stroke="black" points="223.5,-170.5 223.5,-211.5 408.5,-211.5 408.5,-170.5 223.5,-170.5"/>
<text text-anchor="start" x="231.5" y="-199.5" font-family="Helvetica,sans-Serif" font-size="10.00">LittleWeebLibrary.Services.</text>
<text text-anchor="start" x="231.5" y="-188.5" font-family="Helvetica,sans-Serif" font-size="10.00">SettingsWebSocketService.GetCurrent</text>
<text text-anchor="middle" x="316" y="-177.5" font-family="Helvetica,sans-Serif" font-size="10.00">LittleWeebSettings</text>
</a>
</g>
</g>
<!-- Node22&#45;&gt;Node24 -->
<g id="edge2" class="edge"><title>Node22&#45;&gt;Node24</title>
<path fill="none" stroke="midnightblue" d="M164.501,-153.461C186.117,-158.852 210.125,-164.841 232.502,-170.422"/>
<polygon fill="midnightblue" stroke="midnightblue" points="165.302,-150.053 154.753,-151.029 163.608,-156.845 165.302,-150.053"/>
</g>
<!-- Node26 -->
<g id="node5" class="node"><title>Node26</title>
<g id="a_node5"><a xlink:href="class_little_weeb_library_1_1_handlers_1_1_irc_client_handler.html#a01745667c95f2c3d5c461f708aa13bb8" target="_top" xlink:title="LittleWeebLibrary.Handlers.\lIrcClientHandler.IrcClientHandler">
<polygon fill="white" stroke="black" points="238,-121 238,-151 394,-151 394,-121 238,-121"/>
<text text-anchor="start" x="246" y="-139" font-family="Helvetica,sans-Serif" font-size="10.00">LittleWeebLibrary.Handlers.</text>
<text text-anchor="middle" x="316" y="-128" font-family="Helvetica,sans-Serif" font-size="10.00">IrcClientHandler.IrcClientHandler</text>
</a>
</g>
</g>
<!-- Node22&#45;&gt;Node26 -->
<g id="edge4" class="edge"><title>Node22&#45;&gt;Node26</title>
<path fill="none" stroke="midnightblue" d="M197.38,-136C210.94,-136 224.649,-136 237.682,-136"/>
<polygon fill="midnightblue" stroke="midnightblue" points="197.053,-132.5 187.053,-136 197.053,-139.5 197.053,-132.5"/>
</g>
<!-- Node27 -->
<g id="node6" class="node"><title>Node27</title>
<g id="a_node6"><a xlink:href="class_little_weeb_library_1_1_services_1_1_irc_web_socket_service.html#a3265383962fc71a18b9a6fa0c4c84797" target="_top" xlink:title="LittleWeebLibrary.Services.\lIrcWebSocketService.IrcWebSocket\lService">
<polygon fill="white" stroke="black" points="229,-60.5 229,-101.5 403,-101.5 403,-60.5 229,-60.5"/>
<text text-anchor="start" x="237" y="-89.5" font-family="Helvetica,sans-Serif" font-size="10.00">LittleWeebLibrary.Services.</text>
<text text-anchor="start" x="237" y="-78.5" font-family="Helvetica,sans-Serif" font-size="10.00">IrcWebSocketService.IrcWebSocket</text>
<text text-anchor="middle" x="316" y="-67.5" font-family="Helvetica,sans-Serif" font-size="10.00">Service</text>
</a>
</g>
</g>
<!-- Node22&#45;&gt;Node27 -->
<g id="edge5" class="edge"><title>Node22&#45;&gt;Node27</title>
<path fill="none" stroke="midnightblue" d="M164.501,-118.539C186.117,-113.148 210.125,-107.159 232.502,-101.578"/>
<polygon fill="midnightblue" stroke="midnightblue" points="163.608,-115.155 154.753,-120.971 165.302,-121.947 163.608,-115.155"/>
</g>
<!-- Node28 -->
<g id="node7" class="node"><title>Node28</title>
<g id="a_node7"><a xlink:href="class_little_weeb_library_1_1_services_1_1_settings_web_socket_service.html#aa53e9a1723c0b2d607d2aa9db1991c3c" target="_top" xlink:title="LittleWeebLibrary.Services.\lSettingsWebSocketService.SetLittle\lWeebSettings">
<polygon fill="white" stroke="black" points="229,-0.5 229,-41.5 403,-41.5 403,-0.5 229,-0.5"/>
<text text-anchor="start" x="237" y="-29.5" font-family="Helvetica,sans-Serif" font-size="10.00">LittleWeebLibrary.Services.</text>
<text text-anchor="start" x="237" y="-18.5" font-family="Helvetica,sans-Serif" font-size="10.00">SettingsWebSocketService.SetLittle</text>
<text text-anchor="middle" x="316" y="-7.5" font-family="Helvetica,sans-Serif" font-size="10.00">WeebSettings</text>
</a>
</g>
</g>
<!-- Node22&#45;&gt;Node28 -->
<g id="edge6" class="edge"><title>Node22&#45;&gt;Node28</title>
<path fill="none" stroke="midnightblue" d="M121.957,-114.667C147.125,-95.9023 185.994,-68.8673 223,-51 229.959,-47.6399 237.388,-44.5188 244.893,-41.6591"/>
<polygon fill="midnightblue" stroke="midnightblue" points="119.848,-111.873 113.969,-120.688 124.061,-117.463 119.848,-111.873"/>
</g>
<!-- Node25 -->
<g id="node4" class="node"><title>Node25</title>
<g id="a_node4"><a xlink:href="class_little_weeb_library_1_1_controllers_1_1_sub_controllers_1_1_settings_web_socket_controller.html#a39b333aee248388fd295a8511486c76e" target="_top" xlink:title="LittleWeebLibrary.Controllers.\lSubControllers.SettingsWebSocket\lController.OnWebSocketEvent">
<polygon fill="white" stroke="black" points="445,-85.5 445,-126.5 615,-126.5 615,-85.5 445,-85.5"/>
<text text-anchor="start" x="453" y="-114.5" font-family="Helvetica,sans-Serif" font-size="10.00">LittleWeebLibrary.Controllers.</text>
<text text-anchor="start" x="453" y="-103.5" font-family="Helvetica,sans-Serif" font-size="10.00">SubControllers.SettingsWebSocket</text>
<text text-anchor="middle" x="530" y="-92.5" font-family="Helvetica,sans-Serif" font-size="10.00">Controller.OnWebSocketEvent</text>
</a>
</g>
</g>
<!-- Node24&#45;&gt;Node25 -->
<g id="edge3" class="edge"><title>Node24&#45;&gt;Node25</title>
<path fill="none" stroke="midnightblue" d="M392.991,-166.982C398.434,-165.029 403.817,-163.025 409,-161 435.469,-150.658 464.45,-137.431 487.3,-126.54"/>
<polygon fill="midnightblue" stroke="midnightblue" points="391.432,-163.82 383.158,-170.438 393.753,-170.424 391.432,-163.82"/>
</g>
<!-- Node28&#45;&gt;Node25 -->
<g id="edge7" class="edge"><title>Node28&#45;&gt;Node25</title>
<path fill="none" stroke="midnightblue" d="M392.991,-45.0179C398.434,-46.9713 403.817,-48.9747 409,-51 435.469,-61.3421 464.45,-74.5693 487.3,-85.4603"/>
<polygon fill="midnightblue" stroke="midnightblue" points="393.753,-41.5758 383.158,-41.562 391.432,-48.1798 393.753,-41.5758"/>
</g>
</g>
</svg>
