<?xml version="1.0" encoding="UTF-8" standalone="no"?>
<!DOCTYPE svg PUBLIC "-//W3C//DTD SVG 1.1//EN"
 "http://www.w3.org/Graphics/SVG/1.1/DTD/svg11.dtd">
<!-- Generated by graphviz version 2.38.0 (20140413.2041)
 -->
<!-- Title: LittleWeebLibrary.Controllers.FileWebSocketController Pages: 1 -->
<svg width="600pt" height="226pt"
 viewBox="0.00 0.00 599.50 226.00" xmlns="http://www.w3.org/2000/svg" xmlns:xlink="http://www.w3.org/1999/xlink">
<g id="graph0" class="graph" transform="scale(1 1) rotate(0) translate(4 222)">
<title>LittleWeebLibrary.Controllers.FileWebSocketController</title>
<polygon fill="white" stroke="none" points="-4,4 -4,-222 595.5,-222 595.5,4 -4,4"/>
<!-- Node2 -->
<g id="node1" class="node"><title>Node2</title>
<polygon fill="#bfbfbf" stroke="black" points="219.5,-0.5 219.5,-79.5 364.5,-79.5 364.5,-0.5 219.5,-0.5"/>
<text text-anchor="start" x="227.5" y="-67.5" font-family="Helvetica,sans-Serif" font-size="10.00">LittleWeebLibrary.Controllers.</text>
<text text-anchor="middle" x="292" y="-56.5" font-family="Helvetica,sans-Serif" font-size="10.00">FileWebSocketController</text>
<polyline fill="none" stroke="black" points="219.5,-49.5 364.5,-49.5 "/>
<text text-anchor="middle" x="292" y="-37.5" font-family="Helvetica,sans-Serif" font-size="10.00"> </text>
<polyline fill="none" stroke="black" points="219.5,-30.5 364.5,-30.5 "/>
<text text-anchor="start" x="227.5" y="-18.5" font-family="Helvetica,sans-Serif" font-size="10.00">+ FileWebSocketController()</text>
<text text-anchor="start" x="227.5" y="-7.5" font-family="Helvetica,sans-Serif" font-size="10.00">+ OnWebSocketEvent()</text>
</g>
<!-- Node3 -->
<g id="node2" class="node"><title>Node3</title>
<g id="a_node2"><a xlink:href="interface_little_weeb_library_1_1_controllers_1_1_i_sub_web_socket_controller.html" target="_top" xlink:title="{ISubWebSocketController\n||+ OnWebSocketEvent()\l}">
<polygon fill="white" stroke="black" points="0,-144 0,-201 128,-201 128,-144 0,-144"/>
<text text-anchor="middle" x="64" y="-189" font-family="Helvetica,sans-Serif" font-size="10.00">ISubWebSocketController</text>
<polyline fill="none" stroke="black" points="0,-182 128,-182 "/>
<text text-anchor="middle" x="64" y="-170" font-family="Helvetica,sans-Serif" font-size="10.00"> </text>
<polyline fill="none" stroke="black" points="0,-163 128,-163 "/>
<text text-anchor="start" x="8" y="-151" font-family="Helvetica,sans-Serif" font-size="10.00">+ OnWebSocketEvent()</text>
</a>
</g>
</g>
<!-- Node3&#45;&gt;Node2 -->
<g id="edge1" class="edge"><title>Node3&#45;&gt;Node2</title>
<path fill="none" stroke="midnightblue" d="M117.472,-138.561C124.026,-134.625 130.65,-130.695 137,-127 164.264,-111.135 194.544,-94.1881 221.054,-79.5683"/>
<polygon fill="none" stroke="midnightblue" points="115.362,-135.746 108.61,-143.91 118.98,-141.739 115.362,-135.746"/>
</g>
<!-- Node4 -->
<g id="node3" class="node"><title>Node4</title>
<g id="a_node3"><a xlink:href="interface_little_weeb_library_1_1_handlers_1_1_i_debug_handler.html" target="_top" xlink:title="{LittleWeebLibrary.Handlers.\lIDebugHandler\n||+ SetSettings()\l+ StopDebugger()\l+ TraceMessage()\l}">
<polygon fill="white" stroke="black" points="146.5,-127.5 146.5,-217.5 283.5,-217.5 283.5,-127.5 146.5,-127.5"/>
<text text-anchor="start" x="154.5" y="-205.5" font-family="Helvetica,sans-Serif" font-size="10.00">LittleWeebLibrary.Handlers.</text>
<text text-anchor="middle" x="215" y="-194.5" font-family="Helvetica,sans-Serif" font-size="10.00">IDebugHandler</text>
<polyline fill="none" stroke="black" points="146.5,-187.5 283.5,-187.5 "/>
<text text-anchor="middle" x="215" y="-175.5" font-family="Helvetica,sans-Serif" font-size="10.00"> </text>
<polyline fill="none" stroke="black" points="146.5,-168.5 283.5,-168.5 "/>
<text text-anchor="start" x="154.5" y="-156.5" font-family="Helvetica,sans-Serif" font-size="10.00">+ SetSettings()</text>
<text text-anchor="start" x="154.5" y="-145.5" font-family="Helvetica,sans-Serif" font-size="10.00">+ StopDebugger()</text>
<text text-anchor="start" x="154.5" y="-134.5" font-family="Helvetica,sans-Serif" font-size="10.00">+ TraceMessage()</text>
</a>
</g>
</g>
<!-- Node4&#45;&gt;Node2 -->
<g id="edge2" class="edge"><title>Node4&#45;&gt;Node2</title>
<path fill="none" stroke="#404040" d="M241.069,-127.319C248.088,-115.423 255.724,-102.481 262.897,-90.3241"/>
<polygon fill="none" stroke="#404040" points="262.956,-90.2243 262.56,-83.0241 269.054,-79.8892 269.45,-87.0895 262.956,-90.2243"/>
<text text-anchor="middle" x="292.5" y="-101" font-family="Helvetica,sans-Serif" font-size="10.00"> &#45;DebugHandler</text>
</g>
<!-- Node5 -->
<g id="node4" class="node"><title>Node5</title>
<g id="a_node4"><a xlink:href="interface_little_weeb_library_1_1_services_1_1_i_file_web_socket_service.html" target="_top" xlink:title="{LittleWeebLibrary.Services.\lIFileWebSocketService\n||+ DeleteFile()\l+ OpenFile()\l}">
<polygon fill="white" stroke="black" points="301.5,-133 301.5,-212 436.5,-212 436.5,-133 301.5,-133"/>
<text text-anchor="start" x="309.5" y="-200" font-family="Helvetica,sans-Serif" font-size="10.00">LittleWeebLibrary.Services.</text>
<text text-anchor="middle" x="369" y="-189" font-family="Helvetica,sans-Serif" font-size="10.00">IFileWebSocketService</text>
<polyline fill="none" stroke="black" points="301.5,-182 436.5,-182 "/>
<text text-anchor="middle" x="369" y="-170" font-family="Helvetica,sans-Serif" font-size="10.00"> </text>
<polyline fill="none" stroke="black" points="301.5,-163 436.5,-163 "/>
<text text-anchor="start" x="309.5" y="-151" font-family="Helvetica,sans-Serif" font-size="10.00">+ DeleteFile()</text>
<text text-anchor="start" x="309.5" y="-140" font-family="Helvetica,sans-Serif" font-size="10.00">+ OpenFile()</text>
</a>
</g>
</g>
<!-- Node5&#45;&gt;Node2 -->
<g id="edge3" class="edge"><title>Node5&#45;&gt;Node2</title>
<path fill="none" stroke="#404040" d="M349.474,-132.949C343.459,-121.564 336.661,-109.165 330,-98 328.427,-95.3636 326.785,-92.6793 325.104,-89.9837"/>
<polygon fill="none" stroke="#404040" points="324.939,-89.7256 318.341,-86.8168 318.488,-79.6072 325.087,-82.516 324.939,-89.7256"/>
<text text-anchor="middle" x="388.5" y="-101" font-family="Helvetica,sans-Serif" font-size="10.00"> &#45;FileWebSocketService</text>
</g>
<!-- Node6 -->
<g id="node5" class="node"><title>Node6</title>
<g id="a_node5"><a xlink:href="interface_little_weeb_library_1_1_handlers_1_1_i_web_socket_handler.html" target="_top" xlink:title="{LittleWeebLibrary.Handlers.\lIWebSocketHandler\n||+ SendMessage()\l+ StartServer()\l+ StopServer()\l}">
<polygon fill="white" stroke="black" points="454.5,-127.5 454.5,-217.5 591.5,-217.5 591.5,-127.5 454.5,-127.5"/>
<text text-anchor="start" x="462.5" y="-205.5" font-family="Helvetica,sans-Serif" font-size="10.00">LittleWeebLibrary.Handlers.</text>
<text text-anchor="middle" x="523" y="-194.5" font-family="Helvetica,sans-Serif" font-size="10.00">IWebSocketHandler</text>
<polyline fill="none" stroke="black" points="454.5,-187.5 591.5,-187.5 "/>
<text text-anchor="middle" x="523" y="-175.5" font-family="Helvetica,sans-Serif" font-size="10.00"> </text>
<polyline fill="none" stroke="black" points="454.5,-168.5 591.5,-168.5 "/>
<text text-anchor="start" x="462.5" y="-156.5" font-family="Helvetica,sans-Serif" font-size="10.00">+ SendMessage()</text>
<text text-anchor="start" x="462.5" y="-145.5" font-family="Helvetica,sans-Serif" font-size="10.00">+ StartServer()</text>
<text text-anchor="start" x="462.5" y="-134.5" font-family="Helvetica,sans-Serif" font-size="10.00">+ StopServer()</text>
</a>
</g>
</g>
<!-- Node6&#45;&gt;Node2 -->
<g id="edge4" class="edge"><title>Node6&#45;&gt;Node2</title>
<path fill="none" stroke="#404040" d="M482.25,-127.339C470.926,-116.746 458.116,-106.153 445,-98 423.994,-84.9421 399.532,-74.1636 376.411,-65.6277"/>
<polygon fill="none" stroke="#404040" points="376.131,-65.5279 369.136,-67.2776 364.83,-61.4931 371.826,-59.7434 376.131,-65.5279"/>
<text text-anchor="middle" x="505.5" y="-101" font-family="Helvetica,sans-Serif" font-size="10.00"> &#45;WebSocketHandler</text>
</g>
</g>
</svg>
