<?xml version="1.0" encoding="UTF-8" standalone="no"?>
<!DOCTYPE svg PUBLIC "-//W3C//DTD SVG 1.1//EN"
 "http://www.w3.org/Graphics/SVG/1.1/DTD/svg11.dtd">
<!-- Generated by graphviz version 2.38.0 (20140413.2041)
 -->
<!-- Title: LittleWeebLibrary.Handlers.FileHistoryHandler Pages: 1 -->
<svg width="469pt" height="303pt"
 viewBox="0.00 0.00 469.00 303.00" xmlns="http://www.w3.org/2000/svg" xmlns:xlink="http://www.w3.org/1999/xlink">
<g id="graph0" class="graph" transform="scale(1 1) rotate(0) translate(4 299)">
<title>LittleWeebLibrary.Handlers.FileHistoryHandler</title>
<polygon fill="white" stroke="none" points="-4,4 -4,-299 465,-299 465,4 -4,4"/>
<!-- Node2 -->
<g id="node1" class="node"><title>Node2</title>
<polygon fill="#bfbfbf" stroke="black" points="162,-0.5 162,-101.5 313,-101.5 313,-0.5 162,-0.5"/>
<text text-anchor="start" x="170" y="-89.5" font-family="Helvetica,sans-Serif" font-size="10.00">LittleWeebLibrary.Handlers.</text>
<text text-anchor="middle" x="237.5" y="-78.5" font-family="Helvetica,sans-Serif" font-size="10.00">FileHistoryHandler</text>
<polyline fill="none" stroke="black" points="162,-71.5 313,-71.5 "/>
<text text-anchor="middle" x="237.5" y="-59.5" font-family="Helvetica,sans-Serif" font-size="10.00"> </text>
<polyline fill="none" stroke="black" points="162,-52.5 313,-52.5 "/>
<text text-anchor="start" x="170" y="-40.5" font-family="Helvetica,sans-Serif" font-size="10.00">+ FileHistoryHandler()</text>
<text text-anchor="start" x="170" y="-29.5" font-family="Helvetica,sans-Serif" font-size="10.00">+ AddFileToFileHistory()</text>
<text text-anchor="start" x="170" y="-18.5" font-family="Helvetica,sans-Serif" font-size="10.00">+ GetCurrentFileHistory()</text>
<text text-anchor="start" x="170" y="-7.5" font-family="Helvetica,sans-Serif" font-size="10.00">+ RemoveFileFromFileHistory()</text>
</g>
<!-- Node3 -->
<g id="node2" class="node"><title>Node3</title>
<g id="a_node2"><a xlink:href="interface_little_weeb_library_1_1_handlers_1_1_i_file_history_handler.html" target="_top" xlink:title="{IFileHistoryHandler\n||+ AddFileToFileHistory()\l+ GetCurrentFileHistory()\l+ RemoveFileFromFileHistory()\l}">
<polygon fill="white" stroke="black" points="0,-182.5 0,-261.5 151,-261.5 151,-182.5 0,-182.5"/>
<text text-anchor="middle" x="75.5" y="-249.5" font-family="Helvetica,sans-Serif" font-size="10.00">IFileHistoryHandler</text>
<polyline fill="none" stroke="black" points="0,-242.5 151,-242.5 "/>
<text text-anchor="middle" x="75.5" y="-230.5" font-family="Helvetica,sans-Serif" font-size="10.00"> </text>
<polyline fill="none" stroke="black" points="0,-223.5 151,-223.5 "/>
<text text-anchor="start" x="8" y="-211.5" font-family="Helvetica,sans-Serif" font-size="10.00">+ AddFileToFileHistory()</text>
<text text-anchor="start" x="8" y="-200.5" font-family="Helvetica,sans-Serif" font-size="10.00">+ GetCurrentFileHistory()</text>
<text text-anchor="start" x="8" y="-189.5" font-family="Helvetica,sans-Serif" font-size="10.00">+ RemoveFileFromFileHistory()</text>
</a>
</g>
</g>
<!-- Node3&#45;&gt;Node2 -->
<g id="edge1" class="edge"><title>Node3&#45;&gt;Node2</title>
<path fill="none" stroke="midnightblue" d="M119.864,-174.719C141.63,-152.013 167.867,-124.641 190.035,-101.516"/>
<polygon fill="none" stroke="midnightblue" points="117.059,-172.587 112.666,-182.228 122.113,-177.431 117.059,-172.587"/>
</g>
<!-- Node4 -->
<g id="node3" class="node"><title>Node4</title>
<g id="a_node3"><a xlink:href="interface_little_weeb_library_1_1_handlers_1_1_i_debug_handler.html" target="_top" xlink:title="{LittleWeebLibrary.Handlers.\lIDebugHandler\n||+ SetSettings()\l+ StopDebugger()\l+ TraceMessage()\l}">
<polygon fill="white" stroke="black" points="169,-177 169,-267 306,-267 306,-177 169,-177"/>
<text text-anchor="start" x="177" y="-255" font-family="Helvetica,sans-Serif" font-size="10.00">LittleWeebLibrary.Handlers.</text>
<text text-anchor="middle" x="237.5" y="-244" font-family="Helvetica,sans-Serif" font-size="10.00">IDebugHandler</text>
<polyline fill="none" stroke="black" points="169,-237 306,-237 "/>
<text text-anchor="middle" x="237.5" y="-225" font-family="Helvetica,sans-Serif" font-size="10.00"> </text>
<polyline fill="none" stroke="black" points="169,-218 306,-218 "/>
<text text-anchor="start" x="177" y="-206" font-family="Helvetica,sans-Serif" font-size="10.00">+ SetSettings()</text>
<text text-anchor="start" x="177" y="-195" font-family="Helvetica,sans-Serif" font-size="10.00">+ StopDebugger()</text>
<text text-anchor="start" x="177" y="-184" font-family="Helvetica,sans-Serif" font-size="10.00">+ TraceMessage()</text>
</a>
</g>
</g>
<!-- Node4&#45;&gt;Node2 -->
<g id="edge2" class="edge"><title>Node4&#45;&gt;Node2</title>
<path fill="none" stroke="#404040" d="M237.5,-176.597C237.5,-157.475 237.5,-134.787 237.5,-114.045"/>
<polygon fill="none" stroke="#404040" points="237.5,-113.767 233.5,-107.767 237.5,-101.767 241.5,-107.767 237.5,-113.767"/>
<text text-anchor="middle" x="271" y="-123" font-family="Helvetica,sans-Serif" font-size="10.00"> &#45;DebugHandler</text>
</g>
<!-- Node5 -->
<g id="node4" class="node"><title>Node5</title>
<g id="a_node4"><a xlink:href="interface_little_weeb_library_1_1_handlers_1_1_i_data_base_handler.html" target="_top" xlink:title="{LittleWeebLibrary.Handlers.\lIDataBaseHandler\n||+ GetCollection()\l+ GetJObject()\l+ GetJObject()\l+ RemoveJObject()\l+ RemoveJObject()\l+ StoreJObject()\l+ UpdateJObject()\l+ UpdateJObject()\l}">
<polygon fill="white" stroke="black" points="324,-149.5 324,-294.5 461,-294.5 461,-149.5 324,-149.5"/>
<text text-anchor="start" x="332" y="-282.5" font-family="Helvetica,sans-Serif" font-size="10.00">LittleWeebLibrary.Handlers.</text>
<text text-anchor="middle" x="392.5" y="-271.5" font-family="Helvetica,sans-Serif" font-size="10.00">IDataBaseHandler</text>
<polyline fill="none" stroke="black" points="324,-264.5 461,-264.5 "/>
<text text-anchor="middle" x="392.5" y="-252.5" font-family="Helvetica,sans-Serif" font-size="10.00"> </text>
<polyline fill="none" stroke="black" points="324,-245.5 461,-245.5 "/>
<text text-anchor="start" x="332" y="-233.5" font-family="Helvetica,sans-Serif" font-size="10.00">+ GetCollection()</text>
<text text-anchor="start" x="332" y="-222.5" font-family="Helvetica,sans-Serif" font-size="10.00">+ GetJObject()</text>
<text text-anchor="start" x="332" y="-211.5" font-family="Helvetica,sans-Serif" font-size="10.00">+ GetJObject()</text>
<text text-anchor="start" x="332" y="-200.5" font-family="Helvetica,sans-Serif" font-size="10.00">+ RemoveJObject()</text>
<text text-anchor="start" x="332" y="-189.5" font-family="Helvetica,sans-Serif" font-size="10.00">+ RemoveJObject()</text>
<text text-anchor="start" x="332" y="-178.5" font-family="Helvetica,sans-Serif" font-size="10.00">+ StoreJObject()</text>
<text text-anchor="start" x="332" y="-167.5" font-family="Helvetica,sans-Serif" font-size="10.00">+ UpdateJObject()</text>
<text text-anchor="start" x="332" y="-156.5" font-family="Helvetica,sans-Serif" font-size="10.00">+ UpdateJObject()</text>
</a>
</g>
</g>
<!-- Node5&#45;&gt;Node2 -->
<g id="edge3" class="edge"><title>Node5&#45;&gt;Node2</title>
<path fill="none" stroke="#404040" d="M334.747,-149.49C326.128,-139.429 317.209,-129.342 308.5,-120 305.619,-116.91 302.632,-113.782 299.586,-110.652"/>
<polygon fill="none" stroke="#404040" points="299.324,-110.387 292.26,-108.936 290.884,-101.857 297.947,-103.309 299.324,-110.387"/>
<text text-anchor="middle" x="358.5" y="-123" font-family="Helvetica,sans-Serif" font-size="10.00"> &#45;DataBaseHandler</text>
</g>
</g>
</svg>
