<?xml version="1.0" encoding="UTF-8" standalone="no"?>
<!DOCTYPE svg PUBLIC "-//W3C//DTD SVG 1.1//EN"
 "http://www.w3.org/Graphics/SVG/1.1/DTD/svg11.dtd">
<!-- Generated by graphviz version 2.38.0 (20140413.2041)
 -->
<!-- Title: LittleWeebLibrary.Handlers.VersionHandler Pages: 1 -->
<svg width="306pt" height="248pt"
 viewBox="0.00 0.00 306.00 248.00" xmlns="http://www.w3.org/2000/svg" xmlns:xlink="http://www.w3.org/1999/xlink">
<g id="graph0" class="graph" transform="scale(1 1) rotate(0) translate(4 244)">
<title>LittleWeebLibrary.Handlers.VersionHandler</title>
<polygon fill="white" stroke="none" points="-4,4 -4,-244 302,-244 302,4 -4,4"/>
<!-- Node2 -->
<g id="node1" class="node"><title>Node2</title>
<polygon fill="#bfbfbf" stroke="black" points="79,-0.5 79,-101.5 222,-101.5 222,-0.5 79,-0.5"/>
<text text-anchor="start" x="87" y="-89.5" font-family="Helvetica,sans-Serif" font-size="10.00">LittleWeebLibrary.Handlers.</text>
<text text-anchor="middle" x="150.5" y="-78.5" font-family="Helvetica,sans-Serif" font-size="10.00">VersionHandler</text>
<polyline fill="none" stroke="black" points="79,-71.5 222,-71.5 "/>
<text text-anchor="middle" x="150.5" y="-59.5" font-family="Helvetica,sans-Serif" font-size="10.00"> </text>
<polyline fill="none" stroke="black" points="79,-52.5 222,-52.5 "/>
<text text-anchor="start" x="87" y="-40.5" font-family="Helvetica,sans-Serif" font-size="10.00">+ VersionHandler()</text>
<text text-anchor="start" x="87" y="-29.5" font-family="Helvetica,sans-Serif" font-size="10.00">+ GetLatestVersionAndroid()</text>
<text text-anchor="start" x="87" y="-18.5" font-family="Helvetica,sans-Serif" font-size="10.00">+ GetLatestVersionDesktop()</text>
<text text-anchor="start" x="87" y="-7.5" font-family="Helvetica,sans-Serif" font-size="10.00">+ GetLocalVersion()</text>
</g>
<!-- Node3 -->
<g id="node2" class="node"><title>Node3</title>
<g id="a_node2"><a xlink:href="interface_little_weeb_library_1_1_handlers_1_1_i_version_handler.html" target="_top" xlink:title="{IVersionHandler\n||+ GetLatestVersionAndroid()\l+ GetLatestVersionDesktop()\l+ GetLocalVersion()\l}">
<polygon fill="white" stroke="black" points="0,-155 0,-234 143,-234 143,-155 0,-155"/>
<text text-anchor="middle" x="71.5" y="-222" font-family="Helvetica,sans-Serif" font-size="10.00">IVersionHandler</text>
<polyline fill="none" stroke="black" points="0,-215 143,-215 "/>
<text text-anchor="middle" x="71.5" y="-203" font-family="Helvetica,sans-Serif" font-size="10.00"> </text>
<polyline fill="none" stroke="black" points="0,-196 143,-196 "/>
<text text-anchor="start" x="8" y="-184" font-family="Helvetica,sans-Serif" font-size="10.00">+ GetLatestVersionAndroid()</text>
<text text-anchor="start" x="8" y="-173" font-family="Helvetica,sans-Serif" font-size="10.00">+ GetLatestVersionDesktop()</text>
<text text-anchor="start" x="8" y="-162" font-family="Helvetica,sans-Serif" font-size="10.00">+ GetLocalVersion()</text>
</a>
</g>
</g>
<!-- Node3&#45;&gt;Node2 -->
<g id="edge1" class="edge"><title>Node3&#45;&gt;Node2</title>
<path fill="none" stroke="midnightblue" d="M98.1801,-145.712C106.124,-131.483 114.844,-115.864 122.849,-101.527"/>
<polygon fill="none" stroke="midnightblue" points="94.9059,-144.397 93.0871,-154.835 101.018,-147.809 94.9059,-144.397"/>
</g>
<!-- Node4 -->
<g id="node3" class="node"><title>Node4</title>
<g id="a_node3"><a xlink:href="interface_little_weeb_library_1_1_handlers_1_1_i_debug_handler.html" target="_top" xlink:title="{LittleWeebLibrary.Handlers.\lIDebugHandler\n||+ SetSettings()\l+ StopDebugger()\l+ TraceMessage()\l}">
<polygon fill="white" stroke="black" points="161,-149.5 161,-239.5 298,-239.5 298,-149.5 161,-149.5"/>
<text text-anchor="start" x="169" y="-227.5" font-family="Helvetica,sans-Serif" font-size="10.00">LittleWeebLibrary.Handlers.</text>
<text text-anchor="middle" x="229.5" y="-216.5" font-family="Helvetica,sans-Serif" font-size="10.00">IDebugHandler</text>
<polyline fill="none" stroke="black" points="161,-209.5 298,-209.5 "/>
<text text-anchor="middle" x="229.5" y="-197.5" font-family="Helvetica,sans-Serif" font-size="10.00"> </text>
<polyline fill="none" stroke="black" points="161,-190.5 298,-190.5 "/>
<text text-anchor="start" x="169" y="-178.5" font-family="Helvetica,sans-Serif" font-size="10.00">+ SetSettings()</text>
<text text-anchor="start" x="169" y="-167.5" font-family="Helvetica,sans-Serif" font-size="10.00">+ StopDebugger()</text>
<text text-anchor="start" x="169" y="-156.5" font-family="Helvetica,sans-Serif" font-size="10.00">+ TraceMessage()</text>
</a>
</g>
</g>
<!-- Node4&#45;&gt;Node2 -->
<g id="edge2" class="edge"><title>Node4&#45;&gt;Node2</title>
<path fill="none" stroke="#404040" d="M204.721,-149.117C198.211,-137.457 191.079,-124.682 184.188,-112.34"/>
<polygon fill="none" stroke="#404040" points="184.066,-112.121 177.649,-108.832 178.216,-101.644 184.634,-104.932 184.066,-112.121"/>
<text text-anchor="middle" x="226" y="-123" font-family="Helvetica,sans-Serif" font-size="10.00"> &#45;DebugHandler</text>
</g>
</g>
</svg>
