<?xml version="1.0" encoding="UTF-8" standalone="no"?>
<!DOCTYPE svg PUBLIC "-//W3C//DTD SVG 1.1//EN"
 "http://www.w3.org/Graphics/SVG/1.1/DTD/svg11.dtd">
<!-- Generated by graphviz version 2.38.0 (20140413.2041)
 -->
<!-- Title: LittleWeebLibrary.Handlers.DataBaseHandler.RemoveJObject Pages: 1 -->
<svg width="844pt" height="110pt"
 viewBox="0.00 0.00 844.00 110.00" xmlns="http://www.w3.org/2000/svg" xmlns:xlink="http://www.w3.org/1999/xlink">
<g id="graph0" class="graph" transform="scale(1 1) rotate(0) translate(4 106)">
<title>LittleWeebLibrary.Handlers.DataBaseHandler.RemoveJObject</title>
<polygon fill="white" stroke="none" points="-4,4 -4,-106 840,-106 840,4 -4,4"/>
<!-- Node48 -->
<g id="node1" class="node"><title>Node48</title>
<polygon fill="#bfbfbf" stroke="black" points="0,-36 0,-66 163,-66 163,-36 0,-36"/>
<text text-anchor="start" x="8" y="-54" font-family="Helvetica,sans-Serif" font-size="10.00">LittleWeebLibrary.Handlers.</text>
<text text-anchor="middle" x="81.5" y="-43" font-family="Helvetica,sans-Serif" font-size="10.00">DataBaseHandler.RemoveJObject</text>
</g>
<!-- Node49 -->
<g id="node2" class="node"><title>Node49</title>
<g id="a_node2"><a xlink:href="class_little_weeb_library_1_1_services_1_1_data_base_web_socket_service.html#a5d9baf510f46f6a3fac9fe84325bb017" target="_top" xlink:title="LittleWeebLibrary.Services.\lDataBaseWebSocketService.Delete\lDocument">
<polygon fill="white" stroke="black" points="199,-60.5 199,-101.5 372,-101.5 372,-60.5 199,-60.5"/>
<text text-anchor="start" x="207" y="-89.5" font-family="Helvetica,sans-Serif" font-size="10.00">LittleWeebLibrary.Services.</text>
<text text-anchor="start" x="207" y="-78.5" font-family="Helvetica,sans-Serif" font-size="10.00">DataBaseWebSocketService.Delete</text>
<text text-anchor="middle" x="285.5" y="-67.5" font-family="Helvetica,sans-Serif" font-size="10.00">Document</text>
</a>
</g>
</g>
<!-- Node48&#45;&gt;Node49 -->
<g id="edge1" class="edge"><title>Node48&#45;&gt;Node49</title>
<path fill="none" stroke="midnightblue" d="M173.204,-64.4708C181.772,-65.7433 190.439,-67.0306 198.957,-68.2956"/>
<polygon fill="midnightblue" stroke="midnightblue" points="173.612,-60.9932 163.207,-62.9861 172.584,-67.9173 173.612,-60.9932"/>
</g>
<!-- Node51 -->
<g id="node4" class="node"><title>Node51</title>
<g id="a_node4"><a xlink:href="class_little_weeb_library_1_1_handlers_1_1_file_history_handler.html#a3b3f0cdedee405d607feff81c2de085d" target="_top" xlink:title="LittleWeebLibrary.Handlers.\lFileHistoryHandler.RemoveFileFrom\lFileHistory">
<polygon fill="white" stroke="black" points="199.5,-0.5 199.5,-41.5 371.5,-41.5 371.5,-0.5 199.5,-0.5"/>
<text text-anchor="start" x="207.5" y="-29.5" font-family="Helvetica,sans-Serif" font-size="10.00">LittleWeebLibrary.Handlers.</text>
<text text-anchor="start" x="207.5" y="-18.5" font-family="Helvetica,sans-Serif" font-size="10.00">FileHistoryHandler.RemoveFileFrom</text>
<text text-anchor="middle" x="285.5" y="-7.5" font-family="Helvetica,sans-Serif" font-size="10.00">FileHistory</text>
</a>
</g>
</g>
<!-- Node48&#45;&gt;Node51 -->
<g id="edge3" class="edge"><title>Node48&#45;&gt;Node51</title>
<path fill="none" stroke="midnightblue" d="M173.298,-37.5152C181.946,-36.2307 190.696,-34.9313 199.289,-33.6551"/>
<polygon fill="midnightblue" stroke="midnightblue" points="172.584,-34.0827 163.207,-39.0139 173.612,-41.0068 172.584,-34.0827"/>
</g>
<!-- Node50 -->
<g id="node3" class="node"><title>Node50</title>
<g id="a_node3"><a xlink:href="class_little_weeb_library_1_1_controllers_1_1_sub_controllers_1_1_data_base_web_socket_controller.html#a655abc0c42c54c9ff3572e4b4271fa3b" target="_top" xlink:title="LittleWeebLibrary.Controllers.\lSubControllers.DataBaseWebSocket\lController.OnWebSocketEvent">
<polygon fill="white" stroke="black" points="408,-60.5 408,-101.5 585,-101.5 585,-60.5 408,-60.5"/>
<text text-anchor="start" x="416" y="-89.5" font-family="Helvetica,sans-Serif" font-size="10.00">LittleWeebLibrary.Controllers.</text>
<text text-anchor="start" x="416" y="-78.5" font-family="Helvetica,sans-Serif" font-size="10.00">SubControllers.DataBaseWebSocket</text>
<text text-anchor="middle" x="496.5" y="-67.5" font-family="Helvetica,sans-Serif" font-size="10.00">Controller.OnWebSocketEvent</text>
</a>
</g>
</g>
<!-- Node49&#45;&gt;Node50 -->
<g id="edge2" class="edge"><title>Node49&#45;&gt;Node50</title>
<path fill="none" stroke="midnightblue" d="M382.164,-81C390.771,-81 399.458,-81 407.99,-81"/>
<polygon fill="midnightblue" stroke="midnightblue" points="382.111,-77.5001 372.111,-81 382.111,-84.5001 382.111,-77.5001"/>
</g>
<!-- Node52 -->
<g id="node5" class="node"><title>Node52</title>
<g id="a_node5"><a xlink:href="class_little_weeb_library_1_1_services_1_1_file_web_socket_service.html#ab1375e8e82a50dfa06d91bebe988d133" target="_top" xlink:title="LittleWeebLibrary.Services.\lFileWebSocketService.DeleteFile">
<polygon fill="white" stroke="black" points="416,-6 416,-36 577,-36 577,-6 416,-6"/>
<text text-anchor="start" x="424" y="-24" font-family="Helvetica,sans-Serif" font-size="10.00">LittleWeebLibrary.Services.</text>
<text text-anchor="middle" x="496.5" y="-13" font-family="Helvetica,sans-Serif" font-size="10.00">FileWebSocketService.DeleteFile</text>
</a>
</g>
</g>
<!-- Node51&#45;&gt;Node52 -->
<g id="edge4" class="edge"><title>Node51&#45;&gt;Node52</title>
<path fill="none" stroke="midnightblue" d="M381.562,-21C393.064,-21 404.719,-21 415.964,-21"/>
<polygon fill="midnightblue" stroke="midnightblue" points="381.508,-17.5001 371.508,-21 381.508,-24.5001 381.508,-17.5001"/>
</g>
<!-- Node53 -->
<g id="node6" class="node"><title>Node53</title>
<g id="a_node6"><a xlink:href="class_little_weeb_library_1_1_controllers_1_1_file_web_socket_controller.html#a9ecdec41f15ac23a56c402ff2c554a08" target="_top" xlink:title="LittleWeebLibrary.Controllers.\lFileWebSocketController.OnWebSocketEvent">
<polygon fill="white" stroke="black" points="621,-6 621,-36 836,-36 836,-6 621,-6"/>
<text text-anchor="start" x="629" y="-24" font-family="Helvetica,sans-Serif" font-size="10.00">LittleWeebLibrary.Controllers.</text>
<text text-anchor="middle" x="728.5" y="-13" font-family="Helvetica,sans-Serif" font-size="10.00">FileWebSocketController.OnWebSocketEvent</text>
</a>
</g>
</g>
<!-- Node52&#45;&gt;Node53 -->
<g id="edge5" class="edge"><title>Node52&#45;&gt;Node53</title>
<path fill="none" stroke="midnightblue" d="M587.601,-21C598.461,-21 609.632,-21 620.701,-21"/>
<polygon fill="midnightblue" stroke="midnightblue" points="587.297,-17.5001 577.297,-21 587.297,-24.5001 587.297,-17.5001"/>
</g>
</g>
</svg>
