<?xml version="1.0" encoding="UTF-8" standalone="no"?>
<!DOCTYPE svg PUBLIC "-//W3C//DTD SVG 1.1//EN"
 "http://www.w3.org/Graphics/SVG/1.1/DTD/svg11.dtd">
<!-- Generated by graphviz version 2.38.0 (20140413.2041)
 -->
<!-- Title: LittleWeebLibrary.StaticClasses.UtilityMethods.BasePath Pages: 1 -->
<svg width="378pt" height="88pt"
 viewBox="0.00 0.00 378.00 88.00" xmlns="http://www.w3.org/2000/svg" xmlns:xlink="http://www.w3.org/1999/xlink">
<g id="graph0" class="graph" transform="scale(1 1) rotate(0) translate(4 84)">
<title>LittleWeebLibrary.StaticClasses.UtilityMethods.BasePath</title>
<polygon fill="white" stroke="none" points="-4,4 -4,-84 374,-84 374,4 -4,4"/>
<!-- Node134 -->
<g id="node1" class="node"><title>Node134</title>
<polygon fill="#bfbfbf" stroke="black" points="0,-24.5 0,-54.5 163,-54.5 163,-24.5 0,-24.5"/>
<text text-anchor="start" x="8" y="-42.5" font-family="Helvetica,sans-Serif" font-size="10.00">LittleWeebLibrary.Static</text>
<text text-anchor="middle" x="81.5" y="-31.5" font-family="Helvetica,sans-Serif" font-size="10.00">Classes.UtilityMethods.BasePath</text>
</g>
<!-- Node135 -->
<g id="node2" class="node"><title>Node135</title>
<g id="a_node2"><a xlink:href="class_little_weeb_library_1_1_handlers_1_1_data_base_handler.html#af3623e6075f8aaf6f5082994cd1448df" target="_top" xlink:title="LittleWeebLibrary.Handlers.\lDataBaseHandler.DataBaseHandler">
<polygon fill="white" stroke="black" points="199,-49.5 199,-79.5 370,-79.5 370,-49.5 199,-49.5"/>
<text text-anchor="start" x="207" y="-67.5" font-family="Helvetica,sans-Serif" font-size="10.00">LittleWeebLibrary.Handlers.</text>
<text text-anchor="middle" x="284.5" y="-56.5" font-family="Helvetica,sans-Serif" font-size="10.00">DataBaseHandler.DataBaseHandler</text>
</a>
</g>
</g>
<!-- Node134&#45;&gt;Node135 -->
<g id="edge1" class="edge"><title>Node134&#45;&gt;Node135</title>
<path fill="none" stroke="midnightblue" d="M173.124,-50.7716C181.717,-51.8404 190.407,-52.9213 198.941,-53.9827"/>
<polygon fill="midnightblue" stroke="midnightblue" points="173.452,-47.2855 163.096,-49.5244 172.588,-54.232 173.452,-47.2855"/>
</g>
<!-- Node136 -->
<g id="node3" class="node"><title>Node136</title>
<g id="a_node3"><a xlink:href="class_little_weeb_library_1_1_handlers_1_1_settings_handler.html#a6b11494ae34a6ff54b825941ef06cdb2" target="_top" xlink:title="LittleWeebLibrary.Handlers.\lSettingsHandler.SettingsHandler">
<polygon fill="white" stroke="black" points="205.5,-0.5 205.5,-30.5 363.5,-30.5 363.5,-0.5 205.5,-0.5"/>
<text text-anchor="start" x="213.5" y="-18.5" font-family="Helvetica,sans-Serif" font-size="10.00">LittleWeebLibrary.Handlers.</text>
<text text-anchor="middle" x="284.5" y="-7.5" font-family="Helvetica,sans-Serif" font-size="10.00">SettingsHandler.SettingsHandler</text>
</a>
</g>
</g>
<!-- Node134&#45;&gt;Node136 -->
<g id="edge2" class="edge"><title>Node134&#45;&gt;Node136</title>
<path fill="none" stroke="midnightblue" d="M173.251,-28.6641C183.906,-27.3918 194.709,-26.1019 205.174,-24.8523"/>
<polygon fill="midnightblue" stroke="midnightblue" points="172.611,-25.2156 163.096,-29.8766 173.441,-32.1662 172.611,-25.2156"/>
</g>
</g>
</svg>
