<?xml version="1.0" encoding="UTF-8" standalone="no"?>
<!DOCTYPE svg PUBLIC "-//W3C//DTD SVG 1.1//EN"
 "http://www.w3.org/Graphics/SVG/1.1/DTD/svg11.dtd">
<!-- Generated by graphviz version 2.38.0 (20140413.2041)
 -->
<!-- Title: LittleWeebLibrary.Handlers.DirectoryHandler.GetDirectories Pages: 1 -->
<svg width="342pt" height="186pt"
 viewBox="0.00 0.00 342.00 186.00" xmlns="http://www.w3.org/2000/svg" xmlns:xlink="http://www.w3.org/1999/xlink">
<g id="graph0" class="graph" transform="scale(1 1) rotate(0) translate(4 182)">
<title>LittleWeebLibrary.Handlers.DirectoryHandler.GetDirectories</title>
<polygon fill="white" stroke="none" points="-4,4 -4,-182 338,-182 338,4 -4,4"/>
<!-- Node12 -->
<g id="node1" class="node"><title>Node12</title>
<polygon fill="#bfbfbf" stroke="black" points="0,-73.5 0,-103.5 154,-103.5 154,-73.5 0,-73.5"/>
<text text-anchor="start" x="8" y="-91.5" font-family="Helvetica,sans-Serif" font-size="10.00">LittleWeebLibrary.Handlers.</text>
<text text-anchor="middle" x="77" y="-80.5" font-family="Helvetica,sans-Serif" font-size="10.00">DirectoryHandler.GetDirectories</text>
</g>
<!-- Node13 -->
<g id="node2" class="node"><title>Node13</title>
<g id="a_node2"><a xlink:href="class_little_weeb_library_1_1_models_1_1_json_directory.html#a3527cf5cff598f63b5f95cf7d6158b55" target="_top" xlink:title="LittleWeebLibrary.Models.\lJsonDirectory.ToJson">
<polygon fill="white" stroke="black" points="197,-147.5 197,-177.5 327,-177.5 327,-147.5 197,-147.5"/>
<text text-anchor="start" x="205" y="-165.5" font-family="Helvetica,sans-Serif" font-size="10.00">LittleWeebLibrary.Models.</text>
<text text-anchor="middle" x="262" y="-154.5" font-family="Helvetica,sans-Serif" font-size="10.00">JsonDirectory.ToJson</text>
</a>
</g>
</g>
<!-- Node12&#45;&gt;Node13 -->
<g id="edge1" class="edge"><title>Node12&#45;&gt;Node13</title>
<path fill="none" stroke="midnightblue" d="M109.526,-103.528C131.785,-113.902 162.436,-127.716 190,-138.5 194.726,-140.349 199.659,-142.191 204.628,-143.987"/>
<polygon fill="midnightblue" stroke="midnightblue" points="203.586,-147.33 214.18,-147.37 205.923,-140.732 203.586,-147.33"/>
</g>
<!-- Node14 -->
<g id="node3" class="node"><title>Node14</title>
<g id="a_node3"><a xlink:href="class_little_weeb_library_1_1_models_1_1_json_error.html#a0e3e7dd2e2990404b7f0461742b23440" target="_top" xlink:title="LittleWeebLibrary.Models.\lJsonError.ToJson">
<polygon fill="white" stroke="black" points="197,-98.5 197,-128.5 327,-128.5 327,-98.5 197,-98.5"/>
<text text-anchor="start" x="205" y="-116.5" font-family="Helvetica,sans-Serif" font-size="10.00">LittleWeebLibrary.Models.</text>
<text text-anchor="middle" x="262" y="-105.5" font-family="Helvetica,sans-Serif" font-size="10.00">JsonError.ToJson</text>
</a>
</g>
</g>
<!-- Node12&#45;&gt;Node14 -->
<g id="edge2" class="edge"><title>Node12&#45;&gt;Node14</title>
<path fill="none" stroke="midnightblue" d="M154.019,-98.8851C164.809,-100.359 175.896,-101.874 186.654,-103.343"/>
<polygon fill="midnightblue" stroke="midnightblue" points="186.466,-106.85 196.848,-104.736 187.414,-99.9146 186.466,-106.85"/>
</g>
<!-- Node15 -->
<g id="node4" class="node"><title>Node15</title>
<g id="a_node4"><a xlink:href="class_little_weeb_library_1_1_models_1_1_json_error.html#ad7d5522c90119111d2e929f39e7f6d3c" target="_top" xlink:title="LittleWeebLibrary.Models.\lJsonError.ToString">
<polygon fill="white" stroke="black" points="197,-49.5 197,-79.5 327,-79.5 327,-49.5 197,-49.5"/>
<text text-anchor="start" x="205" y="-67.5" font-family="Helvetica,sans-Serif" font-size="10.00">LittleWeebLibrary.Models.</text>
<text text-anchor="middle" x="262" y="-56.5" font-family="Helvetica,sans-Serif" font-size="10.00">JsonError.ToString</text>
</a>
</g>
</g>
<!-- Node12&#45;&gt;Node15 -->
<g id="edge3" class="edge"><title>Node12&#45;&gt;Node15</title>
<path fill="none" stroke="midnightblue" d="M154.019,-78.5303C164.809,-77.1152 175.896,-75.6612 186.654,-74.2503"/>
<polygon fill="midnightblue" stroke="midnightblue" points="187.388,-77.6841 196.848,-72.9134 186.478,-70.7435 187.388,-77.6841"/>
</g>
<!-- Node16 -->
<g id="node5" class="node"><title>Node16</title>
<g id="a_node5"><a xlink:href="class_little_weeb_library_1_1_handlers_1_1_debug_handler.html#afccb37dfd6b2114af72000c2f4fe4607" target="_top" xlink:title="LittleWeebLibrary.Handlers.\lDebugHandler.TraceMessage">
<polygon fill="white" stroke="black" points="190,-0.5 190,-30.5 334,-30.5 334,-0.5 190,-0.5"/>
<text text-anchor="start" x="198" y="-18.5" font-family="Helvetica,sans-Serif" font-size="10.00">LittleWeebLibrary.Handlers.</text>
<text text-anchor="middle" x="262" y="-7.5" font-family="Helvetica,sans-Serif" font-size="10.00">DebugHandler.TraceMessage</text>
</a>
</g>
</g>
<!-- Node12&#45;&gt;Node16 -->
<g id="edge4" class="edge"><title>Node12&#45;&gt;Node16</title>
<path fill="none" stroke="midnightblue" d="M111.577,-73.4191C133.7,-63.6544 163.391,-50.8733 190,-40.5 195.538,-38.341 201.349,-36.16 207.162,-34.033"/>
<polygon fill="midnightblue" stroke="midnightblue" points="208.681,-37.2058 216.898,-30.5177 206.304,-30.6218 208.681,-37.2058"/>
</g>
</g>
</svg>
