<?xml version="1.0" encoding="UTF-8" standalone="no"?>
<!DOCTYPE svg PUBLIC "-//W3C//DTD SVG 1.1//EN"
 "http://www.w3.org/Graphics/SVG/1.1/DTD/svg11.dtd">
<!-- Generated by graphviz version 2.38.0 (20140413.2041)
 -->
<!-- Title: LittleWeebLibrary.Services.DirectoryWebSocketService Pages: 1 -->
<!--zoomable 336 -->
<svg id="main" version="1.1" xmlns="http://www.w3.org/2000/svg" xmlns:xlink="http://www.w3.org/1999/xlink" xml:space="preserve" onload="init(evt)">
<style type="text/css"><![CDATA[
.edge:hover path { stroke: red; }
.edge:hover polygon { stroke: red; fill: red; }
]]></style>
<script type="text/javascript"><![CDATA[
var edges = document.getElementsByTagName('g');
if (edges && edges.length) {
  for (var i=0;i<edges.length;i++) {
    if (edges[i].id.substr(0,4)=='edge') {
      edges[i].setAttribute('class','edge');
    }
  }
}
]]></script>
        <defs>
                <circle id="rim" cx="0" cy="0" r="7"/>
                <circle id="rim2" cx="0" cy="0" r="3.5"/>
                <g id="zoomPlus">
                        <use xlink:href="#rim" fill="#404040">
                                <set attributeName="fill" to="#808080" begin="zoomplus.mouseover" end="zoomplus.mouseout"/>
                        </use>
                        <path d="M-4,0h8M0,-4v8" fill="none" stroke="white" stroke-width="1.5" pointer-events="none"/>
                </g>
                <g id="zoomMin">
                        <use xlink:href="#rim" fill="#404040">
                                <set attributeName="fill" to="#808080" begin="zoomminus.mouseover" end="zoomminus.mouseout"/>
                        </use>
                        <path d="M-4,0h8" fill="none" stroke="white" stroke-width="1.5" pointer-events="none"/>
                </g>
                <g id="dirArrow">
                        <path fill="none" stroke="white" stroke-width="1.5" d="M0,-3.0v7 M-2.5,-0.5L0,-3.0L2.5,-0.5"/>
                </g>
               <g id="resetDef">
                       <use xlink:href="#rim2" fill="#404040">
                               <set attributeName="fill" to="#808080" begin="reset.mouseover" end="reset.mouseout"/>
                       </use>
               </g>
        </defs>

<script type="text/javascript">
var viewWidth = 1066;
var viewHeight = 336;
var sectionId = 'dynsection-1';
</script>
<script xlink:href="svgpan.js"/>
<svg id="graph" class="graph">
<g id="viewport">
<title>LittleWeebLibrary.Services.DirectoryWebSocketService</title>
<polygon fill="white" stroke="none" points="-4,4 -4,-332 1062,-332 1062,4 -4,4"/>
<!-- Node3 -->
<g id="node1" class="node"><title>Node3</title>
<polygon fill="#bfbfbf" stroke="black" points="452.5,-0.5 452.5,-145.5 605.5,-145.5 605.5,-0.5 452.5,-0.5"/>
<text text-anchor="start" x="460.5" y="-133.5" font-family="Helvetica,sans-Serif" font-size="10.00">LittleWeebLibrary.Services.</text>
<text text-anchor="middle" x="529" y="-122.5" font-family="Helvetica,sans-Serif" font-size="10.00">DirectoryWebSocketService</text>
<polyline fill="none" stroke="black" points="452.5,-115.5 605.5,-115.5 "/>
<text text-anchor="middle" x="529" y="-103.5" font-family="Helvetica,sans-Serif" font-size="10.00"> </text>
<polyline fill="none" stroke="black" points="452.5,-96.5 605.5,-96.5 "/>
<text text-anchor="start" x="460.5" y="-84.5" font-family="Helvetica,sans-Serif" font-size="10.00">+ DirectoryWebSocketService()</text>
<text text-anchor="start" x="460.5" y="-73.5" font-family="Helvetica,sans-Serif" font-size="10.00">+ CreateDirectory()</text>
<text text-anchor="start" x="460.5" y="-62.5" font-family="Helvetica,sans-Serif" font-size="10.00">+ DeleteDirectory()</text>
<text text-anchor="start" x="460.5" y="-51.5" font-family="Helvetica,sans-Serif" font-size="10.00">+ GetDirectories()</text>
<text text-anchor="start" x="460.5" y="-40.5" font-family="Helvetica,sans-Serif" font-size="10.00">+ GetDrives()</text>
<text text-anchor="start" x="460.5" y="-29.5" font-family="Helvetica,sans-Serif" font-size="10.00">+ GetFreeSpace()</text>
<text text-anchor="start" x="460.5" y="-18.5" font-family="Helvetica,sans-Serif" font-size="10.00">+ SetIrcSettings()</text>
<text text-anchor="start" x="460.5" y="-7.5" font-family="Helvetica,sans-Serif" font-size="10.00">+ SetLittleWeebSettings()</text>
</g>
<!-- Node4 -->
<g id="node2" class="node"><title>Node4</title>
<g id="a_node2"><a xlink:href="interface_little_weeb_library_1_1_services_1_1_i_directory_web_socket_service.html" target="_top" xlink:title="{IDirectoryWebSocketService\n||+ CreateDirectory()\l+ DeleteDirectory()\l+ GetDirectories()\l+ GetDrives()\l+ GetFreeSpace()\l}">
<polygon fill="white" stroke="black" points="0,-210 0,-311 140,-311 140,-210 0,-210"/>
<text text-anchor="middle" x="70" y="-299" font-family="Helvetica,sans-Serif" font-size="10.00">IDirectoryWebSocketService</text>
<polyline fill="none" stroke="black" points="0,-292 140,-292 "/>
<text text-anchor="middle" x="70" y="-280" font-family="Helvetica,sans-Serif" font-size="10.00"> </text>
<polyline fill="none" stroke="black" points="0,-273 140,-273 "/>
<text text-anchor="start" x="8" y="-261" font-family="Helvetica,sans-Serif" font-size="10.00">+ CreateDirectory()</text>
<text text-anchor="start" x="8" y="-250" font-family="Helvetica,sans-Serif" font-size="10.00">+ DeleteDirectory()</text>
<text text-anchor="start" x="8" y="-239" font-family="Helvetica,sans-Serif" font-size="10.00">+ GetDirectories()</text>
<text text-anchor="start" x="8" y="-228" font-family="Helvetica,sans-Serif" font-size="10.00">+ GetDrives()</text>
<text text-anchor="start" x="8" y="-217" font-family="Helvetica,sans-Serif" font-size="10.00">+ GetFreeSpace()</text>
</a>
</g>
</g>
<!-- Node4&#45;&gt;Node3 -->
<g id="edge1" class="edge"><title>Node4&#45;&gt;Node3</title>
<path fill="none" stroke="midnightblue" d="M131.471,-203.967C137.203,-199.97 143.086,-196.243 149,-193 247.046,-139.235 372.896,-105.904 452.274,-88.6497"/>
<polygon fill="none" stroke="midnightblue" points="129.219,-201.278 123.195,-209.993 133.339,-206.937 129.219,-201.278"/>
</g>
<!-- Node5 -->
<g id="node3" class="node"><title>Node5</title>
<g id="a_node3"><a xlink:href="interface_little_weeb_library_1_1_global_interfaces_1_1_i_settings_interface.html" target="_top" xlink:title="{ISettingsInterface\n||+ SetIrcSettings()\l+ SetLittleWeebSettings()\l}">
<polygon fill="white" stroke="black" points="158.5,-226.5 158.5,-294.5 287.5,-294.5 287.5,-226.5 158.5,-226.5"/>
<text text-anchor="middle" x="223" y="-282.5" font-family="Helvetica,sans-Serif" font-size="10.00">ISettingsInterface</text>
<polyline fill="none" stroke="black" points="158.5,-275.5 287.5,-275.5 "/>
<text text-anchor="middle" x="223" y="-263.5" font-family="Helvetica,sans-Serif" font-size="10.00"> </text>
<polyline fill="none" stroke="black" points="158.5,-256.5 287.5,-256.5 "/>
<text text-anchor="start" x="166.5" y="-244.5" font-family="Helvetica,sans-Serif" font-size="10.00">+ SetIrcSettings()</text>
<text text-anchor="start" x="166.5" y="-233.5" font-family="Helvetica,sans-Serif" font-size="10.00">+ SetLittleWeebSettings()</text>
</a>
</g>
</g>
<!-- Node5&#45;&gt;Node3 -->
<g id="edge2" class="edge"><title>Node5&#45;&gt;Node3</title>
<path fill="none" stroke="midnightblue" d="M263.2,-219.384C273.454,-210.154 284.767,-200.776 296,-193 345.204,-158.938 405.475,-128.417 452.39,-106.814"/>
<polygon fill="none" stroke="midnightblue" points="260.577,-217.041 255.583,-226.384 265.314,-222.195 260.577,-217.041"/>
</g>
<!-- Node6 -->
<g id="node4" class="node"><title>Node6</title>
<g id="a_node4"><a xlink:href="interface_little_weeb_library_1_1_handlers_1_1_i_debug_handler.html" target="_top" xlink:title="{LittleWeebLibrary.Handlers.\lIDebugHandler\n||+ SetSettings()\l+ StopDebugger()\l+ TraceMessage()\l}">
<polygon fill="white" stroke="black" points="305.5,-215.5 305.5,-305.5 442.5,-305.5 442.5,-215.5 305.5,-215.5"/>
<text text-anchor="start" x="313.5" y="-293.5" font-family="Helvetica,sans-Serif" font-size="10.00">LittleWeebLibrary.Handlers.</text>
<text text-anchor="middle" x="374" y="-282.5" font-family="Helvetica,sans-Serif" font-size="10.00">IDebugHandler</text>
<polyline fill="none" stroke="black" points="305.5,-275.5 442.5,-275.5 "/>
<text text-anchor="middle" x="374" y="-263.5" font-family="Helvetica,sans-Serif" font-size="10.00"> </text>
<polyline fill="none" stroke="black" points="305.5,-256.5 442.5,-256.5 "/>
<text text-anchor="start" x="313.5" y="-244.5" font-family="Helvetica,sans-Serif" font-size="10.00">+ SetSettings()</text>
<text text-anchor="start" x="313.5" y="-233.5" font-family="Helvetica,sans-Serif" font-size="10.00">+ StopDebugger()</text>
<text text-anchor="start" x="313.5" y="-222.5" font-family="Helvetica,sans-Serif" font-size="10.00">+ TraceMessage()</text>
</a>
</g>
</g>
<!-- Node6&#45;&gt;Node3 -->
<g id="edge3" class="edge"><title>Node6&#45;&gt;Node3</title>
<path fill="none" stroke="#404040" d="M411.126,-215.068C426.194,-197.036 444.086,-175.623 461.319,-154.999"/>
<polygon fill="none" stroke="#404040" points="461.484,-154.801 462.262,-147.632 469.179,-145.593 468.401,-152.762 461.484,-154.801"/>
<text text-anchor="middle" x="485.5" y="-167" font-family="Helvetica,sans-Serif" font-size="10.00"> &#45;DebugHandler</text>
</g>
<!-- Node7 -->
<g id="node5" class="node"><title>Node7</title>
<g id="a_node5"><a xlink:href="interface_little_weeb_library_1_1_handlers_1_1_i_web_socket_handler.html" target="_top" xlink:title="{LittleWeebLibrary.Handlers.\lIWebSocketHandler\n||+ SendMessage()\l+ StartServer()\l+ StopServer()\l}">
<polygon fill="white" stroke="black" points="460.5,-215.5 460.5,-305.5 597.5,-305.5 597.5,-215.5 460.5,-215.5"/>
<text text-anchor="start" x="468.5" y="-293.5" font-family="Helvetica,sans-Serif" font-size="10.00">LittleWeebLibrary.Handlers.</text>
<text text-anchor="middle" x="529" y="-282.5" font-family="Helvetica,sans-Serif" font-size="10.00">IWebSocketHandler</text>
<polyline fill="none" stroke="black" points="460.5,-275.5 597.5,-275.5 "/>
<text text-anchor="middle" x="529" y="-263.5" font-family="Helvetica,sans-Serif" font-size="10.00"> </text>
<polyline fill="none" stroke="black" points="460.5,-256.5 597.5,-256.5 "/>
<text text-anchor="start" x="468.5" y="-244.5" font-family="Helvetica,sans-Serif" font-size="10.00">+ SendMessage()</text>
<text text-anchor="start" x="468.5" y="-233.5" font-family="Helvetica,sans-Serif" font-size="10.00">+ StartServer()</text>
<text text-anchor="start" x="468.5" y="-222.5" font-family="Helvetica,sans-Serif" font-size="10.00">+ StopServer()</text>
</a>
</g>
</g>
<!-- Node7&#45;&gt;Node3 -->
<g id="edge4" class="edge"><title>Node7&#45;&gt;Node3</title>
<path fill="none" stroke="#404040" d="M529,-215.068C529,-197.848 529,-177.546 529,-157.79"/>
<polygon fill="none" stroke="#404040" points="529,-157.593 525,-151.593 529,-145.593 533,-151.593 529,-157.593"/>
<text text-anchor="middle" x="574.5" y="-167" font-family="Helvetica,sans-Serif" font-size="10.00"> &#45;WebSocketHandler</text>
</g>
<!-- Node8 -->
<g id="node6" class="node"><title>Node8</title>
<g id="a_node6"><a xlink:href="class_little_weeb_library_1_1_settings_1_1_little_weeb_settings.html" target="_top" xlink:title="{LittleWeebLibrary.Settings.\lLittleWeebSettings\n|+ CurrentlyAiringBot\l+ DebugLevel\l+ DebugType\l+ Local\l+ MaxDebugLogSize\l+ Port\l+ RandomUsernameLength\l|+ ToString()\l}">
<polygon fill="white" stroke="black" points="615.5,-193.5 615.5,-327.5 750.5,-327.5 750.5,-193.5 615.5,-193.5"/>
<text text-anchor="start" x="623.5" y="-315.5" font-family="Helvetica,sans-Serif" font-size="10.00">LittleWeebLibrary.Settings.</text>
<text text-anchor="middle" x="683" y="-304.5" font-family="Helvetica,sans-Serif" font-size="10.00">LittleWeebSettings</text>
<polyline fill="none" stroke="black" points="615.5,-297.5 750.5,-297.5 "/>
<text text-anchor="start" x="623.5" y="-285.5" font-family="Helvetica,sans-Serif" font-size="10.00">+ CurrentlyAiringBot</text>
<text text-anchor="start" x="623.5" y="-274.5" font-family="Helvetica,sans-Serif" font-size="10.00">+ DebugLevel</text>
<text text-anchor="start" x="623.5" y="-263.5" font-family="Helvetica,sans-Serif" font-size="10.00">+ DebugType</text>
<text text-anchor="start" x="623.5" y="-252.5" font-family="Helvetica,sans-Serif" font-size="10.00">+ Local</text>
<text text-anchor="start" x="623.5" y="-241.5" font-family="Helvetica,sans-Serif" font-size="10.00">+ MaxDebugLogSize</text>
<text text-anchor="start" x="623.5" y="-230.5" font-family="Helvetica,sans-Serif" font-size="10.00">+ Port</text>
<text text-anchor="start" x="623.5" y="-219.5" font-family="Helvetica,sans-Serif" font-size="10.00">+ RandomUsernameLength</text>
<polyline fill="none" stroke="black" points="615.5,-212.5 750.5,-212.5 "/>
<text text-anchor="start" x="623.5" y="-200.5" font-family="Helvetica,sans-Serif" font-size="10.00">+ ToString()</text>
</a>
</g>
</g>
<!-- Node8&#45;&gt;Node3 -->
<g id="edge5" class="edge"><title>Node8&#45;&gt;Node3</title>
<path fill="none" stroke="#404040" d="M645.346,-193.483C638.66,-183.304 631.441,-173.146 624,-164 620.774,-160.035 617.382,-156.071 613.876,-152.139"/>
<polygon fill="none" stroke="#404040" points="613.635,-151.877 606.631,-150.163 605.519,-143.039 612.523,-144.752 613.635,-151.877"/>
<text text-anchor="middle" x="676.5" y="-167" font-family="Helvetica,sans-Serif" font-size="10.00"> &#45;LittleWeebSettings</text>
</g>
<!-- Node9 -->
<g id="node7" class="node"><title>Node9</title>
<g id="a_node7"><a xlink:href="interface_little_weeb_library_1_1_handlers_1_1_i_directory_handler.html" target="_top" xlink:title="{LittleWeebLibrary.Handlers.\lIDirectoryHandler\n||+ CreateDirectory()\l+ DeleteDirectory()\l+ GetDirectories()\l+ GetDrives()\l+ GetFreeSpace()\l+ OpenDirectory()\l}">
<polygon fill="white" stroke="black" points="768.5,-199 768.5,-322 905.5,-322 905.5,-199 768.5,-199"/>
<text text-anchor="start" x="776.5" y="-310" font-family="Helvetica,sans-Serif" font-size="10.00">LittleWeebLibrary.Handlers.</text>
<text text-anchor="middle" x="837" y="-299" font-family="Helvetica,sans-Serif" font-size="10.00">IDirectoryHandler</text>
<polyline fill="none" stroke="black" points="768.5,-292 905.5,-292 "/>
<text text-anchor="middle" x="837" y="-280" font-family="Helvetica,sans-Serif" font-size="10.00"> </text>
<polyline fill="none" stroke="black" points="768.5,-273 905.5,-273 "/>
<text text-anchor="start" x="776.5" y="-261" font-family="Helvetica,sans-Serif" font-size="10.00">+ CreateDirectory()</text>
<text text-anchor="start" x="776.5" y="-250" font-family="Helvetica,sans-Serif" font-size="10.00">+ DeleteDirectory()</text>
<text text-anchor="start" x="776.5" y="-239" font-family="Helvetica,sans-Serif" font-size="10.00">+ GetDirectories()</text>
<text text-anchor="start" x="776.5" y="-228" font-family="Helvetica,sans-Serif" font-size="10.00">+ GetDrives()</text>
<text text-anchor="start" x="776.5" y="-217" font-family="Helvetica,sans-Serif" font-size="10.00">+ GetFreeSpace()</text>
<text text-anchor="start" x="776.5" y="-206" font-family="Helvetica,sans-Serif" font-size="10.00">+ OpenDirectory()</text>
</a>
</g>
</g>
<!-- Node9&#45;&gt;Node3 -->
<g id="edge6" class="edge"><title>Node9&#45;&gt;Node3</title>
<path fill="none" stroke="#404040" d="M771.831,-198.756C757.02,-186.449 740.938,-174.176 725,-164 691.255,-142.453 651.505,-123.204 616.653,-108.093"/>
<polygon fill="none" stroke="#404040" points="616.558,-108.052 609.468,-109.371 605.524,-103.335 612.614,-102.015 616.558,-108.052"/>
<text text-anchor="middle" x="778.5" y="-167" font-family="Helvetica,sans-Serif" font-size="10.00"> &#45;DirectoryHandler</text>
</g>
<!-- Node10 -->
<g id="node8" class="node"><title>Node10</title>
<g id="a_node8"><a xlink:href="class_little_weeb_library_1_1_settings_1_1_irc_settings.html" target="_top" xlink:title="{LittleWeebLibrary.Settings.\lIrcSettings\n|+ Channels\l+ fullfilepath\l+ Port\l+ Secure\l+ ServerAddress\l+ UserName\l|+ ToString()\l}">
<polygon fill="white" stroke="black" points="924,-199 924,-322 1058,-322 1058,-199 924,-199"/>
<text text-anchor="start" x="932" y="-310" font-family="Helvetica,sans-Serif" font-size="10.00">LittleWeebLibrary.Settings.</text>
<text text-anchor="middle" x="991" y="-299" font-family="Helvetica,sans-Serif" font-size="10.00">IrcSettings</text>
<polyline fill="none" stroke="black" points="924,-292 1058,-292 "/>
<text text-anchor="start" x="932" y="-280" font-family="Helvetica,sans-Serif" font-size="10.00">+ Channels</text>
<text text-anchor="start" x="932" y="-269" font-family="Helvetica,sans-Serif" font-size="10.00">+ fullfilepath</text>
<text text-anchor="start" x="932" y="-258" font-family="Helvetica,sans-Serif" font-size="10.00">+ Port</text>
<text text-anchor="start" x="932" y="-247" font-family="Helvetica,sans-Serif" font-size="10.00">+ Secure</text>
<text text-anchor="start" x="932" y="-236" font-family="Helvetica,sans-Serif" font-size="10.00">+ ServerAddress</text>
<text text-anchor="start" x="932" y="-225" font-family="Helvetica,sans-Serif" font-size="10.00">+ UserName</text>
<polyline fill="none" stroke="black" points="924,-218 1058,-218 "/>
<text text-anchor="start" x="932" y="-206" font-family="Helvetica,sans-Serif" font-size="10.00">+ ToString()</text>
</a>
</g>
</g>
<!-- Node10&#45;&gt;Node3 -->
<g id="edge7" class="edge"><title>Node10&#45;&gt;Node3</title>
<path fill="none" stroke="#404040" d="M923.658,-198.837C920.465,-196.765 917.239,-194.807 914,-193 819.566,-140.319 698.817,-107.872 617.955,-90.4305"/>
<polygon fill="none" stroke="#404040" points="617.566,-90.3482 610.867,-93.0185 605.826,-87.8623 612.525,-85.192 617.566,-90.3482"/>
<text text-anchor="middle" x="902.5" y="-167" font-family="Helvetica,sans-Serif" font-size="10.00"> &#45;IrcSettings</text>
</g>
</g>
</svg>
        <g id="navigator" transform="translate(0 0)" fill="#404254">
                <rect fill="#f2f5e9" fill-opacity="0.5" stroke="#606060" stroke-width=".5" x="0" y="0" width="60" height="60"/>
                <use id="zoomplus" xlink:href="#zoomPlus" x="17" y="9" onmousedown="handleZoom(evt,'in')"/>
                <use id="zoomminus" xlink:href="#zoomMin" x="42" y="9" onmousedown="handleZoom(evt,'out')"/>
                <use id="reset" xlink:href="#resetDef" x="30" y="36" onmousedown="handleReset()"/>
                <g id="arrowUp" xlink:href="#dirArrow" transform="translate(30 24)" onmousedown="handlePan(0,-1)">
                  <use xlink:href="#rim" fill="#404040">
                        <set attributeName="fill" to="#808080" begin="arrowUp.mouseover" end="arrowUp.mouseout"/>
                  </use>
                  <path fill="none" stroke="white" stroke-width="1.5" d="M0,-3.0v7 M-2.5,-0.5L0,-3.0L2.5,-0.5"/>
                </g>
                <g id="arrowRight" xlink:href="#dirArrow" transform="rotate(90) translate(36 -43)" onmousedown="handlePan(1,0)">
                  <use xlink:href="#rim" fill="#404040">
                        <set attributeName="fill" to="#808080" begin="arrowRight.mouseover" end="arrowRight.mouseout"/>
                  </use>
                  <path fill="none" stroke="white" stroke-width="1.5" d="M0,-3.0v7 M-2.5,-0.5L0,-3.0L2.5,-0.5"/>
                </g>
                <g id="arrowDown" xlink:href="#dirArrow" transform="rotate(180) translate(-30 -48)" onmousedown="handlePan(0,1)">
                  <use xlink:href="#rim" fill="#404040">
                        <set attributeName="fill" to="#808080" begin="arrowDown.mouseover" end="arrowDown.mouseout"/>
                  </use>
                  <path fill="none" stroke="white" stroke-width="1.5" d="M0,-3.0v7 M-2.5,-0.5L0,-3.0L2.5,-0.5"/>
                </g>
                <g id="arrowLeft" xlink:href="#dirArrow" transform="rotate(270) translate(-36 17)" onmousedown="handlePan(-1,0)">
                  <use xlink:href="#rim" fill="#404040">
                        <set attributeName="fill" to="#808080" begin="arrowLeft.mouseover" end="arrowLeft.mouseout"/>
                  </use>
                  <path fill="none" stroke="white" stroke-width="1.5" d="M0,-3.0v7 M-2.5,-0.5L0,-3.0L2.5,-0.5"/>
                </g>
        </g>
        <svg viewBox="0 0 15 15" width="100%" height="30px" preserveAspectRatio="xMaxYMin meet">
         <g id="arrow_out" transform="scale(0.3 0.3)">
          <a xlink:href="class_little_weeb_library_1_1_services_1_1_directory_web_socket_service__coll__graph_org.svg" target="_base">
           <rect id="button" ry="5" rx="5" y="6" x="6" height="38" width="38"
                fill="#f2f5e9" fill-opacity="0.5" stroke="#606060" stroke-width="1.0"/>
           <path id="arrow"
             d="M 11.500037,31.436501 C 11.940474,20.09759 22.043105,11.32322 32.158766,21.979434 L 37.068811,17.246167 C 37.068811,17.246167 37.088388,32 37.088388,32 L 22.160133,31.978069 C 22.160133,31.978069 26.997745,27.140456 26.997745,27.140456 C 18.528582,18.264221 13.291696,25.230495 11.500037,31.436501 z"
             style="fill:#404040;"/>
          </a>
         </g>
        </svg>
</svg>
