<?xml version="1.0" encoding="UTF-8" standalone="no"?>
<!DOCTYPE svg PUBLIC "-//W3C//DTD SVG 1.1//EN"
 "http://www.w3.org/Graphics/SVG/1.1/DTD/svg11.dtd">
<!-- Generated by graphviz version 2.38.0 (20140413.2041)
 -->
<!-- Title: LittleWeebLibrary.Controllers.DownloadWebSocketController Pages: 1 -->
<!--zoomable 259 -->
<svg id="main" version="1.1" xmlns="http://www.w3.org/2000/svg" xmlns:xlink="http://www.w3.org/1999/xlink" xml:space="preserve" onload="init(evt)">
<style type="text/css"><![CDATA[
.edge:hover path { stroke: red; }
.edge:hover polygon { stroke: red; fill: red; }
]]></style>
<script type="text/javascript"><![CDATA[
var edges = document.getElementsByTagName('g');
if (edges && edges.length) {
  for (var i=0;i<edges.length;i++) {
    if (edges[i].id.substr(0,4)=='edge') {
      edges[i].setAttribute('class','edge');
    }
  }
}
]]></script>
        <defs>
                <circle id="rim" cx="0" cy="0" r="7"/>
                <circle id="rim2" cx="0" cy="0" r="3.5"/>
                <g id="zoomPlus">
                        <use xlink:href="#rim" fill="#404040">
                                <set attributeName="fill" to="#808080" begin="zoomplus.mouseover" end="zoomplus.mouseout"/>
                        </use>
                        <path d="M-4,0h8M0,-4v8" fill="none" stroke="white" stroke-width="1.5" pointer-events="none"/>
                </g>
                <g id="zoomMin">
                        <use xlink:href="#rim" fill="#404040">
                                <set attributeName="fill" to="#808080" begin="zoomminus.mouseover" end="zoomminus.mouseout"/>
                        </use>
                        <path d="M-4,0h8" fill="none" stroke="white" stroke-width="1.5" pointer-events="none"/>
                </g>
                <g id="dirArrow">
                        <path fill="none" stroke="white" stroke-width="1.5" d="M0,-3.0v7 M-2.5,-0.5L0,-3.0L2.5,-0.5"/>
                </g>
               <g id="resetDef">
                       <use xlink:href="#rim2" fill="#404040">
                               <set attributeName="fill" to="#808080" begin="reset.mouseover" end="reset.mouseout"/>
                       </use>
               </g>
        </defs>

<script type="text/javascript">
var viewWidth = 766;
var viewHeight = 259;
var sectionId = 'dynsection-1';
</script>
<script xlink:href="svgpan.js"/>
<svg id="graph" class="graph">
<g id="viewport">
<title>LittleWeebLibrary.Controllers.DownloadWebSocketController</title>
<polygon fill="white" stroke="none" points="-4,4 -4,-255 762,-255 762,4 -4,4"/>
<!-- Node2 -->
<g id="node1" class="node"><title>Node2</title>
<polygon fill="#bfbfbf" stroke="black" points="290,-0.5 290,-79.5 456,-79.5 456,-0.5 290,-0.5"/>
<text text-anchor="start" x="298" y="-67.5" font-family="Helvetica,sans-Serif" font-size="10.00">LittleWeebLibrary.Controllers.</text>
<text text-anchor="middle" x="373" y="-56.5" font-family="Helvetica,sans-Serif" font-size="10.00">DownloadWebSocketController</text>
<polyline fill="none" stroke="black" points="290,-49.5 456,-49.5 "/>
<text text-anchor="middle" x="373" y="-37.5" font-family="Helvetica,sans-Serif" font-size="10.00"> </text>
<polyline fill="none" stroke="black" points="290,-30.5 456,-30.5 "/>
<text text-anchor="start" x="298" y="-18.5" font-family="Helvetica,sans-Serif" font-size="10.00">+ DownloadWebSocketController()</text>
<text text-anchor="start" x="298" y="-7.5" font-family="Helvetica,sans-Serif" font-size="10.00">+ OnWebSocketEvent()</text>
</g>
<!-- Node3 -->
<g id="node2" class="node"><title>Node3</title>
<g id="a_node2"><a xlink:href="interface_little_weeb_library_1_1_controllers_1_1_i_sub_web_socket_controller.html" target="_top" xlink:title="{ISubWebSocketController\n||+ OnWebSocketEvent()\l}">
<polygon fill="white" stroke="black" points="0,-160.5 0,-217.5 128,-217.5 128,-160.5 0,-160.5"/>
<text text-anchor="middle" x="64" y="-205.5" font-family="Helvetica,sans-Serif" font-size="10.00">ISubWebSocketController</text>
<polyline fill="none" stroke="black" points="0,-198.5 128,-198.5 "/>
<text text-anchor="middle" x="64" y="-186.5" font-family="Helvetica,sans-Serif" font-size="10.00"> </text>
<polyline fill="none" stroke="black" points="0,-179.5 128,-179.5 "/>
<text text-anchor="start" x="8" y="-167.5" font-family="Helvetica,sans-Serif" font-size="10.00">+ OnWebSocketEvent()</text>
</a>
</g>
</g>
<!-- Node3&#45;&gt;Node2 -->
<g id="edge1" class="edge"><title>Node3&#45;&gt;Node2</title>
<path fill="none" stroke="midnightblue" d="M100.286,-153.463C111.469,-144.017 124.218,-134.365 137,-127 184.891,-99.4033 243.212,-78.0517 289.895,-63.5261"/>
<polygon fill="none" stroke="midnightblue" points="97.7007,-151.072 92.4411,-160.269 102.288,-156.359 97.7007,-151.072"/>
</g>
<!-- Node4 -->
<g id="node3" class="node"><title>Node4</title>
<g id="a_node3"><a xlink:href="interface_little_weeb_library_1_1_handlers_1_1_i_debug_handler.html" target="_top" xlink:title="{LittleWeebLibrary.Handlers.\lIDebugHandler\n||+ SetSettings()\l+ StopDebugger()\l+ TraceMessage()\l}">
<polygon fill="white" stroke="black" points="146.5,-144 146.5,-234 283.5,-234 283.5,-144 146.5,-144"/>
<text text-anchor="start" x="154.5" y="-222" font-family="Helvetica,sans-Serif" font-size="10.00">LittleWeebLibrary.Handlers.</text>
<text text-anchor="middle" x="215" y="-211" font-family="Helvetica,sans-Serif" font-size="10.00">IDebugHandler</text>
<polyline fill="none" stroke="black" points="146.5,-204 283.5,-204 "/>
<text text-anchor="middle" x="215" y="-192" font-family="Helvetica,sans-Serif" font-size="10.00"> </text>
<polyline fill="none" stroke="black" points="146.5,-185 283.5,-185 "/>
<text text-anchor="start" x="154.5" y="-173" font-family="Helvetica,sans-Serif" font-size="10.00">+ SetSettings()</text>
<text text-anchor="start" x="154.5" y="-162" font-family="Helvetica,sans-Serif" font-size="10.00">+ StopDebugger()</text>
<text text-anchor="start" x="154.5" y="-151" font-family="Helvetica,sans-Serif" font-size="10.00">+ TraceMessage()</text>
</a>
</g>
</g>
<!-- Node4&#45;&gt;Node2 -->
<g id="edge2" class="edge"><title>Node4&#45;&gt;Node2</title>
<path fill="none" stroke="#404040" d="M255.53,-143.869C269.826,-128.904 286.264,-112.351 302,-98 305.745,-94.5848 309.665,-91.131 313.659,-87.7018"/>
<polygon fill="none" stroke="#404040" points="313.886,-87.5099 315.895,-80.5842 323.061,-79.7747 321.052,-86.7004 313.886,-87.5099"/>
<text text-anchor="middle" x="335.5" y="-101" font-family="Helvetica,sans-Serif" font-size="10.00"> &#45;DebugHandler</text>
</g>
<!-- Node5 -->
<g id="node4" class="node"><title>Node5</title>
<g id="a_node4"><a xlink:href="interface_little_weeb_library_1_1_services_1_1_i_download_web_socket_service.html" target="_top" xlink:title="{LittleWeebLibrary.Services.\lIDownloadWebSocketService\n||+ AbortDownload()\l+ AddDownload()\l+ AddDownloads()\l+ GetCurrentFileHistory()\l+ Openfullfilepath()\l+ RemoveDownload()\l}">
<polygon fill="white" stroke="black" points="301.5,-127.5 301.5,-250.5 444.5,-250.5 444.5,-127.5 301.5,-127.5"/>
<text text-anchor="start" x="309.5" y="-238.5" font-family="Helvetica,sans-Serif" font-size="10.00">LittleWeebLibrary.Services.</text>
<text text-anchor="middle" x="373" y="-227.5" font-family="Helvetica,sans-Serif" font-size="10.00">IDownloadWebSocketService</text>
<polyline fill="none" stroke="black" points="301.5,-220.5 444.5,-220.5 "/>
<text text-anchor="middle" x="373" y="-208.5" font-family="Helvetica,sans-Serif" font-size="10.00"> </text>
<polyline fill="none" stroke="black" points="301.5,-201.5 444.5,-201.5 "/>
<text text-anchor="start" x="309.5" y="-189.5" font-family="Helvetica,sans-Serif" font-size="10.00">+ AbortDownload()</text>
<text text-anchor="start" x="309.5" y="-178.5" font-family="Helvetica,sans-Serif" font-size="10.00">+ AddDownload()</text>
<text text-anchor="start" x="309.5" y="-167.5" font-family="Helvetica,sans-Serif" font-size="10.00">+ AddDownloads()</text>
<text text-anchor="start" x="309.5" y="-156.5" font-family="Helvetica,sans-Serif" font-size="10.00">+ GetCurrentFileHistory()</text>
<text text-anchor="start" x="309.5" y="-145.5" font-family="Helvetica,sans-Serif" font-size="10.00">+ Openfullfilepath()</text>
<text text-anchor="start" x="309.5" y="-134.5" font-family="Helvetica,sans-Serif" font-size="10.00">+ RemoveDownload()</text>
</a>
</g>
</g>
<!-- Node5&#45;&gt;Node2 -->
<g id="edge3" class="edge"><title>Node5&#45;&gt;Node2</title>
<path fill="none" stroke="#404040" d="M373,-127.361C373,-115.512 373,-103.204 373,-91.719"/>
<polygon fill="none" stroke="#404040" points="373,-91.6405 369,-85.6406 373,-79.6405 377,-85.6405 373,-91.6405"/>
<text text-anchor="middle" x="438.5" y="-101" font-family="Helvetica,sans-Serif" font-size="10.00"> &#45;DownloadWebSocketService</text>
</g>
<!-- Node6 -->
<g id="node5" class="node"><title>Node6</title>
<g id="a_node5"><a xlink:href="interface_little_weeb_library_1_1_handlers_1_1_i_web_socket_handler.html" target="_top" xlink:title="{LittleWeebLibrary.Handlers.\lIWebSocketHandler\n||+ SendMessage()\l+ StartServer()\l+ StopServer()\l}">
<polygon fill="white" stroke="black" points="462.5,-144 462.5,-234 599.5,-234 599.5,-144 462.5,-144"/>
<text text-anchor="start" x="470.5" y="-222" font-family="Helvetica,sans-Serif" font-size="10.00">LittleWeebLibrary.Handlers.</text>
<text text-anchor="middle" x="531" y="-211" font-family="Helvetica,sans-Serif" font-size="10.00">IWebSocketHandler</text>
<polyline fill="none" stroke="black" points="462.5,-204 599.5,-204 "/>
<text text-anchor="middle" x="531" y="-192" font-family="Helvetica,sans-Serif" font-size="10.00"> </text>
<polyline fill="none" stroke="black" points="462.5,-185 599.5,-185 "/>
<text text-anchor="start" x="470.5" y="-173" font-family="Helvetica,sans-Serif" font-size="10.00">+ SendMessage()</text>
<text text-anchor="start" x="470.5" y="-162" font-family="Helvetica,sans-Serif" font-size="10.00">+ StartServer()</text>
<text text-anchor="start" x="470.5" y="-151" font-family="Helvetica,sans-Serif" font-size="10.00">+ StopServer()</text>
</a>
</g>
</g>
<!-- Node6&#45;&gt;Node2 -->
<g id="edge4" class="edge"><title>Node6&#45;&gt;Node2</title>
<path fill="none" stroke="#404040" d="M527.876,-143.936C524.79,-127.948 518.942,-110.711 508,-98 496.981,-85.1999 482.599,-75.2053 467.338,-67.422"/>
<polygon fill="none" stroke="#404040" points="466.965,-67.2462 459.833,-68.3108 456.107,-62.1369 463.239,-61.0722 466.965,-67.2462"/>
<text text-anchor="middle" x="561.5" y="-101" font-family="Helvetica,sans-Serif" font-size="10.00"> &#45;WebSocketHandler</text>
</g>
<!-- Node7 -->
<g id="node6" class="node"><title>Node7</title>
<g id="a_node6"><a xlink:href="interface_little_weeb_library_1_1_services_1_1_i_directory_web_socket_service.html" target="_top" xlink:title="{LittleWeebLibrary.Services.\lIDirectoryWebSocketService\n||+ CreateDirectory()\l+ DeleteDirectory()\l+ GetDirectories()\l+ GetDrives()\l+ GetFreeSpace()\l}">
<polygon fill="white" stroke="black" points="618,-133 618,-245 758,-245 758,-133 618,-133"/>
<text text-anchor="start" x="626" y="-233" font-family="Helvetica,sans-Serif" font-size="10.00">LittleWeebLibrary.Services.</text>
<text text-anchor="middle" x="688" y="-222" font-family="Helvetica,sans-Serif" font-size="10.00">IDirectoryWebSocketService</text>
<polyline fill="none" stroke="black" points="618,-215 758,-215 "/>
<text text-anchor="middle" x="688" y="-203" font-family="Helvetica,sans-Serif" font-size="10.00"> </text>
<polyline fill="none" stroke="black" points="618,-196 758,-196 "/>
<text text-anchor="start" x="626" y="-184" font-family="Helvetica,sans-Serif" font-size="10.00">+ CreateDirectory()</text>
<text text-anchor="start" x="626" y="-173" font-family="Helvetica,sans-Serif" font-size="10.00">+ DeleteDirectory()</text>
<text text-anchor="start" x="626" y="-162" font-family="Helvetica,sans-Serif" font-size="10.00">+ GetDirectories()</text>
<text text-anchor="start" x="626" y="-151" font-family="Helvetica,sans-Serif" font-size="10.00">+ GetDrives()</text>
<text text-anchor="start" x="626" y="-140" font-family="Helvetica,sans-Serif" font-size="10.00">+ GetFreeSpace()</text>
</a>
</g>
</g>
<!-- Node7&#45;&gt;Node2 -->
<g id="edge5" class="edge"><title>Node7&#45;&gt;Node2</title>
<path fill="none" stroke="#404040" d="M650.384,-132.919C639.089,-119.804 625.734,-107.015 611,-98 568.082,-71.7415 513.944,-57.5794 468.15,-49.9414"/>
<polygon fill="none" stroke="#404040" points="467.941,-49.9088 461.393,-52.929 456.087,-48.0461 462.635,-45.0259 467.941,-49.9088"/>
<text text-anchor="middle" x="689" y="-101" font-family="Helvetica,sans-Serif" font-size="10.00"> &#45;DirectoryWebSocketService</text>
</g>
</g>
</svg>
        <g id="navigator" transform="translate(0 0)" fill="#404254">
                <rect fill="#f2f5e9" fill-opacity="0.5" stroke="#606060" stroke-width=".5" x="0" y="0" width="60" height="60"/>
                <use id="zoomplus" xlink:href="#zoomPlus" x="17" y="9" onmousedown="handleZoom(evt,'in')"/>
                <use id="zoomminus" xlink:href="#zoomMin" x="42" y="9" onmousedown="handleZoom(evt,'out')"/>
                <use id="reset" xlink:href="#resetDef" x="30" y="36" onmousedown="handleReset()"/>
                <g id="arrowUp" xlink:href="#dirArrow" transform="translate(30 24)" onmousedown="handlePan(0,-1)">
                  <use xlink:href="#rim" fill="#404040">
                        <set attributeName="fill" to="#808080" begin="arrowUp.mouseover" end="arrowUp.mouseout"/>
                  </use>
                  <path fill="none" stroke="white" stroke-width="1.5" d="M0,-3.0v7 M-2.5,-0.5L0,-3.0L2.5,-0.5"/>
                </g>
                <g id="arrowRight" xlink:href="#dirArrow" transform="rotate(90) translate(36 -43)" onmousedown="handlePan(1,0)">
                  <use xlink:href="#rim" fill="#404040">
                        <set attributeName="fill" to="#808080" begin="arrowRight.mouseover" end="arrowRight.mouseout"/>
                  </use>
                  <path fill="none" stroke="white" stroke-width="1.5" d="M0,-3.0v7 M-2.5,-0.5L0,-3.0L2.5,-0.5"/>
                </g>
                <g id="arrowDown" xlink:href="#dirArrow" transform="rotate(180) translate(-30 -48)" onmousedown="handlePan(0,1)">
                  <use xlink:href="#rim" fill="#404040">
                        <set attributeName="fill" to="#808080" begin="arrowDown.mouseover" end="arrowDown.mouseout"/>
                  </use>
                  <path fill="none" stroke="white" stroke-width="1.5" d="M0,-3.0v7 M-2.5,-0.5L0,-3.0L2.5,-0.5"/>
                </g>
                <g id="arrowLeft" xlink:href="#dirArrow" transform="rotate(270) translate(-36 17)" onmousedown="handlePan(-1,0)">
                  <use xlink:href="#rim" fill="#404040">
                        <set attributeName="fill" to="#808080" begin="arrowLeft.mouseover" end="arrowLeft.mouseout"/>
                  </use>
                  <path fill="none" stroke="white" stroke-width="1.5" d="M0,-3.0v7 M-2.5,-0.5L0,-3.0L2.5,-0.5"/>
                </g>
        </g>
        <svg viewBox="0 0 15 15" width="100%" height="30px" preserveAspectRatio="xMaxYMin meet">
         <g id="arrow_out" transform="scale(0.3 0.3)">
          <a xlink:href="class_little_weeb_library_1_1_controllers_1_1_download_web_socket_controller__coll__graph_org.svg" target="_base">
           <rect id="button" ry="5" rx="5" y="6" x="6" height="38" width="38"
                fill="#f2f5e9" fill-opacity="0.5" stroke="#606060" stroke-width="1.0"/>
           <path id="arrow"
             d="M 11.500037,31.436501 C 11.940474,20.09759 22.043105,11.32322 32.158766,21.979434 L 37.068811,17.246167 C 37.068811,17.246167 37.088388,32 37.088388,32 L 22.160133,31.978069 C 22.160133,31.978069 26.997745,27.140456 26.997745,27.140456 C 18.528582,18.264221 13.291696,25.230495 11.500037,31.436501 z"
             style="fill:#404040;"/>
          </a>
         </g>
        </svg>
</svg>
