<?xml version="1.0" encoding="UTF-8" standalone="no"?>
<!DOCTYPE svg PUBLIC "-//W3C//DTD SVG 1.1//EN"
 "http://www.w3.org/Graphics/SVG/1.1/DTD/svg11.dtd">
<!-- Generated by graphviz version 2.38.0 (20140413.2041)
 -->
<!-- Title: LittleWeebLibrary.Handlers.DirectoryHandler.CreateDirectory Pages: 1 -->
<!--zoomable 110 -->
<svg id="main" version="1.1" xmlns="http://www.w3.org/2000/svg" xmlns:xlink="http://www.w3.org/1999/xlink" xml:space="preserve" onload="init(evt)">
<style type="text/css"><![CDATA[
.edge:hover path { stroke: red; }
.edge:hover polygon { stroke: red; fill: red; }
]]></style>
<script type="text/javascript"><![CDATA[
var edges = document.getElementsByTagName('g');
if (edges && edges.length) {
  for (var i=0;i<edges.length;i++) {
    if (edges[i].id.substr(0,4)=='edge') {
      edges[i].setAttribute('class','edge');
    }
  }
}
]]></script>
        <defs>
                <circle id="rim" cx="0" cy="0" r="7"/>
                <circle id="rim2" cx="0" cy="0" r="3.5"/>
                <g id="zoomPlus">
                        <use xlink:href="#rim" fill="#404040">
                                <set attributeName="fill" to="#808080" begin="zoomplus.mouseover" end="zoomplus.mouseout"/>
                        </use>
                        <path d="M-4,0h8M0,-4v8" fill="none" stroke="white" stroke-width="1.5" pointer-events="none"/>
                </g>
                <g id="zoomMin">
                        <use xlink:href="#rim" fill="#404040">
                                <set attributeName="fill" to="#808080" begin="zoomminus.mouseover" end="zoomminus.mouseout"/>
                        </use>
                        <path d="M-4,0h8" fill="none" stroke="white" stroke-width="1.5" pointer-events="none"/>
                </g>
                <g id="dirArrow">
                        <path fill="none" stroke="white" stroke-width="1.5" d="M0,-3.0v7 M-2.5,-0.5L0,-3.0L2.5,-0.5"/>
                </g>
               <g id="resetDef">
                       <use xlink:href="#rim2" fill="#404040">
                               <set attributeName="fill" to="#808080" begin="reset.mouseover" end="reset.mouseout"/>
                       </use>
               </g>
        </defs>

<script type="text/javascript">
var viewWidth = 608;
var viewHeight = 110;
var sectionId = 'dynsection-10';
</script>
<script xlink:href="svgpan.js"/>
<svg id="graph" class="graph">
<g id="viewport">
<title>LittleWeebLibrary.Handlers.DirectoryHandler.CreateDirectory</title>
<polygon fill="white" stroke="none" points="-4,4 -4,-106 604,-106 604,4 -4,4"/>
<!-- Node30 -->
<g id="node1" class="node"><title>Node30</title>
<polygon fill="#bfbfbf" stroke="black" points="0,-36 0,-66 159,-66 159,-36 0,-36"/>
<text text-anchor="start" x="8" y="-54" font-family="Helvetica,sans-Serif" font-size="10.00">LittleWeebLibrary.Handlers.</text>
<text text-anchor="middle" x="79.5" y="-43" font-family="Helvetica,sans-Serif" font-size="10.00">DirectoryHandler.CreateDirectory</text>
</g>
<!-- Node31 -->
<g id="node2" class="node"><title>Node31</title>
<g id="a_node2"><a xlink:href="class_little_weeb_library_1_1_services_1_1_directory_web_socket_service.html#a3ea6566e0d21d73d331adce1ae9c7f07" target="_top" xlink:title="LittleWeebLibrary.Services.\lDirectoryWebSocketService.Create\lDirectory">
<polygon fill="white" stroke="black" points="208,-58.5 208,-99.5 378,-99.5 378,-58.5 208,-58.5"/>
<text text-anchor="start" x="216" y="-87.5" font-family="Helvetica,sans-Serif" font-size="10.00">LittleWeebLibrary.Services.</text>
<text text-anchor="start" x="216" y="-76.5" font-family="Helvetica,sans-Serif" font-size="10.00">DirectoryWebSocketService.Create</text>
<text text-anchor="middle" x="293" y="-65.5" font-family="Helvetica,sans-Serif" font-size="10.00">Directory</text>
</a>
</g>
</g>
<!-- Node30&#45;&gt;Node31 -->
<g id="edge1" class="edge"><title>Node30&#45;&gt;Node31</title>
<path fill="none" stroke="midnightblue" d="M169.389,-62.7679C182.134,-64.4551 195.214,-66.1868 207.864,-67.8614"/>
<polygon fill="midnightblue" stroke="midnightblue" points="169.628,-59.269 159.255,-61.4262 168.709,-66.2084 169.628,-59.269"/>
</g>
<!-- Node33 -->
<g id="node4" class="node"><title>Node33</title>
<g id="a_node4"><a xlink:href="class_little_weeb_library_1_1_services_1_1_settings_web_socket_service.html#aef49a5d18d17b206d2807bba6c28f793" target="_top" xlink:title="LittleWeebLibrary.Services.\lSettingsWebSocketService.Setfullfilepath">
<polygon fill="white" stroke="black" points="195,-8 195,-38 391,-38 391,-8 195,-8"/>
<text text-anchor="start" x="203" y="-26" font-family="Helvetica,sans-Serif" font-size="10.00">LittleWeebLibrary.Services.</text>
<text text-anchor="middle" x="293" y="-15" font-family="Helvetica,sans-Serif" font-size="10.00">SettingsWebSocketService.Setfullfilepath</text>
</a>
</g>
</g>
<!-- Node30&#45;&gt;Node33 -->
<g id="edge3" class="edge"><title>Node30&#45;&gt;Node33</title>
<path fill="none" stroke="midnightblue" d="M169.44,-39.2255C177.861,-38.1106 186.429,-36.9763 194.921,-35.8521"/>
<polygon fill="midnightblue" stroke="midnightblue" points="168.709,-35.7916 159.255,-40.5738 169.628,-42.731 168.709,-35.7916"/>
</g>
<!-- Node32 -->
<g id="node3" class="node"><title>Node32</title>
<g id="a_node3"><a xlink:href="class_little_weeb_library_1_1_controllers_1_1_sub_controllers_1_1_directory_web_socket_controller.html#a2db42c05c620f5658a5b6e473581f84c" target="_top" xlink:title="LittleWeebLibrary.Controllers.\lSubControllers.DirectoryWebSocket\lController.OnWebSocketEvent">
<polygon fill="white" stroke="black" points="427,-60.5 427,-101.5 600,-101.5 600,-60.5 427,-60.5"/>
<text text-anchor="start" x="435" y="-89.5" font-family="Helvetica,sans-Serif" font-size="10.00">LittleWeebLibrary.Controllers.</text>
<text text-anchor="start" x="435" y="-78.5" font-family="Helvetica,sans-Serif" font-size="10.00">SubControllers.DirectoryWebSocket</text>
<text text-anchor="middle" x="513.5" y="-67.5" font-family="Helvetica,sans-Serif" font-size="10.00">Controller.OnWebSocketEvent</text>
</a>
</g>
</g>
<!-- Node31&#45;&gt;Node32 -->
<g id="edge2" class="edge"><title>Node31&#45;&gt;Node32</title>
<path fill="none" stroke="midnightblue" d="M388.371,-79.8638C401.188,-79.9811 414.283,-80.101 426.934,-80.2168"/>
<polygon fill="midnightblue" stroke="midnightblue" points="388.197,-76.3622 378.165,-79.7704 388.133,-83.3619 388.197,-76.3622"/>
</g>
<!-- Node34 -->
<g id="node5" class="node"><title>Node34</title>
<g id="a_node5"><a xlink:href="class_little_weeb_library_1_1_controllers_1_1_sub_controllers_1_1_settings_web_socket_controller.html#a39b333aee248388fd295a8511486c76e" target="_top" xlink:title="LittleWeebLibrary.Controllers.\lSubControllers.SettingsWebSocket\lController.OnWebSocketEvent">
<polygon fill="white" stroke="black" points="428.5,-0.5 428.5,-41.5 598.5,-41.5 598.5,-0.5 428.5,-0.5"/>
<text text-anchor="start" x="436.5" y="-29.5" font-family="Helvetica,sans-Serif" font-size="10.00">LittleWeebLibrary.Controllers.</text>
<text text-anchor="start" x="436.5" y="-18.5" font-family="Helvetica,sans-Serif" font-size="10.00">SubControllers.SettingsWebSocket</text>
<text text-anchor="middle" x="513.5" y="-7.5" font-family="Helvetica,sans-Serif" font-size="10.00">Controller.OnWebSocketEvent</text>
</a>
</g>
</g>
<!-- Node33&#45;&gt;Node34 -->
<g id="edge4" class="edge"><title>Node33&#45;&gt;Node34</title>
<path fill="none" stroke="midnightblue" d="M401.335,-22.0175C410.41,-21.9345 419.503,-21.8512 428.363,-21.7701"/>
<polygon fill="midnightblue" stroke="midnightblue" points="401.077,-18.5196 391.11,-22.1111 401.141,-25.5194 401.077,-18.5196"/>
</g>
</g>
</svg>
        <g id="navigator" transform="translate(0 0)" fill="#404254">
                <rect fill="#f2f5e9" fill-opacity="0.5" stroke="#606060" stroke-width=".5" x="0" y="0" width="60" height="60"/>
                <use id="zoomplus" xlink:href="#zoomPlus" x="17" y="9" onmousedown="handleZoom(evt,'in')"/>
                <use id="zoomminus" xlink:href="#zoomMin" x="42" y="9" onmousedown="handleZoom(evt,'out')"/>
                <use id="reset" xlink:href="#resetDef" x="30" y="36" onmousedown="handleReset()"/>
                <g id="arrowUp" xlink:href="#dirArrow" transform="translate(30 24)" onmousedown="handlePan(0,-1)">
                  <use xlink:href="#rim" fill="#404040">
                        <set attributeName="fill" to="#808080" begin="arrowUp.mouseover" end="arrowUp.mouseout"/>
                  </use>
                  <path fill="none" stroke="white" stroke-width="1.5" d="M0,-3.0v7 M-2.5,-0.5L0,-3.0L2.5,-0.5"/>
                </g>
                <g id="arrowRight" xlink:href="#dirArrow" transform="rotate(90) translate(36 -43)" onmousedown="handlePan(1,0)">
                  <use xlink:href="#rim" fill="#404040">
                        <set attributeName="fill" to="#808080" begin="arrowRight.mouseover" end="arrowRight.mouseout"/>
                  </use>
                  <path fill="none" stroke="white" stroke-width="1.5" d="M0,-3.0v7 M-2.5,-0.5L0,-3.0L2.5,-0.5"/>
                </g>
                <g id="arrowDown" xlink:href="#dirArrow" transform="rotate(180) translate(-30 -48)" onmousedown="handlePan(0,1)">
                  <use xlink:href="#rim" fill="#404040">
                        <set attributeName="fill" to="#808080" begin="arrowDown.mouseover" end="arrowDown.mouseout"/>
                  </use>
                  <path fill="none" stroke="white" stroke-width="1.5" d="M0,-3.0v7 M-2.5,-0.5L0,-3.0L2.5,-0.5"/>
                </g>
                <g id="arrowLeft" xlink:href="#dirArrow" transform="rotate(270) translate(-36 17)" onmousedown="handlePan(-1,0)">
                  <use xlink:href="#rim" fill="#404040">
                        <set attributeName="fill" to="#808080" begin="arrowLeft.mouseover" end="arrowLeft.mouseout"/>
                  </use>
                  <path fill="none" stroke="white" stroke-width="1.5" d="M0,-3.0v7 M-2.5,-0.5L0,-3.0L2.5,-0.5"/>
                </g>
        </g>
        <svg viewBox="0 0 15 15" width="100%" height="30px" preserveAspectRatio="xMaxYMin meet">
         <g id="arrow_out" transform="scale(0.3 0.3)">
          <a xlink:href="class_little_weeb_library_1_1_handlers_1_1_directory_handler_a6be1b158ee280e8a74a49917a90484e2_icgraph_org.svg" target="_base">
           <rect id="button" ry="5" rx="5" y="6" x="6" height="38" width="38"
                fill="#f2f5e9" fill-opacity="0.5" stroke="#606060" stroke-width="1.0"/>
           <path id="arrow"
             d="M 11.500037,31.436501 C 11.940474,20.09759 22.043105,11.32322 32.158766,21.979434 L 37.068811,17.246167 C 37.068811,17.246167 37.088388,32 37.088388,32 L 22.160133,31.978069 C 22.160133,31.978069 26.997745,27.140456 26.997745,27.140456 C 18.528582,18.264221 13.291696,25.230495 11.500037,31.436501 z"
             style="fill:#404040;"/>
          </a>
         </g>
        </svg>
</svg>
