<?xml version="1.0" encoding="UTF-8" standalone="no"?>
<!DOCTYPE svg PUBLIC "-//W3C//DTD SVG 1.1//EN"
 "http://www.w3.org/Graphics/SVG/1.1/DTD/svg11.dtd">
<!-- Generated by graphviz version 2.38.0 (20140413.2041)
 -->
<!-- Title: LittleWeebLibrary.Services.DirectoryWebSocketService.GetDrives Pages: 1 -->
<svg width="573pt" height="235pt"
 viewBox="0.00 0.00 573.00 235.00" xmlns="http://www.w3.org/2000/svg" xmlns:xlink="http://www.w3.org/1999/xlink">
<g id="graph0" class="graph" transform="scale(1 1) rotate(0) translate(4 231)">
<title>LittleWeebLibrary.Services.DirectoryWebSocketService.GetDrives</title>
<polygon fill="white" stroke="none" points="-4,4 -4,-231 569,-231 569,4 -4,4"/>
<!-- Node20 -->
<g id="node1" class="node"><title>Node20</title>
<polygon fill="#bfbfbf" stroke="black" points="0,-44.5 0,-74.5 183,-74.5 183,-44.5 0,-44.5"/>
<text text-anchor="start" x="8" y="-62.5" font-family="Helvetica,sans-Serif" font-size="10.00">LittleWeebLibrary.Services.</text>
<text text-anchor="middle" x="91.5" y="-51.5" font-family="Helvetica,sans-Serif" font-size="10.00">DirectoryWebSocketService.GetDrives</text>
</g>
<!-- Node21 -->
<g id="node2" class="node"><title>Node21</title>
<g id="a_node2"><a xlink:href="class_little_weeb_library_1_1_handlers_1_1_directory_handler.html#a6ab9fa9b838eeca3f918429af0a3564d" target="_top" xlink:title="LittleWeebLibrary.Handlers.\lDirectoryHandler.GetDrives">
<polygon fill="white" stroke="black" points="233.5,-93.5 233.5,-123.5 370.5,-123.5 370.5,-93.5 233.5,-93.5"/>
<text text-anchor="start" x="241.5" y="-111.5" font-family="Helvetica,sans-Serif" font-size="10.00">LittleWeebLibrary.Handlers.</text>
<text text-anchor="middle" x="302" y="-100.5" font-family="Helvetica,sans-Serif" font-size="10.00">DirectoryHandler.GetDrives</text>
</a>
</g>
</g>
<!-- Node20&#45;&gt;Node21 -->
<g id="edge1" class="edge"><title>Node20&#45;&gt;Node21</title>
<path fill="none" stroke="midnightblue" d="M156.474,-74.5346C178.889,-79.8024 204.239,-85.7601 227.38,-91.1984"/>
<polygon fill="midnightblue" stroke="midnightblue" points="226.612,-94.6131 237.147,-93.4938 228.213,-87.7988 226.612,-94.6131"/>
</g>
<!-- Node26 -->
<g id="node7" class="node"><title>Node26</title>
<g id="a_node7"><a xlink:href="class_little_weeb_library_1_1_handlers_1_1_debug_handler.html#afccb37dfd6b2114af72000c2f4fe4607" target="_top" xlink:title="LittleWeebLibrary.Handlers.\lDebugHandler.TraceMessage">
<polygon fill="white" stroke="black" points="421,-0.5 421,-30.5 565,-30.5 565,-0.5 421,-0.5"/>
<text text-anchor="start" x="429" y="-18.5" font-family="Helvetica,sans-Serif" font-size="10.00">LittleWeebLibrary.Handlers.</text>
<text text-anchor="middle" x="493" y="-7.5" font-family="Helvetica,sans-Serif" font-size="10.00">DebugHandler.TraceMessage</text>
</a>
</g>
</g>
<!-- Node20&#45;&gt;Node26 -->
<g id="edge9" class="edge"><title>Node20&#45;&gt;Node26</title>
<path fill="none" stroke="midnightblue" d="M183.138,-56.8637C241.102,-54.3006 317.757,-49.282 385,-39.5 397.264,-37.7159 410.21,-35.2873 422.698,-32.6572"/>
<polygon fill="midnightblue" stroke="midnightblue" points="423.561,-36.0516 432.593,-30.5133 422.078,-29.2103 423.561,-36.0516"/>
</g>
<!-- Node27 -->
<g id="node8" class="node"><title>Node27</title>
<g id="a_node8"><a xlink:href="class_little_weeb_library_1_1_handlers_1_1_web_socket_handler.html#a1de289d54d665a32c93478c68d3e6ad0" target="_top" xlink:title="LittleWeebLibrary.Handlers.\lWebSocketHandler.SendMessage">
<polygon fill="white" stroke="black" points="219,-0.5 219,-30.5 385,-30.5 385,-0.5 219,-0.5"/>
<text text-anchor="start" x="227" y="-18.5" font-family="Helvetica,sans-Serif" font-size="10.00">LittleWeebLibrary.Handlers.</text>
<text text-anchor="middle" x="302" y="-7.5" font-family="Helvetica,sans-Serif" font-size="10.00">WebSocketHandler.SendMessage</text>
</a>
</g>
</g>
<!-- Node20&#45;&gt;Node27 -->
<g id="edge7" class="edge"><title>Node20&#45;&gt;Node27</title>
<path fill="none" stroke="midnightblue" d="M163.671,-44.4808C181.77,-40.6612 201.354,-36.5284 219.907,-32.6131"/>
<polygon fill="midnightblue" stroke="midnightblue" points="220.734,-36.0157 229.796,-30.5262 219.289,-29.1665 220.734,-36.0157"/>
</g>
<!-- Node22 -->
<g id="node3" class="node"><title>Node22</title>
<g id="a_node3"><a xlink:href="class_little_weeb_library_1_1_models_1_1_json_directories.html#a06826e97f8dd170ecad5574cf8ef816a" target="_top" xlink:title="LittleWeebLibrary.Models.\lJsonDirectories.ToJson">
<polygon fill="white" stroke="black" points="428,-196.5 428,-226.5 558,-226.5 558,-196.5 428,-196.5"/>
<text text-anchor="start" x="436" y="-214.5" font-family="Helvetica,sans-Serif" font-size="10.00">LittleWeebLibrary.Models.</text>
<text text-anchor="middle" x="493" y="-203.5" font-family="Helvetica,sans-Serif" font-size="10.00">JsonDirectories.ToJson</text>
</a>
</g>
</g>
<!-- Node21&#45;&gt;Node22 -->
<g id="edge2" class="edge"><title>Node21&#45;&gt;Node22</title>
<path fill="none" stroke="midnightblue" d="M322.075,-123.596C344.641,-140.888 383.85,-169.188 421,-187.5 424.742,-189.344 428.66,-191.103 432.652,-192.769"/>
<polygon fill="midnightblue" stroke="midnightblue" points="431.465,-196.063 442.052,-196.484 434.038,-189.553 431.465,-196.063"/>
</g>
<!-- Node23 -->
<g id="node4" class="node"><title>Node23</title>
<g id="a_node4"><a xlink:href="class_little_weeb_library_1_1_models_1_1_json_error.html#a0e3e7dd2e2990404b7f0461742b23440" target="_top" xlink:title="LittleWeebLibrary.Models.\lJsonError.ToJson">
<polygon fill="white" stroke="black" points="428,-147.5 428,-177.5 558,-177.5 558,-147.5 428,-147.5"/>
<text text-anchor="start" x="436" y="-165.5" font-family="Helvetica,sans-Serif" font-size="10.00">LittleWeebLibrary.Models.</text>
<text text-anchor="middle" x="493" y="-154.5" font-family="Helvetica,sans-Serif" font-size="10.00">JsonError.ToJson</text>
</a>
</g>
</g>
<!-- Node21&#45;&gt;Node23 -->
<g id="edge3" class="edge"><title>Node21&#45;&gt;Node23</title>
<path fill="none" stroke="midnightblue" d="M355.647,-123.542C378.591,-130.097 405.66,-137.831 429.606,-144.673"/>
<polygon fill="midnightblue" stroke="midnightblue" points="428.731,-148.063 439.308,-147.445 430.654,-141.332 428.731,-148.063"/>
</g>
<!-- Node24 -->
<g id="node5" class="node"><title>Node24</title>
<g id="a_node5"><a xlink:href="class_little_weeb_library_1_1_models_1_1_json_directory.html#a3527cf5cff598f63b5f95cf7d6158b55" target="_top" xlink:title="LittleWeebLibrary.Models.\lJsonDirectory.ToJson">
<polygon fill="white" stroke="black" points="428,-98.5 428,-128.5 558,-128.5 558,-98.5 428,-98.5"/>
<text text-anchor="start" x="436" y="-116.5" font-family="Helvetica,sans-Serif" font-size="10.00">LittleWeebLibrary.Models.</text>
<text text-anchor="middle" x="493" y="-105.5" font-family="Helvetica,sans-Serif" font-size="10.00">JsonDirectory.ToJson</text>
</a>
</g>
</g>
<!-- Node21&#45;&gt;Node24 -->
<g id="edge4" class="edge"><title>Node21&#45;&gt;Node24</title>
<path fill="none" stroke="midnightblue" d="M370.7,-110.291C385.992,-110.696 402.305,-111.127 417.847,-111.538"/>
<polygon fill="midnightblue" stroke="midnightblue" points="417.842,-115.039 427.931,-111.805 418.027,-108.042 417.842,-115.039"/>
</g>
<!-- Node25 -->
<g id="node6" class="node"><title>Node25</title>
<g id="a_node6"><a xlink:href="class_little_weeb_library_1_1_models_1_1_json_error.html#ad7d5522c90119111d2e929f39e7f6d3c" target="_top" xlink:title="LittleWeebLibrary.Models.\lJsonError.ToString">
<polygon fill="white" stroke="black" points="428,-49.5 428,-79.5 558,-79.5 558,-49.5 428,-49.5"/>
<text text-anchor="start" x="436" y="-67.5" font-family="Helvetica,sans-Serif" font-size="10.00">LittleWeebLibrary.Models.</text>
<text text-anchor="middle" x="493" y="-56.5" font-family="Helvetica,sans-Serif" font-size="10.00">JsonError.ToString</text>
</a>
</g>
</g>
<!-- Node21&#45;&gt;Node25 -->
<g id="edge5" class="edge"><title>Node21&#45;&gt;Node25</title>
<path fill="none" stroke="midnightblue" d="M367.514,-93.4808C383.632,-89.7286 401.048,-85.6741 417.601,-81.8205"/>
<polygon fill="midnightblue" stroke="midnightblue" points="418.83,-85.1279 427.776,-79.4516 417.243,-78.3102 418.83,-85.1279"/>
</g>
<!-- Node21&#45;&gt;Node26 -->
<g id="edge6" class="edge"><title>Node21&#45;&gt;Node26</title>
<path fill="none" stroke="midnightblue" d="M346.177,-93.4221C359.149,-88.0212 373.089,-81.3056 385,-73.5 403.407,-61.4368 402.14,-50.8415 421,-39.5 423.788,-37.8237 426.708,-36.2458 429.708,-34.7633"/>
<polygon fill="midnightblue" stroke="midnightblue" points="431.235,-37.9144 438.898,-30.5982 428.345,-31.5387 431.235,-37.9144"/>
</g>
<!-- Node27&#45;&gt;Node26 -->
<g id="edge8" class="edge"><title>Node27&#45;&gt;Node26</title>
<path fill="none" stroke="midnightblue" d="M385.074,-15.5C393.572,-15.5 402.208,-15.5 410.698,-15.5"/>
<polygon fill="midnightblue" stroke="midnightblue" points="410.964,-19.0001 420.964,-15.5 410.964,-12.0001 410.964,-19.0001"/>
</g>
</g>
</svg>
