<?xml version="1.0" encoding="UTF-8" standalone="no"?>
<!DOCTYPE svg PUBLIC "-//W3C//DTD SVG 1.1//EN"
 "http://www.w3.org/Graphics/SVG/1.1/DTD/svg11.dtd">
<!-- Generated by graphviz version 2.38.0 (20140413.2041)
 -->
<!-- Title: LittleWeebLibrary.Services.InfoApiWebSocketService.GetAnimeEpisodes Pages: 1 -->
<svg width="1037pt" height="452pt"
 viewBox="0.00 0.00 1037.00 452.00" xmlns="http://www.w3.org/2000/svg" xmlns:xlink="http://www.w3.org/1999/xlink">
<g id="graph0" class="graph" transform="scale(1 1) rotate(0) translate(4 448)">
<title>LittleWeebLibrary.Services.InfoApiWebSocketService.GetAnimeEpisodes</title>
<polygon fill="white" stroke="none" points="-4,4 -4,-448 1033,-448 1033,4 -4,4"/>
<!-- Node65 -->
<g id="node1" class="node"><title>Node65</title>
<polygon fill="#bfbfbf" stroke="black" points="0,-66 0,-107 175,-107 175,-66 0,-66"/>
<text text-anchor="start" x="8" y="-95" font-family="Helvetica,sans-Serif" font-size="10.00">LittleWeebLibrary.Services.</text>
<text text-anchor="start" x="8" y="-84" font-family="Helvetica,sans-Serif" font-size="10.00">InfoApiWebSocketService.GetAnime</text>
<text text-anchor="middle" x="87.5" y="-73" font-family="Helvetica,sans-Serif" font-size="10.00">Episodes</text>
</g>
<!-- Node66 -->
<g id="node2" class="node"><title>Node66</title>
<g id="a_node2"><a xlink:href="class_little_weeb_library_1_1_handlers_1_1_anime_profile_handler.html#a5b163eb7e68b1e40904fa55454d8ba54" target="_top" xlink:title="LittleWeebLibrary.Handlers.\lAnimeProfileHandler.GetAnimeEpisodes">
<polygon fill="white" stroke="black" points="211,-219.5 211,-249.5 402,-249.5 402,-219.5 211,-219.5"/>
<text text-anchor="start" x="219" y="-237.5" font-family="Helvetica,sans-Serif" font-size="10.00">LittleWeebLibrary.Handlers.</text>
<text text-anchor="middle" x="306.5" y="-226.5" font-family="Helvetica,sans-Serif" font-size="10.00">AnimeProfileHandler.GetAnimeEpisodes</text>
</a>
</g>
</g>
<!-- Node65&#45;&gt;Node66 -->
<g id="edge1" class="edge"><title>Node65&#45;&gt;Node66</title>
<path fill="none" stroke="midnightblue" d="M118.673,-107.079C159.988,-135.257 233.746,-185.562 275.152,-213.802"/>
<polygon fill="midnightblue" stroke="midnightblue" points="273.24,-216.734 283.474,-219.477 277.184,-210.951 273.24,-216.734"/>
</g>
<!-- Node70 -->
<g id="node6" class="node"><title>Node70</title>
<g id="a_node6"><a xlink:href="class_little_weeb_library_1_1_handlers_1_1_debug_handler.html#afccb37dfd6b2114af72000c2f4fe4607" target="_top" xlink:title="LittleWeebLibrary.Handlers.\lDebugHandler.TraceMessage">
<polygon fill="white" stroke="black" points="864,-219.5 864,-249.5 1008,-249.5 1008,-219.5 864,-219.5"/>
<text text-anchor="start" x="872" y="-237.5" font-family="Helvetica,sans-Serif" font-size="10.00">LittleWeebLibrary.Handlers.</text>
<text text-anchor="middle" x="936" y="-226.5" font-family="Helvetica,sans-Serif" font-size="10.00">DebugHandler.TraceMessage</text>
</a>
</g>
</g>
<!-- Node65&#45;&gt;Node70 -->
<g id="edge18" class="edge"><title>Node65&#45;&gt;Node70</title>
<path fill="none" stroke="midnightblue" d="M175.065,-87.8134C339.991,-91.2441 692.978,-103.307 807,-144.5 848.089,-159.344 888.067,-191.056 912.115,-212.584"/>
<polygon fill="midnightblue" stroke="midnightblue" points="909.894,-215.296 919.638,-219.456 914.615,-210.127 909.894,-215.296"/>
</g>
<!-- Node76 -->
<g id="node12" class="node"><title>Node76</title>
<g id="a_node12"><a xlink:href="class_little_weeb_library_1_1_handlers_1_1_web_socket_handler.html#a1de289d54d665a32c93478c68d3e6ad0" target="_top" xlink:title="LittleWeebLibrary.Handlers.\lWebSocketHandler.SendMessage">
<polygon fill="white" stroke="black" points="223.5,-49.5 223.5,-79.5 389.5,-79.5 389.5,-49.5 223.5,-49.5"/>
<text text-anchor="start" x="231.5" y="-67.5" font-family="Helvetica,sans-Serif" font-size="10.00">LittleWeebLibrary.Handlers.</text>
<text text-anchor="middle" x="306.5" y="-56.5" font-family="Helvetica,sans-Serif" font-size="10.00">WebSocketHandler.SendMessage</text>
</a>
</g>
</g>
<!-- Node65&#45;&gt;Node76 -->
<g id="edge15" class="edge"><title>Node65&#45;&gt;Node76</title>
<path fill="none" stroke="midnightblue" d="M175.2,-77.7102C187.682,-76.4447 200.566,-75.1385 213.153,-73.8624"/>
<polygon fill="midnightblue" stroke="midnightblue" points="213.574,-77.3377 223.17,-72.8468 212.868,-70.3734 213.574,-77.3377"/>
</g>
<!-- Node77 -->
<g id="node13" class="node"><title>Node77</title>
<g id="a_node13"><a xlink:href="class_little_weeb_library_1_1_models_1_1_json_kitsu_anime_info.html#a6f026c01a93f73b903cfef82d4c2dad5" target="_top" xlink:title="LittleWeebLibrary.Models.\lJsonKitsuAnimeInfo.ToJson">
<polygon fill="white" stroke="black" points="238.5,-0.5 238.5,-30.5 374.5,-30.5 374.5,-0.5 238.5,-0.5"/>
<text text-anchor="start" x="246.5" y="-18.5" font-family="Helvetica,sans-Serif" font-size="10.00">LittleWeebLibrary.Models.</text>
<text text-anchor="middle" x="306.5" y="-7.5" font-family="Helvetica,sans-Serif" font-size="10.00">JsonKitsuAnimeInfo.ToJson</text>
</a>
</g>
</g>
<!-- Node65&#45;&gt;Node77 -->
<g id="edge17" class="edge"><title>Node65&#45;&gt;Node77</title>
<path fill="none" stroke="midnightblue" d="M138.094,-65.9473C160.198,-57.1842 186.684,-47.2228 211,-39.5 217.821,-37.3335 224.967,-35.228 232.144,-33.2224"/>
<polygon fill="midnightblue" stroke="midnightblue" points="233.198,-36.563 241.923,-30.5531 231.354,-29.8101 233.198,-36.563"/>
</g>
<!-- Node67 -->
<g id="node3" class="node"><title>Node67</title>
<g id="a_node3"><a xlink:href="class_little_weeb_library_1_1_handlers_1_1_anime_rule_handler.html#a503fb2839489e1df8b80c9a461c0fd2b" target="_top" xlink:title="LittleWeebLibrary.Handlers.\lAnimeRuleHandler.FilterAnimeRules">
<polygon fill="white" stroke="black" points="438,-351.5 438,-381.5 612,-381.5 612,-351.5 438,-351.5"/>
<text text-anchor="start" x="446" y="-369.5" font-family="Helvetica,sans-Serif" font-size="10.00">LittleWeebLibrary.Handlers.</text>
<text text-anchor="middle" x="525" y="-358.5" font-family="Helvetica,sans-Serif" font-size="10.00">AnimeRuleHandler.FilterAnimeRules</text>
</a>
</g>
</g>
<!-- Node66&#45;&gt;Node67 -->
<g id="edge2" class="edge"><title>Node66&#45;&gt;Node67</title>
<path fill="none" stroke="midnightblue" d="M323.162,-249.576C346.505,-271.351 392.564,-311.706 438,-336.5 445.665,-340.683 454.024,-344.457 462.422,-347.804"/>
<polygon fill="midnightblue" stroke="midnightblue" points="461.294,-351.119 471.885,-351.4 463.781,-344.576 461.294,-351.119"/>
</g>
<!-- Node66&#45;&gt;Node70 -->
<g id="edge12" class="edge"><title>Node66&#45;&gt;Node70</title>
<path fill="none" stroke="midnightblue" d="M328.346,-249.679C353.069,-266.656 396.211,-293.132 438,-303.5 599.97,-343.684 797.838,-285.089 887.18,-253.049"/>
<polygon fill="midnightblue" stroke="midnightblue" points="888.56,-256.271 896.762,-249.564 886.168,-249.692 888.56,-256.271"/>
</g>
<!-- Node72 -->
<g id="node8" class="node"><title>Node72</title>
<g id="a_node8"><a xlink:href="class_little_weeb_library_1_1_static_classes_1_1_utility_methods.html#a12336d9e64983ddabaad8950486fafb2" target="_top" xlink:title="LittleWeebLibrary.Static\lClasses.UtilityMethods.GetEpoch">
<polygon fill="white" stroke="black" points="443,-263.5 443,-293.5 607,-293.5 607,-263.5 443,-263.5"/>
<text text-anchor="start" x="451" y="-281.5" font-family="Helvetica,sans-Serif" font-size="10.00">LittleWeebLibrary.Static</text>
<text text-anchor="middle" x="525" y="-270.5" font-family="Helvetica,sans-Serif" font-size="10.00">Classes.UtilityMethods.GetEpoch</text>
</a>
</g>
</g>
<!-- Node66&#45;&gt;Node72 -->
<g id="edge8" class="edge"><title>Node66&#45;&gt;Node72</title>
<path fill="none" stroke="midnightblue" d="M381.401,-249.519C400.282,-253.356 420.718,-257.51 440.062,-261.441"/>
<polygon fill="midnightblue" stroke="midnightblue" points="439.567,-264.912 450.064,-263.474 440.962,-258.052 439.567,-264.912"/>
</g>
<!-- Node73 -->
<g id="node9" class="node"><title>Node73</title>
<g id="a_node9"><a xlink:href="class_little_weeb_library_1_1_handlers_1_1_nibl_handler.html#aa5fcae94d3322123b784078727a3db67" target="_top" xlink:title="LittleWeebLibrary.Handlers.\lNiblHandler.SearchNibl">
<polygon fill="white" stroke="black" points="659,-219.5 659,-249.5 796,-249.5 796,-219.5 659,-219.5"/>
<text text-anchor="start" x="667" y="-237.5" font-family="Helvetica,sans-Serif" font-size="10.00">LittleWeebLibrary.Handlers.</text>
<text text-anchor="middle" x="727.5" y="-226.5" font-family="Helvetica,sans-Serif" font-size="10.00">NiblHandler.SearchNibl</text>
</a>
</g>
</g>
<!-- Node66&#45;&gt;Node73 -->
<g id="edge9" class="edge"><title>Node66&#45;&gt;Node73</title>
<path fill="none" stroke="midnightblue" d="M402.054,-234.5C476.476,-234.5 578.927,-234.5 648.658,-234.5"/>
<polygon fill="midnightblue" stroke="midnightblue" points="648.702,-238 658.702,-234.5 648.701,-231 648.702,-238"/>
</g>
<!-- Node74 -->
<g id="node10" class="node"><title>Node74</title>
<g id="a_node10"><a xlink:href="class_little_weeb_library_1_1_models_1_1_json_kitsu_anime_info.html#a2c92ffb7d523c4f75497988156b64b7b" target="_top" xlink:title="LittleWeebLibrary.Models.\lJsonKitsuAnimeInfo.ToJObject">
<polygon fill="white" stroke="black" points="450.5,-175.5 450.5,-205.5 599.5,-205.5 599.5,-175.5 450.5,-175.5"/>
<text text-anchor="start" x="458.5" y="-193.5" font-family="Helvetica,sans-Serif" font-size="10.00">LittleWeebLibrary.Models.</text>
<text text-anchor="middle" x="525" y="-182.5" font-family="Helvetica,sans-Serif" font-size="10.00">JsonKitsuAnimeInfo.ToJObject</text>
</a>
</g>
</g>
<!-- Node66&#45;&gt;Node74 -->
<g id="edge11" class="edge"><title>Node66&#45;&gt;Node74</title>
<path fill="none" stroke="midnightblue" d="M381.401,-219.481C400.387,-215.622 420.944,-211.444 440.383,-207.494"/>
<polygon fill="midnightblue" stroke="midnightblue" points="441.329,-210.873 450.432,-205.452 439.935,-204.013 441.329,-210.873"/>
</g>
<!-- Node75 -->
<g id="node11" class="node"><title>Node75</title>
<g id="a_node11"><a xlink:href="class_little_weeb_library_1_1_handlers_1_1_data_base_handler.html#a9b2223ff71f688234f95d247ea3b5739" target="_top" xlink:title="LittleWeebLibrary.Handlers.\lDataBaseHandler.UpdateJObject">
<polygon fill="white" stroke="black" points="648,-154.5 648,-184.5 807,-184.5 807,-154.5 648,-154.5"/>
<text text-anchor="start" x="656" y="-172.5" font-family="Helvetica,sans-Serif" font-size="10.00">LittleWeebLibrary.Handlers.</text>
<text text-anchor="middle" x="727.5" y="-161.5" font-family="Helvetica,sans-Serif" font-size="10.00">DataBaseHandler.UpdateJObject</text>
</a>
</g>
</g>
<!-- Node66&#45;&gt;Node75 -->
<g id="edge13" class="edge"><title>Node66&#45;&gt;Node75</title>
<path fill="none" stroke="midnightblue" d="M328.346,-219.321C353.069,-202.344 396.211,-175.868 438,-165.5 503.471,-149.257 579.893,-151.21 637.629,-156.709"/>
<polygon fill="midnightblue" stroke="midnightblue" points="637.52,-160.216 647.82,-157.735 638.221,-153.251 637.52,-160.216"/>
</g>
<!-- Node68 -->
<g id="node4" class="node"><title>Node68</title>
<g id="a_node4"><a xlink:href="class_little_weeb_library_1_1_handlers_1_1_data_base_handler.html#a7f61583807f99b7838a33d2db0f7ca68" target="_top" xlink:title="LittleWeebLibrary.Handlers.\lDataBaseHandler.GetJObject">
<polygon fill="white" stroke="black" points="655.5,-389.5 655.5,-419.5 799.5,-419.5 799.5,-389.5 655.5,-389.5"/>
<text text-anchor="start" x="663.5" y="-407.5" font-family="Helvetica,sans-Serif" font-size="10.00">LittleWeebLibrary.Handlers.</text>
<text text-anchor="middle" x="727.5" y="-396.5" font-family="Helvetica,sans-Serif" font-size="10.00">DataBaseHandler.GetJObject</text>
</a>
</g>
</g>
<!-- Node67&#45;&gt;Node68 -->
<g id="edge3" class="edge"><title>Node67&#45;&gt;Node68</title>
<path fill="none" stroke="midnightblue" d="M605.243,-381.519C618.414,-384.015 632.092,-386.607 645.31,-389.112"/>
<polygon fill="midnightblue" stroke="midnightblue" points="644.836,-392.585 655.313,-391.008 646.14,-385.707 644.836,-392.585"/>
</g>
<!-- Node67&#45;&gt;Node70 -->
<g id="edge7" class="edge"><title>Node67&#45;&gt;Node70</title>
<path fill="none" stroke="midnightblue" d="M612.028,-369.619C669.273,-368.776 745.049,-361.936 807,-336.5 850.405,-318.679 891.072,-281.409 914.473,-257.196"/>
<polygon fill="midnightblue" stroke="midnightblue" points="917.11,-259.501 921.446,-249.834 912.028,-254.687 917.11,-259.501"/>
</g>
<!-- Node69 -->
<g id="node5" class="node"><title>Node69</title>
<g id="a_node5"><a xlink:href="class_little_weeb_library_1_1_static_classes_1_1_utility_methods.html#a7b5de7a3ecc749b655fc3ed2af55360b" target="_top" xlink:title="LittleWeebLibrary.Static\lClasses.UtilityMethods.ReadBinaryFile">
<polygon fill="white" stroke="black" points="843,-413.5 843,-443.5 1029,-443.5 1029,-413.5 843,-413.5"/>
<text text-anchor="start" x="851" y="-431.5" font-family="Helvetica,sans-Serif" font-size="10.00">LittleWeebLibrary.Static</text>
<text text-anchor="middle" x="936" y="-420.5" font-family="Helvetica,sans-Serif" font-size="10.00">Classes.UtilityMethods.ReadBinaryFile</text>
</a>
</g>
</g>
<!-- Node68&#45;&gt;Node69 -->
<g id="edge4" class="edge"><title>Node68&#45;&gt;Node69</title>
<path fill="none" stroke="midnightblue" d="M799.566,-412.759C810.195,-413.995 821.33,-415.289 832.454,-416.582"/>
<polygon fill="midnightblue" stroke="midnightblue" points="832.315,-420.089 842.652,-417.767 833.123,-413.136 832.315,-420.089"/>
</g>
<!-- Node68&#45;&gt;Node70 -->
<g id="edge5" class="edge"><title>Node68&#45;&gt;Node70</title>
<path fill="none" stroke="midnightblue" d="M778.406,-389.444C788.307,-385.369 798.316,-380.41 807,-374.5 854.577,-342.119 896.844,-288.71 918.881,-258.07"/>
<polygon fill="midnightblue" stroke="midnightblue" points="921.882,-259.889 924.801,-249.704 916.168,-255.845 921.882,-259.889"/>
</g>
<!-- Node71 -->
<g id="node7" class="node"><title>Node71</title>
<g id="a_node7"><a xlink:href="class_little_weeb_library_1_1_static_classes_1_1_utility_methods.html#a0a86ee01a3bf201bd9cc9b2552e54976" target="_top" xlink:title="LittleWeebLibrary.Static\lClasses.UtilityMethods.Unzip">
<polygon fill="white" stroke="black" points="863.5,-364.5 863.5,-394.5 1008.5,-394.5 1008.5,-364.5 863.5,-364.5"/>
<text text-anchor="start" x="871.5" y="-382.5" font-family="Helvetica,sans-Serif" font-size="10.00">LittleWeebLibrary.Static</text>
<text text-anchor="middle" x="936" y="-371.5" font-family="Helvetica,sans-Serif" font-size="10.00">Classes.UtilityMethods.Unzip</text>
</a>
</g>
</g>
<!-- Node68&#45;&gt;Node71 -->
<g id="edge6" class="edge"><title>Node68&#45;&gt;Node71</title>
<path fill="none" stroke="midnightblue" d="M799.566,-395.896C816.828,-393.807 835.423,-391.555 853.14,-389.41"/>
<polygon fill="midnightblue" stroke="midnightblue" points="853.946,-392.838 863.453,-388.162 853.105,-385.889 853.946,-392.838"/>
</g>
<!-- Node73&#45;&gt;Node70 -->
<g id="edge10" class="edge"><title>Node73&#45;&gt;Node70</title>
<path fill="none" stroke="midnightblue" d="M796.116,-234.5C814.462,-234.5 834.518,-234.5 853.541,-234.5"/>
<polygon fill="midnightblue" stroke="midnightblue" points="853.681,-238 863.681,-234.5 853.681,-231 853.681,-238"/>
</g>
<!-- Node75&#45;&gt;Node70 -->
<g id="edge14" class="edge"><title>Node75&#45;&gt;Node70</title>
<path fill="none" stroke="midnightblue" d="M776.394,-184.576C806.519,-194.058 845.57,-206.35 877.385,-216.365"/>
<polygon fill="midnightblue" stroke="midnightblue" points="876.419,-219.73 887.008,-219.394 878.52,-213.053 876.419,-219.73"/>
</g>
<!-- Node76&#45;&gt;Node70 -->
<g id="edge16" class="edge"><title>Node76&#45;&gt;Node70</title>
<path fill="none" stroke="midnightblue" d="M389.534,-51.3465C492.49,-38.766 671.936,-30.0764 807,-94.5 859.756,-119.664 900.884,-177.226 921.151,-210.169"/>
<polygon fill="midnightblue" stroke="midnightblue" points="918.391,-212.373 926.534,-219.151 924.395,-208.774 918.391,-212.373"/>
</g>
</g>
</svg>
