<?xml version="1.0" encoding="UTF-8" standalone="no"?>
<!DOCTYPE svg PUBLIC "-//W3C//DTD SVG 1.1//EN"
 "http://www.w3.org/Graphics/SVG/1.1/DTD/svg11.dtd">
<!-- Generated by graphviz version 2.38.0 (20140413.2041)
 -->
<!-- Title: LittleWeebLibrary.Services.DirectoryWebSocketService.DeleteDirectory Pages: 1 -->
<svg width="386pt" height="50pt"
 viewBox="0.00 0.00 386.00 50.00" xmlns="http://www.w3.org/2000/svg" xmlns:xlink="http://www.w3.org/1999/xlink">
<g id="graph0" class="graph" transform="scale(1 1) rotate(0) translate(4 46)">
<title>LittleWeebLibrary.Services.DirectoryWebSocketService.DeleteDirectory</title>
<polygon fill="white" stroke="none" points="-4,4 -4,-46 382,-46 382,4 -4,4"/>
<!-- Node18 -->
<g id="node1" class="node"><title>Node18</title>
<polygon fill="#bfbfbf" stroke="black" points="0,-0.5 0,-41.5 169,-41.5 169,-0.5 0,-0.5"/>
<text text-anchor="start" x="8" y="-29.5" font-family="Helvetica,sans-Serif" font-size="10.00">LittleWeebLibrary.Services.</text>
<text text-anchor="start" x="8" y="-18.5" font-family="Helvetica,sans-Serif" font-size="10.00">DirectoryWebSocketService.Delete</text>
<text text-anchor="middle" x="84.5" y="-7.5" font-family="Helvetica,sans-Serif" font-size="10.00">Directory</text>
</g>
<!-- Node19 -->
<g id="node2" class="node"><title>Node19</title>
<g id="a_node2"><a xlink:href="class_little_weeb_library_1_1_controllers_1_1_sub_controllers_1_1_directory_web_socket_controller.html#a2db42c05c620f5658a5b6e473581f84c" target="_top" xlink:title="LittleWeebLibrary.Controllers.\lSubControllers.DirectoryWebSocket\lController.OnWebSocketEvent">
<polygon fill="white" stroke="black" points="205,-0.5 205,-41.5 378,-41.5 378,-0.5 205,-0.5"/>
<text text-anchor="start" x="213" y="-29.5" font-family="Helvetica,sans-Serif" font-size="10.00">LittleWeebLibrary.Controllers.</text>
<text text-anchor="start" x="213" y="-18.5" font-family="Helvetica,sans-Serif" font-size="10.00">SubControllers.DirectoryWebSocket</text>
<text text-anchor="middle" x="291.5" y="-7.5" font-family="Helvetica,sans-Serif" font-size="10.00">Controller.OnWebSocketEvent</text>
</a>
</g>
</g>
<!-- Node18&#45;&gt;Node19 -->
<g id="edge1" class="edge"><title>Node18&#45;&gt;Node19</title>
<path fill="none" stroke="midnightblue" d="M179.424,-21C187.869,-21 196.392,-21 204.762,-21"/>
<polygon fill="midnightblue" stroke="midnightblue" points="179.177,-17.5001 169.177,-21 179.177,-24.5001 179.177,-17.5001"/>
</g>
</g>
</svg>
