<?xml version="1.0" encoding="UTF-8" standalone="no"?>
<!DOCTYPE svg PUBLIC "-//W3C//DTD SVG 1.1//EN"
 "http://www.w3.org/Graphics/SVG/1.1/DTD/svg11.dtd">
<!-- Generated by graphviz version 2.38.0 (20140413.2041)
 -->
<!-- Title: LittleWeebLibrary.Handlers.FileHistoryHandler.AddFileToFileHistory Pages: 1 -->
<svg width="576pt" height="279pt"
 viewBox="0.00 0.00 576.00 279.00" xmlns="http://www.w3.org/2000/svg" xmlns:xlink="http://www.w3.org/1999/xlink">
<g id="graph0" class="graph" transform="scale(1 1) rotate(0) translate(4 275)">
<title>LittleWeebLibrary.Handlers.FileHistoryHandler.AddFileToFileHistory</title>
<polygon fill="white" stroke="none" points="-4,4 -4,-275 572,-275 572,4 -4,4"/>
<!-- Node3 -->
<g id="node1" class="node"><title>Node3</title>
<polygon fill="#bfbfbf" stroke="black" points="0,-93 0,-134 158,-134 158,-93 0,-93"/>
<text text-anchor="start" x="8" y="-122" font-family="Helvetica,sans-Serif" font-size="10.00">LittleWeebLibrary.Handlers.</text>
<text text-anchor="start" x="8" y="-111" font-family="Helvetica,sans-Serif" font-size="10.00">FileHistoryHandler.AddFileToFile</text>
<text text-anchor="middle" x="79" y="-100" font-family="Helvetica,sans-Serif" font-size="10.00">History</text>
</g>
<!-- Node4 -->
<g id="node2" class="node"><title>Node4</title>
<g id="a_node2"><a xlink:href="class_little_weeb_library_1_1_handlers_1_1_data_base_handler.html#a7f61583807f99b7838a33d2db0f7ca68" target="_top" xlink:title="LittleWeebLibrary.Handlers.\lDataBaseHandler.GetJObject">
<polygon fill="white" stroke="black" points="198,-189.5 198,-219.5 342,-219.5 342,-189.5 198,-189.5"/>
<text text-anchor="start" x="206" y="-207.5" font-family="Helvetica,sans-Serif" font-size="10.00">LittleWeebLibrary.Handlers.</text>
<text text-anchor="middle" x="270" y="-196.5" font-family="Helvetica,sans-Serif" font-size="10.00">DataBaseHandler.GetJObject</text>
</a>
</g>
</g>
<!-- Node3&#45;&gt;Node4 -->
<g id="edge1" class="edge"><title>Node3&#45;&gt;Node4</title>
<path fill="none" stroke="midnightblue" d="M119.037,-134.045C140.927,-145.393 168.817,-159.565 194,-171.5 203.742,-176.117 214.288,-180.892 224.309,-185.327"/>
<polygon fill="midnightblue" stroke="midnightblue" points="223.149,-188.641 233.712,-189.459 225.965,-182.232 223.149,-188.641"/>
</g>
<!-- Node6 -->
<g id="node4" class="node"><title>Node6</title>
<g id="a_node4"><a xlink:href="class_little_weeb_library_1_1_handlers_1_1_debug_handler.html#afccb37dfd6b2114af72000c2f4fe4607" target="_top" xlink:title="LittleWeebLibrary.Handlers.\lDebugHandler.TraceMessage">
<polygon fill="white" stroke="black" points="403,-142.5 403,-172.5 547,-172.5 547,-142.5 403,-142.5"/>
<text text-anchor="start" x="411" y="-160.5" font-family="Helvetica,sans-Serif" font-size="10.00">LittleWeebLibrary.Handlers.</text>
<text text-anchor="middle" x="475" y="-149.5" font-family="Helvetica,sans-Serif" font-size="10.00">DebugHandler.TraceMessage</text>
</a>
</g>
</g>
<!-- Node3&#45;&gt;Node6 -->
<g id="edge11" class="edge"><title>Node3&#45;&gt;Node6</title>
<path fill="none" stroke="midnightblue" d="M158.218,-132.251C170.152,-134.647 182.366,-136.839 194,-138.5 260.522,-147.998 336.634,-152.776 392.697,-155.164"/>
<polygon fill="midnightblue" stroke="midnightblue" points="392.79,-158.671 402.925,-155.583 393.076,-151.677 392.79,-158.671"/>
</g>
<!-- Node8 -->
<g id="node6" class="node"><title>Node8</title>
<g id="a_node6"><a xlink:href="class_little_weeb_library_1_1_handlers_1_1_data_base_handler.html#a5e6a70ef81b049da46b6ae3a15b09cd3" target="_top" xlink:title="LittleWeebLibrary.Handlers.\lDataBaseHandler.StoreJObject">
<polygon fill="white" stroke="black" points="194,-98.5 194,-128.5 346,-128.5 346,-98.5 194,-98.5"/>
<text text-anchor="start" x="202" y="-116.5" font-family="Helvetica,sans-Serif" font-size="10.00">LittleWeebLibrary.Handlers.</text>
<text text-anchor="middle" x="270" y="-105.5" font-family="Helvetica,sans-Serif" font-size="10.00">DataBaseHandler.StoreJObject</text>
</a>
</g>
</g>
<!-- Node3&#45;&gt;Node8 -->
<g id="edge5" class="edge"><title>Node3&#45;&gt;Node8</title>
<path fill="none" stroke="midnightblue" d="M158.238,-113.5C166.613,-113.5 175.163,-113.5 183.616,-113.5"/>
<polygon fill="midnightblue" stroke="midnightblue" points="183.859,-117 193.859,-113.5 183.859,-110 183.859,-117"/>
</g>
<!-- Node11 -->
<g id="node9" class="node"><title>Node11</title>
<g id="a_node9"><a xlink:href="class_little_weeb_library_1_1_models_1_1_json_downloaded_list.html#a97de2493e2a60e3d98bd480c311a08b9" target="_top" xlink:title="LittleWeebLibrary.Models.\lJsonDownloadedList.ToJObject">
<polygon fill="white" stroke="black" points="194,-49.5 194,-79.5 346,-79.5 346,-49.5 194,-49.5"/>
<text text-anchor="start" x="202" y="-67.5" font-family="Helvetica,sans-Serif" font-size="10.00">LittleWeebLibrary.Models.</text>
<text text-anchor="middle" x="270" y="-56.5" font-family="Helvetica,sans-Serif" font-size="10.00">JsonDownloadedList.ToJObject</text>
</a>
</g>
</g>
<!-- Node3&#45;&gt;Node11 -->
<g id="edge9" class="edge"><title>Node3&#45;&gt;Node11</title>
<path fill="none" stroke="midnightblue" d="M158.238,-93.2161C172.457,-89.5297 187.182,-85.712 201.074,-82.1105"/>
<polygon fill="midnightblue" stroke="midnightblue" points="202.221,-85.4289 211.022,-79.5312 200.464,-78.6529 202.221,-85.4289"/>
</g>
<!-- Node12 -->
<g id="node10" class="node"><title>Node12</title>
<g id="a_node10"><a xlink:href="class_little_weeb_library_1_1_models_1_1_json_downloaded_info.html#a1ffa120527f102b7bf96a4c0a2d9e298" target="_top" xlink:title="LittleWeebLibrary.Models.\lJsonDownloadedInfo.ToString">
<polygon fill="white" stroke="black" points="198.5,-0.5 198.5,-30.5 341.5,-30.5 341.5,-0.5 198.5,-0.5"/>
<text text-anchor="start" x="206.5" y="-18.5" font-family="Helvetica,sans-Serif" font-size="10.00">LittleWeebLibrary.Models.</text>
<text text-anchor="middle" x="270" y="-7.5" font-family="Helvetica,sans-Serif" font-size="10.00">JsonDownloadedInfo.ToString</text>
</a>
</g>
</g>
<!-- Node3&#45;&gt;Node12 -->
<g id="edge10" class="edge"><title>Node3&#45;&gt;Node12</title>
<path fill="none" stroke="midnightblue" d="M107.356,-92.7595C129.722,-76.5538 162.658,-54.3597 194,-39.5 197.999,-37.6038 202.187,-35.8034 206.45,-34.1049"/>
<polygon fill="midnightblue" stroke="midnightblue" points="207.744,-37.3578 215.863,-30.5515 205.272,-30.8088 207.744,-37.3578"/>
</g>
<!-- Node5 -->
<g id="node3" class="node"><title>Node5</title>
<g id="a_node3"><a xlink:href="class_little_weeb_library_1_1_static_classes_1_1_utility_methods.html#a7b5de7a3ecc749b655fc3ed2af55360b" target="_top" xlink:title="LittleWeebLibrary.Static\lClasses.UtilityMethods.ReadBinaryFile">
<polygon fill="white" stroke="black" points="382,-240.5 382,-270.5 568,-270.5 568,-240.5 382,-240.5"/>
<text text-anchor="start" x="390" y="-258.5" font-family="Helvetica,sans-Serif" font-size="10.00">LittleWeebLibrary.Static</text>
<text text-anchor="middle" x="475" y="-247.5" font-family="Helvetica,sans-Serif" font-size="10.00">Classes.UtilityMethods.ReadBinaryFile</text>
</a>
</g>
</g>
<!-- Node4&#45;&gt;Node5 -->
<g id="edge2" class="edge"><title>Node4&#45;&gt;Node5</title>
<path fill="none" stroke="midnightblue" d="M330.809,-219.526C353.937,-225.336 380.56,-232.025 404.529,-238.047"/>
<polygon fill="midnightblue" stroke="midnightblue" points="403.717,-241.451 414.268,-240.494 405.422,-234.662 403.717,-241.451"/>
</g>
<!-- Node4&#45;&gt;Node6 -->
<g id="edge3" class="edge"><title>Node4&#45;&gt;Node6</title>
<path fill="none" stroke="midnightblue" d="M335.789,-189.5C356.023,-184.815 378.507,-179.609 399.361,-174.781"/>
<polygon fill="midnightblue" stroke="midnightblue" points="400.178,-178.185 409.131,-172.519 398.599,-171.365 400.178,-178.185"/>
</g>
<!-- Node7 -->
<g id="node5" class="node"><title>Node7</title>
<g id="a_node5"><a xlink:href="class_little_weeb_library_1_1_static_classes_1_1_utility_methods.html#a0a86ee01a3bf201bd9cc9b2552e54976" target="_top" xlink:title="LittleWeebLibrary.Static\lClasses.UtilityMethods.Unzip">
<polygon fill="white" stroke="black" points="402.5,-191.5 402.5,-221.5 547.5,-221.5 547.5,-191.5 402.5,-191.5"/>
<text text-anchor="start" x="410.5" y="-209.5" font-family="Helvetica,sans-Serif" font-size="10.00">LittleWeebLibrary.Static</text>
<text text-anchor="middle" x="475" y="-198.5" font-family="Helvetica,sans-Serif" font-size="10.00">Classes.UtilityMethods.Unzip</text>
</a>
</g>
</g>
<!-- Node4&#45;&gt;Node7 -->
<g id="edge4" class="edge"><title>Node4&#45;&gt;Node7</title>
<path fill="none" stroke="midnightblue" d="M342.285,-205.202C358.368,-205.361 375.565,-205.53 392.047,-205.693"/>
<polygon fill="midnightblue" stroke="midnightblue" points="392.167,-209.194 402.201,-205.793 392.236,-202.194 392.167,-209.194"/>
</g>
<!-- Node8&#45;&gt;Node6 -->
<g id="edge6" class="edge"><title>Node8&#45;&gt;Node6</title>
<path fill="none" stroke="midnightblue" d="M340.293,-128.519C357.834,-132.321 376.807,-136.434 394.797,-140.333"/>
<polygon fill="midnightblue" stroke="midnightblue" points="394.16,-143.776 404.675,-142.474 395.643,-136.935 394.16,-143.776"/>
</g>
<!-- Node9 -->
<g id="node7" class="node"><title>Node9</title>
<g id="a_node7"><a xlink:href="class_little_weeb_library_1_1_static_classes_1_1_utility_methods.html#a6542a3a6ea0aed6b4d78bb44a4a7d9d7" target="_top" xlink:title="LittleWeebLibrary.Static\lClasses.UtilityMethods.Write\lBinaryFile">
<polygon fill="white" stroke="black" points="403.5,-82 403.5,-123 546.5,-123 546.5,-82 403.5,-82"/>
<text text-anchor="start" x="411.5" y="-111" font-family="Helvetica,sans-Serif" font-size="10.00">LittleWeebLibrary.Static</text>
<text text-anchor="start" x="411.5" y="-100" font-family="Helvetica,sans-Serif" font-size="10.00">Classes.UtilityMethods.Write</text>
<text text-anchor="middle" x="475" y="-89" font-family="Helvetica,sans-Serif" font-size="10.00">BinaryFile</text>
</a>
</g>
</g>
<!-- Node8&#45;&gt;Node9 -->
<g id="edge7" class="edge"><title>Node8&#45;&gt;Node9</title>
<path fill="none" stroke="midnightblue" d="M346.013,-109.435C361.393,-108.602 377.645,-107.721 393.217,-106.877"/>
<polygon fill="midnightblue" stroke="midnightblue" points="393.541,-110.365 403.337,-106.329 393.162,-103.375 393.541,-110.365"/>
</g>
<!-- Node10 -->
<g id="node8" class="node"><title>Node10</title>
<g id="a_node8"><a xlink:href="class_little_weeb_library_1_1_static_classes_1_1_utility_methods.html#a16933213071d531063b29979e7b55fe8" target="_top" xlink:title="LittleWeebLibrary.Static\lClasses.UtilityMethods.Zip">
<polygon fill="white" stroke="black" points="408.5,-32.5 408.5,-62.5 541.5,-62.5 541.5,-32.5 408.5,-32.5"/>
<text text-anchor="start" x="416.5" y="-50.5" font-family="Helvetica,sans-Serif" font-size="10.00">LittleWeebLibrary.Static</text>
<text text-anchor="middle" x="475" y="-39.5" font-family="Helvetica,sans-Serif" font-size="10.00">Classes.UtilityMethods.Zip</text>
</a>
</g>
</g>
<!-- Node8&#45;&gt;Node10 -->
<g id="edge8" class="edge"><title>Node8&#45;&gt;Node10</title>
<path fill="none" stroke="midnightblue" d="M321.348,-98.396C329.649,-95.6184 338.114,-92.6081 346,-89.5 362.462,-83.0118 365.398,-78.6214 382,-72.5 388.726,-70.0199 395.81,-67.6634 402.938,-65.4597"/>
<polygon fill="midnightblue" stroke="midnightblue" points="404.078,-68.7718 412.655,-62.552 402.071,-62.0656 404.078,-68.7718"/>
</g>
</g>
</svg>
