<?xml version="1.0" encoding="UTF-8" standalone="no"?>
<!DOCTYPE svg PUBLIC "-//W3C//DTD SVG 1.1//EN"
 "http://www.w3.org/Graphics/SVG/1.1/DTD/svg11.dtd">
<!-- Generated by graphviz version 2.38.0 (20140413.2041)
 -->
<!-- Title: LittleWeebLibrary.Handlers.AnimeProfileHandler Pages: 1 -->
<!--zoomable 435 -->
<svg id="main" version="1.1" xmlns="http://www.w3.org/2000/svg" xmlns:xlink="http://www.w3.org/1999/xlink" xml:space="preserve" onload="init(evt)">
<style type="text/css"><![CDATA[
.edge:hover path { stroke: red; }
.edge:hover polygon { stroke: red; fill: red; }
]]></style>
<script type="text/javascript"><![CDATA[
var edges = document.getElementsByTagName('g');
if (edges && edges.length) {
  for (var i=0;i<edges.length;i++) {
    if (edges[i].id.substr(0,4)=='edge') {
      edges[i].setAttribute('class','edge');
    }
  }
}
]]></script>
        <defs>
                <circle id="rim" cx="0" cy="0" r="7"/>
                <circle id="rim2" cx="0" cy="0" r="3.5"/>
                <g id="zoomPlus">
                        <use xlink:href="#rim" fill="#404040">
                                <set attributeName="fill" to="#808080" begin="zoomplus.mouseover" end="zoomplus.mouseout"/>
                        </use>
                        <path d="M-4,0h8M0,-4v8" fill="none" stroke="white" stroke-width="1.5" pointer-events="none"/>
                </g>
                <g id="zoomMin">
                        <use xlink:href="#rim" fill="#404040">
                                <set attributeName="fill" to="#808080" begin="zoomminus.mouseover" end="zoomminus.mouseout"/>
                        </use>
                        <path d="M-4,0h8" fill="none" stroke="white" stroke-width="1.5" pointer-events="none"/>
                </g>
                <g id="dirArrow">
                        <path fill="none" stroke="white" stroke-width="1.5" d="M0,-3.0v7 M-2.5,-0.5L0,-3.0L2.5,-0.5"/>
                </g>
               <g id="resetDef">
                       <use xlink:href="#rim2" fill="#404040">
                               <set attributeName="fill" to="#808080" begin="reset.mouseover" end="reset.mouseout"/>
                       </use>
               </g>
        </defs>

<script type="text/javascript">
var viewWidth = 900;
var viewHeight = 435;
var sectionId = 'dynsection-1';
</script>
<script xlink:href="svgpan.js"/>
<svg id="graph" class="graph">
<g id="viewport">
<title>LittleWeebLibrary.Handlers.AnimeProfileHandler</title>
<polygon fill="white" stroke="none" points="-4,4 -4,-431 895.5,-431 895.5,4 -4,4"/>
<!-- Node2 -->
<g id="node1" class="node"><title>Node2</title>
<polygon fill="#bfbfbf" stroke="black" points="344.5,-0.5 344.5,-200.5 525.5,-200.5 525.5,-0.5 344.5,-0.5"/>
<text text-anchor="start" x="352.5" y="-188.5" font-family="Helvetica,sans-Serif" font-size="10.00">LittleWeebLibrary.Handlers.</text>
<text text-anchor="middle" x="435" y="-177.5" font-family="Helvetica,sans-Serif" font-size="10.00">AnimeProfileHandler</text>
<polyline fill="none" stroke="black" points="344.5,-170.5 525.5,-170.5 "/>
<text text-anchor="start" x="352.5" y="-158.5" font-family="Helvetica,sans-Serif" font-size="10.00">&#45; WeebFileNameParser</text>
<polyline fill="none" stroke="black" points="344.5,-151.5 525.5,-151.5 "/>
<text text-anchor="start" x="352.5" y="-139.5" font-family="Helvetica,sans-Serif" font-size="10.00">+ AnimeProfileHandler()</text>
<text text-anchor="start" x="352.5" y="-128.5" font-family="Helvetica,sans-Serif" font-size="10.00">+ GetAnimeEpisodes()</text>
<text text-anchor="start" x="352.5" y="-117.5" font-family="Helvetica,sans-Serif" font-size="10.00">+ GetAnimeProfile()</text>
<text text-anchor="start" x="352.5" y="-106.5" font-family="Helvetica,sans-Serif" font-size="10.00">+ GetCurrentlyAiring()</text>
<text text-anchor="start" x="352.5" y="-95.5" font-family="Helvetica,sans-Serif" font-size="10.00">&#45; AnimeLatestEpisode()</text>
<text text-anchor="start" x="352.5" y="-84.5" font-family="Helvetica,sans-Serif" font-size="10.00">&#45; BotListPerResults()</text>
<text text-anchor="start" x="352.5" y="-73.5" font-family="Helvetica,sans-Serif" font-size="10.00">&#45; CombineAnimeEpisodesParsed</text>
<text text-anchor="start" x="352.5" y="-62.5" font-family="Helvetica,sans-Serif" font-size="10.00">NiblResults()</text>
<text text-anchor="start" x="352.5" y="-51.5" font-family="Helvetica,sans-Serif" font-size="10.00">&#45; CurrentlyAiringAsync()</text>
<text text-anchor="start" x="352.5" y="-40.5" font-family="Helvetica,sans-Serif" font-size="10.00">&#45; GetPreviousSeasonsTotalEpisodes()</text>
<text text-anchor="start" x="352.5" y="-29.5" font-family="Helvetica,sans-Serif" font-size="10.00">&#45; GetSeasonFromAnime()</text>
<text text-anchor="start" x="352.5" y="-18.5" font-family="Helvetica,sans-Serif" font-size="10.00">&#45; ParseNiblSearchResults()</text>
<text text-anchor="start" x="352.5" y="-7.5" font-family="Helvetica,sans-Serif" font-size="10.00">&#45; ParseTitles()</text>
</g>
<!-- Node3 -->
<g id="node2" class="node"><title>Node3</title>
<g id="a_node2"><a xlink:href="interface_little_weeb_library_1_1_handlers_1_1_i_anime_profile_handler.html" target="_top" xlink:title="{IAnimeProfileHandler\n||+ GetAnimeEpisodes()\l+ GetAnimeProfile()\l+ GetCurrentlyAiring()\l}">
<polygon fill="white" stroke="black" points="0,-298 0,-377 116,-377 116,-298 0,-298"/>
<text text-anchor="middle" x="58" y="-365" font-family="Helvetica,sans-Serif" font-size="10.00">IAnimeProfileHandler</text>
<polyline fill="none" stroke="black" points="0,-358 116,-358 "/>
<text text-anchor="middle" x="58" y="-346" font-family="Helvetica,sans-Serif" font-size="10.00"> </text>
<polyline fill="none" stroke="black" points="0,-339 116,-339 "/>
<text text-anchor="start" x="8" y="-327" font-family="Helvetica,sans-Serif" font-size="10.00">+ GetAnimeEpisodes()</text>
<text text-anchor="start" x="8" y="-316" font-family="Helvetica,sans-Serif" font-size="10.00">+ GetAnimeProfile()</text>
<text text-anchor="start" x="8" y="-305" font-family="Helvetica,sans-Serif" font-size="10.00">+ GetCurrentlyAiring()</text>
</a>
</g>
</g>
<!-- Node3&#45;&gt;Node2 -->
<g id="edge1" class="edge"><title>Node3&#45;&gt;Node2</title>
<path fill="none" stroke="midnightblue" d="M87.2067,-289.348C97.8183,-274.8 110.745,-259.578 125,-248 190.613,-194.709 278.817,-155.463 344.362,-131.077"/>
<polygon fill="none" stroke="midnightblue" points="84.1448,-287.616 81.2337,-297.804 89.8621,-291.655 84.1448,-287.616"/>
</g>
<!-- Node4 -->
<g id="node3" class="node"><title>Node4</title>
<g id="a_node3"><a xlink:href="interface_little_weeb_library_1_1_handlers_1_1_i_debug_handler.html" target="_top" xlink:title="{LittleWeebLibrary.Handlers.\lIDebugHandler\n||+ SetSettings()\l+ StopDebugger()\l+ TraceMessage()\l}">
<polygon fill="white" stroke="black" points="134.5,-292.5 134.5,-382.5 271.5,-382.5 271.5,-292.5 134.5,-292.5"/>
<text text-anchor="start" x="142.5" y="-370.5" font-family="Helvetica,sans-Serif" font-size="10.00">LittleWeebLibrary.Handlers.</text>
<text text-anchor="middle" x="203" y="-359.5" font-family="Helvetica,sans-Serif" font-size="10.00">IDebugHandler</text>
<polyline fill="none" stroke="black" points="134.5,-352.5 271.5,-352.5 "/>
<text text-anchor="middle" x="203" y="-340.5" font-family="Helvetica,sans-Serif" font-size="10.00"> </text>
<polyline fill="none" stroke="black" points="134.5,-333.5 271.5,-333.5 "/>
<text text-anchor="start" x="142.5" y="-321.5" font-family="Helvetica,sans-Serif" font-size="10.00">+ SetSettings()</text>
<text text-anchor="start" x="142.5" y="-310.5" font-family="Helvetica,sans-Serif" font-size="10.00">+ StopDebugger()</text>
<text text-anchor="start" x="142.5" y="-299.5" font-family="Helvetica,sans-Serif" font-size="10.00">+ TraceMessage()</text>
</a>
</g>
</g>
<!-- Node4&#45;&gt;Node2 -->
<g id="edge2" class="edge"><title>Node4&#45;&gt;Node2</title>
<path fill="none" stroke="#404040" d="M240.163,-292.081C252.546,-277.746 266.604,-261.96 280,-248 297.485,-229.78 316.654,-210.87 335.369,-192.932"/>
<polygon fill="none" stroke="#404040" points="335.536,-192.773 337.116,-185.737 344.218,-184.489 342.638,-191.525 335.536,-192.773"/>
<text text-anchor="middle" x="338.5" y="-222" font-family="Helvetica,sans-Serif" font-size="10.00"> &#45;DebugHandler</text>
</g>
<!-- Node5 -->
<g id="node4" class="node"><title>Node5</title>
<g id="a_node4"><a xlink:href="interface_little_weeb_library_1_1_handlers_1_1_i_nibl_handler.html" target="_top" xlink:title="{LittleWeebLibrary.Handlers.\lINiblHandler\n||+ GetBotList()\l+ GetLatestEpisode()\l+ GetLatestFiles()\l+ SearchNibl()\l+ SearchNibl()\l}">
<polygon fill="white" stroke="black" points="289.5,-281.5 289.5,-393.5 426.5,-393.5 426.5,-281.5 289.5,-281.5"/>
<text text-anchor="start" x="297.5" y="-381.5" font-family="Helvetica,sans-Serif" font-size="10.00">LittleWeebLibrary.Handlers.</text>
<text text-anchor="middle" x="358" y="-370.5" font-family="Helvetica,sans-Serif" font-size="10.00">INiblHandler</text>
<polyline fill="none" stroke="black" points="289.5,-363.5 426.5,-363.5 "/>
<text text-anchor="middle" x="358" y="-351.5" font-family="Helvetica,sans-Serif" font-size="10.00"> </text>
<polyline fill="none" stroke="black" points="289.5,-344.5 426.5,-344.5 "/>
<text text-anchor="start" x="297.5" y="-332.5" font-family="Helvetica,sans-Serif" font-size="10.00">+ GetBotList()</text>
<text text-anchor="start" x="297.5" y="-321.5" font-family="Helvetica,sans-Serif" font-size="10.00">+ GetLatestEpisode()</text>
<text text-anchor="start" x="297.5" y="-310.5" font-family="Helvetica,sans-Serif" font-size="10.00">+ GetLatestFiles()</text>
<text text-anchor="start" x="297.5" y="-299.5" font-family="Helvetica,sans-Serif" font-size="10.00">+ SearchNibl()</text>
<text text-anchor="start" x="297.5" y="-288.5" font-family="Helvetica,sans-Serif" font-size="10.00">+ SearchNibl()</text>
</a>
</g>
</g>
<!-- Node5&#45;&gt;Node2 -->
<g id="edge3" class="edge"><title>Node5&#45;&gt;Node2</title>
<path fill="none" stroke="#404040" d="M376.053,-281.403C382.814,-260.767 390.761,-236.515 398.592,-212.615"/>
<polygon fill="none" stroke="#404040" points="398.685,-212.332 396.752,-205.385 402.421,-200.928 404.354,-207.876 398.685,-212.332"/>
<text text-anchor="middle" x="425" y="-222" font-family="Helvetica,sans-Serif" font-size="10.00"> &#45;NiblHandler</text>
</g>
<!-- Node6 -->
<g id="node5" class="node"><title>Node6</title>
<g id="a_node5"><a xlink:href="interface_little_weeb_library_1_1_handlers_1_1_i_kitsu_handler.html" target="_top" xlink:title="{LittleWeebLibrary.Handlers.\lIKitsuHandler\n||+ GetAllCategories()\l+ GetAllGenres()\l+ GetAnime()\l+ GetCategories()\l+ GetCurrentlyAiring()\l+ GetEpisode()\l+ GetEpisodes()\l+ GetFullAnime()\l+ GetGenres()\l+ GetRelations()\l+ SearchAnime()\l}">
<polygon fill="white" stroke="black" points="444.5,-248.5 444.5,-426.5 581.5,-426.5 581.5,-248.5 444.5,-248.5"/>
<text text-anchor="start" x="452.5" y="-414.5" font-family="Helvetica,sans-Serif" font-size="10.00">LittleWeebLibrary.Handlers.</text>
<text text-anchor="middle" x="513" y="-403.5" font-family="Helvetica,sans-Serif" font-size="10.00">IKitsuHandler</text>
<polyline fill="none" stroke="black" points="444.5,-396.5 581.5,-396.5 "/>
<text text-anchor="middle" x="513" y="-384.5" font-family="Helvetica,sans-Serif" font-size="10.00"> </text>
<polyline fill="none" stroke="black" points="444.5,-377.5 581.5,-377.5 "/>
<text text-anchor="start" x="452.5" y="-365.5" font-family="Helvetica,sans-Serif" font-size="10.00">+ GetAllCategories()</text>
<text text-anchor="start" x="452.5" y="-354.5" font-family="Helvetica,sans-Serif" font-size="10.00">+ GetAllGenres()</text>
<text text-anchor="start" x="452.5" y="-343.5" font-family="Helvetica,sans-Serif" font-size="10.00">+ GetAnime()</text>
<text text-anchor="start" x="452.5" y="-332.5" font-family="Helvetica,sans-Serif" font-size="10.00">+ GetCategories()</text>
<text text-anchor="start" x="452.5" y="-321.5" font-family="Helvetica,sans-Serif" font-size="10.00">+ GetCurrentlyAiring()</text>
<text text-anchor="start" x="452.5" y="-310.5" font-family="Helvetica,sans-Serif" font-size="10.00">+ GetEpisode()</text>
<text text-anchor="start" x="452.5" y="-299.5" font-family="Helvetica,sans-Serif" font-size="10.00">+ GetEpisodes()</text>
<text text-anchor="start" x="452.5" y="-288.5" font-family="Helvetica,sans-Serif" font-size="10.00">+ GetFullAnime()</text>
<text text-anchor="start" x="452.5" y="-277.5" font-family="Helvetica,sans-Serif" font-size="10.00">+ GetGenres()</text>
<text text-anchor="start" x="452.5" y="-266.5" font-family="Helvetica,sans-Serif" font-size="10.00">+ GetRelations()</text>
<text text-anchor="start" x="452.5" y="-255.5" font-family="Helvetica,sans-Serif" font-size="10.00">+ SearchAnime()</text>
</a>
</g>
</g>
<!-- Node6&#45;&gt;Node2 -->
<g id="edge4" class="edge"><title>Node6&#45;&gt;Node2</title>
<path fill="none" stroke="#404040" d="M483.734,-248.326C479.835,-236.581 475.799,-224.419 471.793,-212.35"/>
<polygon fill="none" stroke="#404040" points="471.748,-212.214 466.061,-207.779 467.967,-200.825 473.654,-205.259 471.748,-212.214"/>
<text text-anchor="middle" x="508" y="-222" font-family="Helvetica,sans-Serif" font-size="10.00"> &#45;KitsuHandler</text>
</g>
<!-- Node7 -->
<g id="node6" class="node"><title>Node7</title>
<g id="a_node6"><a xlink:href="interface_little_weeb_library_1_1_handlers_1_1_i_data_base_handler.html" target="_top" xlink:title="{LittleWeebLibrary.Handlers.\lIDataBaseHandler\n||+ GetCollection()\l+ GetJObject()\l+ GetJObject()\l+ RemoveJObject()\l+ RemoveJObject()\l+ StoreJObject()\l+ UpdateJObject()\l+ UpdateJObject()\l}">
<polygon fill="white" stroke="black" points="599.5,-265 599.5,-410 736.5,-410 736.5,-265 599.5,-265"/>
<text text-anchor="start" x="607.5" y="-398" font-family="Helvetica,sans-Serif" font-size="10.00">LittleWeebLibrary.Handlers.</text>
<text text-anchor="middle" x="668" y="-387" font-family="Helvetica,sans-Serif" font-size="10.00">IDataBaseHandler</text>
<polyline fill="none" stroke="black" points="599.5,-380 736.5,-380 "/>
<text text-anchor="middle" x="668" y="-368" font-family="Helvetica,sans-Serif" font-size="10.00"> </text>
<polyline fill="none" stroke="black" points="599.5,-361 736.5,-361 "/>
<text text-anchor="start" x="607.5" y="-349" font-family="Helvetica,sans-Serif" font-size="10.00">+ GetCollection()</text>
<text text-anchor="start" x="607.5" y="-338" font-family="Helvetica,sans-Serif" font-size="10.00">+ GetJObject()</text>
<text text-anchor="start" x="607.5" y="-327" font-family="Helvetica,sans-Serif" font-size="10.00">+ GetJObject()</text>
<text text-anchor="start" x="607.5" y="-316" font-family="Helvetica,sans-Serif" font-size="10.00">+ RemoveJObject()</text>
<text text-anchor="start" x="607.5" y="-305" font-family="Helvetica,sans-Serif" font-size="10.00">+ RemoveJObject()</text>
<text text-anchor="start" x="607.5" y="-294" font-family="Helvetica,sans-Serif" font-size="10.00">+ StoreJObject()</text>
<text text-anchor="start" x="607.5" y="-283" font-family="Helvetica,sans-Serif" font-size="10.00">+ UpdateJObject()</text>
<text text-anchor="start" x="607.5" y="-272" font-family="Helvetica,sans-Serif" font-size="10.00">+ UpdateJObject()</text>
</a>
</g>
</g>
<!-- Node7&#45;&gt;Node2 -->
<g id="edge5" class="edge"><title>Node7&#45;&gt;Node2</title>
<path fill="none" stroke="#404040" d="M605.975,-264.979C600.636,-259.174 595.264,-253.451 590,-248 572.457,-229.836 553.261,-210.953 534.537,-193.022"/>
<polygon fill="none" stroke="#404040" points="534.37,-192.863 527.267,-191.617 525.685,-184.582 532.788,-185.827 534.37,-192.863"/>
<text text-anchor="middle" x="611" y="-222" font-family="Helvetica,sans-Serif" font-size="10.00"> &#45;DataBaseHandler</text>
</g>
<!-- Node8 -->
<g id="node7" class="node"><title>Node8</title>
<g id="a_node7"><a xlink:href="interface_little_weeb_library_1_1_handlers_1_1_i_anime_rule_handler.html" target="_top" xlink:title="{LittleWeebLibrary.Handlers.\lIAnimeRuleHandler\n||+ AddRules()\l+ FilterAnimeRules()\l}">
<polygon fill="white" stroke="black" points="754.5,-298 754.5,-377 891.5,-377 891.5,-298 754.5,-298"/>
<text text-anchor="start" x="762.5" y="-365" font-family="Helvetica,sans-Serif" font-size="10.00">LittleWeebLibrary.Handlers.</text>
<text text-anchor="middle" x="823" y="-354" font-family="Helvetica,sans-Serif" font-size="10.00">IAnimeRuleHandler</text>
<polyline fill="none" stroke="black" points="754.5,-347 891.5,-347 "/>
<text text-anchor="middle" x="823" y="-335" font-family="Helvetica,sans-Serif" font-size="10.00"> </text>
<polyline fill="none" stroke="black" points="754.5,-328 891.5,-328 "/>
<text text-anchor="start" x="762.5" y="-316" font-family="Helvetica,sans-Serif" font-size="10.00">+ AddRules()</text>
<text text-anchor="start" x="762.5" y="-305" font-family="Helvetica,sans-Serif" font-size="10.00">+ FilterAnimeRules()</text>
</a>
</g>
</g>
<!-- Node8&#45;&gt;Node2 -->
<g id="edge6" class="edge"><title>Node8&#45;&gt;Node2</title>
<path fill="none" stroke="#404040" d="M794.849,-297.974C781.167,-281.12 763.658,-262.035 745,-248 681.613,-200.318 600.225,-162.583 536.749,-137.358"/>
<polygon fill="none" stroke="#404040" points="536.688,-137.334 529.641,-138.866 525.517,-132.95 532.564,-131.419 536.688,-137.334"/>
<text text-anchor="middle" x="758.5" y="-222" font-family="Helvetica,sans-Serif" font-size="10.00"> &#45;AnimeRuleHandler</text>
</g>
</g>
</svg>
        <g id="navigator" transform="translate(0 0)" fill="#404254">
                <rect fill="#f2f5e9" fill-opacity="0.5" stroke="#606060" stroke-width=".5" x="0" y="0" width="60" height="60"/>
                <use id="zoomplus" xlink:href="#zoomPlus" x="17" y="9" onmousedown="handleZoom(evt,'in')"/>
                <use id="zoomminus" xlink:href="#zoomMin" x="42" y="9" onmousedown="handleZoom(evt,'out')"/>
                <use id="reset" xlink:href="#resetDef" x="30" y="36" onmousedown="handleReset()"/>
                <g id="arrowUp" xlink:href="#dirArrow" transform="translate(30 24)" onmousedown="handlePan(0,-1)">
                  <use xlink:href="#rim" fill="#404040">
                        <set attributeName="fill" to="#808080" begin="arrowUp.mouseover" end="arrowUp.mouseout"/>
                  </use>
                  <path fill="none" stroke="white" stroke-width="1.5" d="M0,-3.0v7 M-2.5,-0.5L0,-3.0L2.5,-0.5"/>
                </g>
                <g id="arrowRight" xlink:href="#dirArrow" transform="rotate(90) translate(36 -43)" onmousedown="handlePan(1,0)">
                  <use xlink:href="#rim" fill="#404040">
                        <set attributeName="fill" to="#808080" begin="arrowRight.mouseover" end="arrowRight.mouseout"/>
                  </use>
                  <path fill="none" stroke="white" stroke-width="1.5" d="M0,-3.0v7 M-2.5,-0.5L0,-3.0L2.5,-0.5"/>
                </g>
                <g id="arrowDown" xlink:href="#dirArrow" transform="rotate(180) translate(-30 -48)" onmousedown="handlePan(0,1)">
                  <use xlink:href="#rim" fill="#404040">
                        <set attributeName="fill" to="#808080" begin="arrowDown.mouseover" end="arrowDown.mouseout"/>
                  </use>
                  <path fill="none" stroke="white" stroke-width="1.5" d="M0,-3.0v7 M-2.5,-0.5L0,-3.0L2.5,-0.5"/>
                </g>
                <g id="arrowLeft" xlink:href="#dirArrow" transform="rotate(270) translate(-36 17)" onmousedown="handlePan(-1,0)">
                  <use xlink:href="#rim" fill="#404040">
                        <set attributeName="fill" to="#808080" begin="arrowLeft.mouseover" end="arrowLeft.mouseout"/>
                  </use>
                  <path fill="none" stroke="white" stroke-width="1.5" d="M0,-3.0v7 M-2.5,-0.5L0,-3.0L2.5,-0.5"/>
                </g>
        </g>
        <svg viewBox="0 0 15 15" width="100%" height="30px" preserveAspectRatio="xMaxYMin meet">
         <g id="arrow_out" transform="scale(0.3 0.3)">
          <a xlink:href="class_little_weeb_library_1_1_handlers_1_1_anime_profile_handler__coll__graph_org.svg" target="_base">
           <rect id="button" ry="5" rx="5" y="6" x="6" height="38" width="38"
                fill="#f2f5e9" fill-opacity="0.5" stroke="#606060" stroke-width="1.0"/>
           <path id="arrow"
             d="M 11.500037,31.436501 C 11.940474,20.09759 22.043105,11.32322 32.158766,21.979434 L 37.068811,17.246167 C 37.068811,17.246167 37.088388,32 37.088388,32 L 22.160133,31.978069 C 22.160133,31.978069 26.997745,27.140456 26.997745,27.140456 C 18.528582,18.264221 13.291696,25.230495 11.500037,31.436501 z"
             style="fill:#404040;"/>
          </a>
         </g>
        </svg>
</svg>
