<?xml version="1.0" encoding="UTF-8" standalone="no"?>
<!DOCTYPE svg PUBLIC "-//W3C//DTD SVG 1.1//EN"
 "http://www.w3.org/Graphics/SVG/1.1/DTD/svg11.dtd">
<!-- Generated by graphviz version 2.38.0 (20140413.2041)
 -->
<!-- Title: LittleWeebLibrary.Models.JsonIrcInfo.ToJson Pages: 1 -->
<svg width="605pt" height="269pt"
 viewBox="0.00 0.00 605.00 268.50" xmlns="http://www.w3.org/2000/svg" xmlns:xlink="http://www.w3.org/1999/xlink">
<g id="graph0" class="graph" transform="scale(1 1) rotate(0) translate(4 264.5)">
<title>LittleWeebLibrary.Models.JsonIrcInfo.ToJson</title>
<polygon fill="white" stroke="none" points="-4,4 -4,-264.5 601,-264.5 601,4 -4,4"/>
<!-- Node1 -->
<g id="node1" class="node"><title>Node1</title>
<polygon fill="#bfbfbf" stroke="black" points="0,-126 0,-156 130,-156 130,-126 0,-126"/>
<text text-anchor="start" x="8" y="-144" font-family="Helvetica,sans-Serif" font-size="10.00">LittleWeebLibrary.Models.</text>
<text text-anchor="middle" x="65" y="-133" font-family="Helvetica,sans-Serif" font-size="10.00">JsonIrcInfo.ToJson</text>
</g>
<!-- Node2 -->
<g id="node2" class="node"><title>Node2</title>
<g id="a_node2"><a xlink:href="class_little_weeb_library_1_1_services_1_1_irc_web_socket_service.html#ad5592055f57beed1a26d76ee1a518af5" target="_top" xlink:title="LittleWeebLibrary.Services.\lIrcWebSocketService.Connect">
<polygon fill="white" stroke="black" points="184,-230 184,-260 333,-260 333,-230 184,-230"/>
<text text-anchor="start" x="192" y="-248" font-family="Helvetica,sans-Serif" font-size="10.00">LittleWeebLibrary.Services.</text>
<text text-anchor="middle" x="258.5" y="-237" font-family="Helvetica,sans-Serif" font-size="10.00">IrcWebSocketService.Connect</text>
</a>
</g>
</g>
<!-- Node1&#45;&gt;Node2 -->
<g id="edge1" class="edge"><title>Node1&#45;&gt;Node2</title>
<path fill="none" stroke="midnightblue" d="M88.1334,-163.299C107.218,-181.329 136.317,-206.085 166,-221 172.75,-224.392 180.029,-227.34 187.428,-229.893"/>
<polygon fill="midnightblue" stroke="midnightblue" points="90.4701,-160.691 80.8398,-156.274 85.6138,-165.732 90.4701,-160.691"/>
</g>
<!-- Node4 -->
<g id="node4" class="node"><title>Node4</title>
<g id="a_node4"><a xlink:href="class_little_weeb_library_1_1_services_1_1_irc_web_socket_service.html#a637703e827e16a5d99055119bfe62972" target="_top" xlink:title="LittleWeebLibrary.Services.\lIrcWebSocketService.Disconnect">
<polygon fill="white" stroke="black" points="178,-181 178,-211 339,-211 339,-181 178,-181"/>
<text text-anchor="start" x="186" y="-199" font-family="Helvetica,sans-Serif" font-size="10.00">LittleWeebLibrary.Services.</text>
<text text-anchor="middle" x="258.5" y="-188" font-family="Helvetica,sans-Serif" font-size="10.00">IrcWebSocketService.Disconnect</text>
</a>
</g>
</g>
<!-- Node1&#45;&gt;Node4 -->
<g id="edge3" class="edge"><title>Node1&#45;&gt;Node4</title>
<path fill="none" stroke="midnightblue" d="M124.916,-158.939C138.398,-162.97 152.68,-167.183 166,-171 177.398,-174.266 189.622,-177.673 201.307,-180.882"/>
<polygon fill="midnightblue" stroke="midnightblue" points="125.85,-155.565 115.266,-156.044 123.839,-162.27 125.85,-155.565"/>
</g>
<!-- Node5 -->
<g id="node5" class="node"><title>Node5</title>
<g id="a_node5"><a xlink:href="class_little_weeb_library_1_1_services_1_1_settings_web_socket_service.html#aaa29fbcae1268174d436730a58afadca" target="_top" xlink:title="LittleWeebLibrary.Services.\lSettingsWebSocketService.GetCurrent\lIrcSettings">
<polygon fill="white" stroke="black" points="166,-60.5 166,-101.5 351,-101.5 351,-60.5 166,-60.5"/>
<text text-anchor="start" x="174" y="-89.5" font-family="Helvetica,sans-Serif" font-size="10.00">LittleWeebLibrary.Services.</text>
<text text-anchor="start" x="174" y="-78.5" font-family="Helvetica,sans-Serif" font-size="10.00">SettingsWebSocketService.GetCurrent</text>
<text text-anchor="middle" x="258.5" y="-67.5" font-family="Helvetica,sans-Serif" font-size="10.00">IrcSettings</text>
</a>
</g>
</g>
<!-- Node1&#45;&gt;Node5 -->
<g id="edge5" class="edge"><title>Node1&#45;&gt;Node5</title>
<path fill="none" stroke="midnightblue" d="M123.933,-122.849C145.351,-116.138 169.776,-108.485 191.831,-101.575"/>
<polygon fill="midnightblue" stroke="midnightblue" points="122.82,-119.53 114.324,-125.859 124.913,-126.209 122.82,-119.53"/>
</g>
<!-- Node7 -->
<g id="node7" class="node"><title>Node7</title>
<g id="a_node7"><a xlink:href="class_little_weeb_library_1_1_services_1_1_irc_web_socket_service.html#a9add76a72fff82d5b7009d34620516dd" target="_top" xlink:title="LittleWeebLibrary.Services.\lIrcWebSocketService.GetCurrentIrc\lSettings">
<polygon fill="white" stroke="black" points="173.5,-120.5 173.5,-161.5 343.5,-161.5 343.5,-120.5 173.5,-120.5"/>
<text text-anchor="start" x="181.5" y="-149.5" font-family="Helvetica,sans-Serif" font-size="10.00">LittleWeebLibrary.Services.</text>
<text text-anchor="start" x="181.5" y="-138.5" font-family="Helvetica,sans-Serif" font-size="10.00">IrcWebSocketService.GetCurrentIrc</text>
<text text-anchor="middle" x="258.5" y="-127.5" font-family="Helvetica,sans-Serif" font-size="10.00">Settings</text>
</a>
</g>
</g>
<!-- Node1&#45;&gt;Node7 -->
<g id="edge7" class="edge"><title>Node1&#45;&gt;Node7</title>
<path fill="none" stroke="midnightblue" d="M140.303,-141C151.159,-141 162.402,-141 173.436,-141"/>
<polygon fill="midnightblue" stroke="midnightblue" points="140.033,-137.5 130.033,-141 140.033,-144.5 140.033,-137.5"/>
</g>
<!-- Node8 -->
<g id="node8" class="node"><title>Node8</title>
<g id="a_node8"><a xlink:href="class_little_weeb_library_1_1_services_1_1_irc_web_socket_service.html#abd98810f045f0200700d8441a0c14902" target="_top" xlink:title="LittleWeebLibrary.Services.\lIrcWebSocketService.OnIrcClient\lConnectionStatusEvent">
<polygon fill="white" stroke="black" points="178,-0.5 178,-41.5 339,-41.5 339,-0.5 178,-0.5"/>
<text text-anchor="start" x="186" y="-29.5" font-family="Helvetica,sans-Serif" font-size="10.00">LittleWeebLibrary.Services.</text>
<text text-anchor="start" x="186" y="-18.5" font-family="Helvetica,sans-Serif" font-size="10.00">IrcWebSocketService.OnIrcClient</text>
<text text-anchor="middle" x="258.5" y="-7.5" font-family="Helvetica,sans-Serif" font-size="10.00">ConnectionStatusEvent</text>
</a>
</g>
</g>
<!-- Node1&#45;&gt;Node8 -->
<g id="edge9" class="edge"><title>Node1&#45;&gt;Node8</title>
<path fill="none" stroke="midnightblue" d="M85.9694,-118.299C104.816,-98.1159 134.772,-69.0805 166,-51 171.932,-47.5657 178.31,-44.4619 184.841,-41.6709"/>
<polygon fill="midnightblue" stroke="midnightblue" points="83.2507,-116.085 79.0746,-125.822 88.4113,-120.815 83.2507,-116.085"/>
</g>
<!-- Node3 -->
<g id="node3" class="node"><title>Node3</title>
<g id="a_node3"><a xlink:href="class_little_weeb_library_1_1_controllers_1_1_irc_web_socket_controller.html#a5ea966dddf1e0a082dd5ec28f6ace3ab" target="_top" xlink:title="LittleWeebLibrary.Controllers.\lIrcWebSocketController.OnWebSocketEvent">
<polygon fill="white" stroke="black" points="387,-181 387,-211 597,-211 597,-181 387,-181"/>
<text text-anchor="start" x="395" y="-199" font-family="Helvetica,sans-Serif" font-size="10.00">LittleWeebLibrary.Controllers.</text>
<text text-anchor="middle" x="492" y="-188" font-family="Helvetica,sans-Serif" font-size="10.00">IrcWebSocketController.OnWebSocketEvent</text>
</a>
</g>
</g>
<!-- Node2&#45;&gt;Node3 -->
<g id="edge2" class="edge"><title>Node2&#45;&gt;Node3</title>
<path fill="none" stroke="midnightblue" d="M340.349,-227.887C366.328,-222.389 394.894,-216.342 420.103,-211.006"/>
<polygon fill="midnightblue" stroke="midnightblue" points="339.589,-224.47 330.531,-229.965 341.039,-231.319 339.589,-224.47"/>
</g>
<!-- Node4&#45;&gt;Node3 -->
<g id="edge4" class="edge"><title>Node4&#45;&gt;Node3</title>
<path fill="none" stroke="midnightblue" d="M349.333,-196C361.562,-196 374.197,-196 386.655,-196"/>
<polygon fill="midnightblue" stroke="midnightblue" points="349.169,-192.5 339.169,-196 349.169,-199.5 349.169,-192.5"/>
</g>
<!-- Node6 -->
<g id="node6" class="node"><title>Node6</title>
<g id="a_node6"><a xlink:href="class_little_weeb_library_1_1_controllers_1_1_sub_controllers_1_1_settings_web_socket_controller.html#a39b333aee248388fd295a8511486c76e" target="_top" xlink:title="LittleWeebLibrary.Controllers.\lSubControllers.SettingsWebSocket\lController.OnWebSocketEvent">
<polygon fill="white" stroke="black" points="407,-60.5 407,-101.5 577,-101.5 577,-60.5 407,-60.5"/>
<text text-anchor="start" x="415" y="-89.5" font-family="Helvetica,sans-Serif" font-size="10.00">LittleWeebLibrary.Controllers.</text>
<text text-anchor="start" x="415" y="-78.5" font-family="Helvetica,sans-Serif" font-size="10.00">SubControllers.SettingsWebSocket</text>
<text text-anchor="middle" x="492" y="-67.5" font-family="Helvetica,sans-Serif" font-size="10.00">Controller.OnWebSocketEvent</text>
</a>
</g>
</g>
<!-- Node5&#45;&gt;Node6 -->
<g id="edge6" class="edge"><title>Node5&#45;&gt;Node6</title>
<path fill="none" stroke="midnightblue" d="M361.699,-81C376.77,-81 392.152,-81 406.804,-81"/>
<polygon fill="midnightblue" stroke="midnightblue" points="361.327,-77.5001 351.327,-81 361.327,-84.5001 361.327,-77.5001"/>
</g>
<!-- Node7&#45;&gt;Node3 -->
<g id="edge8" class="edge"><title>Node7&#45;&gt;Node3</title>
<path fill="none" stroke="midnightblue" d="M353.554,-163.345C378.431,-169.256 404.695,-175.495 427.524,-180.919"/>
<polygon fill="midnightblue" stroke="midnightblue" points="354.27,-159.918 343.732,-161.012 352.652,-166.729 354.27,-159.918"/>
</g>
</g>
</svg>
