<?xml version="1.0" encoding="UTF-8" standalone="no"?>
<!DOCTYPE svg PUBLIC "-//W3C//DTD SVG 1.1//EN"
 "http://www.w3.org/Graphics/SVG/1.1/DTD/svg11.dtd">
<!-- Generated by graphviz version 2.38.0 (20140413.2041)
 -->
<!-- Title: LittleWeebLibrary.Handlers.DataBaseHandler.GetJObject Pages: 1 -->
<!--zoomable 477 -->
<svg id="main" version="1.1" xmlns="http://www.w3.org/2000/svg" xmlns:xlink="http://www.w3.org/1999/xlink" xml:space="preserve" onload="init(evt)">
<style type="text/css"><![CDATA[
.edge:hover path { stroke: red; }
.edge:hover polygon { stroke: red; fill: red; }
]]></style>
<script type="text/javascript"><![CDATA[
var edges = document.getElementsByTagName('g');
if (edges && edges.length) {
  for (var i=0;i<edges.length;i++) {
    if (edges[i].id.substr(0,4)=='edge') {
      edges[i].setAttribute('class','edge');
    }
  }
}
]]></script>
        <defs>
                <circle id="rim" cx="0" cy="0" r="7"/>
                <circle id="rim2" cx="0" cy="0" r="3.5"/>
                <g id="zoomPlus">
                        <use xlink:href="#rim" fill="#404040">
                                <set attributeName="fill" to="#808080" begin="zoomplus.mouseover" end="zoomplus.mouseout"/>
                        </use>
                        <path d="M-4,0h8M0,-4v8" fill="none" stroke="white" stroke-width="1.5" pointer-events="none"/>
                </g>
                <g id="zoomMin">
                        <use xlink:href="#rim" fill="#404040">
                                <set attributeName="fill" to="#808080" begin="zoomminus.mouseover" end="zoomminus.mouseout"/>
                        </use>
                        <path d="M-4,0h8" fill="none" stroke="white" stroke-width="1.5" pointer-events="none"/>
                </g>
                <g id="dirArrow">
                        <path fill="none" stroke="white" stroke-width="1.5" d="M0,-3.0v7 M-2.5,-0.5L0,-3.0L2.5,-0.5"/>
                </g>
               <g id="resetDef">
                       <use xlink:href="#rim2" fill="#404040">
                               <set attributeName="fill" to="#808080" begin="reset.mouseover" end="reset.mouseout"/>
                       </use>
               </g>
        </defs>

<script type="text/javascript">
var viewWidth = 1133;
var viewHeight = 477;
var sectionId = 'dynsection-6';
</script>
<script xlink:href="svgpan.js"/>
<svg id="graph" class="graph">
<g id="viewport">
<title>LittleWeebLibrary.Handlers.DataBaseHandler.GetJObject</title>
<polygon fill="white" stroke="none" points="-4,4 -4,-473 1129,-473 1129,4 -4,4"/>
<!-- Node20 -->
<g id="node1" class="node"><title>Node20</title>
<polygon fill="#bfbfbf" stroke="black" points="0,-227 0,-257 144,-257 144,-227 0,-227"/>
<text text-anchor="start" x="8" y="-245" font-family="Helvetica,sans-Serif" font-size="10.00">LittleWeebLibrary.Handlers.</text>
<text text-anchor="middle" x="72" y="-234" font-family="Helvetica,sans-Serif" font-size="10.00">DataBaseHandler.GetJObject</text>
</g>
<!-- Node21 -->
<g id="node2" class="node"><title>Node21</title>
<g id="a_node2"><a xlink:href="class_little_weeb_library_1_1_handlers_1_1_file_history_handler.html#a615bf14eae35f656b211f0500abe4d29" target="_top" xlink:title="LittleWeebLibrary.Handlers.\lFileHistoryHandler.AddFileToFile\lHistory">
<polygon fill="white" stroke="black" points="203.5,-427.5 203.5,-468.5 361.5,-468.5 361.5,-427.5 203.5,-427.5"/>
<text text-anchor="start" x="211.5" y="-456.5" font-family="Helvetica,sans-Serif" font-size="10.00">LittleWeebLibrary.Handlers.</text>
<text text-anchor="start" x="211.5" y="-445.5" font-family="Helvetica,sans-Serif" font-size="10.00">FileHistoryHandler.AddFileToFile</text>
<text text-anchor="middle" x="282.5" y="-434.5" font-family="Helvetica,sans-Serif" font-size="10.00">History</text>
</a>
</g>
</g>
<!-- Node20&#45;&gt;Node21 -->
<g id="edge1" class="edge"><title>Node20&#45;&gt;Node21</title>
<path fill="none" stroke="midnightblue" d="M81.6177,-266.954C96.0107,-304.959 128.539,-377.125 180,-417 187.064,-422.473 195.094,-426.986 203.471,-430.704"/>
<polygon fill="midnightblue" stroke="midnightblue" points="84.768,-265.379 78.0383,-257.196 78.1962,-267.79 84.768,-265.379"/>
</g>
<!-- Node23 -->
<g id="node4" class="node"><title>Node23</title>
<g id="a_node4"><a xlink:href="class_little_weeb_library_1_1_handlers_1_1_anime_rule_handler.html#a469232c6b73d0ceff935c4ef2d78d039" target="_top" xlink:title="LittleWeebLibrary.Handlers.\lAnimeRuleHandler.AddRules">
<polygon fill="white" stroke="black" points="211.5,-378 211.5,-408 353.5,-408 353.5,-378 211.5,-378"/>
<text text-anchor="start" x="219.5" y="-396" font-family="Helvetica,sans-Serif" font-size="10.00">LittleWeebLibrary.Handlers.</text>
<text text-anchor="middle" x="282.5" y="-385" font-family="Helvetica,sans-Serif" font-size="10.00">AnimeRuleHandler.AddRules</text>
</a>
</g>
</g>
<!-- Node20&#45;&gt;Node23 -->
<g id="edge3" class="edge"><title>Node20&#45;&gt;Node23</title>
<path fill="none" stroke="midnightblue" d="M86.6147,-265.684C104.371,-294.385 138.161,-342.11 180,-368 189.568,-373.921 200.455,-378.44 211.461,-381.889"/>
<polygon fill="midnightblue" stroke="midnightblue" points="89.5881,-263.837 81.4231,-257.085 83.5957,-267.455 89.5881,-263.837"/>
</g>
<!-- Node26 -->
<g id="node7" class="node"><title>Node26</title>
<g id="a_node7"><a xlink:href="class_little_weeb_library_1_1_handlers_1_1_anime_rule_handler.html#a503fb2839489e1df8b80c9a461c0fd2b" target="_top" xlink:title="LittleWeebLibrary.Handlers.\lAnimeRuleHandler.FilterAnimeRules">
<polygon fill="white" stroke="black" points="195.5,-329 195.5,-359 369.5,-359 369.5,-329 195.5,-329"/>
<text text-anchor="start" x="203.5" y="-347" font-family="Helvetica,sans-Serif" font-size="10.00">LittleWeebLibrary.Handlers.</text>
<text text-anchor="middle" x="282.5" y="-336" font-family="Helvetica,sans-Serif" font-size="10.00">AnimeRuleHandler.FilterAnimeRules</text>
</a>
</g>
</g>
<!-- Node20&#45;&gt;Node26 -->
<g id="edge6" class="edge"><title>Node20&#45;&gt;Node26</title>
<path fill="none" stroke="midnightblue" d="M99.708,-263.356C120.559,-279.165 150.798,-300.258 180,-314 192.386,-319.829 206.16,-324.806 219.463,-328.933"/>
<polygon fill="midnightblue" stroke="midnightblue" points="101.711,-260.481 91.6517,-257.155 97.4416,-266.028 101.711,-260.481"/>
</g>
<!-- Node29 -->
<g id="node10" class="node"><title>Node29</title>
<g id="a_node10"><a xlink:href="class_little_weeb_library_1_1_services_1_1_info_api_web_socket_service.html#a310f91aba5d17d8202aea81442da2545" target="_top" xlink:title="LittleWeebLibrary.Services.\lInfoApiWebSocketService.GetAllCategories">
<polygon fill="white" stroke="black" points="671,-296 671,-326 876,-326 876,-296 671,-296"/>
<text text-anchor="start" x="679" y="-314" font-family="Helvetica,sans-Serif" font-size="10.00">LittleWeebLibrary.Services.</text>
<text text-anchor="middle" x="773.5" y="-303" font-family="Helvetica,sans-Serif" font-size="10.00">InfoApiWebSocketService.GetAllCategories</text>
</a>
</g>
</g>
<!-- Node20&#45;&gt;Node29 -->
<g id="edge10" class="edge"><title>Node20&#45;&gt;Node29</title>
<path fill="none" stroke="midnightblue" d="M153.595,-258.826C162.481,-260.38 171.416,-261.814 180,-263 351.491,-286.698 552.645,-299.949 670.951,-306.269"/>
<polygon fill="midnightblue" stroke="midnightblue" points="154.067,-255.355 143.604,-257.027 152.826,-262.244 154.067,-255.355"/>
</g>
<!-- Node30 -->
<g id="node11" class="node"><title>Node30</title>
<g id="a_node11"><a xlink:href="class_little_weeb_library_1_1_services_1_1_info_api_web_socket_service.html#a2882975741be27c69b461509d48e2636" target="_top" xlink:title="LittleWeebLibrary.Services.\lInfoApiWebSocketService.GetAllGenres">
<polygon fill="white" stroke="black" points="678.5,-247 678.5,-277 868.5,-277 868.5,-247 678.5,-247"/>
<text text-anchor="start" x="686.5" y="-265" font-family="Helvetica,sans-Serif" font-size="10.00">LittleWeebLibrary.Services.</text>
<text text-anchor="middle" x="773.5" y="-254" font-family="Helvetica,sans-Serif" font-size="10.00">InfoApiWebSocketService.GetAllGenres</text>
</a>
</g>
</g>
<!-- Node20&#45;&gt;Node30 -->
<g id="edge12" class="edge"><title>Node20&#45;&gt;Node30</title>
<path fill="none" stroke="midnightblue" d="M154.57,-244.332C285.082,-248.064 540.161,-255.357 678.264,-259.306"/>
<polygon fill="midnightblue" stroke="midnightblue" points="154.342,-240.824 144.246,-244.037 154.142,-247.822 154.342,-240.824"/>
</g>
<!-- Node31 -->
<g id="node12" class="node"><title>Node31</title>
<g id="a_node12"><a xlink:href="class_little_weeb_library_1_1_handlers_1_1_anime_profile_handler.html#aaa89fba506cfcdad18a5aa3f9b860061" target="_top" xlink:title="LittleWeebLibrary.Handlers.\lAnimeProfileHandler.GetAnimeProfile">
<polygon fill="white" stroke="black" points="436.5,-203 436.5,-233 614.5,-233 614.5,-203 436.5,-203"/>
<text text-anchor="start" x="444.5" y="-221" font-family="Helvetica,sans-Serif" font-size="10.00">LittleWeebLibrary.Handlers.</text>
<text text-anchor="middle" x="525.5" y="-210" font-family="Helvetica,sans-Serif" font-size="10.00">AnimeProfileHandler.GetAnimeProfile</text>
</a>
</g>
</g>
<!-- Node20&#45;&gt;Node31 -->
<g id="edge14" class="edge"><title>Node20&#45;&gt;Node31</title>
<path fill="none" stroke="midnightblue" d="M154.503,-237.668C234.053,-233.439 354.723,-227.025 436.443,-222.681"/>
<polygon fill="midnightblue" stroke="midnightblue" points="153.844,-234.198 144.044,-238.224 154.215,-241.188 153.844,-234.198"/>
</g>
<!-- Node33 -->
<g id="node14" class="node"><title>Node33</title>
<g id="a_node14"><a xlink:href="class_little_weeb_library_1_1_services_1_1_info_api_web_socket_service.html#a5f91364bc403db5d521f15881a385143" target="_top" xlink:title="LittleWeebLibrary.Services.\lInfoApiWebSocketService.GetBotList">
<polygon fill="white" stroke="black" points="436.5,-154 436.5,-184 614.5,-184 614.5,-154 436.5,-154"/>
<text text-anchor="start" x="444.5" y="-172" font-family="Helvetica,sans-Serif" font-size="10.00">LittleWeebLibrary.Services.</text>
<text text-anchor="middle" x="525.5" y="-161" font-family="Helvetica,sans-Serif" font-size="10.00">InfoApiWebSocketService.GetBotList</text>
</a>
</g>
</g>
<!-- Node20&#45;&gt;Node33 -->
<g id="edge17" class="edge"><title>Node20&#45;&gt;Node33</title>
<path fill="none" stroke="midnightblue" d="M153.92,-226.59C162.715,-225 171.54,-223.441 180,-222 266.945,-207.19 366.556,-192.064 436.227,-181.783"/>
<polygon fill="midnightblue" stroke="midnightblue" points="153.235,-223.157 144.024,-228.394 154.49,-230.044 153.235,-223.157"/>
</g>
<!-- Node34 -->
<g id="node15" class="node"><title>Node34</title>
<g id="a_node15"><a xlink:href="class_little_weeb_library_1_1_handlers_1_1_anime_profile_handler.html#a7469a40799e1067d871ba87679f54c37" target="_top" xlink:title="LittleWeebLibrary.Handlers.\lAnimeProfileHandler.GetCurrently\lAiring">
<polygon fill="white" stroke="black" points="201.5,-111.5 201.5,-152.5 363.5,-152.5 363.5,-111.5 201.5,-111.5"/>
<text text-anchor="start" x="209.5" y="-140.5" font-family="Helvetica,sans-Serif" font-size="10.00">LittleWeebLibrary.Handlers.</text>
<text text-anchor="start" x="209.5" y="-129.5" font-family="Helvetica,sans-Serif" font-size="10.00">AnimeProfileHandler.GetCurrently</text>
<text text-anchor="middle" x="282.5" y="-118.5" font-family="Helvetica,sans-Serif" font-size="10.00">Airing</text>
</a>
</g>
</g>
<!-- Node20&#45;&gt;Node34 -->
<g id="edge19" class="edge"><title>Node20&#45;&gt;Node34</title>
<path fill="none" stroke="midnightblue" d="M99.8339,-220.455C120.751,-204.419 151.018,-182.83 180,-168 191.152,-162.294 203.419,-157.109 215.453,-152.562"/>
<polygon fill="midnightblue" stroke="midnightblue" points="97.4994,-217.837 91.7485,-226.735 101.793,-223.365 97.4994,-217.837"/>
</g>
<!-- Node36 -->
<g id="node17" class="node"><title>Node36</title>
<g id="a_node17"><a xlink:href="class_little_weeb_library_1_1_services_1_1_data_base_web_socket_service.html#aa51350396b2aa1634a680c94bebdc64c" target="_top" xlink:title="LittleWeebLibrary.Services.\lDataBaseWebSocketService.GetDocument">
<polygon fill="white" stroke="black" points="180,-61 180,-91 385,-91 385,-61 180,-61"/>
<text text-anchor="start" x="188" y="-79" font-family="Helvetica,sans-Serif" font-size="10.00">LittleWeebLibrary.Services.</text>
<text text-anchor="middle" x="282.5" y="-68" font-family="Helvetica,sans-Serif" font-size="10.00">DataBaseWebSocketService.GetDocument</text>
</a>
</g>
</g>
<!-- Node20&#45;&gt;Node36 -->
<g id="edge22" class="edge"><title>Node20&#45;&gt;Node36</title>
<path fill="none" stroke="midnightblue" d="M84.975,-217.643C101.781,-186.056 135.376,-131.524 180,-102 186.523,-97.6841 193.719,-94.0845 201.177,-91.0823"/>
<polygon fill="midnightblue" stroke="midnightblue" points="81.7979,-216.167 80.3047,-226.656 88.0131,-219.387 81.7979,-216.167"/>
</g>
<!-- Node38 -->
<g id="node19" class="node"><title>Node38</title>
<g id="a_node19"><a xlink:href="class_little_weeb_library_1_1_handlers_1_1_file_history_handler.html#a3b3f0cdedee405d607feff81c2de085d" target="_top" xlink:title="LittleWeebLibrary.Handlers.\lFileHistoryHandler.RemoveFileFrom\lFileHistory">
<polygon fill="white" stroke="black" points="196.5,-0.5 196.5,-41.5 368.5,-41.5 368.5,-0.5 196.5,-0.5"/>
<text text-anchor="start" x="204.5" y="-29.5" font-family="Helvetica,sans-Serif" font-size="10.00">LittleWeebLibrary.Handlers.</text>
<text text-anchor="start" x="204.5" y="-18.5" font-family="Helvetica,sans-Serif" font-size="10.00">FileHistoryHandler.RemoveFileFrom</text>
<text text-anchor="middle" x="282.5" y="-7.5" font-family="Helvetica,sans-Serif" font-size="10.00">FileHistory</text>
</a>
</g>
</g>
<!-- Node20&#45;&gt;Node38 -->
<g id="edge24" class="edge"><title>Node20&#45;&gt;Node38</title>
<path fill="none" stroke="midnightblue" d="M80.1735,-217.049C93.2061,-176.197 124.668,-95.177 180,-51 185.026,-46.9873 190.575,-43.5111 196.41,-40.4996"/>
<polygon fill="midnightblue" stroke="midnightblue" points="76.7832,-216.166 77.1854,-226.753 83.4733,-218.226 76.7832,-216.166"/>
</g>
<!-- Node22 -->
<g id="node3" class="node"><title>Node22</title>
<g id="a_node3"><a xlink:href="class_little_weeb_library_1_1_handlers_1_1_download_handler.html#a8e40df55d254c0b95bb0a72becde5039" target="_top" xlink:title="LittleWeebLibrary.Handlers.\lDownloadHandler.OnIrcClientDownloadEvent">
<polygon fill="white" stroke="black" points="421,-433 421,-463 630,-463 630,-433 421,-433"/>
<text text-anchor="start" x="429" y="-451" font-family="Helvetica,sans-Serif" font-size="10.00">LittleWeebLibrary.Handlers.</text>
<text text-anchor="middle" x="525.5" y="-440" font-family="Helvetica,sans-Serif" font-size="10.00">DownloadHandler.OnIrcClientDownloadEvent</text>
</a>
</g>
</g>
<!-- Node21&#45;&gt;Node22 -->
<g id="edge2" class="edge"><title>Node21&#45;&gt;Node22</title>
<path fill="none" stroke="midnightblue" d="M372.036,-448C387.889,-448 404.537,-448 420.771,-448"/>
<polygon fill="midnightblue" stroke="midnightblue" points="371.746,-444.5 361.746,-448 371.746,-451.5 371.746,-444.5"/>
</g>
<!-- Node24 -->
<g id="node5" class="node"><title>Node24</title>
<g id="a_node5"><a xlink:href="class_little_weeb_library_1_1_services_1_1_info_api_web_socket_service.html#a0ed7b2a1d1fe30b43d06232719570435" target="_top" xlink:title="LittleWeebLibrary.Services.\lInfoApiWebSocketService.AddRule">
<polygon fill="white" stroke="black" points="689.5,-406 689.5,-436 857.5,-436 857.5,-406 689.5,-406"/>
<text text-anchor="start" x="697.5" y="-424" font-family="Helvetica,sans-Serif" font-size="10.00">LittleWeebLibrary.Services.</text>
<text text-anchor="middle" x="773.5" y="-413" font-family="Helvetica,sans-Serif" font-size="10.00">InfoApiWebSocketService.AddRule</text>
</a>
</g>
</g>
<!-- Node23&#45;&gt;Node24 -->
<g id="edge4" class="edge"><title>Node23&#45;&gt;Node24</title>
<path fill="none" stroke="midnightblue" d="M363.698,-397.592C453.548,-402.737 598.494,-411.036 689.479,-416.246"/>
<polygon fill="midnightblue" stroke="midnightblue" points="363.746,-394.089 353.562,-397.012 363.345,-401.078 363.746,-394.089"/>
</g>
<!-- Node25 -->
<g id="node6" class="node"><title>Node25</title>
<g id="a_node6"><a xlink:href="class_little_weeb_library_1_1_controllers_1_1_sub_controllers_1_1_info_api_web_socket_controller.html#ad620537574b819085ff8eb394add2912" target="_top" xlink:title="LittleWeebLibrary.Controllers.\lSubControllers.InfoApiWebSocketController.\lOnWebSocketEvent">
<polygon fill="white" stroke="black" points="917,-241.5 917,-282.5 1125,-282.5 1125,-241.5 917,-241.5"/>
<text text-anchor="start" x="925" y="-270.5" font-family="Helvetica,sans-Serif" font-size="10.00">LittleWeebLibrary.Controllers.</text>
<text text-anchor="start" x="925" y="-259.5" font-family="Helvetica,sans-Serif" font-size="10.00">SubControllers.InfoApiWebSocketController.</text>
<text text-anchor="middle" x="1021" y="-248.5" font-family="Helvetica,sans-Serif" font-size="10.00">OnWebSocketEvent</text>
</a>
</g>
</g>
<!-- Node24&#45;&gt;Node25 -->
<g id="edge5" class="edge"><title>Node24&#45;&gt;Node25</title>
<path fill="none" stroke="midnightblue" d="M866.988,-402.623C871.825,-400.636 876.528,-398.436 881,-396 933.983,-367.136 981.178,-312.614 1004.53,-282.786"/>
<polygon fill="midnightblue" stroke="midnightblue" points="865.665,-399.381 857.546,-406.187 868.137,-405.93 865.665,-399.381"/>
</g>
<!-- Node27 -->
<g id="node8" class="node"><title>Node27</title>
<g id="a_node8"><a xlink:href="class_little_weeb_library_1_1_handlers_1_1_anime_profile_handler.html#a5b163eb7e68b1e40904fa55454d8ba54" target="_top" xlink:title="LittleWeebLibrary.Handlers.\lAnimeProfileHandler.GetAnimeEpisodes">
<polygon fill="white" stroke="black" points="430,-335 430,-365 621,-365 621,-335 430,-335"/>
<text text-anchor="start" x="438" y="-353" font-family="Helvetica,sans-Serif" font-size="10.00">LittleWeebLibrary.Handlers.</text>
<text text-anchor="middle" x="525.5" y="-342" font-family="Helvetica,sans-Serif" font-size="10.00">AnimeProfileHandler.GetAnimeEpisodes</text>
</a>
</g>
</g>
<!-- Node26&#45;&gt;Node27 -->
<g id="edge7" class="edge"><title>Node26&#45;&gt;Node27</title>
<path fill="none" stroke="midnightblue" d="M379.958,-346.401C396.377,-346.81 413.417,-347.234 429.791,-347.642"/>
<polygon fill="midnightblue" stroke="midnightblue" points="379.91,-342.899 369.826,-346.149 379.736,-349.897 379.91,-342.899"/>
</g>
<!-- Node28 -->
<g id="node9" class="node"><title>Node28</title>
<g id="a_node9"><a xlink:href="class_little_weeb_library_1_1_services_1_1_info_api_web_socket_service.html#a754f738fba586cc927d64251329c736a" target="_top" xlink:title="LittleWeebLibrary.Services.\lInfoApiWebSocketService.GetAnime\lEpisodes">
<polygon fill="white" stroke="black" points="686,-345.5 686,-386.5 861,-386.5 861,-345.5 686,-345.5"/>
<text text-anchor="start" x="694" y="-374.5" font-family="Helvetica,sans-Serif" font-size="10.00">LittleWeebLibrary.Services.</text>
<text text-anchor="start" x="694" y="-363.5" font-family="Helvetica,sans-Serif" font-size="10.00">InfoApiWebSocketService.GetAnime</text>
<text text-anchor="middle" x="773.5" y="-352.5" font-family="Helvetica,sans-Serif" font-size="10.00">Episodes</text>
</a>
</g>
</g>
<!-- Node27&#45;&gt;Node28 -->
<g id="edge8" class="edge"><title>Node27&#45;&gt;Node28</title>
<path fill="none" stroke="midnightblue" d="M631.296,-356.816C649.483,-357.999 668.213,-359.217 685.847,-360.364"/>
<polygon fill="midnightblue" stroke="midnightblue" points="631.464,-353.32 621.258,-356.163 631.01,-360.305 631.464,-353.32"/>
</g>
<!-- Node28&#45;&gt;Node25 -->
<g id="edge9" class="edge"><title>Node28&#45;&gt;Node25</title>
<path fill="none" stroke="midnightblue" d="M861.633,-342.205C868.241,-339.924 874.761,-337.517 881,-335 917.906,-320.113 957.927,-298.462 985.506,-282.605"/>
<polygon fill="midnightblue" stroke="midnightblue" points="860.286,-338.965 851.912,-345.454 862.505,-345.604 860.286,-338.965"/>
</g>
<!-- Node29&#45;&gt;Node25 -->
<g id="edge11" class="edge"><title>Node29&#45;&gt;Node25</title>
<path fill="none" stroke="midnightblue" d="M859.699,-293.995C878.258,-290.291 898.084,-286.334 917.242,-282.51"/>
<polygon fill="midnightblue" stroke="midnightblue" points="858.948,-290.576 849.826,-295.965 860.318,-297.44 858.948,-290.576"/>
</g>
<!-- Node30&#45;&gt;Node25 -->
<g id="edge13" class="edge"><title>Node30&#45;&gt;Node25</title>
<path fill="none" stroke="midnightblue" d="M878.718,-262C891.275,-262 904.097,-262 916.642,-262"/>
<polygon fill="midnightblue" stroke="midnightblue" points="878.715,-258.5 868.715,-262 878.715,-265.5 878.715,-258.5"/>
</g>
<!-- Node32 -->
<g id="node13" class="node"><title>Node32</title>
<g id="a_node13"><a xlink:href="class_little_weeb_library_1_1_services_1_1_info_api_web_socket_service.html#a12f4d83332b28988ce0e2bc5ff3ed369" target="_top" xlink:title="LittleWeebLibrary.Services.\lInfoApiWebSocketService.GetAnime\lProfile">
<polygon fill="white" stroke="black" points="686,-186.5 686,-227.5 861,-227.5 861,-186.5 686,-186.5"/>
<text text-anchor="start" x="694" y="-215.5" font-family="Helvetica,sans-Serif" font-size="10.00">LittleWeebLibrary.Services.</text>
<text text-anchor="start" x="694" y="-204.5" font-family="Helvetica,sans-Serif" font-size="10.00">InfoApiWebSocketService.GetAnime</text>
<text text-anchor="middle" x="773.5" y="-193.5" font-family="Helvetica,sans-Serif" font-size="10.00">Profile</text>
</a>
</g>
</g>
<!-- Node31&#45;&gt;Node32 -->
<g id="edge15" class="edge"><title>Node31&#45;&gt;Node32</title>
<path fill="none" stroke="midnightblue" d="M624.761,-213.606C644.954,-212.703 666.075,-211.759 685.824,-210.876"/>
<polygon fill="midnightblue" stroke="midnightblue" points="624.45,-210.117 614.617,-214.06 624.763,-217.11 624.45,-210.117"/>
</g>
<!-- Node32&#45;&gt;Node25 -->
<g id="edge16" class="edge"><title>Node32&#45;&gt;Node25</title>
<path fill="none" stroke="midnightblue" d="M870.868,-228.589C889.807,-232.832 909.625,-237.272 928.402,-241.479"/>
<polygon fill="midnightblue" stroke="midnightblue" points="871.577,-225.162 861.054,-226.391 870.047,-231.992 871.577,-225.162"/>
</g>
<!-- Node33&#45;&gt;Node25 -->
<g id="edge18" class="edge"><title>Node33&#45;&gt;Node25</title>
<path fill="none" stroke="midnightblue" d="M624.785,-157.697C697.133,-152.597 797.087,-152.352 881,-177 924.966,-189.915 968.951,-220.523 995.324,-241.259"/>
<polygon fill="midnightblue" stroke="midnightblue" points="624.475,-154.21 614.765,-158.447 624.998,-161.191 624.475,-154.21"/>
</g>
<!-- Node35 -->
<g id="node16" class="node"><title>Node35</title>
<g id="a_node16"><a xlink:href="class_little_weeb_library_1_1_services_1_1_info_api_web_socket_service.html#aec42147d67551cb17c458453ef40f3bc" target="_top" xlink:title="LittleWeebLibrary.Services.\lInfoApiWebSocketService.GetCurrently\lAiring">
<polygon fill="white" stroke="black" points="680.5,-88.5 680.5,-129.5 866.5,-129.5 866.5,-88.5 680.5,-88.5"/>
<text text-anchor="start" x="688.5" y="-117.5" font-family="Helvetica,sans-Serif" font-size="10.00">LittleWeebLibrary.Services.</text>
<text text-anchor="start" x="688.5" y="-106.5" font-family="Helvetica,sans-Serif" font-size="10.00">InfoApiWebSocketService.GetCurrently</text>
<text text-anchor="middle" x="773.5" y="-95.5" font-family="Helvetica,sans-Serif" font-size="10.00">Airing</text>
</a>
</g>
</g>
<!-- Node34&#45;&gt;Node35 -->
<g id="edge20" class="edge"><title>Node34&#45;&gt;Node35</title>
<path fill="none" stroke="midnightblue" d="M373.842,-127.751C461.008,-123.651 592.326,-117.474 680.16,-113.343"/>
<polygon fill="midnightblue" stroke="midnightblue" points="373.525,-124.262 363.701,-128.228 373.854,-131.254 373.525,-124.262"/>
</g>
<!-- Node35&#45;&gt;Node25 -->
<g id="edge21" class="edge"><title>Node35&#45;&gt;Node25</title>
<path fill="none" stroke="midnightblue" d="M858.818,-133.286C866.49,-136.51 873.999,-140.077 881,-144 928.776,-170.767 975.458,-215.245 1000.71,-241.273"/>
<polygon fill="midnightblue" stroke="midnightblue" points="859.989,-129.985 849.404,-129.523 857.39,-136.485 859.989,-129.985"/>
</g>
<!-- Node37 -->
<g id="node18" class="node"><title>Node37</title>
<g id="a_node18"><a xlink:href="class_little_weeb_library_1_1_controllers_1_1_sub_controllers_1_1_data_base_web_socket_controller.html#a655abc0c42c54c9ff3572e4b4271fa3b" target="_top" xlink:title="LittleWeebLibrary.Controllers.\lSubControllers.DataBaseWebSocket\lController.OnWebSocketEvent">
<polygon fill="white" stroke="black" points="437,-55.5 437,-96.5 614,-96.5 614,-55.5 437,-55.5"/>
<text text-anchor="start" x="445" y="-84.5" font-family="Helvetica,sans-Serif" font-size="10.00">LittleWeebLibrary.Controllers.</text>
<text text-anchor="start" x="445" y="-73.5" font-family="Helvetica,sans-Serif" font-size="10.00">SubControllers.DataBaseWebSocket</text>
<text text-anchor="middle" x="525.5" y="-62.5" font-family="Helvetica,sans-Serif" font-size="10.00">Controller.OnWebSocketEvent</text>
</a>
</g>
</g>
<!-- Node36&#45;&gt;Node37 -->
<g id="edge23" class="edge"><title>Node36&#45;&gt;Node37</title>
<path fill="none" stroke="midnightblue" d="M395.157,-76C409.151,-76 423.304,-76 436.857,-76"/>
<polygon fill="midnightblue" stroke="midnightblue" points="395.007,-72.5001 385.007,-76 395.007,-79.5001 395.007,-72.5001"/>
</g>
<!-- Node39 -->
<g id="node20" class="node"><title>Node39</title>
<g id="a_node20"><a xlink:href="class_little_weeb_library_1_1_services_1_1_file_web_socket_service.html#ab1375e8e82a50dfa06d91bebe988d133" target="_top" xlink:title="LittleWeebLibrary.Services.\lFileWebSocketService.DeleteFile">
<polygon fill="white" stroke="black" points="445,-6 445,-36 606,-36 606,-6 445,-6"/>
<text text-anchor="start" x="453" y="-24" font-family="Helvetica,sans-Serif" font-size="10.00">LittleWeebLibrary.Services.</text>
<text text-anchor="middle" x="525.5" y="-13" font-family="Helvetica,sans-Serif" font-size="10.00">FileWebSocketService.DeleteFile</text>
</a>
</g>
</g>
<!-- Node38&#45;&gt;Node39 -->
<g id="edge25" class="edge"><title>Node38&#45;&gt;Node39</title>
<path fill="none" stroke="midnightblue" d="M379.08,-21C400.909,-21 423.879,-21 444.953,-21"/>
<polygon fill="midnightblue" stroke="midnightblue" points="378.807,-17.5001 368.807,-21 378.807,-24.5001 378.807,-17.5001"/>
</g>
<!-- Node40 -->
<g id="node21" class="node"><title>Node40</title>
<g id="a_node21"><a xlink:href="class_little_weeb_library_1_1_controllers_1_1_file_web_socket_controller.html#a9ecdec41f15ac23a56c402ff2c554a08" target="_top" xlink:title="LittleWeebLibrary.Controllers.\lFileWebSocketController.OnWebSocketEvent">
<polygon fill="white" stroke="black" points="666,-6 666,-36 881,-36 881,-6 666,-6"/>
<text text-anchor="start" x="674" y="-24" font-family="Helvetica,sans-Serif" font-size="10.00">LittleWeebLibrary.Controllers.</text>
<text text-anchor="middle" x="773.5" y="-13" font-family="Helvetica,sans-Serif" font-size="10.00">FileWebSocketController.OnWebSocketEvent</text>
</a>
</g>
</g>
<!-- Node39&#45;&gt;Node40 -->
<g id="edge26" class="edge"><title>Node39&#45;&gt;Node40</title>
<path fill="none" stroke="midnightblue" d="M616.463,-21C632.538,-21 649.427,-21 665.914,-21"/>
<polygon fill="midnightblue" stroke="midnightblue" points="616.029,-17.5001 606.029,-21 616.029,-24.5001 616.029,-17.5001"/>
</g>
</g>
</svg>
        <g id="navigator" transform="translate(0 0)" fill="#404254">
                <rect fill="#f2f5e9" fill-opacity="0.5" stroke="#606060" stroke-width=".5" x="0" y="0" width="60" height="60"/>
                <use id="zoomplus" xlink:href="#zoomPlus" x="17" y="9" onmousedown="handleZoom(evt,'in')"/>
                <use id="zoomminus" xlink:href="#zoomMin" x="42" y="9" onmousedown="handleZoom(evt,'out')"/>
                <use id="reset" xlink:href="#resetDef" x="30" y="36" onmousedown="handleReset()"/>
                <g id="arrowUp" xlink:href="#dirArrow" transform="translate(30 24)" onmousedown="handlePan(0,-1)">
                  <use xlink:href="#rim" fill="#404040">
                        <set attributeName="fill" to="#808080" begin="arrowUp.mouseover" end="arrowUp.mouseout"/>
                  </use>
                  <path fill="none" stroke="white" stroke-width="1.5" d="M0,-3.0v7 M-2.5,-0.5L0,-3.0L2.5,-0.5"/>
                </g>
                <g id="arrowRight" xlink:href="#dirArrow" transform="rotate(90) translate(36 -43)" onmousedown="handlePan(1,0)">
                  <use xlink:href="#rim" fill="#404040">
                        <set attributeName="fill" to="#808080" begin="arrowRight.mouseover" end="arrowRight.mouseout"/>
                  </use>
                  <path fill="none" stroke="white" stroke-width="1.5" d="M0,-3.0v7 M-2.5,-0.5L0,-3.0L2.5,-0.5"/>
                </g>
                <g id="arrowDown" xlink:href="#dirArrow" transform="rotate(180) translate(-30 -48)" onmousedown="handlePan(0,1)">
                  <use xlink:href="#rim" fill="#404040">
                        <set attributeName="fill" to="#808080" begin="arrowDown.mouseover" end="arrowDown.mouseout"/>
                  </use>
                  <path fill="none" stroke="white" stroke-width="1.5" d="M0,-3.0v7 M-2.5,-0.5L0,-3.0L2.5,-0.5"/>
                </g>
                <g id="arrowLeft" xlink:href="#dirArrow" transform="rotate(270) translate(-36 17)" onmousedown="handlePan(-1,0)">
                  <use xlink:href="#rim" fill="#404040">
                        <set attributeName="fill" to="#808080" begin="arrowLeft.mouseover" end="arrowLeft.mouseout"/>
                  </use>
                  <path fill="none" stroke="white" stroke-width="1.5" d="M0,-3.0v7 M-2.5,-0.5L0,-3.0L2.5,-0.5"/>
                </g>
        </g>
        <svg viewBox="0 0 15 15" width="100%" height="30px" preserveAspectRatio="xMaxYMin meet">
         <g id="arrow_out" transform="scale(0.3 0.3)">
          <a xlink:href="class_little_weeb_library_1_1_handlers_1_1_data_base_handler_a7f61583807f99b7838a33d2db0f7ca68_icgraph_org.svg" target="_base">
           <rect id="button" ry="5" rx="5" y="6" x="6" height="38" width="38"
                fill="#f2f5e9" fill-opacity="0.5" stroke="#606060" stroke-width="1.0"/>
           <path id="arrow"
             d="M 11.500037,31.436501 C 11.940474,20.09759 22.043105,11.32322 32.158766,21.979434 L 37.068811,17.246167 C 37.068811,17.246167 37.088388,32 37.088388,32 L 22.160133,31.978069 C 22.160133,31.978069 26.997745,27.140456 26.997745,27.140456 C 18.528582,18.264221 13.291696,25.230495 11.500037,31.436501 z"
             style="fill:#404040;"/>
          </a>
         </g>
        </svg>
</svg>
