<?xml version="1.0" encoding="UTF-8" standalone="no"?>
<!DOCTYPE svg PUBLIC "-//W3C//DTD SVG 1.1//EN"
 "http://www.w3.org/Graphics/SVG/1.1/DTD/svg11.dtd">
<!-- Generated by graphviz version 2.38.0 (20140413.2041)
 -->
<!-- Title: LittleWeebLibrary.Services.IrcWebSocketService Pages: 1 -->
<!--zoomable 413 -->
<svg id="main" version="1.1" xmlns="http://www.w3.org/2000/svg" xmlns:xlink="http://www.w3.org/1999/xlink" xml:space="preserve" onload="init(evt)">
<style type="text/css"><![CDATA[
.edge:hover path { stroke: red; }
.edge:hover polygon { stroke: red; fill: red; }
]]></style>
<script type="text/javascript"><![CDATA[
var edges = document.getElementsByTagName('g');
if (edges && edges.length) {
  for (var i=0;i<edges.length;i++) {
    if (edges[i].id.substr(0,4)=='edge') {
      edges[i].setAttribute('class','edge');
    }
  }
}
]]></script>
        <defs>
                <circle id="rim" cx="0" cy="0" r="7"/>
                <circle id="rim2" cx="0" cy="0" r="3.5"/>
                <g id="zoomPlus">
                        <use xlink:href="#rim" fill="#404040">
                                <set attributeName="fill" to="#808080" begin="zoomplus.mouseover" end="zoomplus.mouseout"/>
                        </use>
                        <path d="M-4,0h8M0,-4v8" fill="none" stroke="white" stroke-width="1.5" pointer-events="none"/>
                </g>
                <g id="zoomMin">
                        <use xlink:href="#rim" fill="#404040">
                                <set attributeName="fill" to="#808080" begin="zoomminus.mouseover" end="zoomminus.mouseout"/>
                        </use>
                        <path d="M-4,0h8" fill="none" stroke="white" stroke-width="1.5" pointer-events="none"/>
                </g>
                <g id="dirArrow">
                        <path fill="none" stroke="white" stroke-width="1.5" d="M0,-3.0v7 M-2.5,-0.5L0,-3.0L2.5,-0.5"/>
                </g>
               <g id="resetDef">
                       <use xlink:href="#rim2" fill="#404040">
                               <set attributeName="fill" to="#808080" begin="reset.mouseover" end="reset.mouseout"/>
                       </use>
               </g>
        </defs>

<script type="text/javascript">
var viewWidth = 1207;
var viewHeight = 413;
var sectionId = 'dynsection-1';
</script>
<script xlink:href="svgpan.js"/>
<svg id="graph" class="graph">
<g id="viewport">
<title>LittleWeebLibrary.Services.IrcWebSocketService</title>
<polygon fill="white" stroke="none" points="-4,4 -4,-409 1203,-409 1203,4 -4,4"/>
<!-- Node3 -->
<g id="node1" class="node"><title>Node3</title>
<polygon fill="#bfbfbf" stroke="black" points="506.5,-0.5 506.5,-200.5 677.5,-200.5 677.5,-0.5 506.5,-0.5"/>
<text text-anchor="start" x="514.5" y="-188.5" font-family="Helvetica,sans-Serif" font-size="10.00">LittleWeebLibrary.Services.</text>
<text text-anchor="middle" x="592" y="-177.5" font-family="Helvetica,sans-Serif" font-size="10.00">IrcWebSocketService</text>
<polyline fill="none" stroke="black" points="506.5,-170.5 677.5,-170.5 "/>
<text text-anchor="start" x="514.5" y="-158.5" font-family="Helvetica,sans-Serif" font-size="10.00">&#45; IsIrcConnected</text>
<text text-anchor="start" x="514.5" y="-147.5" font-family="Helvetica,sans-Serif" font-size="10.00">&#45; SendMessageToWebSocketClient</text>
<polyline fill="none" stroke="black" points="506.5,-140.5 677.5,-140.5 "/>
<text text-anchor="start" x="514.5" y="-128.5" font-family="Helvetica,sans-Serif" font-size="10.00">+ IrcWebSocketService()</text>
<text text-anchor="start" x="514.5" y="-117.5" font-family="Helvetica,sans-Serif" font-size="10.00">+ Connect()</text>
<text text-anchor="start" x="514.5" y="-106.5" font-family="Helvetica,sans-Serif" font-size="10.00">+ DisableSendMessage()</text>
<text text-anchor="start" x="514.5" y="-95.5" font-family="Helvetica,sans-Serif" font-size="10.00">+ Disconnect()</text>
<text text-anchor="start" x="514.5" y="-84.5" font-family="Helvetica,sans-Serif" font-size="10.00">+ EnableSendMessage()</text>
<text text-anchor="start" x="514.5" y="-73.5" font-family="Helvetica,sans-Serif" font-size="10.00">+ GetCurrentIrcSettings()</text>
<text text-anchor="start" x="514.5" y="-62.5" font-family="Helvetica,sans-Serif" font-size="10.00">+ SendMessage()</text>
<text text-anchor="start" x="514.5" y="-51.5" font-family="Helvetica,sans-Serif" font-size="10.00">+ SetIrcSettings()</text>
<text text-anchor="start" x="514.5" y="-40.5" font-family="Helvetica,sans-Serif" font-size="10.00">+ SetLittleWeebSettings()</text>
<text text-anchor="start" x="514.5" y="-29.5" font-family="Helvetica,sans-Serif" font-size="10.00">&#45; OnIrcClientConnectionStatus</text>
<text text-anchor="start" x="514.5" y="-18.5" font-family="Helvetica,sans-Serif" font-size="10.00">Event()</text>
<text text-anchor="start" x="514.5" y="-7.5" font-family="Helvetica,sans-Serif" font-size="10.00">&#45; OnIrcClientMessageEvent()</text>
</g>
<!-- Node4 -->
<g id="node2" class="node"><title>Node4</title>
<g id="a_node2"><a xlink:href="interface_little_weeb_library_1_1_services_1_1_i_irc_web_socket_service.html" target="_top" xlink:title="{IIrcWebSocketService\n||+ Connect()\l+ DisableSendMessage()\l+ Disconnect()\l+ EnableSendMessage()\l+ GetCurrentIrcSettings()\l+ SendMessage()\l}">
<polygon fill="white" stroke="black" points="0,-270.5 0,-382.5 126,-382.5 126,-270.5 0,-270.5"/>
<text text-anchor="middle" x="63" y="-370.5" font-family="Helvetica,sans-Serif" font-size="10.00">IIrcWebSocketService</text>
<polyline fill="none" stroke="black" points="0,-363.5 126,-363.5 "/>
<text text-anchor="middle" x="63" y="-351.5" font-family="Helvetica,sans-Serif" font-size="10.00"> </text>
<polyline fill="none" stroke="black" points="0,-344.5 126,-344.5 "/>
<text text-anchor="start" x="8" y="-332.5" font-family="Helvetica,sans-Serif" font-size="10.00">+ Connect()</text>
<text text-anchor="start" x="8" y="-321.5" font-family="Helvetica,sans-Serif" font-size="10.00">+ DisableSendMessage()</text>
<text text-anchor="start" x="8" y="-310.5" font-family="Helvetica,sans-Serif" font-size="10.00">+ Disconnect()</text>
<text text-anchor="start" x="8" y="-299.5" font-family="Helvetica,sans-Serif" font-size="10.00">+ EnableSendMessage()</text>
<text text-anchor="start" x="8" y="-288.5" font-family="Helvetica,sans-Serif" font-size="10.00">+ GetCurrentIrcSettings()</text>
<text text-anchor="start" x="8" y="-277.5" font-family="Helvetica,sans-Serif" font-size="10.00">+ SendMessage()</text>
</a>
</g>
</g>
<!-- Node4&#45;&gt;Node3 -->
<g id="edge1" class="edge"><title>Node4&#45;&gt;Node3</title>
<path fill="none" stroke="midnightblue" d="M114.774,-263.484C121.194,-257.768 127.982,-252.461 135,-248 252.075,-173.585 410.176,-133.997 506.413,-115.412"/>
<polygon fill="none" stroke="midnightblue" points="112.336,-260.971 107.415,-270.353 117.113,-266.088 112.336,-260.971"/>
</g>
<!-- Node5 -->
<g id="node3" class="node"><title>Node5</title>
<g id="a_node3"><a xlink:href="interface_little_weeb_library_1_1_global_interfaces_1_1_i_settings_interface.html" target="_top" xlink:title="{ISettingsInterface\n||+ SetIrcSettings()\l+ SetLittleWeebSettings()\l}">
<polygon fill="white" stroke="black" points="144.5,-292.5 144.5,-360.5 273.5,-360.5 273.5,-292.5 144.5,-292.5"/>
<text text-anchor="middle" x="209" y="-348.5" font-family="Helvetica,sans-Serif" font-size="10.00">ISettingsInterface</text>
<polyline fill="none" stroke="black" points="144.5,-341.5 273.5,-341.5 "/>
<text text-anchor="middle" x="209" y="-329.5" font-family="Helvetica,sans-Serif" font-size="10.00"> </text>
<polyline fill="none" stroke="black" points="144.5,-322.5 273.5,-322.5 "/>
<text text-anchor="start" x="152.5" y="-310.5" font-family="Helvetica,sans-Serif" font-size="10.00">+ SetIrcSettings()</text>
<text text-anchor="start" x="152.5" y="-299.5" font-family="Helvetica,sans-Serif" font-size="10.00">+ SetLittleWeebSettings()</text>
</a>
</g>
</g>
<!-- Node5&#45;&gt;Node3 -->
<g id="edge2" class="edge"><title>Node5&#45;&gt;Node3</title>
<path fill="none" stroke="midnightblue" d="M242.361,-284.439C254.012,-271.722 267.76,-258.348 282,-248 351.585,-197.437 441.384,-157.279 506.406,-131.889"/>
<polygon fill="none" stroke="midnightblue" points="239.444,-282.45 235.392,-292.239 244.664,-287.113 239.444,-282.45"/>
</g>
<!-- Node6 -->
<g id="node4" class="node"><title>Node6</title>
<g id="a_node4"><a xlink:href="interface_little_weeb_library_1_1_handlers_1_1_i_debug_handler.html" target="_top" xlink:title="{LittleWeebLibrary.Handlers.\lIDebugHandler\n||+ SetSettings()\l+ StopDebugger()\l+ TraceMessage()\l}">
<polygon fill="white" stroke="black" points="291.5,-281.5 291.5,-371.5 428.5,-371.5 428.5,-281.5 291.5,-281.5"/>
<text text-anchor="start" x="299.5" y="-359.5" font-family="Helvetica,sans-Serif" font-size="10.00">LittleWeebLibrary.Handlers.</text>
<text text-anchor="middle" x="360" y="-348.5" font-family="Helvetica,sans-Serif" font-size="10.00">IDebugHandler</text>
<polyline fill="none" stroke="black" points="291.5,-341.5 428.5,-341.5 "/>
<text text-anchor="middle" x="360" y="-329.5" font-family="Helvetica,sans-Serif" font-size="10.00"> </text>
<polyline fill="none" stroke="black" points="291.5,-322.5 428.5,-322.5 "/>
<text text-anchor="start" x="299.5" y="-310.5" font-family="Helvetica,sans-Serif" font-size="10.00">+ SetSettings()</text>
<text text-anchor="start" x="299.5" y="-299.5" font-family="Helvetica,sans-Serif" font-size="10.00">+ StopDebugger()</text>
<text text-anchor="start" x="299.5" y="-288.5" font-family="Helvetica,sans-Serif" font-size="10.00">+ TraceMessage()</text>
</a>
</g>
</g>
<!-- Node6&#45;&gt;Node3 -->
<g id="edge3" class="edge"><title>Node6&#45;&gt;Node3</title>
<path fill="none" stroke="#404040" d="M403.334,-281.405C414.255,-270.425 426.002,-258.727 437,-248 456.396,-229.082 477.367,-209.01 497.428,-189.99"/>
<polygon fill="none" stroke="#404040" points="497.552,-189.872 499.159,-182.842 506.266,-181.622 504.659,-188.651 497.552,-189.872"/>
<text text-anchor="middle" x="500.5" y="-222" font-family="Helvetica,sans-Serif" font-size="10.00"> &#45;DebugHandler</text>
</g>
<!-- Node7 -->
<g id="node5" class="node"><title>Node7</title>
<g id="a_node5"><a xlink:href="interface_little_weeb_library_1_1_handlers_1_1_i_irc_client_handler.html" target="_top" xlink:title="{LittleWeebLibrary.Handlers.\lIIrcClientHandler\n||+ CurrentSettings()\l+ IsConnected()\l+ IsDownloading()\l+ SendMessage()\l+ Setfullfilepath()\l+ StartConnection()\l+ StartDownload()\l+ StopConnection()\l+ StopDownload()\l}">
<polygon fill="white" stroke="black" points="446.5,-248.5 446.5,-404.5 583.5,-404.5 583.5,-248.5 446.5,-248.5"/>
<text text-anchor="start" x="454.5" y="-392.5" font-family="Helvetica,sans-Serif" font-size="10.00">LittleWeebLibrary.Handlers.</text>
<text text-anchor="middle" x="515" y="-381.5" font-family="Helvetica,sans-Serif" font-size="10.00">IIrcClientHandler</text>
<polyline fill="none" stroke="black" points="446.5,-374.5 583.5,-374.5 "/>
<text text-anchor="middle" x="515" y="-362.5" font-family="Helvetica,sans-Serif" font-size="10.00"> </text>
<polyline fill="none" stroke="black" points="446.5,-355.5 583.5,-355.5 "/>
<text text-anchor="start" x="454.5" y="-343.5" font-family="Helvetica,sans-Serif" font-size="10.00">+ CurrentSettings()</text>
<text text-anchor="start" x="454.5" y="-332.5" font-family="Helvetica,sans-Serif" font-size="10.00">+ IsConnected()</text>
<text text-anchor="start" x="454.5" y="-321.5" font-family="Helvetica,sans-Serif" font-size="10.00">+ IsDownloading()</text>
<text text-anchor="start" x="454.5" y="-310.5" font-family="Helvetica,sans-Serif" font-size="10.00">+ SendMessage()</text>
<text text-anchor="start" x="454.5" y="-299.5" font-family="Helvetica,sans-Serif" font-size="10.00">+ Setfullfilepath()</text>
<text text-anchor="start" x="454.5" y="-288.5" font-family="Helvetica,sans-Serif" font-size="10.00">+ StartConnection()</text>
<text text-anchor="start" x="454.5" y="-277.5" font-family="Helvetica,sans-Serif" font-size="10.00">+ StartDownload()</text>
<text text-anchor="start" x="454.5" y="-266.5" font-family="Helvetica,sans-Serif" font-size="10.00">+ StopConnection()</text>
<text text-anchor="start" x="454.5" y="-255.5" font-family="Helvetica,sans-Serif" font-size="10.00">+ StopDownload()</text>
</a>
</g>
</g>
<!-- Node7&#45;&gt;Node3 -->
<g id="edge4" class="edge"><title>Node7&#45;&gt;Node3</title>
<path fill="none" stroke="#404040" d="M541.499,-248.412C545.488,-236.808 549.668,-224.648 553.843,-212.503"/>
<polygon fill="none" stroke="#404040" points="553.936,-212.232 552.104,-205.257 557.837,-200.883 559.669,-207.858 553.936,-212.232"/>
<text text-anchor="middle" x="589.5" y="-222" font-family="Helvetica,sans-Serif" font-size="10.00"> &#45;IrcClientHandler</text>
</g>
<!-- Node8 -->
<g id="node6" class="node"><title>Node8</title>
<g id="a_node6"><a xlink:href="interface_little_weeb_library_1_1_handlers_1_1_i_web_socket_handler.html" target="_top" xlink:title="{LittleWeebLibrary.Handlers.\lIWebSocketHandler\n||+ SendMessage()\l+ StartServer()\l+ StopServer()\l}">
<polygon fill="white" stroke="black" points="601.5,-281.5 601.5,-371.5 738.5,-371.5 738.5,-281.5 601.5,-281.5"/>
<text text-anchor="start" x="609.5" y="-359.5" font-family="Helvetica,sans-Serif" font-size="10.00">LittleWeebLibrary.Handlers.</text>
<text text-anchor="middle" x="670" y="-348.5" font-family="Helvetica,sans-Serif" font-size="10.00">IWebSocketHandler</text>
<polyline fill="none" stroke="black" points="601.5,-341.5 738.5,-341.5 "/>
<text text-anchor="middle" x="670" y="-329.5" font-family="Helvetica,sans-Serif" font-size="10.00"> </text>
<polyline fill="none" stroke="black" points="601.5,-322.5 738.5,-322.5 "/>
<text text-anchor="start" x="609.5" y="-310.5" font-family="Helvetica,sans-Serif" font-size="10.00">+ SendMessage()</text>
<text text-anchor="start" x="609.5" y="-299.5" font-family="Helvetica,sans-Serif" font-size="10.00">+ StartServer()</text>
<text text-anchor="start" x="609.5" y="-288.5" font-family="Helvetica,sans-Serif" font-size="10.00">+ StopServer()</text>
</a>
</g>
</g>
<!-- Node8&#45;&gt;Node3 -->
<g id="edge5" class="edge"><title>Node8&#45;&gt;Node3</title>
<path fill="none" stroke="#404040" d="M654.59,-281.245C647.652,-261.322 639.12,-236.819 630.612,-212.386"/>
<polygon fill="none" stroke="#404040" points="630.525,-212.134 624.774,-207.783 626.578,-200.802 632.329,-205.153 630.525,-212.134"/>
<text text-anchor="middle" x="681.5" y="-222" font-family="Helvetica,sans-Serif" font-size="10.00"> &#45;WebSocketHandler</text>
</g>
<!-- Node9 -->
<g id="node7" class="node"><title>Node9</title>
<g id="a_node7"><a xlink:href="class_little_weeb_library_1_1_settings_1_1_little_weeb_settings.html" target="_top" xlink:title="{LittleWeebLibrary.Settings.\lLittleWeebSettings\n|+ CurrentlyAiringBot\l+ DebugLevel\l+ DebugType\l+ Local\l+ MaxDebugLogSize\l+ Port\l+ RandomUsernameLength\l|+ ToString()\l}">
<polygon fill="white" stroke="black" points="756.5,-259.5 756.5,-393.5 891.5,-393.5 891.5,-259.5 756.5,-259.5"/>
<text text-anchor="start" x="764.5" y="-381.5" font-family="Helvetica,sans-Serif" font-size="10.00">LittleWeebLibrary.Settings.</text>
<text text-anchor="middle" x="824" y="-370.5" font-family="Helvetica,sans-Serif" font-size="10.00">LittleWeebSettings</text>
<polyline fill="none" stroke="black" points="756.5,-363.5 891.5,-363.5 "/>
<text text-anchor="start" x="764.5" y="-351.5" font-family="Helvetica,sans-Serif" font-size="10.00">+ CurrentlyAiringBot</text>
<text text-anchor="start" x="764.5" y="-340.5" font-family="Helvetica,sans-Serif" font-size="10.00">+ DebugLevel</text>
<text text-anchor="start" x="764.5" y="-329.5" font-family="Helvetica,sans-Serif" font-size="10.00">+ DebugType</text>
<text text-anchor="start" x="764.5" y="-318.5" font-family="Helvetica,sans-Serif" font-size="10.00">+ Local</text>
<text text-anchor="start" x="764.5" y="-307.5" font-family="Helvetica,sans-Serif" font-size="10.00">+ MaxDebugLogSize</text>
<text text-anchor="start" x="764.5" y="-296.5" font-family="Helvetica,sans-Serif" font-size="10.00">+ Port</text>
<text text-anchor="start" x="764.5" y="-285.5" font-family="Helvetica,sans-Serif" font-size="10.00">+ RandomUsernameLength</text>
<polyline fill="none" stroke="black" points="756.5,-278.5 891.5,-278.5 "/>
<text text-anchor="start" x="764.5" y="-266.5" font-family="Helvetica,sans-Serif" font-size="10.00">+ ToString()</text>
</a>
</g>
</g>
<!-- Node9&#45;&gt;Node3 -->
<g id="edge6" class="edge"><title>Node9&#45;&gt;Node3</title>
<path fill="none" stroke="#404040" d="M768.954,-259.309C756.822,-245.629 743.772,-231.569 731,-219 717.198,-205.418 702.039,-191.605 686.963,-178.451"/>
<polygon fill="none" stroke="#404040" points="686.676,-178.203 679.522,-177.304 677.6,-170.353 684.755,-171.253 686.676,-178.203"/>
<text text-anchor="middle" x="786.5" y="-222" font-family="Helvetica,sans-Serif" font-size="10.00"> &#45;LittleWeebSettings</text>
</g>
<!-- Node10 -->
<g id="node8" class="node"><title>Node10</title>
<g id="a_node8"><a xlink:href="interface_little_weeb_library_1_1_handlers_1_1_i_settings_handler.html" target="_top" xlink:title="{LittleWeebLibrary.Handlers.\lISettingsHandler\n||+ GetIrcSettings()\l+ GetLittleWeebSettings()\l+ WriteIrcSettings()\l+ WriteLittleWeebSettings()\l}">
<polygon fill="white" stroke="black" points="909.5,-276 909.5,-377 1046.5,-377 1046.5,-276 909.5,-276"/>
<text text-anchor="start" x="917.5" y="-365" font-family="Helvetica,sans-Serif" font-size="10.00">LittleWeebLibrary.Handlers.</text>
<text text-anchor="middle" x="978" y="-354" font-family="Helvetica,sans-Serif" font-size="10.00">ISettingsHandler</text>
<polyline fill="none" stroke="black" points="909.5,-347 1046.5,-347 "/>
<text text-anchor="middle" x="978" y="-335" font-family="Helvetica,sans-Serif" font-size="10.00"> </text>
<polyline fill="none" stroke="black" points="909.5,-328 1046.5,-328 "/>
<text text-anchor="start" x="917.5" y="-316" font-family="Helvetica,sans-Serif" font-size="10.00">+ GetIrcSettings()</text>
<text text-anchor="start" x="917.5" y="-305" font-family="Helvetica,sans-Serif" font-size="10.00">+ GetLittleWeebSettings()</text>
<text text-anchor="start" x="917.5" y="-294" font-family="Helvetica,sans-Serif" font-size="10.00">+ WriteIrcSettings()</text>
<text text-anchor="start" x="917.5" y="-283" font-family="Helvetica,sans-Serif" font-size="10.00">+ WriteLittleWeebSettings()</text>
</a>
</g>
</g>
<!-- Node10&#45;&gt;Node3 -->
<g id="edge7" class="edge"><title>Node10&#45;&gt;Node3</title>
<path fill="none" stroke="#404040" d="M932.883,-275.604C922.637,-265.765 911.397,-256.018 900,-248 834.326,-201.798 751.805,-163.436 688.712,-137.572"/>
<polygon fill="none" stroke="#404040" points="688.685,-137.561 681.622,-139.012 677.566,-133.05 684.629,-131.599 688.685,-137.561"/>
<text text-anchor="middle" x="908" y="-222" font-family="Helvetica,sans-Serif" font-size="10.00"> &#45;SettingsHandler</text>
</g>
<!-- Node11 -->
<g id="node9" class="node"><title>Node11</title>
<g id="a_node9"><a xlink:href="class_little_weeb_library_1_1_settings_1_1_irc_settings.html" target="_top" xlink:title="{LittleWeebLibrary.Settings.\lIrcSettings\n|+ Channels\l+ fullfilepath\l+ Port\l+ Secure\l+ ServerAddress\l+ UserName\l|+ ToString()\l}">
<polygon fill="white" stroke="black" points="1065,-265 1065,-388 1199,-388 1199,-265 1065,-265"/>
<text text-anchor="start" x="1073" y="-376" font-family="Helvetica,sans-Serif" font-size="10.00">LittleWeebLibrary.Settings.</text>
<text text-anchor="middle" x="1132" y="-365" font-family="Helvetica,sans-Serif" font-size="10.00">IrcSettings</text>
<polyline fill="none" stroke="black" points="1065,-358 1199,-358 "/>
<text text-anchor="start" x="1073" y="-346" font-family="Helvetica,sans-Serif" font-size="10.00">+ Channels</text>
<text text-anchor="start" x="1073" y="-335" font-family="Helvetica,sans-Serif" font-size="10.00">+ fullfilepath</text>
<text text-anchor="start" x="1073" y="-324" font-family="Helvetica,sans-Serif" font-size="10.00">+ Port</text>
<text text-anchor="start" x="1073" y="-313" font-family="Helvetica,sans-Serif" font-size="10.00">+ Secure</text>
<text text-anchor="start" x="1073" y="-302" font-family="Helvetica,sans-Serif" font-size="10.00">+ ServerAddress</text>
<text text-anchor="start" x="1073" y="-291" font-family="Helvetica,sans-Serif" font-size="10.00">+ UserName</text>
<polyline fill="none" stroke="black" points="1065,-284 1199,-284 "/>
<text text-anchor="start" x="1073" y="-272" font-family="Helvetica,sans-Serif" font-size="10.00">+ ToString()</text>
</a>
</g>
</g>
<!-- Node11&#45;&gt;Node3 -->
<g id="edge8" class="edge"><title>Node11&#45;&gt;Node3</title>
<path fill="none" stroke="#404040" d="M1077.95,-264.921C1070.65,-258.664 1062.94,-252.838 1055,-248 939.772,-177.742 787.62,-138.068 689.772,-118.2"/>
<polygon fill="none" stroke="#404040" points="689.587,-118.163 682.92,-120.912 677.818,-115.816 684.485,-113.067 689.587,-118.163"/>
<text text-anchor="middle" x="1047.5" y="-222" font-family="Helvetica,sans-Serif" font-size="10.00"> &#45;IrcSettings</text>
</g>
</g>
</svg>
        <g id="navigator" transform="translate(0 0)" fill="#404254">
                <rect fill="#f2f5e9" fill-opacity="0.5" stroke="#606060" stroke-width=".5" x="0" y="0" width="60" height="60"/>
                <use id="zoomplus" xlink:href="#zoomPlus" x="17" y="9" onmousedown="handleZoom(evt,'in')"/>
                <use id="zoomminus" xlink:href="#zoomMin" x="42" y="9" onmousedown="handleZoom(evt,'out')"/>
                <use id="reset" xlink:href="#resetDef" x="30" y="36" onmousedown="handleReset()"/>
                <g id="arrowUp" xlink:href="#dirArrow" transform="translate(30 24)" onmousedown="handlePan(0,-1)">
                  <use xlink:href="#rim" fill="#404040">
                        <set attributeName="fill" to="#808080" begin="arrowUp.mouseover" end="arrowUp.mouseout"/>
                  </use>
                  <path fill="none" stroke="white" stroke-width="1.5" d="M0,-3.0v7 M-2.5,-0.5L0,-3.0L2.5,-0.5"/>
                </g>
                <g id="arrowRight" xlink:href="#dirArrow" transform="rotate(90) translate(36 -43)" onmousedown="handlePan(1,0)">
                  <use xlink:href="#rim" fill="#404040">
                        <set attributeName="fill" to="#808080" begin="arrowRight.mouseover" end="arrowRight.mouseout"/>
                  </use>
                  <path fill="none" stroke="white" stroke-width="1.5" d="M0,-3.0v7 M-2.5,-0.5L0,-3.0L2.5,-0.5"/>
                </g>
                <g id="arrowDown" xlink:href="#dirArrow" transform="rotate(180) translate(-30 -48)" onmousedown="handlePan(0,1)">
                  <use xlink:href="#rim" fill="#404040">
                        <set attributeName="fill" to="#808080" begin="arrowDown.mouseover" end="arrowDown.mouseout"/>
                  </use>
                  <path fill="none" stroke="white" stroke-width="1.5" d="M0,-3.0v7 M-2.5,-0.5L0,-3.0L2.5,-0.5"/>
                </g>
                <g id="arrowLeft" xlink:href="#dirArrow" transform="rotate(270) translate(-36 17)" onmousedown="handlePan(-1,0)">
                  <use xlink:href="#rim" fill="#404040">
                        <set attributeName="fill" to="#808080" begin="arrowLeft.mouseover" end="arrowLeft.mouseout"/>
                  </use>
                  <path fill="none" stroke="white" stroke-width="1.5" d="M0,-3.0v7 M-2.5,-0.5L0,-3.0L2.5,-0.5"/>
                </g>
        </g>
        <svg viewBox="0 0 15 15" width="100%" height="30px" preserveAspectRatio="xMaxYMin meet">
         <g id="arrow_out" transform="scale(0.3 0.3)">
          <a xlink:href="class_little_weeb_library_1_1_services_1_1_irc_web_socket_service__coll__graph_org.svg" target="_base">
           <rect id="button" ry="5" rx="5" y="6" x="6" height="38" width="38"
                fill="#f2f5e9" fill-opacity="0.5" stroke="#606060" stroke-width="1.0"/>
           <path id="arrow"
             d="M 11.500037,31.436501 C 11.940474,20.09759 22.043105,11.32322 32.158766,21.979434 L 37.068811,17.246167 C 37.068811,17.246167 37.088388,32 37.088388,32 L 22.160133,31.978069 C 22.160133,31.978069 26.997745,27.140456 26.997745,27.140456 C 18.528582,18.264221 13.291696,25.230495 11.500037,31.436501 z"
             style="fill:#404040;"/>
          </a>
         </g>
        </svg>
</svg>
