<?xml version="1.0" encoding="UTF-8" standalone="no"?>
<!DOCTYPE svg PUBLIC "-//W3C//DTD SVG 1.1//EN"
 "http://www.w3.org/Graphics/SVG/1.1/DTD/svg11.dtd">
<!-- Generated by graphviz version 2.38.0 (20140413.2041)
 -->
<!-- Title: LittleWeebLibrary.Handlers.IrcClientHandler Pages: 1 -->
<svg width="872pt" height="457pt"
 viewBox="0.00 0.00 871.50 457.00" xmlns="http://www.w3.org/2000/svg" xmlns:xlink="http://www.w3.org/1999/xlink">
<g id="graph0" class="graph" transform="scale(1 1) rotate(0) translate(4 453)">
<title>LittleWeebLibrary.Handlers.IrcClientHandler</title>
<polygon fill="white" stroke="none" points="-4,4 -4,-453 867.5,-453 867.5,4 -4,4"/>
<!-- Node3 -->
<g id="node1" class="node"><title>Node3</title>
<polygon fill="#bfbfbf" stroke="black" points="340.5,-0.5 340.5,-255.5 482.5,-255.5 482.5,-0.5 340.5,-0.5"/>
<text text-anchor="start" x="348.5" y="-243.5" font-family="Helvetica,sans-Serif" font-size="10.00">LittleWeebLibrary.Handlers.</text>
<text text-anchor="middle" x="411.5" y="-232.5" font-family="Helvetica,sans-Serif" font-size="10.00">IrcClientHandler</text>
<polyline fill="none" stroke="black" points="340.5,-225.5 482.5,-225.5 "/>
<text text-anchor="start" x="348.5" y="-213.5" font-family="Helvetica,sans-Serif" font-size="10.00">&#45; IrcClient</text>
<text text-anchor="start" x="348.5" y="-202.5" font-family="Helvetica,sans-Serif" font-size="10.00">&#45; IsConnectedBool</text>
<polyline fill="none" stroke="black" points="340.5,-195.5 482.5,-195.5 "/>
<text text-anchor="start" x="348.5" y="-183.5" font-family="Helvetica,sans-Serif" font-size="10.00">+ IrcClientHandler()</text>
<text text-anchor="start" x="348.5" y="-172.5" font-family="Helvetica,sans-Serif" font-size="10.00">+ CurrentSettings()</text>
<text text-anchor="start" x="348.5" y="-161.5" font-family="Helvetica,sans-Serif" font-size="10.00">+ IsConnected()</text>
<text text-anchor="start" x="348.5" y="-150.5" font-family="Helvetica,sans-Serif" font-size="10.00">+ IsDownloading()</text>
<text text-anchor="start" x="348.5" y="-139.5" font-family="Helvetica,sans-Serif" font-size="10.00">+ SendMessage()</text>
<text text-anchor="start" x="348.5" y="-128.5" font-family="Helvetica,sans-Serif" font-size="10.00">+ Setfullfilepath()</text>
<text text-anchor="start" x="348.5" y="-117.5" font-family="Helvetica,sans-Serif" font-size="10.00">+ SetIrcSettings()</text>
<text text-anchor="start" x="348.5" y="-106.5" font-family="Helvetica,sans-Serif" font-size="10.00">+ SetLittleWeebSettings()</text>
<text text-anchor="start" x="348.5" y="-95.5" font-family="Helvetica,sans-Serif" font-size="10.00">+ StartConnection()</text>
<text text-anchor="start" x="348.5" y="-84.5" font-family="Helvetica,sans-Serif" font-size="10.00">+ StartDownload()</text>
<text text-anchor="start" x="348.5" y="-73.5" font-family="Helvetica,sans-Serif" font-size="10.00">+ StopConnection()</text>
<text text-anchor="start" x="348.5" y="-62.5" font-family="Helvetica,sans-Serif" font-size="10.00">+ StopDownload()</text>
<text text-anchor="start" x="348.5" y="-51.5" font-family="Helvetica,sans-Serif" font-size="10.00">&#45; OnDownloadUpdate()</text>
<text text-anchor="start" x="348.5" y="-40.5" font-family="Helvetica,sans-Serif" font-size="10.00">&#45; OnDownloadUpdateDebug()</text>
<text text-anchor="start" x="348.5" y="-29.5" font-family="Helvetica,sans-Serif" font-size="10.00">&#45; OnMessage()</text>
<text text-anchor="start" x="348.5" y="-18.5" font-family="Helvetica,sans-Serif" font-size="10.00">&#45; OnMessageDebug()</text>
<text text-anchor="start" x="348.5" y="-7.5" font-family="Helvetica,sans-Serif" font-size="10.00">&#45; OnUserListUpdate()</text>
</g>
<!-- Node4 -->
<g id="node2" class="node"><title>Node4</title>
<g id="a_node2"><a xlink:href="interface_little_weeb_library_1_1_handlers_1_1_i_irc_client_handler.html" target="_top" xlink:title="{IIrcClientHandler\n||+ CurrentSettings()\l+ IsConnected()\l+ IsDownloading()\l+ SendMessage()\l+ Setfullfilepath()\l+ StartConnection()\l+ StartDownload()\l+ StopConnection()\l+ StopDownload()\l}">
<polygon fill="white" stroke="black" points="0,-303.5 0,-448.5 101,-448.5 101,-303.5 0,-303.5"/>
<text text-anchor="middle" x="50.5" y="-436.5" font-family="Helvetica,sans-Serif" font-size="10.00">IIrcClientHandler</text>
<polyline fill="none" stroke="black" points="0,-429.5 101,-429.5 "/>
<text text-anchor="middle" x="50.5" y="-417.5" font-family="Helvetica,sans-Serif" font-size="10.00"> </text>
<polyline fill="none" stroke="black" points="0,-410.5 101,-410.5 "/>
<text text-anchor="start" x="8" y="-398.5" font-family="Helvetica,sans-Serif" font-size="10.00">+ CurrentSettings()</text>
<text text-anchor="start" x="8" y="-387.5" font-family="Helvetica,sans-Serif" font-size="10.00">+ IsConnected()</text>
<text text-anchor="start" x="8" y="-376.5" font-family="Helvetica,sans-Serif" font-size="10.00">+ IsDownloading()</text>
<text text-anchor="start" x="8" y="-365.5" font-family="Helvetica,sans-Serif" font-size="10.00">+ SendMessage()</text>
<text text-anchor="start" x="8" y="-354.5" font-family="Helvetica,sans-Serif" font-size="10.00">+ Setfullfilepath()</text>
<text text-anchor="start" x="8" y="-343.5" font-family="Helvetica,sans-Serif" font-size="10.00">+ StartConnection()</text>
<text text-anchor="start" x="8" y="-332.5" font-family="Helvetica,sans-Serif" font-size="10.00">+ StartDownload()</text>
<text text-anchor="start" x="8" y="-321.5" font-family="Helvetica,sans-Serif" font-size="10.00">+ StopConnection()</text>
<text text-anchor="start" x="8" y="-310.5" font-family="Helvetica,sans-Serif" font-size="10.00">+ StopDownload()</text>
</a>
</g>
</g>
<!-- Node4&#45;&gt;Node3 -->
<g id="edge1" class="edge"><title>Node4&#45;&gt;Node3</title>
<path fill="none" stroke="midnightblue" d="M108.704,-303.68C108.969,-303.452 109.234,-303.225 109.5,-303 180.792,-242.523 276.03,-191.667 340.344,-160.847"/>
<polygon fill="none" stroke="midnightblue" points="106.135,-301.286 101.113,-310.615 110.856,-306.454 106.135,-301.286"/>
</g>
<!-- Node5 -->
<g id="node3" class="node"><title>Node5</title>
<g id="a_node3"><a xlink:href="interface_little_weeb_library_1_1_global_interfaces_1_1_i_settings_interface.html" target="_top" xlink:title="{ISettingsInterface\n||+ SetIrcSettings()\l+ SetLittleWeebSettings()\l}">
<polygon fill="white" stroke="black" points="119,-342 119,-410 248,-410 248,-342 119,-342"/>
<text text-anchor="middle" x="183.5" y="-398" font-family="Helvetica,sans-Serif" font-size="10.00">ISettingsInterface</text>
<polyline fill="none" stroke="black" points="119,-391 248,-391 "/>
<text text-anchor="middle" x="183.5" y="-379" font-family="Helvetica,sans-Serif" font-size="10.00"> </text>
<polyline fill="none" stroke="black" points="119,-372 248,-372 "/>
<text text-anchor="start" x="127" y="-360" font-family="Helvetica,sans-Serif" font-size="10.00">+ SetIrcSettings()</text>
<text text-anchor="start" x="127" y="-349" font-family="Helvetica,sans-Serif" font-size="10.00">+ SetLittleWeebSettings()</text>
</a>
</g>
</g>
<!-- Node5&#45;&gt;Node3 -->
<g id="edge2" class="edge"><title>Node5&#45;&gt;Node3</title>
<path fill="none" stroke="midnightblue" d="M221.309,-334.206C253.606,-299.359 300.951,-248.276 340.323,-205.796"/>
<polygon fill="none" stroke="midnightblue" points="218.48,-332.11 214.249,-341.823 223.614,-336.868 218.48,-332.11"/>
</g>
<!-- Node6 -->
<g id="node4" class="node"><title>Node6</title>
<g id="a_node4"><a xlink:href="interface_little_weeb_library_1_1_handlers_1_1_i_debug_handler.html" target="_top" xlink:title="{LittleWeebLibrary.Handlers.\lIDebugHandler\n||+ SetSettings()\l+ StopDebugger()\l+ TraceMessage()\l}">
<polygon fill="white" stroke="black" points="266,-331 266,-421 403,-421 403,-331 266,-331"/>
<text text-anchor="start" x="274" y="-409" font-family="Helvetica,sans-Serif" font-size="10.00">LittleWeebLibrary.Handlers.</text>
<text text-anchor="middle" x="334.5" y="-398" font-family="Helvetica,sans-Serif" font-size="10.00">IDebugHandler</text>
<polyline fill="none" stroke="black" points="266,-391 403,-391 "/>
<text text-anchor="middle" x="334.5" y="-379" font-family="Helvetica,sans-Serif" font-size="10.00"> </text>
<polyline fill="none" stroke="black" points="266,-372 403,-372 "/>
<text text-anchor="start" x="274" y="-360" font-family="Helvetica,sans-Serif" font-size="10.00">+ SetSettings()</text>
<text text-anchor="start" x="274" y="-349" font-family="Helvetica,sans-Serif" font-size="10.00">+ StopDebugger()</text>
<text text-anchor="start" x="274" y="-338" font-family="Helvetica,sans-Serif" font-size="10.00">+ TraceMessage()</text>
</a>
</g>
</g>
<!-- Node6&#45;&gt;Node3 -->
<g id="edge3" class="edge"><title>Node6&#45;&gt;Node3</title>
<path fill="none" stroke="#404040" d="M348.355,-330.736C354.059,-312.512 361.009,-290.31 368.185,-267.384"/>
<polygon fill="none" stroke="#404040" points="368.252,-267.169 366.227,-260.248 371.837,-255.717 373.862,-262.638 368.252,-267.169"/>
<text text-anchor="middle" x="400" y="-277" font-family="Helvetica,sans-Serif" font-size="10.00"> &#45;DebugHandler</text>
</g>
<!-- Node7 -->
<g id="node5" class="node"><title>Node7</title>
<g id="a_node5"><a xlink:href="class_little_weeb_library_1_1_settings_1_1_little_weeb_settings.html" target="_top" xlink:title="{LittleWeebLibrary.Settings.\lLittleWeebSettings\n|+ CurrentlyAiringBot\l+ DebugLevel\l+ DebugType\l+ Local\l+ MaxDebugLogSize\l+ Port\l+ RandomUsernameLength\l|+ ToString()\l}">
<polygon fill="white" stroke="black" points="421,-309 421,-443 556,-443 556,-309 421,-309"/>
<text text-anchor="start" x="429" y="-431" font-family="Helvetica,sans-Serif" font-size="10.00">LittleWeebLibrary.Settings.</text>
<text text-anchor="middle" x="488.5" y="-420" font-family="Helvetica,sans-Serif" font-size="10.00">LittleWeebSettings</text>
<polyline fill="none" stroke="black" points="421,-413 556,-413 "/>
<text text-anchor="start" x="429" y="-401" font-family="Helvetica,sans-Serif" font-size="10.00">+ CurrentlyAiringBot</text>
<text text-anchor="start" x="429" y="-390" font-family="Helvetica,sans-Serif" font-size="10.00">+ DebugLevel</text>
<text text-anchor="start" x="429" y="-379" font-family="Helvetica,sans-Serif" font-size="10.00">+ DebugType</text>
<text text-anchor="start" x="429" y="-368" font-family="Helvetica,sans-Serif" font-size="10.00">+ Local</text>
<text text-anchor="start" x="429" y="-357" font-family="Helvetica,sans-Serif" font-size="10.00">+ MaxDebugLogSize</text>
<text text-anchor="start" x="429" y="-346" font-family="Helvetica,sans-Serif" font-size="10.00">+ Port</text>
<text text-anchor="start" x="429" y="-335" font-family="Helvetica,sans-Serif" font-size="10.00">+ RandomUsernameLength</text>
<polyline fill="none" stroke="black" points="421,-328 556,-328 "/>
<text text-anchor="start" x="429" y="-316" font-family="Helvetica,sans-Serif" font-size="10.00">+ ToString()</text>
</a>
</g>
</g>
<!-- Node7&#45;&gt;Node3 -->
<g id="edge4" class="edge"><title>Node7&#45;&gt;Node3</title>
<path fill="none" stroke="#404040" d="M467.764,-308.753C463.687,-295.727 459.269,-281.614 454.764,-267.219"/>
<polygon fill="none" stroke="#404040" points="454.72,-267.08 449.111,-262.549 451.136,-255.628 456.745,-260.16 454.72,-267.08"/>
<text text-anchor="middle" x="504" y="-277" font-family="Helvetica,sans-Serif" font-size="10.00"> &#45;LittleWeebSettings</text>
</g>
<!-- Node8 -->
<g id="node6" class="node"><title>Node8</title>
<g id="a_node6"><a xlink:href="interface_little_weeb_library_1_1_handlers_1_1_i_settings_handler.html" target="_top" xlink:title="{LittleWeebLibrary.Handlers.\lISettingsHandler\n||+ GetIrcSettings()\l+ GetLittleWeebSettings()\l+ WriteIrcSettings()\l+ WriteLittleWeebSettings()\l}">
<polygon fill="white" stroke="black" points="574,-325.5 574,-426.5 711,-426.5 711,-325.5 574,-325.5"/>
<text text-anchor="start" x="582" y="-414.5" font-family="Helvetica,sans-Serif" font-size="10.00">LittleWeebLibrary.Handlers.</text>
<text text-anchor="middle" x="642.5" y="-403.5" font-family="Helvetica,sans-Serif" font-size="10.00">ISettingsHandler</text>
<polyline fill="none" stroke="black" points="574,-396.5 711,-396.5 "/>
<text text-anchor="middle" x="642.5" y="-384.5" font-family="Helvetica,sans-Serif" font-size="10.00"> </text>
<polyline fill="none" stroke="black" points="574,-377.5 711,-377.5 "/>
<text text-anchor="start" x="582" y="-365.5" font-family="Helvetica,sans-Serif" font-size="10.00">+ GetIrcSettings()</text>
<text text-anchor="start" x="582" y="-354.5" font-family="Helvetica,sans-Serif" font-size="10.00">+ GetLittleWeebSettings()</text>
<text text-anchor="start" x="582" y="-343.5" font-family="Helvetica,sans-Serif" font-size="10.00">+ WriteIrcSettings()</text>
<text text-anchor="start" x="582" y="-332.5" font-family="Helvetica,sans-Serif" font-size="10.00">+ WriteLittleWeebSettings()</text>
</a>
</g>
</g>
<!-- Node8&#45;&gt;Node3 -->
<g id="edge5" class="edge"><title>Node8&#45;&gt;Node3</title>
<path fill="none" stroke="#404040" d="M598.98,-325.296C584.36,-308.832 567.863,-290.503 552.5,-274 532.926,-252.974 511.462,-230.578 491.316,-209.835"/>
<polygon fill="none" stroke="#404040" points="491.141,-209.655 484.09,-208.144 482.772,-201.055 489.823,-202.565 491.141,-209.655"/>
<text text-anchor="middle" x="600.5" y="-277" font-family="Helvetica,sans-Serif" font-size="10.00"> &#45;SettingsHandler</text>
</g>
<!-- Node9 -->
<g id="node7" class="node"><title>Node9</title>
<g id="a_node7"><a xlink:href="class_little_weeb_library_1_1_settings_1_1_irc_settings.html" target="_top" xlink:title="{LittleWeebLibrary.Settings.\lIrcSettings\n|+ Channels\l+ fullfilepath\l+ Port\l+ Secure\l+ ServerAddress\l+ UserName\l|+ ToString()\l}">
<polygon fill="white" stroke="black" points="729.5,-314.5 729.5,-437.5 863.5,-437.5 863.5,-314.5 729.5,-314.5"/>
<text text-anchor="start" x="737.5" y="-425.5" font-family="Helvetica,sans-Serif" font-size="10.00">LittleWeebLibrary.Settings.</text>
<text text-anchor="middle" x="796.5" y="-414.5" font-family="Helvetica,sans-Serif" font-size="10.00">IrcSettings</text>
<polyline fill="none" stroke="black" points="729.5,-407.5 863.5,-407.5 "/>
<text text-anchor="start" x="737.5" y="-395.5" font-family="Helvetica,sans-Serif" font-size="10.00">+ Channels</text>
<text text-anchor="start" x="737.5" y="-384.5" font-family="Helvetica,sans-Serif" font-size="10.00">+ fullfilepath</text>
<text text-anchor="start" x="737.5" y="-373.5" font-family="Helvetica,sans-Serif" font-size="10.00">+ Port</text>
<text text-anchor="start" x="737.5" y="-362.5" font-family="Helvetica,sans-Serif" font-size="10.00">+ Secure</text>
<text text-anchor="start" x="737.5" y="-351.5" font-family="Helvetica,sans-Serif" font-size="10.00">+ ServerAddress</text>
<text text-anchor="start" x="737.5" y="-340.5" font-family="Helvetica,sans-Serif" font-size="10.00">+ UserName</text>
<polyline fill="none" stroke="black" points="729.5,-333.5 863.5,-333.5 "/>
<text text-anchor="start" x="737.5" y="-321.5" font-family="Helvetica,sans-Serif" font-size="10.00">+ ToString()</text>
</a>
</g>
</g>
<!-- Node9&#45;&gt;Node3 -->
<g id="edge6" class="edge"><title>Node9&#45;&gt;Node3</title>
<path fill="none" stroke="#404040" d="M734.093,-314.414C729.263,-310.421 724.369,-306.573 719.5,-303 647.3,-250.021 557.424,-200.943 493.432,-168.511"/>
<polygon fill="none" stroke="#404040" points="493.311,-168.45 486.153,-169.323 482.594,-163.052 489.752,-162.179 493.311,-168.45"/>
<text text-anchor="middle" x="715" y="-277" font-family="Helvetica,sans-Serif" font-size="10.00"> &#45;IrcSettings</text>
</g>
</g>
</svg>
