<?xml version="1.0" encoding="UTF-8" standalone="no"?>
<!DOCTYPE svg PUBLIC "-//W3C//DTD SVG 1.1//EN"
 "http://www.w3.org/Graphics/SVG/1.1/DTD/svg11.dtd">
<!-- Generated by graphviz version 2.38.0 (20140413.2041)
 -->
<!-- Title: LittleWeebLibrary.Services.InfoApiWebSocketService.GetFilesForAnime Pages: 1 -->
<svg width="558pt" height="225pt"
 viewBox="0.00 0.00 558.00 225.00" xmlns="http://www.w3.org/2000/svg" xmlns:xlink="http://www.w3.org/1999/xlink">
<g id="graph0" class="graph" transform="scale(1 1) rotate(0) translate(4 221)">
<title>LittleWeebLibrary.Services.InfoApiWebSocketService.GetFilesForAnime</title>
<polygon fill="white" stroke="none" points="-4,4 -4,-221 554,-221 554,4 -4,4"/>
<!-- Node20 -->
<g id="node1" class="node"><title>Node20</title>
<polygon fill="#bfbfbf" stroke="black" points="0,-93 0,-134 168,-134 168,-93 0,-93"/>
<text text-anchor="start" x="8" y="-122" font-family="Helvetica,sans-Serif" font-size="10.00">LittleWeebLibrary.Services.</text>
<text text-anchor="start" x="8" y="-111" font-family="Helvetica,sans-Serif" font-size="10.00">InfoApiWebSocketService.GetFiles</text>
<text text-anchor="middle" x="84" y="-100" font-family="Helvetica,sans-Serif" font-size="10.00">ForAnime</text>
</g>
<!-- Node21 -->
<g id="node2" class="node"><title>Node21</title>
<g id="a_node2"><a xlink:href="class_little_weeb_library_1_1_handlers_1_1_nibl_handler.html#aa5fcae94d3322123b784078727a3db67" target="_top" xlink:title="LittleWeebLibrary.Handlers.\lNiblHandler.SearchNibl">
<polygon fill="white" stroke="black" points="218.5,-186.5 218.5,-216.5 355.5,-216.5 355.5,-186.5 218.5,-186.5"/>
<text text-anchor="start" x="226.5" y="-204.5" font-family="Helvetica,sans-Serif" font-size="10.00">LittleWeebLibrary.Handlers.</text>
<text text-anchor="middle" x="287" y="-193.5" font-family="Helvetica,sans-Serif" font-size="10.00">NiblHandler.SearchNibl</text>
</a>
</g>
</g>
<!-- Node20&#45;&gt;Node21 -->
<g id="edge1" class="edge"><title>Node20&#45;&gt;Node21</title>
<path fill="none" stroke="midnightblue" d="M124.466,-134.001C147.411,-145.6 177.034,-160.032 204,-171.5 213.207,-175.416 223.117,-179.306 232.755,-182.925"/>
<polygon fill="midnightblue" stroke="midnightblue" points="231.674,-186.256 242.267,-186.443 234.102,-179.691 231.674,-186.256"/>
</g>
<!-- Node22 -->
<g id="node3" class="node"><title>Node22</title>
<g id="a_node3"><a xlink:href="class_little_weeb_library_1_1_handlers_1_1_debug_handler.html#afccb37dfd6b2114af72000c2f4fe4607" target="_top" xlink:title="LittleWeebLibrary.Handlers.\lDebugHandler.TraceMessage">
<polygon fill="white" stroke="black" points="406,-142.5 406,-172.5 550,-172.5 550,-142.5 406,-142.5"/>
<text text-anchor="start" x="414" y="-160.5" font-family="Helvetica,sans-Serif" font-size="10.00">LittleWeebLibrary.Handlers.</text>
<text text-anchor="middle" x="478" y="-149.5" font-family="Helvetica,sans-Serif" font-size="10.00">DebugHandler.TraceMessage</text>
</a>
</g>
</g>
<!-- Node20&#45;&gt;Node22 -->
<g id="edge7" class="edge"><title>Node20&#45;&gt;Node22</title>
<path fill="none" stroke="midnightblue" d="M168.291,-132.512C180.229,-134.795 192.395,-136.885 204,-138.5 267.991,-147.405 341.03,-152.211 395.449,-154.76"/>
<polygon fill="midnightblue" stroke="midnightblue" points="395.583,-158.269 405.731,-155.225 395.9,-151.276 395.583,-158.269"/>
</g>
<!-- Node23 -->
<g id="node4" class="node"><title>Node23</title>
<g id="a_node4"><a xlink:href="class_little_weeb_library_1_1_handlers_1_1_web_socket_handler.html#a1de289d54d665a32c93478c68d3e6ad0" target="_top" xlink:title="LittleWeebLibrary.Handlers.\lWebSocketHandler.SendMessage">
<polygon fill="white" stroke="black" points="204,-98.5 204,-128.5 370,-128.5 370,-98.5 204,-98.5"/>
<text text-anchor="start" x="212" y="-116.5" font-family="Helvetica,sans-Serif" font-size="10.00">LittleWeebLibrary.Handlers.</text>
<text text-anchor="middle" x="287" y="-105.5" font-family="Helvetica,sans-Serif" font-size="10.00">WebSocketHandler.SendMessage</text>
</a>
</g>
</g>
<!-- Node20&#45;&gt;Node23 -->
<g id="edge3" class="edge"><title>Node20&#45;&gt;Node23</title>
<path fill="none" stroke="midnightblue" d="M168.205,-113.5C176.575,-113.5 185.109,-113.5 193.566,-113.5"/>
<polygon fill="midnightblue" stroke="midnightblue" points="193.828,-117 203.828,-113.5 193.828,-110 193.828,-117"/>
</g>
<!-- Node24 -->
<g id="node5" class="node"><title>Node24</title>
<g id="a_node5"><a xlink:href="class_little_weeb_library_1_1_models_1_1_json_nibl_search_result.html#a0d6ce8593661ae3dab31882c85b1cff7" target="_top" xlink:title="LittleWeebLibrary.Models.\lJsonNiblSearchResult.ToJson">
<polygon fill="white" stroke="black" points="214,-49.5 214,-79.5 360,-79.5 360,-49.5 214,-49.5"/>
<text text-anchor="start" x="222" y="-67.5" font-family="Helvetica,sans-Serif" font-size="10.00">LittleWeebLibrary.Models.</text>
<text text-anchor="middle" x="287" y="-56.5" font-family="Helvetica,sans-Serif" font-size="10.00">JsonNiblSearchResult.ToJson</text>
</a>
</g>
</g>
<!-- Node20&#45;&gt;Node24 -->
<g id="edge5" class="edge"><title>Node20&#45;&gt;Node24</title>
<path fill="none" stroke="midnightblue" d="M168.205,-93.2161C183.621,-89.4581 199.596,-85.5637 214.621,-81.901"/>
<polygon fill="midnightblue" stroke="midnightblue" points="215.455,-85.3002 224.341,-79.5312 213.797,-78.4993 215.455,-85.3002"/>
</g>
<!-- Node25 -->
<g id="node6" class="node"><title>Node25</title>
<g id="a_node6"><a xlink:href="class_little_weeb_library_1_1_models_1_1_json_error.html#ad7d5522c90119111d2e929f39e7f6d3c" target="_top" xlink:title="LittleWeebLibrary.Models.\lJsonError.ToString">
<polygon fill="white" stroke="black" points="222,-0.5 222,-30.5 352,-30.5 352,-0.5 222,-0.5"/>
<text text-anchor="start" x="230" y="-18.5" font-family="Helvetica,sans-Serif" font-size="10.00">LittleWeebLibrary.Models.</text>
<text text-anchor="middle" x="287" y="-7.5" font-family="Helvetica,sans-Serif" font-size="10.00">JsonError.ToString</text>
</a>
</g>
</g>
<!-- Node20&#45;&gt;Node25 -->
<g id="edge6" class="edge"><title>Node20&#45;&gt;Node25</title>
<path fill="none" stroke="midnightblue" d="M114.16,-92.6959C137.566,-76.7294 171.734,-55.0288 204,-40.5 209.089,-38.2085 214.447,-36.0519 219.885,-34.0399"/>
<polygon fill="midnightblue" stroke="midnightblue" points="221.451,-37.1992 229.721,-30.5764 219.126,-30.5966 221.451,-37.1992"/>
</g>
<!-- Node21&#45;&gt;Node22 -->
<g id="edge2" class="edge"><title>Node21&#45;&gt;Node22</title>
<path fill="none" stroke="midnightblue" d="M352.514,-186.481C368.543,-182.749 385.856,-178.719 402.328,-174.884"/>
<polygon fill="midnightblue" stroke="midnightblue" points="403.51,-178.203 412.456,-172.526 401.922,-171.385 403.51,-178.203"/>
</g>
<!-- Node23&#45;&gt;Node22 -->
<g id="edge4" class="edge"><title>Node23&#45;&gt;Node22</title>
<path fill="none" stroke="midnightblue" d="M352.514,-128.519C368.543,-132.251 385.856,-136.281 402.328,-140.116"/>
<polygon fill="midnightblue" stroke="midnightblue" points="401.922,-143.615 412.456,-142.474 403.51,-136.797 401.922,-143.615"/>
</g>
</g>
</svg>
