<?xml version="1.0" encoding="UTF-8" standalone="no"?>
<!DOCTYPE svg PUBLIC "-//W3C//DTD SVG 1.1//EN"
 "http://www.w3.org/Graphics/SVG/1.1/DTD/svg11.dtd">
<!-- Generated by graphviz version 2.38.0 (20140413.2041)
 -->
<!-- Title: LittleWeebLibrary.Services.DownloadWebSocketService.GetCurrentFileHistory Pages: 1 -->
<svg width="821pt" height="205pt"
 viewBox="0.00 0.00 821.00 205.00" xmlns="http://www.w3.org/2000/svg" xmlns:xlink="http://www.w3.org/1999/xlink">
<g id="graph0" class="graph" transform="scale(1 1) rotate(0) translate(4 201)">
<title>LittleWeebLibrary.Services.DownloadWebSocketService.GetCurrentFileHistory</title>
<polygon fill="white" stroke="none" points="-4,4 -4,-201 817,-201 817,4 -4,4"/>
<!-- Node28 -->
<g id="node1" class="node"><title>Node28</title>
<polygon fill="#bfbfbf" stroke="black" points="0,-39 0,-80 191,-80 191,-39 0,-39"/>
<text text-anchor="start" x="8" y="-68" font-family="Helvetica,sans-Serif" font-size="10.00">LittleWeebLibrary.Services.</text>
<text text-anchor="start" x="8" y="-57" font-family="Helvetica,sans-Serif" font-size="10.00">DownloadWebSocketService.GetCurrent</text>
<text text-anchor="middle" x="95.5" y="-46" font-family="Helvetica,sans-Serif" font-size="10.00">FileHistory</text>
</g>
<!-- Node29 -->
<g id="node2" class="node"><title>Node29</title>
<g id="a_node2"><a xlink:href="class_little_weeb_library_1_1_handlers_1_1_file_history_handler.html#a7e5a72e2cfdc3dfe97066cc7504b4445" target="_top" xlink:title="LittleWeebLibrary.Handlers.\lFileHistoryHandler.GetCurrentFile\lHistory">
<polygon fill="white" stroke="black" points="227,-88 227,-129 389,-129 389,-88 227,-88"/>
<text text-anchor="start" x="235" y="-117" font-family="Helvetica,sans-Serif" font-size="10.00">LittleWeebLibrary.Handlers.</text>
<text text-anchor="start" x="235" y="-106" font-family="Helvetica,sans-Serif" font-size="10.00">FileHistoryHandler.GetCurrentFile</text>
<text text-anchor="middle" x="308" y="-95" font-family="Helvetica,sans-Serif" font-size="10.00">History</text>
</a>
</g>
</g>
<!-- Node28&#45;&gt;Node29 -->
<g id="edge1" class="edge"><title>Node28&#45;&gt;Node29</title>
<path fill="none" stroke="midnightblue" d="M184.856,-80.0674C195.538,-82.5539 206.457,-85.0958 217.16,-87.5871"/>
<polygon fill="midnightblue" stroke="midnightblue" points="216.382,-90.9994 226.915,-89.8578 217.969,-84.1817 216.382,-90.9994"/>
</g>
<!-- Node32 -->
<g id="node5" class="node"><title>Node32</title>
<g id="a_node5"><a xlink:href="class_little_weeb_library_1_1_handlers_1_1_debug_handler.html#afccb37dfd6b2114af72000c2f4fe4607" target="_top" xlink:title="LittleWeebLibrary.Handlers.\lDebugHandler.TraceMessage">
<polygon fill="white" stroke="black" points="648,-52.5 648,-82.5 792,-82.5 792,-52.5 648,-52.5"/>
<text text-anchor="start" x="656" y="-70.5" font-family="Helvetica,sans-Serif" font-size="10.00">LittleWeebLibrary.Handlers.</text>
<text text-anchor="middle" x="720" y="-59.5" font-family="Helvetica,sans-Serif" font-size="10.00">DebugHandler.TraceMessage</text>
</a>
</g>
</g>
<!-- Node28&#45;&gt;Node32 -->
<g id="edge9" class="edge"><title>Node28&#45;&gt;Node32</title>
<path fill="none" stroke="midnightblue" d="M191.044,-60.715C312.872,-62.2807 522.636,-64.9764 637.672,-66.4548"/>
<polygon fill="midnightblue" stroke="midnightblue" points="637.779,-69.9564 647.824,-66.5853 637.869,-62.957 637.779,-69.9564"/>
</g>
<!-- Node34 -->
<g id="node7" class="node"><title>Node34</title>
<g id="a_node7"><a xlink:href="class_little_weeb_library_1_1_handlers_1_1_web_socket_handler.html#a1de289d54d665a32c93478c68d3e6ad0" target="_top" xlink:title="LittleWeebLibrary.Handlers.\lWebSocketHandler.SendMessage">
<polygon fill="white" stroke="black" points="425,-0.5 425,-30.5 591,-30.5 591,-0.5 425,-0.5"/>
<text text-anchor="start" x="433" y="-18.5" font-family="Helvetica,sans-Serif" font-size="10.00">LittleWeebLibrary.Handlers.</text>
<text text-anchor="middle" x="508" y="-7.5" font-family="Helvetica,sans-Serif" font-size="10.00">WebSocketHandler.SendMessage</text>
</a>
</g>
</g>
<!-- Node28&#45;&gt;Node34 -->
<g id="edge7" class="edge"><title>Node28&#45;&gt;Node34</title>
<path fill="none" stroke="midnightblue" d="M191.297,-49.3287C203.315,-48.0397 215.445,-46.7388 227,-45.5 289.695,-38.7784 360.286,-31.2151 414.905,-25.3642"/>
<polygon fill="midnightblue" stroke="midnightblue" points="415.342,-28.8375 424.912,-24.2922 414.596,-21.8773 415.342,-28.8375"/>
</g>
<!-- Node30 -->
<g id="node3" class="node"><title>Node30</title>
<g id="a_node3"><a xlink:href="class_little_weeb_library_1_1_handlers_1_1_data_base_handler.html#ae04312874502a18b241c1123ef963b90" target="_top" xlink:title="LittleWeebLibrary.Handlers.\lDataBaseHandler.GetCollection">
<polygon fill="white" stroke="black" points="431,-126.5 431,-156.5 585,-156.5 585,-126.5 431,-126.5"/>
<text text-anchor="start" x="439" y="-144.5" font-family="Helvetica,sans-Serif" font-size="10.00">LittleWeebLibrary.Handlers.</text>
<text text-anchor="middle" x="508" y="-133.5" font-family="Helvetica,sans-Serif" font-size="10.00">DataBaseHandler.GetCollection</text>
</a>
</g>
</g>
<!-- Node29&#45;&gt;Node30 -->
<g id="edge2" class="edge"><title>Node29&#45;&gt;Node30</title>
<path fill="none" stroke="midnightblue" d="M389.249,-121.875C399.647,-123.608 410.332,-125.389 420.821,-127.137"/>
<polygon fill="midnightblue" stroke="midnightblue" points="420.363,-130.609 430.802,-128.8 421.514,-123.704 420.363,-130.609"/>
</g>
<!-- Node29&#45;&gt;Node32 -->
<g id="edge6" class="edge"><title>Node29&#45;&gt;Node32</title>
<path fill="none" stroke="midnightblue" d="M389.025,-100.497C460.805,-93.3195 565.642,-82.8358 637.784,-75.6216"/>
<polygon fill="midnightblue" stroke="midnightblue" points="638.138,-79.1038 647.74,-74.626 637.441,-72.1385 638.138,-79.1038"/>
</g>
<!-- Node31 -->
<g id="node4" class="node"><title>Node31</title>
<g id="a_node4"><a xlink:href="class_little_weeb_library_1_1_static_classes_1_1_utility_methods.html#a7b5de7a3ecc749b655fc3ed2af55360b" target="_top" xlink:title="LittleWeebLibrary.Static\lClasses.UtilityMethods.ReadBinaryFile">
<polygon fill="white" stroke="black" points="627,-166.5 627,-196.5 813,-196.5 813,-166.5 627,-166.5"/>
<text text-anchor="start" x="635" y="-184.5" font-family="Helvetica,sans-Serif" font-size="10.00">LittleWeebLibrary.Static</text>
<text text-anchor="middle" x="720" y="-173.5" font-family="Helvetica,sans-Serif" font-size="10.00">Classes.UtilityMethods.ReadBinaryFile</text>
</a>
</g>
</g>
<!-- Node30&#45;&gt;Node31 -->
<g id="edge3" class="edge"><title>Node30&#45;&gt;Node31</title>
<path fill="none" stroke="midnightblue" d="M585.112,-155.997C599.608,-158.759 614.901,-161.672 629.763,-164.502"/>
<polygon fill="midnightblue" stroke="midnightblue" points="629.49,-168.013 639.968,-166.446 630.8,-161.137 629.49,-168.013"/>
</g>
<!-- Node30&#45;&gt;Node32 -->
<g id="edge4" class="edge"><title>Node30&#45;&gt;Node32</title>
<path fill="none" stroke="midnightblue" d="M551.75,-126.436C584.964,-114.732 631.184,-98.4446 666.621,-85.9574"/>
<polygon fill="midnightblue" stroke="midnightblue" points="668.042,-89.1677 676.31,-82.5431 665.715,-82.5656 668.042,-89.1677"/>
</g>
<!-- Node33 -->
<g id="node6" class="node"><title>Node33</title>
<g id="a_node6"><a xlink:href="class_little_weeb_library_1_1_static_classes_1_1_utility_methods.html#a0a86ee01a3bf201bd9cc9b2552e54976" target="_top" xlink:title="LittleWeebLibrary.Static\lClasses.UtilityMethods.Unzip">
<polygon fill="white" stroke="black" points="647.5,-117.5 647.5,-147.5 792.5,-147.5 792.5,-117.5 647.5,-117.5"/>
<text text-anchor="start" x="655.5" y="-135.5" font-family="Helvetica,sans-Serif" font-size="10.00">LittleWeebLibrary.Static</text>
<text text-anchor="middle" x="720" y="-124.5" font-family="Helvetica,sans-Serif" font-size="10.00">Classes.UtilityMethods.Unzip</text>
</a>
</g>
</g>
<!-- Node30&#45;&gt;Node33 -->
<g id="edge5" class="edge"><title>Node30&#45;&gt;Node33</title>
<path fill="none" stroke="midnightblue" d="M585.112,-138.238C602.087,-137.511 620.154,-136.736 637.343,-136"/>
<polygon fill="midnightblue" stroke="midnightblue" points="637.506,-139.496 647.346,-135.571 637.206,-132.502 637.506,-139.496"/>
</g>
<!-- Node34&#45;&gt;Node32 -->
<g id="edge8" class="edge"><title>Node34&#45;&gt;Node32</title>
<path fill="none" stroke="midnightblue" d="M569.741,-30.5406C594.337,-36.631 622.899,-43.7035 648.413,-50.0213"/>
<polygon fill="midnightblue" stroke="midnightblue" points="647.848,-53.487 658.396,-52.4932 649.53,-46.6922 647.848,-53.487"/>
</g>
</g>
</svg>
