<?xml version="1.0" encoding="UTF-8" standalone="no"?>
<!DOCTYPE svg PUBLIC "-//W3C//DTD SVG 1.1//EN"
 "http://www.w3.org/Graphics/SVG/1.1/DTD/svg11.dtd">
<!-- Generated by graphviz version 2.38.0 (20140413.2041)
 -->
<!-- Title: LittleWeebLibrary.Controllers.SubControllers.DirectoryWebSocketController.OnWebSocketEvent Pages: 1 -->
<svg width="802pt" height="752pt"
 viewBox="0.00 0.00 802.00 752.49" xmlns="http://www.w3.org/2000/svg" xmlns:xlink="http://www.w3.org/1999/xlink">
<g id="graph0" class="graph" transform="scale(1 1) rotate(0) translate(4 748.49)">
<title>LittleWeebLibrary.Controllers.SubControllers.DirectoryWebSocketController.OnWebSocketEvent</title>
<polygon fill="white" stroke="none" points="-4,4 -4,-748.49 798,-748.49 798,4 -4,4"/>
<!-- Node3 -->
<g id="node1" class="node"><title>Node3</title>
<polygon fill="#bfbfbf" stroke="black" points="0,-437 0,-478 173,-478 173,-437 0,-437"/>
<text text-anchor="start" x="8" y="-466" font-family="Helvetica,sans-Serif" font-size="10.00">LittleWeebLibrary.Controllers.</text>
<text text-anchor="start" x="8" y="-455" font-family="Helvetica,sans-Serif" font-size="10.00">SubControllers.DirectoryWebSocket</text>
<text text-anchor="middle" x="86.5" y="-444" font-family="Helvetica,sans-Serif" font-size="10.00">Controller.OnWebSocketEvent</text>
</g>
<!-- Node4 -->
<g id="node2" class="node"><title>Node4</title>
<g id="a_node2"><a xlink:href="class_little_weeb_library_1_1_services_1_1_directory_web_socket_service.html#a3ea6566e0d21d73d331adce1ae9c7f07" target="_top" xlink:title="LittleWeebLibrary.Services.\lDirectoryWebSocketService.Create\lDirectory">
<polygon fill="white" stroke="black" points="225.5,-497 225.5,-538 395.5,-538 395.5,-497 225.5,-497"/>
<text text-anchor="start" x="233.5" y="-526" font-family="Helvetica,sans-Serif" font-size="10.00">LittleWeebLibrary.Services.</text>
<text text-anchor="start" x="233.5" y="-515" font-family="Helvetica,sans-Serif" font-size="10.00">DirectoryWebSocketService.Create</text>
<text text-anchor="middle" x="310.5" y="-504" font-family="Helvetica,sans-Serif" font-size="10.00">Directory</text>
</a>
</g>
</g>
<!-- Node3&#45;&gt;Node4 -->
<g id="edge1" class="edge"><title>Node3&#45;&gt;Node4</title>
<path fill="none" stroke="midnightblue" d="M163.589,-478.065C182.917,-483.288 203.817,-488.937 223.595,-494.282"/>
<polygon fill="midnightblue" stroke="midnightblue" points="222.943,-497.732 233.51,-496.962 224.77,-490.974 222.943,-497.732"/>
</g>
<!-- Node5 -->
<g id="node3" class="node"><title>Node5</title>
<g id="a_node3"><a xlink:href="class_little_weeb_library_1_1_handlers_1_1_debug_handler.html#afccb37dfd6b2114af72000c2f4fe4607" target="_top" xlink:title="LittleWeebLibrary.Handlers.\lDebugHandler.TraceMessage">
<polygon fill="white" stroke="black" points="650,-565.5 650,-595.5 794,-595.5 794,-565.5 650,-565.5"/>
<text text-anchor="start" x="658" y="-583.5" font-family="Helvetica,sans-Serif" font-size="10.00">LittleWeebLibrary.Handlers.</text>
<text text-anchor="middle" x="722" y="-572.5" font-family="Helvetica,sans-Serif" font-size="10.00">DebugHandler.TraceMessage</text>
</a>
</g>
</g>
<!-- Node3&#45;&gt;Node5 -->
<g id="edge42" class="edge"><title>Node3&#45;&gt;Node5</title>
<path fill="none" stroke="midnightblue" d="M95.4485,-478.276C111.227,-516.82 150.142,-599.64 209,-645.5 297.472,-714.434 337.337,-708.257 448,-726.5 520.795,-738.5 548.194,-759.858 614,-726.5 664.258,-701.023 696.604,-639.613 711.475,-605.103"/>
<polygon fill="midnightblue" stroke="midnightblue" points="714.765,-606.307 715.368,-595.73 708.3,-603.622 714.765,-606.307"/>
</g>
<!-- Node7 -->
<g id="node5" class="node"><title>Node7</title>
<g id="a_node5"><a xlink:href="class_little_weeb_library_1_1_models_1_1_json_error.html#a0e3e7dd2e2990404b7f0461742b23440" target="_top" xlink:title="LittleWeebLibrary.Models.\lJsonError.ToJson">
<polygon fill="white" stroke="black" points="657,-338.5 657,-368.5 787,-368.5 787,-338.5 657,-338.5"/>
<text text-anchor="start" x="665" y="-356.5" font-family="Helvetica,sans-Serif" font-size="10.00">LittleWeebLibrary.Models.</text>
<text text-anchor="middle" x="722" y="-345.5" font-family="Helvetica,sans-Serif" font-size="10.00">JsonError.ToJson</text>
</a>
</g>
</g>
<!-- Node3&#45;&gt;Node7 -->
<g id="edge39" class="edge"><title>Node3&#45;&gt;Node7</title>
<path fill="none" stroke="midnightblue" d="M133.827,-436.882C201.316,-408.088 331.357,-357.254 448,-338.5 520.842,-326.788 540.401,-333.366 614,-338.5 624.673,-339.245 635.903,-340.402 646.91,-341.751"/>
<polygon fill="midnightblue" stroke="midnightblue" points="646.569,-345.236 656.934,-343.038 647.461,-338.293 646.569,-345.236"/>
</g>
<!-- Node8 -->
<g id="node6" class="node"><title>Node8</title>
<g id="a_node6"><a xlink:href="class_little_weeb_library_1_1_handlers_1_1_web_socket_handler.html#a1de289d54d665a32c93478c68d3e6ad0" target="_top" xlink:title="LittleWeebLibrary.Handlers.\lWebSocketHandler.SendMessage">
<polygon fill="white" stroke="black" points="448,-628.5 448,-658.5 614,-658.5 614,-628.5 448,-628.5"/>
<text text-anchor="start" x="456" y="-646.5" font-family="Helvetica,sans-Serif" font-size="10.00">LittleWeebLibrary.Handlers.</text>
<text text-anchor="middle" x="531" y="-635.5" font-family="Helvetica,sans-Serif" font-size="10.00">WebSocketHandler.SendMessage</text>
</a>
</g>
</g>
<!-- Node3&#45;&gt;Node8 -->
<g id="edge38" class="edge"><title>Node3&#45;&gt;Node8</title>
<path fill="none" stroke="midnightblue" d="M97.1454,-478.062C114.299,-512.039 153.589,-579.157 209,-609.5 278.897,-647.775 370.186,-654.019 437.535,-652.008"/>
<polygon fill="midnightblue" stroke="midnightblue" points="437.847,-655.499 447.712,-651.636 437.591,-648.503 437.847,-655.499"/>
</g>
<!-- Node9 -->
<g id="node7" class="node"><title>Node9</title>
<g id="a_node7"><a xlink:href="class_little_weeb_library_1_1_models_1_1_json_error.html#ad7d5522c90119111d2e929f39e7f6d3c" target="_top" xlink:title="LittleWeebLibrary.Models.\lJsonError.ToString">
<polygon fill="white" stroke="black" points="657,-136.5 657,-166.5 787,-166.5 787,-136.5 657,-136.5"/>
<text text-anchor="start" x="665" y="-154.5" font-family="Helvetica,sans-Serif" font-size="10.00">LittleWeebLibrary.Models.</text>
<text text-anchor="middle" x="722" y="-143.5" font-family="Helvetica,sans-Serif" font-size="10.00">JsonError.ToString</text>
</a>
</g>
</g>
<!-- Node3&#45;&gt;Node9 -->
<g id="edge41" class="edge"><title>Node3&#45;&gt;Node9</title>
<path fill="none" stroke="midnightblue" d="M93.9491,-436.793C108.306,-393.582 146.64,-292.673 209,-230.5 294.184,-145.572 331.282,-132.585 448,-103.5 519.589,-85.6607 541.856,-88.0594 614,-103.5 639.552,-108.969 666.377,-121.019 686.777,-131.676"/>
<polygon fill="midnightblue" stroke="midnightblue" points="685.203,-134.804 695.67,-136.446 688.512,-128.635 685.203,-134.804"/>
</g>
<!-- Node10 -->
<g id="node8" class="node"><title>Node10</title>
<g id="a_node8"><a xlink:href="class_little_weeb_library_1_1_services_1_1_directory_web_socket_service.html#ac0af5740848de2340e4d3e9225eeb0d7" target="_top" xlink:title="LittleWeebLibrary.Services.\lDirectoryWebSocketService.Delete\lDirectory">
<polygon fill="white" stroke="black" points="226,-437 226,-478 395,-478 395,-437 226,-437"/>
<text text-anchor="start" x="234" y="-466" font-family="Helvetica,sans-Serif" font-size="10.00">LittleWeebLibrary.Services.</text>
<text text-anchor="start" x="234" y="-455" font-family="Helvetica,sans-Serif" font-size="10.00">DirectoryWebSocketService.Delete</text>
<text text-anchor="middle" x="310.5" y="-444" font-family="Helvetica,sans-Serif" font-size="10.00">Directory</text>
</a>
</g>
</g>
<!-- Node3&#45;&gt;Node10 -->
<g id="edge10" class="edge"><title>Node3&#45;&gt;Node10</title>
<path fill="none" stroke="midnightblue" d="M173.013,-457.5C186.97,-457.5 201.496,-457.5 215.64,-457.5"/>
<polygon fill="midnightblue" stroke="midnightblue" points="215.859,-461 225.859,-457.5 215.859,-454 215.859,-461"/>
</g>
<!-- Node13 -->
<g id="node11" class="node"><title>Node13</title>
<g id="a_node11"><a xlink:href="class_little_weeb_library_1_1_services_1_1_directory_web_socket_service.html#a1fee74b9f658b29f4c2bb643a48425e0" target="_top" xlink:title="LittleWeebLibrary.Services.\lDirectoryWebSocketService.GetDirectories">
<polygon fill="white" stroke="black" points="209,-240.5 209,-270.5 412,-270.5 412,-240.5 209,-240.5"/>
<text text-anchor="start" x="217" y="-258.5" font-family="Helvetica,sans-Serif" font-size="10.00">LittleWeebLibrary.Services.</text>
<text text-anchor="middle" x="310.5" y="-247.5" font-family="Helvetica,sans-Serif" font-size="10.00">DirectoryWebSocketService.GetDirectories</text>
</a>
</g>
</g>
<!-- Node3&#45;&gt;Node13 -->
<g id="edge19" class="edge"><title>Node3&#45;&gt;Node13</title>
<path fill="none" stroke="midnightblue" d="M96.4458,-436.894C113.192,-400.747 152.732,-325.92 209,-285.5 214.897,-281.264 221.395,-277.62 228.164,-274.486"/>
<polygon fill="midnightblue" stroke="midnightblue" points="229.687,-277.642 237.532,-270.52 226.958,-271.195 229.687,-277.642"/>
</g>
<!-- Node16 -->
<g id="node14" class="node"><title>Node16</title>
<g id="a_node14"><a xlink:href="class_little_weeb_library_1_1_services_1_1_directory_web_socket_service.html#a368f502e063381bccfed714d8350dc69" target="_top" xlink:title="LittleWeebLibrary.Services.\lDirectoryWebSocketService.GetDrives">
<polygon fill="white" stroke="black" points="219,-570.5 219,-600.5 402,-600.5 402,-570.5 219,-570.5"/>
<text text-anchor="start" x="227" y="-588.5" font-family="Helvetica,sans-Serif" font-size="10.00">LittleWeebLibrary.Services.</text>
<text text-anchor="middle" x="310.5" y="-577.5" font-family="Helvetica,sans-Serif" font-size="10.00">DirectoryWebSocketService.GetDrives</text>
</a>
</g>
</g>
<!-- Node3&#45;&gt;Node16 -->
<g id="edge29" class="edge"><title>Node3&#45;&gt;Node16</title>
<path fill="none" stroke="midnightblue" d="M111.277,-478.235C134.843,-498.006 172.592,-527.633 209,-547.5 222.371,-554.796 237.437,-561.304 251.756,-566.784"/>
<polygon fill="midnightblue" stroke="midnightblue" points="250.927,-570.21 261.52,-570.411 253.365,-563.648 250.927,-570.21"/>
</g>
<!-- Node19 -->
<g id="node17" class="node"><title>Node19</title>
<g id="a_node17"><a xlink:href="class_little_weeb_library_1_1_event_arguments_1_1_web_socket_event_args.html#acf402c2f7fd4ddbf175fea7f921ea879" target="_top" xlink:title="LittleWeebLibrary.EventArguments.\lWebSocketEventArgs.ToString">
<polygon fill="white" stroke="black" points="225.5,-0.5 225.5,-30.5 395.5,-30.5 395.5,-0.5 225.5,-0.5"/>
<text text-anchor="start" x="233.5" y="-18.5" font-family="Helvetica,sans-Serif" font-size="10.00">LittleWeebLibrary.EventArguments.</text>
<text text-anchor="middle" x="310.5" y="-7.5" font-family="Helvetica,sans-Serif" font-size="10.00">WebSocketEventArgs.ToString</text>
</a>
</g>
</g>
<!-- Node3&#45;&gt;Node19 -->
<g id="edge40" class="edge"><title>Node3&#45;&gt;Node19</title>
<path fill="none" stroke="midnightblue" d="M87.1409,-436.997C87.131,-370.491 96.3422,-158.532 209,-45.5 212.682,-41.8063 216.797,-38.5635 221.204,-35.7171"/>
<polygon fill="midnightblue" stroke="midnightblue" points="223.035,-38.7021 229.999,-30.7174 219.576,-32.6167 223.035,-38.7021"/>
</g>
<!-- Node4&#45;&gt;Node5 -->
<g id="edge2" class="edge"><title>Node4&#45;&gt;Node5</title>
<path fill="none" stroke="midnightblue" d="M381.105,-538.06C392.544,-543.871 403.439,-551.227 412,-560.5 446.037,-597.365 407.255,-638.219 448,-667.5 507.912,-710.555 544.479,-692.197 614,-667.5 649.609,-654.85 681.983,-624.728 701.574,-603.486"/>
<polygon fill="midnightblue" stroke="midnightblue" points="704.366,-605.616 708.437,-595.835 699.155,-600.942 704.366,-605.616"/>
</g>
<!-- Node6 -->
<g id="node4" class="node"><title>Node6</title>
<g id="a_node4"><a xlink:href="class_little_weeb_library_1_1_handlers_1_1_directory_handler.html#a6be1b158ee280e8a74a49917a90484e2" target="_top" xlink:title="LittleWeebLibrary.Handlers.\lDirectoryHandler.CreateDirectory">
<polygon fill="white" stroke="black" points="451.5,-502.5 451.5,-532.5 610.5,-532.5 610.5,-502.5 451.5,-502.5"/>
<text text-anchor="start" x="459.5" y="-520.5" font-family="Helvetica,sans-Serif" font-size="10.00">LittleWeebLibrary.Handlers.</text>
<text text-anchor="middle" x="531" y="-509.5" font-family="Helvetica,sans-Serif" font-size="10.00">DirectoryHandler.CreateDirectory</text>
</a>
</g>
</g>
<!-- Node4&#45;&gt;Node6 -->
<g id="edge3" class="edge"><title>Node4&#45;&gt;Node6</title>
<path fill="none" stroke="midnightblue" d="M395.665,-517.5C410.512,-517.5 426.013,-517.5 440.988,-517.5"/>
<polygon fill="midnightblue" stroke="midnightblue" points="441.256,-521 451.256,-517.5 441.256,-514 441.256,-521"/>
</g>
<!-- Node4&#45;&gt;Node7 -->
<g id="edge9" class="edge"><title>Node4&#45;&gt;Node7</title>
<path fill="none" stroke="midnightblue" d="M395.928,-498.968C401.737,-495.738 407.185,-491.948 412,-487.5 444.557,-457.426 413.405,-422.206 448,-394.5 463.372,-382.189 571.55,-368.784 647.021,-360.766"/>
<polygon fill="midnightblue" stroke="midnightblue" points="647.398,-364.246 656.977,-359.719 646.666,-357.284 647.398,-364.246"/>
</g>
<!-- Node4&#45;&gt;Node8 -->
<g id="edge6" class="edge"><title>Node4&#45;&gt;Node8</title>
<path fill="none" stroke="midnightblue" d="M374.703,-538.016C387.841,-544.01 401.015,-551.449 412,-560.5 433.976,-578.609 425.547,-595.986 448,-613.5 453.099,-617.477 458.775,-620.962 464.694,-624.007"/>
<polygon fill="midnightblue" stroke="midnightblue" points="463.609,-627.364 474.149,-628.44 466.581,-621.026 463.609,-627.364"/>
</g>
<!-- Node4&#45;&gt;Node9 -->
<g id="edge8" class="edge"><title>Node4&#45;&gt;Node9</title>
<path fill="none" stroke="midnightblue" d="M395.839,-501.074C401.902,-497.396 407.419,-492.927 412,-487.5 497.199,-386.568 355.902,-287.179 448,-192.5 461.752,-178.362 570.693,-165.454 646.722,-158.04"/>
<polygon fill="midnightblue" stroke="midnightblue" points="647.133,-161.516 656.752,-157.075 646.463,-154.548 647.133,-161.516"/>
</g>
<!-- Node6&#45;&gt;Node5 -->
<g id="edge4" class="edge"><title>Node6&#45;&gt;Node5</title>
<path fill="none" stroke="midnightblue" d="M577.27,-532.59C603.939,-541.48 637.866,-552.789 666.06,-562.187"/>
<polygon fill="midnightblue" stroke="midnightblue" points="665.178,-565.582 675.772,-565.424 667.392,-558.941 665.178,-565.582"/>
</g>
<!-- Node6&#45;&gt;Node7 -->
<g id="edge5" class="edge"><title>Node6&#45;&gt;Node7</title>
<path fill="none" stroke="midnightblue" d="M600.176,-502.441C605.194,-499.668 609.89,-496.385 614,-492.5 647.718,-460.623 620.122,-430.002 650,-394.5 656.876,-386.329 665.82,-379.427 675.029,-373.75"/>
<polygon fill="midnightblue" stroke="midnightblue" points="676.941,-376.688 683.88,-368.682 673.463,-370.614 676.941,-376.688"/>
</g>
<!-- Node8&#45;&gt;Node5 -->
<g id="edge7" class="edge"><title>Node8&#45;&gt;Node5</title>
<path fill="none" stroke="midnightblue" d="M577.27,-628.41C603.939,-619.52 637.866,-608.211 666.06,-598.813"/>
<polygon fill="midnightblue" stroke="midnightblue" points="667.392,-602.059 675.772,-595.576 665.178,-595.418 667.392,-602.059"/>
</g>
<!-- Node10&#45;&gt;Node5 -->
<g id="edge11" class="edge"><title>Node10&#45;&gt;Node5</title>
<path fill="none" stroke="midnightblue" d="M395.349,-475.868C401.359,-479.133 407.008,-482.976 412,-487.5 443.311,-515.877 413.133,-551.626 448,-575.5 509.47,-617.59 598.353,-609.886 657.826,-597.663"/>
<polygon fill="midnightblue" stroke="midnightblue" points="658.803,-601.033 667.841,-595.505 657.328,-594.19 658.803,-601.033"/>
</g>
<!-- Node10&#45;&gt;Node7 -->
<g id="edge18" class="edge"><title>Node10&#45;&gt;Node7</title>
<path fill="none" stroke="midnightblue" d="M332.427,-436.713C357.462,-413.405 401.815,-376.862 448,-361.5 512.593,-340.015 590.596,-340.111 646.654,-344.341"/>
<polygon fill="midnightblue" stroke="midnightblue" points="646.606,-347.848 656.858,-345.174 647.176,-340.871 646.606,-347.848"/>
</g>
<!-- Node10&#45;&gt;Node8 -->
<g id="edge16" class="edge"><title>Node10&#45;&gt;Node8</title>
<path fill="none" stroke="midnightblue" d="M395.433,-475.007C401.502,-478.457 407.136,-482.579 412,-487.5 452.939,-528.925 408.336,-570.853 448,-613.5 451.371,-617.125 455.217,-620.313 459.361,-623.117"/>
<polygon fill="midnightblue" stroke="midnightblue" points="457.838,-626.283 468.23,-628.35 461.396,-620.254 457.838,-626.283"/>
</g>
<!-- Node10&#45;&gt;Node9 -->
<g id="edge17" class="edge"><title>Node10&#45;&gt;Node9</title>
<path fill="none" stroke="midnightblue" d="M325.147,-436.908C346.128,-404.533 386.547,-339.248 412,-279.5 433.823,-228.273 403.819,-193.389 448,-159.5 507.75,-113.669 598.43,-121.623 658.67,-134.267"/>
<polygon fill="midnightblue" stroke="midnightblue" points="658.289,-137.767 668.808,-136.5 659.794,-130.931 658.289,-137.767"/>
</g>
<!-- Node11 -->
<g id="node9" class="node"><title>Node11</title>
<g id="a_node9"><a xlink:href="class_little_weeb_library_1_1_handlers_1_1_directory_handler.html#aeae514c438e071fe95c42ff74e0fef9d" target="_top" xlink:title="LittleWeebLibrary.Handlers.\lDirectoryHandler.DeleteDirectory">
<polygon fill="white" stroke="black" points="452,-453.5 452,-483.5 610,-483.5 610,-453.5 452,-453.5"/>
<text text-anchor="start" x="460" y="-471.5" font-family="Helvetica,sans-Serif" font-size="10.00">LittleWeebLibrary.Handlers.</text>
<text text-anchor="middle" x="531" y="-460.5" font-family="Helvetica,sans-Serif" font-size="10.00">DirectoryHandler.DeleteDirectory</text>
</a>
</g>
</g>
<!-- Node10&#45;&gt;Node11 -->
<g id="edge12" class="edge"><title>Node10&#45;&gt;Node11</title>
<path fill="none" stroke="midnightblue" d="M395.041,-461.706C410.359,-462.477 426.392,-463.284 441.841,-464.062"/>
<polygon fill="midnightblue" stroke="midnightblue" points="441.731,-467.561 451.894,-464.568 442.083,-460.569 441.731,-467.561"/>
</g>
<!-- Node11&#45;&gt;Node5 -->
<g id="edge13" class="edge"><title>Node11&#45;&gt;Node5</title>
<path fill="none" stroke="midnightblue" d="M593.535,-483.533C600.605,-486.125 607.575,-489.102 614,-492.5 646.804,-509.85 678.933,-538.251 699.285,-558.081"/>
<polygon fill="midnightblue" stroke="midnightblue" points="696.92,-560.665 706.485,-565.22 701.848,-555.694 696.92,-560.665"/>
</g>
<!-- Node11&#45;&gt;Node7 -->
<g id="edge15" class="edge"><title>Node11&#45;&gt;Node7</title>
<path fill="none" stroke="midnightblue" d="M596.153,-453.438C602.459,-450.656 608.536,-447.373 614,-443.5 636.048,-427.874 629.87,-412.53 650,-394.5 658.775,-386.641 669.296,-379.578 679.518,-373.618"/>
<polygon fill="midnightblue" stroke="midnightblue" points="681.348,-376.605 688.372,-368.673 677.935,-370.494 681.348,-376.605"/>
</g>
<!-- Node12 -->
<g id="node10" class="node"><title>Node12</title>
<g id="a_node10"><a xlink:href="class_little_weeb_library_1_1_models_1_1_json_success.html#a407103dc37a77aaf47a782296bab7518" target="_top" xlink:title="LittleWeebLibrary.Models.\lJsonSuccess.ToJson">
<polygon fill="white" stroke="black" points="657,-453.5 657,-483.5 787,-483.5 787,-453.5 657,-453.5"/>
<text text-anchor="start" x="665" y="-471.5" font-family="Helvetica,sans-Serif" font-size="10.00">LittleWeebLibrary.Models.</text>
<text text-anchor="middle" x="722" y="-460.5" font-family="Helvetica,sans-Serif" font-size="10.00">JsonSuccess.ToJson</text>
</a>
</g>
</g>
<!-- Node11&#45;&gt;Node12 -->
<g id="edge14" class="edge"><title>Node11&#45;&gt;Node12</title>
<path fill="none" stroke="midnightblue" d="M610.238,-468.5C622.255,-468.5 634.634,-468.5 646.566,-468.5"/>
<polygon fill="midnightblue" stroke="midnightblue" points="646.916,-472 656.916,-468.5 646.916,-465 646.916,-472"/>
</g>
<!-- Node13&#45;&gt;Node5 -->
<g id="edge20" class="edge"><title>Node13&#45;&gt;Node5</title>
<path fill="none" stroke="midnightblue" d="M321.848,-270.537C341.562,-299.706 384.945,-366.48 412,-427.5 433.536,-476.073 407.479,-507.133 448,-541.5 462.516,-553.811 564.337,-565.876 639.399,-573.25"/>
<polygon fill="midnightblue" stroke="midnightblue" points="639.51,-576.777 649.801,-574.259 640.185,-569.81 639.51,-576.777"/>
</g>
<!-- Node13&#45;&gt;Node7 -->
<g id="edge28" class="edge"><title>Node13&#45;&gt;Node7</title>
<path fill="none" stroke="midnightblue" d="M412.076,-253.874C472.156,-255.721 549.15,-263.107 614,-285.5 644.171,-295.918 674.496,-316.354 695.118,-332.115"/>
<polygon fill="midnightblue" stroke="midnightblue" points="693.03,-334.925 703.064,-338.325 697.34,-329.409 693.03,-334.925"/>
</g>
<!-- Node13&#45;&gt;Node8 -->
<g id="edge26" class="edge"><title>Node13&#45;&gt;Node8</title>
<path fill="none" stroke="midnightblue" d="M322.542,-270.83C343.04,-299.963 387.142,-365.925 412,-427.5 437.342,-490.273 412.125,-518.092 448,-575.5 459.851,-594.465 478.802,-610.686 495.501,-622.523"/>
<polygon fill="midnightblue" stroke="midnightblue" points="493.746,-625.562 503.979,-628.305 497.69,-619.779 493.746,-625.562"/>
</g>
<!-- Node13&#45;&gt;Node9 -->
<g id="edge27" class="edge"><title>Node13&#45;&gt;Node9</title>
<path fill="none" stroke="midnightblue" d="M320.847,-240.475C340.235,-210.927 388.059,-146.004 448,-121.5 522.736,-90.9472 618.047,-113.939 674.015,-133.008"/>
<polygon fill="midnightblue" stroke="midnightblue" points="673.063,-136.383 683.658,-136.388 675.379,-129.777 673.063,-136.383"/>
</g>
<!-- Node14 -->
<g id="node12" class="node"><title>Node14</title>
<g id="a_node12"><a xlink:href="class_little_weeb_library_1_1_handlers_1_1_directory_handler.html#aa9d1414a83cadcf99da2cad30f39b2e3" target="_top" xlink:title="LittleWeebLibrary.Handlers.\lDirectoryHandler.GetDirectories">
<polygon fill="white" stroke="black" points="454,-202.5 454,-232.5 608,-232.5 608,-202.5 454,-202.5"/>
<text text-anchor="start" x="462" y="-220.5" font-family="Helvetica,sans-Serif" font-size="10.00">LittleWeebLibrary.Handlers.</text>
<text text-anchor="middle" x="531" y="-209.5" font-family="Helvetica,sans-Serif" font-size="10.00">DirectoryHandler.GetDirectories</text>
</a>
</g>
</g>
<!-- Node13&#45;&gt;Node14 -->
<g id="edge21" class="edge"><title>Node13&#45;&gt;Node14</title>
<path fill="none" stroke="midnightblue" d="M397.857,-240.481C413.024,-237.844 428.807,-235.099 443.966,-232.462"/>
<polygon fill="midnightblue" stroke="midnightblue" points="444.571,-235.91 453.824,-230.748 443.372,-229.013 444.571,-235.91"/>
</g>
<!-- Node14&#45;&gt;Node5 -->
<g id="edge22" class="edge"><title>Node14&#45;&gt;Node5</title>
<path fill="none" stroke="midnightblue" d="M539.673,-232.937C554.723,-263.454 588.842,-333.806 614,-394.5 631.767,-437.365 627.127,-452.128 650,-492.5 663.638,-516.572 683.779,-540.811 699.129,-557.737"/>
<polygon fill="midnightblue" stroke="midnightblue" points="696.874,-560.454 706.23,-565.426 702.017,-555.705 696.874,-560.454"/>
</g>
<!-- Node14&#45;&gt;Node7 -->
<g id="edge25" class="edge"><title>Node14&#45;&gt;Node7</title>
<path fill="none" stroke="midnightblue" d="M583.91,-232.649C594.269,-236.717 604.786,-241.65 614,-247.5 632.986,-259.555 674.769,-303.27 700.14,-330.654"/>
<polygon fill="midnightblue" stroke="midnightblue" points="697.783,-333.262 707.136,-338.24 702.929,-328.516 697.783,-333.262"/>
</g>
<!-- Node14&#45;&gt;Node9 -->
<g id="edge24" class="edge"><title>Node14&#45;&gt;Node9</title>
<path fill="none" stroke="midnightblue" d="M575.36,-202.358C602.972,-192.716 638.92,-180.163 668.192,-169.941"/>
<polygon fill="midnightblue" stroke="midnightblue" points="669.554,-173.172 677.841,-166.571 667.247,-166.564 669.554,-173.172"/>
</g>
<!-- Node15 -->
<g id="node13" class="node"><title>Node15</title>
<g id="a_node13"><a xlink:href="class_little_weeb_library_1_1_models_1_1_json_directory.html#a3527cf5cff598f63b5f95cf7d6158b55" target="_top" xlink:title="LittleWeebLibrary.Models.\lJsonDirectory.ToJson">
<polygon fill="white" stroke="black" points="657,-237.5 657,-267.5 787,-267.5 787,-237.5 657,-237.5"/>
<text text-anchor="start" x="665" y="-255.5" font-family="Helvetica,sans-Serif" font-size="10.00">LittleWeebLibrary.Models.</text>
<text text-anchor="middle" x="722" y="-244.5" font-family="Helvetica,sans-Serif" font-size="10.00">JsonDirectory.ToJson</text>
</a>
</g>
</g>
<!-- Node14&#45;&gt;Node15 -->
<g id="edge23" class="edge"><title>Node14&#45;&gt;Node15</title>
<path fill="none" stroke="midnightblue" d="M608.057,-231.585C620.845,-233.953 634.102,-236.408 646.841,-238.767"/>
<polygon fill="midnightblue" stroke="midnightblue" points="646.458,-242.255 656.928,-240.635 647.732,-235.372 646.458,-242.255"/>
</g>
<!-- Node16&#45;&gt;Node5 -->
<g id="edge30" class="edge"><title>Node16&#45;&gt;Node5</title>
<path fill="none" stroke="midnightblue" d="M322.981,-600.591C344.213,-627.092 392.538,-681.117 448,-701.5 517.249,-726.95 546.736,-731.81 614,-701.5 658.063,-681.645 691.294,-633.681 708.306,-604.456"/>
<polygon fill="midnightblue" stroke="midnightblue" points="711.389,-606.115 713.253,-595.685 705.292,-602.676 711.389,-606.115"/>
</g>
<!-- Node16&#45;&gt;Node8 -->
<g id="edge37" class="edge"><title>Node16&#45;&gt;Node8</title>
<path fill="none" stroke="midnightblue" d="M368.053,-600.512C397.263,-608.265 433.08,-617.773 463.598,-625.874"/>
<polygon fill="midnightblue" stroke="midnightblue" points="462.741,-629.268 473.304,-628.45 464.537,-622.502 462.741,-629.268"/>
</g>
<!-- Node17 -->
<g id="node15" class="node"><title>Node17</title>
<g id="a_node15"><a xlink:href="class_little_weeb_library_1_1_handlers_1_1_directory_handler.html#a6ab9fa9b838eeca3f918429af0a3564d" target="_top" xlink:title="LittleWeebLibrary.Handlers.\lDirectoryHandler.GetDrives">
<polygon fill="white" stroke="black" points="462.5,-404.5 462.5,-434.5 599.5,-434.5 599.5,-404.5 462.5,-404.5"/>
<text text-anchor="start" x="470.5" y="-422.5" font-family="Helvetica,sans-Serif" font-size="10.00">LittleWeebLibrary.Handlers.</text>
<text text-anchor="middle" x="531" y="-411.5" font-family="Helvetica,sans-Serif" font-size="10.00">DirectoryHandler.GetDrives</text>
</a>
</g>
</g>
<!-- Node16&#45;&gt;Node17 -->
<g id="edge31" class="edge"><title>Node16&#45;&gt;Node17</title>
<path fill="none" stroke="midnightblue" d="M376.552,-570.417C389.584,-564.946 402.248,-557.531 412,-547.5 446.095,-512.428 412.584,-477.238 448,-443.5 449.702,-441.879 451.507,-440.367 453.396,-438.956"/>
<polygon fill="midnightblue" stroke="midnightblue" points="455.589,-441.71 462.158,-433.398 451.839,-435.799 455.589,-441.71"/>
</g>
<!-- Node17&#45;&gt;Node5 -->
<g id="edge32" class="edge"><title>Node17&#45;&gt;Node5</title>
<path fill="none" stroke="midnightblue" d="M598.24,-434.656C603.797,-437.17 609.14,-440.096 614,-443.5 636.135,-459.002 633.511,-471.09 650,-492.5 667.19,-514.821 687.42,-539.772 701.879,-557.389"/>
<polygon fill="midnightblue" stroke="midnightblue" points="699.419,-559.907 708.475,-565.405 704.824,-555.459 699.419,-559.907"/>
</g>
<!-- Node17&#45;&gt;Node7 -->
<g id="edge36" class="edge"><title>Node17&#45;&gt;Node7</title>
<path fill="none" stroke="midnightblue" d="M575.36,-404.358C602.972,-394.716 638.92,-382.163 668.192,-371.941"/>
<polygon fill="midnightblue" stroke="midnightblue" points="669.554,-375.172 677.841,-368.571 667.247,-368.564 669.554,-375.172"/>
</g>
<!-- Node17&#45;&gt;Node9 -->
<g id="edge35" class="edge"><title>Node17&#45;&gt;Node9</title>
<path fill="none" stroke="midnightblue" d="M539.925,-404.393C557.68,-371.094 602.804,-289.424 650,-227.5 664.633,-208.3 683.347,-188.426 697.888,-173.819"/>
<polygon fill="midnightblue" stroke="midnightblue" points="700.436,-176.22 705.068,-166.691 695.505,-171.252 700.436,-176.22"/>
</g>
<!-- Node17&#45;&gt;Node15 -->
<g id="edge34" class="edge"><title>Node17&#45;&gt;Node15</title>
<path fill="none" stroke="midnightblue" d="M549.106,-404.385C582.615,-374.777 657.027,-309.027 696.037,-274.557"/>
<polygon fill="midnightblue" stroke="midnightblue" points="698.62,-276.945 703.797,-267.701 693.985,-271.7 698.62,-276.945"/>
</g>
<!-- Node18 -->
<g id="node16" class="node"><title>Node18</title>
<g id="a_node16"><a xlink:href="class_little_weeb_library_1_1_models_1_1_json_directories.html#a06826e97f8dd170ecad5574cf8ef816a" target="_top" xlink:title="LittleWeebLibrary.Models.\lJsonDirectories.ToJson">
<polygon fill="white" stroke="black" points="657,-404.5 657,-434.5 787,-434.5 787,-404.5 657,-404.5"/>
<text text-anchor="start" x="665" y="-422.5" font-family="Helvetica,sans-Serif" font-size="10.00">LittleWeebLibrary.Models.</text>
<text text-anchor="middle" x="722" y="-411.5" font-family="Helvetica,sans-Serif" font-size="10.00">JsonDirectories.ToJson</text>
</a>
</g>
</g>
<!-- Node17&#45;&gt;Node18 -->
<g id="edge33" class="edge"><title>Node17&#45;&gt;Node18</title>
<path fill="none" stroke="midnightblue" d="M599.7,-419.5C614.992,-419.5 631.305,-419.5 646.847,-419.5"/>
<polygon fill="midnightblue" stroke="midnightblue" points="646.931,-423 656.931,-419.5 646.931,-416 646.931,-423"/>
</g>
</g>
</svg>
