<?xml version="1.0" encoding="UTF-8" standalone="no"?>
<!DOCTYPE svg PUBLIC "-//W3C//DTD SVG 1.1//EN"
 "http://www.w3.org/Graphics/SVG/1.1/DTD/svg11.dtd">
<!-- Generated by graphviz version 2.38.0 (20140413.2041)
 -->
<!-- Title: LittleWeebLibrary.Handlers.WebSocketHandler Pages: 1 -->
<svg width="258pt" height="292pt"
 viewBox="0.00 0.00 258.00 292.00" xmlns="http://www.w3.org/2000/svg" xmlns:xlink="http://www.w3.org/1999/xlink">
<g id="graph0" class="graph" transform="scale(1 1) rotate(0) translate(4 288)">
<title>LittleWeebLibrary.Handlers.WebSocketHandler</title>
<polygon fill="white" stroke="none" points="-4,4 -4,-288 254,-288 254,4 -4,4"/>
<!-- Node0 -->
<g id="node1" class="node"><title>Node0</title>
<polygon fill="#bfbfbf" stroke="black" points="47,-0.5 47,-167.5 190,-167.5 190,-0.5 47,-0.5"/>
<text text-anchor="start" x="55" y="-155.5" font-family="Helvetica,sans-Serif" font-size="10.00">LittleWeebLibrary.Handlers.</text>
<text text-anchor="middle" x="118.5" y="-144.5" font-family="Helvetica,sans-Serif" font-size="10.00">WebSocketHandler</text>
<polyline fill="none" stroke="black" points="47,-137.5 190,-137.5 "/>
<text text-anchor="start" x="55" y="-125.5" font-family="Helvetica,sans-Serif" font-size="10.00">&#45; ClientIds</text>
<text text-anchor="start" x="55" y="-114.5" font-family="Helvetica,sans-Serif" font-size="10.00">&#45; DebugHandler</text>
<text text-anchor="start" x="55" y="-103.5" font-family="Helvetica,sans-Serif" font-size="10.00">&#45; LittleWeebSettings</text>
<text text-anchor="start" x="55" y="-92.5" font-family="Helvetica,sans-Serif" font-size="10.00">&#45; Server</text>
<polyline fill="none" stroke="black" points="47,-85.5 190,-85.5 "/>
<text text-anchor="start" x="55" y="-73.5" font-family="Helvetica,sans-Serif" font-size="10.00">+ WebSocketHandler()</text>
<text text-anchor="start" x="55" y="-62.5" font-family="Helvetica,sans-Serif" font-size="10.00">+ SendMessage()</text>
<text text-anchor="start" x="55" y="-51.5" font-family="Helvetica,sans-Serif" font-size="10.00">+ SetIrcSettings()</text>
<text text-anchor="start" x="55" y="-40.5" font-family="Helvetica,sans-Serif" font-size="10.00">+ SetLittleWeebSettings()</text>
<text text-anchor="start" x="55" y="-29.5" font-family="Helvetica,sans-Serif" font-size="10.00">+ StartServer()</text>
<text text-anchor="start" x="55" y="-18.5" font-family="Helvetica,sans-Serif" font-size="10.00">+ StopServer()</text>
<text text-anchor="start" x="55" y="-7.5" font-family="Helvetica,sans-Serif" font-size="10.00">&#45; OnWebSocketServerEvent()</text>
</g>
<!-- Node1 -->
<g id="node2" class="node"><title>Node1</title>
<g id="a_node2"><a xlink:href="interface_little_weeb_library_1_1_handlers_1_1_i_web_socket_handler.html" target="_top" xlink:title="{IWebSocketHandler\n||+ SendMessage()\l+ StartServer()\l+ StopServer()\l}">
<polygon fill="white" stroke="black" points="0,-204.5 0,-283.5 103,-283.5 103,-204.5 0,-204.5"/>
<text text-anchor="middle" x="51.5" y="-271.5" font-family="Helvetica,sans-Serif" font-size="10.00">IWebSocketHandler</text>
<polyline fill="none" stroke="black" points="0,-264.5 103,-264.5 "/>
<text text-anchor="middle" x="51.5" y="-252.5" font-family="Helvetica,sans-Serif" font-size="10.00"> </text>
<polyline fill="none" stroke="black" points="0,-245.5 103,-245.5 "/>
<text text-anchor="start" x="8" y="-233.5" font-family="Helvetica,sans-Serif" font-size="10.00">+ SendMessage()</text>
<text text-anchor="start" x="8" y="-222.5" font-family="Helvetica,sans-Serif" font-size="10.00">+ StartServer()</text>
<text text-anchor="start" x="8" y="-211.5" font-family="Helvetica,sans-Serif" font-size="10.00">+ StopServer()</text>
</a>
</g>
</g>
<!-- Node1&#45;&gt;Node0 -->
<g id="edge1" class="edge"><title>Node1&#45;&gt;Node0</title>
<path fill="none" stroke="midnightblue" d="M71.81,-195.105C75.5258,-186.342 79.4991,-176.972 83.5011,-167.535"/>
<polygon fill="none" stroke="midnightblue" points="68.5718,-193.776 67.89,-204.349 75.0164,-196.509 68.5718,-193.776"/>
</g>
<!-- Node2 -->
<g id="node3" class="node"><title>Node2</title>
<g id="a_node3"><a xlink:href="interface_little_weeb_library_1_1_global_interfaces_1_1_i_settings_interface.html" target="_top" xlink:title="{ISettingsInterface\n||+ SetIrcSettings()\l+ SetLittleWeebSettings()\l}">
<polygon fill="white" stroke="black" points="121,-210 121,-278 250,-278 250,-210 121,-210"/>
<text text-anchor="middle" x="185.5" y="-266" font-family="Helvetica,sans-Serif" font-size="10.00">ISettingsInterface</text>
<polyline fill="none" stroke="black" points="121,-259 250,-259 "/>
<text text-anchor="middle" x="185.5" y="-247" font-family="Helvetica,sans-Serif" font-size="10.00"> </text>
<polyline fill="none" stroke="black" points="121,-240 250,-240 "/>
<text text-anchor="start" x="129" y="-228" font-family="Helvetica,sans-Serif" font-size="10.00">+ SetIrcSettings()</text>
<text text-anchor="start" x="129" y="-217" font-family="Helvetica,sans-Serif" font-size="10.00">+ SetLittleWeebSettings()</text>
</a>
</g>
</g>
<!-- Node2&#45;&gt;Node0 -->
<g id="edge2" class="edge"><title>Node2&#45;&gt;Node0</title>
<path fill="none" stroke="midnightblue" d="M167.446,-200.424C163.109,-190.198 158.331,-178.93 153.511,-167.563"/>
<polygon fill="none" stroke="midnightblue" points="164.328,-202.038 171.455,-209.878 170.773,-199.305 164.328,-202.038"/>
</g>
</g>
</svg>
