<?xml version="1.0" encoding="UTF-8" standalone="no"?>
<!DOCTYPE svg PUBLIC "-//W3C//DTD SVG 1.1//EN"
 "http://www.w3.org/Graphics/SVG/1.1/DTD/svg11.dtd">
<!-- Generated by graphviz version 2.38.0 (20140413.2041)
 -->
<!-- Title: LittleWeebLibrary.Models.JsonSuccess.ToJson Pages: 1 -->
<svg width="883pt" height="534pt"
 viewBox="0.00 0.00 883.00 534.00" xmlns="http://www.w3.org/2000/svg" xmlns:xlink="http://www.w3.org/1999/xlink">
<g id="graph0" class="graph" transform="scale(1 1) rotate(0) translate(4 530)">
<title>LittleWeebLibrary.Models.JsonSuccess.ToJson</title>
<polygon fill="white" stroke="none" points="-4,4 -4,-530 879,-530 879,4 -4,4"/>
<!-- Node1 -->
<g id="node1" class="node"><title>Node1</title>
<polygon fill="#bfbfbf" stroke="black" points="0,-238 0,-268 130,-268 130,-238 0,-238"/>
<text text-anchor="start" x="8" y="-256" font-family="Helvetica,sans-Serif" font-size="10.00">LittleWeebLibrary.Models.</text>
<text text-anchor="middle" x="65" y="-245" font-family="Helvetica,sans-Serif" font-size="10.00">JsonSuccess.ToJson</text>
</g>
<!-- Node2 -->
<g id="node2" class="node"><title>Node2</title>
<g id="a_node2"><a xlink:href="class_little_weeb_library_1_1_services_1_1_info_api_web_socket_service.html#a0ed7b2a1d1fe30b43d06232719570435" target="_top" xlink:title="LittleWeebLibrary.Services.\lInfoApiWebSocketService.AddRule">
<polygon fill="white" stroke="black" points="188,-485 188,-515 356,-515 356,-485 188,-485"/>
<text text-anchor="start" x="196" y="-503" font-family="Helvetica,sans-Serif" font-size="10.00">LittleWeebLibrary.Services.</text>
<text text-anchor="middle" x="272" y="-492" font-family="Helvetica,sans-Serif" font-size="10.00">InfoApiWebSocketService.AddRule</text>
</a>
</g>
</g>
<!-- Node1&#45;&gt;Node2 -->
<g id="edge1" class="edge"><title>Node1&#45;&gt;Node2</title>
<path fill="none" stroke="midnightblue" d="M70.1679,-278.262C79.1101,-324.208 104.547,-421.456 166,-473 172.489,-478.443 179.942,-482.807 187.818,-486.303"/>
<polygon fill="midnightblue" stroke="midnightblue" points="73.5776,-277.451 68.3252,-268.25 66.6933,-278.719 73.5776,-277.451"/>
</g>
<!-- Node4 -->
<g id="node4" class="node"><title>Node4</title>
<g id="a_node4"><a xlink:href="class_little_weeb_library_1_1_handlers_1_1_directory_handler.html#aeae514c438e071fe95c42ff74e0fef9d" target="_top" xlink:title="LittleWeebLibrary.Handlers.\lDirectoryHandler.DeleteDirectory">
<polygon fill="white" stroke="black" points="193,-433 193,-463 351,-463 351,-433 193,-433"/>
<text text-anchor="start" x="201" y="-451" font-family="Helvetica,sans-Serif" font-size="10.00">LittleWeebLibrary.Handlers.</text>
<text text-anchor="middle" x="272" y="-440" font-family="Helvetica,sans-Serif" font-size="10.00">DirectoryHandler.DeleteDirectory</text>
</a>
</g>
</g>
<!-- Node1&#45;&gt;Node4 -->
<g id="edge3" class="edge"><title>Node1&#45;&gt;Node4</title>
<path fill="none" stroke="midnightblue" d="M73.5024,-277.617C86.2193,-315.036 115.657,-385.798 166,-423 174.063,-428.958 183.341,-433.518 192.975,-437.003"/>
<polygon fill="midnightblue" stroke="midnightblue" points="76.7927,-276.418 70.3555,-268.003 70.14,-278.595 76.7927,-276.418"/>
</g>
<!-- Node7 -->
<g id="node7" class="node"><title>Node7</title>
<g id="a_node7"><a xlink:href="class_little_weeb_library_1_1_services_1_1_data_base_web_socket_service.html#a5d9baf510f46f6a3fac9fe84325bb017" target="_top" xlink:title="LittleWeebLibrary.Services.\lDataBaseWebSocketService.Delete\lDocument">
<polygon fill="white" stroke="black" points="185.5,-312.5 185.5,-353.5 358.5,-353.5 358.5,-312.5 185.5,-312.5"/>
<text text-anchor="start" x="193.5" y="-341.5" font-family="Helvetica,sans-Serif" font-size="10.00">LittleWeebLibrary.Services.</text>
<text text-anchor="start" x="193.5" y="-330.5" font-family="Helvetica,sans-Serif" font-size="10.00">DataBaseWebSocketService.Delete</text>
<text text-anchor="middle" x="272" y="-319.5" font-family="Helvetica,sans-Serif" font-size="10.00">Document</text>
</a>
</g>
</g>
<!-- Node1&#45;&gt;Node7 -->
<g id="edge6" class="edge"><title>Node1&#45;&gt;Node7</title>
<path fill="none" stroke="midnightblue" d="M102.487,-272.722C121.149,-282.333 144.424,-293.598 166,-302 175.476,-305.69 185.577,-309.192 195.628,-312.422"/>
<polygon fill="midnightblue" stroke="midnightblue" points="103.939,-269.533 93.4536,-268.015 100.704,-275.74 103.939,-269.533"/>
</g>
<!-- Node9 -->
<g id="node9" class="node"><title>Node9</title>
<g id="a_node9"><a xlink:href="class_little_weeb_library_1_1_handlers_1_1_file_handler.html#ae1b342c4d821543a0a3400e4e0c95903" target="_top" xlink:title="LittleWeebLibrary.Handlers.\lFileHandler.DeleteFile">
<polygon fill="white" stroke="black" points="203.5,-55 203.5,-85 340.5,-85 340.5,-55 203.5,-55"/>
<text text-anchor="start" x="211.5" y="-73" font-family="Helvetica,sans-Serif" font-size="10.00">LittleWeebLibrary.Handlers.</text>
<text text-anchor="middle" x="272" y="-62" font-family="Helvetica,sans-Serif" font-size="10.00">FileHandler.DeleteFile</text>
</a>
</g>
</g>
<!-- Node1&#45;&gt;Node9 -->
<g id="edge8" class="edge"><title>Node1&#45;&gt;Node9</title>
<path fill="none" stroke="midnightblue" d="M74.7945,-228.06C88.5612,-192.776 118.632,-128.826 166,-95 176.98,-87.1592 190.089,-81.7514 203.261,-78.0281"/>
<polygon fill="midnightblue" stroke="midnightblue" points="71.4453,-227.022 71.1933,-237.614 77.9955,-229.491 71.4453,-227.022"/>
</g>
<!-- Node12 -->
<g id="node12" class="node"><title>Node12</title>
<g id="a_node12"><a xlink:href="class_little_weeb_library_1_1_services_1_1_irc_web_socket_service.html#a71f89c2a8e9b0a86972d192bc3e55318" target="_top" xlink:title="LittleWeebLibrary.Services.\lIrcWebSocketService.DisableSend\lMessage">
<polygon fill="white" stroke="black" points="188.5,-104.5 188.5,-145.5 355.5,-145.5 355.5,-104.5 188.5,-104.5"/>
<text text-anchor="start" x="196.5" y="-133.5" font-family="Helvetica,sans-Serif" font-size="10.00">LittleWeebLibrary.Services.</text>
<text text-anchor="start" x="196.5" y="-122.5" font-family="Helvetica,sans-Serif" font-size="10.00">IrcWebSocketService.DisableSend</text>
<text text-anchor="middle" x="272" y="-111.5" font-family="Helvetica,sans-Serif" font-size="10.00">Message</text>
</a>
</g>
</g>
<!-- Node1&#45;&gt;Node12 -->
<g id="edge11" class="edge"><title>Node1&#45;&gt;Node12</title>
<path fill="none" stroke="midnightblue" d="M83.8971,-229.706C102.212,-207.415 132.649,-174.398 166,-155 172.965,-150.949 180.511,-147.416 188.254,-144.341"/>
<polygon fill="midnightblue" stroke="midnightblue" points="81.0294,-227.687 77.4903,-237.673 86.4844,-232.073 81.0294,-227.687"/>
</g>
<!-- Node14 -->
<g id="node14" class="node"><title>Node14</title>
<g id="a_node14"><a xlink:href="class_little_weeb_library_1_1_services_1_1_irc_web_socket_service.html#acd9aa44a2389caa8e997db49a646c448" target="_top" xlink:title="LittleWeebLibrary.Services.\lIrcWebSocketService.EnableSendMessage">
<polygon fill="white" stroke="black" points="169.5,-165 169.5,-195 374.5,-195 374.5,-165 169.5,-165"/>
<text text-anchor="start" x="177.5" y="-183" font-family="Helvetica,sans-Serif" font-size="10.00">LittleWeebLibrary.Services.</text>
<text text-anchor="middle" x="272" y="-172" font-family="Helvetica,sans-Serif" font-size="10.00">IrcWebSocketService.EnableSendMessage</text>
</a>
</g>
</g>
<!-- Node1&#45;&gt;Node14 -->
<g id="edge13" class="edge"><title>Node1&#45;&gt;Node14</title>
<path fill="none" stroke="midnightblue" d="M101.479,-233.12C120.215,-223.268 143.86,-211.836 166,-204 175.431,-200.662 185.506,-197.671 195.544,-195.028"/>
<polygon fill="midnightblue" stroke="midnightblue" points="99.6039,-230.153 92.4332,-237.953 102.903,-236.327 99.6039,-230.153"/>
</g>
<!-- Node15 -->
<g id="node15" class="node"><title>Node15</title>
<g id="a_node15"><a xlink:href="class_little_weeb_library_1_1_handlers_1_1_directory_handler.html#a4f3f5841ead561873cc5130efc6294aa" target="_top" xlink:title="LittleWeebLibrary.Handlers.\lDirectoryHandler.OpenDirectory">
<polygon fill="white" stroke="black" points="195,-6 195,-36 349,-36 349,-6 195,-6"/>
<text text-anchor="start" x="203" y="-24" font-family="Helvetica,sans-Serif" font-size="10.00">LittleWeebLibrary.Handlers.</text>
<text text-anchor="middle" x="272" y="-13" font-family="Helvetica,sans-Serif" font-size="10.00">DirectoryHandler.OpenDirectory</text>
</a>
</g>
</g>
<!-- Node1&#45;&gt;Node15 -->
<g id="edge15" class="edge"><title>Node1&#45;&gt;Node15</title>
<path fill="none" stroke="midnightblue" d="M70.6724,-228.017C80.2801,-183.917 106.551,-92.4558 166,-45 174.476,-38.2338 184.501,-33.3016 194.938,-29.7197"/>
<polygon fill="midnightblue" stroke="midnightblue" points="67.2247,-227.406 68.6265,-237.908 74.0796,-228.824 67.2247,-227.406"/>
</g>
<!-- Node18 -->
<g id="node18" class="node"><title>Node18</title>
<g id="a_node18"><a xlink:href="class_little_weeb_library_1_1_handlers_1_1_file_handler.html#a08cbef4974d973035a7ddeedb9f8ff4a" target="_top" xlink:title="LittleWeebLibrary.Handlers.\lFileHandler.OpenFile">
<polygon fill="white" stroke="black" points="203.5,-214 203.5,-244 340.5,-244 340.5,-214 203.5,-214"/>
<text text-anchor="start" x="211.5" y="-232" font-family="Helvetica,sans-Serif" font-size="10.00">LittleWeebLibrary.Handlers.</text>
<text text-anchor="middle" x="272" y="-221" font-family="Helvetica,sans-Serif" font-size="10.00">FileHandler.OpenFile</text>
</a>
</g>
</g>
<!-- Node1&#45;&gt;Node18 -->
<g id="edge18" class="edge"><title>Node1&#45;&gt;Node18</title>
<path fill="none" stroke="midnightblue" d="M140,-244.337C160.638,-241.92 182.95,-239.308 203.211,-236.936"/>
<polygon fill="midnightblue" stroke="midnightblue" points="139.545,-240.866 130.02,-245.505 140.359,-247.818 139.545,-240.866"/>
</g>
<!-- Node20 -->
<g id="node20" class="node"><title>Node20</title>
<g id="a_node20"><a xlink:href="class_little_weeb_library_1_1_services_1_1_data_base_web_socket_service.html#af85671a494e85f8418f60606566521f0" target="_top" xlink:title="LittleWeebLibrary.Services.\lDataBaseWebSocketService.StoreDocument">
<polygon fill="white" stroke="black" points="166,-263 166,-293 378,-293 378,-263 166,-263"/>
<text text-anchor="start" x="174" y="-281" font-family="Helvetica,sans-Serif" font-size="10.00">LittleWeebLibrary.Services.</text>
<text text-anchor="middle" x="272" y="-270" font-family="Helvetica,sans-Serif" font-size="10.00">DataBaseWebSocketService.StoreDocument</text>
</a>
</g>
</g>
<!-- Node1&#45;&gt;Node20 -->
<g id="edge21" class="edge"><title>Node1&#45;&gt;Node20</title>
<path fill="none" stroke="midnightblue" d="M140.071,-262.033C148.437,-263.053 157.077,-264.107 165.743,-265.164"/>
<polygon fill="midnightblue" stroke="midnightblue" points="140.37,-258.544 130.02,-260.807 139.523,-265.492 140.37,-258.544"/>
</g>
<!-- Node21 -->
<g id="node21" class="node"><title>Node21</title>
<g id="a_node21"><a xlink:href="class_little_weeb_library_1_1_services_1_1_data_base_web_socket_service.html#a3771a51f4d0aab2cd4f65676427d0902" target="_top" xlink:title="LittleWeebLibrary.Services.\lDataBaseWebSocketService.Update\lDocument">
<polygon fill="white" stroke="black" points="184,-372.5 184,-413.5 360,-413.5 360,-372.5 184,-372.5"/>
<text text-anchor="start" x="192" y="-401.5" font-family="Helvetica,sans-Serif" font-size="10.00">LittleWeebLibrary.Services.</text>
<text text-anchor="start" x="192" y="-390.5" font-family="Helvetica,sans-Serif" font-size="10.00">DataBaseWebSocketService.Update</text>
<text text-anchor="middle" x="272" y="-379.5" font-family="Helvetica,sans-Serif" font-size="10.00">Document</text>
</a>
</g>
</g>
<!-- Node1&#45;&gt;Node21 -->
<g id="edge23" class="edge"><title>Node1&#45;&gt;Node21</title>
<path fill="none" stroke="midnightblue" d="M81.5701,-276.815C99.1613,-301.868 130.068,-340.69 166,-363 171.718,-366.55 177.869,-369.693 184.223,-372.472"/>
<polygon fill="midnightblue" stroke="midnightblue" points="84.2488,-274.533 75.707,-268.265 78.4756,-278.491 84.2488,-274.533"/>
</g>
<!-- Node3 -->
<g id="node3" class="node"><title>Node3</title>
<g id="a_node3"><a xlink:href="class_little_weeb_library_1_1_controllers_1_1_sub_controllers_1_1_info_api_web_socket_controller.html#ad620537574b819085ff8eb394add2912" target="_top" xlink:title="LittleWeebLibrary.Controllers.\lSubControllers.InfoApiWebSocketController.\lOnWebSocketEvent">
<polygon fill="white" stroke="black" points="415,-484.5 415,-525.5 623,-525.5 623,-484.5 415,-484.5"/>
<text text-anchor="start" x="423" y="-513.5" font-family="Helvetica,sans-Serif" font-size="10.00">LittleWeebLibrary.Controllers.</text>
<text text-anchor="start" x="423" y="-502.5" font-family="Helvetica,sans-Serif" font-size="10.00">SubControllers.InfoApiWebSocketController.</text>
<text text-anchor="middle" x="519" y="-491.5" font-family="Helvetica,sans-Serif" font-size="10.00">OnWebSocketEvent</text>
</a>
</g>
</g>
<!-- Node2&#45;&gt;Node3 -->
<g id="edge2" class="edge"><title>Node2&#45;&gt;Node3</title>
<path fill="none" stroke="midnightblue" d="M366.58,-501.91C382.411,-502.233 398.924,-502.57 414.98,-502.898"/>
<polygon fill="midnightblue" stroke="midnightblue" points="366.357,-498.405 356.288,-501.7 366.214,-505.403 366.357,-498.405"/>
</g>
<!-- Node5 -->
<g id="node5" class="node"><title>Node5</title>
<g id="a_node5"><a xlink:href="class_little_weeb_library_1_1_services_1_1_directory_web_socket_service.html#ac0af5740848de2340e4d3e9225eeb0d7" target="_top" xlink:title="LittleWeebLibrary.Services.\lDirectoryWebSocketService.Delete\lDirectory">
<polygon fill="white" stroke="black" points="434.5,-424.5 434.5,-465.5 603.5,-465.5 603.5,-424.5 434.5,-424.5"/>
<text text-anchor="start" x="442.5" y="-453.5" font-family="Helvetica,sans-Serif" font-size="10.00">LittleWeebLibrary.Services.</text>
<text text-anchor="start" x="442.5" y="-442.5" font-family="Helvetica,sans-Serif" font-size="10.00">DirectoryWebSocketService.Delete</text>
<text text-anchor="middle" x="519" y="-431.5" font-family="Helvetica,sans-Serif" font-size="10.00">Directory</text>
</a>
</g>
</g>
<!-- Node4&#45;&gt;Node5 -->
<g id="edge4" class="edge"><title>Node4&#45;&gt;Node5</title>
<path fill="none" stroke="midnightblue" d="M361.256,-446.919C385.032,-446.628 410.679,-446.314 434.203,-446.026"/>
<polygon fill="midnightblue" stroke="midnightblue" points="361.15,-443.42 351.193,-447.043 361.235,-450.42 361.15,-443.42"/>
</g>
<!-- Node6 -->
<g id="node6" class="node"><title>Node6</title>
<g id="a_node6"><a xlink:href="class_little_weeb_library_1_1_controllers_1_1_sub_controllers_1_1_directory_web_socket_controller.html#a2db42c05c620f5658a5b6e473581f84c" target="_top" xlink:title="LittleWeebLibrary.Controllers.\lSubControllers.DirectoryWebSocket\lController.OnWebSocketEvent">
<polygon fill="white" stroke="black" points="681,-424.5 681,-465.5 854,-465.5 854,-424.5 681,-424.5"/>
<text text-anchor="start" x="689" y="-453.5" font-family="Helvetica,sans-Serif" font-size="10.00">LittleWeebLibrary.Controllers.</text>
<text text-anchor="start" x="689" y="-442.5" font-family="Helvetica,sans-Serif" font-size="10.00">SubControllers.DirectoryWebSocket</text>
<text text-anchor="middle" x="767.5" y="-431.5" font-family="Helvetica,sans-Serif" font-size="10.00">Controller.OnWebSocketEvent</text>
</a>
</g>
</g>
<!-- Node5&#45;&gt;Node6 -->
<g id="edge5" class="edge"><title>Node5&#45;&gt;Node6</title>
<path fill="none" stroke="midnightblue" d="M613.812,-445C635.835,-445 659.191,-445 680.836,-445"/>
<polygon fill="midnightblue" stroke="midnightblue" points="613.798,-441.5 603.798,-445 613.798,-448.5 613.798,-441.5"/>
</g>
<!-- Node8 -->
<g id="node8" class="node"><title>Node8</title>
<g id="a_node8"><a xlink:href="class_little_weeb_library_1_1_controllers_1_1_sub_controllers_1_1_data_base_web_socket_controller.html#a655abc0c42c54c9ff3572e4b4271fa3b" target="_top" xlink:title="LittleWeebLibrary.Controllers.\lSubControllers.DataBaseWebSocket\lController.OnWebSocketEvent">
<polygon fill="white" stroke="black" points="430.5,-312.5 430.5,-353.5 607.5,-353.5 607.5,-312.5 430.5,-312.5"/>
<text text-anchor="start" x="438.5" y="-341.5" font-family="Helvetica,sans-Serif" font-size="10.00">LittleWeebLibrary.Controllers.</text>
<text text-anchor="start" x="438.5" y="-330.5" font-family="Helvetica,sans-Serif" font-size="10.00">SubControllers.DataBaseWebSocket</text>
<text text-anchor="middle" x="519" y="-319.5" font-family="Helvetica,sans-Serif" font-size="10.00">Controller.OnWebSocketEvent</text>
</a>
</g>
</g>
<!-- Node7&#45;&gt;Node8 -->
<g id="edge7" class="edge"><title>Node7&#45;&gt;Node8</title>
<path fill="none" stroke="midnightblue" d="M368.851,-333C389.095,-333 410.359,-333 430.285,-333"/>
<polygon fill="midnightblue" stroke="midnightblue" points="368.689,-329.5 358.689,-333 368.689,-336.5 368.689,-329.5"/>
</g>
<!-- Node10 -->
<g id="node10" class="node"><title>Node10</title>
<g id="a_node10"><a xlink:href="class_little_weeb_library_1_1_services_1_1_file_web_socket_service.html#ab1375e8e82a50dfa06d91bebe988d133" target="_top" xlink:title="LittleWeebLibrary.Services.\lFileWebSocketService.DeleteFile">
<polygon fill="white" stroke="black" points="438.5,-65 438.5,-95 599.5,-95 599.5,-65 438.5,-65"/>
<text text-anchor="start" x="446.5" y="-83" font-family="Helvetica,sans-Serif" font-size="10.00">LittleWeebLibrary.Services.</text>
<text text-anchor="middle" x="519" y="-72" font-family="Helvetica,sans-Serif" font-size="10.00">FileWebSocketService.DeleteFile</text>
</a>
</g>
</g>
<!-- Node9&#45;&gt;Node10 -->
<g id="edge9" class="edge"><title>Node9&#45;&gt;Node10</title>
<path fill="none" stroke="midnightblue" d="M350.731,-73.1727C378.721,-74.3152 410.327,-75.6052 438.469,-76.7538"/>
<polygon fill="midnightblue" stroke="midnightblue" points="350.73,-69.6698 340.596,-72.759 350.445,-76.664 350.73,-69.6698"/>
</g>
<!-- Node11 -->
<g id="node11" class="node"><title>Node11</title>
<g id="a_node11"><a xlink:href="class_little_weeb_library_1_1_controllers_1_1_file_web_socket_controller.html#a9ecdec41f15ac23a56c402ff2c554a08" target="_top" xlink:title="LittleWeebLibrary.Controllers.\lFileWebSocketController.OnWebSocketEvent">
<polygon fill="white" stroke="black" points="660,-126 660,-156 875,-156 875,-126 660,-126"/>
<text text-anchor="start" x="668" y="-144" font-family="Helvetica,sans-Serif" font-size="10.00">LittleWeebLibrary.Controllers.</text>
<text text-anchor="middle" x="767.5" y="-133" font-family="Helvetica,sans-Serif" font-size="10.00">FileWebSocketController.OnWebSocketEvent</text>
</a>
</g>
</g>
<!-- Node10&#45;&gt;Node11 -->
<g id="edge10" class="edge"><title>Node10&#45;&gt;Node11</title>
<path fill="none" stroke="midnightblue" d="M590.656,-97.4848C627.005,-106.48 670.867,-117.334 705.69,-125.952"/>
<polygon fill="midnightblue" stroke="midnightblue" points="591.164,-94.0051 580.616,-95.0004 589.483,-100.8 591.164,-94.0051"/>
</g>
<!-- Node13 -->
<g id="node13" class="node"><title>Node13</title>
<g id="a_node13"><a xlink:href="class_little_weeb_library_1_1_controllers_1_1_irc_web_socket_controller.html#a5ea966dddf1e0a082dd5ec28f6ace3ab" target="_top" xlink:title="LittleWeebLibrary.Controllers.\lIrcWebSocketController.OnWebSocketEvent">
<polygon fill="white" stroke="black" points="414,-124 414,-154 624,-154 624,-124 414,-124"/>
<text text-anchor="start" x="422" y="-142" font-family="Helvetica,sans-Serif" font-size="10.00">LittleWeebLibrary.Controllers.</text>
<text text-anchor="middle" x="519" y="-131" font-family="Helvetica,sans-Serif" font-size="10.00">IrcWebSocketController.OnWebSocketEvent</text>
</a>
</g>
</g>
<!-- Node12&#45;&gt;Node13 -->
<g id="edge12" class="edge"><title>Node12&#45;&gt;Node13</title>
<path fill="none" stroke="midnightblue" d="M365.761,-130.301C381.385,-131.193 397.696,-132.125 413.591,-133.034"/>
<polygon fill="midnightblue" stroke="midnightblue" points="365.788,-126.797 355.604,-129.72 365.388,-133.785 365.788,-126.797"/>
</g>
<!-- Node14&#45;&gt;Node13 -->
<g id="edge14" class="edge"><title>Node14&#45;&gt;Node13</title>
<path fill="none" stroke="midnightblue" d="M372.918,-163.279C391.21,-160.218 410.198,-157.04 428.173,-154.032"/>
<polygon fill="midnightblue" stroke="midnightblue" points="372.123,-159.863 362.838,-164.966 373.278,-166.767 372.123,-159.863"/>
</g>
<!-- Node16 -->
<g id="node16" class="node"><title>Node16</title>
<g id="a_node16"><a xlink:href="class_little_weeb_library_1_1_services_1_1_download_web_socket_service.html#a6f2201dd7b86f142c2e901262ea53fbe" target="_top" xlink:title="LittleWeebLibrary.Services.\lDownloadWebSocketService.Openfullfilepath">
<polygon fill="white" stroke="black" points="414,-6 414,-36 624,-36 624,-6 414,-6"/>
<text text-anchor="start" x="422" y="-24" font-family="Helvetica,sans-Serif" font-size="10.00">LittleWeebLibrary.Services.</text>
<text text-anchor="middle" x="519" y="-13" font-family="Helvetica,sans-Serif" font-size="10.00">DownloadWebSocketService.Openfullfilepath</text>
</a>
</g>
</g>
<!-- Node15&#45;&gt;Node16 -->
<g id="edge16" class="edge"><title>Node15&#45;&gt;Node16</title>
<path fill="none" stroke="midnightblue" d="M359.422,-21C377.06,-21 395.793,-21 413.97,-21"/>
<polygon fill="midnightblue" stroke="midnightblue" points="359.177,-17.5001 349.177,-21 359.177,-24.5001 359.177,-17.5001"/>
</g>
<!-- Node17 -->
<g id="node17" class="node"><title>Node17</title>
<g id="a_node17"><a xlink:href="class_little_weeb_library_1_1_controllers_1_1_download_web_socket_controller.html#a9e5e421ed57b8b2a294e17d93d027c53" target="_top" xlink:title="LittleWeebLibrary.Controllers.\lDownloadWebSocketController.OnWeb\lSocketEvent">
<polygon fill="white" stroke="black" points="674,-0.5 674,-41.5 861,-41.5 861,-0.5 674,-0.5"/>
<text text-anchor="start" x="682" y="-29.5" font-family="Helvetica,sans-Serif" font-size="10.00">LittleWeebLibrary.Controllers.</text>
<text text-anchor="start" x="682" y="-18.5" font-family="Helvetica,sans-Serif" font-size="10.00">DownloadWebSocketController.OnWeb</text>
<text text-anchor="middle" x="767.5" y="-7.5" font-family="Helvetica,sans-Serif" font-size="10.00">SocketEvent</text>
</a>
</g>
</g>
<!-- Node16&#45;&gt;Node17 -->
<g id="edge17" class="edge"><title>Node16&#45;&gt;Node17</title>
<path fill="none" stroke="midnightblue" d="M634.237,-21C647.436,-21 660.773,-21 673.639,-21"/>
<polygon fill="midnightblue" stroke="midnightblue" points="634.181,-17.5001 624.181,-21 634.181,-24.5001 634.181,-17.5001"/>
</g>
<!-- Node19 -->
<g id="node19" class="node"><title>Node19</title>
<g id="a_node19"><a xlink:href="class_little_weeb_library_1_1_services_1_1_file_web_socket_service.html#ae140d076e6f64585e7b71bb51545e1bb" target="_top" xlink:title="LittleWeebLibrary.Services.\lFileWebSocketService.OpenFile">
<polygon fill="white" stroke="black" points="440.5,-187 440.5,-217 597.5,-217 597.5,-187 440.5,-187"/>
<text text-anchor="start" x="448.5" y="-205" font-family="Helvetica,sans-Serif" font-size="10.00">LittleWeebLibrary.Services.</text>
<text text-anchor="middle" x="519" y="-194" font-family="Helvetica,sans-Serif" font-size="10.00">FileWebSocketService.OpenFile</text>
</a>
</g>
</g>
<!-- Node18&#45;&gt;Node19 -->
<g id="edge19" class="edge"><title>Node18&#45;&gt;Node19</title>
<path fill="none" stroke="midnightblue" d="M350.549,-220.454C379.171,-217.3 411.595,-213.726 440.236,-210.57"/>
<polygon fill="midnightblue" stroke="midnightblue" points="350.152,-216.976 340.596,-221.551 350.919,-223.934 350.152,-216.976"/>
</g>
<!-- Node19&#45;&gt;Node11 -->
<g id="edge20" class="edge"><title>Node19&#45;&gt;Node11</title>
<path fill="none" stroke="midnightblue" d="M590.656,-184.515C627.005,-175.52 670.867,-164.666 705.69,-156.048"/>
<polygon fill="midnightblue" stroke="midnightblue" points="589.483,-181.2 580.616,-187 591.164,-187.995 589.483,-181.2"/>
</g>
<!-- Node20&#45;&gt;Node8 -->
<g id="edge22" class="edge"><title>Node20&#45;&gt;Node8</title>
<path fill="none" stroke="midnightblue" d="M349.948,-295.274C375.503,-301.011 404.141,-307.44 430.436,-313.343"/>
<polygon fill="midnightblue" stroke="midnightblue" points="350.471,-291.804 339.947,-293.029 348.938,-298.634 350.471,-291.804"/>
</g>
<!-- Node21&#45;&gt;Node8 -->
<g id="edge24" class="edge"><title>Node21&#45;&gt;Node8</title>
<path fill="none" stroke="midnightblue" d="M366.723,-370.048C388.906,-364.615 412.424,-358.855 434.137,-353.538"/>
<polygon fill="midnightblue" stroke="midnightblue" points="365.853,-366.657 356.972,-372.435 367.518,-373.456 365.853,-366.657"/>
</g>
</g>
</svg>
