<?xml version="1.0" encoding="UTF-8" standalone="no"?>
<!DOCTYPE svg PUBLIC "-//W3C//DTD SVG 1.1//EN"
 "http://www.w3.org/Graphics/SVG/1.1/DTD/svg11.dtd">
<!-- Generated by graphviz version 2.38.0 (20140413.2041)
 -->
<!-- Title: LittleWeebLibrary.EventArguments.WebSocketEventArgs.ToString Pages: 1 -->
<svg width="429pt" height="450pt"
 viewBox="0.00 0.00 429.00 450.00" xmlns="http://www.w3.org/2000/svg" xmlns:xlink="http://www.w3.org/1999/xlink">
<g id="graph0" class="graph" transform="scale(1 1) rotate(0) translate(4 446)">
<title>LittleWeebLibrary.EventArguments.WebSocketEventArgs.ToString</title>
<polygon fill="white" stroke="none" points="-4,4 -4,-446 425,-446 425,4 -4,4"/>
<!-- Node1 -->
<g id="node1" class="node"><title>Node1</title>
<polygon fill="#bfbfbf" stroke="black" points="0,-206 0,-236 170,-236 170,-206 0,-206"/>
<text text-anchor="start" x="8" y="-224" font-family="Helvetica,sans-Serif" font-size="10.00">LittleWeebLibrary.EventArguments.</text>
<text text-anchor="middle" x="85" y="-213" font-family="Helvetica,sans-Serif" font-size="10.00">WebSocketEventArgs.ToString</text>
</g>
<!-- Node2 -->
<g id="node2" class="node"><title>Node2</title>
<g id="a_node2"><a xlink:href="class_little_weeb_library_1_1_controllers_1_1_sub_controllers_1_1_data_base_web_socket_controller.html#a655abc0c42c54c9ff3572e4b4271fa3b" target="_top" xlink:title="LittleWeebLibrary.Controllers.\lSubControllers.DataBaseWebSocket\lController.OnWebSocketEvent">
<polygon fill="white" stroke="black" points="225,-400.5 225,-441.5 402,-441.5 402,-400.5 225,-400.5"/>
<text text-anchor="start" x="233" y="-429.5" font-family="Helvetica,sans-Serif" font-size="10.00">LittleWeebLibrary.Controllers.</text>
<text text-anchor="start" x="233" y="-418.5" font-family="Helvetica,sans-Serif" font-size="10.00">SubControllers.DataBaseWebSocket</text>
<text text-anchor="middle" x="313.5" y="-407.5" font-family="Helvetica,sans-Serif" font-size="10.00">Controller.OnWebSocketEvent</text>
</a>
</g>
</g>
<!-- Node1&#45;&gt;Node2 -->
<g id="edge1" class="edge"><title>Node1&#45;&gt;Node2</title>
<path fill="none" stroke="midnightblue" d="M96.7233,-245.67C114.161,-282.861 152.206,-352.972 206,-391 211.804,-395.103 218.154,-398.646 224.773,-401.706"/>
<polygon fill="midnightblue" stroke="midnightblue" points="99.6938,-243.749 92.3555,-236.107 93.3265,-246.658 99.6938,-243.749"/>
</g>
<!-- Node3 -->
<g id="node3" class="node"><title>Node3</title>
<g id="a_node3"><a xlink:href="class_little_weeb_library_1_1_controllers_1_1_irc_web_socket_controller.html#a5ea966dddf1e0a082dd5ec28f6ace3ab" target="_top" xlink:title="LittleWeebLibrary.Controllers.\lIrcWebSocketController.OnWebSocketEvent">
<polygon fill="white" stroke="black" points="208.5,-351 208.5,-381 418.5,-381 418.5,-351 208.5,-351"/>
<text text-anchor="start" x="216.5" y="-369" font-family="Helvetica,sans-Serif" font-size="10.00">LittleWeebLibrary.Controllers.</text>
<text text-anchor="middle" x="313.5" y="-358" font-family="Helvetica,sans-Serif" font-size="10.00">IrcWebSocketController.OnWebSocketEvent</text>
</a>
</g>
</g>
<!-- Node1&#45;&gt;Node3 -->
<g id="edge2" class="edge"><title>Node1&#45;&gt;Node3</title>
<path fill="none" stroke="midnightblue" d="M102.846,-244.454C123.843,-271.903 162.33,-316.689 206,-341 212.969,-344.88 220.519,-348.16 228.27,-350.932"/>
<polygon fill="midnightblue" stroke="midnightblue" points="105.457,-242.102 96.6585,-236.199 99.8553,-246.301 105.457,-242.102"/>
</g>
<!-- Node4 -->
<g id="node4" class="node"><title>Node4</title>
<g id="a_node4"><a xlink:href="class_little_weeb_library_1_1_controllers_1_1_sub_controllers_1_1_directory_web_socket_controller.html#a2db42c05c620f5658a5b6e473581f84c" target="_top" xlink:title="LittleWeebLibrary.Controllers.\lSubControllers.DirectoryWebSocket\lController.OnWebSocketEvent">
<polygon fill="white" stroke="black" points="227,-290.5 227,-331.5 400,-331.5 400,-290.5 227,-290.5"/>
<text text-anchor="start" x="235" y="-319.5" font-family="Helvetica,sans-Serif" font-size="10.00">LittleWeebLibrary.Controllers.</text>
<text text-anchor="start" x="235" y="-308.5" font-family="Helvetica,sans-Serif" font-size="10.00">SubControllers.DirectoryWebSocket</text>
<text text-anchor="middle" x="313.5" y="-297.5" font-family="Helvetica,sans-Serif" font-size="10.00">Controller.OnWebSocketEvent</text>
</a>
</g>
</g>
<!-- Node1&#45;&gt;Node4 -->
<g id="edge3" class="edge"><title>Node1&#45;&gt;Node4</title>
<path fill="none" stroke="midnightblue" d="M121.391,-240.918C144.873,-253.573 176.658,-269.649 206,-281 214.689,-284.361 223.908,-287.526 233.145,-290.447"/>
<polygon fill="midnightblue" stroke="midnightblue" points="122.96,-237.787 112.504,-236.079 119.612,-243.935 122.96,-237.787"/>
</g>
<!-- Node5 -->
<g id="node5" class="node"><title>Node5</title>
<g id="a_node5"><a xlink:href="class_little_weeb_library_1_1_controllers_1_1_sub_controllers_1_1_info_api_web_socket_controller.html#ad620537574b819085ff8eb394add2912" target="_top" xlink:title="LittleWeebLibrary.Controllers.\lSubControllers.InfoApiWebSocketController.\lOnWebSocketEvent">
<polygon fill="white" stroke="black" points="209.5,-230.5 209.5,-271.5 417.5,-271.5 417.5,-230.5 209.5,-230.5"/>
<text text-anchor="start" x="217.5" y="-259.5" font-family="Helvetica,sans-Serif" font-size="10.00">LittleWeebLibrary.Controllers.</text>
<text text-anchor="start" x="217.5" y="-248.5" font-family="Helvetica,sans-Serif" font-size="10.00">SubControllers.InfoApiWebSocketController.</text>
<text text-anchor="middle" x="313.5" y="-237.5" font-family="Helvetica,sans-Serif" font-size="10.00">OnWebSocketEvent</text>
</a>
</g>
</g>
<!-- Node1&#45;&gt;Node5 -->
<g id="edge4" class="edge"><title>Node1&#45;&gt;Node5</title>
<path fill="none" stroke="midnightblue" d="M180.045,-233.456C189.747,-234.741 199.641,-236.052 209.434,-237.349"/>
<polygon fill="midnightblue" stroke="midnightblue" points="180.391,-229.972 170.018,-232.128 179.472,-236.911 180.391,-229.972"/>
</g>
<!-- Node6 -->
<g id="node6" class="node"><title>Node6</title>
<g id="a_node6"><a xlink:href="class_little_weeb_library_1_1_controllers_1_1_sub_controllers_1_1_settings_web_socket_controller.html#a39b333aee248388fd295a8511486c76e" target="_top" xlink:title="LittleWeebLibrary.Controllers.\lSubControllers.SettingsWebSocket\lController.OnWebSocketEvent">
<polygon fill="white" stroke="black" points="228.5,-170.5 228.5,-211.5 398.5,-211.5 398.5,-170.5 228.5,-170.5"/>
<text text-anchor="start" x="236.5" y="-199.5" font-family="Helvetica,sans-Serif" font-size="10.00">LittleWeebLibrary.Controllers.</text>
<text text-anchor="start" x="236.5" y="-188.5" font-family="Helvetica,sans-Serif" font-size="10.00">SubControllers.SettingsWebSocket</text>
<text text-anchor="middle" x="313.5" y="-177.5" font-family="Helvetica,sans-Serif" font-size="10.00">Controller.OnWebSocketEvent</text>
</a>
</g>
</g>
<!-- Node1&#45;&gt;Node6 -->
<g id="edge5" class="edge"><title>Node1&#45;&gt;Node6</title>
<path fill="none" stroke="midnightblue" d="M180.367,-208.501C196.247,-206.398 212.637,-204.227 228.24,-202.16"/>
<polygon fill="midnightblue" stroke="midnightblue" points="179.472,-205.089 170.018,-209.872 180.391,-212.028 179.472,-205.089"/>
</g>
<!-- Node7 -->
<g id="node7" class="node"><title>Node7</title>
<g id="a_node7"><a xlink:href="class_little_weeb_library_1_1_controllers_1_1_file_web_socket_controller.html#a9ecdec41f15ac23a56c402ff2c554a08" target="_top" xlink:title="LittleWeebLibrary.Controllers.\lFileWebSocketController.OnWebSocketEvent">
<polygon fill="white" stroke="black" points="206,-121 206,-151 421,-151 421,-121 206,-121"/>
<text text-anchor="start" x="214" y="-139" font-family="Helvetica,sans-Serif" font-size="10.00">LittleWeebLibrary.Controllers.</text>
<text text-anchor="middle" x="313.5" y="-128" font-family="Helvetica,sans-Serif" font-size="10.00">FileWebSocketController.OnWebSocketEvent</text>
</a>
</g>
</g>
<!-- Node1&#45;&gt;Node7 -->
<g id="edge6" class="edge"><title>Node1&#45;&gt;Node7</title>
<path fill="none" stroke="midnightblue" d="M120.771,-200.899C144.228,-188.025 176.222,-171.772 206,-161 216.359,-157.253 227.49,-153.92 238.513,-151.007"/>
<polygon fill="midnightblue" stroke="midnightblue" points="118.946,-197.909 111.906,-205.826 122.347,-204.027 118.946,-197.909"/>
</g>
<!-- Node8 -->
<g id="node8" class="node"><title>Node8</title>
<g id="a_node8"><a xlink:href="class_little_weeb_library_1_1_controllers_1_1_sub_controllers_1_1_version_web_socket_controller.html#aecbfb94508db51693b11ea8dba9cf7e9" target="_top" xlink:title="LittleWeebLibrary.Controllers.\lSubControllers.VersionWebSocketController.\lOnWebSocketEvent">
<polygon fill="white" stroke="black" points="207.5,-60.5 207.5,-101.5 419.5,-101.5 419.5,-60.5 207.5,-60.5"/>
<text text-anchor="start" x="215.5" y="-89.5" font-family="Helvetica,sans-Serif" font-size="10.00">LittleWeebLibrary.Controllers.</text>
<text text-anchor="start" x="215.5" y="-78.5" font-family="Helvetica,sans-Serif" font-size="10.00">SubControllers.VersionWebSocketController.</text>
<text text-anchor="middle" x="313.5" y="-67.5" font-family="Helvetica,sans-Serif" font-size="10.00">OnWebSocketEvent</text>
</a>
</g>
</g>
<!-- Node1&#45;&gt;Node8 -->
<g id="edge7" class="edge"><title>Node1&#45;&gt;Node8</title>
<path fill="none" stroke="midnightblue" d="M105.223,-198.211C127.197,-173.554 165.401,-134.727 206,-112 212.973,-108.096 220.485,-104.644 228.176,-101.598"/>
<polygon fill="midnightblue" stroke="midnightblue" points="102.369,-196.158 98.4139,-205.987 107.635,-200.77 102.369,-196.158"/>
</g>
<!-- Node9 -->
<g id="node9" class="node"><title>Node9</title>
<g id="a_node9"><a xlink:href="class_little_weeb_library_1_1_controllers_1_1_download_web_socket_controller.html#a9e5e421ed57b8b2a294e17d93d027c53" target="_top" xlink:title="LittleWeebLibrary.Controllers.\lDownloadWebSocketController.OnWeb\lSocketEvent">
<polygon fill="white" stroke="black" points="220,-0.5 220,-41.5 407,-41.5 407,-0.5 220,-0.5"/>
<text text-anchor="start" x="228" y="-29.5" font-family="Helvetica,sans-Serif" font-size="10.00">LittleWeebLibrary.Controllers.</text>
<text text-anchor="start" x="228" y="-18.5" font-family="Helvetica,sans-Serif" font-size="10.00">DownloadWebSocketController.OnWeb</text>
<text text-anchor="middle" x="313.5" y="-7.5" font-family="Helvetica,sans-Serif" font-size="10.00">SocketEvent</text>
</a>
</g>
</g>
<!-- Node1&#45;&gt;Node9 -->
<g id="edge8" class="edge"><title>Node1&#45;&gt;Node9</title>
<path fill="none" stroke="midnightblue" d="M96.7233,-196.33C114.161,-159.139 152.206,-89.0279 206,-51 211.019,-47.4517 216.448,-44.3217 222.105,-41.5609"/>
<polygon fill="midnightblue" stroke="midnightblue" points="93.3265,-195.342 92.3555,-205.893 99.6938,-198.251 93.3265,-195.342"/>
</g>
</g>
</svg>
