<?xml version="1.0" encoding="UTF-8" standalone="no"?>
<!DOCTYPE svg PUBLIC "-//W3C//DTD SVG 1.1//EN"
 "http://www.w3.org/Graphics/SVG/1.1/DTD/svg11.dtd">
<!-- Generated by graphviz version 2.38.0 (20140413.2041)
 -->
<!-- Title: LittleWeebLibrary.Controllers.SubControllers.InfoApiWebSocketController.InfoApiWebSocketController Pages: 1 -->
<svg width="398pt" height="50pt"
 viewBox="0.00 0.00 398.00 50.00" xmlns="http://www.w3.org/2000/svg" xmlns:xlink="http://www.w3.org/1999/xlink">
<g id="graph0" class="graph" transform="scale(1 1) rotate(0) translate(4 46)">
<title>LittleWeebLibrary.Controllers.SubControllers.InfoApiWebSocketController.InfoApiWebSocketController</title>
<polygon fill="white" stroke="none" points="-4,4 -4,-46 394,-46 394,4 -4,4"/>
<!-- Node0 -->
<g id="node1" class="node"><title>Node0</title>
<polygon fill="#bfbfbf" stroke="black" points="0,-0.5 0,-41.5 208,-41.5 208,-0.5 0,-0.5"/>
<text text-anchor="start" x="8" y="-29.5" font-family="Helvetica,sans-Serif" font-size="10.00">LittleWeebLibrary.Controllers.</text>
<text text-anchor="start" x="8" y="-18.5" font-family="Helvetica,sans-Serif" font-size="10.00">SubControllers.InfoApiWebSocketController.</text>
<text text-anchor="middle" x="104" y="-7.5" font-family="Helvetica,sans-Serif" font-size="10.00">InfoApiWebSocketController</text>
</g>
<!-- Node1 -->
<g id="node2" class="node"><title>Node1</title>
<g id="a_node2"><a xlink:href="interface_little_weeb_library_1_1_handlers_1_1_i_debug_handler.html#a2e405bc3492e683cd3702fae125221bc" target="_top" xlink:title="LittleWeebLibrary.Handlers.\lIDebugHandler.TraceMessage">
<polygon fill="white" stroke="black" points="244,-6 244,-36 390,-36 390,-6 244,-6"/>
<text text-anchor="start" x="252" y="-24" font-family="Helvetica,sans-Serif" font-size="10.00">LittleWeebLibrary.Handlers.</text>
<text text-anchor="middle" x="317" y="-13" font-family="Helvetica,sans-Serif" font-size="10.00">IDebugHandler.TraceMessage</text>
</a>
</g>
</g>
<!-- Node0&#45;&gt;Node1 -->
<g id="edge1" class="edge"><title>Node0&#45;&gt;Node1</title>
<path fill="none" stroke="midnightblue" d="M208.028,-21C216.655,-21 225.304,-21 233.744,-21"/>
<polygon fill="midnightblue" stroke="midnightblue" points="233.921,-24.5001 243.921,-21 233.921,-17.5001 233.921,-24.5001"/>
</g>
</g>
</svg>
