<?xml version="1.0" encoding="UTF-8" standalone="no"?>
<!DOCTYPE svg PUBLIC "-//W3C//DTD SVG 1.1//EN"
 "http://www.w3.org/Graphics/SVG/1.1/DTD/svg11.dtd">
<!-- Generated by graphviz version 2.38.0 (20140413.2041)
 -->
<!-- Title: LittleWeebLibrary.Models.JsonNiblSearchResult.ToJson Pages: 1 -->
<svg width="602pt" height="50pt"
 viewBox="0.00 0.00 602.00 50.00" xmlns="http://www.w3.org/2000/svg" xmlns:xlink="http://www.w3.org/1999/xlink">
<g id="graph0" class="graph" transform="scale(1 1) rotate(0) translate(4 46)">
<title>LittleWeebLibrary.Models.JsonNiblSearchResult.ToJson</title>
<polygon fill="white" stroke="none" points="-4,4 -4,-46 598,-46 598,4 -4,4"/>
<!-- Node1 -->
<g id="node1" class="node"><title>Node1</title>
<polygon fill="#bfbfbf" stroke="black" points="0,-6 0,-36 146,-36 146,-6 0,-6"/>
<text text-anchor="start" x="8" y="-24" font-family="Helvetica,sans-Serif" font-size="10.00">LittleWeebLibrary.Models.</text>
<text text-anchor="middle" x="73" y="-13" font-family="Helvetica,sans-Serif" font-size="10.00">JsonNiblSearchResult.ToJson</text>
</g>
<!-- Node2 -->
<g id="node2" class="node"><title>Node2</title>
<g id="a_node2"><a xlink:href="class_little_weeb_library_1_1_services_1_1_info_api_web_socket_service.html#a299be5b400f1368ab169599395a3e56d" target="_top" xlink:title="LittleWeebLibrary.Services.\lInfoApiWebSocketService.GetFiles\lForAnime">
<polygon fill="white" stroke="black" points="182,-0.5 182,-41.5 350,-41.5 350,-0.5 182,-0.5"/>
<text text-anchor="start" x="190" y="-29.5" font-family="Helvetica,sans-Serif" font-size="10.00">LittleWeebLibrary.Services.</text>
<text text-anchor="start" x="190" y="-18.5" font-family="Helvetica,sans-Serif" font-size="10.00">InfoApiWebSocketService.GetFiles</text>
<text text-anchor="middle" x="266" y="-7.5" font-family="Helvetica,sans-Serif" font-size="10.00">ForAnime</text>
</a>
</g>
</g>
<!-- Node1&#45;&gt;Node2 -->
<g id="edge1" class="edge"><title>Node1&#45;&gt;Node2</title>
<path fill="none" stroke="midnightblue" d="M156.391,-21C164.809,-21 173.366,-21 181.793,-21"/>
<polygon fill="midnightblue" stroke="midnightblue" points="156.209,-17.5001 146.209,-21 156.209,-24.5001 156.209,-17.5001"/>
</g>
<!-- Node3 -->
<g id="node3" class="node"><title>Node3</title>
<g id="a_node3"><a xlink:href="class_little_weeb_library_1_1_controllers_1_1_sub_controllers_1_1_info_api_web_socket_controller.html#ad620537574b819085ff8eb394add2912" target="_top" xlink:title="LittleWeebLibrary.Controllers.\lSubControllers.InfoApiWebSocketController.\lOnWebSocketEvent">
<polygon fill="white" stroke="black" points="386,-0.5 386,-41.5 594,-41.5 594,-0.5 386,-0.5"/>
<text text-anchor="start" x="394" y="-29.5" font-family="Helvetica,sans-Serif" font-size="10.00">LittleWeebLibrary.Controllers.</text>
<text text-anchor="start" x="394" y="-18.5" font-family="Helvetica,sans-Serif" font-size="10.00">SubControllers.InfoApiWebSocketController.</text>
<text text-anchor="middle" x="490" y="-7.5" font-family="Helvetica,sans-Serif" font-size="10.00">OnWebSocketEvent</text>
</a>
</g>
</g>
<!-- Node2&#45;&gt;Node3 -->
<g id="edge2" class="edge"><title>Node2&#45;&gt;Node3</title>
<path fill="none" stroke="midnightblue" d="M360.42,-21C368.785,-21 377.288,-21 385.731,-21"/>
<polygon fill="midnightblue" stroke="midnightblue" points="360.296,-17.5001 350.296,-21 360.296,-24.5001 360.296,-17.5001"/>
</g>
</g>
</svg>
