<?xml version="1.0" encoding="UTF-8" standalone="no"?>
<!DOCTYPE svg PUBLIC "-//W3C//DTD SVG 1.1//EN"
 "http://www.w3.org/Graphics/SVG/1.1/DTD/svg11.dtd">
<!-- Generated by graphviz version 2.38.0 (20140413.2041)
 -->
<!-- Title: LittleWeebLibrary.Services.IrcWebSocketService.SendMessage Pages: 1 -->
<svg width="565pt" height="225pt"
 viewBox="0.00 0.00 565.00 225.00" xmlns="http://www.w3.org/2000/svg" xmlns:xlink="http://www.w3.org/1999/xlink">
<g id="graph0" class="graph" transform="scale(1 1) rotate(0) translate(4 221)">
<title>LittleWeebLibrary.Services.IrcWebSocketService.SendMessage</title>
<polygon fill="white" stroke="none" points="-4,4 -4,-221 561,-221 561,4 -4,4"/>
<!-- Node45 -->
<g id="node1" class="node"><title>Node45</title>
<polygon fill="#bfbfbf" stroke="black" points="0,-98.5 0,-128.5 175,-128.5 175,-98.5 0,-98.5"/>
<text text-anchor="start" x="8" y="-116.5" font-family="Helvetica,sans-Serif" font-size="10.00">LittleWeebLibrary.Services.</text>
<text text-anchor="middle" x="87.5" y="-105.5" font-family="Helvetica,sans-Serif" font-size="10.00">IrcWebSocketService.SendMessage</text>
</g>
<!-- Node46 -->
<g id="node2" class="node"><title>Node46</title>
<g id="a_node2"><a xlink:href="class_little_weeb_library_1_1_handlers_1_1_web_socket_handler.html#a1de289d54d665a32c93478c68d3e6ad0" target="_top" xlink:title="LittleWeebLibrary.Handlers.\lWebSocketHandler.SendMessage">
<polygon fill="white" stroke="black" points="211,-186.5 211,-216.5 377,-216.5 377,-186.5 211,-186.5"/>
<text text-anchor="start" x="219" y="-204.5" font-family="Helvetica,sans-Serif" font-size="10.00">LittleWeebLibrary.Handlers.</text>
<text text-anchor="middle" x="294" y="-193.5" font-family="Helvetica,sans-Serif" font-size="10.00">WebSocketHandler.SendMessage</text>
</a>
</g>
</g>
<!-- Node45&#45;&gt;Node46 -->
<g id="edge1" class="edge"><title>Node45&#45;&gt;Node46</title>
<path fill="none" stroke="midnightblue" d="M118.359,-128.578C142.952,-140.768 178.876,-158.052 211,-171.5 220.229,-175.363 230.149,-179.229 239.792,-182.838"/>
<polygon fill="midnightblue" stroke="midnightblue" points="238.712,-186.171 249.305,-186.353 241.138,-179.604 238.712,-186.171"/>
</g>
<!-- Node47 -->
<g id="node3" class="node"><title>Node47</title>
<g id="a_node3"><a xlink:href="class_little_weeb_library_1_1_handlers_1_1_debug_handler.html#afccb37dfd6b2114af72000c2f4fe4607" target="_top" xlink:title="LittleWeebLibrary.Handlers.\lDebugHandler.TraceMessage">
<polygon fill="white" stroke="black" points="413,-142.5 413,-172.5 557,-172.5 557,-142.5 413,-142.5"/>
<text text-anchor="start" x="421" y="-160.5" font-family="Helvetica,sans-Serif" font-size="10.00">LittleWeebLibrary.Handlers.</text>
<text text-anchor="middle" x="485" y="-149.5" font-family="Helvetica,sans-Serif" font-size="10.00">DebugHandler.TraceMessage</text>
</a>
</g>
</g>
<!-- Node45&#45;&gt;Node47 -->
<g id="edge7" class="edge"><title>Node45&#45;&gt;Node47</title>
<path fill="none" stroke="midnightblue" d="M154.027,-128.533C172.379,-132.29 192.396,-135.966 211,-138.5 275.016,-147.221 348.054,-152.038 402.466,-154.638"/>
<polygon fill="midnightblue" stroke="midnightblue" points="402.596,-158.148 412.747,-155.114 402.919,-151.155 402.596,-158.148"/>
</g>
<!-- Node48 -->
<g id="node4" class="node"><title>Node48</title>
<g id="a_node4"><a xlink:href="class_little_weeb_library_1_1_handlers_1_1_irc_client_handler.html#ae28984176dff0eda63604b8e5c25abb4" target="_top" xlink:title="LittleWeebLibrary.Handlers.\lIrcClientHandler.SendMessage">
<polygon fill="white" stroke="black" points="219,-98.5 219,-128.5 369,-128.5 369,-98.5 219,-98.5"/>
<text text-anchor="start" x="227" y="-116.5" font-family="Helvetica,sans-Serif" font-size="10.00">LittleWeebLibrary.Handlers.</text>
<text text-anchor="middle" x="294" y="-105.5" font-family="Helvetica,sans-Serif" font-size="10.00">IrcClientHandler.SendMessage</text>
</a>
</g>
</g>
<!-- Node45&#45;&gt;Node48 -->
<g id="edge3" class="edge"><title>Node45&#45;&gt;Node48</title>
<path fill="none" stroke="midnightblue" d="M175.226,-113.5C186.311,-113.5 197.646,-113.5 208.692,-113.5"/>
<polygon fill="midnightblue" stroke="midnightblue" points="208.739,-117 218.739,-113.5 208.739,-110 208.739,-117"/>
</g>
<!-- Node49 -->
<g id="node5" class="node"><title>Node49</title>
<g id="a_node5"><a xlink:href="class_little_weeb_library_1_1_models_1_1_json_error.html#a0e3e7dd2e2990404b7f0461742b23440" target="_top" xlink:title="LittleWeebLibrary.Models.\lJsonError.ToJson">
<polygon fill="white" stroke="black" points="229,-49.5 229,-79.5 359,-79.5 359,-49.5 229,-49.5"/>
<text text-anchor="start" x="237" y="-67.5" font-family="Helvetica,sans-Serif" font-size="10.00">LittleWeebLibrary.Models.</text>
<text text-anchor="middle" x="294" y="-56.5" font-family="Helvetica,sans-Serif" font-size="10.00">JsonError.ToJson</text>
</a>
</g>
</g>
<!-- Node45&#45;&gt;Node49 -->
<g id="edge5" class="edge"><title>Node45&#45;&gt;Node49</title>
<path fill="none" stroke="midnightblue" d="M151.247,-98.4654C173.133,-93.2211 197.874,-87.2931 220.488,-81.8745"/>
<polygon fill="midnightblue" stroke="midnightblue" points="221.463,-85.2401 230.372,-79.5062 219.832,-78.4327 221.463,-85.2401"/>
</g>
<!-- Node50 -->
<g id="node6" class="node"><title>Node50</title>
<g id="a_node6"><a xlink:href="class_little_weeb_library_1_1_models_1_1_json_error.html#ad7d5522c90119111d2e929f39e7f6d3c" target="_top" xlink:title="LittleWeebLibrary.Models.\lJsonError.ToString">
<polygon fill="white" stroke="black" points="229,-0.5 229,-30.5 359,-30.5 359,-0.5 229,-0.5"/>
<text text-anchor="start" x="237" y="-18.5" font-family="Helvetica,sans-Serif" font-size="10.00">LittleWeebLibrary.Models.</text>
<text text-anchor="middle" x="294" y="-7.5" font-family="Helvetica,sans-Serif" font-size="10.00">JsonError.ToString</text>
</a>
</g>
</g>
<!-- Node45&#45;&gt;Node50 -->
<g id="edge6" class="edge"><title>Node45&#45;&gt;Node50</title>
<path fill="none" stroke="midnightblue" d="M110.206,-98.3591C134.04,-82.2699 173.872,-56.9323 211,-40.5 216.318,-38.1462 221.924,-35.9284 227.605,-33.86"/>
<polygon fill="midnightblue" stroke="midnightblue" points="228.904,-37.1137 237.199,-30.5225 226.604,-30.5023 228.904,-37.1137"/>
</g>
<!-- Node46&#45;&gt;Node47 -->
<g id="edge2" class="edge"><title>Node46&#45;&gt;Node47</title>
<path fill="none" stroke="midnightblue" d="M359.514,-186.481C375.543,-182.749 392.856,-178.719 409.328,-174.884"/>
<polygon fill="midnightblue" stroke="midnightblue" points="410.51,-178.203 419.456,-172.526 408.922,-171.385 410.51,-178.203"/>
</g>
<!-- Node48&#45;&gt;Node47 -->
<g id="edge4" class="edge"><title>Node48&#45;&gt;Node47</title>
<path fill="none" stroke="midnightblue" d="M359.514,-128.519C375.543,-132.251 392.856,-136.281 409.328,-140.116"/>
<polygon fill="midnightblue" stroke="midnightblue" points="408.922,-143.615 419.456,-142.474 410.51,-136.797 408.922,-143.615"/>
</g>
</g>
</svg>
