<?xml version="1.0" encoding="UTF-8" standalone="no"?>
<!DOCTYPE svg PUBLIC "-//W3C//DTD SVG 1.1//EN"
 "http://www.w3.org/Graphics/SVG/1.1/DTD/svg11.dtd">
<!-- Generated by graphviz version 2.38.0 (20140413.2041)
 -->
<!-- Title: LittleWeebLibrary.Services.VersionWebSocketService.CheckVersion Pages: 1 -->
<svg width="590pt" height="297pt"
 viewBox="0.00 0.00 590.00 296.50" xmlns="http://www.w3.org/2000/svg" xmlns:xlink="http://www.w3.org/1999/xlink">
<g id="graph0" class="graph" transform="scale(1 1) rotate(0) translate(4 292.5)">
<title>LittleWeebLibrary.Services.VersionWebSocketService.CheckVersion</title>
<polygon fill="white" stroke="none" points="-4,4 -4,-292.5 586,-292.5 586,4 -4,4"/>
<!-- Node3 -->
<g id="node1" class="node"><title>Node3</title>
<polygon fill="#bfbfbf" stroke="black" points="0,-134.5 0,-164.5 196,-164.5 196,-134.5 0,-134.5"/>
<text text-anchor="start" x="8" y="-152.5" font-family="Helvetica,sans-Serif" font-size="10.00">LittleWeebLibrary.Services.</text>
<text text-anchor="middle" x="98" y="-141.5" font-family="Helvetica,sans-Serif" font-size="10.00">VersionWebSocketService.CheckVersion</text>
</g>
<!-- Node4 -->
<g id="node2" class="node"><title>Node4</title>
<g id="a_node2"><a xlink:href="class_little_weeb_library_1_1_handlers_1_1_version_handler.html#a4021041fcc24a7f9489060c598222891" target="_top" xlink:title="LittleWeebLibrary.Handlers.\lVersionHandler.GetLatestVersion\lAndroid">
<polygon fill="white" stroke="black" points="234.5,-247 234.5,-288 395.5,-288 395.5,-247 234.5,-247"/>
<text text-anchor="start" x="242.5" y="-276" font-family="Helvetica,sans-Serif" font-size="10.00">LittleWeebLibrary.Handlers.</text>
<text text-anchor="start" x="242.5" y="-265" font-family="Helvetica,sans-Serif" font-size="10.00">VersionHandler.GetLatestVersion</text>
<text text-anchor="middle" x="315" y="-254" font-family="Helvetica,sans-Serif" font-size="10.00">Android</text>
</a>
</g>
</g>
<!-- Node3&#45;&gt;Node4 -->
<g id="edge1" class="edge"><title>Node3&#45;&gt;Node4</title>
<path fill="none" stroke="midnightblue" d="M120.97,-164.685C146.848,-182.219 191.456,-211.358 232,-232.5 238.605,-235.944 245.625,-239.33 252.669,-242.559"/>
<polygon fill="midnightblue" stroke="midnightblue" points="251.698,-245.959 262.255,-246.854 254.56,-239.571 251.698,-245.959"/>
</g>
<!-- Node5 -->
<g id="node3" class="node"><title>Node5</title>
<g id="a_node3"><a xlink:href="class_little_weeb_library_1_1_handlers_1_1_debug_handler.html#afccb37dfd6b2114af72000c2f4fe4607" target="_top" xlink:title="LittleWeebLibrary.Handlers.\lDebugHandler.TraceMessage">
<polygon fill="white" stroke="black" points="436,-159.5 436,-189.5 580,-189.5 580,-159.5 436,-159.5"/>
<text text-anchor="start" x="444" y="-177.5" font-family="Helvetica,sans-Serif" font-size="10.00">LittleWeebLibrary.Handlers.</text>
<text text-anchor="middle" x="508" y="-166.5" font-family="Helvetica,sans-Serif" font-size="10.00">DebugHandler.TraceMessage</text>
</a>
</g>
</g>
<!-- Node3&#45;&gt;Node5 -->
<g id="edge11" class="edge"><title>Node3&#45;&gt;Node5</title>
<path fill="none" stroke="midnightblue" d="M129.536,-164.593C155.927,-176.747 195.473,-192.861 232,-199.5 304.588,-212.694 324.691,-207.799 398,-199.5 412.577,-197.85 428.046,-194.996 442.609,-191.792"/>
<polygon fill="midnightblue" stroke="midnightblue" points="443.554,-195.166 452.524,-189.529 441.996,-188.342 443.554,-195.166"/>
</g>
<!-- Node6 -->
<g id="node4" class="node"><title>Node6</title>
<g id="a_node4"><a xlink:href="class_little_weeb_library_1_1_handlers_1_1_version_handler.html#ad4dc752be10a1b3cc2d546dc1d4d6bff" target="_top" xlink:title="LittleWeebLibrary.Handlers.\lVersionHandler.GetLatestVersion\lDesktop">
<polygon fill="white" stroke="black" points="234.5,-50 234.5,-91 395.5,-91 395.5,-50 234.5,-50"/>
<text text-anchor="start" x="242.5" y="-79" font-family="Helvetica,sans-Serif" font-size="10.00">LittleWeebLibrary.Handlers.</text>
<text text-anchor="start" x="242.5" y="-68" font-family="Helvetica,sans-Serif" font-size="10.00">VersionHandler.GetLatestVersion</text>
<text text-anchor="middle" x="315" y="-57" font-family="Helvetica,sans-Serif" font-size="10.00">Desktop</text>
</a>
</g>
</g>
<!-- Node3&#45;&gt;Node6 -->
<g id="edge3" class="edge"><title>Node3&#45;&gt;Node6</title>
<path fill="none" stroke="midnightblue" d="M139.946,-134.455C170.572,-123.202 213.079,-107.583 248.419,-94.5972"/>
<polygon fill="midnightblue" stroke="midnightblue" points="250.002,-97.7446 258.181,-91.0103 247.587,-91.1741 250.002,-97.7446"/>
</g>
<!-- Node8 -->
<g id="node6" class="node"><title>Node8</title>
<g id="a_node6"><a xlink:href="class_little_weeb_library_1_1_handlers_1_1_version_handler.html#ac2510dcad764a9c925d8da152740f095" target="_top" xlink:title="LittleWeebLibrary.Handlers.\lVersionHandler.GetLocalVersion">
<polygon fill="white" stroke="black" points="236,-159.5 236,-189.5 394,-189.5 394,-159.5 236,-159.5"/>
<text text-anchor="start" x="244" y="-177.5" font-family="Helvetica,sans-Serif" font-size="10.00">LittleWeebLibrary.Handlers.</text>
<text text-anchor="middle" x="315" y="-166.5" font-family="Helvetica,sans-Serif" font-size="10.00">VersionHandler.GetLocalVersion</text>
</a>
</g>
</g>
<!-- Node3&#45;&gt;Node8 -->
<g id="edge6" class="edge"><title>Node3&#45;&gt;Node8</title>
<path fill="none" stroke="midnightblue" d="M196.121,-160.793C206.032,-161.946 216.062,-163.112 225.87,-164.252"/>
<polygon fill="midnightblue" stroke="midnightblue" points="225.658,-167.751 235.995,-165.43 226.467,-160.798 225.658,-167.751"/>
</g>
<!-- Node9 -->
<g id="node7" class="node"><title>Node9</title>
<g id="a_node7"><a xlink:href="class_little_weeb_library_1_1_handlers_1_1_web_socket_handler.html#a1de289d54d665a32c93478c68d3e6ad0" target="_top" xlink:title="LittleWeebLibrary.Handlers.\lWebSocketHandler.SendMessage">
<polygon fill="white" stroke="black" points="232,-110.5 232,-140.5 398,-140.5 398,-110.5 232,-110.5"/>
<text text-anchor="start" x="240" y="-128.5" font-family="Helvetica,sans-Serif" font-size="10.00">LittleWeebLibrary.Handlers.</text>
<text text-anchor="middle" x="315" y="-117.5" font-family="Helvetica,sans-Serif" font-size="10.00">WebSocketHandler.SendMessage</text>
</a>
</g>
</g>
<!-- Node3&#45;&gt;Node9 -->
<g id="edge8" class="edge"><title>Node3&#45;&gt;Node9</title>
<path fill="none" stroke="midnightblue" d="M196.121,-138.659C204.587,-137.714 213.139,-136.759 221.565,-135.818"/>
<polygon fill="midnightblue" stroke="midnightblue" points="222.216,-139.268 231.766,-134.68 221.439,-132.311 222.216,-139.268"/>
</g>
<!-- Node10 -->
<g id="node8" class="node"><title>Node10</title>
<g id="a_node8"><a xlink:href="class_little_weeb_library_1_1_models_1_1_json_version_info.html#a79b72a4b31accba79e2fbf1ca93297c4" target="_top" xlink:title="LittleWeebLibrary.Models.\lJsonVersionInfo.ToJson">
<polygon fill="white" stroke="black" points="250,-0.5 250,-30.5 380,-30.5 380,-0.5 250,-0.5"/>
<text text-anchor="start" x="258" y="-18.5" font-family="Helvetica,sans-Serif" font-size="10.00">LittleWeebLibrary.Models.</text>
<text text-anchor="middle" x="315" y="-7.5" font-family="Helvetica,sans-Serif" font-size="10.00">JsonVersionInfo.ToJson</text>
</a>
</g>
</g>
<!-- Node3&#45;&gt;Node10 -->
<g id="edge10" class="edge"><title>Node3&#45;&gt;Node10</title>
<path fill="none" stroke="midnightblue" d="M113.525,-134.252C136.563,-110.897 183.827,-66.2713 232,-40.5 236.208,-38.249 240.648,-36.1697 245.196,-34.2545"/>
<polygon fill="midnightblue" stroke="midnightblue" points="246.61,-37.4593 254.643,-30.5509 244.055,-30.9421 246.61,-37.4593"/>
</g>
<!-- Node4&#45;&gt;Node5 -->
<g id="edge2" class="edge"><title>Node4&#45;&gt;Node5</title>
<path fill="none" stroke="midnightblue" d="M366.173,-246.89C376.759,-242.318 387.807,-237.376 398,-232.5 422.761,-220.654 450.023,-206.148 471.089,-194.606"/>
<polygon fill="midnightblue" stroke="midnightblue" points="472.935,-197.585 480.005,-189.695 469.557,-191.453 472.935,-197.585"/>
</g>
<!-- Node6&#45;&gt;Node5 -->
<g id="edge5" class="edge"><title>Node6&#45;&gt;Node5</title>
<path fill="none" stroke="midnightblue" d="M375.385,-91.0945C383.113,-94.3118 390.83,-97.8054 398,-101.5 427.005,-116.445 457.682,-137.524 479.076,-153.192"/>
<polygon fill="midnightblue" stroke="midnightblue" points="477.243,-156.19 487.362,-159.33 481.41,-150.565 477.243,-156.19"/>
</g>
<!-- Node7 -->
<g id="node5" class="node"><title>Node7</title>
<g id="a_node5"><a xlink:href="class_little_weeb_library_1_1_static_classes_1_1_utility_methods.html#afc8c716f32bc35d59afdb287be06c3ca" target="_top" xlink:title="LittleWeebLibrary.Static\lClasses.UtilityMethods.Check\lOperatingSystems">
<polygon fill="white" stroke="black" points="434,-50 434,-91 582,-91 582,-50 434,-50"/>
<text text-anchor="start" x="442" y="-79" font-family="Helvetica,sans-Serif" font-size="10.00">LittleWeebLibrary.Static</text>
<text text-anchor="start" x="442" y="-68" font-family="Helvetica,sans-Serif" font-size="10.00">Classes.UtilityMethods.Check</text>
<text text-anchor="middle" x="508" y="-57" font-family="Helvetica,sans-Serif" font-size="10.00">OperatingSystems</text>
</a>
</g>
</g>
<!-- Node6&#45;&gt;Node7 -->
<g id="edge4" class="edge"><title>Node6&#45;&gt;Node7</title>
<path fill="none" stroke="midnightblue" d="M395.618,-70.5C404.939,-70.5 414.468,-70.5 423.836,-70.5"/>
<polygon fill="midnightblue" stroke="midnightblue" points="423.92,-74.0001 433.92,-70.5 423.92,-67.0001 423.92,-74.0001"/>
</g>
<!-- Node8&#45;&gt;Node5 -->
<g id="edge7" class="edge"><title>Node8&#45;&gt;Node5</title>
<path fill="none" stroke="midnightblue" d="M394.238,-174.5C404.592,-174.5 415.226,-174.5 425.63,-174.5"/>
<polygon fill="midnightblue" stroke="midnightblue" points="425.94,-178 435.94,-174.5 425.94,-171 425.94,-178"/>
</g>
<!-- Node9&#45;&gt;Node5 -->
<g id="edge9" class="edge"><title>Node9&#45;&gt;Node5</title>
<path fill="none" stroke="midnightblue" d="M374.604,-140.535C394.863,-145.732 417.739,-151.601 438.706,-156.98"/>
<polygon fill="midnightblue" stroke="midnightblue" points="437.95,-160.399 448.506,-159.494 439.69,-153.619 437.95,-160.399"/>
</g>
</g>
</svg>
