<?xml version="1.0" encoding="UTF-8" standalone="no"?>
<!DOCTYPE svg PUBLIC "-//W3C//DTD SVG 1.1//EN"
 "http://www.w3.org/Graphics/SVG/1.1/DTD/svg11.dtd">
<!-- Generated by graphviz version 2.38.0 (20140413.2041)
 -->
<!-- Title: LittleWeebLibrary.Models.JsonDownloadInfo.ToString Pages: 1 -->
<svg width="804pt" height="137pt"
 viewBox="0.00 0.00 804.00 137.00" xmlns="http://www.w3.org/2000/svg" xmlns:xlink="http://www.w3.org/1999/xlink">
<g id="graph0" class="graph" transform="scale(1 1) rotate(0) translate(4 133)">
<title>LittleWeebLibrary.Models.JsonDownloadInfo.ToString</title>
<polygon fill="white" stroke="none" points="-4,4 -4,-133 800,-133 800,4 -4,4"/>
<!-- Node5 -->
<g id="node1" class="node"><title>Node5</title>
<polygon fill="#bfbfbf" stroke="black" points="0,-49.5 0,-79.5 133,-79.5 133,-49.5 0,-49.5"/>
<text text-anchor="start" x="8" y="-67.5" font-family="Helvetica,sans-Serif" font-size="10.00">LittleWeebLibrary.Models.</text>
<text text-anchor="middle" x="66.5" y="-56.5" font-family="Helvetica,sans-Serif" font-size="10.00">JsonDownloadInfo.ToString</text>
</g>
<!-- Node6 -->
<g id="node2" class="node"><title>Node6</title>
<g id="a_node2"><a xlink:href="class_little_weeb_library_1_1_handlers_1_1_download_handler.html#ad28cb47c19cac5e761ceff86ea021a02" target="_top" xlink:title="LittleWeebLibrary.Handlers.\lDownloadHandler.AddDownload">
<polygon fill="white" stroke="black" points="171.5,-98.5 171.5,-128.5 325.5,-128.5 325.5,-98.5 171.5,-98.5"/>
<text text-anchor="start" x="179.5" y="-116.5" font-family="Helvetica,sans-Serif" font-size="10.00">LittleWeebLibrary.Handlers.</text>
<text text-anchor="middle" x="248.5" y="-105.5" font-family="Helvetica,sans-Serif" font-size="10.00">DownloadHandler.AddDownload</text>
</a>
</g>
</g>
<!-- Node5&#45;&gt;Node6 -->
<g id="edge1" class="edge"><title>Node5&#45;&gt;Node6</title>
<path fill="none" stroke="midnightblue" d="M132.698,-82.2485C152.207,-87.5591 173.402,-93.3288 192.208,-98.4484"/>
<polygon fill="midnightblue" stroke="midnightblue" points="133.543,-78.851 122.975,-79.6014 131.704,-85.6053 133.543,-78.851"/>
</g>
<!-- Node9 -->
<g id="node5" class="node"><title>Node9</title>
<g id="a_node5"><a xlink:href="class_little_weeb_library_1_1_handlers_1_1_download_handler.html#ac03f2dc024c0884bb7bd1c68ee03142e" target="_top" xlink:title="LittleWeebLibrary.Handlers.\lDownloadHandler.AddDownloads">
<polygon fill="white" stroke="black" points="169,-49.5 169,-79.5 328,-79.5 328,-49.5 169,-49.5"/>
<text text-anchor="start" x="177" y="-67.5" font-family="Helvetica,sans-Serif" font-size="10.00">LittleWeebLibrary.Handlers.</text>
<text text-anchor="middle" x="248.5" y="-56.5" font-family="Helvetica,sans-Serif" font-size="10.00">DownloadHandler.AddDownloads</text>
</a>
</g>
</g>
<!-- Node5&#45;&gt;Node9 -->
<g id="edge4" class="edge"><title>Node5&#45;&gt;Node9</title>
<path fill="none" stroke="midnightblue" d="M143.388,-64.5C151.785,-64.5 160.351,-64.5 168.782,-64.5"/>
<polygon fill="midnightblue" stroke="midnightblue" points="143.248,-61.0001 133.248,-64.5 143.248,-68.0001 143.248,-61.0001"/>
</g>
<!-- Node11 -->
<g id="node7" class="node"><title>Node11</title>
<g id="a_node7"><a xlink:href="class_little_weeb_library_1_1_handlers_1_1_irc_client_handler.html#afa3e3e60cc12d3867d3c6e2a188dca14" target="_top" xlink:title="LittleWeebLibrary.Handlers.\lIrcClientHandler.StartDownload">
<polygon fill="white" stroke="black" points="173,-0.5 173,-30.5 324,-30.5 324,-0.5 173,-0.5"/>
<text text-anchor="start" x="181" y="-18.5" font-family="Helvetica,sans-Serif" font-size="10.00">LittleWeebLibrary.Handlers.</text>
<text text-anchor="middle" x="248.5" y="-7.5" font-family="Helvetica,sans-Serif" font-size="10.00">IrcClientHandler.StartDownload</text>
</a>
</g>
</g>
<!-- Node5&#45;&gt;Node11 -->
<g id="edge7" class="edge"><title>Node5&#45;&gt;Node11</title>
<path fill="none" stroke="midnightblue" d="M132.698,-46.7515C152.207,-41.4409 173.402,-35.6712 192.208,-30.5516"/>
<polygon fill="midnightblue" stroke="midnightblue" points="131.704,-43.3947 122.975,-49.3986 133.543,-50.149 131.704,-43.3947"/>
</g>
<!-- Node7 -->
<g id="node3" class="node"><title>Node7</title>
<g id="a_node3"><a xlink:href="class_little_weeb_library_1_1_services_1_1_download_web_socket_service.html#a7aaa1db63ee81a2e5246e45ef8643087" target="_top" xlink:title="LittleWeebLibrary.Services.\lDownloadWebSocketService.AddDownload">
<polygon fill="white" stroke="black" points="367,-98.5 367,-128.5 570,-128.5 570,-98.5 367,-98.5"/>
<text text-anchor="start" x="375" y="-116.5" font-family="Helvetica,sans-Serif" font-size="10.00">LittleWeebLibrary.Services.</text>
<text text-anchor="middle" x="468.5" y="-105.5" font-family="Helvetica,sans-Serif" font-size="10.00">DownloadWebSocketService.AddDownload</text>
</a>
</g>
</g>
<!-- Node6&#45;&gt;Node7 -->
<g id="edge2" class="edge"><title>Node6&#45;&gt;Node7</title>
<path fill="none" stroke="midnightblue" d="M335.811,-113.5C345.982,-113.5 356.429,-113.5 366.776,-113.5"/>
<polygon fill="midnightblue" stroke="midnightblue" points="335.746,-110 325.746,-113.5 335.746,-117 335.746,-110"/>
</g>
<!-- Node8 -->
<g id="node4" class="node"><title>Node8</title>
<g id="a_node4"><a xlink:href="class_little_weeb_library_1_1_controllers_1_1_download_web_socket_controller.html#a9e5e421ed57b8b2a294e17d93d027c53" target="_top" xlink:title="LittleWeebLibrary.Controllers.\lDownloadWebSocketController.OnWeb\lSocketEvent">
<polygon fill="white" stroke="black" points="609,-68 609,-109 796,-109 796,-68 609,-68"/>
<text text-anchor="start" x="617" y="-97" font-family="Helvetica,sans-Serif" font-size="10.00">LittleWeebLibrary.Controllers.</text>
<text text-anchor="start" x="617" y="-86" font-family="Helvetica,sans-Serif" font-size="10.00">DownloadWebSocketController.OnWeb</text>
<text text-anchor="middle" x="702.5" y="-75" font-family="Helvetica,sans-Serif" font-size="10.00">SocketEvent</text>
</a>
</g>
</g>
<!-- Node7&#45;&gt;Node8 -->
<g id="edge3" class="edge"><title>Node7&#45;&gt;Node8</title>
<path fill="none" stroke="midnightblue" d="M580.217,-101.569C589.812,-100.535 599.455,-99.4962 608.884,-98.4802"/>
<polygon fill="midnightblue" stroke="midnightblue" points="579.814,-98.0924 570.246,-102.644 580.564,-105.052 579.814,-98.0924"/>
</g>
<!-- Node10 -->
<g id="node6" class="node"><title>Node10</title>
<g id="a_node6"><a xlink:href="class_little_weeb_library_1_1_services_1_1_download_web_socket_service.html#ad6afd5ee42650d16c67790c6d2ac80c1" target="_top" xlink:title="LittleWeebLibrary.Services.\lDownloadWebSocketService.AddDownloads">
<polygon fill="white" stroke="black" points="364,-49.5 364,-79.5 573,-79.5 573,-49.5 364,-49.5"/>
<text text-anchor="start" x="372" y="-67.5" font-family="Helvetica,sans-Serif" font-size="10.00">LittleWeebLibrary.Services.</text>
<text text-anchor="middle" x="468.5" y="-56.5" font-family="Helvetica,sans-Serif" font-size="10.00">DownloadWebSocketService.AddDownloads</text>
</a>
</g>
</g>
<!-- Node9&#45;&gt;Node10 -->
<g id="edge5" class="edge"><title>Node9&#45;&gt;Node10</title>
<path fill="none" stroke="midnightblue" d="M338.361,-64.5C346.767,-64.5 355.339,-64.5 363.867,-64.5"/>
<polygon fill="midnightblue" stroke="midnightblue" points="338.203,-61.0001 328.203,-64.5 338.203,-68.0001 338.203,-61.0001"/>
</g>
<!-- Node10&#45;&gt;Node8 -->
<g id="edge6" class="edge"><title>Node10&#45;&gt;Node8</title>
<path fill="none" stroke="midnightblue" d="M583.291,-76.2715C591.83,-77.1548 600.385,-78.0398 608.771,-78.9073"/>
<polygon fill="midnightblue" stroke="midnightblue" points="583.593,-72.7841 573.286,-75.2365 582.873,-79.747 583.593,-72.7841"/>
</g>
<!-- Node12 -->
<g id="node8" class="node"><title>Node12</title>
<g id="a_node8"><a xlink:href="class_little_weeb_library_1_1_handlers_1_1_download_handler.html#a2f646f8d28235a8953b67207ee6131d9" target="_top" xlink:title="LittleWeebLibrary.Handlers.\lDownloadHandler.DownloadQueueHandler">
<polygon fill="white" stroke="black" points="369.5,-0.5 369.5,-30.5 567.5,-30.5 567.5,-0.5 369.5,-0.5"/>
<text text-anchor="start" x="377.5" y="-18.5" font-family="Helvetica,sans-Serif" font-size="10.00">LittleWeebLibrary.Handlers.</text>
<text text-anchor="middle" x="468.5" y="-7.5" font-family="Helvetica,sans-Serif" font-size="10.00">DownloadHandler.DownloadQueueHandler</text>
</a>
</g>
</g>
<!-- Node11&#45;&gt;Node12 -->
<g id="edge8" class="edge"><title>Node11&#45;&gt;Node12</title>
<path fill="none" stroke="midnightblue" d="M334.229,-15.5C345.749,-15.5 357.649,-15.5 369.38,-15.5"/>
<polygon fill="midnightblue" stroke="midnightblue" points="334.218,-12.0001 324.218,-15.5 334.218,-19.0001 334.218,-12.0001"/>
</g>
</g>
</svg>
