<?xml version="1.0" encoding="UTF-8" standalone="no"?>
<!DOCTYPE svg PUBLIC "-//W3C//DTD SVG 1.1//EN"
 "http://www.w3.org/Graphics/SVG/1.1/DTD/svg11.dtd">
<!-- Generated by graphviz version 2.38.0 (20140413.2041)
 -->
<!-- Title: LittleWeebLibrary.Handlers.AnimeProfileHandler.CurrentlyAiringAsync Pages: 1 -->
<svg width="560pt" height="61pt"
 viewBox="0.00 0.00 560.00 61.00" xmlns="http://www.w3.org/2000/svg" xmlns:xlink="http://www.w3.org/1999/xlink">
<g id="graph0" class="graph" transform="scale(1 1) rotate(0) translate(4 57)">
<title>LittleWeebLibrary.Handlers.AnimeProfileHandler.CurrentlyAiringAsync</title>
<polygon fill="white" stroke="none" points="-4,4 -4,-57 556,-57 556,4 -4,4"/>
<!-- Node71 -->
<g id="node1" class="node"><title>Node71</title>
<polygon fill="#bfbfbf" stroke="black" points="0,-0.5 0,-30.5 199,-30.5 199,-0.5 0,-0.5"/>
<text text-anchor="start" x="8" y="-18.5" font-family="Helvetica,sans-Serif" font-size="10.00">LittleWeebLibrary.Handlers.</text>
<text text-anchor="middle" x="99.5" y="-7.5" font-family="Helvetica,sans-Serif" font-size="10.00">AnimeProfileHandler.CurrentlyAiringAsync</text>
</g>
<!-- Node72 -->
<g id="node2" class="node"><title>Node72</title>
<g id="a_node2"><a xlink:href="class_little_weeb_library_1_1_handlers_1_1_kitsu_handler.html#a92f121e8fec8cce5ffe0454d3a17c156" target="_top" xlink:title="LittleWeebLibrary.Handlers.\lKitsuHandler.SearchAnime">
<polygon fill="white" stroke="black" points="235,-22.5 235,-52.5 372,-52.5 372,-22.5 235,-22.5"/>
<text text-anchor="start" x="243" y="-40.5" font-family="Helvetica,sans-Serif" font-size="10.00">LittleWeebLibrary.Handlers.</text>
<text text-anchor="middle" x="303.5" y="-29.5" font-family="Helvetica,sans-Serif" font-size="10.00">KitsuHandler.SearchAnime</text>
</a>
</g>
</g>
<!-- Node71&#45;&gt;Node72 -->
<g id="edge1" class="edge"><title>Node71&#45;&gt;Node72</title>
<path fill="none" stroke="midnightblue" d="M199.133,-26.2422C207.748,-27.1805 216.386,-28.1213 224.797,-29.0373"/>
<polygon fill="midnightblue" stroke="midnightblue" points="224.605,-32.537 234.925,-30.1404 225.363,-25.5782 224.605,-32.537"/>
</g>
<!-- Node73 -->
<g id="node3" class="node"><title>Node73</title>
<g id="a_node3"><a xlink:href="class_little_weeb_library_1_1_handlers_1_1_debug_handler.html#afccb37dfd6b2114af72000c2f4fe4607" target="_top" xlink:title="LittleWeebLibrary.Handlers.\lDebugHandler.TraceMessage">
<polygon fill="white" stroke="black" points="408,-0.5 408,-30.5 552,-30.5 552,-0.5 408,-0.5"/>
<text text-anchor="start" x="416" y="-18.5" font-family="Helvetica,sans-Serif" font-size="10.00">LittleWeebLibrary.Handlers.</text>
<text text-anchor="middle" x="480" y="-7.5" font-family="Helvetica,sans-Serif" font-size="10.00">DebugHandler.TraceMessage</text>
</a>
</g>
</g>
<!-- Node71&#45;&gt;Node73 -->
<g id="edge3" class="edge"><title>Node71&#45;&gt;Node73</title>
<path fill="none" stroke="midnightblue" d="M199.294,-13.8632C211.323,-13.7134 223.44,-13.5859 235,-13.5 295.887,-13.0473 311.114,-12.931 372,-13.5 380.346,-13.578 389.058,-13.6902 397.75,-13.8222"/>
<polygon fill="midnightblue" stroke="midnightblue" points="397.866,-17.3244 407.921,-13.9854 397.979,-10.3253 397.866,-17.3244"/>
</g>
<!-- Node72&#45;&gt;Node73 -->
<g id="edge2" class="edge"><title>Node72&#45;&gt;Node73</title>
<path fill="none" stroke="midnightblue" d="M372.466,-28.9312C380.698,-27.8934 389.171,-26.8251 397.572,-25.766"/>
<polygon fill="midnightblue" stroke="midnightblue" points="398.279,-29.2047 407.763,-24.4812 397.403,-22.2596 398.279,-29.2047"/>
</g>
</g>
</svg>
