<?xml version="1.0" encoding="UTF-8" standalone="no"?>
<!DOCTYPE svg PUBLIC "-//W3C//DTD SVG 1.1//EN"
 "http://www.w3.org/Graphics/SVG/1.1/DTD/svg11.dtd">
<!-- Generated by graphviz version 2.38.0 (20140413.2041)
 -->
<!-- Title: LittleWeebLibrary.Handlers.KitsuHandler.GetFullAnime Pages: 1 -->
<svg width="814pt" height="50pt"
 viewBox="0.00 0.00 814.00 50.00" xmlns="http://www.w3.org/2000/svg" xmlns:xlink="http://www.w3.org/1999/xlink">
<g id="graph0" class="graph" transform="scale(1 1) rotate(0) translate(4 46)">
<title>LittleWeebLibrary.Handlers.KitsuHandler.GetFullAnime</title>
<polygon fill="white" stroke="none" points="-4,4 -4,-46 810,-46 810,4 -4,4"/>
<!-- Node17 -->
<g id="node1" class="node"><title>Node17</title>
<polygon fill="#bfbfbf" stroke="black" points="0,-6 0,-36 137,-36 137,-6 0,-6"/>
<text text-anchor="start" x="8" y="-24" font-family="Helvetica,sans-Serif" font-size="10.00">LittleWeebLibrary.Handlers.</text>
<text text-anchor="middle" x="68.5" y="-13" font-family="Helvetica,sans-Serif" font-size="10.00">KitsuHandler.GetFullAnime</text>
</g>
<!-- Node18 -->
<g id="node2" class="node"><title>Node18</title>
<g id="a_node2"><a xlink:href="class_little_weeb_library_1_1_handlers_1_1_anime_profile_handler.html#aaa89fba506cfcdad18a5aa3f9b860061" target="_top" xlink:title="LittleWeebLibrary.Handlers.\lAnimeProfileHandler.GetAnimeProfile">
<polygon fill="white" stroke="black" points="173,-6 173,-36 351,-36 351,-6 173,-6"/>
<text text-anchor="start" x="181" y="-24" font-family="Helvetica,sans-Serif" font-size="10.00">LittleWeebLibrary.Handlers.</text>
<text text-anchor="middle" x="262" y="-13" font-family="Helvetica,sans-Serif" font-size="10.00">AnimeProfileHandler.GetAnimeProfile</text>
</a>
</g>
</g>
<!-- Node17&#45;&gt;Node18 -->
<g id="edge1" class="edge"><title>Node17&#45;&gt;Node18</title>
<path fill="none" stroke="midnightblue" d="M147.235,-21C155.708,-21 164.376,-21 172.961,-21"/>
<polygon fill="midnightblue" stroke="midnightblue" points="147.016,-17.5001 137.016,-21 147.016,-24.5001 147.016,-17.5001"/>
</g>
<!-- Node19 -->
<g id="node3" class="node"><title>Node19</title>
<g id="a_node3"><a xlink:href="class_little_weeb_library_1_1_services_1_1_info_api_web_socket_service.html#a12f4d83332b28988ce0e2bc5ff3ed369" target="_top" xlink:title="LittleWeebLibrary.Services.\lInfoApiWebSocketService.GetAnime\lProfile">
<polygon fill="white" stroke="black" points="387,-0.5 387,-41.5 562,-41.5 562,-0.5 387,-0.5"/>
<text text-anchor="start" x="395" y="-29.5" font-family="Helvetica,sans-Serif" font-size="10.00">LittleWeebLibrary.Services.</text>
<text text-anchor="start" x="395" y="-18.5" font-family="Helvetica,sans-Serif" font-size="10.00">InfoApiWebSocketService.GetAnime</text>
<text text-anchor="middle" x="474.5" y="-7.5" font-family="Helvetica,sans-Serif" font-size="10.00">Profile</text>
</a>
</g>
</g>
<!-- Node18&#45;&gt;Node19 -->
<g id="edge2" class="edge"><title>Node18&#45;&gt;Node19</title>
<path fill="none" stroke="midnightblue" d="M361.089,-21C369.677,-21 378.328,-21 386.814,-21"/>
<polygon fill="midnightblue" stroke="midnightblue" points="361.051,-17.5001 351.051,-21 361.051,-24.5001 361.051,-17.5001"/>
</g>
<!-- Node20 -->
<g id="node4" class="node"><title>Node20</title>
<g id="a_node4"><a xlink:href="class_little_weeb_library_1_1_controllers_1_1_sub_controllers_1_1_info_api_web_socket_controller.html#ad620537574b819085ff8eb394add2912" target="_top" xlink:title="LittleWeebLibrary.Controllers.\lSubControllers.InfoApiWebSocketController.\lOnWebSocketEvent">
<polygon fill="white" stroke="black" points="598,-0.5 598,-41.5 806,-41.5 806,-0.5 598,-0.5"/>
<text text-anchor="start" x="606" y="-29.5" font-family="Helvetica,sans-Serif" font-size="10.00">LittleWeebLibrary.Controllers.</text>
<text text-anchor="start" x="606" y="-18.5" font-family="Helvetica,sans-Serif" font-size="10.00">SubControllers.InfoApiWebSocketController.</text>
<text text-anchor="middle" x="702" y="-7.5" font-family="Helvetica,sans-Serif" font-size="10.00">OnWebSocketEvent</text>
</a>
</g>
</g>
<!-- Node19&#45;&gt;Node20 -->
<g id="edge3" class="edge"><title>Node19&#45;&gt;Node20</title>
<path fill="none" stroke="midnightblue" d="M572.25,-21C580.682,-21 589.235,-21 597.716,-21"/>
<polygon fill="midnightblue" stroke="midnightblue" points="572.039,-17.5001 562.039,-21 572.039,-24.5001 572.039,-17.5001"/>
</g>
</g>
</svg>
