<?xml version="1.0" encoding="UTF-8" standalone="no"?>
<!DOCTYPE svg PUBLIC "-//W3C//DTD SVG 1.1//EN"
 "http://www.w3.org/Graphics/SVG/1.1/DTD/svg11.dtd">
<!-- Generated by graphviz version 2.38.0 (20140413.2041)
 -->
<!-- Title: LittleWeebLibrary.Services.SettingsWebSocketService.SetLittleWeebSettings Pages: 1 -->
<svg width="585pt" height="286pt"
 viewBox="0.00 0.00 585.00 285.50" xmlns="http://www.w3.org/2000/svg" xmlns:xlink="http://www.w3.org/1999/xlink">
<g id="graph0" class="graph" transform="scale(1 1) rotate(0) translate(4 281.5)">
<title>LittleWeebLibrary.Services.SettingsWebSocketService.SetLittleWeebSettings</title>
<polygon fill="white" stroke="none" points="-4,4 -4,-281.5 581,-281.5 581,4 -4,4"/>
<!-- Node33 -->
<g id="node1" class="node"><title>Node33</title>
<polygon fill="#bfbfbf" stroke="black" points="0,-128.5 0,-169.5 174,-169.5 174,-128.5 0,-128.5"/>
<text text-anchor="start" x="8" y="-157.5" font-family="Helvetica,sans-Serif" font-size="10.00">LittleWeebLibrary.Services.</text>
<text text-anchor="start" x="8" y="-146.5" font-family="Helvetica,sans-Serif" font-size="10.00">SettingsWebSocketService.SetLittle</text>
<text text-anchor="middle" x="87" y="-135.5" font-family="Helvetica,sans-Serif" font-size="10.00">WeebSettings</text>
</g>
<!-- Node34 -->
<g id="node2" class="node"><title>Node34</title>
<g id="a_node2"><a xlink:href="class_little_weeb_library_1_1_handlers_1_1_settings_handler.html#a53a5c5206eb6d2c58fa9d970c9b97463" target="_top" xlink:title="LittleWeebLibrary.Handlers.\lSettingsHandler.GetLittleWeebSettings">
<polygon fill="white" stroke="black" points="210,-247 210,-277 397,-277 397,-247 210,-247"/>
<text text-anchor="start" x="218" y="-265" font-family="Helvetica,sans-Serif" font-size="10.00">LittleWeebLibrary.Handlers.</text>
<text text-anchor="middle" x="303.5" y="-254" font-family="Helvetica,sans-Serif" font-size="10.00">SettingsHandler.GetLittleWeebSettings</text>
</a>
</g>
</g>
<!-- Node33&#45;&gt;Node34 -->
<g id="edge1" class="edge"><title>Node33&#45;&gt;Node34</title>
<path fill="none" stroke="midnightblue" d="M113.797,-169.764C137.619,-188.134 174.572,-214.645 210,-232 218.664,-236.244 228.07,-240.089 237.454,-243.5"/>
<polygon fill="midnightblue" stroke="midnightblue" points="236.599,-246.909 247.194,-246.897 238.904,-240.299 236.599,-246.909"/>
</g>
<!-- Node35 -->
<g id="node3" class="node"><title>Node35</title>
<g id="a_node3"><a xlink:href="class_little_weeb_library_1_1_handlers_1_1_debug_handler.html#afccb37dfd6b2114af72000c2f4fe4607" target="_top" xlink:title="LittleWeebLibrary.Handlers.\lDebugHandler.TraceMessage">
<polygon fill="white" stroke="black" points="433,-181 433,-211 577,-211 577,-181 433,-181"/>
<text text-anchor="start" x="441" y="-199" font-family="Helvetica,sans-Serif" font-size="10.00">LittleWeebLibrary.Handlers.</text>
<text text-anchor="middle" x="505" y="-188" font-family="Helvetica,sans-Serif" font-size="10.00">DebugHandler.TraceMessage</text>
</a>
</g>
</g>
<!-- Node33&#45;&gt;Node35 -->
<g id="edge7" class="edge"><title>Node33&#45;&gt;Node35</title>
<path fill="none" stroke="midnightblue" d="M127.167,-169.623C150.514,-180.74 181.14,-193.316 210,-199 280.896,-212.964 363.284,-210.568 422.776,-205.634"/>
<polygon fill="midnightblue" stroke="midnightblue" points="423.206,-209.11 432.864,-204.755 422.598,-202.137 423.206,-209.11"/>
</g>
<!-- Node36 -->
<g id="node4" class="node"><title>Node36</title>
<g id="a_node4"><a xlink:href="class_little_weeb_library_1_1_handlers_1_1_web_socket_handler.html#a1de289d54d665a32c93478c68d3e6ad0" target="_top" xlink:title="LittleWeebLibrary.Handlers.\lWebSocketHandler.SendMessage">
<polygon fill="white" stroke="black" points="220.5,-159 220.5,-189 386.5,-189 386.5,-159 220.5,-159"/>
<text text-anchor="start" x="228.5" y="-177" font-family="Helvetica,sans-Serif" font-size="10.00">LittleWeebLibrary.Handlers.</text>
<text text-anchor="middle" x="303.5" y="-166" font-family="Helvetica,sans-Serif" font-size="10.00">WebSocketHandler.SendMessage</text>
</a>
</g>
</g>
<!-- Node33&#45;&gt;Node36 -->
<g id="edge3" class="edge"><title>Node33&#45;&gt;Node36</title>
<path fill="none" stroke="midnightblue" d="M174.009,-159.024C185.938,-160.415 198.232,-161.848 210.268,-163.25"/>
<polygon fill="midnightblue" stroke="midnightblue" points="209.966,-166.739 220.304,-164.42 210.777,-159.786 209.966,-166.739"/>
</g>
<!-- Node37 -->
<g id="node5" class="node"><title>Node37</title>
<g id="a_node5"><a xlink:href="class_little_weeb_library_1_1_models_1_1_json_error.html#a0e3e7dd2e2990404b7f0461742b23440" target="_top" xlink:title="LittleWeebLibrary.Models.\lJsonError.ToJson">
<polygon fill="white" stroke="black" points="238.5,-110 238.5,-140 368.5,-140 368.5,-110 238.5,-110"/>
<text text-anchor="start" x="246.5" y="-128" font-family="Helvetica,sans-Serif" font-size="10.00">LittleWeebLibrary.Models.</text>
<text text-anchor="middle" x="303.5" y="-117" font-family="Helvetica,sans-Serif" font-size="10.00">JsonError.ToJson</text>
</a>
</g>
</g>
<!-- Node33&#45;&gt;Node37 -->
<g id="edge5" class="edge"><title>Node33&#45;&gt;Node37</title>
<path fill="none" stroke="midnightblue" d="M174.009,-139.377C191.937,-137.371 210.689,-135.273 228.153,-133.319"/>
<polygon fill="midnightblue" stroke="midnightblue" points="228.721,-136.777 238.27,-132.187 227.943,-129.82 228.721,-136.777"/>
</g>
<!-- Node38 -->
<g id="node6" class="node"><title>Node38</title>
<g id="a_node6"><a xlink:href="class_little_weeb_library_1_1_models_1_1_json_error.html#ad7d5522c90119111d2e929f39e7f6d3c" target="_top" xlink:title="LittleWeebLibrary.Models.\lJsonError.ToString">
<polygon fill="white" stroke="black" points="238.5,-61 238.5,-91 368.5,-91 368.5,-61 238.5,-61"/>
<text text-anchor="start" x="246.5" y="-79" font-family="Helvetica,sans-Serif" font-size="10.00">LittleWeebLibrary.Models.</text>
<text text-anchor="middle" x="303.5" y="-68" font-family="Helvetica,sans-Serif" font-size="10.00">JsonError.ToString</text>
</a>
</g>
</g>
<!-- Node33&#45;&gt;Node38 -->
<g id="edge6" class="edge"><title>Node33&#45;&gt;Node38</title>
<path fill="none" stroke="midnightblue" d="M136.522,-128.48C158.713,-119.466 185.473,-109.112 210,-101 217.523,-98.5119 225.449,-96.0842 233.367,-93.7806"/>
<polygon fill="midnightblue" stroke="midnightblue" points="234.337,-97.1436 242.995,-91.0364 232.418,-90.4118 234.337,-97.1436"/>
</g>
<!-- Node39 -->
<g id="node7" class="node"><title>Node39</title>
<g id="a_node7"><a xlink:href="class_little_weeb_library_1_1_handlers_1_1_settings_handler.html#af5a1ea4a3605d938b363e83268774d6f" target="_top" xlink:title="LittleWeebLibrary.Handlers.\lSettingsHandler.WriteLittleWeeb\lSettings">
<polygon fill="white" stroke="black" points="224.5,-0.5 224.5,-41.5 382.5,-41.5 382.5,-0.5 224.5,-0.5"/>
<text text-anchor="start" x="232.5" y="-29.5" font-family="Helvetica,sans-Serif" font-size="10.00">LittleWeebLibrary.Handlers.</text>
<text text-anchor="start" x="232.5" y="-18.5" font-family="Helvetica,sans-Serif" font-size="10.00">SettingsHandler.WriteLittleWeeb</text>
<text text-anchor="middle" x="303.5" y="-7.5" font-family="Helvetica,sans-Serif" font-size="10.00">Settings</text>
</a>
</g>
</g>
<!-- Node33&#45;&gt;Node39 -->
<g id="edge8" class="edge"><title>Node33&#45;&gt;Node39</title>
<path fill="none" stroke="midnightblue" d="M108.755,-128.33C131.754,-106.437 170.797,-72.1721 210,-51 213.493,-49.1135 217.125,-47.3204 220.841,-45.6195"/>
<polygon fill="midnightblue" stroke="midnightblue" points="222.418,-48.751 230.218,-41.5808 219.649,-42.3219 222.418,-48.751"/>
</g>
<!-- Node34&#45;&gt;Node35 -->
<g id="edge2" class="edge"><title>Node34&#45;&gt;Node35</title>
<path fill="none" stroke="midnightblue" d="M351.115,-246.991C365.808,-242.231 382.092,-236.925 397,-232 414.191,-226.321 432.906,-220.053 449.809,-214.361"/>
<polygon fill="midnightblue" stroke="midnightblue" points="451.168,-217.596 459.526,-211.084 448.931,-210.963 451.168,-217.596"/>
</g>
<!-- Node36&#45;&gt;Node35 -->
<g id="edge4" class="edge"><title>Node36&#45;&gt;Node35</title>
<path fill="none" stroke="midnightblue" d="M386.508,-183.043C398.514,-184.368 410.875,-185.731 422.864,-187.053"/>
<polygon fill="midnightblue" stroke="midnightblue" points="422.508,-190.535 432.831,-188.152 423.275,-183.577 422.508,-190.535"/>
</g>
<!-- Node39&#45;&gt;Node35 -->
<g id="edge10" class="edge"><title>Node39&#45;&gt;Node35</title>
<path fill="none" stroke="midnightblue" d="M381.102,-41.5156C386.695,-44.3004 392.069,-47.4472 397,-51 441.627,-83.1534 475.424,-139.532 492.218,-171.697"/>
<polygon fill="midnightblue" stroke="midnightblue" points="489.221,-173.524 496.877,-180.848 495.459,-170.348 489.221,-173.524"/>
</g>
<!-- Node40 -->
<g id="node8" class="node"><title>Node40</title>
<g id="a_node8"><a xlink:href="class_little_weeb_library_1_1_settings_1_1_little_weeb_settings.html#a5a5b722dd8e117be810022882795b6ae" target="_top" xlink:title="LittleWeebLibrary.Settings.\lLittleWeebSettings.ToString">
<polygon fill="white" stroke="black" points="436,-6 436,-36 574,-36 574,-6 436,-6"/>
<text text-anchor="start" x="444" y="-24" font-family="Helvetica,sans-Serif" font-size="10.00">LittleWeebLibrary.Settings.</text>
<text text-anchor="middle" x="505" y="-13" font-family="Helvetica,sans-Serif" font-size="10.00">LittleWeebSettings.ToString</text>
</a>
</g>
</g>
<!-- Node39&#45;&gt;Node40 -->
<g id="edge9" class="edge"><title>Node39&#45;&gt;Node40</title>
<path fill="none" stroke="midnightblue" d="M382.775,-21C396.918,-21 411.665,-21 425.805,-21"/>
<polygon fill="midnightblue" stroke="midnightblue" points="425.977,-24.5001 435.977,-21 425.976,-17.5001 425.977,-24.5001"/>
</g>
</g>
</svg>
