<?xml version="1.0" encoding="UTF-8" standalone="no"?>
<!DOCTYPE svg PUBLIC "-//W3C//DTD SVG 1.1//EN"
 "http://www.w3.org/Graphics/SVG/1.1/DTD/svg11.dtd">
<!-- Generated by graphviz version 2.38.0 (20140413.2041)
 -->
<!-- Title: LittleWeebLibrary.Handlers.AnimeProfileHandler.GetAnimeProfile Pages: 1 -->
<svg width="641pt" height="50pt"
 viewBox="0.00 0.00 641.00 50.00" xmlns="http://www.w3.org/2000/svg" xmlns:xlink="http://www.w3.org/1999/xlink">
<g id="graph0" class="graph" transform="scale(1 1) rotate(0) translate(4 46)">
<title>LittleWeebLibrary.Handlers.AnimeProfileHandler.GetAnimeProfile</title>
<polygon fill="white" stroke="none" points="-4,4 -4,-46 637,-46 637,4 -4,4"/>
<!-- Node15 -->
<g id="node1" class="node"><title>Node15</title>
<polygon fill="#bfbfbf" stroke="black" points="0,-6 0,-36 178,-36 178,-6 0,-6"/>
<text text-anchor="start" x="8" y="-24" font-family="Helvetica,sans-Serif" font-size="10.00">LittleWeebLibrary.Handlers.</text>
<text text-anchor="middle" x="89" y="-13" font-family="Helvetica,sans-Serif" font-size="10.00">AnimeProfileHandler.GetAnimeProfile</text>
</g>
<!-- Node16 -->
<g id="node2" class="node"><title>Node16</title>
<g id="a_node2"><a xlink:href="class_little_weeb_library_1_1_services_1_1_info_api_web_socket_service.html#a12f4d83332b28988ce0e2bc5ff3ed369" target="_top" xlink:title="LittleWeebLibrary.Services.\lInfoApiWebSocketService.GetAnime\lProfile">
<polygon fill="white" stroke="black" points="214,-0.5 214,-41.5 389,-41.5 389,-0.5 214,-0.5"/>
<text text-anchor="start" x="222" y="-29.5" font-family="Helvetica,sans-Serif" font-size="10.00">LittleWeebLibrary.Services.</text>
<text text-anchor="start" x="222" y="-18.5" font-family="Helvetica,sans-Serif" font-size="10.00">InfoApiWebSocketService.GetAnime</text>
<text text-anchor="middle" x="301.5" y="-7.5" font-family="Helvetica,sans-Serif" font-size="10.00">Profile</text>
</a>
</g>
</g>
<!-- Node15&#45;&gt;Node16 -->
<g id="edge1" class="edge"><title>Node15&#45;&gt;Node16</title>
<path fill="none" stroke="midnightblue" d="M188.089,-21C196.677,-21 205.328,-21 213.814,-21"/>
<polygon fill="midnightblue" stroke="midnightblue" points="188.051,-17.5001 178.051,-21 188.051,-24.5001 188.051,-17.5001"/>
</g>
<!-- Node17 -->
<g id="node3" class="node"><title>Node17</title>
<g id="a_node3"><a xlink:href="class_little_weeb_library_1_1_controllers_1_1_sub_controllers_1_1_info_api_web_socket_controller.html#ad620537574b819085ff8eb394add2912" target="_top" xlink:title="LittleWeebLibrary.Controllers.\lSubControllers.InfoApiWebSocketController.\lOnWebSocketEvent">
<polygon fill="white" stroke="black" points="425,-0.5 425,-41.5 633,-41.5 633,-0.5 425,-0.5"/>
<text text-anchor="start" x="433" y="-29.5" font-family="Helvetica,sans-Serif" font-size="10.00">LittleWeebLibrary.Controllers.</text>
<text text-anchor="start" x="433" y="-18.5" font-family="Helvetica,sans-Serif" font-size="10.00">SubControllers.InfoApiWebSocketController.</text>
<text text-anchor="middle" x="529" y="-7.5" font-family="Helvetica,sans-Serif" font-size="10.00">OnWebSocketEvent</text>
</a>
</g>
</g>
<!-- Node16&#45;&gt;Node17 -->
<g id="edge2" class="edge"><title>Node16&#45;&gt;Node17</title>
<path fill="none" stroke="midnightblue" d="M399.25,-21C407.682,-21 416.235,-21 424.716,-21"/>
<polygon fill="midnightblue" stroke="midnightblue" points="399.039,-17.5001 389.039,-21 399.039,-24.5001 399.039,-17.5001"/>
</g>
</g>
</svg>
