<?xml version="1.0" encoding="UTF-8" standalone="no"?>
<!DOCTYPE svg PUBLIC "-//W3C//DTD SVG 1.1//EN"
 "http://www.w3.org/Graphics/SVG/1.1/DTD/svg11.dtd">
<!-- Generated by graphviz version 2.38.0 (20140413.2041)
 -->
<!-- Title: LittleWeebLibrary.Services.DownloadWebSocketService.Openfullfilepath Pages: 1 -->
<svg width="604pt" height="217pt"
 viewBox="0.00 0.00 604.00 216.50" xmlns="http://www.w3.org/2000/svg" xmlns:xlink="http://www.w3.org/1999/xlink">
<g id="graph0" class="graph" transform="scale(1 1) rotate(0) translate(4 212.5)">
<title>LittleWeebLibrary.Services.DownloadWebSocketService.Openfullfilepath</title>
<polygon fill="white" stroke="none" points="-4,4 -4,-212.5 600,-212.5 600,4 -4,4"/>
<!-- Node37 -->
<g id="node1" class="node"><title>Node37</title>
<polygon fill="#bfbfbf" stroke="black" points="0,-44.5 0,-74.5 210,-74.5 210,-44.5 0,-44.5"/>
<text text-anchor="start" x="8" y="-62.5" font-family="Helvetica,sans-Serif" font-size="10.00">LittleWeebLibrary.Services.</text>
<text text-anchor="middle" x="105" y="-51.5" font-family="Helvetica,sans-Serif" font-size="10.00">DownloadWebSocketService.Openfullfilepath</text>
</g>
<!-- Node38 -->
<g id="node2" class="node"><title>Node38</title>
<g id="a_node2"><a xlink:href="class_little_weeb_library_1_1_handlers_1_1_directory_handler.html#a4f3f5841ead561873cc5130efc6294aa" target="_top" xlink:title="LittleWeebLibrary.Handlers.\lDirectoryHandler.OpenDirectory">
<polygon fill="white" stroke="black" points="252,-88.5 252,-118.5 406,-118.5 406,-88.5 252,-88.5"/>
<text text-anchor="start" x="260" y="-106.5" font-family="Helvetica,sans-Serif" font-size="10.00">LittleWeebLibrary.Handlers.</text>
<text text-anchor="middle" x="329" y="-95.5" font-family="Helvetica,sans-Serif" font-size="10.00">DirectoryHandler.OpenDirectory</text>
</a>
</g>
</g>
<!-- Node37&#45;&gt;Node38 -->
<g id="edge1" class="edge"><title>Node37&#45;&gt;Node38</title>
<path fill="none" stroke="midnightblue" d="M181.779,-74.5192C201.228,-78.374 222.287,-82.5478 242.203,-86.4951"/>
<polygon fill="midnightblue" stroke="midnightblue" points="241.696,-89.9628 252.186,-88.4738 243.057,-83.0963 241.696,-89.9628"/>
</g>
<!-- Node42 -->
<g id="node6" class="node"><title>Node42</title>
<g id="a_node6"><a xlink:href="class_little_weeb_library_1_1_handlers_1_1_debug_handler.html#afccb37dfd6b2114af72000c2f4fe4607" target="_top" xlink:title="LittleWeebLibrary.Handlers.\lDebugHandler.TraceMessage">
<polygon fill="white" stroke="black" points="450,-19.5 450,-49.5 594,-49.5 594,-19.5 450,-19.5"/>
<text text-anchor="start" x="458" y="-37.5" font-family="Helvetica,sans-Serif" font-size="10.00">LittleWeebLibrary.Handlers.</text>
<text text-anchor="middle" x="522" y="-26.5" font-family="Helvetica,sans-Serif" font-size="10.00">DebugHandler.TraceMessage</text>
</a>
</g>
</g>
<!-- Node37&#45;&gt;Node42 -->
<g id="edge8" class="edge"><title>Node37&#45;&gt;Node42</title>
<path fill="none" stroke="midnightblue" d="M210.186,-53.2237C281.179,-48.947 373.834,-43.3654 439.455,-39.4124"/>
<polygon fill="midnightblue" stroke="midnightblue" points="439.976,-42.8874 449.747,-38.7923 439.555,-35.9001 439.976,-42.8874"/>
</g>
<!-- Node43 -->
<g id="node7" class="node"><title>Node43</title>
<g id="a_node7"><a xlink:href="class_little_weeb_library_1_1_handlers_1_1_web_socket_handler.html#a1de289d54d665a32c93478c68d3e6ad0" target="_top" xlink:title="LittleWeebLibrary.Handlers.\lWebSocketHandler.SendMessage">
<polygon fill="white" stroke="black" points="246,-0.5 246,-30.5 412,-30.5 412,-0.5 246,-0.5"/>
<text text-anchor="start" x="254" y="-18.5" font-family="Helvetica,sans-Serif" font-size="10.00">LittleWeebLibrary.Handlers.</text>
<text text-anchor="middle" x="329" y="-7.5" font-family="Helvetica,sans-Serif" font-size="10.00">WebSocketHandler.SendMessage</text>
</a>
</g>
</g>
<!-- Node37&#45;&gt;Node43 -->
<g id="edge6" class="edge"><title>Node37&#45;&gt;Node43</title>
<path fill="none" stroke="midnightblue" d="M181.779,-44.4808C201.228,-40.626 222.287,-36.4522 242.203,-32.5049"/>
<polygon fill="midnightblue" stroke="midnightblue" points="243.057,-35.9037 252.186,-30.5262 241.696,-29.0372 243.057,-35.9037"/>
</g>
<!-- Node39 -->
<g id="node3" class="node"><title>Node39</title>
<g id="a_node3"><a xlink:href="class_little_weeb_library_1_1_static_classes_1_1_utility_methods.html#afc8c716f32bc35d59afdb287be06c3ca" target="_top" xlink:title="LittleWeebLibrary.Static\lClasses.UtilityMethods.Check\lOperatingSystems">
<polygon fill="white" stroke="black" points="448,-167 448,-208 596,-208 596,-167 448,-167"/>
<text text-anchor="start" x="456" y="-196" font-family="Helvetica,sans-Serif" font-size="10.00">LittleWeebLibrary.Static</text>
<text text-anchor="start" x="456" y="-185" font-family="Helvetica,sans-Serif" font-size="10.00">Classes.UtilityMethods.Check</text>
<text text-anchor="middle" x="522" y="-174" font-family="Helvetica,sans-Serif" font-size="10.00">OperatingSystems</text>
</a>
</g>
</g>
<!-- Node38&#45;&gt;Node39 -->
<g id="edge2" class="edge"><title>Node38&#45;&gt;Node39</title>
<path fill="none" stroke="midnightblue" d="M361.901,-118.509C385.558,-129.54 418.654,-144.761 448,-157.5 452.142,-159.298 456.427,-161.13 460.75,-162.958"/>
<polygon fill="midnightblue" stroke="midnightblue" points="459.657,-166.295 470.233,-166.937 462.366,-159.84 459.657,-166.295"/>
</g>
<!-- Node40 -->
<g id="node4" class="node"><title>Node40</title>
<g id="a_node4"><a xlink:href="class_little_weeb_library_1_1_models_1_1_json_success.html#a407103dc37a77aaf47a782296bab7518" target="_top" xlink:title="LittleWeebLibrary.Models.\lJsonSuccess.ToJson">
<polygon fill="white" stroke="black" points="457,-117.5 457,-147.5 587,-147.5 587,-117.5 457,-117.5"/>
<text text-anchor="start" x="465" y="-135.5" font-family="Helvetica,sans-Serif" font-size="10.00">LittleWeebLibrary.Models.</text>
<text text-anchor="middle" x="522" y="-124.5" font-family="Helvetica,sans-Serif" font-size="10.00">JsonSuccess.ToJson</text>
</a>
</g>
</g>
<!-- Node38&#45;&gt;Node40 -->
<g id="edge3" class="edge"><title>Node38&#45;&gt;Node40</title>
<path fill="none" stroke="midnightblue" d="M406.037,-115.045C419.467,-117.084 433.433,-119.204 446.811,-121.236"/>
<polygon fill="midnightblue" stroke="midnightblue" points="446.496,-124.728 456.908,-122.769 447.547,-117.807 446.496,-124.728"/>
</g>
<!-- Node41 -->
<g id="node5" class="node"><title>Node41</title>
<g id="a_node5"><a xlink:href="class_little_weeb_library_1_1_models_1_1_json_error.html#a0e3e7dd2e2990404b7f0461742b23440" target="_top" xlink:title="LittleWeebLibrary.Models.\lJsonError.ToJson">
<polygon fill="white" stroke="black" points="457,-68.5 457,-98.5 587,-98.5 587,-68.5 457,-68.5"/>
<text text-anchor="start" x="465" y="-86.5" font-family="Helvetica,sans-Serif" font-size="10.00">LittleWeebLibrary.Models.</text>
<text text-anchor="middle" x="522" y="-75.5" font-family="Helvetica,sans-Serif" font-size="10.00">JsonError.ToJson</text>
</a>
</g>
</g>
<!-- Node38&#45;&gt;Node41 -->
<g id="edge4" class="edge"><title>Node38&#45;&gt;Node41</title>
<path fill="none" stroke="midnightblue" d="M406.037,-95.538C419.467,-94.1318 433.433,-92.6693 446.811,-91.2685"/>
<polygon fill="midnightblue" stroke="midnightblue" points="447.327,-94.7337 456.908,-90.2112 446.598,-87.7718 447.327,-94.7337"/>
</g>
<!-- Node38&#45;&gt;Node42 -->
<g id="edge5" class="edge"><title>Node38&#45;&gt;Node42</title>
<path fill="none" stroke="midnightblue" d="M372.271,-88.4382C385.078,-83.7668 399.153,-78.5238 412,-73.5 428.143,-67.1874 431.755,-64.5446 448,-58.5 453.08,-56.61 458.385,-54.7154 463.718,-52.8654"/>
<polygon fill="midnightblue" stroke="midnightblue" points="464.968,-56.1369 473.301,-49.5939 462.706,-49.5123 464.968,-56.1369"/>
</g>
<!-- Node43&#45;&gt;Node42 -->
<g id="edge7" class="edge"><title>Node43&#45;&gt;Node42</title>
<path fill="none" stroke="midnightblue" d="M412.11,-23.668C421.219,-24.5741 430.494,-25.4968 439.594,-26.4021"/>
<polygon fill="midnightblue" stroke="midnightblue" points="439.479,-29.9078 449.777,-27.415 440.172,-22.9422 439.479,-29.9078"/>
</g>
</g>
</svg>
