<?xml version="1.0" encoding="UTF-8" standalone="no"?>
<!DOCTYPE svg PUBLIC "-//W3C//DTD SVG 1.1//EN"
 "http://www.w3.org/Graphics/SVG/1.1/DTD/svg11.dtd">
<!-- Generated by graphviz version 2.38.0 (20140413.2041)
 -->
<!-- Title: LittleWeebLibrary.Services.DownloadWebSocketService.AbortDownload Pages: 1 -->
<svg width="785pt" height="362pt"
 viewBox="0.00 0.00 785.00 362.00" xmlns="http://www.w3.org/2000/svg" xmlns:xlink="http://www.w3.org/1999/xlink">
<g id="graph0" class="graph" transform="scale(1 1) rotate(0) translate(4 358)">
<title>LittleWeebLibrary.Services.DownloadWebSocketService.AbortDownload</title>
<polygon fill="white" stroke="none" points="-4,4 -4,-358 781,-358 781,4 -4,4"/>
<!-- Node60 -->
<g id="node1" class="node"><title>Node60</title>
<polygon fill="#bfbfbf" stroke="black" points="0,-71.5 0,-101.5 209,-101.5 209,-71.5 0,-71.5"/>
<text text-anchor="start" x="8" y="-89.5" font-family="Helvetica,sans-Serif" font-size="10.00">LittleWeebLibrary.Services.</text>
<text text-anchor="middle" x="104.5" y="-78.5" font-family="Helvetica,sans-Serif" font-size="10.00">DownloadWebSocketService.AbortDownload</text>
</g>
<!-- Node61 -->
<g id="node2" class="node"><title>Node61</title>
<g id="a_node2"><a xlink:href="class_little_weeb_library_1_1_handlers_1_1_download_handler.html#a5a28664c89bf43b921fc9d3f1845b5a1" target="_top" xlink:title="LittleWeebLibrary.Handlers.\lDownloadHandler.AbortDownload">
<polygon fill="white" stroke="black" points="248,-211.5 248,-241.5 408,-241.5 408,-211.5 248,-211.5"/>
<text text-anchor="start" x="256" y="-229.5" font-family="Helvetica,sans-Serif" font-size="10.00">LittleWeebLibrary.Handlers.</text>
<text text-anchor="middle" x="328" y="-218.5" font-family="Helvetica,sans-Serif" font-size="10.00">DownloadHandler.AbortDownload</text>
</a>
</g>
</g>
<!-- Node60&#45;&gt;Node61 -->
<g id="edge1" class="edge"><title>Node60&#45;&gt;Node61</title>
<path fill="none" stroke="midnightblue" d="M129.626,-101.749C169.676,-127.062 249.905,-177.772 294.762,-206.124"/>
<polygon fill="midnightblue" stroke="midnightblue" points="292.916,-209.097 303.239,-211.482 296.656,-203.18 292.916,-209.097"/>
</g>
<!-- Node63 -->
<g id="node4" class="node"><title>Node63</title>
<g id="a_node4"><a xlink:href="class_little_weeb_library_1_1_handlers_1_1_debug_handler.html#afccb37dfd6b2114af72000c2f4fe4607" target="_top" xlink:title="LittleWeebLibrary.Handlers.\lDebugHandler.TraceMessage">
<polygon fill="white" stroke="black" points="633,-235.5 633,-265.5 777,-265.5 777,-235.5 633,-235.5"/>
<text text-anchor="start" x="641" y="-253.5" font-family="Helvetica,sans-Serif" font-size="10.00">LittleWeebLibrary.Handlers.</text>
<text text-anchor="middle" x="705" y="-242.5" font-family="Helvetica,sans-Serif" font-size="10.00">DebugHandler.TraceMessage</text>
</a>
</g>
</g>
<!-- Node60&#45;&gt;Node63 -->
<g id="edge12" class="edge"><title>Node60&#45;&gt;Node63</title>
<path fill="none" stroke="midnightblue" d="M209.079,-90.9924C343.061,-97.4402 563.346,-110.445 597,-127.5 640.512,-149.55 673.934,-197.659 691.13,-226.746"/>
<polygon fill="midnightblue" stroke="midnightblue" points="688.121,-228.534 696.135,-235.464 694.191,-225.049 688.121,-228.534"/>
</g>
<!-- Node67 -->
<g id="node8" class="node"><title>Node67</title>
<g id="a_node8"><a xlink:href="class_little_weeb_library_1_1_handlers_1_1_web_socket_handler.html#a1de289d54d665a32c93478c68d3e6ad0" target="_top" xlink:title="LittleWeebLibrary.Handlers.\lWebSocketHandler.SendMessage">
<polygon fill="white" stroke="black" points="245,-49.5 245,-79.5 411,-79.5 411,-49.5 245,-49.5"/>
<text text-anchor="start" x="253" y="-67.5" font-family="Helvetica,sans-Serif" font-size="10.00">LittleWeebLibrary.Handlers.</text>
<text text-anchor="middle" x="328" y="-56.5" font-family="Helvetica,sans-Serif" font-size="10.00">WebSocketHandler.SendMessage</text>
</a>
</g>
</g>
<!-- Node60&#45;&gt;Node67 -->
<g id="edge9" class="edge"><title>Node60&#45;&gt;Node67</title>
<path fill="none" stroke="midnightblue" d="M209.116,-76.2085C217.601,-75.3658 226.142,-74.5175 234.539,-73.6835"/>
<polygon fill="midnightblue" stroke="midnightblue" points="235.091,-77.146 244.696,-72.6746 234.399,-70.1802 235.091,-77.146"/>
</g>
<!-- Node68 -->
<g id="node9" class="node"><title>Node68</title>
<g id="a_node9"><a xlink:href="class_little_weeb_library_1_1_models_1_1_json_error.html#a0e3e7dd2e2990404b7f0461742b23440" target="_top" xlink:title="LittleWeebLibrary.Models.\lJsonError.ToJson">
<polygon fill="white" stroke="black" points="263,-0.5 263,-30.5 393,-30.5 393,-0.5 263,-0.5"/>
<text text-anchor="start" x="271" y="-18.5" font-family="Helvetica,sans-Serif" font-size="10.00">LittleWeebLibrary.Models.</text>
<text text-anchor="middle" x="328" y="-7.5" font-family="Helvetica,sans-Serif" font-size="10.00">JsonError.ToJson</text>
</a>
</g>
</g>
<!-- Node60&#45;&gt;Node68 -->
<g id="edge11" class="edge"><title>Node60&#45;&gt;Node68</title>
<path fill="none" stroke="midnightblue" d="M148.711,-71.4418C176.191,-61.9895 212.577,-49.7022 245,-39.5 251.369,-37.4958 258.034,-35.4543 264.694,-33.4507"/>
<polygon fill="midnightblue" stroke="midnightblue" points="265.83,-36.7642 274.412,-30.551 263.829,-30.0565 265.83,-36.7642"/>
</g>
<!-- Node62 -->
<g id="node3" class="node"><title>Node62</title>
<g id="a_node3"><a xlink:href="class_little_weeb_library_1_1_handlers_1_1_irc_client_handler.html#a093409b2b1397a6a061e00802546c87b" target="_top" xlink:title="LittleWeebLibrary.Handlers.\lIrcClientHandler.IsDownloading">
<polygon fill="white" stroke="black" points="447,-323.5 447,-353.5 597,-353.5 597,-323.5 447,-323.5"/>
<text text-anchor="start" x="455" y="-341.5" font-family="Helvetica,sans-Serif" font-size="10.00">LittleWeebLibrary.Handlers.</text>
<text text-anchor="middle" x="522" y="-330.5" font-family="Helvetica,sans-Serif" font-size="10.00">IrcClientHandler.IsDownloading</text>
</a>
</g>
</g>
<!-- Node61&#45;&gt;Node62 -->
<g id="edge2" class="edge"><title>Node61&#45;&gt;Node62</title>
<path fill="none" stroke="midnightblue" d="M347.776,-241.52C370.375,-259.12 409.925,-288.427 447,-308.5 454.193,-312.395 462.002,-316.088 469.761,-319.465"/>
<polygon fill="midnightblue" stroke="midnightblue" points="468.58,-322.766 479.155,-323.421 471.297,-316.314 468.58,-322.766"/>
</g>
<!-- Node61&#45;&gt;Node63 -->
<g id="edge8" class="edge"><title>Node61&#45;&gt;Node63</title>
<path fill="none" stroke="midnightblue" d="M356.623,-241.638C379.931,-253.499 414.587,-269.038 447,-275.5 512.38,-288.535 530.772,-283.134 597,-275.5 611.182,-273.865 626.217,-271.05 640.393,-267.884"/>
<polygon fill="midnightblue" stroke="midnightblue" points="641.59,-271.199 650.539,-265.528 640.007,-264.38 641.59,-271.199"/>
</g>
<!-- Node64 -->
<g id="node5" class="node"><title>Node64</title>
<g id="a_node5"><a xlink:href="class_little_weeb_library_1_1_handlers_1_1_irc_client_handler.html#a265ca021f5086addf758e87f59a0aa11" target="_top" xlink:title="LittleWeebLibrary.Handlers.\lIrcClientHandler.StopDownload">
<polygon fill="white" stroke="black" points="447,-235.5 447,-265.5 597,-265.5 597,-235.5 447,-235.5"/>
<text text-anchor="start" x="455" y="-253.5" font-family="Helvetica,sans-Serif" font-size="10.00">LittleWeebLibrary.Handlers.</text>
<text text-anchor="middle" x="522" y="-242.5" font-family="Helvetica,sans-Serif" font-size="10.00">IrcClientHandler.StopDownload</text>
</a>
</g>
</g>
<!-- Node61&#45;&gt;Node64 -->
<g id="edge4" class="edge"><title>Node61&#45;&gt;Node64</title>
<path fill="none" stroke="midnightblue" d="M408.202,-236.4C417.609,-237.576 427.237,-238.78 436.712,-239.964"/>
<polygon fill="midnightblue" stroke="midnightblue" points="436.557,-243.472 446.914,-241.239 437.425,-236.526 436.557,-243.472"/>
</g>
<!-- Node65 -->
<g id="node6" class="node"><title>Node65</title>
<g id="a_node6"><a xlink:href="class_little_weeb_library_1_1_models_1_1_json_success.html#aa0e750a34606497266e5a4aedc03cdeb" target="_top" xlink:title="LittleWeebLibrary.Models.\lJsonSuccess.ToJObject">
<polygon fill="white" stroke="black" points="457,-186.5 457,-216.5 587,-216.5 587,-186.5 457,-186.5"/>
<text text-anchor="start" x="465" y="-204.5" font-family="Helvetica,sans-Serif" font-size="10.00">LittleWeebLibrary.Models.</text>
<text text-anchor="middle" x="522" y="-193.5" font-family="Helvetica,sans-Serif" font-size="10.00">JsonSuccess.ToJObject</text>
</a>
</g>
</g>
<!-- Node61&#45;&gt;Node65 -->
<g id="edge6" class="edge"><title>Node61&#45;&gt;Node65</title>
<path fill="none" stroke="midnightblue" d="M408.202,-216.187C420.999,-214.521 434.207,-212.801 446.878,-211.151"/>
<polygon fill="midnightblue" stroke="midnightblue" points="447.442,-214.608 456.906,-209.846 446.538,-207.666 447.442,-214.608"/>
</g>
<!-- Node66 -->
<g id="node7" class="node"><title>Node66</title>
<g id="a_node7"><a xlink:href="class_little_weeb_library_1_1_models_1_1_json_error.html#a0623b835bb68d5d5e1f591df6a09dd81" target="_top" xlink:title="LittleWeebLibrary.Models.\lJsonError.ToJObject">
<polygon fill="white" stroke="black" points="457,-137.5 457,-167.5 587,-167.5 587,-137.5 457,-137.5"/>
<text text-anchor="start" x="465" y="-155.5" font-family="Helvetica,sans-Serif" font-size="10.00">LittleWeebLibrary.Models.</text>
<text text-anchor="middle" x="522" y="-144.5" font-family="Helvetica,sans-Serif" font-size="10.00">JsonError.ToJObject</text>
</a>
</g>
</g>
<!-- Node61&#45;&gt;Node66 -->
<g id="edge7" class="edge"><title>Node61&#45;&gt;Node66</title>
<path fill="none" stroke="midnightblue" d="M362.257,-211.491C385.727,-201.125 418.026,-187.314 447,-176.5 452.14,-174.581 457.513,-172.667 462.914,-170.805"/>
<polygon fill="midnightblue" stroke="midnightblue" points="464.275,-174.04 472.624,-167.518 462.03,-167.409 464.275,-174.04"/>
</g>
<!-- Node62&#45;&gt;Node63 -->
<g id="edge3" class="edge"><title>Node62&#45;&gt;Node63</title>
<path fill="none" stroke="midnightblue" d="M562.525,-323.424C573.776,-318.879 585.968,-313.707 597,-308.5 621.636,-296.874 648.595,-282.248 669.289,-270.592"/>
<polygon fill="midnightblue" stroke="midnightblue" points="671.065,-273.609 678.037,-265.632 667.612,-267.52 671.065,-273.609"/>
</g>
<!-- Node64&#45;&gt;Node63 -->
<g id="edge5" class="edge"><title>Node64&#45;&gt;Node63</title>
<path fill="none" stroke="midnightblue" d="M597.142,-250.5C605.54,-250.5 614.133,-250.5 622.618,-250.5"/>
<polygon fill="midnightblue" stroke="midnightblue" points="622.893,-254 632.893,-250.5 622.893,-247 622.893,-254"/>
</g>
<!-- Node67&#45;&gt;Node63 -->
<g id="edge10" class="edge"><title>Node67&#45;&gt;Node63</title>
<path fill="none" stroke="midnightblue" d="M411.107,-56.5778C467.252,-55.0663 541.301,-61.0715 597,-94.5 647.747,-124.956 680.071,-189.838 694.762,-225.585"/>
<polygon fill="midnightblue" stroke="midnightblue" points="691.658,-227.253 698.598,-235.259 698.165,-224.673 691.658,-227.253"/>
</g>
</g>
</svg>
