<?xml version="1.0" encoding="UTF-8" standalone="no"?>
<!DOCTYPE svg PUBLIC "-//W3C//DTD SVG 1.1//EN"
 "http://www.w3.org/Graphics/SVG/1.1/DTD/svg11.dtd">
<!-- Generated by graphviz version 2.38.0 (20140413.2041)
 -->
<!-- Title: LittleWeebLibrary.Services.InfoApiWebSocketService.AddRule Pages: 1 -->
<!--zoomable 331 -->
<svg id="main" version="1.1" xmlns="http://www.w3.org/2000/svg" xmlns:xlink="http://www.w3.org/1999/xlink" xml:space="preserve" onload="init(evt)">
<style type="text/css"><![CDATA[
.edge:hover path { stroke: red; }
.edge:hover polygon { stroke: red; fill: red; }
]]></style>
<script type="text/javascript"><![CDATA[
var edges = document.getElementsByTagName('g');
if (edges && edges.length) {
  for (var i=0;i<edges.length;i++) {
    if (edges[i].id.substr(0,4)=='edge') {
      edges[i].setAttribute('class','edge');
    }
  }
}
]]></script>
        <defs>
                <circle id="rim" cx="0" cy="0" r="7"/>
                <circle id="rim2" cx="0" cy="0" r="3.5"/>
                <g id="zoomPlus">
                        <use xlink:href="#rim" fill="#404040">
                                <set attributeName="fill" to="#808080" begin="zoomplus.mouseover" end="zoomplus.mouseout"/>
                        </use>
                        <path d="M-4,0h8M0,-4v8" fill="none" stroke="white" stroke-width="1.5" pointer-events="none"/>
                </g>
                <g id="zoomMin">
                        <use xlink:href="#rim" fill="#404040">
                                <set attributeName="fill" to="#808080" begin="zoomminus.mouseover" end="zoomminus.mouseout"/>
                        </use>
                        <path d="M-4,0h8" fill="none" stroke="white" stroke-width="1.5" pointer-events="none"/>
                </g>
                <g id="dirArrow">
                        <path fill="none" stroke="white" stroke-width="1.5" d="M0,-3.0v7 M-2.5,-0.5L0,-3.0L2.5,-0.5"/>
                </g>
               <g id="resetDef">
                       <use xlink:href="#rim2" fill="#404040">
                               <set attributeName="fill" to="#808080" begin="reset.mouseover" end="reset.mouseout"/>
                       </use>
               </g>
        </defs>

<script type="text/javascript">
var viewWidth = 778;
var viewHeight = 331;
var sectionId = 'dynsection-14';
</script>
<script xlink:href="svgpan.js"/>
<svg id="graph" class="graph">
<g id="viewport">
<title>LittleWeebLibrary.Services.InfoApiWebSocketService.AddRule</title>
<polygon fill="white" stroke="none" points="-4,4 -4,-327 774,-327 774,4 -4,4"/>
<!-- Node87 -->
<g id="node1" class="node"><title>Node87</title>
<polygon fill="#bfbfbf" stroke="black" points="0,-93.5 0,-123.5 168,-123.5 168,-93.5 0,-93.5"/>
<text text-anchor="start" x="8" y="-111.5" font-family="Helvetica,sans-Serif" font-size="10.00">LittleWeebLibrary.Services.</text>
<text text-anchor="middle" x="84" y="-100.5" font-family="Helvetica,sans-Serif" font-size="10.00">InfoApiWebSocketService.AddRule</text>
</g>
<!-- Node88 -->
<g id="node2" class="node"><title>Node88</title>
<g id="a_node2"><a xlink:href="class_little_weeb_library_1_1_handlers_1_1_anime_rule_handler.html#a469232c6b73d0ceff935c4ef2d78d039" target="_top" xlink:title="LittleWeebLibrary.Handlers.\lAnimeRuleHandler.AddRules">
<polygon fill="white" stroke="black" points="204,-197.5 204,-227.5 346,-227.5 346,-197.5 204,-197.5"/>
<text text-anchor="start" x="212" y="-215.5" font-family="Helvetica,sans-Serif" font-size="10.00">LittleWeebLibrary.Handlers.</text>
<text text-anchor="middle" x="275" y="-204.5" font-family="Helvetica,sans-Serif" font-size="10.00">AnimeRuleHandler.AddRules</text>
</a>
</g>
</g>
<!-- Node87&#45;&gt;Node88 -->
<g id="edge1" class="edge"><title>Node87&#45;&gt;Node88</title>
<path fill="none" stroke="midnightblue" d="M112.482,-123.622C145.516,-141.8 201.059,-172.363 237.623,-192.483"/>
<polygon fill="midnightblue" stroke="midnightblue" points="236.036,-195.605 246.485,-197.359 239.411,-189.472 236.036,-195.605"/>
</g>
<!-- Node91 -->
<g id="node5" class="node"><title>Node91</title>
<g id="a_node5"><a xlink:href="class_little_weeb_library_1_1_handlers_1_1_debug_handler.html#afccb37dfd6b2114af72000c2f4fe4607" target="_top" xlink:title="LittleWeebLibrary.Handlers.\lDebugHandler.TraceMessage">
<polygon fill="white" stroke="black" points="605,-175.5 605,-205.5 749,-205.5 749,-175.5 605,-175.5"/>
<text text-anchor="start" x="613" y="-193.5" font-family="Helvetica,sans-Serif" font-size="10.00">LittleWeebLibrary.Handlers.</text>
<text text-anchor="middle" x="677" y="-182.5" font-family="Helvetica,sans-Serif" font-size="10.00">DebugHandler.TraceMessage</text>
</a>
</g>
</g>
<!-- Node87&#45;&gt;Node91 -->
<g id="edge13" class="edge"><title>Node87&#45;&gt;Node91</title>
<path fill="none" stroke="midnightblue" d="M168.014,-117.361C260.836,-127.627 415.535,-145.804 548,-166.5 563.118,-168.862 579.188,-171.652 594.65,-174.48"/>
<polygon fill="midnightblue" stroke="midnightblue" points="594.238,-177.963 604.707,-176.339 595.51,-171.079 594.238,-177.963"/>
</g>
<!-- Node94 -->
<g id="node8" class="node"><title>Node94</title>
<g id="a_node8"><a xlink:href="class_little_weeb_library_1_1_handlers_1_1_web_socket_handler.html#a1de289d54d665a32c93478c68d3e6ad0" target="_top" xlink:title="LittleWeebLibrary.Handlers.\lWebSocketHandler.SendMessage">
<polygon fill="white" stroke="black" points="382,-87.5 382,-117.5 548,-117.5 548,-87.5 382,-87.5"/>
<text text-anchor="start" x="390" y="-105.5" font-family="Helvetica,sans-Serif" font-size="10.00">LittleWeebLibrary.Handlers.</text>
<text text-anchor="middle" x="465" y="-94.5" font-family="Helvetica,sans-Serif" font-size="10.00">WebSocketHandler.SendMessage</text>
</a>
</g>
</g>
<!-- Node87&#45;&gt;Node94 -->
<g id="edge9" class="edge"><title>Node87&#45;&gt;Node94</title>
<path fill="none" stroke="midnightblue" d="M168.173,-107.183C228.341,-106.231 309.654,-104.943 371.804,-103.96"/>
<polygon fill="midnightblue" stroke="midnightblue" points="372.055,-107.456 381.999,-103.798 371.945,-100.457 372.055,-107.456"/>
</g>
<!-- Node95 -->
<g id="node9" class="node"><title>Node95</title>
<g id="a_node9"><a xlink:href="class_little_weeb_library_1_1_models_1_1_json_success.html#a407103dc37a77aaf47a782296bab7518" target="_top" xlink:title="LittleWeebLibrary.Models.\lJsonSuccess.ToJson">
<polygon fill="white" stroke="black" points="210,-49.5 210,-79.5 340,-79.5 340,-49.5 210,-49.5"/>
<text text-anchor="start" x="218" y="-67.5" font-family="Helvetica,sans-Serif" font-size="10.00">LittleWeebLibrary.Models.</text>
<text text-anchor="middle" x="275" y="-56.5" font-family="Helvetica,sans-Serif" font-size="10.00">JsonSuccess.ToJson</text>
</a>
</g>
</g>
<!-- Node87&#45;&gt;Node95 -->
<g id="edge11" class="edge"><title>Node87&#45;&gt;Node95</title>
<path fill="none" stroke="midnightblue" d="M149.514,-93.4808C165.632,-89.7286 183.048,-85.6741 199.601,-81.8205"/>
<polygon fill="midnightblue" stroke="midnightblue" points="200.83,-85.1279 209.776,-79.4516 199.243,-78.3102 200.83,-85.1279"/>
</g>
<!-- Node96 -->
<g id="node10" class="node"><title>Node96</title>
<g id="a_node10"><a xlink:href="class_little_weeb_library_1_1_models_1_1_json_error.html#a0e3e7dd2e2990404b7f0461742b23440" target="_top" xlink:title="LittleWeebLibrary.Models.\lJsonError.ToJson">
<polygon fill="white" stroke="black" points="210,-0.5 210,-30.5 340,-30.5 340,-0.5 210,-0.5"/>
<text text-anchor="start" x="218" y="-18.5" font-family="Helvetica,sans-Serif" font-size="10.00">LittleWeebLibrary.Models.</text>
<text text-anchor="middle" x="275" y="-7.5" font-family="Helvetica,sans-Serif" font-size="10.00">JsonError.ToJson</text>
</a>
</g>
</g>
<!-- Node87&#45;&gt;Node96 -->
<g id="edge12" class="edge"><title>Node87&#45;&gt;Node96</title>
<path fill="none" stroke="midnightblue" d="M107.986,-93.3568C131.441,-78.3444 169.234,-55.355 204,-39.5 208.055,-37.6509 212.296,-35.8622 216.598,-34.1516"/>
<polygon fill="midnightblue" stroke="midnightblue" points="217.972,-37.3737 226.067,-30.5382 215.476,-30.8337 217.972,-37.3737"/>
</g>
<!-- Node89 -->
<g id="node3" class="node"><title>Node89</title>
<g id="a_node3"><a xlink:href="class_little_weeb_library_1_1_handlers_1_1_data_base_handler.html#a7f61583807f99b7838a33d2db0f7ca68" target="_top" xlink:title="LittleWeebLibrary.Handlers.\lDataBaseHandler.GetJObject">
<polygon fill="white" stroke="black" points="393,-263.5 393,-293.5 537,-293.5 537,-263.5 393,-263.5"/>
<text text-anchor="start" x="401" y="-281.5" font-family="Helvetica,sans-Serif" font-size="10.00">LittleWeebLibrary.Handlers.</text>
<text text-anchor="middle" x="465" y="-270.5" font-family="Helvetica,sans-Serif" font-size="10.00">DataBaseHandler.GetJObject</text>
</a>
</g>
</g>
<!-- Node88&#45;&gt;Node89 -->
<g id="edge2" class="edge"><title>Node88&#45;&gt;Node89</title>
<path fill="none" stroke="midnightblue" d="M319.131,-227.642C346.597,-237.284 382.354,-249.837 411.471,-260.059"/>
<polygon fill="midnightblue" stroke="midnightblue" points="410.475,-263.419 421.07,-263.429 412.794,-256.814 410.475,-263.419"/>
</g>
<!-- Node88&#45;&gt;Node91 -->
<g id="edge6" class="edge"><title>Node88&#45;&gt;Node91</title>
<path fill="none" stroke="midnightblue" d="M346.126,-214.765C358.094,-215.071 370.403,-215.336 382,-215.5 455.77,-216.544 474.565,-222.604 548,-215.5 565.521,-213.805 584.204,-210.834 601.729,-207.518"/>
<polygon fill="midnightblue" stroke="midnightblue" points="602.752,-210.885 611.896,-205.533 601.41,-204.014 602.752,-210.885"/>
</g>
<!-- Node93 -->
<g id="node7" class="node"><title>Node93</title>
<g id="a_node7"><a xlink:href="class_little_weeb_library_1_1_handlers_1_1_data_base_handler.html#a9b2223ff71f688234f95d247ea3b5739" target="_top" xlink:title="LittleWeebLibrary.Handlers.\lDataBaseHandler.UpdateJObject">
<polygon fill="white" stroke="black" points="385.5,-175.5 385.5,-205.5 544.5,-205.5 544.5,-175.5 385.5,-175.5"/>
<text text-anchor="start" x="393.5" y="-193.5" font-family="Helvetica,sans-Serif" font-size="10.00">LittleWeebLibrary.Handlers.</text>
<text text-anchor="middle" x="465" y="-182.5" font-family="Helvetica,sans-Serif" font-size="10.00">DataBaseHandler.UpdateJObject</text>
</a>
</g>
</g>
<!-- Node88&#45;&gt;Node93 -->
<g id="edge7" class="edge"><title>Node88&#45;&gt;Node93</title>
<path fill="none" stroke="midnightblue" d="M346.004,-204.308C355.535,-203.193 365.417,-202.036 375.224,-200.889"/>
<polygon fill="midnightblue" stroke="midnightblue" points="375.873,-204.337 385.399,-199.698 375.06,-197.384 375.873,-204.337"/>
</g>
<!-- Node90 -->
<g id="node4" class="node"><title>Node90</title>
<g id="a_node4"><a xlink:href="class_little_weeb_library_1_1_static_classes_1_1_utility_methods.html#a7b5de7a3ecc749b655fc3ed2af55360b" target="_top" xlink:title="LittleWeebLibrary.Static\lClasses.UtilityMethods.ReadBinaryFile">
<polygon fill="white" stroke="black" points="584,-292.5 584,-322.5 770,-322.5 770,-292.5 584,-292.5"/>
<text text-anchor="start" x="592" y="-310.5" font-family="Helvetica,sans-Serif" font-size="10.00">LittleWeebLibrary.Static</text>
<text text-anchor="middle" x="677" y="-299.5" font-family="Helvetica,sans-Serif" font-size="10.00">Classes.UtilityMethods.ReadBinaryFile</text>
</a>
</g>
</g>
<!-- Node89&#45;&gt;Node90 -->
<g id="edge3" class="edge"><title>Node89&#45;&gt;Node90</title>
<path fill="none" stroke="midnightblue" d="M537.096,-288.318C548.927,-289.952 561.4,-291.674 573.821,-293.39"/>
<polygon fill="midnightblue" stroke="midnightblue" points="573.372,-296.861 583.757,-294.762 574.33,-289.927 573.372,-296.861"/>
</g>
<!-- Node89&#45;&gt;Node91 -->
<g id="edge4" class="edge"><title>Node89&#45;&gt;Node91</title>
<path fill="none" stroke="midnightblue" d="M509.215,-263.375C521.796,-258.787 535.512,-253.605 548,-248.5 577.536,-236.425 610.303,-221.549 635.29,-209.886"/>
<polygon fill="midnightblue" stroke="midnightblue" points="636.893,-213 644.462,-205.586 633.922,-206.662 636.893,-213"/>
</g>
<!-- Node92 -->
<g id="node6" class="node"><title>Node92</title>
<g id="a_node6"><a xlink:href="class_little_weeb_library_1_1_static_classes_1_1_utility_methods.html#a0a86ee01a3bf201bd9cc9b2552e54976" target="_top" xlink:title="LittleWeebLibrary.Static\lClasses.UtilityMethods.Unzip">
<polygon fill="white" stroke="black" points="604.5,-243.5 604.5,-273.5 749.5,-273.5 749.5,-243.5 604.5,-243.5"/>
<text text-anchor="start" x="612.5" y="-261.5" font-family="Helvetica,sans-Serif" font-size="10.00">LittleWeebLibrary.Static</text>
<text text-anchor="middle" x="677" y="-250.5" font-family="Helvetica,sans-Serif" font-size="10.00">Classes.UtilityMethods.Unzip</text>
</a>
</g>
</g>
<!-- Node89&#45;&gt;Node92 -->
<g id="edge5" class="edge"><title>Node89&#45;&gt;Node92</title>
<path fill="none" stroke="midnightblue" d="M537.096,-271.729C555.453,-269.981 575.359,-268.085 594.213,-266.289"/>
<polygon fill="midnightblue" stroke="midnightblue" points="594.639,-269.765 604.262,-265.332 593.975,-262.796 594.639,-269.765"/>
</g>
<!-- Node93&#45;&gt;Node91 -->
<g id="edge8" class="edge"><title>Node93&#45;&gt;Node91</title>
<path fill="none" stroke="midnightblue" d="M544.794,-190.5C561.082,-190.5 578.269,-190.5 594.646,-190.5"/>
<polygon fill="midnightblue" stroke="midnightblue" points="594.724,-194 604.724,-190.5 594.724,-187 594.724,-194"/>
</g>
<!-- Node94&#45;&gt;Node91 -->
<g id="edge10" class="edge"><title>Node94&#45;&gt;Node91</title>
<path fill="none" stroke="midnightblue" d="M509.215,-117.625C521.796,-122.213 535.512,-127.395 548,-132.5 577.536,-144.575 610.303,-159.451 635.29,-171.114"/>
<polygon fill="midnightblue" stroke="midnightblue" points="633.922,-174.338 644.462,-175.414 636.893,-168 633.922,-174.338"/>
</g>
</g>
</svg>
        <g id="navigator" transform="translate(0 0)" fill="#404254">
                <rect fill="#f2f5e9" fill-opacity="0.5" stroke="#606060" stroke-width=".5" x="0" y="0" width="60" height="60"/>
                <use id="zoomplus" xlink:href="#zoomPlus" x="17" y="9" onmousedown="handleZoom(evt,'in')"/>
                <use id="zoomminus" xlink:href="#zoomMin" x="42" y="9" onmousedown="handleZoom(evt,'out')"/>
                <use id="reset" xlink:href="#resetDef" x="30" y="36" onmousedown="handleReset()"/>
                <g id="arrowUp" xlink:href="#dirArrow" transform="translate(30 24)" onmousedown="handlePan(0,-1)">
                  <use xlink:href="#rim" fill="#404040">
                        <set attributeName="fill" to="#808080" begin="arrowUp.mouseover" end="arrowUp.mouseout"/>
                  </use>
                  <path fill="none" stroke="white" stroke-width="1.5" d="M0,-3.0v7 M-2.5,-0.5L0,-3.0L2.5,-0.5"/>
                </g>
                <g id="arrowRight" xlink:href="#dirArrow" transform="rotate(90) translate(36 -43)" onmousedown="handlePan(1,0)">
                  <use xlink:href="#rim" fill="#404040">
                        <set attributeName="fill" to="#808080" begin="arrowRight.mouseover" end="arrowRight.mouseout"/>
                  </use>
                  <path fill="none" stroke="white" stroke-width="1.5" d="M0,-3.0v7 M-2.5,-0.5L0,-3.0L2.5,-0.5"/>
                </g>
                <g id="arrowDown" xlink:href="#dirArrow" transform="rotate(180) translate(-30 -48)" onmousedown="handlePan(0,1)">
                  <use xlink:href="#rim" fill="#404040">
                        <set attributeName="fill" to="#808080" begin="arrowDown.mouseover" end="arrowDown.mouseout"/>
                  </use>
                  <path fill="none" stroke="white" stroke-width="1.5" d="M0,-3.0v7 M-2.5,-0.5L0,-3.0L2.5,-0.5"/>
                </g>
                <g id="arrowLeft" xlink:href="#dirArrow" transform="rotate(270) translate(-36 17)" onmousedown="handlePan(-1,0)">
                  <use xlink:href="#rim" fill="#404040">
                        <set attributeName="fill" to="#808080" begin="arrowLeft.mouseover" end="arrowLeft.mouseout"/>
                  </use>
                  <path fill="none" stroke="white" stroke-width="1.5" d="M0,-3.0v7 M-2.5,-0.5L0,-3.0L2.5,-0.5"/>
                </g>
        </g>
        <svg viewBox="0 0 15 15" width="100%" height="30px" preserveAspectRatio="xMaxYMin meet">
         <g id="arrow_out" transform="scale(0.3 0.3)">
          <a xlink:href="class_little_weeb_library_1_1_services_1_1_info_api_web_socket_service_a0ed7b2a1d1fe30b43d06232719570435_cgraph_org.svg" target="_base">
           <rect id="button" ry="5" rx="5" y="6" x="6" height="38" width="38"
                fill="#f2f5e9" fill-opacity="0.5" stroke="#606060" stroke-width="1.0"/>
           <path id="arrow"
             d="M 11.500037,31.436501 C 11.940474,20.09759 22.043105,11.32322 32.158766,21.979434 L 37.068811,17.246167 C 37.068811,17.246167 37.088388,32 37.088388,32 L 22.160133,31.978069 C 22.160133,31.978069 26.997745,27.140456 26.997745,27.140456 C 18.528582,18.264221 13.291696,25.230495 11.500037,31.436501 z"
             style="fill:#404040;"/>
          </a>
         </g>
        </svg>
</svg>
