<?xml version="1.0" encoding="UTF-8" standalone="no"?>
<!DOCTYPE svg PUBLIC "-//W3C//DTD SVG 1.1//EN"
 "http://www.w3.org/Graphics/SVG/1.1/DTD/svg11.dtd">
<!-- Generated by graphviz version 2.38.0 (20140413.2041)
 -->
<!-- Title: LittleWeebLibrary.Handlers.DataBaseHandler.DataBaseHandler Pages: 1 -->
<svg width="562pt" height="143pt"
 viewBox="0.00 0.00 562.00 142.50" xmlns="http://www.w3.org/2000/svg" xmlns:xlink="http://www.w3.org/1999/xlink">
<g id="graph0" class="graph" transform="scale(1 1) rotate(0) translate(4 138.5)">
<title>LittleWeebLibrary.Handlers.DataBaseHandler.DataBaseHandler</title>
<polygon fill="white" stroke="none" points="-4,4 -4,-138.5 558,-138.5 558,4 -4,4"/>
<!-- Node0 -->
<g id="node1" class="node"><title>Node0</title>
<polygon fill="#bfbfbf" stroke="black" points="0,-49.5 0,-79.5 171,-79.5 171,-49.5 0,-49.5"/>
<text text-anchor="start" x="8" y="-67.5" font-family="Helvetica,sans-Serif" font-size="10.00">LittleWeebLibrary.Handlers.</text>
<text text-anchor="middle" x="85.5" y="-56.5" font-family="Helvetica,sans-Serif" font-size="10.00">DataBaseHandler.DataBaseHandler</text>
</g>
<!-- Node1 -->
<g id="node2" class="node"><title>Node1</title>
<g id="a_node2"><a xlink:href="class_little_weeb_library_1_1_static_classes_1_1_utility_methods.html#a9fe4cf5d219f0453436fe9c85ad261bf" target="_top" xlink:title="LittleWeebLibrary.Static\lClasses.UtilityMethods.BasePath">
<polygon fill="white" stroke="black" points="207,-98.5 207,-128.5 370,-128.5 370,-98.5 207,-98.5"/>
<text text-anchor="start" x="215" y="-116.5" font-family="Helvetica,sans-Serif" font-size="10.00">LittleWeebLibrary.Static</text>
<text text-anchor="middle" x="288.5" y="-105.5" font-family="Helvetica,sans-Serif" font-size="10.00">Classes.UtilityMethods.BasePath</text>
</a>
</g>
</g>
<!-- Node0&#45;&gt;Node1 -->
<g id="edge1" class="edge"><title>Node0&#45;&gt;Node1</title>
<path fill="none" stroke="midnightblue" d="M148.173,-79.5346C169.588,-84.7554 193.784,-90.6537 215.93,-96.0526"/>
<polygon fill="midnightblue" stroke="midnightblue" points="215.4,-99.5257 225.944,-98.4938 217.058,-92.7249 215.4,-99.5257"/>
</g>
<!-- Node3 -->
<g id="node4" class="node"><title>Node3</title>
<g id="a_node4"><a xlink:href="interface_little_weeb_library_1_1_handlers_1_1_i_debug_handler.html#a2e405bc3492e683cd3702fae125221bc" target="_top" xlink:title="LittleWeebLibrary.Handlers.\lIDebugHandler.TraceMessage">
<polygon fill="white" stroke="black" points="215.5,-49.5 215.5,-79.5 361.5,-79.5 361.5,-49.5 215.5,-49.5"/>
<text text-anchor="start" x="223.5" y="-67.5" font-family="Helvetica,sans-Serif" font-size="10.00">LittleWeebLibrary.Handlers.</text>
<text text-anchor="middle" x="288.5" y="-56.5" font-family="Helvetica,sans-Serif" font-size="10.00">IDebugHandler.TraceMessage</text>
</a>
</g>
</g>
<!-- Node0&#45;&gt;Node3 -->
<g id="edge3" class="edge"><title>Node0&#45;&gt;Node3</title>
<path fill="none" stroke="midnightblue" d="M171.16,-64.5C182.413,-64.5 193.939,-64.5 205.152,-64.5"/>
<polygon fill="midnightblue" stroke="midnightblue" points="205.346,-68.0001 215.346,-64.5 205.346,-61.0001 205.346,-68.0001"/>
</g>
<!-- Node4 -->
<g id="node5" class="node"><title>Node4</title>
<g id="a_node5"><a xlink:href="class_little_weeb_library_1_1_handlers_1_1_debug_handler.html#afccb37dfd6b2114af72000c2f4fe4607" target="_top" xlink:title="LittleWeebLibrary.Handlers.\lDebugHandler.TraceMessage">
<polygon fill="white" stroke="black" points="216.5,-0.5 216.5,-30.5 360.5,-30.5 360.5,-0.5 216.5,-0.5"/>
<text text-anchor="start" x="224.5" y="-18.5" font-family="Helvetica,sans-Serif" font-size="10.00">LittleWeebLibrary.Handlers.</text>
<text text-anchor="middle" x="288.5" y="-7.5" font-family="Helvetica,sans-Serif" font-size="10.00">DebugHandler.TraceMessage</text>
</a>
</g>
</g>
<!-- Node0&#45;&gt;Node4 -->
<g id="edge4" class="edge"><title>Node0&#45;&gt;Node4</title>
<path fill="none" stroke="midnightblue" d="M148.173,-49.4654C169.588,-44.2446 193.784,-38.3463 215.93,-32.9474"/>
<polygon fill="midnightblue" stroke="midnightblue" points="217.058,-36.2751 225.944,-30.5062 215.4,-29.4743 217.058,-36.2751"/>
</g>
<!-- Node2 -->
<g id="node3" class="node"><title>Node2</title>
<g id="a_node3"><a xlink:href="class_little_weeb_library_1_1_static_classes_1_1_utility_methods.html#afc8c716f32bc35d59afdb287be06c3ca" target="_top" xlink:title="LittleWeebLibrary.Static\lClasses.UtilityMethods.Check\lOperatingSystems">
<polygon fill="white" stroke="black" points="406,-93 406,-134 554,-134 554,-93 406,-93"/>
<text text-anchor="start" x="414" y="-122" font-family="Helvetica,sans-Serif" font-size="10.00">LittleWeebLibrary.Static</text>
<text text-anchor="start" x="414" y="-111" font-family="Helvetica,sans-Serif" font-size="10.00">Classes.UtilityMethods.Check</text>
<text text-anchor="middle" x="480" y="-100" font-family="Helvetica,sans-Serif" font-size="10.00">OperatingSystems</text>
</a>
</g>
</g>
<!-- Node1&#45;&gt;Node2 -->
<g id="edge2" class="edge"><title>Node1&#45;&gt;Node2</title>
<path fill="none" stroke="midnightblue" d="M370.14,-113.5C378.591,-113.5 387.195,-113.5 395.675,-113.5"/>
<polygon fill="midnightblue" stroke="midnightblue" points="395.939,-117 405.939,-113.5 395.939,-110 395.939,-117"/>
</g>
</g>
</svg>
