<?xml version="1.0" encoding="UTF-8" standalone="no"?>
<!DOCTYPE svg PUBLIC "-//W3C//DTD SVG 1.1//EN"
 "http://www.w3.org/Graphics/SVG/1.1/DTD/svg11.dtd">
<!-- Generated by graphviz version 2.38.0 (20140413.2041)
 -->
<!-- Title: LittleWeebLibrary.Settings.LittleWeebSettings.ToString Pages: 1 -->
<svg width="799pt" height="489pt"
 viewBox="0.00 0.00 799.00 489.00" xmlns="http://www.w3.org/2000/svg" xmlns:xlink="http://www.w3.org/1999/xlink">
<g id="graph0" class="graph" transform="scale(1 1) rotate(0) translate(4 485)">
<title>LittleWeebLibrary.Settings.LittleWeebSettings.ToString</title>
<polygon fill="white" stroke="none" points="-4,4 -4,-485 795,-485 795,4 -4,4"/>
<!-- Node1 -->
<g id="node1" class="node"><title>Node1</title>
<polygon fill="#bfbfbf" stroke="black" points="0,-226 0,-256 138,-256 138,-226 0,-226"/>
<text text-anchor="start" x="8" y="-244" font-family="Helvetica,sans-Serif" font-size="10.00">LittleWeebLibrary.Settings.</text>
<text text-anchor="middle" x="69" y="-233" font-family="Helvetica,sans-Serif" font-size="10.00">LittleWeebSettings.ToString</text>
</g>
<!-- Node2 -->
<g id="node2" class="node"><title>Node2</title>
<g id="a_node2"><a xlink:href="class_little_weeb_library_1_1_services_1_1_settings_web_socket_service.html#a5ae643bad024f7eca3178d5359886f6f" target="_top" xlink:title="LittleWeebLibrary.Services.\lSettingsWebSocketService.SetAll\lLittleWeebSettings">
<polygon fill="white" stroke="black" points="192.5,-439.5 192.5,-480.5 356.5,-480.5 356.5,-439.5 192.5,-439.5"/>
<text text-anchor="start" x="200.5" y="-468.5" font-family="Helvetica,sans-Serif" font-size="10.00">LittleWeebLibrary.Services.</text>
<text text-anchor="start" x="200.5" y="-457.5" font-family="Helvetica,sans-Serif" font-size="10.00">SettingsWebSocketService.SetAll</text>
<text text-anchor="middle" x="274.5" y="-446.5" font-family="Helvetica,sans-Serif" font-size="10.00">LittleWeebSettings</text>
</a>
</g>
</g>
<!-- Node1&#45;&gt;Node2 -->
<g id="edge1" class="edge"><title>Node1&#45;&gt;Node2</title>
<path fill="none" stroke="midnightblue" d="M76.8709,-265.652C89.3912,-306.021 119.764,-386.115 174,-430 179.47,-434.426 185.583,-438.2 192.015,-441.417"/>
<polygon fill="midnightblue" stroke="midnightblue" points="80.2217,-264.641 74.0031,-256.063 73.5152,-266.646 80.2217,-264.641"/>
</g>
<!-- Node3 -->
<g id="node3" class="node"><title>Node3</title>
<g id="a_node3"><a xlink:href="class_little_weeb_library_1_1_handlers_1_1_web_socket_handler.html#a7ca1faf86f9796afd4c9981a7c961f3b" target="_top" xlink:title="LittleWeebLibrary.Handlers.\lWebSocketHandler.SetLittleWeebSettings">
<polygon fill="white" stroke="black" points="174,-390 174,-420 375,-420 375,-390 174,-390"/>
<text text-anchor="start" x="182" y="-408" font-family="Helvetica,sans-Serif" font-size="10.00">LittleWeebLibrary.Handlers.</text>
<text text-anchor="middle" x="274.5" y="-397" font-family="Helvetica,sans-Serif" font-size="10.00">WebSocketHandler.SetLittleWeebSettings</text>
</a>
</g>
</g>
<!-- Node1&#45;&gt;Node3 -->
<g id="edge2" class="edge"><title>Node1&#45;&gt;Node3</title>
<path fill="none" stroke="midnightblue" d="M81.3984,-265.451C97.4673,-297.141 129.827,-351.788 174,-381 179.188,-384.431 184.817,-387.372 190.669,-389.893"/>
<polygon fill="midnightblue" stroke="midnightblue" points="84.5007,-263.828 76.9395,-256.407 78.2222,-266.923 84.5007,-263.828"/>
</g>
<!-- Node4 -->
<g id="node4" class="node"><title>Node4</title>
<g id="a_node4"><a xlink:href="class_little_weeb_library_1_1_handlers_1_1_irc_client_handler.html#ae0b7e9fc2b6c7874a6be2a938f88fc1a" target="_top" xlink:title="LittleWeebLibrary.Handlers.\lIrcClientHandler.SetLittleWeebSettings">
<polygon fill="white" stroke="black" points="182,-341 182,-371 367,-371 367,-341 182,-341"/>
<text text-anchor="start" x="190" y="-359" font-family="Helvetica,sans-Serif" font-size="10.00">LittleWeebLibrary.Handlers.</text>
<text text-anchor="middle" x="274.5" y="-348" font-family="Helvetica,sans-Serif" font-size="10.00">IrcClientHandler.SetLittleWeebSettings</text>
</a>
</g>
</g>
<!-- Node1&#45;&gt;Node4 -->
<g id="edge3" class="edge"><title>Node1&#45;&gt;Node4</title>
<path fill="none" stroke="midnightblue" d="M90.0599,-263.575C109.54,-284.124 140.943,-313.8 174,-331 181.426,-334.864 189.479,-338.152 197.679,-340.945"/>
<polygon fill="midnightblue" stroke="midnightblue" points="92.5701,-261.135 83.1991,-256.191 87.4421,-265.899 92.5701,-261.135"/>
</g>
<!-- Node5 -->
<g id="node5" class="node"><title>Node5</title>
<g id="a_node5"><a xlink:href="class_little_weeb_library_1_1_services_1_1_directory_web_socket_service.html#a015a3ae2bb0f275de152ae039fad566e" target="_top" xlink:title="LittleWeebLibrary.Services.\lDirectoryWebSocketService.SetLittle\lWeebSettings">
<polygon fill="white" stroke="black" points="186,-280.5 186,-321.5 363,-321.5 363,-280.5 186,-280.5"/>
<text text-anchor="start" x="194" y="-309.5" font-family="Helvetica,sans-Serif" font-size="10.00">LittleWeebLibrary.Services.</text>
<text text-anchor="start" x="194" y="-298.5" font-family="Helvetica,sans-Serif" font-size="10.00">DirectoryWebSocketService.SetLittle</text>
<text text-anchor="middle" x="274.5" y="-287.5" font-family="Helvetica,sans-Serif" font-size="10.00">WeebSettings</text>
</a>
</g>
</g>
<!-- Node1&#45;&gt;Node5 -->
<g id="edge4" class="edge"><title>Node1&#45;&gt;Node5</title>
<path fill="none" stroke="midnightblue" d="M130.734,-258.907C153.761,-265.696 180.153,-273.478 203.932,-280.489"/>
<polygon fill="midnightblue" stroke="midnightblue" points="131.671,-255.534 121.089,-256.063 129.691,-262.248 131.671,-255.534"/>
</g>
<!-- Node6 -->
<g id="node6" class="node"><title>Node6</title>
<g id="a_node6"><a xlink:href="class_little_weeb_library_1_1_services_1_1_download_web_socket_service.html#a4b1d1eda437419a534bb4ee17ed26d4f" target="_top" xlink:title="LittleWeebLibrary.Services.\lDownloadWebSocketService.SetLittle\lWeebSettings">
<polygon fill="white" stroke="black" points="184.5,-220.5 184.5,-261.5 364.5,-261.5 364.5,-220.5 184.5,-220.5"/>
<text text-anchor="start" x="192.5" y="-249.5" font-family="Helvetica,sans-Serif" font-size="10.00">LittleWeebLibrary.Services.</text>
<text text-anchor="start" x="192.5" y="-238.5" font-family="Helvetica,sans-Serif" font-size="10.00">DownloadWebSocketService.SetLittle</text>
<text text-anchor="middle" x="274.5" y="-227.5" font-family="Helvetica,sans-Serif" font-size="10.00">WeebSettings</text>
</a>
</g>
</g>
<!-- Node1&#45;&gt;Node6 -->
<g id="edge5" class="edge"><title>Node1&#45;&gt;Node6</title>
<path fill="none" stroke="midnightblue" d="M148.246,-241C160.002,-241 172.201,-241 184.168,-241"/>
<polygon fill="midnightblue" stroke="midnightblue" points="148.046,-237.5 138.045,-241 148.045,-244.5 148.046,-237.5"/>
</g>
<!-- Node7 -->
<g id="node7" class="node"><title>Node7</title>
<g id="a_node7"><a xlink:href="class_little_weeb_library_1_1_handlers_1_1_file_handler.html#a81ebb3e28e77c5fc30acaf7d769ba8df" target="_top" xlink:title="LittleWeebLibrary.Handlers.\lFileHandler.SetLittleWeebSettings">
<polygon fill="white" stroke="black" points="191.5,-171 191.5,-201 357.5,-201 357.5,-171 191.5,-171"/>
<text text-anchor="start" x="199.5" y="-189" font-family="Helvetica,sans-Serif" font-size="10.00">LittleWeebLibrary.Handlers.</text>
<text text-anchor="middle" x="274.5" y="-178" font-family="Helvetica,sans-Serif" font-size="10.00">FileHandler.SetLittleWeebSettings</text>
</a>
</g>
</g>
<!-- Node1&#45;&gt;Node7 -->
<g id="edge6" class="edge"><title>Node1&#45;&gt;Node7</title>
<path fill="none" stroke="midnightblue" d="M130.394,-223.195C144.666,-219.094 159.848,-214.818 174,-211 186.381,-207.66 199.669,-204.221 212.373,-201.003"/>
<polygon fill="midnightblue" stroke="midnightblue" points="129.32,-219.862 120.683,-225.999 131.261,-226.588 129.32,-219.862"/>
</g>
<!-- Node8 -->
<g id="node8" class="node"><title>Node8</title>
<g id="a_node8"><a xlink:href="class_little_weeb_library_1_1_services_1_1_irc_web_socket_service.html#a48697b5d89c2899e73d1ecf7492bd083" target="_top" xlink:title="LittleWeebLibrary.Services.\lIrcWebSocketService.SetLittleWeeb\lSettings">
<polygon fill="white" stroke="black" points="187.5,-110.5 187.5,-151.5 361.5,-151.5 361.5,-110.5 187.5,-110.5"/>
<text text-anchor="start" x="195.5" y="-139.5" font-family="Helvetica,sans-Serif" font-size="10.00">LittleWeebLibrary.Services.</text>
<text text-anchor="start" x="195.5" y="-128.5" font-family="Helvetica,sans-Serif" font-size="10.00">IrcWebSocketService.SetLittleWeeb</text>
<text text-anchor="middle" x="274.5" y="-117.5" font-family="Helvetica,sans-Serif" font-size="10.00">Settings</text>
</a>
</g>
</g>
<!-- Node1&#45;&gt;Node8 -->
<g id="edge7" class="edge"><title>Node1&#45;&gt;Node8</title>
<path fill="none" stroke="midnightblue" d="M93.767,-219.08C113.854,-201.548 144.062,-177.427 174,-162 181.479,-158.146 189.523,-154.669 197.682,-151.56"/>
<polygon fill="midnightblue" stroke="midnightblue" points="91.225,-216.656 86.0681,-225.911 95.871,-221.892 91.225,-216.656"/>
</g>
<!-- Node9 -->
<g id="node9" class="node"><title>Node9</title>
<g id="a_node9"><a xlink:href="class_little_weeb_library_1_1_handlers_1_1_download_handler.html#a0ad546188f5b5145dd9b088852cd29f8" target="_top" xlink:title="LittleWeebLibrary.Handlers.\lDownloadHandler.SetLittleWeebSettings">
<polygon fill="white" stroke="black" points="178.5,-61 178.5,-91 370.5,-91 370.5,-61 178.5,-61"/>
<text text-anchor="start" x="186.5" y="-79" font-family="Helvetica,sans-Serif" font-size="10.00">LittleWeebLibrary.Handlers.</text>
<text text-anchor="middle" x="274.5" y="-68" font-family="Helvetica,sans-Serif" font-size="10.00">DownloadHandler.SetLittleWeebSettings</text>
</a>
</g>
</g>
<!-- Node1&#45;&gt;Node9 -->
<g id="edge8" class="edge"><title>Node1&#45;&gt;Node9</title>
<path fill="none" stroke="midnightblue" d="M81.4402,-216.612C97.5553,-184.991 129.966,-130.421 174,-101 179.85,-97.0915 186.263,-93.7939 192.927,-91.0118"/>
<polygon fill="midnightblue" stroke="midnightblue" points="78.2729,-215.121 76.9674,-225.635 84.5446,-218.23 78.2729,-215.121"/>
</g>
<!-- Node10 -->
<g id="node10" class="node"><title>Node10</title>
<g id="a_node10"><a xlink:href="class_little_weeb_library_1_1_handlers_1_1_settings_handler.html#af5a1ea4a3605d938b363e83268774d6f" target="_top" xlink:title="LittleWeebLibrary.Handlers.\lSettingsHandler.WriteLittleWeeb\lSettings">
<polygon fill="white" stroke="black" points="195.5,-0.5 195.5,-41.5 353.5,-41.5 353.5,-0.5 195.5,-0.5"/>
<text text-anchor="start" x="203.5" y="-29.5" font-family="Helvetica,sans-Serif" font-size="10.00">LittleWeebLibrary.Handlers.</text>
<text text-anchor="start" x="203.5" y="-18.5" font-family="Helvetica,sans-Serif" font-size="10.00">SettingsHandler.WriteLittleWeeb</text>
<text text-anchor="middle" x="274.5" y="-7.5" font-family="Helvetica,sans-Serif" font-size="10.00">Settings</text>
</a>
</g>
</g>
<!-- Node1&#45;&gt;Node10 -->
<g id="edge9" class="edge"><title>Node1&#45;&gt;Node10</title>
<path fill="none" stroke="midnightblue" d="M76.9963,-216.146C89.6307,-175.775 120.081,-96.0402 174,-52 180.446,-46.735 187.788,-42.3613 195.496,-38.7284"/>
<polygon fill="midnightblue" stroke="midnightblue" points="73.5693,-215.388 74.0319,-225.973 80.271,-217.41 73.5693,-215.388"/>
</g>
<!-- Node11 -->
<g id="node11" class="node"><title>Node11</title>
<g id="a_node11"><a xlink:href="class_little_weeb_library_1_1_services_1_1_settings_web_socket_service.html#aa53e9a1723c0b2d607d2aa9db1991c3c" target="_top" xlink:title="LittleWeebLibrary.Services.\lSettingsWebSocketService.SetLittle\lWeebSettings">
<polygon fill="white" stroke="black" points="411,-0.5 411,-41.5 585,-41.5 585,-0.5 411,-0.5"/>
<text text-anchor="start" x="419" y="-29.5" font-family="Helvetica,sans-Serif" font-size="10.00">LittleWeebLibrary.Services.</text>
<text text-anchor="start" x="419" y="-18.5" font-family="Helvetica,sans-Serif" font-size="10.00">SettingsWebSocketService.SetLittle</text>
<text text-anchor="middle" x="498" y="-7.5" font-family="Helvetica,sans-Serif" font-size="10.00">WeebSettings</text>
</a>
</g>
</g>
<!-- Node10&#45;&gt;Node11 -->
<g id="edge10" class="edge"><title>Node10&#45;&gt;Node11</title>
<path fill="none" stroke="midnightblue" d="M363.713,-21C379.271,-21 395.448,-21 410.945,-21"/>
<polygon fill="midnightblue" stroke="midnightblue" points="363.593,-17.5001 353.593,-21 363.593,-24.5001 363.593,-17.5001"/>
</g>
<!-- Node12 -->
<g id="node12" class="node"><title>Node12</title>
<g id="a_node12"><a xlink:href="class_little_weeb_library_1_1_controllers_1_1_sub_controllers_1_1_settings_web_socket_controller.html#a39b333aee248388fd295a8511486c76e" target="_top" xlink:title="LittleWeebLibrary.Controllers.\lSubControllers.SettingsWebSocket\lController.OnWebSocketEvent">
<polygon fill="white" stroke="black" points="621,-0.5 621,-41.5 791,-41.5 791,-0.5 621,-0.5"/>
<text text-anchor="start" x="629" y="-29.5" font-family="Helvetica,sans-Serif" font-size="10.00">LittleWeebLibrary.Controllers.</text>
<text text-anchor="start" x="629" y="-18.5" font-family="Helvetica,sans-Serif" font-size="10.00">SubControllers.SettingsWebSocket</text>
<text text-anchor="middle" x="706" y="-7.5" font-family="Helvetica,sans-Serif" font-size="10.00">Controller.OnWebSocketEvent</text>
</a>
</g>
</g>
<!-- Node11&#45;&gt;Node12 -->
<g id="edge11" class="edge"><title>Node11&#45;&gt;Node12</title>
<path fill="none" stroke="midnightblue" d="M595.18,-21C603.745,-21 612.373,-21 620.827,-21"/>
<polygon fill="midnightblue" stroke="midnightblue" points="595.169,-17.5001 585.169,-21 595.169,-24.5001 595.169,-17.5001"/>
</g>
</g>
</svg>
