<?xml version="1.0" encoding="UTF-8" standalone="no"?>
<!DOCTYPE svg PUBLIC "-//W3C//DTD SVG 1.1//EN"
 "http://www.w3.org/Graphics/SVG/1.1/DTD/svg11.dtd">
<!-- Generated by graphviz version 2.38.0 (20140413.2041)
 -->
<!-- Title: LittleWeebLibrary.Services.InfoApiWebSocketService.GetCurrentlyAiring Pages: 1 -->
<svg width="818pt" height="607pt"
 viewBox="0.00 0.00 818.00 607.00" xmlns="http://www.w3.org/2000/svg" xmlns:xlink="http://www.w3.org/1999/xlink">
<g id="graph0" class="graph" transform="scale(1 1) rotate(0) translate(4 603)">
<title>LittleWeebLibrary.Services.InfoApiWebSocketService.GetCurrentlyAiring</title>
<polygon fill="white" stroke="none" points="-4,4 -4,-603 814,-603 814,4 -4,4"/>
<!-- Node47 -->
<g id="node1" class="node"><title>Node47</title>
<polygon fill="#bfbfbf" stroke="black" points="0,-117 0,-158 186,-158 186,-117 0,-117"/>
<text text-anchor="start" x="8" y="-146" font-family="Helvetica,sans-Serif" font-size="10.00">LittleWeebLibrary.Services.</text>
<text text-anchor="start" x="8" y="-135" font-family="Helvetica,sans-Serif" font-size="10.00">InfoApiWebSocketService.GetCurrently</text>
<text text-anchor="middle" x="93" y="-124" font-family="Helvetica,sans-Serif" font-size="10.00">Airing</text>
</g>
<!-- Node48 -->
<g id="node2" class="node"><title>Node48</title>
<g id="a_node2"><a xlink:href="class_little_weeb_library_1_1_handlers_1_1_anime_profile_handler.html#a7469a40799e1067d871ba87679f54c37" target="_top" xlink:title="LittleWeebLibrary.Handlers.\lAnimeProfileHandler.GetCurrently\lAiring">
<polygon fill="white" stroke="black" points="224,-353 224,-394 386,-394 386,-353 224,-353"/>
<text text-anchor="start" x="232" y="-382" font-family="Helvetica,sans-Serif" font-size="10.00">LittleWeebLibrary.Handlers.</text>
<text text-anchor="start" x="232" y="-371" font-family="Helvetica,sans-Serif" font-size="10.00">AnimeProfileHandler.GetCurrently</text>
<text text-anchor="middle" x="305" y="-360" font-family="Helvetica,sans-Serif" font-size="10.00">Airing</text>
</a>
</g>
</g>
<!-- Node47&#45;&gt;Node48 -->
<g id="edge1" class="edge"><title>Node47&#45;&gt;Node48</title>
<path fill="none" stroke="midnightblue" d="M112.269,-158.031C149.89,-200.31 236.066,-297.155 278.891,-345.282"/>
<polygon fill="midnightblue" stroke="midnightblue" points="276.362,-347.705 285.624,-352.849 281.591,-343.052 276.362,-347.705"/>
</g>
<!-- Node50 -->
<g id="node4" class="node"><title>Node50</title>
<g id="a_node4"><a xlink:href="class_little_weeb_library_1_1_handlers_1_1_debug_handler.html#afccb37dfd6b2114af72000c2f4fe4607" target="_top" xlink:title="LittleWeebLibrary.Handlers.\lDebugHandler.TraceMessage">
<polygon fill="white" stroke="black" points="645,-322.5 645,-352.5 789,-352.5 789,-322.5 645,-322.5"/>
<text text-anchor="start" x="653" y="-340.5" font-family="Helvetica,sans-Serif" font-size="10.00">LittleWeebLibrary.Handlers.</text>
<text text-anchor="middle" x="717" y="-329.5" font-family="Helvetica,sans-Serif" font-size="10.00">DebugHandler.TraceMessage</text>
</a>
</g>
</g>
<!-- Node47&#45;&gt;Node50 -->
<g id="edge23" class="edge"><title>Node47&#45;&gt;Node50</title>
<path fill="none" stroke="midnightblue" d="M139,-158.021C163.132,-168.175 193.658,-179.688 222,-186.5 381.058,-224.73 438.133,-159.919 588,-225.5 633.646,-245.475 674.729,-287.777 697.433,-314.294"/>
<polygon fill="midnightblue" stroke="midnightblue" points="695.036,-316.883 704.141,-322.301 700.402,-312.388 695.036,-316.883"/>
</g>
<!-- Node60 -->
<g id="node14" class="node"><title>Node60</title>
<g id="a_node14"><a xlink:href="class_little_weeb_library_1_1_handlers_1_1_web_socket_handler.html#a1de289d54d665a32c93478c68d3e6ad0" target="_top" xlink:title="LittleWeebLibrary.Handlers.\lWebSocketHandler.SendMessage">
<polygon fill="white" stroke="black" points="222,-147.5 222,-177.5 388,-177.5 388,-147.5 222,-147.5"/>
<text text-anchor="start" x="230" y="-165.5" font-family="Helvetica,sans-Serif" font-size="10.00">LittleWeebLibrary.Handlers.</text>
<text text-anchor="middle" x="305" y="-154.5" font-family="Helvetica,sans-Serif" font-size="10.00">WebSocketHandler.SendMessage</text>
</a>
</g>
</g>
<!-- Node47&#45;&gt;Node60 -->
<g id="edge18" class="edge"><title>Node47&#45;&gt;Node60</title>
<path fill="none" stroke="midnightblue" d="M186.109,-148.465C194.664,-149.484 203.334,-150.516 211.889,-151.534"/>
<polygon fill="midnightblue" stroke="midnightblue" points="211.52,-155.015 221.864,-152.722 212.348,-148.064 211.52,-155.015"/>
</g>
<!-- Node61 -->
<g id="node15" class="node"><title>Node61</title>
<g id="a_node15"><a xlink:href="class_little_weeb_library_1_1_models_1_1_json_currently_airing.html#a5e56160f130c25bd439904d14b5bdbc4" target="_top" xlink:title="LittleWeebLibrary.Models.\lJsonCurrentlyAiring.ToJson">
<polygon fill="white" stroke="black" points="238,-98.5 238,-128.5 372,-128.5 372,-98.5 238,-98.5"/>
<text text-anchor="start" x="246" y="-116.5" font-family="Helvetica,sans-Serif" font-size="10.00">LittleWeebLibrary.Models.</text>
<text text-anchor="middle" x="305" y="-105.5" font-family="Helvetica,sans-Serif" font-size="10.00">JsonCurrentlyAiring.ToJson</text>
</a>
</g>
</g>
<!-- Node47&#45;&gt;Node61 -->
<g id="edge20" class="edge"><title>Node47&#45;&gt;Node61</title>
<path fill="none" stroke="midnightblue" d="M186.109,-126.973C199.984,-125.387 214.165,-123.767 227.661,-122.224"/>
<polygon fill="midnightblue" stroke="midnightblue" points="228.294,-125.675 237.832,-121.062 227.499,-118.72 228.294,-125.675"/>
</g>
<!-- Node62 -->
<g id="node16" class="node"><title>Node62</title>
<g id="a_node16"><a xlink:href="class_little_weeb_library_1_1_models_1_1_json_error.html#a0e3e7dd2e2990404b7f0461742b23440" target="_top" xlink:title="LittleWeebLibrary.Models.\lJsonError.ToJson">
<polygon fill="white" stroke="black" points="240,-49.5 240,-79.5 370,-79.5 370,-49.5 240,-49.5"/>
<text text-anchor="start" x="248" y="-67.5" font-family="Helvetica,sans-Serif" font-size="10.00">LittleWeebLibrary.Models.</text>
<text text-anchor="middle" x="305" y="-56.5" font-family="Helvetica,sans-Serif" font-size="10.00">JsonError.ToJson</text>
</a>
</g>
</g>
<!-- Node47&#45;&gt;Node62 -->
<g id="edge21" class="edge"><title>Node47&#45;&gt;Node62</title>
<path fill="none" stroke="midnightblue" d="M144.732,-116.995C168.101,-107.831 196.295,-97.1659 222,-88.5 227.996,-86.4786 234.27,-84.4645 240.564,-82.5114"/>
<polygon fill="midnightblue" stroke="midnightblue" points="241.889,-85.7664 250.432,-79.5002 239.846,-79.0711 241.889,-85.7664"/>
</g>
<!-- Node63 -->
<g id="node17" class="node"><title>Node63</title>
<g id="a_node17"><a xlink:href="class_little_weeb_library_1_1_models_1_1_json_error.html#ad7d5522c90119111d2e929f39e7f6d3c" target="_top" xlink:title="LittleWeebLibrary.Models.\lJsonError.ToString">
<polygon fill="white" stroke="black" points="240,-0.5 240,-30.5 370,-30.5 370,-0.5 240,-0.5"/>
<text text-anchor="start" x="248" y="-18.5" font-family="Helvetica,sans-Serif" font-size="10.00">LittleWeebLibrary.Models.</text>
<text text-anchor="middle" x="305" y="-7.5" font-family="Helvetica,sans-Serif" font-size="10.00">JsonError.ToString</text>
</a>
</g>
</g>
<!-- Node47&#45;&gt;Node63 -->
<g id="edge22" class="edge"><title>Node47&#45;&gt;Node63</title>
<path fill="none" stroke="midnightblue" d="M115.849,-116.666C140.042,-94.633 181.058,-60.2495 222,-39.5 225.721,-37.614 229.615,-35.8528 233.597,-34.2116"/>
<polygon fill="midnightblue" stroke="midnightblue" points="234.931,-37.4486 243.013,-30.598 232.423,-30.9133 234.931,-37.4486"/>
</g>
<!-- Node49 -->
<g id="node3" class="node"><title>Node49</title>
<g id="a_node3"><a xlink:href="class_little_weeb_library_1_1_handlers_1_1_kitsu_handler.html#af733f442659b7789588da55b00c065c4" target="_top" xlink:title="LittleWeebLibrary.Handlers.\lKitsuHandler.GetCurrentlyAiring">
<polygon fill="white" stroke="black" points="428.5,-382.5 428.5,-412.5 583.5,-412.5 583.5,-382.5 428.5,-382.5"/>
<text text-anchor="start" x="436.5" y="-400.5" font-family="Helvetica,sans-Serif" font-size="10.00">LittleWeebLibrary.Handlers.</text>
<text text-anchor="middle" x="506" y="-389.5" font-family="Helvetica,sans-Serif" font-size="10.00">KitsuHandler.GetCurrentlyAiring</text>
</a>
</g>
</g>
<!-- Node48&#45;&gt;Node49 -->
<g id="edge2" class="edge"><title>Node48&#45;&gt;Node49</title>
<path fill="none" stroke="midnightblue" d="M386.081,-383.158C396.639,-384.431 407.5,-385.741 418.164,-387.027"/>
<polygon fill="midnightblue" stroke="midnightblue" points="417.965,-390.529 428.312,-388.251 418.803,-383.579 417.965,-390.529"/>
</g>
<!-- Node48&#45;&gt;Node50 -->
<g id="edge15" class="edge"><title>Node48&#45;&gt;Node50</title>
<path fill="none" stroke="midnightblue" d="M344.646,-394.091C367.116,-404.889 396.372,-416.992 424,-422.5 495.482,-436.752 518.22,-443.559 588,-422.5 593.497,-420.841 649.512,-382.956 685.597,-358.33"/>
<polygon fill="midnightblue" stroke="midnightblue" points="687.572,-361.219 693.855,-352.688 683.623,-355.439 687.572,-361.219"/>
</g>
<!-- Node51 -->
<g id="node5" class="node"><title>Node51</title>
<g id="a_node5"><a xlink:href="class_little_weeb_library_1_1_static_classes_1_1_utility_methods.html#a12336d9e64983ddabaad8950486fafb2" target="_top" xlink:title="LittleWeebLibrary.Static\lClasses.UtilityMethods.GetEpoch">
<polygon fill="white" stroke="black" points="424,-333.5 424,-363.5 588,-363.5 588,-333.5 424,-333.5"/>
<text text-anchor="start" x="432" y="-351.5" font-family="Helvetica,sans-Serif" font-size="10.00">LittleWeebLibrary.Static</text>
<text text-anchor="middle" x="506" y="-340.5" font-family="Helvetica,sans-Serif" font-size="10.00">Classes.UtilityMethods.GetEpoch</text>
</a>
</g>
</g>
<!-- Node48&#45;&gt;Node51 -->
<g id="edge4" class="edge"><title>Node48&#45;&gt;Node51</title>
<path fill="none" stroke="midnightblue" d="M386.081,-363.44C395.202,-362.294 404.549,-361.119 413.801,-359.957"/>
<polygon fill="midnightblue" stroke="midnightblue" points="414.3,-363.422 423.786,-358.703 413.428,-356.477 414.3,-363.422"/>
</g>
<!-- Node52 -->
<g id="node6" class="node"><title>Node52</title>
<g id="a_node6"><a xlink:href="class_little_weeb_library_1_1_handlers_1_1_data_base_handler.html#a7f61583807f99b7838a33d2db0f7ca68" target="_top" xlink:title="LittleWeebLibrary.Handlers.\lDataBaseHandler.GetJObject">
<polygon fill="white" stroke="black" points="434,-519.5 434,-549.5 578,-549.5 578,-519.5 434,-519.5"/>
<text text-anchor="start" x="442" y="-537.5" font-family="Helvetica,sans-Serif" font-size="10.00">LittleWeebLibrary.Handlers.</text>
<text text-anchor="middle" x="506" y="-526.5" font-family="Helvetica,sans-Serif" font-size="10.00">DataBaseHandler.GetJObject</text>
</a>
</g>
</g>
<!-- Node48&#45;&gt;Node52 -->
<g id="edge5" class="edge"><title>Node48&#45;&gt;Node52</title>
<path fill="none" stroke="midnightblue" d="M318.479,-394.443C337.489,-424.555 376.549,-479.823 424,-510.5 426.565,-512.159 429.25,-513.706 432.016,-515.15"/>
<polygon fill="midnightblue" stroke="midnightblue" points="430.549,-518.327 441.088,-519.415 433.527,-511.993 430.549,-518.327"/>
</g>
<!-- Node55 -->
<g id="node9" class="node"><title>Node55</title>
<g id="a_node9"><a xlink:href="class_little_weeb_library_1_1_handlers_1_1_nibl_handler.html#a20fef31afe52976e394fc44659cc3593" target="_top" xlink:title="LittleWeebLibrary.Handlers.\lNiblHandler.GetLatestFiles">
<polygon fill="white" stroke="black" points="437.5,-284.5 437.5,-314.5 574.5,-314.5 574.5,-284.5 437.5,-284.5"/>
<text text-anchor="start" x="445.5" y="-302.5" font-family="Helvetica,sans-Serif" font-size="10.00">LittleWeebLibrary.Handlers.</text>
<text text-anchor="middle" x="506" y="-291.5" font-family="Helvetica,sans-Serif" font-size="10.00">NiblHandler.GetLatestFiles</text>
</a>
</g>
</g>
<!-- Node48&#45;&gt;Node55 -->
<g id="edge9" class="edge"><title>Node48&#45;&gt;Node55</title>
<path fill="none" stroke="midnightblue" d="M352.687,-352.923C374.214,-343.743 400.215,-333.087 424,-324.5 430.417,-322.183 437.167,-319.885 443.917,-317.676"/>
<polygon fill="midnightblue" stroke="midnightblue" points="445.32,-320.902 453.77,-314.51 443.179,-314.237 445.32,-320.902"/>
</g>
<!-- Node56 -->
<g id="node10" class="node"><title>Node56</title>
<g id="a_node10"><a xlink:href="class_little_weeb_library_1_1_handlers_1_1_data_base_handler.html#a5e6a70ef81b049da46b6ae3a15b09cd3" target="_top" xlink:title="LittleWeebLibrary.Handlers.\lDataBaseHandler.StoreJObject">
<polygon fill="white" stroke="black" points="430,-470.5 430,-500.5 582,-500.5 582,-470.5 430,-470.5"/>
<text text-anchor="start" x="438" y="-488.5" font-family="Helvetica,sans-Serif" font-size="10.00">LittleWeebLibrary.Handlers.</text>
<text text-anchor="middle" x="506" y="-477.5" font-family="Helvetica,sans-Serif" font-size="10.00">DataBaseHandler.StoreJObject</text>
</a>
</g>
</g>
<!-- Node48&#45;&gt;Node56 -->
<g id="edge11" class="edge"><title>Node48&#45;&gt;Node56</title>
<path fill="none" stroke="midnightblue" d="M331.502,-394.065C354.622,-412 390.162,-437.84 424,-455.5 431.824,-459.583 440.331,-463.375 448.795,-466.792"/>
<polygon fill="midnightblue" stroke="midnightblue" points="447.704,-470.123 458.292,-470.488 450.242,-463.6 447.704,-470.123"/>
</g>
<!-- Node59 -->
<g id="node13" class="node"><title>Node59</title>
<g id="a_node13"><a xlink:href="class_little_weeb_library_1_1_handlers_1_1_data_base_handler.html#a9b2223ff71f688234f95d247ea3b5739" target="_top" xlink:title="LittleWeebLibrary.Handlers.\lDataBaseHandler.UpdateJObject">
<polygon fill="white" stroke="black" points="426.5,-235.5 426.5,-265.5 585.5,-265.5 585.5,-235.5 426.5,-235.5"/>
<text text-anchor="start" x="434.5" y="-253.5" font-family="Helvetica,sans-Serif" font-size="10.00">LittleWeebLibrary.Handlers.</text>
<text text-anchor="middle" x="506" y="-242.5" font-family="Helvetica,sans-Serif" font-size="10.00">DataBaseHandler.UpdateJObject</text>
</a>
</g>
</g>
<!-- Node48&#45;&gt;Node59 -->
<g id="edge16" class="edge"><title>Node48&#45;&gt;Node59</title>
<path fill="none" stroke="midnightblue" d="M325.397,-352.782C347.348,-330.474 385.133,-295.384 424,-274.5 427.462,-272.64 431.087,-270.906 434.802,-269.293"/>
<polygon fill="midnightblue" stroke="midnightblue" points="436.208,-272.5 444.184,-265.527 433.6,-266.004 436.208,-272.5"/>
</g>
<!-- Node49&#45;&gt;Node50 -->
<g id="edge3" class="edge"><title>Node49&#45;&gt;Node50</title>
<path fill="none" stroke="midnightblue" d="M559.47,-382.437C588.041,-374.235 623.58,-364.032 653.569,-355.423"/>
<polygon fill="midnightblue" stroke="midnightblue" points="654.863,-358.693 663.509,-352.569 652.931,-351.965 654.863,-358.693"/>
</g>
<!-- Node52&#45;&gt;Node50 -->
<g id="edge7" class="edge"><title>Node52&#45;&gt;Node50</title>
<path fill="none" stroke="midnightblue" d="M576.027,-519.5C580.37,-516.952 584.424,-513.976 588,-510.5 624.884,-474.643 593.143,-441.658 624,-400.5 637.251,-382.826 656.967,-368.391 674.753,-357.819"/>
<polygon fill="midnightblue" stroke="midnightblue" points="676.877,-360.637 683.834,-352.646 673.412,-354.555 676.877,-360.637"/>
</g>
<!-- Node53 -->
<g id="node7" class="node"><title>Node53</title>
<g id="a_node7"><a xlink:href="class_little_weeb_library_1_1_static_classes_1_1_utility_methods.html#a7b5de7a3ecc749b655fc3ed2af55360b" target="_top" xlink:title="LittleWeebLibrary.Static\lClasses.UtilityMethods.ReadBinaryFile">
<polygon fill="white" stroke="black" points="624,-519.5 624,-549.5 810,-549.5 810,-519.5 624,-519.5"/>
<text text-anchor="start" x="632" y="-537.5" font-family="Helvetica,sans-Serif" font-size="10.00">LittleWeebLibrary.Static</text>
<text text-anchor="middle" x="717" y="-526.5" font-family="Helvetica,sans-Serif" font-size="10.00">Classes.UtilityMethods.ReadBinaryFile</text>
</a>
</g>
</g>
<!-- Node52&#45;&gt;Node53 -->
<g id="edge6" class="edge"><title>Node52&#45;&gt;Node53</title>
<path fill="none" stroke="midnightblue" d="M578.049,-534.5C589.514,-534.5 601.578,-534.5 613.605,-534.5"/>
<polygon fill="midnightblue" stroke="midnightblue" points="613.686,-538 623.686,-534.5 613.685,-531 613.686,-538"/>
</g>
<!-- Node54 -->
<g id="node8" class="node"><title>Node54</title>
<g id="a_node8"><a xlink:href="class_little_weeb_library_1_1_static_classes_1_1_utility_methods.html#a0a86ee01a3bf201bd9cc9b2552e54976" target="_top" xlink:title="LittleWeebLibrary.Static\lClasses.UtilityMethods.Unzip">
<polygon fill="white" stroke="black" points="644.5,-568.5 644.5,-598.5 789.5,-598.5 789.5,-568.5 644.5,-568.5"/>
<text text-anchor="start" x="652.5" y="-586.5" font-family="Helvetica,sans-Serif" font-size="10.00">LittleWeebLibrary.Static</text>
<text text-anchor="middle" x="717" y="-575.5" font-family="Helvetica,sans-Serif" font-size="10.00">Classes.UtilityMethods.Unzip</text>
</a>
</g>
</g>
<!-- Node52&#45;&gt;Node54 -->
<g id="edge8" class="edge"><title>Node52&#45;&gt;Node54</title>
<path fill="none" stroke="midnightblue" d="M571.127,-549.535C593.596,-554.802 619.007,-560.76 642.203,-566.198"/>
<polygon fill="midnightblue" stroke="midnightblue" points="641.459,-569.619 651.994,-568.494 643.057,-562.804 641.459,-569.619"/>
</g>
<!-- Node55&#45;&gt;Node50 -->
<g id="edge10" class="edge"><title>Node55&#45;&gt;Node50</title>
<path fill="none" stroke="midnightblue" d="M574.568,-311.785C593.748,-315.272 614.834,-319.106 634.736,-322.725"/>
<polygon fill="midnightblue" stroke="midnightblue" points="634.242,-326.192 644.707,-324.538 635.494,-319.305 634.242,-326.192"/>
</g>
<!-- Node56&#45;&gt;Node50 -->
<g id="edge12" class="edge"><title>Node56&#45;&gt;Node50</title>
<path fill="none" stroke="midnightblue" d="M562.257,-470.466C571.404,-466.5 580.378,-461.576 588,-455.5 610.846,-437.29 603.558,-421.373 624,-400.5 640.148,-384.011 661.208,-369.217 679.103,-358.115"/>
<polygon fill="midnightblue" stroke="midnightblue" points="681.384,-360.826 688.13,-352.657 677.762,-354.836 681.384,-360.826"/>
</g>
<!-- Node57 -->
<g id="node11" class="node"><title>Node57</title>
<g id="a_node11"><a xlink:href="class_little_weeb_library_1_1_static_classes_1_1_utility_methods.html#a6542a3a6ea0aed6b4d78bb44a4a7d9d7" target="_top" xlink:title="LittleWeebLibrary.Static\lClasses.UtilityMethods.Write\lBinaryFile">
<polygon fill="white" stroke="black" points="645.5,-410 645.5,-451 788.5,-451 788.5,-410 645.5,-410"/>
<text text-anchor="start" x="653.5" y="-439" font-family="Helvetica,sans-Serif" font-size="10.00">LittleWeebLibrary.Static</text>
<text text-anchor="start" x="653.5" y="-428" font-family="Helvetica,sans-Serif" font-size="10.00">Classes.UtilityMethods.Write</text>
<text text-anchor="middle" x="717" y="-417" font-family="Helvetica,sans-Serif" font-size="10.00">BinaryFile</text>
</a>
</g>
</g>
<!-- Node56&#45;&gt;Node57 -->
<g id="edge13" class="edge"><title>Node56&#45;&gt;Node57</title>
<path fill="none" stroke="midnightblue" d="M564.11,-470.471C586.099,-464.684 611.639,-457.963 635.431,-451.702"/>
<polygon fill="midnightblue" stroke="midnightblue" points="636.371,-455.074 645.151,-449.144 634.59,-448.305 636.371,-455.074"/>
</g>
<!-- Node58 -->
<g id="node12" class="node"><title>Node58</title>
<g id="a_node12"><a xlink:href="class_little_weeb_library_1_1_static_classes_1_1_utility_methods.html#a16933213071d531063b29979e7b55fe8" target="_top" xlink:title="LittleWeebLibrary.Static\lClasses.UtilityMethods.Zip">
<polygon fill="white" stroke="black" points="650.5,-470.5 650.5,-500.5 783.5,-500.5 783.5,-470.5 650.5,-470.5"/>
<text text-anchor="start" x="658.5" y="-488.5" font-family="Helvetica,sans-Serif" font-size="10.00">LittleWeebLibrary.Static</text>
<text text-anchor="middle" x="717" y="-477.5" font-family="Helvetica,sans-Serif" font-size="10.00">Classes.UtilityMethods.Zip</text>
</a>
</g>
</g>
<!-- Node56&#45;&gt;Node58 -->
<g id="edge14" class="edge"><title>Node56&#45;&gt;Node58</title>
<path fill="none" stroke="midnightblue" d="M582.159,-485.5C601.106,-485.5 621.453,-485.5 640.421,-485.5"/>
<polygon fill="midnightblue" stroke="midnightblue" points="640.498,-489 650.498,-485.5 640.498,-482 640.498,-489"/>
</g>
<!-- Node59&#45;&gt;Node50 -->
<g id="edge17" class="edge"><title>Node59&#45;&gt;Node50</title>
<path fill="none" stroke="midnightblue" d="M562.324,-265.528C571.001,-268.275 579.804,-271.295 588,-274.5 619.844,-286.951 654.565,-304.293 679.801,-317.631"/>
<polygon fill="midnightblue" stroke="midnightblue" points="678.175,-320.73 688.646,-322.347 681.469,-314.554 678.175,-320.73"/>
</g>
<!-- Node60&#45;&gt;Node50 -->
<g id="edge19" class="edge"><title>Node60&#45;&gt;Node50</title>
<path fill="none" stroke="midnightblue" d="M388.254,-155.935C447.038,-154.776 526.321,-160.641 588,-192.5 641.449,-220.108 682.777,-280.09 702.772,-313.612"/>
<polygon fill="midnightblue" stroke="midnightblue" points="699.783,-315.434 707.838,-322.316 705.833,-311.913 699.783,-315.434"/>
</g>
</g>
</svg>
