<?xml version="1.0" encoding="UTF-8" standalone="no"?>
<!DOCTYPE svg PUBLIC "-//W3C//DTD SVG 1.1//EN"
 "http://www.w3.org/Graphics/SVG/1.1/DTD/svg11.dtd">
<!-- Generated by graphviz version 2.38.0 (20140413.2041)
 -->
<!-- Title: LittleWeebLibrary.Services.DirectoryWebSocketService.CreateDirectory Pages: 1 -->
<svg width="560pt" height="200pt"
 viewBox="0.00 0.00 560.00 200.00" xmlns="http://www.w3.org/2000/svg" xmlns:xlink="http://www.w3.org/1999/xlink">
<g id="graph0" class="graph" transform="scale(1 1) rotate(0) translate(4 196)">
<title>LittleWeebLibrary.Services.DirectoryWebSocketService.CreateDirectory</title>
<polygon fill="white" stroke="none" points="-4,4 -4,-196 556,-196 556,4 -4,4"/>
<!-- Node3 -->
<g id="node1" class="node"><title>Node3</title>
<polygon fill="#bfbfbf" stroke="black" points="0,-88 0,-129 170,-129 170,-88 0,-88"/>
<text text-anchor="start" x="8" y="-117" font-family="Helvetica,sans-Serif" font-size="10.00">LittleWeebLibrary.Services.</text>
<text text-anchor="start" x="8" y="-106" font-family="Helvetica,sans-Serif" font-size="10.00">DirectoryWebSocketService.Create</text>
<text text-anchor="middle" x="85" y="-95" font-family="Helvetica,sans-Serif" font-size="10.00">Directory</text>
</g>
<!-- Node4 -->
<g id="node2" class="node"><title>Node4</title>
<g id="a_node2"><a xlink:href="class_little_weeb_library_1_1_handlers_1_1_directory_handler.html#a6be1b158ee280e8a74a49917a90484e2" target="_top" xlink:title="LittleWeebLibrary.Handlers.\lDirectoryHandler.CreateDirectory">
<polygon fill="white" stroke="black" points="209.5,-137.5 209.5,-167.5 368.5,-167.5 368.5,-137.5 209.5,-137.5"/>
<text text-anchor="start" x="217.5" y="-155.5" font-family="Helvetica,sans-Serif" font-size="10.00">LittleWeebLibrary.Handlers.</text>
<text text-anchor="middle" x="289" y="-144.5" font-family="Helvetica,sans-Serif" font-size="10.00">DirectoryHandler.CreateDirectory</text>
</a>
</g>
</g>
<!-- Node3&#45;&gt;Node4 -->
<g id="edge1" class="edge"><title>Node3&#45;&gt;Node4</title>
<path fill="none" stroke="midnightblue" d="M170.203,-126.841C183.016,-129.632 196.2,-132.504 208.899,-135.27"/>
<polygon fill="midnightblue" stroke="midnightblue" points="208.447,-138.754 218.963,-137.462 209.937,-131.914 208.447,-138.754"/>
</g>
<!-- Node5 -->
<g id="node3" class="node"><title>Node5</title>
<g id="a_node3"><a xlink:href="class_little_weeb_library_1_1_models_1_1_json_error.html#a0e3e7dd2e2990404b7f0461742b23440" target="_top" xlink:title="LittleWeebLibrary.Models.\lJsonError.ToJson">
<polygon fill="white" stroke="black" points="415,-161.5 415,-191.5 545,-191.5 545,-161.5 415,-161.5"/>
<text text-anchor="start" x="423" y="-179.5" font-family="Helvetica,sans-Serif" font-size="10.00">LittleWeebLibrary.Models.</text>
<text text-anchor="middle" x="480" y="-168.5" font-family="Helvetica,sans-Serif" font-size="10.00">JsonError.ToJson</text>
</a>
</g>
</g>
<!-- Node3&#45;&gt;Node5 -->
<g id="edge6" class="edge"><title>Node3&#45;&gt;Node5</title>
<path fill="none" stroke="midnightblue" d="M112.308,-129.077C135.49,-145.815 170.94,-168.139 206,-177.5 271.525,-194.996 349.094,-192.62 404.77,-187.121"/>
<polygon fill="midnightblue" stroke="midnightblue" points="405.321,-190.583 414.903,-186.063 404.593,-183.621 405.321,-190.583"/>
</g>
<!-- Node6 -->
<g id="node4" class="node"><title>Node6</title>
<g id="a_node4"><a xlink:href="class_little_weeb_library_1_1_handlers_1_1_debug_handler.html#afccb37dfd6b2114af72000c2f4fe4607" target="_top" xlink:title="LittleWeebLibrary.Handlers.\lDebugHandler.TraceMessage">
<polygon fill="white" stroke="black" points="408,-93.5 408,-123.5 552,-123.5 552,-93.5 408,-93.5"/>
<text text-anchor="start" x="416" y="-111.5" font-family="Helvetica,sans-Serif" font-size="10.00">LittleWeebLibrary.Handlers.</text>
<text text-anchor="middle" x="480" y="-100.5" font-family="Helvetica,sans-Serif" font-size="10.00">DebugHandler.TraceMessage</text>
</a>
</g>
</g>
<!-- Node3&#45;&gt;Node6 -->
<g id="edge8" class="edge"><title>Node3&#45;&gt;Node6</title>
<path fill="none" stroke="midnightblue" d="M170.308,-108.5C237.67,-108.5 331.484,-108.5 397.968,-108.5"/>
<polygon fill="midnightblue" stroke="midnightblue" points="397.984,-112 407.984,-108.5 397.984,-105 397.984,-112"/>
</g>
<!-- Node7 -->
<g id="node5" class="node"><title>Node7</title>
<g id="a_node5"><a xlink:href="class_little_weeb_library_1_1_handlers_1_1_web_socket_handler.html#a1de289d54d665a32c93478c68d3e6ad0" target="_top" xlink:title="LittleWeebLibrary.Handlers.\lWebSocketHandler.SendMessage">
<polygon fill="white" stroke="black" points="206,-49.5 206,-79.5 372,-79.5 372,-49.5 206,-49.5"/>
<text text-anchor="start" x="214" y="-67.5" font-family="Helvetica,sans-Serif" font-size="10.00">LittleWeebLibrary.Handlers.</text>
<text text-anchor="middle" x="289" y="-56.5" font-family="Helvetica,sans-Serif" font-size="10.00">WebSocketHandler.SendMessage</text>
</a>
</g>
</g>
<!-- Node3&#45;&gt;Node7 -->
<g id="edge4" class="edge"><title>Node3&#45;&gt;Node7</title>
<path fill="none" stroke="midnightblue" d="M170.203,-90.1587C183.016,-87.3677 196.2,-84.4959 208.899,-81.7299"/>
<polygon fill="midnightblue" stroke="midnightblue" points="209.937,-85.0859 218.963,-79.5377 208.447,-78.2463 209.937,-85.0859"/>
</g>
<!-- Node8 -->
<g id="node6" class="node"><title>Node8</title>
<g id="a_node6"><a xlink:href="class_little_weeb_library_1_1_models_1_1_json_error.html#ad7d5522c90119111d2e929f39e7f6d3c" target="_top" xlink:title="LittleWeebLibrary.Models.\lJsonError.ToString">
<polygon fill="white" stroke="black" points="224,-0.5 224,-30.5 354,-30.5 354,-0.5 224,-0.5"/>
<text text-anchor="start" x="232" y="-18.5" font-family="Helvetica,sans-Serif" font-size="10.00">LittleWeebLibrary.Models.</text>
<text text-anchor="middle" x="289" y="-7.5" font-family="Helvetica,sans-Serif" font-size="10.00">JsonError.ToString</text>
</a>
</g>
</g>
<!-- Node3&#45;&gt;Node8 -->
<g id="edge7" class="edge"><title>Node3&#45;&gt;Node8</title>
<path fill="none" stroke="midnightblue" d="M117.026,-87.9197C140.652,-72.9358 174.391,-52.9864 206,-39.5 210.656,-37.5135 215.527,-35.6302 220.475,-33.8578"/>
<polygon fill="midnightblue" stroke="midnightblue" points="221.713,-37.1333 230.045,-30.5881 219.45,-30.5092 221.713,-37.1333"/>
</g>
<!-- Node4&#45;&gt;Node5 -->
<g id="edge2" class="edge"><title>Node4&#45;&gt;Node5</title>
<path fill="none" stroke="midnightblue" d="M368.511,-162.47C380.434,-163.984 392.707,-165.542 404.541,-167.045"/>
<polygon fill="midnightblue" stroke="midnightblue" points="404.446,-170.561 414.807,-168.349 405.328,-163.617 404.446,-170.561"/>
</g>
<!-- Node4&#45;&gt;Node6 -->
<g id="edge3" class="edge"><title>Node4&#45;&gt;Node6</title>
<path fill="none" stroke="midnightblue" d="M354.514,-137.481C370.543,-133.749 387.856,-129.719 404.328,-125.884"/>
<polygon fill="midnightblue" stroke="midnightblue" points="405.51,-129.203 414.456,-123.526 403.922,-122.385 405.51,-129.203"/>
</g>
<!-- Node7&#45;&gt;Node6 -->
<g id="edge5" class="edge"><title>Node7&#45;&gt;Node6</title>
<path fill="none" stroke="midnightblue" d="M354.514,-79.5192C370.543,-83.2508 387.856,-87.2814 404.328,-91.116"/>
<polygon fill="midnightblue" stroke="midnightblue" points="403.922,-94.6152 414.456,-93.4738 405.51,-87.7975 403.922,-94.6152"/>
</g>
</g>
</svg>
