<?xml version="1.0" encoding="UTF-8" standalone="no"?>
<!DOCTYPE svg PUBLIC "-//W3C//DTD SVG 1.1//EN"
 "http://www.w3.org/Graphics/SVG/1.1/DTD/svg11.dtd">
<!-- Generated by graphviz version 2.38.0 (20140413.2041)
 -->
<!-- Title: LittleWeebLibrary.Handlers.AnimeRuleHandler.AnimeRuleHandler Pages: 1 -->
<svg width="370pt" height="39pt"
 viewBox="0.00 0.00 370.00 39.00" xmlns="http://www.w3.org/2000/svg" xmlns:xlink="http://www.w3.org/1999/xlink">
<g id="graph0" class="graph" transform="scale(1 1) rotate(0) translate(4 35)">
<title>LittleWeebLibrary.Handlers.AnimeRuleHandler.AnimeRuleHandler</title>
<polygon fill="white" stroke="none" points="-4,4 -4,-35 366,-35 366,4 -4,4"/>
<!-- Node0 -->
<g id="node1" class="node"><title>Node0</title>
<polygon fill="#bfbfbf" stroke="black" points="0,-0.5 0,-30.5 180,-30.5 180,-0.5 0,-0.5"/>
<text text-anchor="start" x="8" y="-18.5" font-family="Helvetica,sans-Serif" font-size="10.00">LittleWeebLibrary.Handlers.</text>
<text text-anchor="middle" x="90" y="-7.5" font-family="Helvetica,sans-Serif" font-size="10.00">AnimeRuleHandler.AnimeRuleHandler</text>
</g>
<!-- Node1 -->
<g id="node2" class="node"><title>Node1</title>
<g id="a_node2"><a xlink:href="interface_little_weeb_library_1_1_handlers_1_1_i_debug_handler.html#a2e405bc3492e683cd3702fae125221bc" target="_top" xlink:title="LittleWeebLibrary.Handlers.\lIDebugHandler.TraceMessage">
<polygon fill="white" stroke="black" points="216,-0.5 216,-30.5 362,-30.5 362,-0.5 216,-0.5"/>
<text text-anchor="start" x="224" y="-18.5" font-family="Helvetica,sans-Serif" font-size="10.00">LittleWeebLibrary.Handlers.</text>
<text text-anchor="middle" x="289" y="-7.5" font-family="Helvetica,sans-Serif" font-size="10.00">IDebugHandler.TraceMessage</text>
</a>
</g>
</g>
<!-- Node0&#45;&gt;Node1 -->
<g id="edge1" class="edge"><title>Node0&#45;&gt;Node1</title>
<path fill="none" stroke="midnightblue" d="M180.278,-15.5C188.746,-15.5 197.305,-15.5 205.704,-15.5"/>
<polygon fill="midnightblue" stroke="midnightblue" points="205.85,-19.0001 215.85,-15.5 205.85,-12.0001 205.85,-19.0001"/>
</g>
</g>
</svg>
