<?xml version="1.0" encoding="UTF-8" standalone="no"?>
<!DOCTYPE svg PUBLIC "-//W3C//DTD SVG 1.1//EN"
 "http://www.w3.org/Graphics/SVG/1.1/DTD/svg11.dtd">
<!-- Generated by graphviz version 2.38.0 (20140413.2041)
 -->
<!-- Title: LittleWeebLibrary.Handlers.IrcClientHandler.IrcClientHandler Pages: 1 -->
<svg width="567pt" height="137pt"
 viewBox="0.00 0.00 567.00 137.00" xmlns="http://www.w3.org/2000/svg" xmlns:xlink="http://www.w3.org/1999/xlink">
<g id="graph0" class="graph" transform="scale(1 1) rotate(0) translate(4 133)">
<title>LittleWeebLibrary.Handlers.IrcClientHandler.IrcClientHandler</title>
<polygon fill="white" stroke="none" points="-4,4 -4,-133 563,-133 563,4 -4,4"/>
<!-- Node0 -->
<g id="node1" class="node"><title>Node0</title>
<polygon fill="#bfbfbf" stroke="black" points="0,-49.5 0,-79.5 156,-79.5 156,-49.5 0,-49.5"/>
<text text-anchor="start" x="8" y="-67.5" font-family="Helvetica,sans-Serif" font-size="10.00">LittleWeebLibrary.Handlers.</text>
<text text-anchor="middle" x="78" y="-56.5" font-family="Helvetica,sans-Serif" font-size="10.00">IrcClientHandler.IrcClientHandler</text>
</g>
<!-- Node1 -->
<g id="node2" class="node"><title>Node1</title>
<g id="a_node2"><a xlink:href="class_little_weeb_library_1_1_handlers_1_1_settings_handler.html#a22195b5d1df129295e0e30298611bdba" target="_top" xlink:title="LittleWeebLibrary.Handlers.\lSettingsHandler.GetIrcSettings">
<polygon fill="white" stroke="black" points="210,-98.5 210,-128.5 361,-128.5 361,-98.5 210,-98.5"/>
<text text-anchor="start" x="218" y="-116.5" font-family="Helvetica,sans-Serif" font-size="10.00">LittleWeebLibrary.Handlers.</text>
<text text-anchor="middle" x="285.5" y="-105.5" font-family="Helvetica,sans-Serif" font-size="10.00">SettingsHandler.GetIrcSettings</text>
</a>
</g>
</g>
<!-- Node0&#45;&gt;Node1 -->
<g id="edge1" class="edge"><title>Node0&#45;&gt;Node1</title>
<path fill="none" stroke="midnightblue" d="M142.053,-79.5346C164.047,-84.7789 188.908,-90.7069 211.634,-96.1255"/>
<polygon fill="midnightblue" stroke="midnightblue" points="211.027,-99.5789 221.566,-98.4938 212.65,-92.7698 211.027,-99.5789"/>
</g>
<!-- Node3 -->
<g id="node4" class="node"><title>Node3</title>
<g id="a_node4"><a xlink:href="class_little_weeb_library_1_1_handlers_1_1_settings_handler.html#a53a5c5206eb6d2c58fa9d970c9b97463" target="_top" xlink:title="LittleWeebLibrary.Handlers.\lSettingsHandler.GetLittleWeebSettings">
<polygon fill="white" stroke="black" points="192,-49.5 192,-79.5 379,-79.5 379,-49.5 192,-49.5"/>
<text text-anchor="start" x="200" y="-67.5" font-family="Helvetica,sans-Serif" font-size="10.00">LittleWeebLibrary.Handlers.</text>
<text text-anchor="middle" x="285.5" y="-56.5" font-family="Helvetica,sans-Serif" font-size="10.00">SettingsHandler.GetLittleWeebSettings</text>
</a>
</g>
</g>
<!-- Node0&#45;&gt;Node3 -->
<g id="edge3" class="edge"><title>Node0&#45;&gt;Node3</title>
<path fill="none" stroke="midnightblue" d="M156.105,-64.5C164.455,-64.5 173.046,-64.5 181.638,-64.5"/>
<polygon fill="midnightblue" stroke="midnightblue" points="181.71,-68.0001 191.71,-64.5 181.71,-61.0001 181.71,-68.0001"/>
</g>
<!-- Node4 -->
<g id="node5" class="node"><title>Node4</title>
<g id="a_node5"><a xlink:href="interface_little_weeb_library_1_1_handlers_1_1_i_debug_handler.html#a2e405bc3492e683cd3702fae125221bc" target="_top" xlink:title="LittleWeebLibrary.Handlers.\lIDebugHandler.TraceMessage">
<polygon fill="white" stroke="black" points="212.5,-0.5 212.5,-30.5 358.5,-30.5 358.5,-0.5 212.5,-0.5"/>
<text text-anchor="start" x="220.5" y="-18.5" font-family="Helvetica,sans-Serif" font-size="10.00">LittleWeebLibrary.Handlers.</text>
<text text-anchor="middle" x="285.5" y="-7.5" font-family="Helvetica,sans-Serif" font-size="10.00">IDebugHandler.TraceMessage</text>
</a>
</g>
</g>
<!-- Node0&#45;&gt;Node4 -->
<g id="edge5" class="edge"><title>Node0&#45;&gt;Node4</title>
<path fill="none" stroke="midnightblue" d="M142.053,-49.4654C164.047,-44.2211 188.908,-38.2931 211.634,-32.8745"/>
<polygon fill="midnightblue" stroke="midnightblue" points="212.65,-36.2302 221.566,-30.5062 211.027,-29.4211 212.65,-36.2302"/>
</g>
<!-- Node2 -->
<g id="node3" class="node"><title>Node2</title>
<g id="a_node3"><a xlink:href="class_little_weeb_library_1_1_handlers_1_1_debug_handler.html#afccb37dfd6b2114af72000c2f4fe4607" target="_top" xlink:title="LittleWeebLibrary.Handlers.\lDebugHandler.TraceMessage">
<polygon fill="white" stroke="black" points="415,-73.5 415,-103.5 559,-103.5 559,-73.5 415,-73.5"/>
<text text-anchor="start" x="423" y="-91.5" font-family="Helvetica,sans-Serif" font-size="10.00">LittleWeebLibrary.Handlers.</text>
<text text-anchor="middle" x="487" y="-80.5" font-family="Helvetica,sans-Serif" font-size="10.00">DebugHandler.TraceMessage</text>
</a>
</g>
</g>
<!-- Node1&#45;&gt;Node2 -->
<g id="edge2" class="edge"><title>Node1&#45;&gt;Node2</title>
<path fill="none" stroke="midnightblue" d="M361.07,-104.155C375.368,-102.364 390.404,-100.479 404.896,-98.6634"/>
<polygon fill="midnightblue" stroke="midnightblue" points="405.339,-102.135 414.826,-97.4191 404.468,-95.1897 405.339,-102.135"/>
</g>
<!-- Node3&#45;&gt;Node2 -->
<g id="edge4" class="edge"><title>Node3&#45;&gt;Node2</title>
<path fill="none" stroke="midnightblue" d="M379.241,-75.6569C387.778,-76.6838 396.383,-77.719 404.805,-78.7322"/>
<polygon fill="midnightblue" stroke="midnightblue" points="404.624,-82.2355 414.97,-79.9551 405.46,-75.2856 404.624,-82.2355"/>
</g>
</g>
</svg>
