<?xml version="1.0" encoding="UTF-8" standalone="no"?>
<!DOCTYPE svg PUBLIC "-//W3C//DTD SVG 1.1//EN"
 "http://www.w3.org/Graphics/SVG/1.1/DTD/svg11.dtd">
<!-- Generated by graphviz version 2.38.0 (20140413.2041)
 -->
<!-- Title: LittleWeebLibrary.Handlers.DataBaseHandler.StoreJObject Pages: 1 -->
<svg width="340pt" height="149pt"
 viewBox="0.00 0.00 340.00 149.00" xmlns="http://www.w3.org/2000/svg" xmlns:xlink="http://www.w3.org/1999/xlink">
<g id="graph0" class="graph" transform="scale(1 1) rotate(0) translate(4 145)">
<title>LittleWeebLibrary.Handlers.DataBaseHandler.StoreJObject</title>
<polygon fill="white" stroke="none" points="-4,4 -4,-145 336,-145 336,4 -4,4"/>
<!-- Node59 -->
<g id="node1" class="node"><title>Node59</title>
<polygon fill="#bfbfbf" stroke="black" points="0,-55.5 0,-85.5 152,-85.5 152,-55.5 0,-55.5"/>
<text text-anchor="start" x="8" y="-73.5" font-family="Helvetica,sans-Serif" font-size="10.00">LittleWeebLibrary.Handlers.</text>
<text text-anchor="middle" x="76" y="-62.5" font-family="Helvetica,sans-Serif" font-size="10.00">DataBaseHandler.StoreJObject</text>
</g>
<!-- Node60 -->
<g id="node2" class="node"><title>Node60</title>
<g id="a_node2"><a xlink:href="class_little_weeb_library_1_1_handlers_1_1_debug_handler.html#afccb37dfd6b2114af72000c2f4fe4607" target="_top" xlink:title="LittleWeebLibrary.Handlers.\lDebugHandler.TraceMessage">
<polygon fill="white" stroke="black" points="188,-110.5 188,-140.5 332,-140.5 332,-110.5 188,-110.5"/>
<text text-anchor="start" x="196" y="-128.5" font-family="Helvetica,sans-Serif" font-size="10.00">LittleWeebLibrary.Handlers.</text>
<text text-anchor="middle" x="260" y="-117.5" font-family="Helvetica,sans-Serif" font-size="10.00">DebugHandler.TraceMessage</text>
</a>
</g>
</g>
<!-- Node59&#45;&gt;Node60 -->
<g id="edge1" class="edge"><title>Node59&#45;&gt;Node60</title>
<path fill="none" stroke="midnightblue" d="M126.732,-85.529C149.203,-92.3195 175.932,-100.397 199.462,-107.508"/>
<polygon fill="midnightblue" stroke="midnightblue" points="198.743,-110.947 209.328,-110.489 200.768,-104.246 198.743,-110.947"/>
</g>
<!-- Node61 -->
<g id="node3" class="node"><title>Node61</title>
<g id="a_node3"><a xlink:href="class_little_weeb_library_1_1_static_classes_1_1_utility_methods.html#a6542a3a6ea0aed6b4d78bb44a4a7d9d7" target="_top" xlink:title="LittleWeebLibrary.Static\lClasses.UtilityMethods.Write\lBinaryFile">
<polygon fill="white" stroke="black" points="188.5,-50 188.5,-91 331.5,-91 331.5,-50 188.5,-50"/>
<text text-anchor="start" x="196.5" y="-79" font-family="Helvetica,sans-Serif" font-size="10.00">LittleWeebLibrary.Static</text>
<text text-anchor="start" x="196.5" y="-68" font-family="Helvetica,sans-Serif" font-size="10.00">Classes.UtilityMethods.Write</text>
<text text-anchor="middle" x="260" y="-57" font-family="Helvetica,sans-Serif" font-size="10.00">BinaryFile</text>
</a>
</g>
</g>
<!-- Node59&#45;&gt;Node61 -->
<g id="edge2" class="edge"><title>Node59&#45;&gt;Node61</title>
<path fill="none" stroke="midnightblue" d="M152.077,-70.5C160.734,-70.5 169.589,-70.5 178.315,-70.5"/>
<polygon fill="midnightblue" stroke="midnightblue" points="178.481,-74.0001 188.481,-70.5 178.481,-67.0001 178.481,-74.0001"/>
</g>
<!-- Node62 -->
<g id="node4" class="node"><title>Node62</title>
<g id="a_node4"><a xlink:href="class_little_weeb_library_1_1_static_classes_1_1_utility_methods.html#a16933213071d531063b29979e7b55fe8" target="_top" xlink:title="LittleWeebLibrary.Static\lClasses.UtilityMethods.Zip">
<polygon fill="white" stroke="black" points="193.5,-0.5 193.5,-30.5 326.5,-30.5 326.5,-0.5 193.5,-0.5"/>
<text text-anchor="start" x="201.5" y="-18.5" font-family="Helvetica,sans-Serif" font-size="10.00">LittleWeebLibrary.Static</text>
<text text-anchor="middle" x="260" y="-7.5" font-family="Helvetica,sans-Serif" font-size="10.00">Classes.UtilityMethods.Zip</text>
</a>
</g>
</g>
<!-- Node59&#45;&gt;Node62 -->
<g id="edge3" class="edge"><title>Node59&#45;&gt;Node62</title>
<path fill="none" stroke="midnightblue" d="M126.732,-55.471C149.203,-48.6805 175.932,-40.6029 199.462,-33.4924"/>
<polygon fill="midnightblue" stroke="midnightblue" points="200.768,-36.754 209.328,-30.5108 198.743,-30.0533 200.768,-36.754"/>
</g>
</g>
</svg>
