<?xml version="1.0" encoding="UTF-8" standalone="no"?>
<!DOCTYPE svg PUBLIC "-//W3C//DTD SVG 1.1//EN"
 "http://www.w3.org/Graphics/SVG/1.1/DTD/svg11.dtd">
<!-- Generated by graphviz version 2.38.0 (20140413.2041)
 -->
<!-- Title: LittleWeebLibrary.Services.SettingsWebSocketService.SetSettingsClasses Pages: 1 -->
<svg width="422pt" height="137pt"
 viewBox="0.00 0.00 422.00 137.00" xmlns="http://www.w3.org/2000/svg" xmlns:xlink="http://www.w3.org/1999/xlink">
<g id="graph0" class="graph" transform="scale(1 1) rotate(0) translate(4 133)">
<title>LittleWeebLibrary.Services.SettingsWebSocketService.SetSettingsClasses</title>
<polygon fill="white" stroke="none" points="-4,4 -4,-133 418,-133 418,4 -4,4"/>
<!-- Node3 -->
<g id="node1" class="node"><title>Node3</title>
<polygon fill="#bfbfbf" stroke="black" points="0,-44 0,-85 189,-85 189,-44 0,-44"/>
<text text-anchor="start" x="8" y="-73" font-family="Helvetica,sans-Serif" font-size="10.00">LittleWeebLibrary.Services.</text>
<text text-anchor="start" x="8" y="-62" font-family="Helvetica,sans-Serif" font-size="10.00">SettingsWebSocketService.SetSettings</text>
<text text-anchor="middle" x="94.5" y="-51" font-family="Helvetica,sans-Serif" font-size="10.00">Classes</text>
</g>
<!-- Node4 -->
<g id="node2" class="node"><title>Node4</title>
<g id="a_node2"><a xlink:href="interface_little_weeb_library_1_1_handlers_1_1_i_settings_handler.html#a8ee9be789e628c80fae0db96d890569b" target="_top" xlink:title="LittleWeebLibrary.Handlers.\lISettingsHandler.GetIrcSettings">
<polygon fill="white" stroke="black" points="243,-98.5 243,-128.5 396,-128.5 396,-98.5 243,-98.5"/>
<text text-anchor="start" x="251" y="-116.5" font-family="Helvetica,sans-Serif" font-size="10.00">LittleWeebLibrary.Handlers.</text>
<text text-anchor="middle" x="319.5" y="-105.5" font-family="Helvetica,sans-Serif" font-size="10.00">ISettingsHandler.GetIrcSettings</text>
</a>
</g>
</g>
<!-- Node3&#45;&gt;Node4 -->
<g id="edge1" class="edge"><title>Node3&#45;&gt;Node4</title>
<path fill="none" stroke="midnightblue" d="M189.103,-85.0674C206.08,-88.7979 223.626,-92.6533 240.11,-96.2753"/>
<polygon fill="midnightblue" stroke="midnightblue" points="239.704,-99.7695 250.222,-98.4972 241.206,-92.9326 239.704,-99.7695"/>
</g>
<!-- Node5 -->
<g id="node3" class="node"><title>Node5</title>
<g id="a_node3"><a xlink:href="interface_little_weeb_library_1_1_handlers_1_1_i_settings_handler.html#a493bc8df18211fa8c3874371b809e006" target="_top" xlink:title="LittleWeebLibrary.Handlers.\lISettingsHandler.GetLittleWeebSettings">
<polygon fill="white" stroke="black" points="225,-49.5 225,-79.5 414,-79.5 414,-49.5 225,-49.5"/>
<text text-anchor="start" x="233" y="-67.5" font-family="Helvetica,sans-Serif" font-size="10.00">LittleWeebLibrary.Handlers.</text>
<text text-anchor="middle" x="319.5" y="-56.5" font-family="Helvetica,sans-Serif" font-size="10.00">ISettingsHandler.GetLittleWeebSettings</text>
</a>
</g>
</g>
<!-- Node3&#45;&gt;Node5 -->
<g id="edge2" class="edge"><title>Node3&#45;&gt;Node5</title>
<path fill="none" stroke="midnightblue" d="M189.103,-64.5C197.584,-64.5 206.207,-64.5 214.769,-64.5"/>
<polygon fill="midnightblue" stroke="midnightblue" points="214.779,-68.0001 224.779,-64.5 214.779,-61.0001 214.779,-68.0001"/>
</g>
<!-- Node6 -->
<g id="node4" class="node"><title>Node6</title>
<g id="a_node4"><a xlink:href="class_little_weeb_library_1_1_handlers_1_1_debug_handler.html#afccb37dfd6b2114af72000c2f4fe4607" target="_top" xlink:title="LittleWeebLibrary.Handlers.\lDebugHandler.TraceMessage">
<polygon fill="white" stroke="black" points="247.5,-0.5 247.5,-30.5 391.5,-30.5 391.5,-0.5 247.5,-0.5"/>
<text text-anchor="start" x="255.5" y="-18.5" font-family="Helvetica,sans-Serif" font-size="10.00">LittleWeebLibrary.Handlers.</text>
<text text-anchor="middle" x="319.5" y="-7.5" font-family="Helvetica,sans-Serif" font-size="10.00">DebugHandler.TraceMessage</text>
</a>
</g>
</g>
<!-- Node3&#45;&gt;Node6 -->
<g id="edge3" class="edge"><title>Node3&#45;&gt;Node6</title>
<path fill="none" stroke="midnightblue" d="M189.103,-43.9326C206.08,-40.2021 223.626,-36.3467 240.11,-32.7247"/>
<polygon fill="midnightblue" stroke="midnightblue" points="241.206,-36.0674 250.222,-30.5028 239.704,-29.2305 241.206,-36.0674"/>
</g>
</g>
</svg>
