<?xml version="1.0" encoding="UTF-8" standalone="no"?>
<!DOCTYPE svg PUBLIC "-//W3C//DTD SVG 1.1//EN"
 "http://www.w3.org/Graphics/SVG/1.1/DTD/svg11.dtd">
<!-- Generated by graphviz version 2.38.0 (20140413.2041)
 -->
<!-- Title: LittleWeebLibrary.Handlers.DirectoryHandler.DeleteDirectory Pages: 1 -->
<svg width="580pt" height="50pt"
 viewBox="0.00 0.00 580.00 50.00" xmlns="http://www.w3.org/2000/svg" xmlns:xlink="http://www.w3.org/1999/xlink">
<g id="graph0" class="graph" transform="scale(1 1) rotate(0) translate(4 46)">
<title>LittleWeebLibrary.Handlers.DirectoryHandler.DeleteDirectory</title>
<polygon fill="white" stroke="none" points="-4,4 -4,-46 576,-46 576,4 -4,4"/>
<!-- Node24 -->
<g id="node1" class="node"><title>Node24</title>
<polygon fill="#bfbfbf" stroke="black" points="0,-6 0,-36 158,-36 158,-6 0,-6"/>
<text text-anchor="start" x="8" y="-24" font-family="Helvetica,sans-Serif" font-size="10.00">LittleWeebLibrary.Handlers.</text>
<text text-anchor="middle" x="79" y="-13" font-family="Helvetica,sans-Serif" font-size="10.00">DirectoryHandler.DeleteDirectory</text>
</g>
<!-- Node25 -->
<g id="node2" class="node"><title>Node25</title>
<g id="a_node2"><a xlink:href="class_little_weeb_library_1_1_services_1_1_directory_web_socket_service.html#ac0af5740848de2340e4d3e9225eeb0d7" target="_top" xlink:title="LittleWeebLibrary.Services.\lDirectoryWebSocketService.Delete\lDirectory">
<polygon fill="white" stroke="black" points="194,-0.5 194,-41.5 363,-41.5 363,-0.5 194,-0.5"/>
<text text-anchor="start" x="202" y="-29.5" font-family="Helvetica,sans-Serif" font-size="10.00">LittleWeebLibrary.Services.</text>
<text text-anchor="start" x="202" y="-18.5" font-family="Helvetica,sans-Serif" font-size="10.00">DirectoryWebSocketService.Delete</text>
<text text-anchor="middle" x="278.5" y="-7.5" font-family="Helvetica,sans-Serif" font-size="10.00">Directory</text>
</a>
</g>
</g>
<!-- Node24&#45;&gt;Node25 -->
<g id="edge1" class="edge"><title>Node24&#45;&gt;Node25</title>
<path fill="none" stroke="midnightblue" d="M168.334,-21C176.816,-21 185.401,-21 193.836,-21"/>
<polygon fill="midnightblue" stroke="midnightblue" points="168.057,-17.5001 158.057,-21 168.057,-24.5001 168.057,-17.5001"/>
</g>
<!-- Node26 -->
<g id="node3" class="node"><title>Node26</title>
<g id="a_node3"><a xlink:href="class_little_weeb_library_1_1_controllers_1_1_sub_controllers_1_1_directory_web_socket_controller.html#a2db42c05c620f5658a5b6e473581f84c" target="_top" xlink:title="LittleWeebLibrary.Controllers.\lSubControllers.DirectoryWebSocket\lController.OnWebSocketEvent">
<polygon fill="white" stroke="black" points="399,-0.5 399,-41.5 572,-41.5 572,-0.5 399,-0.5"/>
<text text-anchor="start" x="407" y="-29.5" font-family="Helvetica,sans-Serif" font-size="10.00">LittleWeebLibrary.Controllers.</text>
<text text-anchor="start" x="407" y="-18.5" font-family="Helvetica,sans-Serif" font-size="10.00">SubControllers.DirectoryWebSocket</text>
<text text-anchor="middle" x="485.5" y="-7.5" font-family="Helvetica,sans-Serif" font-size="10.00">Controller.OnWebSocketEvent</text>
</a>
</g>
</g>
<!-- Node25&#45;&gt;Node26 -->
<g id="edge2" class="edge"><title>Node25&#45;&gt;Node26</title>
<path fill="none" stroke="midnightblue" d="M373.424,-21C381.869,-21 390.392,-21 398.762,-21"/>
<polygon fill="midnightblue" stroke="midnightblue" points="373.177,-17.5001 363.177,-21 373.177,-24.5001 373.177,-17.5001"/>
</g>
</g>
</svg>
