<?xml version="1.0" encoding="UTF-8" standalone="no"?>
<!DOCTYPE svg PUBLIC "-//W3C//DTD SVG 1.1//EN"
 "http://www.w3.org/Graphics/SVG/1.1/DTD/svg11.dtd">
<!-- Generated by graphviz version 2.38.0 (20140413.2041)
 -->
<!-- Title: LittleWeebLibrary.Handlers.IrcClientHandler.IsDownloading Pages: 1 -->
<svg width="822pt" height="50pt"
 viewBox="0.00 0.00 822.00 50.00" xmlns="http://www.w3.org/2000/svg" xmlns:xlink="http://www.w3.org/1999/xlink">
<g id="graph0" class="graph" transform="scale(1 1) rotate(0) translate(4 46)">
<title>LittleWeebLibrary.Handlers.IrcClientHandler.IsDownloading</title>
<polygon fill="white" stroke="none" points="-4,4 -4,-46 818,-46 818,4 -4,4"/>
<!-- Node49 -->
<g id="node1" class="node"><title>Node49</title>
<polygon fill="#bfbfbf" stroke="black" points="0,-6 0,-36 150,-36 150,-6 0,-6"/>
<text text-anchor="start" x="8" y="-24" font-family="Helvetica,sans-Serif" font-size="10.00">LittleWeebLibrary.Handlers.</text>
<text text-anchor="middle" x="75" y="-13" font-family="Helvetica,sans-Serif" font-size="10.00">IrcClientHandler.IsDownloading</text>
</g>
<!-- Node50 -->
<g id="node2" class="node"><title>Node50</title>
<g id="a_node2"><a xlink:href="class_little_weeb_library_1_1_handlers_1_1_download_handler.html#a5a28664c89bf43b921fc9d3f1845b5a1" target="_top" xlink:title="LittleWeebLibrary.Handlers.\lDownloadHandler.AbortDownload">
<polygon fill="white" stroke="black" points="186,-6 186,-36 346,-36 346,-6 186,-6"/>
<text text-anchor="start" x="194" y="-24" font-family="Helvetica,sans-Serif" font-size="10.00">LittleWeebLibrary.Handlers.</text>
<text text-anchor="middle" x="266" y="-13" font-family="Helvetica,sans-Serif" font-size="10.00">DownloadHandler.AbortDownload</text>
</a>
</g>
</g>
<!-- Node49&#45;&gt;Node50 -->
<g id="edge1" class="edge"><title>Node49&#45;&gt;Node50</title>
<path fill="none" stroke="midnightblue" d="M160.38,-21C168.822,-21 177.373,-21 185.759,-21"/>
<polygon fill="midnightblue" stroke="midnightblue" points="160.155,-17.5001 150.155,-21 160.155,-24.5001 160.155,-17.5001"/>
</g>
<!-- Node51 -->
<g id="node3" class="node"><title>Node51</title>
<g id="a_node3"><a xlink:href="class_little_weeb_library_1_1_services_1_1_download_web_socket_service.html#a0ab2f2e6fcb90cd42dfa0de9d6a58f7e" target="_top" xlink:title="LittleWeebLibrary.Services.\lDownloadWebSocketService.AbortDownload">
<polygon fill="white" stroke="black" points="382,-6 382,-36 591,-36 591,-6 382,-6"/>
<text text-anchor="start" x="390" y="-24" font-family="Helvetica,sans-Serif" font-size="10.00">LittleWeebLibrary.Services.</text>
<text text-anchor="middle" x="486.5" y="-13" font-family="Helvetica,sans-Serif" font-size="10.00">DownloadWebSocketService.AbortDownload</text>
</a>
</g>
</g>
<!-- Node50&#45;&gt;Node51 -->
<g id="edge2" class="edge"><title>Node50&#45;&gt;Node51</title>
<path fill="none" stroke="midnightblue" d="M356.363,-21C364.778,-21 373.357,-21 381.89,-21"/>
<polygon fill="midnightblue" stroke="midnightblue" points="356.192,-17.5001 346.192,-21 356.192,-24.5001 356.192,-17.5001"/>
</g>
<!-- Node52 -->
<g id="node4" class="node"><title>Node52</title>
<g id="a_node4"><a xlink:href="class_little_weeb_library_1_1_controllers_1_1_download_web_socket_controller.html#a9e5e421ed57b8b2a294e17d93d027c53" target="_top" xlink:title="LittleWeebLibrary.Controllers.\lDownloadWebSocketController.OnWeb\lSocketEvent">
<polygon fill="white" stroke="black" points="627,-0.5 627,-41.5 814,-41.5 814,-0.5 627,-0.5"/>
<text text-anchor="start" x="635" y="-29.5" font-family="Helvetica,sans-Serif" font-size="10.00">LittleWeebLibrary.Controllers.</text>
<text text-anchor="start" x="635" y="-18.5" font-family="Helvetica,sans-Serif" font-size="10.00">DownloadWebSocketController.OnWeb</text>
<text text-anchor="middle" x="720.5" y="-7.5" font-family="Helvetica,sans-Serif" font-size="10.00">SocketEvent</text>
</a>
</g>
</g>
<!-- Node51&#45;&gt;Node52 -->
<g id="edge3" class="edge"><title>Node51&#45;&gt;Node52</title>
<path fill="none" stroke="midnightblue" d="M601.291,-21C609.83,-21 618.385,-21 626.771,-21"/>
<polygon fill="midnightblue" stroke="midnightblue" points="601.286,-17.5001 591.286,-21 601.286,-24.5001 601.286,-17.5001"/>
</g>
</g>
</svg>
