<?xml version="1.0" encoding="UTF-8" standalone="no"?>
<!DOCTYPE svg PUBLIC "-//W3C//DTD SVG 1.1//EN"
 "http://www.w3.org/Graphics/SVG/1.1/DTD/svg11.dtd">
<!-- Generated by graphviz version 2.38.0 (20140413.2041)
 -->
<!-- Title: LittleWeebLibrary.Services.InfoApiWebSocketService.GetAllCategories Pages: 1 -->
<svg width="457pt" height="50pt"
 viewBox="0.00 0.00 457.00 50.00" xmlns="http://www.w3.org/2000/svg" xmlns:xlink="http://www.w3.org/1999/xlink">
<g id="graph0" class="graph" transform="scale(1 1) rotate(0) translate(4 46)">
<title>LittleWeebLibrary.Services.InfoApiWebSocketService.GetAllCategories</title>
<polygon fill="white" stroke="none" points="-4,4 -4,-46 453,-46 453,4 -4,4"/>
<!-- Node127 -->
<g id="node1" class="node"><title>Node127</title>
<polygon fill="#bfbfbf" stroke="black" points="0,-6 0,-36 205,-36 205,-6 0,-6"/>
<text text-anchor="start" x="8" y="-24" font-family="Helvetica,sans-Serif" font-size="10.00">LittleWeebLibrary.Services.</text>
<text text-anchor="middle" x="102.5" y="-13" font-family="Helvetica,sans-Serif" font-size="10.00">InfoApiWebSocketService.GetAllCategories</text>
</g>
<!-- Node128 -->
<g id="node2" class="node"><title>Node128</title>
<g id="a_node2"><a xlink:href="class_little_weeb_library_1_1_controllers_1_1_sub_controllers_1_1_info_api_web_socket_controller.html#ad620537574b819085ff8eb394add2912" target="_top" xlink:title="LittleWeebLibrary.Controllers.\lSubControllers.InfoApiWebSocketController.\lOnWebSocketEvent">
<polygon fill="white" stroke="black" points="241,-0.5 241,-41.5 449,-41.5 449,-0.5 241,-0.5"/>
<text text-anchor="start" x="249" y="-29.5" font-family="Helvetica,sans-Serif" font-size="10.00">LittleWeebLibrary.Controllers.</text>
<text text-anchor="start" x="249" y="-18.5" font-family="Helvetica,sans-Serif" font-size="10.00">SubControllers.InfoApiWebSocketController.</text>
<text text-anchor="middle" x="345" y="-7.5" font-family="Helvetica,sans-Serif" font-size="10.00">OnWebSocketEvent</text>
</a>
</g>
</g>
<!-- Node127&#45;&gt;Node128 -->
<g id="edge1" class="edge"><title>Node127&#45;&gt;Node128</title>
<path fill="none" stroke="midnightblue" d="M215.423,-21C223.881,-21 232.394,-21 240.793,-21"/>
<polygon fill="midnightblue" stroke="midnightblue" points="215.145,-17.5001 205.145,-21 215.145,-24.5001 215.145,-17.5001"/>
</g>
</g>
</svg>
