<?xml version="1.0" encoding="UTF-8" standalone="no"?>
<!DOCTYPE svg PUBLIC "-//W3C//DTD SVG 1.1//EN"
 "http://www.w3.org/Graphics/SVG/1.1/DTD/svg11.dtd">
<!-- Generated by graphviz version 2.38.0 (20140413.2041)
 -->
<!-- Title: LittleWeebLibrary.Handlers.WebSocketHandler.WebSocketHandler Pages: 1 -->
<svg width="421pt" height="88pt"
 viewBox="0.00 0.00 421.00 88.00" xmlns="http://www.w3.org/2000/svg" xmlns:xlink="http://www.w3.org/1999/xlink">
<g id="graph0" class="graph" transform="scale(1 1) rotate(0) translate(4 84)">
<title>LittleWeebLibrary.Handlers.WebSocketHandler.WebSocketHandler</title>
<polygon fill="white" stroke="none" points="-4,4 -4,-84 417,-84 417,4 -4,4"/>
<!-- Node0 -->
<g id="node1" class="node"><title>Node0</title>
<polygon fill="#bfbfbf" stroke="black" points="0,-24.5 0,-54.5 188,-54.5 188,-24.5 0,-24.5"/>
<text text-anchor="start" x="8" y="-42.5" font-family="Helvetica,sans-Serif" font-size="10.00">LittleWeebLibrary.Handlers.</text>
<text text-anchor="middle" x="94" y="-31.5" font-family="Helvetica,sans-Serif" font-size="10.00">WebSocketHandler.WebSocketHandler</text>
</g>
<!-- Node1 -->
<g id="node2" class="node"><title>Node1</title>
<g id="a_node2"><a xlink:href="interface_little_weeb_library_1_1_handlers_1_1_i_settings_handler.html#a493bc8df18211fa8c3874371b809e006" target="_top" xlink:title="LittleWeebLibrary.Handlers.\lISettingsHandler.GetLittleWeebSettings">
<polygon fill="white" stroke="black" points="224,-49.5 224,-79.5 413,-79.5 413,-49.5 224,-49.5"/>
<text text-anchor="start" x="232" y="-67.5" font-family="Helvetica,sans-Serif" font-size="10.00">LittleWeebLibrary.Handlers.</text>
<text text-anchor="middle" x="318.5" y="-56.5" font-family="Helvetica,sans-Serif" font-size="10.00">ISettingsHandler.GetLittleWeebSettings</text>
</a>
</g>
</g>
<!-- Node0&#45;&gt;Node1 -->
<g id="edge1" class="edge"><title>Node0&#45;&gt;Node1</title>
<path fill="none" stroke="midnightblue" d="M188.071,-49.9574C196.544,-50.9095 205.163,-51.8778 213.721,-52.8395"/>
<polygon fill="midnightblue" stroke="midnightblue" points="213.401,-56.3254 223.729,-53.964 214.183,-49.3692 213.401,-56.3254"/>
</g>
<!-- Node2 -->
<g id="node3" class="node"><title>Node2</title>
<g id="a_node3"><a xlink:href="interface_little_weeb_library_1_1_handlers_1_1_i_debug_handler.html#a2e405bc3492e683cd3702fae125221bc" target="_top" xlink:title="LittleWeebLibrary.Handlers.\lIDebugHandler.TraceMessage">
<polygon fill="white" stroke="black" points="245.5,-0.5 245.5,-30.5 391.5,-30.5 391.5,-0.5 245.5,-0.5"/>
<text text-anchor="start" x="253.5" y="-18.5" font-family="Helvetica,sans-Serif" font-size="10.00">LittleWeebLibrary.Handlers.</text>
<text text-anchor="middle" x="318.5" y="-7.5" font-family="Helvetica,sans-Serif" font-size="10.00">IDebugHandler.TraceMessage</text>
</a>
</g>
</g>
<!-- Node0&#45;&gt;Node2 -->
<g id="edge2" class="edge"><title>Node0&#45;&gt;Node2</title>
<path fill="none" stroke="midnightblue" d="M188.071,-29.4609C203.798,-27.7645 220.024,-26.0143 235.444,-24.351"/>
<polygon fill="midnightblue" stroke="midnightblue" points="235.881,-27.8242 245.448,-23.2719 235.13,-20.8646 235.881,-27.8242"/>
</g>
</g>
</svg>
