<?xml version="1.0" encoding="UTF-8" standalone="no"?>
<!DOCTYPE svg PUBLIC "-//W3C//DTD SVG 1.1//EN"
 "http://www.w3.org/Graphics/SVG/1.1/DTD/svg11.dtd">
<!-- Generated by graphviz version 2.38.0 (20140413.2041)
 -->
<!-- Title: LittleWeebLibrary.Services.VersionWebSocketService Pages: 1 -->
<svg width="614pt" height="226pt"
 viewBox="0.00 0.00 613.50 226.00" xmlns="http://www.w3.org/2000/svg" xmlns:xlink="http://www.w3.org/1999/xlink">
<g id="graph0" class="graph" transform="scale(1 1) rotate(0) translate(4 222)">
<title>LittleWeebLibrary.Services.VersionWebSocketService</title>
<polygon fill="white" stroke="none" points="-4,4 -4,-222 609.5,-222 609.5,4 -4,4"/>
<!-- Node2 -->
<g id="node1" class="node"><title>Node2</title>
<polygon fill="#bfbfbf" stroke="black" points="224.5,-0.5 224.5,-79.5 371.5,-79.5 371.5,-0.5 224.5,-0.5"/>
<text text-anchor="start" x="232.5" y="-67.5" font-family="Helvetica,sans-Serif" font-size="10.00">LittleWeebLibrary.Services.</text>
<text text-anchor="middle" x="298" y="-56.5" font-family="Helvetica,sans-Serif" font-size="10.00">VersionWebSocketService</text>
<polyline fill="none" stroke="black" points="224.5,-49.5 371.5,-49.5 "/>
<text text-anchor="middle" x="298" y="-37.5" font-family="Helvetica,sans-Serif" font-size="10.00"> </text>
<polyline fill="none" stroke="black" points="224.5,-30.5 371.5,-30.5 "/>
<text text-anchor="start" x="232.5" y="-18.5" font-family="Helvetica,sans-Serif" font-size="10.00">+ VersionWebSocketService()</text>
<text text-anchor="start" x="232.5" y="-7.5" font-family="Helvetica,sans-Serif" font-size="10.00">+ CheckVersion()</text>
</g>
<!-- Node3 -->
<g id="node2" class="node"><title>Node3</title>
<g id="a_node2"><a xlink:href="interface_little_weeb_library_1_1_services_1_1_i_version_web_socket_service.html" target="_top" xlink:title="{IVersionWebSocketService\n||+ CheckVersion()\l}">
<polygon fill="white" stroke="black" points="0,-144 0,-201 134,-201 134,-144 0,-144"/>
<text text-anchor="middle" x="67" y="-189" font-family="Helvetica,sans-Serif" font-size="10.00">IVersionWebSocketService</text>
<polyline fill="none" stroke="black" points="0,-182 134,-182 "/>
<text text-anchor="middle" x="67" y="-170" font-family="Helvetica,sans-Serif" font-size="10.00"> </text>
<polyline fill="none" stroke="black" points="0,-163 134,-163 "/>
<text text-anchor="start" x="8" y="-151" font-family="Helvetica,sans-Serif" font-size="10.00">+ CheckVersion()</text>
</a>
</g>
</g>
<!-- Node3&#45;&gt;Node2 -->
<g id="edge1" class="edge"><title>Node3&#45;&gt;Node2</title>
<path fill="none" stroke="midnightblue" d="M123.024,-138.5C129.742,-134.601 136.516,-130.696 143,-127 170.537,-111.302 201.007,-94.3138 227.592,-79.6154"/>
<polygon fill="none" stroke="midnightblue" points="120.811,-135.738 113.93,-143.793 124.333,-141.788 120.811,-135.738"/>
</g>
<!-- Node4 -->
<g id="node3" class="node"><title>Node4</title>
<g id="a_node3"><a xlink:href="interface_little_weeb_library_1_1_handlers_1_1_i_debug_handler.html" target="_top" xlink:title="{LittleWeebLibrary.Handlers.\lIDebugHandler\n||+ SetSettings()\l+ StopDebugger()\l+ TraceMessage()\l}">
<polygon fill="white" stroke="black" points="152.5,-127.5 152.5,-217.5 289.5,-217.5 289.5,-127.5 152.5,-127.5"/>
<text text-anchor="start" x="160.5" y="-205.5" font-family="Helvetica,sans-Serif" font-size="10.00">LittleWeebLibrary.Handlers.</text>
<text text-anchor="middle" x="221" y="-194.5" font-family="Helvetica,sans-Serif" font-size="10.00">IDebugHandler</text>
<polyline fill="none" stroke="black" points="152.5,-187.5 289.5,-187.5 "/>
<text text-anchor="middle" x="221" y="-175.5" font-family="Helvetica,sans-Serif" font-size="10.00"> </text>
<polyline fill="none" stroke="black" points="152.5,-168.5 289.5,-168.5 "/>
<text text-anchor="start" x="160.5" y="-156.5" font-family="Helvetica,sans-Serif" font-size="10.00">+ SetSettings()</text>
<text text-anchor="start" x="160.5" y="-145.5" font-family="Helvetica,sans-Serif" font-size="10.00">+ StopDebugger()</text>
<text text-anchor="start" x="160.5" y="-134.5" font-family="Helvetica,sans-Serif" font-size="10.00">+ TraceMessage()</text>
</a>
</g>
</g>
<!-- Node4&#45;&gt;Node2 -->
<g id="edge2" class="edge"><title>Node4&#45;&gt;Node2</title>
<path fill="none" stroke="#404040" d="M247.069,-127.319C254.088,-115.423 261.724,-102.481 268.897,-90.3241"/>
<polygon fill="none" stroke="#404040" points="268.956,-90.2243 268.56,-83.0241 275.054,-79.8892 275.45,-87.0895 268.956,-90.2243"/>
<text text-anchor="middle" x="298.5" y="-101" font-family="Helvetica,sans-Serif" font-size="10.00"> &#45;DebugHandler</text>
</g>
<!-- Node5 -->
<g id="node4" class="node"><title>Node5</title>
<g id="a_node4"><a xlink:href="interface_little_weeb_library_1_1_handlers_1_1_i_web_socket_handler.html" target="_top" xlink:title="{LittleWeebLibrary.Handlers.\lIWebSocketHandler\n||+ SendMessage()\l+ StartServer()\l+ StopServer()\l}">
<polygon fill="white" stroke="black" points="307.5,-127.5 307.5,-217.5 444.5,-217.5 444.5,-127.5 307.5,-127.5"/>
<text text-anchor="start" x="315.5" y="-205.5" font-family="Helvetica,sans-Serif" font-size="10.00">LittleWeebLibrary.Handlers.</text>
<text text-anchor="middle" x="376" y="-194.5" font-family="Helvetica,sans-Serif" font-size="10.00">IWebSocketHandler</text>
<polyline fill="none" stroke="black" points="307.5,-187.5 444.5,-187.5 "/>
<text text-anchor="middle" x="376" y="-175.5" font-family="Helvetica,sans-Serif" font-size="10.00"> </text>
<polyline fill="none" stroke="black" points="307.5,-168.5 444.5,-168.5 "/>
<text text-anchor="start" x="315.5" y="-156.5" font-family="Helvetica,sans-Serif" font-size="10.00">+ SendMessage()</text>
<text text-anchor="start" x="315.5" y="-145.5" font-family="Helvetica,sans-Serif" font-size="10.00">+ StartServer()</text>
<text text-anchor="start" x="315.5" y="-134.5" font-family="Helvetica,sans-Serif" font-size="10.00">+ StopServer()</text>
</a>
</g>
</g>
<!-- Node5&#45;&gt;Node2 -->
<g id="edge3" class="edge"><title>Node5&#45;&gt;Node2</title>
<path fill="none" stroke="#404040" d="M352.734,-127.217C347.397,-117.498 341.632,-107.327 336,-98 334.413,-95.3719 332.76,-92.6943 331.07,-90.0039"/>
<polygon fill="none" stroke="#404040" points="330.905,-89.7456 324.3,-86.851 324.432,-79.641 331.036,-82.5357 330.905,-89.7456"/>
<text text-anchor="middle" x="387.5" y="-101" font-family="Helvetica,sans-Serif" font-size="10.00"> &#45;WebSocketHandler</text>
</g>
<!-- Node6 -->
<g id="node5" class="node"><title>Node6</title>
<g id="a_node5"><a xlink:href="interface_little_weeb_library_1_1_handlers_1_1_i_version_handler.html" target="_top" xlink:title="{LittleWeebLibrary.Handlers.\lIVersionHandler\n||+ GetLatestVersionAndroid()\l+ GetLatestVersionDesktop()\l+ GetLocalVersion()\l}">
<polygon fill="white" stroke="black" points="462.5,-127.5 462.5,-217.5 605.5,-217.5 605.5,-127.5 462.5,-127.5"/>
<text text-anchor="start" x="470.5" y="-205.5" font-family="Helvetica,sans-Serif" font-size="10.00">LittleWeebLibrary.Handlers.</text>
<text text-anchor="middle" x="534" y="-194.5" font-family="Helvetica,sans-Serif" font-size="10.00">IVersionHandler</text>
<polyline fill="none" stroke="black" points="462.5,-187.5 605.5,-187.5 "/>
<text text-anchor="middle" x="534" y="-175.5" font-family="Helvetica,sans-Serif" font-size="10.00"> </text>
<polyline fill="none" stroke="black" points="462.5,-168.5 605.5,-168.5 "/>
<text text-anchor="start" x="470.5" y="-156.5" font-family="Helvetica,sans-Serif" font-size="10.00">+ GetLatestVersionAndroid()</text>
<text text-anchor="start" x="470.5" y="-145.5" font-family="Helvetica,sans-Serif" font-size="10.00">+ GetLatestVersionDesktop()</text>
<text text-anchor="start" x="470.5" y="-134.5" font-family="Helvetica,sans-Serif" font-size="10.00">+ GetLocalVersion()</text>
</a>
</g>
</g>
<!-- Node6&#45;&gt;Node2 -->
<g id="edge4" class="edge"><title>Node6&#45;&gt;Node2</title>
<path fill="none" stroke="#404040" d="M480.823,-127.315C467.031,-116.96 451.862,-106.486 437,-98 420.119,-88.3613 401.285,-79.5036 383.067,-71.7891"/>
<polygon fill="none" stroke="#404040" points="382.914,-71.7258 375.84,-73.1273 371.826,-67.1367 378.899,-65.7353 382.914,-71.7258"/>
<text text-anchor="middle" x="490.5" y="-101" font-family="Helvetica,sans-Serif" font-size="10.00"> &#45;VersionHandler</text>
</g>
</g>
</svg>
