<?xml version="1.0" encoding="UTF-8" standalone="no"?>
<!DOCTYPE svg PUBLIC "-//W3C//DTD SVG 1.1//EN"
 "http://www.w3.org/Graphics/SVG/1.1/DTD/svg11.dtd">
<!-- Generated by graphviz version 2.38.0 (20140413.2041)
 -->
<!-- Title: LittleWeebLibrary.Models.JsonDownloadInfo.ToJson Pages: 1 -->
<svg width="373pt" height="100pt"
 viewBox="0.00 0.00 373.00 99.50" xmlns="http://www.w3.org/2000/svg" xmlns:xlink="http://www.w3.org/1999/xlink">
<g id="graph0" class="graph" transform="scale(1 1) rotate(0) translate(4 95.5)">
<title>LittleWeebLibrary.Models.JsonDownloadInfo.ToJson</title>
<polygon fill="white" stroke="none" points="-4,4 -4,-95.5 369,-95.5 369,4 -4,4"/>
<!-- Node1 -->
<g id="node1" class="node"><title>Node1</title>
<polygon fill="#bfbfbf" stroke="black" points="0,-33 0,-63 130,-63 130,-33 0,-33"/>
<text text-anchor="start" x="8" y="-51" font-family="Helvetica,sans-Serif" font-size="10.00">LittleWeebLibrary.Models.</text>
<text text-anchor="middle" x="65" y="-40" font-family="Helvetica,sans-Serif" font-size="10.00">JsonDownloadInfo.ToJson</text>
</g>
<!-- Node2 -->
<g id="node2" class="node"><title>Node2</title>
<g id="a_node2"><a xlink:href="class_little_weeb_library_1_1_handlers_1_1_download_handler.html#a2f646f8d28235a8953b67207ee6131d9" target="_top" xlink:title="LittleWeebLibrary.Handlers.\lDownloadHandler.DownloadQueueHandler">
<polygon fill="white" stroke="black" points="166.5,-61 166.5,-91 364.5,-91 364.5,-61 166.5,-61"/>
<text text-anchor="start" x="174.5" y="-79" font-family="Helvetica,sans-Serif" font-size="10.00">LittleWeebLibrary.Handlers.</text>
<text text-anchor="middle" x="265.5" y="-68" font-family="Helvetica,sans-Serif" font-size="10.00">DownloadHandler.DownloadQueueHandler</text>
</a>
</g>
</g>
<!-- Node1&#45;&gt;Node2 -->
<g id="edge1" class="edge"><title>Node1&#45;&gt;Node2</title>
<path fill="none" stroke="midnightblue" d="M140.078,-58.4492C148.633,-59.6561 157.456,-60.9007 166.269,-62.1437"/>
<polygon fill="midnightblue" stroke="midnightblue" points="140.564,-54.9833 130.173,-57.0521 139.586,-61.9147 140.564,-54.9833"/>
</g>
<!-- Node3 -->
<g id="node3" class="node"><title>Node3</title>
<g id="a_node3"><a xlink:href="class_little_weeb_library_1_1_services_1_1_download_web_socket_service.html#a3111908b7f7a133a80ab6ec3e81cdcbf" target="_top" xlink:title="LittleWeebLibrary.Services.\lDownloadWebSocketService.OnDownload\lUpdateEvent">
<polygon fill="white" stroke="black" points="166,-0.5 166,-41.5 365,-41.5 365,-0.5 166,-0.5"/>
<text text-anchor="start" x="174" y="-29.5" font-family="Helvetica,sans-Serif" font-size="10.00">LittleWeebLibrary.Services.</text>
<text text-anchor="start" x="174" y="-18.5" font-family="Helvetica,sans-Serif" font-size="10.00">DownloadWebSocketService.OnDownload</text>
<text text-anchor="middle" x="265.5" y="-7.5" font-family="Helvetica,sans-Serif" font-size="10.00">UpdateEvent</text>
</a>
</g>
</g>
<!-- Node1&#45;&gt;Node3 -->
<g id="edge2" class="edge"><title>Node1&#45;&gt;Node3</title>
<path fill="none" stroke="midnightblue" d="M140.255,-37.8998C148.639,-36.7594 157.277,-35.5845 165.908,-34.4105"/>
<polygon fill="midnightblue" stroke="midnightblue" points="139.61,-34.4552 130.173,-39.2712 140.554,-41.3914 139.61,-34.4552"/>
</g>
</g>
</svg>
