<?xml version="1.0" encoding="UTF-8" standalone="no"?>
<!DOCTYPE svg PUBLIC "-//W3C//DTD SVG 1.1//EN"
 "http://www.w3.org/Graphics/SVG/1.1/DTD/svg11.dtd">
<!-- Generated by graphviz version 2.38.0 (20140413.2041)
 -->
<!-- Title: LittleWeebLibrary.Handlers.FileHandler Pages: 1 -->
<!--zoomable 303 -->
<svg id="main" version="1.1" xmlns="http://www.w3.org/2000/svg" xmlns:xlink="http://www.w3.org/1999/xlink" xml:space="preserve" onload="init(evt)">
<style type="text/css"><![CDATA[
.edge:hover path { stroke: red; }
.edge:hover polygon { stroke: red; fill: red; }
]]></style>
<script type="text/javascript"><![CDATA[
var edges = document.getElementsByTagName('g');
if (edges && edges.length) {
  for (var i=0;i<edges.length;i++) {
    if (edges[i].id.substr(0,4)=='edge') {
      edges[i].setAttribute('class','edge');
    }
  }
}
]]></script>
        <defs>
                <circle id="rim" cx="0" cy="0" r="7"/>
                <circle id="rim2" cx="0" cy="0" r="3.5"/>
                <g id="zoomPlus">
                        <use xlink:href="#rim" fill="#404040">
                                <set attributeName="fill" to="#808080" begin="zoomplus.mouseover" end="zoomplus.mouseout"/>
                        </use>
                        <path d="M-4,0h8M0,-4v8" fill="none" stroke="white" stroke-width="1.5" pointer-events="none"/>
                </g>
                <g id="zoomMin">
                        <use xlink:href="#rim" fill="#404040">
                                <set attributeName="fill" to="#808080" begin="zoomminus.mouseover" end="zoomminus.mouseout"/>
                        </use>
                        <path d="M-4,0h8" fill="none" stroke="white" stroke-width="1.5" pointer-events="none"/>
                </g>
                <g id="dirArrow">
                        <path fill="none" stroke="white" stroke-width="1.5" d="M0,-3.0v7 M-2.5,-0.5L0,-3.0L2.5,-0.5"/>
                </g>
               <g id="resetDef">
                       <use xlink:href="#rim2" fill="#404040">
                               <set attributeName="fill" to="#808080" begin="reset.mouseover" end="reset.mouseout"/>
                       </use>
               </g>
        </defs>

<script type="text/javascript">
var viewWidth = 538;
var viewHeight = 303;
var sectionId = 'dynsection-1';
</script>
<script xlink:href="svgpan.js"/>
<svg id="graph" class="graph">
<g id="viewport">
<title>LittleWeebLibrary.Handlers.FileHandler</title>
<polygon fill="white" stroke="none" points="-4,4 -4,-299 534,-299 534,4 -4,4"/>
<!-- Node3 -->
<g id="node1" class="node"><title>Node3</title>
<polygon fill="#bfbfbf" stroke="black" points="164,-0.5 164,-112.5 301,-112.5 301,-0.5 164,-0.5"/>
<text text-anchor="start" x="172" y="-100.5" font-family="Helvetica,sans-Serif" font-size="10.00">LittleWeebLibrary.Handlers.</text>
<text text-anchor="middle" x="232.5" y="-89.5" font-family="Helvetica,sans-Serif" font-size="10.00">FileHandler</text>
<polyline fill="none" stroke="black" points="164,-82.5 301,-82.5 "/>
<text text-anchor="middle" x="232.5" y="-70.5" font-family="Helvetica,sans-Serif" font-size="10.00"> </text>
<polyline fill="none" stroke="black" points="164,-63.5 301,-63.5 "/>
<text text-anchor="start" x="172" y="-51.5" font-family="Helvetica,sans-Serif" font-size="10.00">+ FileHandler()</text>
<text text-anchor="start" x="172" y="-40.5" font-family="Helvetica,sans-Serif" font-size="10.00">+ DeleteFile()</text>
<text text-anchor="start" x="172" y="-29.5" font-family="Helvetica,sans-Serif" font-size="10.00">+ OpenFile()</text>
<text text-anchor="start" x="172" y="-18.5" font-family="Helvetica,sans-Serif" font-size="10.00">+ SetIrcSettings()</text>
<text text-anchor="start" x="172" y="-7.5" font-family="Helvetica,sans-Serif" font-size="10.00">+ SetLittleWeebSettings()</text>
</g>
<!-- Node4 -->
<g id="node2" class="node"><title>Node4</title>
<g id="a_node2"><a xlink:href="interface_little_weeb_library_1_1_handlers_1_1_i_file_handler.html" target="_top" xlink:title="{IFileHandler\n||+ DeleteFile()\l+ OpenFile()\l}">
<polygon fill="white" stroke="black" points="0,-193.5 0,-261.5 75,-261.5 75,-193.5 0,-193.5"/>
<text text-anchor="middle" x="37.5" y="-249.5" font-family="Helvetica,sans-Serif" font-size="10.00">IFileHandler</text>
<polyline fill="none" stroke="black" points="0,-242.5 75,-242.5 "/>
<text text-anchor="middle" x="37.5" y="-230.5" font-family="Helvetica,sans-Serif" font-size="10.00"> </text>
<polyline fill="none" stroke="black" points="0,-223.5 75,-223.5 "/>
<text text-anchor="start" x="8" y="-211.5" font-family="Helvetica,sans-Serif" font-size="10.00">+ DeleteFile()</text>
<text text-anchor="start" x="8" y="-200.5" font-family="Helvetica,sans-Serif" font-size="10.00">+ OpenFile()</text>
</a>
</g>
</g>
<!-- Node4&#45;&gt;Node3 -->
<g id="edge1" class="edge"><title>Node4&#45;&gt;Node3</title>
<path fill="none" stroke="midnightblue" d="M62.7837,-184.937C69.0064,-176.227 76.0432,-167.438 83.5,-160 107.175,-136.386 136.939,-114.68 163.628,-97.3812"/>
<polygon fill="none" stroke="midnightblue" points="59.8704,-182.997 57.08,-193.218 65.6351,-186.968 59.8704,-182.997"/>
</g>
<!-- Node5 -->
<g id="node3" class="node"><title>Node5</title>
<g id="a_node3"><a xlink:href="interface_little_weeb_library_1_1_global_interfaces_1_1_i_settings_interface.html" target="_top" xlink:title="{ISettingsInterface\n||+ SetIrcSettings()\l+ SetLittleWeebSettings()\l}">
<polygon fill="white" stroke="black" points="93,-193.5 93,-261.5 222,-261.5 222,-193.5 93,-193.5"/>
<text text-anchor="middle" x="157.5" y="-249.5" font-family="Helvetica,sans-Serif" font-size="10.00">ISettingsInterface</text>
<polyline fill="none" stroke="black" points="93,-242.5 222,-242.5 "/>
<text text-anchor="middle" x="157.5" y="-230.5" font-family="Helvetica,sans-Serif" font-size="10.00"> </text>
<polyline fill="none" stroke="black" points="93,-223.5 222,-223.5 "/>
<text text-anchor="start" x="101" y="-211.5" font-family="Helvetica,sans-Serif" font-size="10.00">+ SetIrcSettings()</text>
<text text-anchor="start" x="101" y="-200.5" font-family="Helvetica,sans-Serif" font-size="10.00">+ SetLittleWeebSettings()</text>
</a>
</g>
</g>
<!-- Node5&#45;&gt;Node3 -->
<g id="edge2" class="edge"><title>Node5&#45;&gt;Node3</title>
<path fill="none" stroke="midnightblue" d="M176.412,-183.884C185.982,-162.32 197.714,-135.884 207.97,-112.775"/>
<polygon fill="none" stroke="midnightblue" points="173.175,-182.551 172.318,-193.111 179.573,-185.39 173.175,-182.551"/>
</g>
<!-- Node6 -->
<g id="node4" class="node"><title>Node6</title>
<g id="a_node4"><a xlink:href="interface_little_weeb_library_1_1_handlers_1_1_i_debug_handler.html" target="_top" xlink:title="{LittleWeebLibrary.Handlers.\lIDebugHandler\n||+ SetSettings()\l+ StopDebugger()\l+ TraceMessage()\l}">
<polygon fill="white" stroke="black" points="240,-182.5 240,-272.5 377,-272.5 377,-182.5 240,-182.5"/>
<text text-anchor="start" x="248" y="-260.5" font-family="Helvetica,sans-Serif" font-size="10.00">LittleWeebLibrary.Handlers.</text>
<text text-anchor="middle" x="308.5" y="-249.5" font-family="Helvetica,sans-Serif" font-size="10.00">IDebugHandler</text>
<polyline fill="none" stroke="black" points="240,-242.5 377,-242.5 "/>
<text text-anchor="middle" x="308.5" y="-230.5" font-family="Helvetica,sans-Serif" font-size="10.00"> </text>
<polyline fill="none" stroke="black" points="240,-223.5 377,-223.5 "/>
<text text-anchor="start" x="248" y="-211.5" font-family="Helvetica,sans-Serif" font-size="10.00">+ SetSettings()</text>
<text text-anchor="start" x="248" y="-200.5" font-family="Helvetica,sans-Serif" font-size="10.00">+ StopDebugger()</text>
<text text-anchor="start" x="248" y="-189.5" font-family="Helvetica,sans-Serif" font-size="10.00">+ TraceMessage()</text>
</a>
</g>
</g>
<!-- Node6&#45;&gt;Node3 -->
<g id="edge3" class="edge"><title>Node6&#45;&gt;Node3</title>
<path fill="none" stroke="#404040" d="M288.532,-182.097C280.517,-164.274 271.108,-143.353 262.314,-123.797"/>
<polygon fill="none" stroke="#404040" points="262.286,-123.734 256.177,-119.902 257.364,-112.789 263.473,-116.621 262.286,-123.734"/>
<text text-anchor="middle" x="304" y="-134" font-family="Helvetica,sans-Serif" font-size="10.00"> &#45;DebugHandler</text>
</g>
<!-- Node7 -->
<g id="node5" class="node"><title>Node7</title>
<g id="a_node5"><a xlink:href="class_little_weeb_library_1_1_settings_1_1_little_weeb_settings.html" target="_top" xlink:title="{LittleWeebLibrary.Settings.\lLittleWeebSettings\n|+ CurrentlyAiringBot\l+ DebugLevel\l+ DebugType\l+ Local\l+ MaxDebugLogSize\l+ Port\l+ RandomUsernameLength\l|+ ToString()\l}">
<polygon fill="white" stroke="black" points="395,-160.5 395,-294.5 530,-294.5 530,-160.5 395,-160.5"/>
<text text-anchor="start" x="403" y="-282.5" font-family="Helvetica,sans-Serif" font-size="10.00">LittleWeebLibrary.Settings.</text>
<text text-anchor="middle" x="462.5" y="-271.5" font-family="Helvetica,sans-Serif" font-size="10.00">LittleWeebSettings</text>
<polyline fill="none" stroke="black" points="395,-264.5 530,-264.5 "/>
<text text-anchor="start" x="403" y="-252.5" font-family="Helvetica,sans-Serif" font-size="10.00">+ CurrentlyAiringBot</text>
<text text-anchor="start" x="403" y="-241.5" font-family="Helvetica,sans-Serif" font-size="10.00">+ DebugLevel</text>
<text text-anchor="start" x="403" y="-230.5" font-family="Helvetica,sans-Serif" font-size="10.00">+ DebugType</text>
<text text-anchor="start" x="403" y="-219.5" font-family="Helvetica,sans-Serif" font-size="10.00">+ Local</text>
<text text-anchor="start" x="403" y="-208.5" font-family="Helvetica,sans-Serif" font-size="10.00">+ MaxDebugLogSize</text>
<text text-anchor="start" x="403" y="-197.5" font-family="Helvetica,sans-Serif" font-size="10.00">+ Port</text>
<text text-anchor="start" x="403" y="-186.5" font-family="Helvetica,sans-Serif" font-size="10.00">+ RandomUsernameLength</text>
<polyline fill="none" stroke="black" points="395,-179.5 530,-179.5 "/>
<text text-anchor="start" x="403" y="-167.5" font-family="Helvetica,sans-Serif" font-size="10.00">+ ToString()</text>
</a>
</g>
</g>
<!-- Node7&#45;&gt;Node3 -->
<g id="edge4" class="edge"><title>Node7&#45;&gt;Node3</title>
<path fill="none" stroke="#404040" d="M394.92,-166.586C392.099,-164.334 389.285,-162.131 386.5,-160 362.841,-141.9 336.111,-123.461 311.64,-107.305"/>
<polygon fill="none" stroke="#404040" points="311.341,-107.109 304.13,-107.163 301.307,-100.528 308.518,-100.473 311.341,-107.109"/>
<text text-anchor="middle" x="406" y="-134" font-family="Helvetica,sans-Serif" font-size="10.00"> &#45;LittleWeebSettings</text>
</g>
</g>
</svg>
        <g id="navigator" transform="translate(0 0)" fill="#404254">
                <rect fill="#f2f5e9" fill-opacity="0.5" stroke="#606060" stroke-width=".5" x="0" y="0" width="60" height="60"/>
                <use id="zoomplus" xlink:href="#zoomPlus" x="17" y="9" onmousedown="handleZoom(evt,'in')"/>
                <use id="zoomminus" xlink:href="#zoomMin" x="42" y="9" onmousedown="handleZoom(evt,'out')"/>
                <use id="reset" xlink:href="#resetDef" x="30" y="36" onmousedown="handleReset()"/>
                <g id="arrowUp" xlink:href="#dirArrow" transform="translate(30 24)" onmousedown="handlePan(0,-1)">
                  <use xlink:href="#rim" fill="#404040">
                        <set attributeName="fill" to="#808080" begin="arrowUp.mouseover" end="arrowUp.mouseout"/>
                  </use>
                  <path fill="none" stroke="white" stroke-width="1.5" d="M0,-3.0v7 M-2.5,-0.5L0,-3.0L2.5,-0.5"/>
                </g>
                <g id="arrowRight" xlink:href="#dirArrow" transform="rotate(90) translate(36 -43)" onmousedown="handlePan(1,0)">
                  <use xlink:href="#rim" fill="#404040">
                        <set attributeName="fill" to="#808080" begin="arrowRight.mouseover" end="arrowRight.mouseout"/>
                  </use>
                  <path fill="none" stroke="white" stroke-width="1.5" d="M0,-3.0v7 M-2.5,-0.5L0,-3.0L2.5,-0.5"/>
                </g>
                <g id="arrowDown" xlink:href="#dirArrow" transform="rotate(180) translate(-30 -48)" onmousedown="handlePan(0,1)">
                  <use xlink:href="#rim" fill="#404040">
                        <set attributeName="fill" to="#808080" begin="arrowDown.mouseover" end="arrowDown.mouseout"/>
                  </use>
                  <path fill="none" stroke="white" stroke-width="1.5" d="M0,-3.0v7 M-2.5,-0.5L0,-3.0L2.5,-0.5"/>
                </g>
                <g id="arrowLeft" xlink:href="#dirArrow" transform="rotate(270) translate(-36 17)" onmousedown="handlePan(-1,0)">
                  <use xlink:href="#rim" fill="#404040">
                        <set attributeName="fill" to="#808080" begin="arrowLeft.mouseover" end="arrowLeft.mouseout"/>
                  </use>
                  <path fill="none" stroke="white" stroke-width="1.5" d="M0,-3.0v7 M-2.5,-0.5L0,-3.0L2.5,-0.5"/>
                </g>
        </g>
        <svg viewBox="0 0 15 15" width="100%" height="30px" preserveAspectRatio="xMaxYMin meet">
         <g id="arrow_out" transform="scale(0.3 0.3)">
          <a xlink:href="class_little_weeb_library_1_1_handlers_1_1_file_handler__coll__graph_org.svg" target="_base">
           <rect id="button" ry="5" rx="5" y="6" x="6" height="38" width="38"
                fill="#f2f5e9" fill-opacity="0.5" stroke="#606060" stroke-width="1.0"/>
           <path id="arrow"
             d="M 11.500037,31.436501 C 11.940474,20.09759 22.043105,11.32322 32.158766,21.979434 L 37.068811,17.246167 C 37.068811,17.246167 37.088388,32 37.088388,32 L 22.160133,31.978069 C 22.160133,31.978069 26.997745,27.140456 26.997745,27.140456 C 18.528582,18.264221 13.291696,25.230495 11.500037,31.436501 z"
             style="fill:#404040;"/>
          </a>
         </g>
        </svg>
</svg>
