<?xml version="1.0" encoding="UTF-8" standalone="no"?>
<!DOCTYPE svg PUBLIC "-//W3C//DTD SVG 1.1//EN"
 "http://www.w3.org/Graphics/SVG/1.1/DTD/svg11.dtd">
<!-- Generated by graphviz version 2.38.0 (20140413.2041)
 -->
<!-- Title: LittleWeebLibrary.Services.DataBaseWebSocketService.DeleteDocument Pages: 1 -->
<svg width="563pt" height="225pt"
 viewBox="0.00 0.00 563.00 225.00" xmlns="http://www.w3.org/2000/svg" xmlns:xlink="http://www.w3.org/1999/xlink">
<g id="graph0" class="graph" transform="scale(1 1) rotate(0) translate(4 221)">
<title>LittleWeebLibrary.Services.DataBaseWebSocketService.DeleteDocument</title>
<polygon fill="white" stroke="none" points="-4,4 -4,-221 559,-221 559,4 -4,4"/>
<!-- Node3 -->
<g id="node1" class="node"><title>Node3</title>
<polygon fill="#bfbfbf" stroke="black" points="0,-93 0,-134 173,-134 173,-93 0,-93"/>
<text text-anchor="start" x="8" y="-122" font-family="Helvetica,sans-Serif" font-size="10.00">LittleWeebLibrary.Services.</text>
<text text-anchor="start" x="8" y="-111" font-family="Helvetica,sans-Serif" font-size="10.00">DataBaseWebSocketService.Delete</text>
<text text-anchor="middle" x="86.5" y="-100" font-family="Helvetica,sans-Serif" font-size="10.00">Document</text>
</g>
<!-- Node4 -->
<g id="node2" class="node"><title>Node4</title>
<g id="a_node2"><a xlink:href="class_little_weeb_library_1_1_handlers_1_1_data_base_handler.html#a7821535a003c7675c09ba846bd9502ca" target="_top" xlink:title="LittleWeebLibrary.Handlers.\lDataBaseHandler.RemoveJObject">
<polygon fill="white" stroke="black" points="210.5,-186.5 210.5,-216.5 373.5,-216.5 373.5,-186.5 210.5,-186.5"/>
<text text-anchor="start" x="218.5" y="-204.5" font-family="Helvetica,sans-Serif" font-size="10.00">LittleWeebLibrary.Handlers.</text>
<text text-anchor="middle" x="292" y="-193.5" font-family="Helvetica,sans-Serif" font-size="10.00">DataBaseHandler.RemoveJObject</text>
</a>
</g>
</g>
<!-- Node3&#45;&gt;Node4 -->
<g id="edge1" class="edge"><title>Node3&#45;&gt;Node4</title>
<path fill="none" stroke="midnightblue" d="M128.117,-134.075C151.52,-145.629 181.636,-159.993 209,-171.5 218.223,-175.378 228.14,-179.251 237.781,-182.863"/>
<polygon fill="midnightblue" stroke="midnightblue" points="236.701,-186.195 247.294,-186.378 239.128,-179.629 236.701,-186.195"/>
</g>
<!-- Node5 -->
<g id="node3" class="node"><title>Node5</title>
<g id="a_node3"><a xlink:href="class_little_weeb_library_1_1_handlers_1_1_debug_handler.html#afccb37dfd6b2114af72000c2f4fe4607" target="_top" xlink:title="LittleWeebLibrary.Handlers.\lDebugHandler.TraceMessage">
<polygon fill="white" stroke="black" points="411,-142.5 411,-172.5 555,-172.5 555,-142.5 411,-142.5"/>
<text text-anchor="start" x="419" y="-160.5" font-family="Helvetica,sans-Serif" font-size="10.00">LittleWeebLibrary.Handlers.</text>
<text text-anchor="middle" x="483" y="-149.5" font-family="Helvetica,sans-Serif" font-size="10.00">DebugHandler.TraceMessage</text>
</a>
</g>
</g>
<!-- Node3&#45;&gt;Node5 -->
<g id="edge7" class="edge"><title>Node3&#45;&gt;Node5</title>
<path fill="none" stroke="midnightblue" d="M173.212,-132.621C185.188,-134.858 197.372,-136.906 209,-138.5 273.009,-147.273 346.047,-152.087 400.461,-154.672"/>
<polygon fill="midnightblue" stroke="midnightblue" points="400.592,-158.182 410.742,-155.145 400.914,-151.189 400.592,-158.182"/>
</g>
<!-- Node6 -->
<g id="node4" class="node"><title>Node6</title>
<g id="a_node4"><a xlink:href="class_little_weeb_library_1_1_handlers_1_1_web_socket_handler.html#a1de289d54d665a32c93478c68d3e6ad0" target="_top" xlink:title="LittleWeebLibrary.Handlers.\lWebSocketHandler.SendMessage">
<polygon fill="white" stroke="black" points="209,-98.5 209,-128.5 375,-128.5 375,-98.5 209,-98.5"/>
<text text-anchor="start" x="217" y="-116.5" font-family="Helvetica,sans-Serif" font-size="10.00">LittleWeebLibrary.Handlers.</text>
<text text-anchor="middle" x="292" y="-105.5" font-family="Helvetica,sans-Serif" font-size="10.00">WebSocketHandler.SendMessage</text>
</a>
</g>
</g>
<!-- Node3&#45;&gt;Node6 -->
<g id="edge3" class="edge"><title>Node3&#45;&gt;Node6</title>
<path fill="none" stroke="midnightblue" d="M173.213,-113.5C181.722,-113.5 190.386,-113.5 198.957,-113.5"/>
<polygon fill="midnightblue" stroke="midnightblue" points="198.961,-117 208.961,-113.5 198.961,-110 198.961,-117"/>
</g>
<!-- Node7 -->
<g id="node5" class="node"><title>Node7</title>
<g id="a_node5"><a xlink:href="class_little_weeb_library_1_1_models_1_1_json_success.html#a407103dc37a77aaf47a782296bab7518" target="_top" xlink:title="LittleWeebLibrary.Models.\lJsonSuccess.ToJson">
<polygon fill="white" stroke="black" points="227,-49.5 227,-79.5 357,-79.5 357,-49.5 227,-49.5"/>
<text text-anchor="start" x="235" y="-67.5" font-family="Helvetica,sans-Serif" font-size="10.00">LittleWeebLibrary.Models.</text>
<text text-anchor="middle" x="292" y="-56.5" font-family="Helvetica,sans-Serif" font-size="10.00">JsonSuccess.ToJson</text>
</a>
</g>
</g>
<!-- Node3&#45;&gt;Node7 -->
<g id="edge5" class="edge"><title>Node3&#45;&gt;Node7</title>
<path fill="none" stroke="midnightblue" d="M172.918,-92.9326C188.118,-89.2725 203.818,-85.4922 218.612,-81.93"/>
<polygon fill="midnightblue" stroke="midnightblue" points="219.79,-85.2466 228.692,-79.5028 218.151,-78.4411 219.79,-85.2466"/>
</g>
<!-- Node8 -->
<g id="node6" class="node"><title>Node8</title>
<g id="a_node6"><a xlink:href="class_little_weeb_library_1_1_models_1_1_json_error.html#a0e3e7dd2e2990404b7f0461742b23440" target="_top" xlink:title="LittleWeebLibrary.Models.\lJsonError.ToJson">
<polygon fill="white" stroke="black" points="227,-0.5 227,-30.5 357,-30.5 357,-0.5 227,-0.5"/>
<text text-anchor="start" x="235" y="-18.5" font-family="Helvetica,sans-Serif" font-size="10.00">LittleWeebLibrary.Models.</text>
<text text-anchor="middle" x="292" y="-7.5" font-family="Helvetica,sans-Serif" font-size="10.00">JsonError.ToJson</text>
</a>
</g>
</g>
<!-- Node3&#45;&gt;Node8 -->
<g id="edge6" class="edge"><title>Node3&#45;&gt;Node8</title>
<path fill="none" stroke="midnightblue" d="M117.337,-92.7353C141.27,-76.7906 176.172,-55.1 209,-40.5 214.1,-38.232 219.465,-36.092 224.908,-34.0912"/>
<polygon fill="midnightblue" stroke="midnightblue" points="226.47,-37.2525 234.75,-30.6425 224.155,-30.6463 226.47,-37.2525"/>
</g>
<!-- Node4&#45;&gt;Node5 -->
<g id="edge2" class="edge"><title>Node4&#45;&gt;Node5</title>
<path fill="none" stroke="midnightblue" d="M357.514,-186.481C373.543,-182.749 390.856,-178.719 407.328,-174.884"/>
<polygon fill="midnightblue" stroke="midnightblue" points="408.51,-178.203 417.456,-172.526 406.922,-171.385 408.51,-178.203"/>
</g>
<!-- Node6&#45;&gt;Node5 -->
<g id="edge4" class="edge"><title>Node6&#45;&gt;Node5</title>
<path fill="none" stroke="midnightblue" d="M357.514,-128.519C373.543,-132.251 390.856,-136.281 407.328,-140.116"/>
<polygon fill="midnightblue" stroke="midnightblue" points="406.922,-143.615 417.456,-142.474 408.51,-136.797 406.922,-143.615"/>
</g>
</g>
</svg>
