<?xml version="1.0" encoding="UTF-8" standalone="no"?>
<!DOCTYPE svg PUBLIC "-//W3C//DTD SVG 1.1//EN"
 "http://www.w3.org/Graphics/SVG/1.1/DTD/svg11.dtd">
<!-- Generated by graphviz version 2.38.0 (20140413.2041)
 -->
<!-- Title: LittleWeebLibrary.Handlers.IrcClientHandler.OnDownloadUpdate Pages: 1 -->
<svg width="394pt" height="88pt"
 viewBox="0.00 0.00 394.00 88.00" xmlns="http://www.w3.org/2000/svg" xmlns:xlink="http://www.w3.org/1999/xlink">
<g id="graph0" class="graph" transform="scale(1 1) rotate(0) translate(4 84)">
<title>LittleWeebLibrary.Handlers.IrcClientHandler.OnDownloadUpdate</title>
<polygon fill="white" stroke="none" points="-4,4 -4,-84 390,-84 390,4 -4,4"/>
<!-- Node70 -->
<g id="node1" class="node"><title>Node70</title>
<polygon fill="#bfbfbf" stroke="black" points="0,-24.5 0,-54.5 173,-54.5 173,-24.5 0,-24.5"/>
<text text-anchor="start" x="8" y="-42.5" font-family="Helvetica,sans-Serif" font-size="10.00">LittleWeebLibrary.Handlers.</text>
<text text-anchor="middle" x="86.5" y="-31.5" font-family="Helvetica,sans-Serif" font-size="10.00">IrcClientHandler.OnDownloadUpdate</text>
</g>
<!-- Node71 -->
<g id="node2" class="node"><title>Node71</title>
<g id="a_node2"><a xlink:href="class_little_weeb_library_1_1_event_arguments_1_1_irc_client_download_event_args.html#a08055fe777a1585dafab7fbeec58b891" target="_top" xlink:title="LittleWeebLibrary.EventArguments.\lIrcClientDownloadEventArgs.ToString">
<polygon fill="white" stroke="black" points="209,-49.5 209,-79.5 386,-79.5 386,-49.5 209,-49.5"/>
<text text-anchor="start" x="217" y="-67.5" font-family="Helvetica,sans-Serif" font-size="10.00">LittleWeebLibrary.EventArguments.</text>
<text text-anchor="middle" x="297.5" y="-56.5" font-family="Helvetica,sans-Serif" font-size="10.00">IrcClientDownloadEventArgs.ToString</text>
</a>
</g>
</g>
<!-- Node70&#45;&gt;Node71 -->
<g id="edge1" class="edge"><title>Node70&#45;&gt;Node71</title>
<path fill="none" stroke="midnightblue" d="M173.111,-49.7406C181.619,-50.7583 190.299,-51.7966 198.917,-52.8274"/>
<polygon fill="midnightblue" stroke="midnightblue" points="198.645,-56.3197 208.99,-54.0323 199.476,-49.3693 198.645,-56.3197"/>
</g>
<!-- Node72 -->
<g id="node3" class="node"><title>Node72</title>
<g id="a_node3"><a xlink:href="class_little_weeb_library_1_1_handlers_1_1_debug_handler.html#afccb37dfd6b2114af72000c2f4fe4607" target="_top" xlink:title="LittleWeebLibrary.Handlers.\lDebugHandler.TraceMessage">
<polygon fill="white" stroke="black" points="225.5,-0.5 225.5,-30.5 369.5,-30.5 369.5,-0.5 225.5,-0.5"/>
<text text-anchor="start" x="233.5" y="-18.5" font-family="Helvetica,sans-Serif" font-size="10.00">LittleWeebLibrary.Handlers.</text>
<text text-anchor="middle" x="297.5" y="-7.5" font-family="Helvetica,sans-Serif" font-size="10.00">DebugHandler.TraceMessage</text>
</a>
</g>
</g>
<!-- Node70&#45;&gt;Node72 -->
<g id="edge2" class="edge"><title>Node70&#45;&gt;Node72</title>
<path fill="none" stroke="midnightblue" d="M173.111,-29.669C187.081,-28.0648 201.517,-26.4072 215.374,-24.8159"/>
<polygon fill="midnightblue" stroke="midnightblue" points="215.813,-28.2886 225.348,-23.6706 215.014,-21.3343 215.813,-28.2886"/>
</g>
</g>
</svg>
