<?xml version="1.0" encoding="UTF-8" standalone="no"?>
<!DOCTYPE svg PUBLIC "-//W3C//DTD SVG 1.1//EN"
 "http://www.w3.org/Graphics/SVG/1.1/DTD/svg11.dtd">
<!-- Generated by graphviz version 2.38.0 (20140413.2041)
 -->
<!-- Title: LittleWeebLibrary.Models.JsonDownloadedList.ToJObject Pages: 1 -->
<svg width="599pt" height="50pt"
 viewBox="0.00 0.00 599.00 50.00" xmlns="http://www.w3.org/2000/svg" xmlns:xlink="http://www.w3.org/1999/xlink">
<g id="graph0" class="graph" transform="scale(1 1) rotate(0) translate(4 46)">
<title>LittleWeebLibrary.Models.JsonDownloadedList.ToJObject</title>
<polygon fill="white" stroke="none" points="-4,4 -4,-46 595,-46 595,4 -4,4"/>
<!-- Node5 -->
<g id="node1" class="node"><title>Node5</title>
<polygon fill="#bfbfbf" stroke="black" points="0,-6 0,-36 152,-36 152,-6 0,-6"/>
<text text-anchor="start" x="8" y="-24" font-family="Helvetica,sans-Serif" font-size="10.00">LittleWeebLibrary.Models.</text>
<text text-anchor="middle" x="76" y="-13" font-family="Helvetica,sans-Serif" font-size="10.00">JsonDownloadedList.ToJObject</text>
</g>
<!-- Node6 -->
<g id="node2" class="node"><title>Node6</title>
<g id="a_node2"><a xlink:href="class_little_weeb_library_1_1_handlers_1_1_file_history_handler.html#a615bf14eae35f656b211f0500abe4d29" target="_top" xlink:title="LittleWeebLibrary.Handlers.\lFileHistoryHandler.AddFileToFile\lHistory">
<polygon fill="white" stroke="black" points="188,-0.5 188,-41.5 346,-41.5 346,-0.5 188,-0.5"/>
<text text-anchor="start" x="196" y="-29.5" font-family="Helvetica,sans-Serif" font-size="10.00">LittleWeebLibrary.Handlers.</text>
<text text-anchor="start" x="196" y="-18.5" font-family="Helvetica,sans-Serif" font-size="10.00">FileHistoryHandler.AddFileToFile</text>
<text text-anchor="middle" x="267" y="-7.5" font-family="Helvetica,sans-Serif" font-size="10.00">History</text>
</a>
</g>
</g>
<!-- Node5&#45;&gt;Node6 -->
<g id="edge1" class="edge"><title>Node5&#45;&gt;Node6</title>
<path fill="none" stroke="midnightblue" d="M162.503,-21C170.97,-21 179.535,-21 187.922,-21"/>
<polygon fill="midnightblue" stroke="midnightblue" points="162.241,-17.5001 152.241,-21 162.241,-24.5001 162.241,-17.5001"/>
</g>
<!-- Node7 -->
<g id="node3" class="node"><title>Node7</title>
<g id="a_node3"><a xlink:href="class_little_weeb_library_1_1_handlers_1_1_download_handler.html#a8e40df55d254c0b95bb0a72becde5039" target="_top" xlink:title="LittleWeebLibrary.Handlers.\lDownloadHandler.OnIrcClientDownloadEvent">
<polygon fill="white" stroke="black" points="382,-6 382,-36 591,-36 591,-6 382,-6"/>
<text text-anchor="start" x="390" y="-24" font-family="Helvetica,sans-Serif" font-size="10.00">LittleWeebLibrary.Handlers.</text>
<text text-anchor="middle" x="486.5" y="-13" font-family="Helvetica,sans-Serif" font-size="10.00">DownloadHandler.OnIrcClientDownloadEvent</text>
</a>
</g>
</g>
<!-- Node6&#45;&gt;Node7 -->
<g id="edge2" class="edge"><title>Node6&#45;&gt;Node7</title>
<path fill="none" stroke="midnightblue" d="M356.36,-21C364.757,-21 373.322,-21 381.845,-21"/>
<polygon fill="midnightblue" stroke="midnightblue" points="356.215,-17.5001 346.215,-21 356.215,-24.5001 356.215,-17.5001"/>
</g>
</g>
</svg>
