<?xml version="1.0" encoding="UTF-8" standalone="no"?>
<!DOCTYPE svg PUBLIC "-//W3C//DTD SVG 1.1//EN"
 "http://www.w3.org/Graphics/SVG/1.1/DTD/svg11.dtd">
<!-- Generated by graphviz version 2.38.0 (20140413.2041)
 -->
<!-- Title: LittleWeebLibrary.Handlers.DataBaseHandler Pages: 1 -->
<svg width="262pt" height="347pt"
 viewBox="0.00 0.00 262.00 347.00" xmlns="http://www.w3.org/2000/svg" xmlns:xlink="http://www.w3.org/1999/xlink">
<g id="graph0" class="graph" transform="scale(1 1) rotate(0) translate(4 343)">
<title>LittleWeebLibrary.Handlers.DataBaseHandler</title>
<polygon fill="white" stroke="none" points="-4,4 -4,-343 258,-343 258,4 -4,4"/>
<!-- Node2 -->
<g id="node1" class="node"><title>Node2</title>
<polygon fill="#bfbfbf" stroke="black" points="49,-0.5 49,-156.5 186,-156.5 186,-0.5 49,-0.5"/>
<text text-anchor="start" x="57" y="-144.5" font-family="Helvetica,sans-Serif" font-size="10.00">LittleWeebLibrary.Handlers.</text>
<text text-anchor="middle" x="117.5" y="-133.5" font-family="Helvetica,sans-Serif" font-size="10.00">DataBaseHandler</text>
<polyline fill="none" stroke="black" points="49,-126.5 186,-126.5 "/>
<text text-anchor="start" x="57" y="-114.5" font-family="Helvetica,sans-Serif" font-size="10.00">&#45; DataBasePath</text>
<polyline fill="none" stroke="black" points="49,-107.5 186,-107.5 "/>
<text text-anchor="start" x="57" y="-95.5" font-family="Helvetica,sans-Serif" font-size="10.00">+ DataBaseHandler()</text>
<text text-anchor="start" x="57" y="-84.5" font-family="Helvetica,sans-Serif" font-size="10.00">+ GetCollection()</text>
<text text-anchor="start" x="57" y="-73.5" font-family="Helvetica,sans-Serif" font-size="10.00">+ GetJObject()</text>
<text text-anchor="start" x="57" y="-62.5" font-family="Helvetica,sans-Serif" font-size="10.00">+ GetJObject()</text>
<text text-anchor="start" x="57" y="-51.5" font-family="Helvetica,sans-Serif" font-size="10.00">+ RemoveJObject()</text>
<text text-anchor="start" x="57" y="-40.5" font-family="Helvetica,sans-Serif" font-size="10.00">+ RemoveJObject()</text>
<text text-anchor="start" x="57" y="-29.5" font-family="Helvetica,sans-Serif" font-size="10.00">+ StoreJObject()</text>
<text text-anchor="start" x="57" y="-18.5" font-family="Helvetica,sans-Serif" font-size="10.00">+ UpdateJObject()</text>
<text text-anchor="start" x="57" y="-7.5" font-family="Helvetica,sans-Serif" font-size="10.00">+ UpdateJObject()</text>
</g>
<!-- Node3 -->
<g id="node2" class="node"><title>Node3</title>
<g id="a_node2"><a xlink:href="interface_little_weeb_library_1_1_handlers_1_1_i_data_base_handler.html" target="_top" xlink:title="{IDataBaseHandler\n||+ GetCollection()\l+ GetJObject()\l+ GetJObject()\l+ RemoveJObject()\l+ RemoveJObject()\l+ StoreJObject()\l+ UpdateJObject()\l+ UpdateJObject()\l}">
<polygon fill="white" stroke="black" points="0,-204.5 0,-338.5 99,-338.5 99,-204.5 0,-204.5"/>
<text text-anchor="middle" x="49.5" y="-326.5" font-family="Helvetica,sans-Serif" font-size="10.00">IDataBaseHandler</text>
<polyline fill="none" stroke="black" points="0,-319.5 99,-319.5 "/>
<text text-anchor="middle" x="49.5" y="-307.5" font-family="Helvetica,sans-Serif" font-size="10.00"> </text>
<polyline fill="none" stroke="black" points="0,-300.5 99,-300.5 "/>
<text text-anchor="start" x="8" y="-288.5" font-family="Helvetica,sans-Serif" font-size="10.00">+ GetCollection()</text>
<text text-anchor="start" x="8" y="-277.5" font-family="Helvetica,sans-Serif" font-size="10.00">+ GetJObject()</text>
<text text-anchor="start" x="8" y="-266.5" font-family="Helvetica,sans-Serif" font-size="10.00">+ GetJObject()</text>
<text text-anchor="start" x="8" y="-255.5" font-family="Helvetica,sans-Serif" font-size="10.00">+ RemoveJObject()</text>
<text text-anchor="start" x="8" y="-244.5" font-family="Helvetica,sans-Serif" font-size="10.00">+ RemoveJObject()</text>
<text text-anchor="start" x="8" y="-233.5" font-family="Helvetica,sans-Serif" font-size="10.00">+ StoreJObject()</text>
<text text-anchor="start" x="8" y="-222.5" font-family="Helvetica,sans-Serif" font-size="10.00">+ UpdateJObject()</text>
<text text-anchor="start" x="8" y="-211.5" font-family="Helvetica,sans-Serif" font-size="10.00">+ UpdateJObject()</text>
</a>
</g>
</g>
<!-- Node3&#45;&gt;Node2 -->
<g id="edge1" class="edge"><title>Node3&#45;&gt;Node2</title>
<path fill="none" stroke="midnightblue" d="M76.455,-194.788C80.9024,-182.296 85.5179,-169.332 89.9789,-156.802"/>
<polygon fill="none" stroke="midnightblue" points="73.149,-193.639 73.0923,-204.234 79.7436,-195.987 73.149,-193.639"/>
</g>
<!-- Node4 -->
<g id="node3" class="node"><title>Node4</title>
<g id="a_node3"><a xlink:href="interface_little_weeb_library_1_1_handlers_1_1_i_debug_handler.html" target="_top" xlink:title="{LittleWeebLibrary.Handlers.\lIDebugHandler\n||+ SetSettings()\l+ StopDebugger()\l+ TraceMessage()\l}">
<polygon fill="white" stroke="black" points="117,-226.5 117,-316.5 254,-316.5 254,-226.5 117,-226.5"/>
<text text-anchor="start" x="125" y="-304.5" font-family="Helvetica,sans-Serif" font-size="10.00">LittleWeebLibrary.Handlers.</text>
<text text-anchor="middle" x="185.5" y="-293.5" font-family="Helvetica,sans-Serif" font-size="10.00">IDebugHandler</text>
<polyline fill="none" stroke="black" points="117,-286.5 254,-286.5 "/>
<text text-anchor="middle" x="185.5" y="-274.5" font-family="Helvetica,sans-Serif" font-size="10.00"> </text>
<polyline fill="none" stroke="black" points="117,-267.5 254,-267.5 "/>
<text text-anchor="start" x="125" y="-255.5" font-family="Helvetica,sans-Serif" font-size="10.00">+ SetSettings()</text>
<text text-anchor="start" x="125" y="-244.5" font-family="Helvetica,sans-Serif" font-size="10.00">+ StopDebugger()</text>
<text text-anchor="start" x="125" y="-233.5" font-family="Helvetica,sans-Serif" font-size="10.00">+ TraceMessage()</text>
</a>
</g>
</g>
<!-- Node4&#45;&gt;Node2 -->
<g id="edge2" class="edge"><title>Node4&#45;&gt;Node2</title>
<path fill="none" stroke="#404040" d="M169.729,-226.201C163.567,-208.893 156.271,-188.401 149.117,-168.305"/>
<polygon fill="none" stroke="#404040" points="149.073,-168.182 143.292,-163.871 145.048,-156.877 150.829,-161.188 149.073,-168.182"/>
<text text-anchor="middle" x="187" y="-178" font-family="Helvetica,sans-Serif" font-size="10.00"> &#45;DebugHandler</text>
</g>
</g>
</svg>
