<?xml version="1.0" encoding="UTF-8" standalone="no"?>
<!DOCTYPE svg PUBLIC "-//W3C//DTD SVG 1.1//EN"
 "http://www.w3.org/Graphics/SVG/1.1/DTD/svg11.dtd">
<!-- Generated by graphviz version 2.38.0 (20140413.2041)
 -->
<!-- Title: LittleWeebLibrary.Controllers.BaseWebSocketController Pages: 1 -->
<svg width="453pt" height="237pt"
 viewBox="0.00 0.00 452.50 237.00" xmlns="http://www.w3.org/2000/svg" xmlns:xlink="http://www.w3.org/1999/xlink">
<g id="graph0" class="graph" transform="scale(1 1) rotate(0) translate(4 233)">
<title>LittleWeebLibrary.Controllers.BaseWebSocketController</title>
<polygon fill="white" stroke="none" points="-4,4 -4,-233 448.5,-233 448.5,4 -4,4"/>
<!-- Node2 -->
<g id="node1" class="node"><title>Node2</title>
<polygon fill="#bfbfbf" stroke="black" points="148,-0.5 148,-90.5 294,-90.5 294,-0.5 148,-0.5"/>
<text text-anchor="start" x="156" y="-78.5" font-family="Helvetica,sans-Serif" font-size="10.00">LittleWeebLibrary.Controllers.</text>
<text text-anchor="middle" x="221" y="-67.5" font-family="Helvetica,sans-Serif" font-size="10.00">BaseWebSocketController</text>
<polyline fill="none" stroke="black" points="148,-60.5 294,-60.5 "/>
<text text-anchor="start" x="156" y="-48.5" font-family="Helvetica,sans-Serif" font-size="10.00">&#45; SubControllers</text>
<polyline fill="none" stroke="black" points="148,-41.5 294,-41.5 "/>
<text text-anchor="start" x="156" y="-29.5" font-family="Helvetica,sans-Serif" font-size="10.00">+ BaseWebSocketController()</text>
<text text-anchor="start" x="156" y="-18.5" font-family="Helvetica,sans-Serif" font-size="10.00">+ SetSubControllers()</text>
<text text-anchor="start" x="156" y="-7.5" font-family="Helvetica,sans-Serif" font-size="10.00">&#45; OnWebSocketEvent()</text>
</g>
<!-- Node3 -->
<g id="node2" class="node"><title>Node3</title>
<g id="a_node2"><a xlink:href="interface_little_weeb_library_1_1_controllers_1_1_i_base_web_socket_controller.html" target="_top" xlink:title="{IBaseWebSocketController\n||+ SetSubControllers()\l}">
<polygon fill="white" stroke="black" points="0,-155 0,-212 134,-212 134,-155 0,-155"/>
<text text-anchor="middle" x="67" y="-200" font-family="Helvetica,sans-Serif" font-size="10.00">IBaseWebSocketController</text>
<polyline fill="none" stroke="black" points="0,-193 134,-193 "/>
<text text-anchor="middle" x="67" y="-181" font-family="Helvetica,sans-Serif" font-size="10.00"> </text>
<polyline fill="none" stroke="black" points="0,-174 134,-174 "/>
<text text-anchor="start" x="8" y="-162" font-family="Helvetica,sans-Serif" font-size="10.00">+ SetSubControllers()</text>
</a>
</g>
</g>
<!-- Node3&#45;&gt;Node2 -->
<g id="edge1" class="edge"><title>Node3&#45;&gt;Node2</title>
<path fill="none" stroke="midnightblue" d="M105.792,-148.242C125.592,-130.756 149.906,-109.284 171.087,-90.579"/>
<polygon fill="none" stroke="midnightblue" points="103.343,-145.735 98.1642,-154.978 107.977,-150.982 103.343,-145.735"/>
</g>
<!-- Node4 -->
<g id="node3" class="node"><title>Node4</title>
<g id="a_node3"><a xlink:href="interface_little_weeb_library_1_1_handlers_1_1_i_debug_handler.html" target="_top" xlink:title="{LittleWeebLibrary.Handlers.\lIDebugHandler\n||+ SetSettings()\l+ StopDebugger()\l+ TraceMessage()\l}">
<polygon fill="white" stroke="black" points="152.5,-138.5 152.5,-228.5 289.5,-228.5 289.5,-138.5 152.5,-138.5"/>
<text text-anchor="start" x="160.5" y="-216.5" font-family="Helvetica,sans-Serif" font-size="10.00">LittleWeebLibrary.Handlers.</text>
<text text-anchor="middle" x="221" y="-205.5" font-family="Helvetica,sans-Serif" font-size="10.00">IDebugHandler</text>
<polyline fill="none" stroke="black" points="152.5,-198.5 289.5,-198.5 "/>
<text text-anchor="middle" x="221" y="-186.5" font-family="Helvetica,sans-Serif" font-size="10.00"> </text>
<polyline fill="none" stroke="black" points="152.5,-179.5 289.5,-179.5 "/>
<text text-anchor="start" x="160.5" y="-167.5" font-family="Helvetica,sans-Serif" font-size="10.00">+ SetSettings()</text>
<text text-anchor="start" x="160.5" y="-156.5" font-family="Helvetica,sans-Serif" font-size="10.00">+ StopDebugger()</text>
<text text-anchor="start" x="160.5" y="-145.5" font-family="Helvetica,sans-Serif" font-size="10.00">+ TraceMessage()</text>
</a>
</g>
</g>
<!-- Node4&#45;&gt;Node2 -->
<g id="edge2" class="edge"><title>Node4&#45;&gt;Node2</title>
<path fill="none" stroke="#404040" d="M221,-138.345C221,-127.062 221,-114.777 221,-102.969"/>
<polygon fill="none" stroke="#404040" points="221,-102.899 217,-96.8992 221,-90.8992 225,-96.8991 221,-102.899"/>
<text text-anchor="middle" x="254.5" y="-112" font-family="Helvetica,sans-Serif" font-size="10.00"> &#45;DebugHandler</text>
</g>
<!-- Node5 -->
<g id="node4" class="node"><title>Node5</title>
<g id="a_node4"><a xlink:href="interface_little_weeb_library_1_1_handlers_1_1_i_web_socket_handler.html" target="_top" xlink:title="{LittleWeebLibrary.Handlers.\lIWebSocketHandler\n||+ SendMessage()\l+ StartServer()\l+ StopServer()\l}">
<polygon fill="white" stroke="black" points="307.5,-138.5 307.5,-228.5 444.5,-228.5 444.5,-138.5 307.5,-138.5"/>
<text text-anchor="start" x="315.5" y="-216.5" font-family="Helvetica,sans-Serif" font-size="10.00">LittleWeebLibrary.Handlers.</text>
<text text-anchor="middle" x="376" y="-205.5" font-family="Helvetica,sans-Serif" font-size="10.00">IWebSocketHandler</text>
<polyline fill="none" stroke="black" points="307.5,-198.5 444.5,-198.5 "/>
<text text-anchor="middle" x="376" y="-186.5" font-family="Helvetica,sans-Serif" font-size="10.00"> </text>
<polyline fill="none" stroke="black" points="307.5,-179.5 444.5,-179.5 "/>
<text text-anchor="start" x="315.5" y="-167.5" font-family="Helvetica,sans-Serif" font-size="10.00">+ SendMessage()</text>
<text text-anchor="start" x="315.5" y="-156.5" font-family="Helvetica,sans-Serif" font-size="10.00">+ StartServer()</text>
<text text-anchor="start" x="315.5" y="-145.5" font-family="Helvetica,sans-Serif" font-size="10.00">+ StopServer()</text>
</a>
</g>
</g>
<!-- Node5&#45;&gt;Node2 -->
<g id="edge3" class="edge"><title>Node5&#45;&gt;Node2</title>
<path fill="none" stroke="#404040" d="M325.676,-138.345C311.255,-125.691 295.396,-111.777 280.481,-98.6895"/>
<polygon fill="none" stroke="#404040" points="280.357,-98.5808 273.209,-97.6302 271.337,-90.6663 278.485,-91.6168 280.357,-98.5808"/>
<text text-anchor="middle" x="349.5" y="-112" font-family="Helvetica,sans-Serif" font-size="10.00"> &#45;WebSocketHandler</text>
</g>
</g>
</svg>
