<?xml version="1.0" encoding="UTF-8" standalone="no"?>
<!DOCTYPE svg PUBLIC "-//W3C//DTD SVG 1.1//EN"
 "http://www.w3.org/Graphics/SVG/1.1/DTD/svg11.dtd">
<!-- Generated by graphviz version 2.38.0 (20140413.2041)
 -->
<!-- Title: LittleWeebLibrary.Properties.Resources Pages: 1 -->
<svg width="232pt" height="204pt"
 viewBox="0.00 0.00 232.00 204.00" xmlns="http://www.w3.org/2000/svg" xmlns:xlink="http://www.w3.org/1999/xlink">
<g id="graph0" class="graph" transform="scale(1 1) rotate(0) translate(4 200)">
<title>LittleWeebLibrary.Properties.Resources</title>
<polygon fill="white" stroke="none" points="-4,4 -4,-200 228,-200 228,4 -4,4"/>
<!-- Node1 -->
<g id="node1" class="node"><title>Node1</title>
<polygon fill="#bfbfbf" stroke="black" points="0,-0.5 0,-90.5 143,-90.5 143,-0.5 0,-0.5"/>
<text text-anchor="start" x="8" y="-78.5" font-family="Helvetica,sans-Serif" font-size="10.00">LittleWeebLibrary.Properties.</text>
<text text-anchor="middle" x="71.5" y="-67.5" font-family="Helvetica,sans-Serif" font-size="10.00">Resources</text>
<polyline fill="none" stroke="black" points="0,-60.5 143,-60.5 "/>
<text text-anchor="start" x="8" y="-48.5" font-family="Helvetica,sans-Serif" font-size="10.00">+ Culture</text>
<text text-anchor="start" x="8" y="-37.5" font-family="Helvetica,sans-Serif" font-size="10.00">+ ResourceManager</text>
<text text-anchor="start" x="8" y="-26.5" font-family="Helvetica,sans-Serif" font-size="10.00">+ Version</text>
<polyline fill="none" stroke="black" points="0,-19.5 143,-19.5 "/>
<text text-anchor="start" x="8" y="-7.5" font-family="Helvetica,sans-Serif" font-size="10.00">~ Resources()</text>
</g>
<!-- Node1&#45;&gt;Node1 -->
<g id="edge1" class="edge"><title>Node1&#45;&gt;Node1</title>
<path fill="none" stroke="#404040" d="M143.126,-57.0664C153.788,-55.2656 161,-51.4102 161,-45.5 161,-42.1755 158.718,-39.5012 154.824,-37.477"/>
<polygon fill="none" stroke="#404040" points="154.611,-37.4124 147.709,-39.5013 143.126,-33.9336 150.028,-31.8448 154.611,-37.4124"/>
<text text-anchor="middle" x="192.5" y="-43" font-family="Helvetica,sans-Serif" font-size="10.00"> &#45;resourceMan</text>
</g>
<!-- Node2 -->
<g id="node2" class="node"><title>Node2</title>
<polygon fill="white" stroke="#bfbfbf" points="35,-138.5 35,-195.5 108,-195.5 108,-138.5 35,-138.5"/>
<text text-anchor="middle" x="71.5" y="-183.5" font-family="Helvetica,sans-Serif" font-size="10.00">Globalization</text>
<polyline fill="none" stroke="#bfbfbf" points="35,-176.5 108,-176.5 "/>
<text text-anchor="middle" x="71.5" y="-164.5" font-family="Helvetica,sans-Serif" font-size="10.00"> </text>
<polyline fill="none" stroke="#bfbfbf" points="35,-157.5 108,-157.5 "/>
<text text-anchor="middle" x="71.5" y="-145.5" font-family="Helvetica,sans-Serif" font-size="10.00"> </text>
</g>
<!-- Node2&#45;&gt;Node1 -->
<g id="edge2" class="edge"><title>Node2&#45;&gt;Node1</title>
<path fill="none" stroke="#404040" d="M71.5,-138.284C71.5,-127.735 71.5,-115.294 71.5,-103.035"/>
<polygon fill="none" stroke="#404040" points="71.5001,-102.912 67.5,-96.9125 71.5,-90.9125 75.5,-96.9124 71.5001,-102.912"/>
<text text-anchor="middle" x="109" y="-112" font-family="Helvetica,sans-Serif" font-size="10.00"> &#45;resourceCulture</text>
</g>
</g>
</svg>
