<?xml version="1.0" encoding="UTF-8" standalone="no"?>
<!DOCTYPE svg PUBLIC "-//W3C//DTD SVG 1.1//EN"
 "http://www.w3.org/Graphics/SVG/1.1/DTD/svg11.dtd">
<!-- Generated by graphviz version 2.38.0 (20140413.2041)
 -->
<!-- Title: LittleWeebLibrary.Handlers.AnimeProfileHandler.AnimeLatestEpisode Pages: 1 -->
<svg width="533pt" height="176pt"
 viewBox="0.00 0.00 533.00 176.00" xmlns="http://www.w3.org/2000/svg" xmlns:xlink="http://www.w3.org/1999/xlink">
<g id="graph0" class="graph" transform="scale(1 1) rotate(0) translate(4 172)">
<title>LittleWeebLibrary.Handlers.AnimeProfileHandler.AnimeLatestEpisode</title>
<polygon fill="white" stroke="none" points="-4,4 -4,-172 529,-172 529,4 -4,4"/>
<!-- Node65 -->
<g id="node1" class="node"><title>Node65</title>
<polygon fill="#bfbfbf" stroke="black" points="0,-61 0,-102 162,-102 162,-61 0,-61"/>
<text text-anchor="start" x="8" y="-90" font-family="Helvetica,sans-Serif" font-size="10.00">LittleWeebLibrary.Handlers.</text>
<text text-anchor="start" x="8" y="-79" font-family="Helvetica,sans-Serif" font-size="10.00">AnimeProfileHandler.AnimeLatest</text>
<text text-anchor="middle" x="81" y="-68" font-family="Helvetica,sans-Serif" font-size="10.00">Episode</text>
</g>
<!-- Node66 -->
<g id="node2" class="node"><title>Node66</title>
<g id="a_node2"><a xlink:href="class_little_weeb_library_1_1_handlers_1_1_kitsu_handler.html#a3129d77267b0fb879e3f8f1a8e83494a" target="_top" xlink:title="LittleWeebLibrary.Handlers.\lKitsuHandler.GetEpisode">
<polygon fill="white" stroke="black" points="203,-137.5 203,-167.5 340,-167.5 340,-137.5 203,-137.5"/>
<text text-anchor="start" x="211" y="-155.5" font-family="Helvetica,sans-Serif" font-size="10.00">LittleWeebLibrary.Handlers.</text>
<text text-anchor="middle" x="271.5" y="-144.5" font-family="Helvetica,sans-Serif" font-size="10.00">KitsuHandler.GetEpisode</text>
</a>
</g>
</g>
<!-- Node65&#45;&gt;Node66 -->
<g id="edge1" class="edge"><title>Node65&#45;&gt;Node66</title>
<path fill="none" stroke="midnightblue" d="M130.83,-102.109C151.441,-110.593 175.77,-120.327 198,-128.5 203.133,-130.387 208.495,-132.289 213.877,-134.153"/>
<polygon fill="midnightblue" stroke="midnightblue" points="212.95,-137.534 223.544,-137.453 215.211,-130.91 212.95,-137.534"/>
</g>
<!-- Node67 -->
<g id="node3" class="node"><title>Node67</title>
<g id="a_node3"><a xlink:href="class_little_weeb_library_1_1_handlers_1_1_nibl_handler.html#a149bf3305de6348eaddee4afb92d5095" target="_top" xlink:title="LittleWeebLibrary.Handlers.\lNiblHandler.GetLatestEpisode">
<polygon fill="white" stroke="black" points="198,-88.5 198,-118.5 345,-118.5 345,-88.5 198,-88.5"/>
<text text-anchor="start" x="206" y="-106.5" font-family="Helvetica,sans-Serif" font-size="10.00">LittleWeebLibrary.Handlers.</text>
<text text-anchor="middle" x="271.5" y="-95.5" font-family="Helvetica,sans-Serif" font-size="10.00">NiblHandler.GetLatestEpisode</text>
</a>
</g>
</g>
<!-- Node65&#45;&gt;Node67 -->
<g id="edge2" class="edge"><title>Node65&#45;&gt;Node67</title>
<path fill="none" stroke="midnightblue" d="M162.214,-90.8619C170.621,-91.843 179.179,-92.8419 187.615,-93.8264"/>
<polygon fill="midnightblue" stroke="midnightblue" points="187.486,-97.335 197.824,-95.018 188.297,-90.3822 187.486,-97.335"/>
</g>
<!-- Node68 -->
<g id="node4" class="node"><title>Node68</title>
<g id="a_node4"><a xlink:href="class_little_weeb_library_1_1_handlers_1_1_debug_handler.html#afccb37dfd6b2114af72000c2f4fe4607" target="_top" xlink:title="LittleWeebLibrary.Handlers.\lDebugHandler.TraceMessage">
<polygon fill="white" stroke="black" points="381,-44.5 381,-74.5 525,-74.5 525,-44.5 381,-44.5"/>
<text text-anchor="start" x="389" y="-62.5" font-family="Helvetica,sans-Serif" font-size="10.00">LittleWeebLibrary.Handlers.</text>
<text text-anchor="middle" x="453" y="-51.5" font-family="Helvetica,sans-Serif" font-size="10.00">DebugHandler.TraceMessage</text>
</a>
</g>
</g>
<!-- Node65&#45;&gt;Node68 -->
<g id="edge6" class="edge"><title>Node65&#45;&gt;Node68</title>
<path fill="none" stroke="midnightblue" d="M162.284,-76.7263C223.992,-73.0572 308.877,-68.01 370.81,-64.3275"/>
<polygon fill="midnightblue" stroke="midnightblue" points="371.158,-67.8131 380.932,-63.7256 370.742,-60.8255 371.158,-67.8131"/>
</g>
<!-- Node69 -->
<g id="node5" class="node"><title>Node69</title>
<g id="a_node5"><a xlink:href="class_little_weeb_library_1_1_handlers_1_1_nibl_handler.html#aa5fcae94d3322123b784078727a3db67" target="_top" xlink:title="LittleWeebLibrary.Handlers.\lNiblHandler.SearchNibl">
<polygon fill="white" stroke="black" points="203,-0.5 203,-30.5 340,-30.5 340,-0.5 203,-0.5"/>
<text text-anchor="start" x="211" y="-18.5" font-family="Helvetica,sans-Serif" font-size="10.00">LittleWeebLibrary.Handlers.</text>
<text text-anchor="middle" x="271.5" y="-7.5" font-family="Helvetica,sans-Serif" font-size="10.00">NiblHandler.SearchNibl</text>
</a>
</g>
</g>
<!-- Node65&#45;&gt;Node69 -->
<g id="edge4" class="edge"><title>Node65&#45;&gt;Node69</title>
<path fill="none" stroke="midnightblue" d="M140.609,-60.979C165.306,-52.3318 193.832,-42.3439 217.849,-33.9347"/>
<polygon fill="midnightblue" stroke="midnightblue" points="219.216,-37.1645 227.498,-30.5564 216.903,-30.5577 219.216,-37.1645"/>
</g>
<!-- Node67&#45;&gt;Node68 -->
<g id="edge3" class="edge"><title>Node67&#45;&gt;Node68</title>
<path fill="none" stroke="midnightblue" d="M333.772,-88.4808C348.851,-84.7844 365.127,-80.7947 380.638,-76.9926"/>
<polygon fill="midnightblue" stroke="midnightblue" points="381.821,-80.3064 390.7,-74.5262 380.154,-73.5077 381.821,-80.3064"/>
</g>
<!-- Node69&#45;&gt;Node68 -->
<g id="edge5" class="edge"><title>Node69&#45;&gt;Node68</title>
<path fill="none" stroke="midnightblue" d="M333.772,-30.5192C348.851,-34.2156 365.127,-38.2053 380.638,-42.0074"/>
<polygon fill="midnightblue" stroke="midnightblue" points="380.154,-45.4923 390.7,-44.4738 381.821,-38.6936 380.154,-45.4923"/>
</g>
</g>
</svg>
