<?xml version="1.0" encoding="UTF-8" standalone="no"?>
<!DOCTYPE svg PUBLIC "-//W3C//DTD SVG 1.1//EN"
 "http://www.w3.org/Graphics/SVG/1.1/DTD/svg11.dtd">
<!-- Generated by graphviz version 2.38.0 (20140413.2041)
 -->
<!-- Title: LittleWeebLibrary.Handlers.DataBaseHandler.StoreJObject Pages: 1 -->
<!--zoomable 357 -->
<svg id="main" version="1.1" xmlns="http://www.w3.org/2000/svg" xmlns:xlink="http://www.w3.org/1999/xlink" xml:space="preserve" onload="init(evt)">
<style type="text/css"><![CDATA[
.edge:hover path { stroke: red; }
.edge:hover polygon { stroke: red; fill: red; }
]]></style>
<script type="text/javascript"><![CDATA[
var edges = document.getElementsByTagName('g');
if (edges && edges.length) {
  for (var i=0;i<edges.length;i++) {
    if (edges[i].id.substr(0,4)=='edge') {
      edges[i].setAttribute('class','edge');
    }
  }
}
]]></script>
        <defs>
                <circle id="rim" cx="0" cy="0" r="7"/>
                <circle id="rim2" cx="0" cy="0" r="3.5"/>
                <g id="zoomPlus">
                        <use xlink:href="#rim" fill="#404040">
                                <set attributeName="fill" to="#808080" begin="zoomplus.mouseover" end="zoomplus.mouseout"/>
                        </use>
                        <path d="M-4,0h8M0,-4v8" fill="none" stroke="white" stroke-width="1.5" pointer-events="none"/>
                </g>
                <g id="zoomMin">
                        <use xlink:href="#rim" fill="#404040">
                                <set attributeName="fill" to="#808080" begin="zoomminus.mouseover" end="zoomminus.mouseout"/>
                        </use>
                        <path d="M-4,0h8" fill="none" stroke="white" stroke-width="1.5" pointer-events="none"/>
                </g>
                <g id="dirArrow">
                        <path fill="none" stroke="white" stroke-width="1.5" d="M0,-3.0v7 M-2.5,-0.5L0,-3.0L2.5,-0.5"/>
                </g>
               <g id="resetDef">
                       <use xlink:href="#rim2" fill="#404040">
                               <set attributeName="fill" to="#808080" begin="reset.mouseover" end="reset.mouseout"/>
                       </use>
               </g>
        </defs>

<script type="text/javascript">
var viewWidth = 897;
var viewHeight = 357;
var sectionId = 'dynsection-12';
</script>
<script xlink:href="svgpan.js"/>
<svg id="graph" class="graph">
<g id="viewport">
<title>LittleWeebLibrary.Handlers.DataBaseHandler.StoreJObject</title>
<polygon fill="white" stroke="none" points="-4,4 -4,-353 893,-353 893,4 -4,4"/>
<!-- Node63 -->
<g id="node1" class="node"><title>Node63</title>
<polygon fill="#bfbfbf" stroke="black" points="0,-170 0,-200 152,-200 152,-170 0,-170"/>
<text text-anchor="start" x="8" y="-188" font-family="Helvetica,sans-Serif" font-size="10.00">LittleWeebLibrary.Handlers.</text>
<text text-anchor="middle" x="76" y="-177" font-family="Helvetica,sans-Serif" font-size="10.00">DataBaseHandler.StoreJObject</text>
</g>
<!-- Node64 -->
<g id="node2" class="node"><title>Node64</title>
<g id="a_node2"><a xlink:href="class_little_weeb_library_1_1_handlers_1_1_file_history_handler.html#a615bf14eae35f656b211f0500abe4d29" target="_top" xlink:title="LittleWeebLibrary.Handlers.\lFileHistoryHandler.AddFileToFile\lHistory">
<polygon fill="white" stroke="black" points="215,-307.5 215,-348.5 373,-348.5 373,-307.5 215,-307.5"/>
<text text-anchor="start" x="223" y="-336.5" font-family="Helvetica,sans-Serif" font-size="10.00">LittleWeebLibrary.Handlers.</text>
<text text-anchor="start" x="223" y="-325.5" font-family="Helvetica,sans-Serif" font-size="10.00">FileHistoryHandler.AddFileToFile</text>
<text text-anchor="middle" x="294" y="-314.5" font-family="Helvetica,sans-Serif" font-size="10.00">History</text>
</a>
</g>
</g>
<!-- Node63&#45;&gt;Node64 -->
<g id="edge1" class="edge"><title>Node63&#45;&gt;Node64</title>
<path fill="none" stroke="midnightblue" d="M96.1448,-207.992C116.724,-231.432 151.439,-267.462 188,-290 198.974,-296.765 211.332,-302.58 223.614,-307.481"/>
<polygon fill="midnightblue" stroke="midnightblue" points="98.6601,-205.549 89.4752,-200.268 93.3621,-210.125 98.6601,-205.549"/>
</g>
<!-- Node66 -->
<g id="node4" class="node"><title>Node66</title>
<g id="a_node4"><a xlink:href="class_little_weeb_library_1_1_services_1_1_info_api_web_socket_service.html#a310f91aba5d17d8202aea81442da2545" target="_top" xlink:title="LittleWeebLibrary.Services.\lInfoApiWebSocketService.GetAllCategories">
<polygon fill="white" stroke="black" points="438,-268 438,-298 643,-298 643,-268 438,-268"/>
<text text-anchor="start" x="446" y="-286" font-family="Helvetica,sans-Serif" font-size="10.00">LittleWeebLibrary.Services.</text>
<text text-anchor="middle" x="540.5" y="-275" font-family="Helvetica,sans-Serif" font-size="10.00">InfoApiWebSocketService.GetAllCategories</text>
</a>
</g>
</g>
<!-- Node63&#45;&gt;Node66 -->
<g id="edge3" class="edge"><title>Node63&#45;&gt;Node66</title>
<path fill="none" stroke="midnightblue" d="M115.11,-204.49C136.113,-214.453 162.94,-225.937 188,-233 270.316,-256.201 366.658,-268.94 437.641,-275.743"/>
<polygon fill="midnightblue" stroke="midnightblue" points="116.425,-201.237 105.898,-200.04 113.38,-207.541 116.425,-201.237"/>
</g>
<!-- Node68 -->
<g id="node6" class="node"><title>Node68</title>
<g id="a_node6"><a xlink:href="class_little_weeb_library_1_1_services_1_1_info_api_web_socket_service.html#a2882975741be27c69b461509d48e2636" target="_top" xlink:title="LittleWeebLibrary.Services.\lInfoApiWebSocketService.GetAllGenres">
<polygon fill="white" stroke="black" points="445.5,-219 445.5,-249 635.5,-249 635.5,-219 445.5,-219"/>
<text text-anchor="start" x="453.5" y="-237" font-family="Helvetica,sans-Serif" font-size="10.00">LittleWeebLibrary.Services.</text>
<text text-anchor="middle" x="540.5" y="-226" font-family="Helvetica,sans-Serif" font-size="10.00">InfoApiWebSocketService.GetAllGenres</text>
</a>
</g>
</g>
<!-- Node63&#45;&gt;Node68 -->
<g id="edge5" class="edge"><title>Node63&#45;&gt;Node68</title>
<path fill="none" stroke="midnightblue" d="M148.775,-202.074C161.772,-204.721 175.246,-207.177 188,-209 274.756,-221.4 374.482,-227.751 445.496,-230.94"/>
<polygon fill="midnightblue" stroke="midnightblue" points="149.453,-198.64 138.949,-200.02 148.021,-205.492 149.453,-198.64"/>
</g>
<!-- Node69 -->
<g id="node7" class="node"><title>Node69</title>
<g id="a_node7"><a xlink:href="class_little_weeb_library_1_1_handlers_1_1_anime_profile_handler.html#aaa89fba506cfcdad18a5aa3f9b860061" target="_top" xlink:title="LittleWeebLibrary.Handlers.\lAnimeProfileHandler.GetAnimeProfile">
<polygon fill="white" stroke="black" points="205,-170 205,-200 383,-200 383,-170 205,-170"/>
<text text-anchor="start" x="213" y="-188" font-family="Helvetica,sans-Serif" font-size="10.00">LittleWeebLibrary.Handlers.</text>
<text text-anchor="middle" x="294" y="-177" font-family="Helvetica,sans-Serif" font-size="10.00">AnimeProfileHandler.GetAnimeProfile</text>
</a>
</g>
</g>
<!-- Node63&#45;&gt;Node69 -->
<g id="edge7" class="edge"><title>Node63&#45;&gt;Node69</title>
<path fill="none" stroke="midnightblue" d="M162.281,-185C176.214,-185 190.675,-185 204.679,-185"/>
<polygon fill="midnightblue" stroke="midnightblue" points="162.243,-181.5 152.243,-185 162.243,-188.5 162.243,-181.5"/>
</g>
<!-- Node71 -->
<g id="node9" class="node"><title>Node71</title>
<g id="a_node9"><a xlink:href="class_little_weeb_library_1_1_services_1_1_info_api_web_socket_service.html#a5f91364bc403db5d521f15881a385143" target="_top" xlink:title="LittleWeebLibrary.Services.\lInfoApiWebSocketService.GetBotList">
<polygon fill="white" stroke="black" points="205,-121 205,-151 383,-151 383,-121 205,-121"/>
<text text-anchor="start" x="213" y="-139" font-family="Helvetica,sans-Serif" font-size="10.00">LittleWeebLibrary.Services.</text>
<text text-anchor="middle" x="294" y="-128" font-family="Helvetica,sans-Serif" font-size="10.00">InfoApiWebSocketService.GetBotList</text>
</a>
</g>
</g>
<!-- Node63&#45;&gt;Node71 -->
<g id="edge10" class="edge"><title>Node63&#45;&gt;Node71</title>
<path fill="none" stroke="midnightblue" d="M153.077,-167.742C177.144,-162.282 203.536,-156.295 226.85,-151.006"/>
<polygon fill="midnightblue" stroke="midnightblue" points="152.253,-164.34 143.275,-169.965 153.802,-171.166 152.253,-164.34"/>
</g>
<!-- Node72 -->
<g id="node10" class="node"><title>Node72</title>
<g id="a_node10"><a xlink:href="class_little_weeb_library_1_1_handlers_1_1_anime_profile_handler.html#a7469a40799e1067d871ba87679f54c37" target="_top" xlink:title="LittleWeebLibrary.Handlers.\lAnimeProfileHandler.GetCurrently\lAiring">
<polygon fill="white" stroke="black" points="213,-60.5 213,-101.5 375,-101.5 375,-60.5 213,-60.5"/>
<text text-anchor="start" x="221" y="-89.5" font-family="Helvetica,sans-Serif" font-size="10.00">LittleWeebLibrary.Handlers.</text>
<text text-anchor="start" x="221" y="-78.5" font-family="Helvetica,sans-Serif" font-size="10.00">AnimeProfileHandler.GetCurrently</text>
<text text-anchor="middle" x="294" y="-67.5" font-family="Helvetica,sans-Serif" font-size="10.00">Airing</text>
</a>
</g>
</g>
<!-- Node63&#45;&gt;Node72 -->
<g id="edge12" class="edge"><title>Node63&#45;&gt;Node72</title>
<path fill="none" stroke="midnightblue" d="M103.627,-163.798C125.283,-147.432 157.193,-125.246 188,-111 195.916,-107.34 204.377,-104.026 212.932,-101.053"/>
<polygon fill="midnightblue" stroke="midnightblue" points="101.377,-161.113 95.5722,-169.976 105.637,-166.668 101.377,-161.113"/>
</g>
<!-- Node74 -->
<g id="node12" class="node"><title>Node74</title>
<g id="a_node12"><a xlink:href="class_little_weeb_library_1_1_services_1_1_data_base_web_socket_service.html#af85671a494e85f8418f60606566521f0" target="_top" xlink:title="LittleWeebLibrary.Services.\lDataBaseWebSocketService.StoreDocument">
<polygon fill="white" stroke="black" points="188,-9 188,-39 400,-39 400,-9 188,-9"/>
<text text-anchor="start" x="196" y="-27" font-family="Helvetica,sans-Serif" font-size="10.00">LittleWeebLibrary.Services.</text>
<text text-anchor="middle" x="294" y="-16" font-family="Helvetica,sans-Serif" font-size="10.00">DataBaseWebSocketService.StoreDocument</text>
</a>
</g>
</g>
<!-- Node63&#45;&gt;Node74 -->
<g id="edge15" class="edge"><title>Node63&#45;&gt;Node74</title>
<path fill="none" stroke="midnightblue" d="M90.2084,-161.23C108.287,-130.944 143.615,-79.1586 188,-51 195.549,-46.2105 203.912,-42.2688 212.527,-39.0252"/>
<polygon fill="midnightblue" stroke="midnightblue" points="87.1733,-159.486 85.1607,-169.888 93.2207,-163.012 87.1733,-159.486"/>
</g>
<!-- Node65 -->
<g id="node3" class="node"><title>Node65</title>
<g id="a_node3"><a xlink:href="class_little_weeb_library_1_1_handlers_1_1_download_handler.html#a8e40df55d254c0b95bb0a72becde5039" target="_top" xlink:title="LittleWeebLibrary.Handlers.\lDownloadHandler.OnIrcClientDownloadEvent">
<polygon fill="white" stroke="black" points="436,-317 436,-347 645,-347 645,-317 436,-317"/>
<text text-anchor="start" x="444" y="-335" font-family="Helvetica,sans-Serif" font-size="10.00">LittleWeebLibrary.Handlers.</text>
<text text-anchor="middle" x="540.5" y="-324" font-family="Helvetica,sans-Serif" font-size="10.00">DownloadHandler.OnIrcClientDownloadEvent</text>
</a>
</g>
</g>
<!-- Node64&#45;&gt;Node65 -->
<g id="edge2" class="edge"><title>Node64&#45;&gt;Node65</title>
<path fill="none" stroke="midnightblue" d="M383.487,-329.448C400.492,-329.726 418.444,-330.02 435.878,-330.305"/>
<polygon fill="midnightblue" stroke="midnightblue" points="383.09,-325.941 373.034,-329.277 382.975,-332.94 383.09,-325.941"/>
</g>
<!-- Node67 -->
<g id="node5" class="node"><title>Node67</title>
<g id="a_node5"><a xlink:href="class_little_weeb_library_1_1_controllers_1_1_sub_controllers_1_1_info_api_web_socket_controller.html#ad620537574b819085ff8eb394add2912" target="_top" xlink:title="LittleWeebLibrary.Controllers.\lSubControllers.InfoApiWebSocketController.\lOnWebSocketEvent">
<polygon fill="white" stroke="black" points="681,-158.5 681,-199.5 889,-199.5 889,-158.5 681,-158.5"/>
<text text-anchor="start" x="689" y="-187.5" font-family="Helvetica,sans-Serif" font-size="10.00">LittleWeebLibrary.Controllers.</text>
<text text-anchor="start" x="689" y="-176.5" font-family="Helvetica,sans-Serif" font-size="10.00">SubControllers.InfoApiWebSocketController.</text>
<text text-anchor="middle" x="785" y="-165.5" font-family="Helvetica,sans-Serif" font-size="10.00">OnWebSocketEvent</text>
</a>
</g>
</g>
<!-- Node66&#45;&gt;Node67 -->
<g id="edge4" class="edge"><title>Node66&#45;&gt;Node67</title>
<path fill="none" stroke="midnightblue" d="M625.018,-264.992C631.853,-262.865 638.591,-260.537 645,-258 684.358,-242.421 726.151,-217.368 753.51,-199.658"/>
<polygon fill="midnightblue" stroke="midnightblue" points="623.559,-261.773 614.961,-267.964 625.543,-268.486 623.559,-261.773"/>
</g>
<!-- Node68&#45;&gt;Node67 -->
<g id="edge6" class="edge"><title>Node68&#45;&gt;Node67</title>
<path fill="none" stroke="midnightblue" d="M617.523,-216.758C641.544,-211.31 668.329,-205.235 693.271,-199.578"/>
<polygon fill="midnightblue" stroke="midnightblue" points="616.742,-213.346 607.764,-218.971 618.291,-220.172 616.742,-213.346"/>
</g>
<!-- Node70 -->
<g id="node8" class="node"><title>Node70</title>
<g id="a_node8"><a xlink:href="class_little_weeb_library_1_1_services_1_1_info_api_web_socket_service.html#a12f4d83332b28988ce0e2bc5ff3ed369" target="_top" xlink:title="LittleWeebLibrary.Services.\lInfoApiWebSocketService.GetAnime\lProfile">
<polygon fill="white" stroke="black" points="453,-158.5 453,-199.5 628,-199.5 628,-158.5 453,-158.5"/>
<text text-anchor="start" x="461" y="-187.5" font-family="Helvetica,sans-Serif" font-size="10.00">LittleWeebLibrary.Services.</text>
<text text-anchor="start" x="461" y="-176.5" font-family="Helvetica,sans-Serif" font-size="10.00">InfoApiWebSocketService.GetAnime</text>
<text text-anchor="middle" x="540.5" y="-165.5" font-family="Helvetica,sans-Serif" font-size="10.00">Profile</text>
</a>
</g>
</g>
<!-- Node69&#45;&gt;Node70 -->
<g id="edge8" class="edge"><title>Node69&#45;&gt;Node70</title>
<path fill="none" stroke="midnightblue" d="M393.482,-182.583C413.182,-182.1 433.739,-181.595 452.997,-181.123"/>
<polygon fill="midnightblue" stroke="midnightblue" points="393.181,-179.089 383.27,-182.834 393.353,-186.087 393.181,-179.089"/>
</g>
<!-- Node70&#45;&gt;Node67 -->
<g id="edge9" class="edge"><title>Node70&#45;&gt;Node67</title>
<path fill="none" stroke="midnightblue" d="M638.167,-179C652.229,-179 666.752,-179 680.934,-179"/>
<polygon fill="midnightblue" stroke="midnightblue" points="638.021,-175.5 628.021,-179 638.021,-182.5 638.021,-175.5"/>
</g>
<!-- Node71&#45;&gt;Node67 -->
<g id="edge11" class="edge"><title>Node71&#45;&gt;Node67</title>
<path fill="none" stroke="midnightblue" d="M393.27,-135.058C463.627,-135.501 560.468,-138.391 645,-149 663.004,-151.26 682.128,-154.695 700.244,-158.444"/>
<polygon fill="midnightblue" stroke="midnightblue" points="393.103,-131.557 383.086,-135.01 393.07,-138.557 393.103,-131.557"/>
</g>
<!-- Node73 -->
<g id="node11" class="node"><title>Node73</title>
<g id="a_node11"><a xlink:href="class_little_weeb_library_1_1_services_1_1_info_api_web_socket_service.html#aec42147d67551cb17c458453ef40f3bc" target="_top" xlink:title="LittleWeebLibrary.Services.\lInfoApiWebSocketService.GetCurrently\lAiring">
<polygon fill="white" stroke="black" points="447.5,-60.5 447.5,-101.5 633.5,-101.5 633.5,-60.5 447.5,-60.5"/>
<text text-anchor="start" x="455.5" y="-89.5" font-family="Helvetica,sans-Serif" font-size="10.00">LittleWeebLibrary.Services.</text>
<text text-anchor="start" x="455.5" y="-78.5" font-family="Helvetica,sans-Serif" font-size="10.00">InfoApiWebSocketService.GetCurrently</text>
<text text-anchor="middle" x="540.5" y="-67.5" font-family="Helvetica,sans-Serif" font-size="10.00">Airing</text>
</a>
</g>
</g>
<!-- Node72&#45;&gt;Node73 -->
<g id="edge13" class="edge"><title>Node72&#45;&gt;Node73</title>
<path fill="none" stroke="midnightblue" d="M385.215,-81C405.49,-81 427.029,-81 447.381,-81"/>
<polygon fill="midnightblue" stroke="midnightblue" points="385.058,-77.5001 375.058,-81 385.058,-84.5001 385.058,-77.5001"/>
</g>
<!-- Node73&#45;&gt;Node67 -->
<g id="edge14" class="edge"><title>Node73&#45;&gt;Node67</title>
<path fill="none" stroke="midnightblue" d="M615.228,-104.927C625.29,-108.484 635.44,-112.228 645,-116 677.902,-128.982 714.289,-145.557 741.578,-158.447"/>
<polygon fill="midnightblue" stroke="midnightblue" points="616.225,-101.568 605.63,-101.578 613.919,-108.177 616.225,-101.568"/>
</g>
<!-- Node75 -->
<g id="node13" class="node"><title>Node75</title>
<g id="a_node13"><a xlink:href="class_little_weeb_library_1_1_controllers_1_1_sub_controllers_1_1_data_base_web_socket_controller.html#a655abc0c42c54c9ff3572e4b4271fa3b" target="_top" xlink:title="LittleWeebLibrary.Controllers.\lSubControllers.DataBaseWebSocket\lController.OnWebSocketEvent">
<polygon fill="white" stroke="black" points="452,-0.5 452,-41.5 629,-41.5 629,-0.5 452,-0.5"/>
<text text-anchor="start" x="460" y="-29.5" font-family="Helvetica,sans-Serif" font-size="10.00">LittleWeebLibrary.Controllers.</text>
<text text-anchor="start" x="460" y="-18.5" font-family="Helvetica,sans-Serif" font-size="10.00">SubControllers.DataBaseWebSocket</text>
<text text-anchor="middle" x="540.5" y="-7.5" font-family="Helvetica,sans-Serif" font-size="10.00">Controller.OnWebSocketEvent</text>
</a>
</g>
</g>
<!-- Node74&#45;&gt;Node75 -->
<g id="edge16" class="edge"><title>Node74&#45;&gt;Node75</title>
<path fill="none" stroke="midnightblue" d="M410.238,-22.586C424.192,-22.4148 438.269,-22.2421 451.737,-22.0768"/>
<polygon fill="midnightblue" stroke="midnightblue" points="410.065,-19.0878 400.109,-22.7103 410.151,-26.0873 410.065,-19.0878"/>
</g>
</g>
</svg>
        <g id="navigator" transform="translate(0 0)" fill="#404254">
                <rect fill="#f2f5e9" fill-opacity="0.5" stroke="#606060" stroke-width=".5" x="0" y="0" width="60" height="60"/>
                <use id="zoomplus" xlink:href="#zoomPlus" x="17" y="9" onmousedown="handleZoom(evt,'in')"/>
                <use id="zoomminus" xlink:href="#zoomMin" x="42" y="9" onmousedown="handleZoom(evt,'out')"/>
                <use id="reset" xlink:href="#resetDef" x="30" y="36" onmousedown="handleReset()"/>
                <g id="arrowUp" xlink:href="#dirArrow" transform="translate(30 24)" onmousedown="handlePan(0,-1)">
                  <use xlink:href="#rim" fill="#404040">
                        <set attributeName="fill" to="#808080" begin="arrowUp.mouseover" end="arrowUp.mouseout"/>
                  </use>
                  <path fill="none" stroke="white" stroke-width="1.5" d="M0,-3.0v7 M-2.5,-0.5L0,-3.0L2.5,-0.5"/>
                </g>
                <g id="arrowRight" xlink:href="#dirArrow" transform="rotate(90) translate(36 -43)" onmousedown="handlePan(1,0)">
                  <use xlink:href="#rim" fill="#404040">
                        <set attributeName="fill" to="#808080" begin="arrowRight.mouseover" end="arrowRight.mouseout"/>
                  </use>
                  <path fill="none" stroke="white" stroke-width="1.5" d="M0,-3.0v7 M-2.5,-0.5L0,-3.0L2.5,-0.5"/>
                </g>
                <g id="arrowDown" xlink:href="#dirArrow" transform="rotate(180) translate(-30 -48)" onmousedown="handlePan(0,1)">
                  <use xlink:href="#rim" fill="#404040">
                        <set attributeName="fill" to="#808080" begin="arrowDown.mouseover" end="arrowDown.mouseout"/>
                  </use>
                  <path fill="none" stroke="white" stroke-width="1.5" d="M0,-3.0v7 M-2.5,-0.5L0,-3.0L2.5,-0.5"/>
                </g>
                <g id="arrowLeft" xlink:href="#dirArrow" transform="rotate(270) translate(-36 17)" onmousedown="handlePan(-1,0)">
                  <use xlink:href="#rim" fill="#404040">
                        <set attributeName="fill" to="#808080" begin="arrowLeft.mouseover" end="arrowLeft.mouseout"/>
                  </use>
                  <path fill="none" stroke="white" stroke-width="1.5" d="M0,-3.0v7 M-2.5,-0.5L0,-3.0L2.5,-0.5"/>
                </g>
        </g>
        <svg viewBox="0 0 15 15" width="100%" height="30px" preserveAspectRatio="xMaxYMin meet">
         <g id="arrow_out" transform="scale(0.3 0.3)">
          <a xlink:href="class_little_weeb_library_1_1_handlers_1_1_data_base_handler_a5e6a70ef81b049da46b6ae3a15b09cd3_icgraph_org.svg" target="_base">
           <rect id="button" ry="5" rx="5" y="6" x="6" height="38" width="38"
                fill="#f2f5e9" fill-opacity="0.5" stroke="#606060" stroke-width="1.0"/>
           <path id="arrow"
             d="M 11.500037,31.436501 C 11.940474,20.09759 22.043105,11.32322 32.158766,21.979434 L 37.068811,17.246167 C 37.068811,17.246167 37.088388,32 37.088388,32 L 22.160133,31.978069 C 22.160133,31.978069 26.997745,27.140456 26.997745,27.140456 C 18.528582,18.264221 13.291696,25.230495 11.500037,31.436501 z"
             style="fill:#404040;"/>
          </a>
         </g>
        </svg>
</svg>
