<?xml version="1.0" encoding="UTF-8" standalone="no"?>
<!DOCTYPE svg PUBLIC "-//W3C//DTD SVG 1.1//EN"
 "http://www.w3.org/Graphics/SVG/1.1/DTD/svg11.dtd">
<!-- Generated by graphviz version 2.38.0 (20140413.2041)
 -->
<!-- Title: LittleWeebLibrary.Handlers.DownloadHandler.SetLittleWeebSettings Pages: 1 -->
<svg width="380pt" height="88pt"
 viewBox="0.00 0.00 380.00 88.00" xmlns="http://www.w3.org/2000/svg" xmlns:xlink="http://www.w3.org/1999/xlink">
<g id="graph0" class="graph" transform="scale(1 1) rotate(0) translate(4 84)">
<title>LittleWeebLibrary.Handlers.DownloadHandler.SetLittleWeebSettings</title>
<polygon fill="white" stroke="none" points="-4,4 -4,-84 376,-84 376,4 -4,4"/>
<!-- Node56 -->
<g id="node1" class="node"><title>Node56</title>
<polygon fill="#bfbfbf" stroke="black" points="0,-24.5 0,-54.5 192,-54.5 192,-24.5 0,-24.5"/>
<text text-anchor="start" x="8" y="-42.5" font-family="Helvetica,sans-Serif" font-size="10.00">LittleWeebLibrary.Handlers.</text>
<text text-anchor="middle" x="96" y="-31.5" font-family="Helvetica,sans-Serif" font-size="10.00">DownloadHandler.SetLittleWeebSettings</text>
</g>
<!-- Node57 -->
<g id="node2" class="node"><title>Node57</title>
<g id="a_node2"><a xlink:href="class_little_weeb_library_1_1_settings_1_1_little_weeb_settings.html#a5a5b722dd8e117be810022882795b6ae" target="_top" xlink:title="LittleWeebLibrary.Settings.\lLittleWeebSettings.ToString">
<polygon fill="white" stroke="black" points="231,-49.5 231,-79.5 369,-79.5 369,-49.5 231,-49.5"/>
<text text-anchor="start" x="239" y="-67.5" font-family="Helvetica,sans-Serif" font-size="10.00">LittleWeebLibrary.Settings.</text>
<text text-anchor="middle" x="300" y="-56.5" font-family="Helvetica,sans-Serif" font-size="10.00">LittleWeebSettings.ToString</text>
</a>
</g>
</g>
<!-- Node56&#45;&gt;Node57 -->
<g id="edge1" class="edge"><title>Node56&#45;&gt;Node57</title>
<path fill="none" stroke="midnightblue" d="M192.085,-51.268C201.704,-52.4584 211.395,-53.6578 220.807,-54.8226"/>
<polygon fill="midnightblue" stroke="midnightblue" points="220.539,-58.3162 230.894,-56.071 221.399,-51.3692 220.539,-58.3162"/>
</g>
<!-- Node58 -->
<g id="node3" class="node"><title>Node58</title>
<g id="a_node3"><a xlink:href="class_little_weeb_library_1_1_handlers_1_1_debug_handler.html#afccb37dfd6b2114af72000c2f4fe4607" target="_top" xlink:title="LittleWeebLibrary.Handlers.\lDebugHandler.TraceMessage">
<polygon fill="white" stroke="black" points="228,-0.5 228,-30.5 372,-30.5 372,-0.5 228,-0.5"/>
<text text-anchor="start" x="236" y="-18.5" font-family="Helvetica,sans-Serif" font-size="10.00">LittleWeebLibrary.Handlers.</text>
<text text-anchor="middle" x="300" y="-7.5" font-family="Helvetica,sans-Serif" font-size="10.00">DebugHandler.TraceMessage</text>
</a>
</g>
</g>
<!-- Node56&#45;&gt;Node58 -->
<g id="edge2" class="edge"><title>Node56&#45;&gt;Node58</title>
<path fill="none" stroke="midnightblue" d="M192.085,-28.2028C200.67,-27.1828 209.311,-26.1561 217.761,-25.1522"/>
<polygon fill="midnightblue" stroke="midnightblue" points="218.438,-28.5964 227.955,-23.9409 217.612,-21.6453 218.438,-28.5964"/>
</g>
</g>
</svg>
