<?xml version="1.0" encoding="UTF-8" standalone="no"?>
<!DOCTYPE svg PUBLIC "-//W3C//DTD SVG 1.1//EN"
 "http://www.w3.org/Graphics/SVG/1.1/DTD/svg11.dtd">
<!-- Generated by graphviz version 2.38.0 (20140413.2041)
 -->
<!-- Title: LittleWeebLibrary.Handlers.AnimeRuleHandler.AddRules Pages: 1 -->
<svg width="567pt" height="151pt"
 viewBox="0.00 0.00 567.00 151.06" xmlns="http://www.w3.org/2000/svg" xmlns:xlink="http://www.w3.org/1999/xlink">
<g id="graph0" class="graph" transform="scale(1 1) rotate(0) translate(4 147.06)">
<title>LittleWeebLibrary.Handlers.AnimeRuleHandler.AddRules</title>
<polygon fill="white" stroke="none" points="-4,4 -4,-147.06 563,-147.06 563,4 -4,4"/>
<!-- Node3 -->
<g id="node1" class="node"><title>Node3</title>
<polygon fill="#bfbfbf" stroke="black" points="0,-98.5 0,-128.5 142,-128.5 142,-98.5 0,-98.5"/>
<text text-anchor="start" x="8" y="-116.5" font-family="Helvetica,sans-Serif" font-size="10.00">LittleWeebLibrary.Handlers.</text>
<text text-anchor="middle" x="71" y="-105.5" font-family="Helvetica,sans-Serif" font-size="10.00">AnimeRuleHandler.AddRules</text>
</g>
<!-- Node4 -->
<g id="node2" class="node"><title>Node4</title>
<g id="a_node2"><a xlink:href="class_little_weeb_library_1_1_handlers_1_1_data_base_handler.html#a7f61583807f99b7838a33d2db0f7ca68" target="_top" xlink:title="LittleWeebLibrary.Handlers.\lDataBaseHandler.GetJObject">
<polygon fill="white" stroke="black" points="185.5,-49.5 185.5,-79.5 329.5,-79.5 329.5,-49.5 185.5,-49.5"/>
<text text-anchor="start" x="193.5" y="-67.5" font-family="Helvetica,sans-Serif" font-size="10.00">LittleWeebLibrary.Handlers.</text>
<text text-anchor="middle" x="257.5" y="-56.5" font-family="Helvetica,sans-Serif" font-size="10.00">DataBaseHandler.GetJObject</text>
</a>
</g>
</g>
<!-- Node3&#45;&gt;Node4 -->
<g id="edge1" class="edge"><title>Node3&#45;&gt;Node4</title>
<path fill="none" stroke="midnightblue" d="M128.61,-98.4654C148.091,-93.2917 170.077,-87.4525 190.255,-82.0934"/>
<polygon fill="midnightblue" stroke="midnightblue" points="191.231,-85.4558 199.997,-79.5062 189.434,-78.6904 191.231,-85.4558"/>
</g>
<!-- Node5 -->
<g id="node3" class="node"><title>Node5</title>
<g id="a_node3"><a xlink:href="class_little_weeb_library_1_1_handlers_1_1_debug_handler.html#afccb37dfd6b2114af72000c2f4fe4607" target="_top" xlink:title="LittleWeebLibrary.Handlers.\lDebugHandler.TraceMessage">
<polygon fill="white" stroke="black" points="394,-98.5 394,-128.5 538,-128.5 538,-98.5 394,-98.5"/>
<text text-anchor="start" x="402" y="-116.5" font-family="Helvetica,sans-Serif" font-size="10.00">LittleWeebLibrary.Handlers.</text>
<text text-anchor="middle" x="466" y="-105.5" font-family="Helvetica,sans-Serif" font-size="10.00">DebugHandler.TraceMessage</text>
</a>
</g>
</g>
<!-- Node3&#45;&gt;Node5 -->
<g id="edge5" class="edge"><title>Node3&#45;&gt;Node5</title>
<path fill="none" stroke="midnightblue" d="M127.715,-128.558C143.816,-132.243 161.498,-135.655 178,-137.5 248.229,-145.351 266.637,-144.04 337,-137.5 353.499,-135.967 371.042,-133.344 387.679,-130.382"/>
<polygon fill="midnightblue" stroke="midnightblue" points="388.702,-133.752 397.903,-128.5 387.435,-126.868 388.702,-133.752"/>
</g>
<!-- Node8 -->
<g id="node6" class="node"><title>Node8</title>
<g id="a_node6"><a xlink:href="class_little_weeb_library_1_1_handlers_1_1_data_base_handler.html#a9b2223ff71f688234f95d247ea3b5739" target="_top" xlink:title="LittleWeebLibrary.Handlers.\lDataBaseHandler.UpdateJObject">
<polygon fill="white" stroke="black" points="178,-98.5 178,-128.5 337,-128.5 337,-98.5 178,-98.5"/>
<text text-anchor="start" x="186" y="-116.5" font-family="Helvetica,sans-Serif" font-size="10.00">LittleWeebLibrary.Handlers.</text>
<text text-anchor="middle" x="257.5" y="-105.5" font-family="Helvetica,sans-Serif" font-size="10.00">DataBaseHandler.UpdateJObject</text>
</a>
</g>
</g>
<!-- Node3&#45;&gt;Node8 -->
<g id="edge6" class="edge"><title>Node3&#45;&gt;Node8</title>
<path fill="none" stroke="midnightblue" d="M142.015,-113.5C150.441,-113.5 159.13,-113.5 167.778,-113.5"/>
<polygon fill="midnightblue" stroke="midnightblue" points="167.892,-117 177.892,-113.5 167.892,-110 167.892,-117"/>
</g>
<!-- Node4&#45;&gt;Node5 -->
<g id="edge2" class="edge"><title>Node4&#45;&gt;Node5</title>
<path fill="none" stroke="midnightblue" d="M321.86,-79.5346C343.961,-84.7789 368.943,-90.7069 391.779,-96.1255"/>
<polygon fill="midnightblue" stroke="midnightblue" points="391.222,-99.5904 401.76,-98.4938 392.838,-92.7795 391.222,-99.5904"/>
</g>
<!-- Node6 -->
<g id="node4" class="node"><title>Node6</title>
<g id="a_node4"><a xlink:href="class_little_weeb_library_1_1_static_classes_1_1_utility_methods.html#a7b5de7a3ecc749b655fc3ed2af55360b" target="_top" xlink:title="LittleWeebLibrary.Static\lClasses.UtilityMethods.ReadBinaryFile">
<polygon fill="white" stroke="black" points="373,-49.5 373,-79.5 559,-79.5 559,-49.5 373,-49.5"/>
<text text-anchor="start" x="381" y="-67.5" font-family="Helvetica,sans-Serif" font-size="10.00">LittleWeebLibrary.Static</text>
<text text-anchor="middle" x="466" y="-56.5" font-family="Helvetica,sans-Serif" font-size="10.00">Classes.UtilityMethods.ReadBinaryFile</text>
</a>
</g>
</g>
<!-- Node4&#45;&gt;Node6 -->
<g id="edge3" class="edge"><title>Node4&#45;&gt;Node6</title>
<path fill="none" stroke="midnightblue" d="M329.566,-64.5C340.195,-64.5 351.33,-64.5 362.454,-64.5"/>
<polygon fill="midnightblue" stroke="midnightblue" points="362.652,-68.0001 372.652,-64.5 362.652,-61.0001 362.652,-68.0001"/>
</g>
<!-- Node7 -->
<g id="node5" class="node"><title>Node7</title>
<g id="a_node5"><a xlink:href="class_little_weeb_library_1_1_static_classes_1_1_utility_methods.html#a0a86ee01a3bf201bd9cc9b2552e54976" target="_top" xlink:title="LittleWeebLibrary.Static\lClasses.UtilityMethods.Unzip">
<polygon fill="white" stroke="black" points="393.5,-0.5 393.5,-30.5 538.5,-30.5 538.5,-0.5 393.5,-0.5"/>
<text text-anchor="start" x="401.5" y="-18.5" font-family="Helvetica,sans-Serif" font-size="10.00">LittleWeebLibrary.Static</text>
<text text-anchor="middle" x="466" y="-7.5" font-family="Helvetica,sans-Serif" font-size="10.00">Classes.UtilityMethods.Unzip</text>
</a>
</g>
</g>
<!-- Node4&#45;&gt;Node7 -->
<g id="edge4" class="edge"><title>Node4&#45;&gt;Node7</title>
<path fill="none" stroke="midnightblue" d="M321.86,-49.4654C343.961,-44.2211 368.943,-38.2931 391.779,-32.8745"/>
<polygon fill="midnightblue" stroke="midnightblue" points="392.838,-36.2205 401.76,-30.5062 391.222,-29.4096 392.838,-36.2205"/>
</g>
<!-- Node8&#45;&gt;Node5 -->
<g id="edge7" class="edge"><title>Node8&#45;&gt;Node5</title>
<path fill="none" stroke="midnightblue" d="M337.158,-113.5C352.253,-113.5 368.092,-113.5 383.281,-113.5"/>
<polygon fill="midnightblue" stroke="midnightblue" points="383.676,-117 393.676,-113.5 383.676,-110 383.676,-117"/>
</g>
</g>
</svg>
