<?xml version="1.0" encoding="UTF-8" standalone="no"?>
<!DOCTYPE svg PUBLIC "-//W3C//DTD SVG 1.1//EN"
 "http://www.w3.org/Graphics/SVG/1.1/DTD/svg11.dtd">
<!-- Generated by graphviz version 2.38.0 (20140413.2041)
 -->
<!-- Title: LittleWeebLibrary.Controllers.BaseWebSocketController Pages: 1 -->
<svg width="154pt" height="215pt"
 viewBox="0.00 0.00 154.00 215.00" xmlns="http://www.w3.org/2000/svg" xmlns:xlink="http://www.w3.org/1999/xlink">
<g id="graph0" class="graph" transform="scale(1 1) rotate(0) translate(4 211)">
<title>LittleWeebLibrary.Controllers.BaseWebSocketController</title>
<polygon fill="white" stroke="none" points="-4,4 -4,-211 150,-211 150,4 -4,4"/>
<!-- Node0 -->
<g id="node1" class="node"><title>Node0</title>
<polygon fill="#bfbfbf" stroke="black" points="0,-0.5 0,-112.5 146,-112.5 146,-0.5 0,-0.5"/>
<text text-anchor="start" x="8" y="-100.5" font-family="Helvetica,sans-Serif" font-size="10.00">LittleWeebLibrary.Controllers.</text>
<text text-anchor="middle" x="73" y="-89.5" font-family="Helvetica,sans-Serif" font-size="10.00">BaseWebSocketController</text>
<polyline fill="none" stroke="black" points="0,-82.5 146,-82.5 "/>
<text text-anchor="start" x="8" y="-70.5" font-family="Helvetica,sans-Serif" font-size="10.00">&#45; DebugHandler</text>
<text text-anchor="start" x="8" y="-59.5" font-family="Helvetica,sans-Serif" font-size="10.00">&#45; SubControllers</text>
<text text-anchor="start" x="8" y="-48.5" font-family="Helvetica,sans-Serif" font-size="10.00">&#45; WebSocketHandler</text>
<polyline fill="none" stroke="black" points="0,-41.5 146,-41.5 "/>
<text text-anchor="start" x="8" y="-29.5" font-family="Helvetica,sans-Serif" font-size="10.00">+ BaseWebSocketController()</text>
<text text-anchor="start" x="8" y="-18.5" font-family="Helvetica,sans-Serif" font-size="10.00">+ SetSubControllers()</text>
<text text-anchor="start" x="8" y="-7.5" font-family="Helvetica,sans-Serif" font-size="10.00">&#45; OnWebSocketEvent()</text>
</g>
<!-- Node1 -->
<g id="node2" class="node"><title>Node1</title>
<g id="a_node2"><a xlink:href="interface_little_weeb_library_1_1_controllers_1_1_i_base_web_socket_controller.html" target="_top" xlink:title="{IBaseWebSocketController\n||+ SetSubControllers()\l}">
<polygon fill="white" stroke="black" points="6,-149.5 6,-206.5 140,-206.5 140,-149.5 6,-149.5"/>
<text text-anchor="middle" x="73" y="-194.5" font-family="Helvetica,sans-Serif" font-size="10.00">IBaseWebSocketController</text>
<polyline fill="none" stroke="black" points="6,-187.5 140,-187.5 "/>
<text text-anchor="middle" x="73" y="-175.5" font-family="Helvetica,sans-Serif" font-size="10.00"> </text>
<polyline fill="none" stroke="black" points="6,-168.5 140,-168.5 "/>
<text text-anchor="start" x="14" y="-156.5" font-family="Helvetica,sans-Serif" font-size="10.00">+ SetSubControllers()</text>
</a>
</g>
</g>
<!-- Node1&#45;&gt;Node0 -->
<g id="edge1" class="edge"><title>Node1&#45;&gt;Node0</title>
<path fill="none" stroke="midnightblue" d="M73,-139.108C73,-130.748 73,-121.725 73,-112.834"/>
<polygon fill="none" stroke="midnightblue" points="69.5001,-139.284 73,-149.284 76.5001,-139.284 69.5001,-139.284"/>
</g>
</g>
</svg>
