<?xml version="1.0" encoding="UTF-8" standalone="no"?>
<!DOCTYPE svg PUBLIC "-//W3C//DTD SVG 1.1//EN"
 "http://www.w3.org/Graphics/SVG/1.1/DTD/svg11.dtd">
<!-- Generated by graphviz version 2.38.0 (20140413.2041)
 -->
<!-- Title: LittleWeebLibrary.Handlers.DataBaseHandler.GetCollection Pages: 1 -->
<svg width="851pt" height="110pt"
 viewBox="0.00 0.00 851.00 110.00" xmlns="http://www.w3.org/2000/svg" xmlns:xlink="http://www.w3.org/1999/xlink">
<g id="graph0" class="graph" transform="scale(1 1) rotate(0) translate(4 106)">
<title>LittleWeebLibrary.Handlers.DataBaseHandler.GetCollection</title>
<polygon fill="white" stroke="none" points="-4,4 -4,-106 847,-106 847,4 -4,4"/>
<!-- Node10 -->
<g id="node1" class="node"><title>Node10</title>
<polygon fill="#bfbfbf" stroke="black" points="0,-36 0,-66 154,-66 154,-36 0,-36"/>
<text text-anchor="start" x="8" y="-54" font-family="Helvetica,sans-Serif" font-size="10.00">LittleWeebLibrary.Handlers.</text>
<text text-anchor="middle" x="77" y="-43" font-family="Helvetica,sans-Serif" font-size="10.00">DataBaseHandler.GetCollection</text>
</g>
<!-- Node11 -->
<g id="node2" class="node"><title>Node11</title>
<g id="a_node2"><a xlink:href="class_little_weeb_library_1_1_services_1_1_data_base_web_socket_service.html#aef8bdd650778c72d639f1e89c1d6dcad" target="_top" xlink:title="LittleWeebLibrary.Services.\lDataBaseWebSocketService.GetCollection">
<polygon fill="white" stroke="black" points="190,-64 190,-94 393,-94 393,-64 190,-64"/>
<text text-anchor="start" x="198" y="-82" font-family="Helvetica,sans-Serif" font-size="10.00">LittleWeebLibrary.Services.</text>
<text text-anchor="middle" x="291.5" y="-71" font-family="Helvetica,sans-Serif" font-size="10.00">DataBaseWebSocketService.GetCollection</text>
</a>
</g>
</g>
<!-- Node10&#45;&gt;Node11 -->
<g id="edge1" class="edge"><title>Node10&#45;&gt;Node11</title>
<path fill="none" stroke="midnightblue" d="M164.25,-62.3647C172.639,-63.4701 181.201,-64.5982 189.716,-65.7202"/>
<polygon fill="midnightblue" stroke="midnightblue" points="164.489,-58.866 154.117,-61.0296 163.574,-65.806 164.489,-58.866"/>
</g>
<!-- Node13 -->
<g id="node4" class="node"><title>Node13</title>
<g id="a_node4"><a xlink:href="class_little_weeb_library_1_1_handlers_1_1_file_history_handler.html#a7e5a72e2cfdc3dfe97066cc7504b4445" target="_top" xlink:title="LittleWeebLibrary.Handlers.\lFileHistoryHandler.GetCurrentFile\lHistory">
<polygon fill="white" stroke="black" points="210.5,-2.5 210.5,-43.5 372.5,-43.5 372.5,-2.5 210.5,-2.5"/>
<text text-anchor="start" x="218.5" y="-31.5" font-family="Helvetica,sans-Serif" font-size="10.00">LittleWeebLibrary.Handlers.</text>
<text text-anchor="start" x="218.5" y="-20.5" font-family="Helvetica,sans-Serif" font-size="10.00">FileHistoryHandler.GetCurrentFile</text>
<text text-anchor="middle" x="291.5" y="-9.5" font-family="Helvetica,sans-Serif" font-size="10.00">History</text>
</a>
</g>
</g>
<!-- Node10&#45;&gt;Node13 -->
<g id="edge3" class="edge"><title>Node10&#45;&gt;Node13</title>
<path fill="none" stroke="midnightblue" d="M164.05,-39.6616C179.314,-37.6504 195.154,-35.5632 210.249,-33.5742"/>
<polygon fill="midnightblue" stroke="midnightblue" points="163.574,-36.194 154.117,-40.9704 164.489,-43.134 163.574,-36.194"/>
</g>
<!-- Node12 -->
<g id="node3" class="node"><title>Node12</title>
<g id="a_node3"><a xlink:href="class_little_weeb_library_1_1_controllers_1_1_sub_controllers_1_1_data_base_web_socket_controller.html#a655abc0c42c54c9ff3572e4b4271fa3b" target="_top" xlink:title="LittleWeebLibrary.Controllers.\lSubControllers.DataBaseWebSocket\lController.OnWebSocketEvent">
<polygon fill="white" stroke="black" points="436,-60.5 436,-101.5 613,-101.5 613,-60.5 436,-60.5"/>
<text text-anchor="start" x="444" y="-89.5" font-family="Helvetica,sans-Serif" font-size="10.00">LittleWeebLibrary.Controllers.</text>
<text text-anchor="start" x="444" y="-78.5" font-family="Helvetica,sans-Serif" font-size="10.00">SubControllers.DataBaseWebSocket</text>
<text text-anchor="middle" x="524.5" y="-67.5" font-family="Helvetica,sans-Serif" font-size="10.00">Controller.OnWebSocketEvent</text>
</a>
</g>
</g>
<!-- Node11&#45;&gt;Node12 -->
<g id="edge2" class="edge"><title>Node11&#45;&gt;Node12</title>
<path fill="none" stroke="midnightblue" d="M403.189,-79.9583C414.153,-80.0533 425.174,-80.1487 435.857,-80.2412"/>
<polygon fill="midnightblue" stroke="midnightblue" points="403.178,-76.4582 393.148,-79.8714 403.117,-83.458 403.178,-76.4582"/>
</g>
<!-- Node14 -->
<g id="node5" class="node"><title>Node14</title>
<g id="a_node5"><a xlink:href="class_little_weeb_library_1_1_services_1_1_download_web_socket_service.html#adb3b1a3aadf9ad491388890e432f6c91" target="_top" xlink:title="LittleWeebLibrary.Services.\lDownloadWebSocketService.GetCurrent\lFileHistory">
<polygon fill="white" stroke="black" points="429,-0.5 429,-41.5 620,-41.5 620,-0.5 429,-0.5"/>
<text text-anchor="start" x="437" y="-29.5" font-family="Helvetica,sans-Serif" font-size="10.00">LittleWeebLibrary.Services.</text>
<text text-anchor="start" x="437" y="-18.5" font-family="Helvetica,sans-Serif" font-size="10.00">DownloadWebSocketService.GetCurrent</text>
<text text-anchor="middle" x="524.5" y="-7.5" font-family="Helvetica,sans-Serif" font-size="10.00">FileHistory</text>
</a>
</g>
</g>
<!-- Node13&#45;&gt;Node14 -->
<g id="edge4" class="edge"><title>Node13&#45;&gt;Node14</title>
<path fill="none" stroke="midnightblue" d="M382.955,-22.2168C398.005,-22.0865 413.651,-21.9511 428.803,-21.8199"/>
<polygon fill="midnightblue" stroke="midnightblue" points="382.614,-18.7196 372.644,-22.3061 382.674,-25.7193 382.614,-18.7196"/>
</g>
<!-- Node15 -->
<g id="node6" class="node"><title>Node15</title>
<g id="a_node6"><a xlink:href="class_little_weeb_library_1_1_controllers_1_1_download_web_socket_controller.html#a9e5e421ed57b8b2a294e17d93d027c53" target="_top" xlink:title="LittleWeebLibrary.Controllers.\lDownloadWebSocketController.OnWeb\lSocketEvent">
<polygon fill="white" stroke="black" points="656,-0.5 656,-41.5 843,-41.5 843,-0.5 656,-0.5"/>
<text text-anchor="start" x="664" y="-29.5" font-family="Helvetica,sans-Serif" font-size="10.00">LittleWeebLibrary.Controllers.</text>
<text text-anchor="start" x="664" y="-18.5" font-family="Helvetica,sans-Serif" font-size="10.00">DownloadWebSocketController.OnWeb</text>
<text text-anchor="middle" x="749.5" y="-7.5" font-family="Helvetica,sans-Serif" font-size="10.00">SocketEvent</text>
</a>
</g>
</g>
<!-- Node14&#45;&gt;Node15 -->
<g id="edge5" class="edge"><title>Node14&#45;&gt;Node15</title>
<path fill="none" stroke="midnightblue" d="M630.138,-21C638.744,-21 647.406,-21 655.916,-21"/>
<polygon fill="midnightblue" stroke="midnightblue" points="630.072,-17.5001 620.072,-21 630.072,-24.5001 630.072,-17.5001"/>
</g>
</g>
</svg>
