<?xml version="1.0" encoding="UTF-8" standalone="no"?>
<!DOCTYPE svg PUBLIC "-//W3C//DTD SVG 1.1//EN"
 "http://www.w3.org/Graphics/SVG/1.1/DTD/svg11.dtd">
<!-- Generated by graphviz version 2.38.0 (20140413.2041)
 -->
<!-- Title: LittleWeebLibrary.LittleWeeb.Stop Pages: 1 -->
<!--zoomable 186 -->
<svg id="main" version="1.1" xmlns="http://www.w3.org/2000/svg" xmlns:xlink="http://www.w3.org/1999/xlink" xml:space="preserve" onload="init(evt)">
<style type="text/css"><![CDATA[
.edge:hover path { stroke: red; }
.edge:hover polygon { stroke: red; fill: red; }
]]></style>
<script type="text/javascript"><![CDATA[
var edges = document.getElementsByTagName('g');
if (edges && edges.length) {
  for (var i=0;i<edges.length;i++) {
    if (edges[i].id.substr(0,4)=='edge') {
      edges[i].setAttribute('class','edge');
    }
  }
}
]]></script>
        <defs>
                <circle id="rim" cx="0" cy="0" r="7"/>
                <circle id="rim2" cx="0" cy="0" r="3.5"/>
                <g id="zoomPlus">
                        <use xlink:href="#rim" fill="#404040">
                                <set attributeName="fill" to="#808080" begin="zoomplus.mouseover" end="zoomplus.mouseout"/>
                        </use>
                        <path d="M-4,0h8M0,-4v8" fill="none" stroke="white" stroke-width="1.5" pointer-events="none"/>
                </g>
                <g id="zoomMin">
                        <use xlink:href="#rim" fill="#404040">
                                <set attributeName="fill" to="#808080" begin="zoomminus.mouseover" end="zoomminus.mouseout"/>
                        </use>
                        <path d="M-4,0h8" fill="none" stroke="white" stroke-width="1.5" pointer-events="none"/>
                </g>
                <g id="dirArrow">
                        <path fill="none" stroke="white" stroke-width="1.5" d="M0,-3.0v7 M-2.5,-0.5L0,-3.0L2.5,-0.5"/>
                </g>
               <g id="resetDef">
                       <use xlink:href="#rim2" fill="#404040">
                               <set attributeName="fill" to="#808080" begin="reset.mouseover" end="reset.mouseout"/>
                       </use>
               </g>
        </defs>

<script type="text/javascript">
var viewWidth = 685;
var viewHeight = 186;
var sectionId = 'dynsection-2';
</script>
<script xlink:href="svgpan.js"/>
<svg id="graph" class="graph">
<g id="viewport">
<title>LittleWeebLibrary.LittleWeeb.Stop</title>
<polygon fill="white" stroke="none" points="-4,4 -4,-182 681,-182 681,4 -4,4"/>
<!-- Node5 -->
<g id="node1" class="node"><title>Node5</title>
<polygon fill="#bfbfbf" stroke="black" points="0,-73.5 0,-103.5 116,-103.5 116,-73.5 0,-73.5"/>
<text text-anchor="start" x="8" y="-91.5" font-family="Helvetica,sans-Serif" font-size="10.00">LittleWeebLibrary.Little</text>
<text text-anchor="middle" x="58" y="-80.5" font-family="Helvetica,sans-Serif" font-size="10.00">Weeb.Stop</text>
</g>
<!-- Node6 -->
<g id="node2" class="node"><title>Node6</title>
<g id="a_node2"><a xlink:href="class_little_weeb_library_1_1_start_up.html#aaa6147f0dd162c1962e575689dcb22c5" target="_top" xlink:title="LittleWeebLibrary.StartUp.Stop">
<polygon fill="white" stroke="black" points="152,-79 152,-98 304,-98 304,-79 152,-79"/>
<text text-anchor="middle" x="228" y="-86" font-family="Helvetica,sans-Serif" font-size="10.00">LittleWeebLibrary.StartUp.Stop</text>
</a>
</g>
</g>
<!-- Node5&#45;&gt;Node6 -->
<g id="edge1" class="edge"><title>Node5&#45;&gt;Node6</title>
<path fill="none" stroke="midnightblue" d="M116.346,-88.5C124.545,-88.5 133.121,-88.5 141.716,-88.5"/>
<polygon fill="midnightblue" stroke="midnightblue" points="141.791,-92.0001 151.791,-88.5 141.791,-85.0001 141.791,-92.0001"/>
</g>
<!-- Node7 -->
<g id="node3" class="node"><title>Node7</title>
<g id="a_node3"><a xlink:href="class_little_weeb_library_1_1_handlers_1_1_irc_client_handler.html#a265ca021f5086addf758e87f59a0aa11" target="_top" xlink:title="LittleWeebLibrary.Handlers.\lIrcClientHandler.StopDownload">
<polygon fill="white" stroke="black" points="343.5,-147.5 343.5,-177.5 493.5,-177.5 493.5,-147.5 343.5,-147.5"/>
<text text-anchor="start" x="351.5" y="-165.5" font-family="Helvetica,sans-Serif" font-size="10.00">LittleWeebLibrary.Handlers.</text>
<text text-anchor="middle" x="418.5" y="-154.5" font-family="Helvetica,sans-Serif" font-size="10.00">IrcClientHandler.StopDownload</text>
</a>
</g>
</g>
<!-- Node6&#45;&gt;Node7 -->
<g id="edge2" class="edge"><title>Node6&#45;&gt;Node7</title>
<path fill="none" stroke="midnightblue" d="M248.344,-98.0899C270.255,-108.745 307.186,-126.082 340,-138.5 345.105,-140.432 350.44,-142.329 355.818,-144.157"/>
<polygon fill="midnightblue" stroke="midnightblue" points="354.914,-147.544 365.507,-147.366 357.115,-140.899 354.914,-147.544"/>
</g>
<!-- Node9 -->
<g id="node5" class="node"><title>Node9</title>
<g id="a_node5"><a xlink:href="class_little_weeb_library_1_1_handlers_1_1_irc_client_handler.html#a97a617b50a161906a91ce1ea483a1770" target="_top" xlink:title="LittleWeebLibrary.Handlers.\lIrcClientHandler.StopConnection">
<polygon fill="white" stroke="black" points="340,-98.5 340,-128.5 497,-128.5 497,-98.5 340,-98.5"/>
<text text-anchor="start" x="348" y="-116.5" font-family="Helvetica,sans-Serif" font-size="10.00">LittleWeebLibrary.Handlers.</text>
<text text-anchor="middle" x="418.5" y="-105.5" font-family="Helvetica,sans-Serif" font-size="10.00">IrcClientHandler.StopConnection</text>
</a>
</g>
</g>
<!-- Node6&#45;&gt;Node9 -->
<g id="edge4" class="edge"><title>Node6&#45;&gt;Node9</title>
<path fill="none" stroke="midnightblue" d="M300.802,-98.0227C310.299,-99.2824 320.12,-100.585 329.847,-101.875"/>
<polygon fill="midnightblue" stroke="midnightblue" points="329.559,-105.367 339.932,-103.212 330.479,-98.428 329.559,-105.367"/>
</g>
<!-- Node10 -->
<g id="node6" class="node"><title>Node10</title>
<g id="a_node6"><a xlink:href="class_little_weeb_library_1_1_handlers_1_1_download_handler.html#a8fd807f023ed25e031844da3927e1a23" target="_top" xlink:title="LittleWeebLibrary.Handlers.\lDownloadHandler.StopQueue">
<polygon fill="white" stroke="black" points="347,-0.5 347,-30.5 490,-30.5 490,-0.5 347,-0.5"/>
<text text-anchor="start" x="355" y="-18.5" font-family="Helvetica,sans-Serif" font-size="10.00">LittleWeebLibrary.Handlers.</text>
<text text-anchor="middle" x="418.5" y="-7.5" font-family="Helvetica,sans-Serif" font-size="10.00">DownloadHandler.StopQueue</text>
</a>
</g>
</g>
<!-- Node6&#45;&gt;Node10 -->
<g id="edge6" class="edge"><title>Node6&#45;&gt;Node10</title>
<path fill="none" stroke="midnightblue" d="M249.623,-78.8727C271.729,-68.7212 307.972,-52.5588 340,-40.5 345.991,-38.2443 352.287,-36.0044 358.594,-33.8453"/>
<polygon fill="midnightblue" stroke="midnightblue" points="360.104,-37.0302 368.469,-30.5283 357.875,-30.3945 360.104,-37.0302"/>
</g>
<!-- Node12 -->
<g id="node8" class="node"><title>Node12</title>
<g id="a_node8"><a xlink:href="class_little_weeb_library_1_1_handlers_1_1_web_socket_handler.html#abcd87ac26780369b500299fc12aa0039" target="_top" xlink:title="LittleWeebLibrary.Handlers.\lWebSocketHandler.StopServer">
<polygon fill="white" stroke="black" points="343,-49.5 343,-79.5 494,-79.5 494,-49.5 343,-49.5"/>
<text text-anchor="start" x="351" y="-67.5" font-family="Helvetica,sans-Serif" font-size="10.00">LittleWeebLibrary.Handlers.</text>
<text text-anchor="middle" x="418.5" y="-56.5" font-family="Helvetica,sans-Serif" font-size="10.00">WebSocketHandler.StopServer</text>
</a>
</g>
</g>
<!-- Node6&#45;&gt;Node12 -->
<g id="edge9" class="edge"><title>Node6&#45;&gt;Node12</title>
<path fill="none" stroke="midnightblue" d="M303.771,-78.9801C313.307,-77.7659 323.121,-76.5164 332.8,-75.2841"/>
<polygon fill="midnightblue" stroke="midnightblue" points="333.342,-78.7435 342.82,-74.0084 332.458,-71.7995 333.342,-78.7435"/>
</g>
<!-- Node8 -->
<g id="node4" class="node"><title>Node8</title>
<g id="a_node4"><a xlink:href="class_little_weeb_library_1_1_handlers_1_1_debug_handler.html#afccb37dfd6b2114af72000c2f4fe4607" target="_top" xlink:title="LittleWeebLibrary.Handlers.\lDebugHandler.TraceMessage">
<polygon fill="white" stroke="black" points="533,-73.5 533,-103.5 677,-103.5 677,-73.5 533,-73.5"/>
<text text-anchor="start" x="541" y="-91.5" font-family="Helvetica,sans-Serif" font-size="10.00">LittleWeebLibrary.Handlers.</text>
<text text-anchor="middle" x="605" y="-80.5" font-family="Helvetica,sans-Serif" font-size="10.00">DebugHandler.TraceMessage</text>
</a>
</g>
</g>
<!-- Node7&#45;&gt;Node8 -->
<g id="edge3" class="edge"><title>Node7&#45;&gt;Node8</title>
<path fill="none" stroke="midnightblue" d="M471.531,-147.464C480.108,-144.678 488.854,-141.648 497,-138.5 520.116,-129.568 545.254,-117.926 565.353,-108.123"/>
<polygon fill="midnightblue" stroke="midnightblue" points="567.069,-111.179 574.495,-103.622 563.977,-104.899 567.069,-111.179"/>
</g>
<!-- Node9&#45;&gt;Node8 -->
<g id="edge5" class="edge"><title>Node9&#45;&gt;Node8</title>
<path fill="none" stroke="midnightblue" d="M497.21,-102.97C505.704,-101.819 514.367,-100.645 522.9,-99.4891"/>
<polygon fill="midnightblue" stroke="midnightblue" points="523.401,-102.953 532.841,-98.1422 522.461,-96.0167 523.401,-102.953"/>
</g>
<!-- Node10&#45;&gt;Node8 -->
<g id="edge7" class="edge"><title>Node10&#45;&gt;Node8</title>
<path fill="none" stroke="midnightblue" d="M468.982,-30.5663C478.352,-33.6714 488.026,-37.0517 497,-40.5 519.212,-49.0353 543.445,-59.7818 563.224,-68.9415"/>
<polygon fill="midnightblue" stroke="midnightblue" points="562.005,-72.2353 572.547,-73.294 564.966,-65.8924 562.005,-72.2353"/>
</g>
<!-- Node11 -->
<g id="node7" class="node"><title>Node11</title>
<g id="a_node7"><a xlink:href="class_little_weeb_library_1_1_models_1_1_json_success.html#aa0e750a34606497266e5a4aedc03cdeb" target="_top" xlink:title="LittleWeebLibrary.Models.\lJsonSuccess.ToJObject">
<polygon fill="white" stroke="black" points="540,-0.5 540,-30.5 670,-30.5 670,-0.5 540,-0.5"/>
<text text-anchor="start" x="548" y="-18.5" font-family="Helvetica,sans-Serif" font-size="10.00">LittleWeebLibrary.Models.</text>
<text text-anchor="middle" x="605" y="-7.5" font-family="Helvetica,sans-Serif" font-size="10.00">JsonSuccess.ToJObject</text>
</a>
</g>
</g>
<!-- Node10&#45;&gt;Node11 -->
<g id="edge8" class="edge"><title>Node10&#45;&gt;Node11</title>
<path fill="none" stroke="midnightblue" d="M490.041,-15.5C502.965,-15.5 516.491,-15.5 529.525,-15.5"/>
<polygon fill="midnightblue" stroke="midnightblue" points="529.852,-19.0001 539.852,-15.5 529.852,-12.0001 529.852,-19.0001"/>
</g>
<!-- Node12&#45;&gt;Node8 -->
<g id="edge10" class="edge"><title>Node12&#45;&gt;Node8</title>
<path fill="none" stroke="midnightblue" d="M494.011,-74.1925C503.512,-75.4284 513.274,-76.6983 522.873,-77.9469"/>
<polygon fill="midnightblue" stroke="midnightblue" points="522.431,-81.4189 532.799,-79.2381 523.335,-74.4773 522.431,-81.4189"/>
</g>
</g>
</svg>
        <g id="navigator" transform="translate(0 0)" fill="#404254">
                <rect fill="#f2f5e9" fill-opacity="0.5" stroke="#606060" stroke-width=".5" x="0" y="0" width="60" height="60"/>
                <use id="zoomplus" xlink:href="#zoomPlus" x="17" y="9" onmousedown="handleZoom(evt,'in')"/>
                <use id="zoomminus" xlink:href="#zoomMin" x="42" y="9" onmousedown="handleZoom(evt,'out')"/>
                <use id="reset" xlink:href="#resetDef" x="30" y="36" onmousedown="handleReset()"/>
                <g id="arrowUp" xlink:href="#dirArrow" transform="translate(30 24)" onmousedown="handlePan(0,-1)">
                  <use xlink:href="#rim" fill="#404040">
                        <set attributeName="fill" to="#808080" begin="arrowUp.mouseover" end="arrowUp.mouseout"/>
                  </use>
                  <path fill="none" stroke="white" stroke-width="1.5" d="M0,-3.0v7 M-2.5,-0.5L0,-3.0L2.5,-0.5"/>
                </g>
                <g id="arrowRight" xlink:href="#dirArrow" transform="rotate(90) translate(36 -43)" onmousedown="handlePan(1,0)">
                  <use xlink:href="#rim" fill="#404040">
                        <set attributeName="fill" to="#808080" begin="arrowRight.mouseover" end="arrowRight.mouseout"/>
                  </use>
                  <path fill="none" stroke="white" stroke-width="1.5" d="M0,-3.0v7 M-2.5,-0.5L0,-3.0L2.5,-0.5"/>
                </g>
                <g id="arrowDown" xlink:href="#dirArrow" transform="rotate(180) translate(-30 -48)" onmousedown="handlePan(0,1)">
                  <use xlink:href="#rim" fill="#404040">
                        <set attributeName="fill" to="#808080" begin="arrowDown.mouseover" end="arrowDown.mouseout"/>
                  </use>
                  <path fill="none" stroke="white" stroke-width="1.5" d="M0,-3.0v7 M-2.5,-0.5L0,-3.0L2.5,-0.5"/>
                </g>
                <g id="arrowLeft" xlink:href="#dirArrow" transform="rotate(270) translate(-36 17)" onmousedown="handlePan(-1,0)">
                  <use xlink:href="#rim" fill="#404040">
                        <set attributeName="fill" to="#808080" begin="arrowLeft.mouseover" end="arrowLeft.mouseout"/>
                  </use>
                  <path fill="none" stroke="white" stroke-width="1.5" d="M0,-3.0v7 M-2.5,-0.5L0,-3.0L2.5,-0.5"/>
                </g>
        </g>
        <svg viewBox="0 0 15 15" width="100%" height="30px" preserveAspectRatio="xMaxYMin meet">
         <g id="arrow_out" transform="scale(0.3 0.3)">
          <a xlink:href="class_little_weeb_library_1_1_little_weeb_abdb53c29265dddd9fa0a27c8bf4d50f2_cgraph_org.svg" target="_base">
           <rect id="button" ry="5" rx="5" y="6" x="6" height="38" width="38"
                fill="#f2f5e9" fill-opacity="0.5" stroke="#606060" stroke-width="1.0"/>
           <path id="arrow"
             d="M 11.500037,31.436501 C 11.940474,20.09759 22.043105,11.32322 32.158766,21.979434 L 37.068811,17.246167 C 37.068811,17.246167 37.088388,32 37.088388,32 L 22.160133,31.978069 C 22.160133,31.978069 26.997745,27.140456 26.997745,27.140456 C 18.528582,18.264221 13.291696,25.230495 11.500037,31.436501 z"
             style="fill:#404040;"/>
          </a>
         </g>
        </svg>
</svg>
