<?xml version="1.0" encoding="UTF-8" standalone="no"?>
<!DOCTYPE svg PUBLIC "-//W3C//DTD SVG 1.1//EN"
 "http://www.w3.org/Graphics/SVG/1.1/DTD/svg11.dtd">
<!-- Generated by graphviz version 2.38.0 (20140413.2041)
 -->
<!-- Title: LittleWeebLibrary.StaticClasses.UtilityMethods.GetFreeSpaceKbits Pages: 1 -->
<svg width="826pt" height="137pt"
 viewBox="0.00 0.00 826.00 137.00" xmlns="http://www.w3.org/2000/svg" xmlns:xlink="http://www.w3.org/1999/xlink">
<g id="graph0" class="graph" transform="scale(1 1) rotate(0) translate(4 133)">
<title>LittleWeebLibrary.StaticClasses.UtilityMethods.GetFreeSpaceKbits</title>
<polygon fill="white" stroke="none" points="-4,4 -4,-133 822,-133 822,4 -4,4"/>
<!-- Node20 -->
<g id="node1" class="node"><title>Node20</title>
<polygon fill="#bfbfbf" stroke="black" points="0,-44 0,-85 155,-85 155,-44 0,-44"/>
<text text-anchor="start" x="8" y="-73" font-family="Helvetica,sans-Serif" font-size="10.00">LittleWeebLibrary.Static</text>
<text text-anchor="start" x="8" y="-62" font-family="Helvetica,sans-Serif" font-size="10.00">Classes.UtilityMethods.GetFree</text>
<text text-anchor="middle" x="77.5" y="-51" font-family="Helvetica,sans-Serif" font-size="10.00">SpaceKbits</text>
</g>
<!-- Node21 -->
<g id="node2" class="node"><title>Node21</title>
<g id="a_node2"><a xlink:href="class_little_weeb_library_1_1_handlers_1_1_download_handler.html#ad28cb47c19cac5e761ceff86ea021a02" target="_top" xlink:title="LittleWeebLibrary.Handlers.\lDownloadHandler.AddDownload">
<polygon fill="white" stroke="black" points="193.5,-98.5 193.5,-128.5 347.5,-128.5 347.5,-98.5 193.5,-98.5"/>
<text text-anchor="start" x="201.5" y="-116.5" font-family="Helvetica,sans-Serif" font-size="10.00">LittleWeebLibrary.Handlers.</text>
<text text-anchor="middle" x="270.5" y="-105.5" font-family="Helvetica,sans-Serif" font-size="10.00">DownloadHandler.AddDownload</text>
</a>
</g>
</g>
<!-- Node20&#45;&gt;Node21 -->
<g id="edge1" class="edge"><title>Node20&#45;&gt;Node21</title>
<path fill="none" stroke="midnightblue" d="M165.18,-86.7373C180.634,-90.7019 196.399,-94.7463 210.837,-98.4503"/>
<polygon fill="midnightblue" stroke="midnightblue" points="165.643,-83.2427 155.086,-84.1478 163.903,-90.0231 165.643,-83.2427"/>
</g>
<!-- Node24 -->
<g id="node5" class="node"><title>Node24</title>
<g id="a_node5"><a xlink:href="class_little_weeb_library_1_1_handlers_1_1_download_handler.html#ac03f2dc024c0884bb7bd1c68ee03142e" target="_top" xlink:title="LittleWeebLibrary.Handlers.\lDownloadHandler.AddDownloads">
<polygon fill="white" stroke="black" points="191,-49.5 191,-79.5 350,-79.5 350,-49.5 191,-49.5"/>
<text text-anchor="start" x="199" y="-67.5" font-family="Helvetica,sans-Serif" font-size="10.00">LittleWeebLibrary.Handlers.</text>
<text text-anchor="middle" x="270.5" y="-56.5" font-family="Helvetica,sans-Serif" font-size="10.00">DownloadHandler.AddDownloads</text>
</a>
</g>
</g>
<!-- Node20&#45;&gt;Node24 -->
<g id="edge4" class="edge"><title>Node20&#45;&gt;Node24</title>
<path fill="none" stroke="midnightblue" d="M165.338,-64.5C173.794,-64.5 182.342,-64.5 190.712,-64.5"/>
<polygon fill="midnightblue" stroke="midnightblue" points="165.087,-61.0001 155.086,-64.5 165.086,-68.0001 165.087,-61.0001"/>
</g>
<!-- Node26 -->
<g id="node7" class="node"><title>Node26</title>
<g id="a_node7"><a xlink:href="class_little_weeb_library_1_1_handlers_1_1_directory_handler.html#aa439a303572de6bf09438d38a7fa4698" target="_top" xlink:title="LittleWeebLibrary.Handlers.\lDirectoryHandler.GetFreeSpace">
<polygon fill="white" stroke="black" points="193,-0.5 193,-30.5 348,-30.5 348,-0.5 193,-0.5"/>
<text text-anchor="start" x="201" y="-18.5" font-family="Helvetica,sans-Serif" font-size="10.00">LittleWeebLibrary.Handlers.</text>
<text text-anchor="middle" x="270.5" y="-7.5" font-family="Helvetica,sans-Serif" font-size="10.00">DirectoryHandler.GetFreeSpace</text>
</a>
</g>
</g>
<!-- Node20&#45;&gt;Node26 -->
<g id="edge7" class="edge"><title>Node20&#45;&gt;Node26</title>
<path fill="none" stroke="midnightblue" d="M165.18,-42.2627C180.634,-38.2981 196.399,-34.2537 210.837,-30.5497"/>
<polygon fill="midnightblue" stroke="midnightblue" points="163.903,-38.9769 155.086,-44.8522 165.643,-45.7573 163.903,-38.9769"/>
</g>
<!-- Node22 -->
<g id="node3" class="node"><title>Node22</title>
<g id="a_node3"><a xlink:href="class_little_weeb_library_1_1_services_1_1_download_web_socket_service.html#a7aaa1db63ee81a2e5246e45ef8643087" target="_top" xlink:title="LittleWeebLibrary.Services.\lDownloadWebSocketService.AddDownload">
<polygon fill="white" stroke="black" points="389,-98.5 389,-128.5 592,-128.5 592,-98.5 389,-98.5"/>
<text text-anchor="start" x="397" y="-116.5" font-family="Helvetica,sans-Serif" font-size="10.00">LittleWeebLibrary.Services.</text>
<text text-anchor="middle" x="490.5" y="-105.5" font-family="Helvetica,sans-Serif" font-size="10.00">DownloadWebSocketService.AddDownload</text>
</a>
</g>
</g>
<!-- Node21&#45;&gt;Node22 -->
<g id="edge2" class="edge"><title>Node21&#45;&gt;Node22</title>
<path fill="none" stroke="midnightblue" d="M357.811,-113.5C367.982,-113.5 378.429,-113.5 388.776,-113.5"/>
<polygon fill="midnightblue" stroke="midnightblue" points="357.746,-110 347.746,-113.5 357.746,-117 357.746,-110"/>
</g>
<!-- Node23 -->
<g id="node4" class="node"><title>Node23</title>
<g id="a_node4"><a xlink:href="class_little_weeb_library_1_1_controllers_1_1_download_web_socket_controller.html#a9e5e421ed57b8b2a294e17d93d027c53" target="_top" xlink:title="LittleWeebLibrary.Controllers.\lDownloadWebSocketController.OnWeb\lSocketEvent">
<polygon fill="white" stroke="black" points="631,-44 631,-85 818,-85 818,-44 631,-44"/>
<text text-anchor="start" x="639" y="-73" font-family="Helvetica,sans-Serif" font-size="10.00">LittleWeebLibrary.Controllers.</text>
<text text-anchor="start" x="639" y="-62" font-family="Helvetica,sans-Serif" font-size="10.00">DownloadWebSocketController.OnWeb</text>
<text text-anchor="middle" x="724.5" y="-51" font-family="Helvetica,sans-Serif" font-size="10.00">SocketEvent</text>
</a>
</g>
</g>
<!-- Node22&#45;&gt;Node23 -->
<g id="edge3" class="edge"><title>Node22&#45;&gt;Node23</title>
<path fill="none" stroke="midnightblue" d="M572.641,-96.3626C591.371,-92.4067 611.437,-88.1684 630.624,-84.116"/>
<polygon fill="midnightblue" stroke="midnightblue" points="571.745,-92.9744 562.684,-98.4654 573.192,-99.8233 571.745,-92.9744"/>
</g>
<!-- Node25 -->
<g id="node6" class="node"><title>Node25</title>
<g id="a_node6"><a xlink:href="class_little_weeb_library_1_1_services_1_1_download_web_socket_service.html#ad6afd5ee42650d16c67790c6d2ac80c1" target="_top" xlink:title="LittleWeebLibrary.Services.\lDownloadWebSocketService.AddDownloads">
<polygon fill="white" stroke="black" points="386,-49.5 386,-79.5 595,-79.5 595,-49.5 386,-49.5"/>
<text text-anchor="start" x="394" y="-67.5" font-family="Helvetica,sans-Serif" font-size="10.00">LittleWeebLibrary.Services.</text>
<text text-anchor="middle" x="490.5" y="-56.5" font-family="Helvetica,sans-Serif" font-size="10.00">DownloadWebSocketService.AddDownloads</text>
</a>
</g>
</g>
<!-- Node24&#45;&gt;Node25 -->
<g id="edge5" class="edge"><title>Node24&#45;&gt;Node25</title>
<path fill="none" stroke="midnightblue" d="M360.361,-64.5C368.767,-64.5 377.339,-64.5 385.867,-64.5"/>
<polygon fill="midnightblue" stroke="midnightblue" points="360.203,-61.0001 350.203,-64.5 360.203,-68.0001 360.203,-61.0001"/>
</g>
<!-- Node25&#45;&gt;Node23 -->
<g id="edge6" class="edge"><title>Node25&#45;&gt;Node23</title>
<path fill="none" stroke="midnightblue" d="M605.291,-64.5C613.83,-64.5 622.385,-64.5 630.771,-64.5"/>
<polygon fill="midnightblue" stroke="midnightblue" points="605.286,-61.0001 595.286,-64.5 605.286,-68.0001 605.286,-61.0001"/>
</g>
<!-- Node27 -->
<g id="node8" class="node"><title>Node27</title>
<g id="a_node8"><a xlink:href="class_little_weeb_library_1_1_services_1_1_directory_web_socket_service.html#a37c3c5de12db8083e8e6d22ce1fe6776" target="_top" xlink:title="LittleWeebLibrary.Services.\lDirectoryWebSocketService.GetFreeSpace">
<polygon fill="white" stroke="black" points="388.5,-0.5 388.5,-30.5 592.5,-30.5 592.5,-0.5 388.5,-0.5"/>
<text text-anchor="start" x="396.5" y="-18.5" font-family="Helvetica,sans-Serif" font-size="10.00">LittleWeebLibrary.Services.</text>
<text text-anchor="middle" x="490.5" y="-7.5" font-family="Helvetica,sans-Serif" font-size="10.00">DirectoryWebSocketService.GetFreeSpace</text>
</a>
</g>
</g>
<!-- Node26&#45;&gt;Node27 -->
<g id="edge8" class="edge"><title>Node26&#45;&gt;Node27</title>
<path fill="none" stroke="midnightblue" d="M358.231,-15.5C368.101,-15.5 378.226,-15.5 388.262,-15.5"/>
<polygon fill="midnightblue" stroke="midnightblue" points="358.052,-12.0001 348.052,-15.5 358.052,-19.0001 358.052,-12.0001"/>
</g>
<!-- Node27&#45;&gt;Node23 -->
<g id="edge9" class="edge"><title>Node27&#45;&gt;Node23</title>
<path fill="none" stroke="midnightblue" d="M572.641,-32.6374C591.371,-36.5933 611.437,-40.8316 630.624,-44.884"/>
<polygon fill="midnightblue" stroke="midnightblue" points="573.192,-29.1767 562.684,-30.5346 571.745,-36.0256 573.192,-29.1767"/>
</g>
</g>
</svg>
