<?xml version="1.0" encoding="UTF-8" standalone="no"?>
<!DOCTYPE svg PUBLIC "-//W3C//DTD SVG 1.1//EN"
 "http://www.w3.org/Graphics/SVG/1.1/DTD/svg11.dtd">
<!-- Generated by graphviz version 2.38.0 (20140413.2041)
 -->
<!-- Title: LittleWeebLibrary.Services.InfoApiWebSocketService.GetFilesForAnime Pages: 1 -->
<!--zoomable 225 -->
<svg id="main" version="1.1" xmlns="http://www.w3.org/2000/svg" xmlns:xlink="http://www.w3.org/1999/xlink" xml:space="preserve" onload="init(evt)">
<style type="text/css"><![CDATA[
.edge:hover path { stroke: red; }
.edge:hover polygon { stroke: red; fill: red; }
]]></style>
<script type="text/javascript"><![CDATA[
var edges = document.getElementsByTagName('g');
if (edges && edges.length) {
  for (var i=0;i<edges.length;i++) {
    if (edges[i].id.substr(0,4)=='edge') {
      edges[i].setAttribute('class','edge');
    }
  }
}
]]></script>
        <defs>
                <circle id="rim" cx="0" cy="0" r="7"/>
                <circle id="rim2" cx="0" cy="0" r="3.5"/>
                <g id="zoomPlus">
                        <use xlink:href="#rim" fill="#404040">
                                <set attributeName="fill" to="#808080" begin="zoomplus.mouseover" end="zoomplus.mouseout"/>
                        </use>
                        <path d="M-4,0h8M0,-4v8" fill="none" stroke="white" stroke-width="1.5" pointer-events="none"/>
                </g>
                <g id="zoomMin">
                        <use xlink:href="#rim" fill="#404040">
                                <set attributeName="fill" to="#808080" begin="zoomminus.mouseover" end="zoomminus.mouseout"/>
                        </use>
                        <path d="M-4,0h8" fill="none" stroke="white" stroke-width="1.5" pointer-events="none"/>
                </g>
                <g id="dirArrow">
                        <path fill="none" stroke="white" stroke-width="1.5" d="M0,-3.0v7 M-2.5,-0.5L0,-3.0L2.5,-0.5"/>
                </g>
               <g id="resetDef">
                       <use xlink:href="#rim2" fill="#404040">
                               <set attributeName="fill" to="#808080" begin="reset.mouseover" end="reset.mouseout"/>
                       </use>
               </g>
        </defs>

<script type="text/javascript">
var viewWidth = 558;
var viewHeight = 225;
var sectionId = 'dynsection-5';
</script>
<script xlink:href="svgpan.js"/>
<svg id="graph" class="graph">
<g id="viewport">
<title>LittleWeebLibrary.Services.InfoApiWebSocketService.GetFilesForAnime</title>
<polygon fill="white" stroke="none" points="-4,4 -4,-221 554,-221 554,4 -4,4"/>
<!-- Node20 -->
<g id="node1" class="node"><title>Node20</title>
<polygon fill="#bfbfbf" stroke="black" points="0,-93 0,-134 168,-134 168,-93 0,-93"/>
<text text-anchor="start" x="8" y="-122" font-family="Helvetica,sans-Serif" font-size="10.00">LittleWeebLibrary.Services.</text>
<text text-anchor="start" x="8" y="-111" font-family="Helvetica,sans-Serif" font-size="10.00">InfoApiWebSocketService.GetFiles</text>
<text text-anchor="middle" x="84" y="-100" font-family="Helvetica,sans-Serif" font-size="10.00">ForAnime</text>
</g>
<!-- Node21 -->
<g id="node2" class="node"><title>Node21</title>
<g id="a_node2"><a xlink:href="class_little_weeb_library_1_1_handlers_1_1_nibl_handler.html#aa5fcae94d3322123b784078727a3db67" target="_top" xlink:title="LittleWeebLibrary.Handlers.\lNiblHandler.SearchNibl">
<polygon fill="white" stroke="black" points="218.5,-186.5 218.5,-216.5 355.5,-216.5 355.5,-186.5 218.5,-186.5"/>
<text text-anchor="start" x="226.5" y="-204.5" font-family="Helvetica,sans-Serif" font-size="10.00">LittleWeebLibrary.Handlers.</text>
<text text-anchor="middle" x="287" y="-193.5" font-family="Helvetica,sans-Serif" font-size="10.00">NiblHandler.SearchNibl</text>
</a>
</g>
</g>
<!-- Node20&#45;&gt;Node21 -->
<g id="edge1" class="edge"><title>Node20&#45;&gt;Node21</title>
<path fill="none" stroke="midnightblue" d="M124.466,-134.001C147.411,-145.6 177.034,-160.032 204,-171.5 213.207,-175.416 223.117,-179.306 232.755,-182.925"/>
<polygon fill="midnightblue" stroke="midnightblue" points="231.674,-186.256 242.267,-186.443 234.102,-179.691 231.674,-186.256"/>
</g>
<!-- Node22 -->
<g id="node3" class="node"><title>Node22</title>
<g id="a_node3"><a xlink:href="class_little_weeb_library_1_1_handlers_1_1_debug_handler.html#afccb37dfd6b2114af72000c2f4fe4607" target="_top" xlink:title="LittleWeebLibrary.Handlers.\lDebugHandler.TraceMessage">
<polygon fill="white" stroke="black" points="406,-142.5 406,-172.5 550,-172.5 550,-142.5 406,-142.5"/>
<text text-anchor="start" x="414" y="-160.5" font-family="Helvetica,sans-Serif" font-size="10.00">LittleWeebLibrary.Handlers.</text>
<text text-anchor="middle" x="478" y="-149.5" font-family="Helvetica,sans-Serif" font-size="10.00">DebugHandler.TraceMessage</text>
</a>
</g>
</g>
<!-- Node20&#45;&gt;Node22 -->
<g id="edge7" class="edge"><title>Node20&#45;&gt;Node22</title>
<path fill="none" stroke="midnightblue" d="M168.291,-132.512C180.229,-134.795 192.395,-136.885 204,-138.5 267.991,-147.405 341.03,-152.211 395.449,-154.76"/>
<polygon fill="midnightblue" stroke="midnightblue" points="395.583,-158.269 405.731,-155.225 395.9,-151.276 395.583,-158.269"/>
</g>
<!-- Node23 -->
<g id="node4" class="node"><title>Node23</title>
<g id="a_node4"><a xlink:href="class_little_weeb_library_1_1_handlers_1_1_web_socket_handler.html#a1de289d54d665a32c93478c68d3e6ad0" target="_top" xlink:title="LittleWeebLibrary.Handlers.\lWebSocketHandler.SendMessage">
<polygon fill="white" stroke="black" points="204,-98.5 204,-128.5 370,-128.5 370,-98.5 204,-98.5"/>
<text text-anchor="start" x="212" y="-116.5" font-family="Helvetica,sans-Serif" font-size="10.00">LittleWeebLibrary.Handlers.</text>
<text text-anchor="middle" x="287" y="-105.5" font-family="Helvetica,sans-Serif" font-size="10.00">WebSocketHandler.SendMessage</text>
</a>
</g>
</g>
<!-- Node20&#45;&gt;Node23 -->
<g id="edge3" class="edge"><title>Node20&#45;&gt;Node23</title>
<path fill="none" stroke="midnightblue" d="M168.205,-113.5C176.575,-113.5 185.109,-113.5 193.566,-113.5"/>
<polygon fill="midnightblue" stroke="midnightblue" points="193.828,-117 203.828,-113.5 193.828,-110 193.828,-117"/>
</g>
<!-- Node24 -->
<g id="node5" class="node"><title>Node24</title>
<g id="a_node5"><a xlink:href="class_little_weeb_library_1_1_models_1_1_json_nibl_search_result.html#a0d6ce8593661ae3dab31882c85b1cff7" target="_top" xlink:title="LittleWeebLibrary.Models.\lJsonNiblSearchResult.ToJson">
<polygon fill="white" stroke="black" points="214,-49.5 214,-79.5 360,-79.5 360,-49.5 214,-49.5"/>
<text text-anchor="start" x="222" y="-67.5" font-family="Helvetica,sans-Serif" font-size="10.00">LittleWeebLibrary.Models.</text>
<text text-anchor="middle" x="287" y="-56.5" font-family="Helvetica,sans-Serif" font-size="10.00">JsonNiblSearchResult.ToJson</text>
</a>
</g>
</g>
<!-- Node20&#45;&gt;Node24 -->
<g id="edge5" class="edge"><title>Node20&#45;&gt;Node24</title>
<path fill="none" stroke="midnightblue" d="M168.205,-93.2161C183.621,-89.4581 199.596,-85.5637 214.621,-81.901"/>
<polygon fill="midnightblue" stroke="midnightblue" points="215.455,-85.3002 224.341,-79.5312 213.797,-78.4993 215.455,-85.3002"/>
</g>
<!-- Node25 -->
<g id="node6" class="node"><title>Node25</title>
<g id="a_node6"><a xlink:href="class_little_weeb_library_1_1_models_1_1_json_error.html#ad7d5522c90119111d2e929f39e7f6d3c" target="_top" xlink:title="LittleWeebLibrary.Models.\lJsonError.ToString">
<polygon fill="white" stroke="black" points="222,-0.5 222,-30.5 352,-30.5 352,-0.5 222,-0.5"/>
<text text-anchor="start" x="230" y="-18.5" font-family="Helvetica,sans-Serif" font-size="10.00">LittleWeebLibrary.Models.</text>
<text text-anchor="middle" x="287" y="-7.5" font-family="Helvetica,sans-Serif" font-size="10.00">JsonError.ToString</text>
</a>
</g>
</g>
<!-- Node20&#45;&gt;Node25 -->
<g id="edge6" class="edge"><title>Node20&#45;&gt;Node25</title>
<path fill="none" stroke="midnightblue" d="M114.16,-92.6959C137.566,-76.7294 171.734,-55.0288 204,-40.5 209.089,-38.2085 214.447,-36.0519 219.885,-34.0399"/>
<polygon fill="midnightblue" stroke="midnightblue" points="221.451,-37.1992 229.721,-30.5764 219.126,-30.5966 221.451,-37.1992"/>
</g>
<!-- Node21&#45;&gt;Node22 -->
<g id="edge2" class="edge"><title>Node21&#45;&gt;Node22</title>
<path fill="none" stroke="midnightblue" d="M352.514,-186.481C368.543,-182.749 385.856,-178.719 402.328,-174.884"/>
<polygon fill="midnightblue" stroke="midnightblue" points="403.51,-178.203 412.456,-172.526 401.922,-171.385 403.51,-178.203"/>
</g>
<!-- Node23&#45;&gt;Node22 -->
<g id="edge4" class="edge"><title>Node23&#45;&gt;Node22</title>
<path fill="none" stroke="midnightblue" d="M352.514,-128.519C368.543,-132.251 385.856,-136.281 402.328,-140.116"/>
<polygon fill="midnightblue" stroke="midnightblue" points="401.922,-143.615 412.456,-142.474 403.51,-136.797 401.922,-143.615"/>
</g>
</g>
</svg>
        <g id="navigator" transform="translate(0 0)" fill="#404254">
                <rect fill="#f2f5e9" fill-opacity="0.5" stroke="#606060" stroke-width=".5" x="0" y="0" width="60" height="60"/>
                <use id="zoomplus" xlink:href="#zoomPlus" x="17" y="9" onmousedown="handleZoom(evt,'in')"/>
                <use id="zoomminus" xlink:href="#zoomMin" x="42" y="9" onmousedown="handleZoom(evt,'out')"/>
                <use id="reset" xlink:href="#resetDef" x="30" y="36" onmousedown="handleReset()"/>
                <g id="arrowUp" xlink:href="#dirArrow" transform="translate(30 24)" onmousedown="handlePan(0,-1)">
                  <use xlink:href="#rim" fill="#404040">
                        <set attributeName="fill" to="#808080" begin="arrowUp.mouseover" end="arrowUp.mouseout"/>
                  </use>
                  <path fill="none" stroke="white" stroke-width="1.5" d="M0,-3.0v7 M-2.5,-0.5L0,-3.0L2.5,-0.5"/>
                </g>
                <g id="arrowRight" xlink:href="#dirArrow" transform="rotate(90) translate(36 -43)" onmousedown="handlePan(1,0)">
                  <use xlink:href="#rim" fill="#404040">
                        <set attributeName="fill" to="#808080" begin="arrowRight.mouseover" end="arrowRight.mouseout"/>
                  </use>
                  <path fill="none" stroke="white" stroke-width="1.5" d="M0,-3.0v7 M-2.5,-0.5L0,-3.0L2.5,-0.5"/>
                </g>
                <g id="arrowDown" xlink:href="#dirArrow" transform="rotate(180) translate(-30 -48)" onmousedown="handlePan(0,1)">
                  <use xlink:href="#rim" fill="#404040">
                        <set attributeName="fill" to="#808080" begin="arrowDown.mouseover" end="arrowDown.mouseout"/>
                  </use>
                  <path fill="none" stroke="white" stroke-width="1.5" d="M0,-3.0v7 M-2.5,-0.5L0,-3.0L2.5,-0.5"/>
                </g>
                <g id="arrowLeft" xlink:href="#dirArrow" transform="rotate(270) translate(-36 17)" onmousedown="handlePan(-1,0)">
                  <use xlink:href="#rim" fill="#404040">
                        <set attributeName="fill" to="#808080" begin="arrowLeft.mouseover" end="arrowLeft.mouseout"/>
                  </use>
                  <path fill="none" stroke="white" stroke-width="1.5" d="M0,-3.0v7 M-2.5,-0.5L0,-3.0L2.5,-0.5"/>
                </g>
        </g>
        <svg viewBox="0 0 15 15" width="100%" height="30px" preserveAspectRatio="xMaxYMin meet">
         <g id="arrow_out" transform="scale(0.3 0.3)">
          <a xlink:href="class_little_weeb_library_1_1_services_1_1_info_api_web_socket_service_a299be5b400f1368ab169599395a3e56d_cgraph_org.svg" target="_base">
           <rect id="button" ry="5" rx="5" y="6" x="6" height="38" width="38"
                fill="#f2f5e9" fill-opacity="0.5" stroke="#606060" stroke-width="1.0"/>
           <path id="arrow"
             d="M 11.500037,31.436501 C 11.940474,20.09759 22.043105,11.32322 32.158766,21.979434 L 37.068811,17.246167 C 37.068811,17.246167 37.088388,32 37.088388,32 L 22.160133,31.978069 C 22.160133,31.978069 26.997745,27.140456 26.997745,27.140456 C 18.528582,18.264221 13.291696,25.230495 11.500037,31.436501 z"
             style="fill:#404040;"/>
          </a>
         </g>
        </svg>
</svg>
