<?xml version="1.0" encoding="UTF-8" standalone="no"?>
<!DOCTYPE svg PUBLIC "-//W3C//DTD SVG 1.1//EN"
 "http://www.w3.org/Graphics/SVG/1.1/DTD/svg11.dtd">
<!-- Generated by graphviz version 2.38.0 (20140413.2041)
 -->
<!-- Title: LittleWeebLibrary.Handlers.VersionHandler.GetLatestVersionDesktop Pages: 1 -->
<svg width="649pt" height="50pt"
 viewBox="0.00 0.00 649.00 50.00" xmlns="http://www.w3.org/2000/svg" xmlns:xlink="http://www.w3.org/1999/xlink">
<g id="graph0" class="graph" transform="scale(1 1) rotate(0) translate(4 46)">
<title>LittleWeebLibrary.Handlers.VersionHandler.GetLatestVersionDesktop</title>
<polygon fill="white" stroke="none" points="-4,4 -4,-46 645,-46 645,4 -4,4"/>
<!-- Node6 -->
<g id="node1" class="node"><title>Node6</title>
<polygon fill="#bfbfbf" stroke="black" points="0,-0.5 0,-41.5 161,-41.5 161,-0.5 0,-0.5"/>
<text text-anchor="start" x="8" y="-29.5" font-family="Helvetica,sans-Serif" font-size="10.00">LittleWeebLibrary.Handlers.</text>
<text text-anchor="start" x="8" y="-18.5" font-family="Helvetica,sans-Serif" font-size="10.00">VersionHandler.GetLatestVersion</text>
<text text-anchor="middle" x="80.5" y="-7.5" font-family="Helvetica,sans-Serif" font-size="10.00">Desktop</text>
</g>
<!-- Node7 -->
<g id="node2" class="node"><title>Node7</title>
<g id="a_node2"><a xlink:href="class_little_weeb_library_1_1_services_1_1_version_web_socket_service.html#af1a64a24e2d1b2299b82ba81b3c4a537" target="_top" xlink:title="LittleWeebLibrary.Services.\lVersionWebSocketService.CheckVersion">
<polygon fill="white" stroke="black" points="197,-6 197,-36 393,-36 393,-6 197,-6"/>
<text text-anchor="start" x="205" y="-24" font-family="Helvetica,sans-Serif" font-size="10.00">LittleWeebLibrary.Services.</text>
<text text-anchor="middle" x="295" y="-13" font-family="Helvetica,sans-Serif" font-size="10.00">VersionWebSocketService.CheckVersion</text>
</a>
</g>
</g>
<!-- Node6&#45;&gt;Node7 -->
<g id="edge1" class="edge"><title>Node6&#45;&gt;Node7</title>
<path fill="none" stroke="midnightblue" d="M171.442,-21C179.881,-21 188.462,-21 196.963,-21"/>
<polygon fill="midnightblue" stroke="midnightblue" points="171.232,-17.5001 161.232,-21 171.232,-24.5001 171.232,-17.5001"/>
</g>
<!-- Node8 -->
<g id="node3" class="node"><title>Node8</title>
<g id="a_node3"><a xlink:href="class_little_weeb_library_1_1_controllers_1_1_sub_controllers_1_1_version_web_socket_controller.html#aecbfb94508db51693b11ea8dba9cf7e9" target="_top" xlink:title="LittleWeebLibrary.Controllers.\lSubControllers.VersionWebSocketController.\lOnWebSocketEvent">
<polygon fill="white" stroke="black" points="429,-0.5 429,-41.5 641,-41.5 641,-0.5 429,-0.5"/>
<text text-anchor="start" x="437" y="-29.5" font-family="Helvetica,sans-Serif" font-size="10.00">LittleWeebLibrary.Controllers.</text>
<text text-anchor="start" x="437" y="-18.5" font-family="Helvetica,sans-Serif" font-size="10.00">SubControllers.VersionWebSocketController.</text>
<text text-anchor="middle" x="535" y="-7.5" font-family="Helvetica,sans-Serif" font-size="10.00">OnWebSocketEvent</text>
</a>
</g>
</g>
<!-- Node7&#45;&gt;Node8 -->
<g id="edge2" class="edge"><title>Node7&#45;&gt;Node8</title>
<path fill="none" stroke="midnightblue" d="M403.352,-21C411.759,-21 420.245,-21 428.639,-21"/>
<polygon fill="midnightblue" stroke="midnightblue" points="403.147,-17.5001 393.147,-21 403.147,-24.5001 403.147,-17.5001"/>
</g>
</g>
</svg>
