<?xml version="1.0" encoding="UTF-8" standalone="no"?>
<!DOCTYPE svg PUBLIC "-//W3C//DTD SVG 1.1//EN"
 "http://www.w3.org/Graphics/SVG/1.1/DTD/svg11.dtd">
<!-- Generated by graphviz version 2.38.0 (20140413.2041)
 -->
<!-- Title: LittleWeebLibrary.Handlers.KitsuHandler.GetAllCategories Pages: 1 -->
<svg width="642pt" height="50pt"
 viewBox="0.00 0.00 642.00 50.00" xmlns="http://www.w3.org/2000/svg" xmlns:xlink="http://www.w3.org/1999/xlink">
<g id="graph0" class="graph" transform="scale(1 1) rotate(0) translate(4 46)">
<title>LittleWeebLibrary.Handlers.KitsuHandler.GetAllCategories</title>
<polygon fill="white" stroke="none" points="-4,4 -4,-46 638,-46 638,4 -4,4"/>
<!-- Node46 -->
<g id="node1" class="node"><title>Node46</title>
<polygon fill="#bfbfbf" stroke="black" points="0,-6 0,-36 149,-36 149,-6 0,-6"/>
<text text-anchor="start" x="8" y="-24" font-family="Helvetica,sans-Serif" font-size="10.00">LittleWeebLibrary.Handlers.</text>
<text text-anchor="middle" x="74.5" y="-13" font-family="Helvetica,sans-Serif" font-size="10.00">KitsuHandler.GetAllCategories</text>
</g>
<!-- Node47 -->
<g id="node2" class="node"><title>Node47</title>
<g id="a_node2"><a xlink:href="class_little_weeb_library_1_1_services_1_1_info_api_web_socket_service.html#a310f91aba5d17d8202aea81442da2545" target="_top" xlink:title="LittleWeebLibrary.Services.\lInfoApiWebSocketService.GetAllCategories">
<polygon fill="white" stroke="black" points="185,-6 185,-36 390,-36 390,-6 185,-6"/>
<text text-anchor="start" x="193" y="-24" font-family="Helvetica,sans-Serif" font-size="10.00">LittleWeebLibrary.Services.</text>
<text text-anchor="middle" x="287.5" y="-13" font-family="Helvetica,sans-Serif" font-size="10.00">InfoApiWebSocketService.GetAllCategories</text>
</a>
</g>
</g>
<!-- Node46&#45;&gt;Node47 -->
<g id="edge1" class="edge"><title>Node46&#45;&gt;Node47</title>
<path fill="none" stroke="midnightblue" d="M159.132,-21C167.528,-21 176.118,-21 184.675,-21"/>
<polygon fill="midnightblue" stroke="midnightblue" points="159.001,-17.5001 149.001,-21 159.001,-24.5001 159.001,-17.5001"/>
</g>
<!-- Node48 -->
<g id="node3" class="node"><title>Node48</title>
<g id="a_node3"><a xlink:href="class_little_weeb_library_1_1_controllers_1_1_sub_controllers_1_1_info_api_web_socket_controller.html#ad620537574b819085ff8eb394add2912" target="_top" xlink:title="LittleWeebLibrary.Controllers.\lSubControllers.InfoApiWebSocketController.\lOnWebSocketEvent">
<polygon fill="white" stroke="black" points="426,-0.5 426,-41.5 634,-41.5 634,-0.5 426,-0.5"/>
<text text-anchor="start" x="434" y="-29.5" font-family="Helvetica,sans-Serif" font-size="10.00">LittleWeebLibrary.Controllers.</text>
<text text-anchor="start" x="434" y="-18.5" font-family="Helvetica,sans-Serif" font-size="10.00">SubControllers.InfoApiWebSocketController.</text>
<text text-anchor="middle" x="530" y="-7.5" font-family="Helvetica,sans-Serif" font-size="10.00">OnWebSocketEvent</text>
</a>
</g>
</g>
<!-- Node47&#45;&gt;Node48 -->
<g id="edge2" class="edge"><title>Node47&#45;&gt;Node48</title>
<path fill="none" stroke="midnightblue" d="M400.423,-21C408.881,-21 417.394,-21 425.793,-21"/>
<polygon fill="midnightblue" stroke="midnightblue" points="400.145,-17.5001 390.145,-21 400.145,-24.5001 400.145,-17.5001"/>
</g>
</g>
</svg>
