<?xml version="1.0" encoding="UTF-8" standalone="no"?>
<!DOCTYPE svg PUBLIC "-//W3C//DTD SVG 1.1//EN"
 "http://www.w3.org/Graphics/SVG/1.1/DTD/svg11.dtd">
<!-- Generated by graphviz version 2.38.0 (20140413.2041)
 -->
<!-- Title: LittleWeebLibrary.Services.InfoApiWebSocketService.SearchKitsu Pages: 1 -->
<svg width="575pt" height="176pt"
 viewBox="0.00 0.00 575.00 176.00" xmlns="http://www.w3.org/2000/svg" xmlns:xlink="http://www.w3.org/1999/xlink">
<g id="graph0" class="graph" transform="scale(1 1) rotate(0) translate(4 172)">
<title>LittleWeebLibrary.Services.InfoApiWebSocketService.SearchKitsu</title>
<polygon fill="white" stroke="none" points="-4,4 -4,-172 571,-172 571,4 -4,4"/>
<!-- Node80 -->
<g id="node1" class="node"><title>Node80</title>
<polygon fill="#bfbfbf" stroke="black" points="0,-71.5 0,-101.5 185,-101.5 185,-71.5 0,-71.5"/>
<text text-anchor="start" x="8" y="-89.5" font-family="Helvetica,sans-Serif" font-size="10.00">LittleWeebLibrary.Services.</text>
<text text-anchor="middle" x="92.5" y="-78.5" font-family="Helvetica,sans-Serif" font-size="10.00">InfoApiWebSocketService.SearchKitsu</text>
</g>
<!-- Node81 -->
<g id="node2" class="node"><title>Node81</title>
<g id="a_node2"><a xlink:href="class_little_weeb_library_1_1_handlers_1_1_kitsu_handler.html#a92f121e8fec8cce5ffe0454d3a17c156" target="_top" xlink:title="LittleWeebLibrary.Handlers.\lKitsuHandler.SearchAnime">
<polygon fill="white" stroke="black" points="235.5,-137.5 235.5,-167.5 372.5,-167.5 372.5,-137.5 235.5,-137.5"/>
<text text-anchor="start" x="243.5" y="-155.5" font-family="Helvetica,sans-Serif" font-size="10.00">LittleWeebLibrary.Handlers.</text>
<text text-anchor="middle" x="304" y="-144.5" font-family="Helvetica,sans-Serif" font-size="10.00">KitsuHandler.SearchAnime</text>
</a>
</g>
</g>
<!-- Node80&#45;&gt;Node81 -->
<g id="edge1" class="edge"><title>Node80&#45;&gt;Node81</title>
<path fill="none" stroke="midnightblue" d="M141.301,-101.559C172.164,-111.282 212.503,-123.99 245.17,-134.281"/>
<polygon fill="midnightblue" stroke="midnightblue" points="244.453,-137.725 255.042,-137.392 246.556,-131.048 244.453,-137.725"/>
</g>
<!-- Node82 -->
<g id="node3" class="node"><title>Node82</title>
<g id="a_node3"><a xlink:href="class_little_weeb_library_1_1_handlers_1_1_debug_handler.html#afccb37dfd6b2114af72000c2f4fe4607" target="_top" xlink:title="LittleWeebLibrary.Handlers.\lDebugHandler.TraceMessage">
<polygon fill="white" stroke="black" points="423,-93.5 423,-123.5 567,-123.5 567,-93.5 423,-93.5"/>
<text text-anchor="start" x="431" y="-111.5" font-family="Helvetica,sans-Serif" font-size="10.00">LittleWeebLibrary.Handlers.</text>
<text text-anchor="middle" x="495" y="-100.5" font-family="Helvetica,sans-Serif" font-size="10.00">DebugHandler.TraceMessage</text>
</a>
</g>
</g>
<!-- Node80&#45;&gt;Node82 -->
<g id="edge6" class="edge"><title>Node80&#45;&gt;Node82</title>
<path fill="none" stroke="midnightblue" d="M185.132,-91.5335C253.625,-95.2959 346.427,-100.394 412.381,-104.017"/>
<polygon fill="midnightblue" stroke="midnightblue" points="412.551,-107.531 422.728,-104.585 412.935,-100.542 412.551,-107.531"/>
</g>
<!-- Node83 -->
<g id="node4" class="node"><title>Node83</title>
<g id="a_node4"><a xlink:href="class_little_weeb_library_1_1_handlers_1_1_web_socket_handler.html#a1de289d54d665a32c93478c68d3e6ad0" target="_top" xlink:title="LittleWeebLibrary.Handlers.\lWebSocketHandler.SendMessage">
<polygon fill="white" stroke="black" points="221,-49.5 221,-79.5 387,-79.5 387,-49.5 221,-49.5"/>
<text text-anchor="start" x="229" y="-67.5" font-family="Helvetica,sans-Serif" font-size="10.00">LittleWeebLibrary.Handlers.</text>
<text text-anchor="middle" x="304" y="-56.5" font-family="Helvetica,sans-Serif" font-size="10.00">WebSocketHandler.SendMessage</text>
</a>
</g>
</g>
<!-- Node80&#45;&gt;Node83 -->
<g id="edge3" class="edge"><title>Node80&#45;&gt;Node83</title>
<path fill="none" stroke="midnightblue" d="M185.085,-76.8825C193.632,-75.985 202.297,-75.075 210.849,-74.1769"/>
<polygon fill="midnightblue" stroke="midnightblue" points="211.243,-77.6549 220.822,-73.1296 210.512,-70.6932 211.243,-77.6549"/>
</g>
<!-- Node84 -->
<g id="node5" class="node"><title>Node84</title>
<g id="a_node5"><a xlink:href="class_little_weeb_library_1_1_models_1_1_json_kistu_search_result.html#a6adca32faf08b7fb63c9f469ab3fbcae" target="_top" xlink:title="LittleWeebLibrary.Models.\lJsonKistuSearchResult.ToJson">
<polygon fill="white" stroke="black" points="228,-0.5 228,-30.5 380,-30.5 380,-0.5 228,-0.5"/>
<text text-anchor="start" x="236" y="-18.5" font-family="Helvetica,sans-Serif" font-size="10.00">LittleWeebLibrary.Models.</text>
<text text-anchor="middle" x="304" y="-7.5" font-family="Helvetica,sans-Serif" font-size="10.00">JsonKistuSearchResult.ToJson</text>
</a>
</g>
</g>
<!-- Node80&#45;&gt;Node84 -->
<g id="edge5" class="edge"><title>Node80&#45;&gt;Node84</title>
<path fill="none" stroke="midnightblue" d="M133.517,-71.4778C158.548,-62.2268 191.525,-50.3032 221,-40.5 227.893,-38.2072 235.139,-35.8799 242.353,-33.6145"/>
<polygon fill="midnightblue" stroke="midnightblue" points="243.623,-36.8848 252.133,-30.5729 241.544,-30.2006 243.623,-36.8848"/>
</g>
<!-- Node81&#45;&gt;Node82 -->
<g id="edge2" class="edge"><title>Node81&#45;&gt;Node82</title>
<path fill="none" stroke="midnightblue" d="M369.514,-137.481C385.543,-133.749 402.856,-129.719 419.328,-125.884"/>
<polygon fill="midnightblue" stroke="midnightblue" points="420.51,-129.203 429.456,-123.526 418.922,-122.385 420.51,-129.203"/>
</g>
<!-- Node83&#45;&gt;Node82 -->
<g id="edge4" class="edge"><title>Node83&#45;&gt;Node82</title>
<path fill="none" stroke="midnightblue" d="M369.514,-79.5192C385.543,-83.2508 402.856,-87.2814 419.328,-91.116"/>
<polygon fill="midnightblue" stroke="midnightblue" points="418.922,-94.6152 429.456,-93.4738 420.51,-87.7975 418.922,-94.6152"/>
</g>
</g>
</svg>
