<?xml version="1.0" encoding="UTF-8" standalone="no"?>
<!DOCTYPE svg PUBLIC "-//W3C//DTD SVG 1.1//EN"
 "http://www.w3.org/Graphics/SVG/1.1/DTD/svg11.dtd">
<!-- Generated by graphviz version 2.38.0 (20140413.2041)
 -->
<!-- Title: LittleWeebLibrary.Services.DownloadWebSocketService.RemoveDownload Pages: 1 -->
<svg width="584pt" height="274pt"
 viewBox="0.00 0.00 584.00 274.00" xmlns="http://www.w3.org/2000/svg" xmlns:xlink="http://www.w3.org/1999/xlink">
<g id="graph0" class="graph" transform="scale(1 1) rotate(0) translate(4 270)">
<title>LittleWeebLibrary.Services.DownloadWebSocketService.RemoveDownload</title>
<polygon fill="white" stroke="none" points="-4,4 -4,-270 580,-270 580,4 -4,4"/>
<!-- Node18 -->
<g id="node1" class="node"><title>Node18</title>
<polygon fill="#bfbfbf" stroke="black" points="0,-93 0,-134 179,-134 179,-93 0,-93"/>
<text text-anchor="start" x="8" y="-122" font-family="Helvetica,sans-Serif" font-size="10.00">LittleWeebLibrary.Services.</text>
<text text-anchor="start" x="8" y="-111" font-family="Helvetica,sans-Serif" font-size="10.00">DownloadWebSocketService.Remove</text>
<text text-anchor="middle" x="89.5" y="-100" font-family="Helvetica,sans-Serif" font-size="10.00">Download</text>
</g>
<!-- Node19 -->
<g id="node2" class="node"><title>Node19</title>
<g id="a_node2"><a xlink:href="class_little_weeb_library_1_1_handlers_1_1_download_handler.html#aac22841386d098daef366cbe05262187" target="_top" xlink:title="LittleWeebLibrary.Handlers.\lDownloadHandler.RemoveDownload">
<polygon fill="white" stroke="black" points="215,-186.5 215,-216.5 386,-216.5 386,-186.5 215,-186.5"/>
<text text-anchor="start" x="223" y="-204.5" font-family="Helvetica,sans-Serif" font-size="10.00">LittleWeebLibrary.Handlers.</text>
<text text-anchor="middle" x="300.5" y="-193.5" font-family="Helvetica,sans-Serif" font-size="10.00">DownloadHandler.RemoveDownload</text>
</a>
</g>
</g>
<!-- Node18&#45;&gt;Node19 -->
<g id="edge1" class="edge"><title>Node18&#45;&gt;Node19</title>
<path fill="none" stroke="midnightblue" d="M132.13,-134.1C156.115,-145.663 186.974,-160.027 215,-171.5 224.608,-175.433 234.944,-179.353 244.977,-182.999"/>
<polygon fill="midnightblue" stroke="midnightblue" points="243.875,-186.322 254.47,-186.403 246.238,-179.733 243.875,-186.322"/>
</g>
<!-- Node22 -->
<g id="node5" class="node"><title>Node22</title>
<g id="a_node5"><a xlink:href="class_little_weeb_library_1_1_handlers_1_1_debug_handler.html#afccb37dfd6b2114af72000c2f4fe4607" target="_top" xlink:title="LittleWeebLibrary.Handlers.\lDebugHandler.TraceMessage">
<polygon fill="white" stroke="black" points="427,-137.5 427,-167.5 571,-167.5 571,-137.5 427,-137.5"/>
<text text-anchor="start" x="435" y="-155.5" font-family="Helvetica,sans-Serif" font-size="10.00">LittleWeebLibrary.Handlers.</text>
<text text-anchor="middle" x="499" y="-144.5" font-family="Helvetica,sans-Serif" font-size="10.00">DebugHandler.TraceMessage</text>
</a>
</g>
</g>
<!-- Node18&#45;&gt;Node22 -->
<g id="edge9" class="edge"><title>Node18&#45;&gt;Node22</title>
<path fill="none" stroke="midnightblue" d="M179.328,-133.007C191.275,-135.14 203.405,-137.057 215,-138.5 282.554,-146.906 359.771,-150.315 416.462,-151.673"/>
<polygon fill="midnightblue" stroke="midnightblue" points="416.726,-155.18 426.802,-151.904 416.882,-148.181 416.726,-155.18"/>
</g>
<!-- Node23 -->
<g id="node6" class="node"><title>Node23</title>
<g id="a_node6"><a xlink:href="class_little_weeb_library_1_1_handlers_1_1_web_socket_handler.html#a1de289d54d665a32c93478c68d3e6ad0" target="_top" xlink:title="LittleWeebLibrary.Handlers.\lWebSocketHandler.SendMessage">
<polygon fill="white" stroke="black" points="217.5,-98.5 217.5,-128.5 383.5,-128.5 383.5,-98.5 217.5,-98.5"/>
<text text-anchor="start" x="225.5" y="-116.5" font-family="Helvetica,sans-Serif" font-size="10.00">LittleWeebLibrary.Handlers.</text>
<text text-anchor="middle" x="300.5" y="-105.5" font-family="Helvetica,sans-Serif" font-size="10.00">WebSocketHandler.SendMessage</text>
</a>
</g>
</g>
<!-- Node18&#45;&gt;Node23 -->
<g id="edge5" class="edge"><title>Node18&#45;&gt;Node23</title>
<path fill="none" stroke="midnightblue" d="M179.135,-113.5C188.449,-113.5 197.935,-113.5 207.289,-113.5"/>
<polygon fill="midnightblue" stroke="midnightblue" points="207.371,-117 217.371,-113.5 207.371,-110 207.371,-117"/>
</g>
<!-- Node24 -->
<g id="node7" class="node"><title>Node24</title>
<g id="a_node7"><a xlink:href="class_little_weeb_library_1_1_models_1_1_json_error.html#a0e3e7dd2e2990404b7f0461742b23440" target="_top" xlink:title="LittleWeebLibrary.Models.\lJsonError.ToJson">
<polygon fill="white" stroke="black" points="235.5,-49.5 235.5,-79.5 365.5,-79.5 365.5,-49.5 235.5,-49.5"/>
<text text-anchor="start" x="243.5" y="-67.5" font-family="Helvetica,sans-Serif" font-size="10.00">LittleWeebLibrary.Models.</text>
<text text-anchor="middle" x="300.5" y="-56.5" font-family="Helvetica,sans-Serif" font-size="10.00">JsonError.ToJson</text>
</a>
</g>
</g>
<!-- Node18&#45;&gt;Node24 -->
<g id="edge7" class="edge"><title>Node18&#45;&gt;Node24</title>
<path fill="none" stroke="midnightblue" d="M178.226,-92.9326C193.988,-89.2373 210.272,-85.4195 225.594,-81.8273"/>
<polygon fill="midnightblue" stroke="midnightblue" points="226.571,-85.1931 235.508,-79.5028 224.974,-78.3779 226.571,-85.1931"/>
</g>
<!-- Node25 -->
<g id="node8" class="node"><title>Node25</title>
<g id="a_node8"><a xlink:href="class_little_weeb_library_1_1_models_1_1_json_error.html#ad7d5522c90119111d2e929f39e7f6d3c" target="_top" xlink:title="LittleWeebLibrary.Models.\lJsonError.ToString">
<polygon fill="white" stroke="black" points="235.5,-0.5 235.5,-30.5 365.5,-30.5 365.5,-0.5 235.5,-0.5"/>
<text text-anchor="start" x="243.5" y="-18.5" font-family="Helvetica,sans-Serif" font-size="10.00">LittleWeebLibrary.Models.</text>
<text text-anchor="middle" x="300.5" y="-7.5" font-family="Helvetica,sans-Serif" font-size="10.00">JsonError.ToString</text>
</a>
</g>
</g>
<!-- Node18&#45;&gt;Node25 -->
<g id="edge8" class="edge"><title>Node18&#45;&gt;Node25</title>
<path fill="none" stroke="midnightblue" d="M120.863,-92.8702C145.416,-76.8945 181.32,-55.0977 215,-40.5 220.395,-38.1615 226.076,-35.9616 231.833,-33.9114"/>
<polygon fill="midnightblue" stroke="midnightblue" points="233.219,-37.1372 241.56,-30.6045 230.966,-30.5098 233.219,-37.1372"/>
</g>
<!-- Node20 -->
<g id="node3" class="node"><title>Node20</title>
<g id="a_node3"><a xlink:href="class_little_weeb_library_1_1_models_1_1_json_download_queue.html#a1d77053fc493aa88857bcafd6fea4bf7" target="_top" xlink:title="LittleWeebLibrary.Models.\lJsonDownloadQueue.ToJObject">
<polygon fill="white" stroke="black" points="422,-235.5 422,-265.5 576,-265.5 576,-235.5 422,-235.5"/>
<text text-anchor="start" x="430" y="-253.5" font-family="Helvetica,sans-Serif" font-size="10.00">LittleWeebLibrary.Models.</text>
<text text-anchor="middle" x="499" y="-242.5" font-family="Helvetica,sans-Serif" font-size="10.00">JsonDownloadQueue.ToJObject</text>
</a>
</g>
</g>
<!-- Node19&#45;&gt;Node20 -->
<g id="edge2" class="edge"><title>Node19&#45;&gt;Node20</title>
<path fill="none" stroke="midnightblue" d="M361.792,-216.535C382.728,-221.755 406.382,-227.654 428.032,-233.053"/>
<polygon fill="midnightblue" stroke="midnightblue" points="427.272,-236.47 437.822,-235.494 428.966,-229.678 427.272,-236.47"/>
</g>
<!-- Node21 -->
<g id="node4" class="node"><title>Node21</title>
<g id="a_node4"><a xlink:href="class_little_weeb_library_1_1_models_1_1_json_error.html#a0623b835bb68d5d5e1f591df6a09dd81" target="_top" xlink:title="LittleWeebLibrary.Models.\lJsonError.ToJObject">
<polygon fill="white" stroke="black" points="434,-186.5 434,-216.5 564,-216.5 564,-186.5 434,-186.5"/>
<text text-anchor="start" x="442" y="-204.5" font-family="Helvetica,sans-Serif" font-size="10.00">LittleWeebLibrary.Models.</text>
<text text-anchor="middle" x="499" y="-193.5" font-family="Helvetica,sans-Serif" font-size="10.00">JsonError.ToJObject</text>
</a>
</g>
</g>
<!-- Node19&#45;&gt;Node21 -->
<g id="edge3" class="edge"><title>Node19&#45;&gt;Node21</title>
<path fill="none" stroke="midnightblue" d="M386.259,-201.5C398.757,-201.5 411.551,-201.5 423.812,-201.5"/>
<polygon fill="midnightblue" stroke="midnightblue" points="423.968,-205 433.968,-201.5 423.968,-198 423.968,-205"/>
</g>
<!-- Node19&#45;&gt;Node22 -->
<g id="edge4" class="edge"><title>Node19&#45;&gt;Node22</title>
<path fill="none" stroke="midnightblue" d="M361.792,-186.465C382.728,-181.245 406.382,-175.346 428.032,-169.947"/>
<polygon fill="midnightblue" stroke="midnightblue" points="428.966,-173.322 437.822,-167.506 427.272,-166.53 428.966,-173.322"/>
</g>
<!-- Node23&#45;&gt;Node22 -->
<g id="edge6" class="edge"><title>Node23&#45;&gt;Node22</title>
<path fill="none" stroke="midnightblue" d="M377.191,-128.523C390.2,-131.105 403.767,-133.797 416.911,-136.406"/>
<polygon fill="midnightblue" stroke="midnightblue" points="416.374,-139.868 426.864,-138.381 417.737,-133.002 416.374,-139.868"/>
</g>
</g>
</svg>
