<?xml version="1.0" encoding="UTF-8" standalone="no"?>
<!DOCTYPE svg PUBLIC "-//W3C//DTD SVG 1.1//EN"
 "http://www.w3.org/Graphics/SVG/1.1/DTD/svg11.dtd">
<!-- Generated by graphviz version 2.38.0 (20140413.2041)
 -->
<!-- Title: LittleWeebLibrary.Handlers.SettingsHandler.GetIrcSettings Pages: 1 -->
<svg width="587pt" height="280pt"
 viewBox="0.00 0.00 587.00 280.00" xmlns="http://www.w3.org/2000/svg" xmlns:xlink="http://www.w3.org/1999/xlink">
<g id="graph0" class="graph" transform="scale(1 1) rotate(0) translate(4 276)">
<title>LittleWeebLibrary.Handlers.SettingsHandler.GetIrcSettings</title>
<polygon fill="white" stroke="none" points="-4,4 -4,-276 583,-276 583,4 -4,4"/>
<!-- Node31 -->
<g id="node1" class="node"><title>Node31</title>
<polygon fill="#bfbfbf" stroke="black" points="0,-121 0,-151 151,-151 151,-121 0,-121"/>
<text text-anchor="start" x="8" y="-139" font-family="Helvetica,sans-Serif" font-size="10.00">LittleWeebLibrary.Handlers.</text>
<text text-anchor="middle" x="75.5" y="-128" font-family="Helvetica,sans-Serif" font-size="10.00">SettingsHandler.GetIrcSettings</text>
</g>
<!-- Node32 -->
<g id="node2" class="node"><title>Node32</title>
<g id="a_node2"><a xlink:href="class_little_weeb_library_1_1_services_1_1_download_web_socket_service.html#a33a4c5640800b885662c686013c02971" target="_top" xlink:title="LittleWeebLibrary.Services.\lDownloadWebSocketService.Download\lWebSocketService">
<polygon fill="white" stroke="black" points="187,-230.5 187,-271.5 373,-271.5 373,-230.5 187,-230.5"/>
<text text-anchor="start" x="195" y="-259.5" font-family="Helvetica,sans-Serif" font-size="10.00">LittleWeebLibrary.Services.</text>
<text text-anchor="start" x="195" y="-248.5" font-family="Helvetica,sans-Serif" font-size="10.00">DownloadWebSocketService.Download</text>
<text text-anchor="middle" x="280" y="-237.5" font-family="Helvetica,sans-Serif" font-size="10.00">WebSocketService</text>
</a>
</g>
</g>
<!-- Node31&#45;&gt;Node32 -->
<g id="edge1" class="edge"><title>Node31&#45;&gt;Node32</title>
<path fill="none" stroke="midnightblue" d="M100.066,-157.996C121.384,-176.905 154.351,-203.776 187,-221 193.538,-224.449 200.546,-227.599 207.67,-230.45"/>
<polygon fill="midnightblue" stroke="midnightblue" points="102.265,-155.265 92.4911,-151.175 97.5805,-160.467 102.265,-155.265"/>
</g>
<!-- Node33 -->
<g id="node3" class="node"><title>Node33</title>
<g id="a_node3"><a xlink:href="class_little_weeb_library_1_1_services_1_1_settings_web_socket_service.html#aaa29fbcae1268174d436730a58afadca" target="_top" xlink:title="LittleWeebLibrary.Services.\lSettingsWebSocketService.GetCurrent\lIrcSettings">
<polygon fill="white" stroke="black" points="187.5,-170.5 187.5,-211.5 372.5,-211.5 372.5,-170.5 187.5,-170.5"/>
<text text-anchor="start" x="195.5" y="-199.5" font-family="Helvetica,sans-Serif" font-size="10.00">LittleWeebLibrary.Services.</text>
<text text-anchor="start" x="195.5" y="-188.5" font-family="Helvetica,sans-Serif" font-size="10.00">SettingsWebSocketService.GetCurrent</text>
<text text-anchor="middle" x="280" y="-177.5" font-family="Helvetica,sans-Serif" font-size="10.00">IrcSettings</text>
</a>
</g>
</g>
<!-- Node31&#45;&gt;Node33 -->
<g id="edge2" class="edge"><title>Node31&#45;&gt;Node33</title>
<path fill="none" stroke="midnightblue" d="M141.593,-153.68C161.234,-159.014 182.964,-164.916 203.236,-170.422"/>
<polygon fill="midnightblue" stroke="midnightblue" points="142.402,-150.273 131.834,-151.029 140.567,-157.028 142.402,-150.273"/>
</g>
<!-- Node35 -->
<g id="node5" class="node"><title>Node35</title>
<g id="a_node5"><a xlink:href="class_little_weeb_library_1_1_handlers_1_1_irc_client_handler.html#a01745667c95f2c3d5c461f708aa13bb8" target="_top" xlink:title="LittleWeebLibrary.Handlers.\lIrcClientHandler.IrcClientHandler">
<polygon fill="white" stroke="black" points="202,-121 202,-151 358,-151 358,-121 202,-121"/>
<text text-anchor="start" x="210" y="-139" font-family="Helvetica,sans-Serif" font-size="10.00">LittleWeebLibrary.Handlers.</text>
<text text-anchor="middle" x="280" y="-128" font-family="Helvetica,sans-Serif" font-size="10.00">IrcClientHandler.IrcClientHandler</text>
</a>
</g>
</g>
<!-- Node31&#45;&gt;Node35 -->
<g id="edge4" class="edge"><title>Node31&#45;&gt;Node35</title>
<path fill="none" stroke="midnightblue" d="M161.254,-136C174.733,-136 188.612,-136 201.902,-136"/>
<polygon fill="midnightblue" stroke="midnightblue" points="161.041,-132.5 151.041,-136 161.041,-139.5 161.041,-132.5"/>
</g>
<!-- Node36 -->
<g id="node6" class="node"><title>Node36</title>
<g id="a_node6"><a xlink:href="class_little_weeb_library_1_1_services_1_1_irc_web_socket_service.html#a3265383962fc71a18b9a6fa0c4c84797" target="_top" xlink:title="LittleWeebLibrary.Services.\lIrcWebSocketService.IrcWebSocket\lService">
<polygon fill="white" stroke="black" points="193,-60.5 193,-101.5 367,-101.5 367,-60.5 193,-60.5"/>
<text text-anchor="start" x="201" y="-89.5" font-family="Helvetica,sans-Serif" font-size="10.00">LittleWeebLibrary.Services.</text>
<text text-anchor="start" x="201" y="-78.5" font-family="Helvetica,sans-Serif" font-size="10.00">IrcWebSocketService.IrcWebSocket</text>
<text text-anchor="middle" x="280" y="-67.5" font-family="Helvetica,sans-Serif" font-size="10.00">Service</text>
</a>
</g>
</g>
<!-- Node31&#45;&gt;Node36 -->
<g id="edge5" class="edge"><title>Node31&#45;&gt;Node36</title>
<path fill="none" stroke="midnightblue" d="M141.593,-118.32C161.234,-112.986 182.964,-107.084 203.236,-101.578"/>
<polygon fill="midnightblue" stroke="midnightblue" points="140.567,-114.972 131.834,-120.971 142.402,-121.727 140.567,-114.972"/>
</g>
<!-- Node37 -->
<g id="node7" class="node"><title>Node37</title>
<g id="a_node7"><a xlink:href="class_little_weeb_library_1_1_services_1_1_settings_web_socket_service.html#a898cb4543b5abd273844405770687442" target="_top" xlink:title="LittleWeebLibrary.Services.\lSettingsWebSocketService.SetIrc\lSettings">
<polygon fill="white" stroke="black" points="198,-0.5 198,-41.5 362,-41.5 362,-0.5 198,-0.5"/>
<text text-anchor="start" x="206" y="-29.5" font-family="Helvetica,sans-Serif" font-size="10.00">LittleWeebLibrary.Services.</text>
<text text-anchor="start" x="206" y="-18.5" font-family="Helvetica,sans-Serif" font-size="10.00">SettingsWebSocketService.SetIrc</text>
<text text-anchor="middle" x="280" y="-7.5" font-family="Helvetica,sans-Serif" font-size="10.00">Settings</text>
</a>
</g>
</g>
<!-- Node31&#45;&gt;Node37 -->
<g id="edge6" class="edge"><title>Node31&#45;&gt;Node37</title>
<path fill="none" stroke="midnightblue" d="M100.066,-114.004C121.384,-95.0948 154.351,-68.2243 187,-51 193.538,-47.5508 200.546,-44.4011 207.67,-41.5497"/>
<polygon fill="midnightblue" stroke="midnightblue" points="97.5805,-111.533 92.4911,-120.825 102.265,-116.735 97.5805,-111.533"/>
</g>
<!-- Node34 -->
<g id="node4" class="node"><title>Node34</title>
<g id="a_node4"><a xlink:href="class_little_weeb_library_1_1_controllers_1_1_sub_controllers_1_1_settings_web_socket_controller.html#a39b333aee248388fd295a8511486c76e" target="_top" xlink:title="LittleWeebLibrary.Controllers.\lSubControllers.SettingsWebSocket\lController.OnWebSocketEvent">
<polygon fill="white" stroke="black" points="409,-85.5 409,-126.5 579,-126.5 579,-85.5 409,-85.5"/>
<text text-anchor="start" x="417" y="-114.5" font-family="Helvetica,sans-Serif" font-size="10.00">LittleWeebLibrary.Controllers.</text>
<text text-anchor="start" x="417" y="-103.5" font-family="Helvetica,sans-Serif" font-size="10.00">SubControllers.SettingsWebSocket</text>
<text text-anchor="middle" x="494" y="-92.5" font-family="Helvetica,sans-Serif" font-size="10.00">Controller.OnWebSocketEvent</text>
</a>
</g>
</g>
<!-- Node33&#45;&gt;Node34 -->
<g id="edge3" class="edge"><title>Node33&#45;&gt;Node34</title>
<path fill="none" stroke="midnightblue" d="M356.991,-166.982C362.434,-165.029 367.817,-163.025 373,-161 399.469,-150.658 428.45,-137.431 451.3,-126.54"/>
<polygon fill="midnightblue" stroke="midnightblue" points="355.432,-163.82 347.158,-170.438 357.753,-170.424 355.432,-163.82"/>
</g>
<!-- Node37&#45;&gt;Node34 -->
<g id="edge7" class="edge"><title>Node37&#45;&gt;Node34</title>
<path fill="none" stroke="midnightblue" d="M356.991,-45.0179C362.434,-46.9713 367.817,-48.9747 373,-51 399.469,-61.3421 428.45,-74.5693 451.3,-85.4603"/>
<polygon fill="midnightblue" stroke="midnightblue" points="357.753,-41.5758 347.158,-41.562 355.432,-48.1798 357.753,-41.5758"/>
</g>
</g>
</svg>
