<?xml version="1.0" encoding="UTF-8" standalone="no"?>
<!DOCTYPE svg PUBLIC "-//W3C//DTD SVG 1.1//EN"
 "http://www.w3.org/Graphics/SVG/1.1/DTD/svg11.dtd">
<!-- Generated by graphviz version 2.38.0 (20140413.2041)
 -->
<!-- Title: LittleWeebLibrary.Services.FileWebSocketService.DeleteFile Pages: 1 -->
<!--zoomable 600 -->
<svg id="main" version="1.1" xmlns="http://www.w3.org/2000/svg" xmlns:xlink="http://www.w3.org/1999/xlink" xml:space="preserve" onload="init(evt)">
<style type="text/css"><![CDATA[
.edge:hover path { stroke: red; }
.edge:hover polygon { stroke: red; fill: red; }
]]></style>
<script type="text/javascript"><![CDATA[
var edges = document.getElementsByTagName('g');
if (edges && edges.length) {
  for (var i=0;i<edges.length;i++) {
    if (edges[i].id.substr(0,4)=='edge') {
      edges[i].setAttribute('class','edge');
    }
  }
}
]]></script>
        <defs>
                <circle id="rim" cx="0" cy="0" r="7"/>
                <circle id="rim2" cx="0" cy="0" r="3.5"/>
                <g id="zoomPlus">
                        <use xlink:href="#rim" fill="#404040">
                                <set attributeName="fill" to="#808080" begin="zoomplus.mouseover" end="zoomplus.mouseout"/>
                        </use>
                        <path d="M-4,0h8M0,-4v8" fill="none" stroke="white" stroke-width="1.5" pointer-events="none"/>
                </g>
                <g id="zoomMin">
                        <use xlink:href="#rim" fill="#404040">
                                <set attributeName="fill" to="#808080" begin="zoomminus.mouseover" end="zoomminus.mouseout"/>
                        </use>
                        <path d="M-4,0h8" fill="none" stroke="white" stroke-width="1.5" pointer-events="none"/>
                </g>
                <g id="dirArrow">
                        <path fill="none" stroke="white" stroke-width="1.5" d="M0,-3.0v7 M-2.5,-0.5L0,-3.0L2.5,-0.5"/>
                </g>
               <g id="resetDef">
                       <use xlink:href="#rim2" fill="#404040">
                               <set attributeName="fill" to="#808080" begin="reset.mouseover" end="reset.mouseout"/>
                       </use>
               </g>
        </defs>

<script type="text/javascript">
var viewWidth = 798;
var viewHeight = 600;
var sectionId = 'dynsection-3';
</script>
<script xlink:href="svgpan.js"/>
<svg id="graph" class="graph">
<g id="viewport">
<title>LittleWeebLibrary.Services.FileWebSocketService.DeleteFile</title>
<polygon fill="white" stroke="none" points="-4,4 -4,-596 794,-596 794,4 -4,4"/>
<!-- Node3 -->
<g id="node1" class="node"><title>Node3</title>
<polygon fill="#bfbfbf" stroke="black" points="0,-380.5 0,-410.5 161,-410.5 161,-380.5 0,-380.5"/>
<text text-anchor="start" x="8" y="-398.5" font-family="Helvetica,sans-Serif" font-size="10.00">LittleWeebLibrary.Services.</text>
<text text-anchor="middle" x="80.5" y="-387.5" font-family="Helvetica,sans-Serif" font-size="10.00">FileWebSocketService.DeleteFile</text>
</g>
<!-- Node4 -->
<g id="node2" class="node"><title>Node4</title>
<g id="a_node2"><a xlink:href="class_little_weeb_library_1_1_handlers_1_1_file_handler.html#ae1b342c4d821543a0a3400e4e0c95903" target="_top" xlink:title="LittleWeebLibrary.Handlers.\lFileHandler.DeleteFile">
<polygon fill="white" stroke="black" points="214.5,-468.5 214.5,-498.5 351.5,-498.5 351.5,-468.5 214.5,-468.5"/>
<text text-anchor="start" x="222.5" y="-486.5" font-family="Helvetica,sans-Serif" font-size="10.00">LittleWeebLibrary.Handlers.</text>
<text text-anchor="middle" x="283" y="-475.5" font-family="Helvetica,sans-Serif" font-size="10.00">FileHandler.DeleteFile</text>
</a>
</g>
</g>
<!-- Node3&#45;&gt;Node4 -->
<g id="edge1" class="edge"><title>Node3&#45;&gt;Node4</title>
<path fill="none" stroke="midnightblue" d="M109.043,-410.566C132.157,-422.908 166.237,-440.409 197,-453.5 206.288,-457.452 216.291,-461.318 226.06,-464.889"/>
<polygon fill="midnightblue" stroke="midnightblue" points="225.121,-468.27 235.715,-468.354 227.486,-461.681 225.121,-468.27"/>
</g>
<!-- Node6 -->
<g id="node4" class="node"><title>Node6</title>
<g id="a_node4"><a xlink:href="class_little_weeb_library_1_1_models_1_1_json_error.html#a0e3e7dd2e2990404b7f0461742b23440" target="_top" xlink:title="LittleWeebLibrary.Models.\lJsonError.ToJson">
<polygon fill="white" stroke="black" points="421.5,-561.5 421.5,-591.5 551.5,-591.5 551.5,-561.5 421.5,-561.5"/>
<text text-anchor="start" x="429.5" y="-579.5" font-family="Helvetica,sans-Serif" font-size="10.00">LittleWeebLibrary.Models.</text>
<text text-anchor="middle" x="486.5" y="-568.5" font-family="Helvetica,sans-Serif" font-size="10.00">JsonError.ToJson</text>
</a>
</g>
</g>
<!-- Node3&#45;&gt;Node6 -->
<g id="edge22" class="edge"><title>Node3&#45;&gt;Node6</title>
<path fill="none" stroke="midnightblue" d="M92.774,-410.825C111.561,-435.208 151.712,-482.618 197,-507.5 263.988,-544.304 350.27,-561.625 410.96,-569.684"/>
<polygon fill="midnightblue" stroke="midnightblue" points="410.865,-573.2 421.227,-570.991 411.749,-566.256 410.865,-573.2"/>
</g>
<!-- Node7 -->
<g id="node5" class="node"><title>Node7</title>
<g id="a_node5"><a xlink:href="class_little_weeb_library_1_1_models_1_1_json_error.html#ad7d5522c90119111d2e929f39e7f6d3c" target="_top" xlink:title="LittleWeebLibrary.Models.\lJsonError.ToString">
<polygon fill="white" stroke="black" points="421.5,-424.5 421.5,-454.5 551.5,-454.5 551.5,-424.5 421.5,-424.5"/>
<text text-anchor="start" x="429.5" y="-442.5" font-family="Helvetica,sans-Serif" font-size="10.00">LittleWeebLibrary.Models.</text>
<text text-anchor="middle" x="486.5" y="-431.5" font-family="Helvetica,sans-Serif" font-size="10.00">JsonError.ToString</text>
</a>
</g>
</g>
<!-- Node3&#45;&gt;Node7 -->
<g id="edge23" class="edge"><title>Node3&#45;&gt;Node7</title>
<path fill="none" stroke="midnightblue" d="M145.984,-410.511C162.534,-413.919 180.364,-417.206 197,-419.5 269.373,-429.481 352.682,-434.577 411.113,-437.117"/>
<polygon fill="midnightblue" stroke="midnightblue" points="411.222,-440.625 421.36,-437.547 411.516,-433.631 411.222,-440.625"/>
</g>
<!-- Node8 -->
<g id="node6" class="node"><title>Node8</title>
<g id="a_node6"><a xlink:href="class_little_weeb_library_1_1_handlers_1_1_debug_handler.html#afccb37dfd6b2114af72000c2f4fe4607" target="_top" xlink:title="LittleWeebLibrary.Handlers.\lDebugHandler.TraceMessage">
<polygon fill="white" stroke="black" points="625,-183.5 625,-213.5 769,-213.5 769,-183.5 625,-183.5"/>
<text text-anchor="start" x="633" y="-201.5" font-family="Helvetica,sans-Serif" font-size="10.00">LittleWeebLibrary.Handlers.</text>
<text text-anchor="middle" x="697" y="-190.5" font-family="Helvetica,sans-Serif" font-size="10.00">DebugHandler.TraceMessage</text>
</a>
</g>
</g>
<!-- Node3&#45;&gt;Node8 -->
<g id="edge24" class="edge"><title>Node3&#45;&gt;Node8</title>
<path fill="none" stroke="midnightblue" d="M83.7646,-380.309C91.145,-336.458 118.715,-208.837 197,-146.5 326.894,-43.0672 410.476,-49.9921 568,-102.5 611.327,-116.942 651.798,-152.431 675.21,-175.976"/>
<polygon fill="midnightblue" stroke="midnightblue" points="672.997,-178.721 682.475,-183.455 678.018,-173.843 672.997,-178.721"/>
</g>
<!-- Node9 -->
<g id="node7" class="node"><title>Node9</title>
<g id="a_node7"><a xlink:href="class_little_weeb_library_1_1_handlers_1_1_download_handler.html#aac22841386d098daef366cbe05262187" target="_top" xlink:title="LittleWeebLibrary.Handlers.\lDownloadHandler.RemoveDownload">
<polygon fill="white" stroke="black" points="197.5,-315.5 197.5,-345.5 368.5,-345.5 368.5,-315.5 197.5,-315.5"/>
<text text-anchor="start" x="205.5" y="-333.5" font-family="Helvetica,sans-Serif" font-size="10.00">LittleWeebLibrary.Handlers.</text>
<text text-anchor="middle" x="283" y="-322.5" font-family="Helvetica,sans-Serif" font-size="10.00">DownloadHandler.RemoveDownload</text>
</a>
</g>
</g>
<!-- Node3&#45;&gt;Node9 -->
<g id="edge6" class="edge"><title>Node3&#45;&gt;Node9</title>
<path fill="none" stroke="midnightblue" d="M128.003,-380.424C157.126,-370.983 194.842,-358.756 225.659,-348.765"/>
<polygon fill="midnightblue" stroke="midnightblue" points="226.969,-352.02 235.403,-345.606 224.811,-345.361 226.969,-352.02"/>
</g>
<!-- Node12 -->
<g id="node10" class="node"><title>Node12</title>
<g id="a_node10"><a xlink:href="class_little_weeb_library_1_1_handlers_1_1_file_history_handler.html#a3b3f0cdedee405d607feff81c2de085d" target="_top" xlink:title="LittleWeebLibrary.Handlers.\lFileHistoryHandler.RemoveFileFrom\lFileHistory">
<polygon fill="white" stroke="black" points="197,-156 197,-197 369,-197 369,-156 197,-156"/>
<text text-anchor="start" x="205" y="-185" font-family="Helvetica,sans-Serif" font-size="10.00">LittleWeebLibrary.Handlers.</text>
<text text-anchor="start" x="205" y="-174" font-family="Helvetica,sans-Serif" font-size="10.00">FileHistoryHandler.RemoveFileFrom</text>
<text text-anchor="middle" x="283" y="-163" font-family="Helvetica,sans-Serif" font-size="10.00">FileHistory</text>
</a>
</g>
</g>
<!-- Node3&#45;&gt;Node12 -->
<g id="edge10" class="edge"><title>Node3&#45;&gt;Node12</title>
<path fill="none" stroke="midnightblue" d="M95.2812,-380.447C128.469,-344.197 213.253,-251.59 256.215,-204.664"/>
<polygon fill="midnightblue" stroke="midnightblue" points="258.814,-207.009 262.985,-197.27 253.651,-202.282 258.814,-207.009"/>
</g>
<!-- Node18 -->
<g id="node16" class="node"><title>Node18</title>
<g id="a_node16"><a xlink:href="class_little_weeb_library_1_1_handlers_1_1_web_socket_handler.html#a1de289d54d665a32c93478c68d3e6ad0" target="_top" xlink:title="LittleWeebLibrary.Handlers.\lWebSocketHandler.SendMessage">
<polygon fill="white" stroke="black" points="200,-380.5 200,-410.5 366,-410.5 366,-380.5 200,-380.5"/>
<text text-anchor="start" x="208" y="-398.5" font-family="Helvetica,sans-Serif" font-size="10.00">LittleWeebLibrary.Handlers.</text>
<text text-anchor="middle" x="283" y="-387.5" font-family="Helvetica,sans-Serif" font-size="10.00">WebSocketHandler.SendMessage</text>
</a>
</g>
</g>
<!-- Node3&#45;&gt;Node18 -->
<g id="edge20" class="edge"><title>Node3&#45;&gt;Node18</title>
<path fill="none" stroke="midnightblue" d="M161.031,-395.5C170.525,-395.5 180.278,-395.5 189.93,-395.5"/>
<polygon fill="midnightblue" stroke="midnightblue" points="189.935,-399 199.935,-395.5 189.935,-392 189.935,-399"/>
</g>
<!-- Node5 -->
<g id="node3" class="node"><title>Node5</title>
<g id="a_node3"><a xlink:href="class_little_weeb_library_1_1_models_1_1_json_success.html#a407103dc37a77aaf47a782296bab7518" target="_top" xlink:title="LittleWeebLibrary.Models.\lJsonSuccess.ToJson">
<polygon fill="white" stroke="black" points="421.5,-512.5 421.5,-542.5 551.5,-542.5 551.5,-512.5 421.5,-512.5"/>
<text text-anchor="start" x="429.5" y="-530.5" font-family="Helvetica,sans-Serif" font-size="10.00">LittleWeebLibrary.Models.</text>
<text text-anchor="middle" x="486.5" y="-519.5" font-family="Helvetica,sans-Serif" font-size="10.00">JsonSuccess.ToJson</text>
</a>
</g>
</g>
<!-- Node4&#45;&gt;Node5 -->
<g id="edge2" class="edge"><title>Node4&#45;&gt;Node5</title>
<path fill="none" stroke="midnightblue" d="M351.657,-498.274C370.925,-502.481 392.01,-507.085 411.628,-511.369"/>
<polygon fill="midnightblue" stroke="midnightblue" points="410.913,-514.795 421.429,-513.509 412.406,-507.957 410.913,-514.795"/>
</g>
<!-- Node4&#45;&gt;Node6 -->
<g id="edge3" class="edge"><title>Node4&#45;&gt;Node6</title>
<path fill="none" stroke="midnightblue" d="M306.832,-498.631C330.572,-513.85 369.201,-537.195 405,-552.5 409.658,-554.491 414.533,-556.384 419.482,-558.168"/>
<polygon fill="midnightblue" stroke="midnightblue" points="418.457,-561.517 429.051,-561.463 420.736,-554.898 418.457,-561.517"/>
</g>
<!-- Node4&#45;&gt;Node7 -->
<g id="edge4" class="edge"><title>Node4&#45;&gt;Node7</title>
<path fill="none" stroke="midnightblue" d="M351.657,-468.726C370.925,-464.519 392.01,-459.915 411.628,-455.631"/>
<polygon fill="midnightblue" stroke="midnightblue" points="412.406,-459.043 421.429,-453.491 410.913,-452.205 412.406,-459.043"/>
</g>
<!-- Node4&#45;&gt;Node8 -->
<g id="edge5" class="edge"><title>Node4&#45;&gt;Node8</title>
<path fill="none" stroke="midnightblue" d="M351.524,-496.608C413.258,-504.733 504.373,-506.617 568,-463.5 652.086,-406.519 682.767,-278.224 692.279,-223.741"/>
<polygon fill="midnightblue" stroke="midnightblue" points="695.781,-224.014 693.954,-213.578 688.874,-222.876 695.781,-224.014"/>
</g>
<!-- Node9&#45;&gt;Node8 -->
<g id="edge9" class="edge"><title>Node9&#45;&gt;Node8</title>
<path fill="none" stroke="midnightblue" d="M340.607,-345.501C399.954,-358.192 494.602,-369.688 568,-337.5 621.594,-313.997 662.65,-255.753 682.618,-222.599"/>
<polygon fill="midnightblue" stroke="midnightblue" points="685.871,-223.969 687.906,-213.572 679.831,-220.431 685.871,-223.969"/>
</g>
<!-- Node10 -->
<g id="node8" class="node"><title>Node10</title>
<g id="a_node8"><a xlink:href="class_little_weeb_library_1_1_models_1_1_json_download_queue.html#a1d77053fc493aa88857bcafd6fea4bf7" target="_top" xlink:title="LittleWeebLibrary.Models.\lJsonDownloadQueue.ToJObject">
<polygon fill="white" stroke="black" points="409.5,-249.5 409.5,-279.5 563.5,-279.5 563.5,-249.5 409.5,-249.5"/>
<text text-anchor="start" x="417.5" y="-267.5" font-family="Helvetica,sans-Serif" font-size="10.00">LittleWeebLibrary.Models.</text>
<text text-anchor="middle" x="486.5" y="-256.5" font-family="Helvetica,sans-Serif" font-size="10.00">JsonDownloadQueue.ToJObject</text>
</a>
</g>
</g>
<!-- Node9&#45;&gt;Node10 -->
<g id="edge7" class="edge"><title>Node9&#45;&gt;Node10</title>
<path fill="none" stroke="midnightblue" d="M325.845,-315.463C349.077,-307.244 378.546,-297.03 405,-288.5 411.103,-286.532 417.484,-284.532 423.868,-282.57"/>
<polygon fill="midnightblue" stroke="midnightblue" points="425.316,-285.787 433.862,-279.525 423.276,-279.091 425.316,-285.787"/>
</g>
<!-- Node11 -->
<g id="node9" class="node"><title>Node11</title>
<g id="a_node9"><a xlink:href="class_little_weeb_library_1_1_models_1_1_json_error.html#a0623b835bb68d5d5e1f591df6a09dd81" target="_top" xlink:title="LittleWeebLibrary.Models.\lJsonError.ToJObject">
<polygon fill="white" stroke="black" points="421.5,-298.5 421.5,-328.5 551.5,-328.5 551.5,-298.5 421.5,-298.5"/>
<text text-anchor="start" x="429.5" y="-316.5" font-family="Helvetica,sans-Serif" font-size="10.00">LittleWeebLibrary.Models.</text>
<text text-anchor="middle" x="486.5" y="-305.5" font-family="Helvetica,sans-Serif" font-size="10.00">JsonError.ToJObject</text>
</a>
</g>
</g>
<!-- Node9&#45;&gt;Node11 -->
<g id="edge8" class="edge"><title>Node9&#45;&gt;Node11</title>
<path fill="none" stroke="midnightblue" d="M368.578,-323.364C382.791,-322.165 397.445,-320.929 411.369,-319.754"/>
<polygon fill="midnightblue" stroke="midnightblue" points="411.691,-323.24 421.361,-318.911 411.102,-316.264 411.691,-323.24"/>
</g>
<!-- Node12&#45;&gt;Node8 -->
<g id="edge17" class="edge"><title>Node12&#45;&gt;Node8</title>
<path fill="none" stroke="midnightblue" d="M369.293,-195.579C381.23,-197.616 393.384,-199.359 405,-200.5 475.555,-207.43 556.196,-206.162 614.666,-203.601"/>
<polygon fill="midnightblue" stroke="midnightblue" points="615.123,-207.083 624.952,-203.127 614.801,-200.091 615.123,-207.083"/>
</g>
<!-- Node13 -->
<g id="node11" class="node"><title>Node13</title>
<g id="a_node11"><a xlink:href="class_little_weeb_library_1_1_handlers_1_1_data_base_handler.html#a7f61583807f99b7838a33d2db0f7ca68" target="_top" xlink:title="LittleWeebLibrary.Handlers.\lDataBaseHandler.GetJObject">
<polygon fill="white" stroke="black" points="414.5,-24.5 414.5,-54.5 558.5,-54.5 558.5,-24.5 414.5,-24.5"/>
<text text-anchor="start" x="422.5" y="-42.5" font-family="Helvetica,sans-Serif" font-size="10.00">LittleWeebLibrary.Handlers.</text>
<text text-anchor="middle" x="486.5" y="-31.5" font-family="Helvetica,sans-Serif" font-size="10.00">DataBaseHandler.GetJObject</text>
</a>
</g>
</g>
<!-- Node12&#45;&gt;Node13 -->
<g id="edge11" class="edge"><title>Node12&#45;&gt;Node13</title>
<path fill="none" stroke="midnightblue" d="M314.167,-155.99C351.977,-130.283 416.44,-86.4538 454.594,-60.513"/>
<polygon fill="midnightblue" stroke="midnightblue" points="456.934,-63.1545 463.236,-54.6375 452.998,-57.3657 456.934,-63.1545"/>
</g>
<!-- Node16 -->
<g id="node14" class="node"><title>Node16</title>
<g id="a_node14"><a xlink:href="class_little_weeb_library_1_1_handlers_1_1_data_base_handler.html#a7821535a003c7675c09ba846bd9502ca" target="_top" xlink:title="LittleWeebLibrary.Handlers.\lDataBaseHandler.RemoveJObject">
<polygon fill="white" stroke="black" points="405,-161.5 405,-191.5 568,-191.5 568,-161.5 405,-161.5"/>
<text text-anchor="start" x="413" y="-179.5" font-family="Helvetica,sans-Serif" font-size="10.00">LittleWeebLibrary.Handlers.</text>
<text text-anchor="middle" x="486.5" y="-168.5" font-family="Helvetica,sans-Serif" font-size="10.00">DataBaseHandler.RemoveJObject</text>
</a>
</g>
</g>
<!-- Node12&#45;&gt;Node16 -->
<g id="edge15" class="edge"><title>Node12&#45;&gt;Node16</title>
<path fill="none" stroke="midnightblue" d="M369.162,-176.5C377.562,-176.5 386.11,-176.5 394.565,-176.5"/>
<polygon fill="midnightblue" stroke="midnightblue" points="394.815,-180 404.815,-176.5 394.815,-173 394.815,-180"/>
</g>
<!-- Node17 -->
<g id="node15" class="node"><title>Node17</title>
<g id="a_node15"><a xlink:href="class_little_weeb_library_1_1_handlers_1_1_data_base_handler.html#a9b2223ff71f688234f95d247ea3b5739" target="_top" xlink:title="LittleWeebLibrary.Handlers.\lDataBaseHandler.UpdateJObject">
<polygon fill="white" stroke="black" points="407,-112.5 407,-142.5 566,-142.5 566,-112.5 407,-112.5"/>
<text text-anchor="start" x="415" y="-130.5" font-family="Helvetica,sans-Serif" font-size="10.00">LittleWeebLibrary.Handlers.</text>
<text text-anchor="middle" x="486.5" y="-119.5" font-family="Helvetica,sans-Serif" font-size="10.00">DataBaseHandler.UpdateJObject</text>
</a>
</g>
</g>
<!-- Node12&#45;&gt;Node17 -->
<g id="edge18" class="edge"><title>Node12&#45;&gt;Node17</title>
<path fill="none" stroke="midnightblue" d="M368.578,-155.933C383.629,-152.272 399.175,-148.492 413.824,-144.93"/>
<polygon fill="midnightblue" stroke="midnightblue" points="414.915,-148.267 423.805,-142.503 413.261,-141.465 414.915,-148.267"/>
</g>
<!-- Node13&#45;&gt;Node8 -->
<g id="edge13" class="edge"><title>Node13&#45;&gt;Node8</title>
<path fill="none" stroke="midnightblue" d="M538.071,-54.5238C548.375,-58.6213 558.851,-63.5971 568,-69.5 613.408,-98.798 655.353,-146.638 678.142,-175.094"/>
<polygon fill="midnightblue" stroke="midnightblue" points="675.642,-177.575 684.583,-183.26 681.139,-173.241 675.642,-177.575"/>
</g>
<!-- Node14 -->
<g id="node12" class="node"><title>Node14</title>
<g id="a_node12"><a xlink:href="class_little_weeb_library_1_1_static_classes_1_1_utility_methods.html#a7b5de7a3ecc749b655fc3ed2af55360b" target="_top" xlink:title="LittleWeebLibrary.Static\lClasses.UtilityMethods.ReadBinaryFile">
<polygon fill="white" stroke="black" points="604,-0.5 604,-30.5 790,-30.5 790,-0.5 604,-0.5"/>
<text text-anchor="start" x="612" y="-18.5" font-family="Helvetica,sans-Serif" font-size="10.00">LittleWeebLibrary.Static</text>
<text text-anchor="middle" x="697" y="-7.5" font-family="Helvetica,sans-Serif" font-size="10.00">Classes.UtilityMethods.ReadBinaryFile</text>
</a>
</g>
</g>
<!-- Node13&#45;&gt;Node14 -->
<g id="edge12" class="edge"><title>Node13&#45;&gt;Node14</title>
<path fill="none" stroke="midnightblue" d="M558.671,-31.3077C570.007,-30.0028 581.925,-28.6309 593.808,-27.2631"/>
<polygon fill="midnightblue" stroke="midnightblue" points="594.233,-30.7373 603.768,-26.1167 593.433,-23.7833 594.233,-30.7373"/>
</g>
<!-- Node15 -->
<g id="node13" class="node"><title>Node15</title>
<g id="a_node13"><a xlink:href="class_little_weeb_library_1_1_static_classes_1_1_utility_methods.html#a0a86ee01a3bf201bd9cc9b2552e54976" target="_top" xlink:title="LittleWeebLibrary.Static\lClasses.UtilityMethods.Unzip">
<polygon fill="white" stroke="black" points="624.5,-49.5 624.5,-79.5 769.5,-79.5 769.5,-49.5 624.5,-49.5"/>
<text text-anchor="start" x="632.5" y="-67.5" font-family="Helvetica,sans-Serif" font-size="10.00">LittleWeebLibrary.Static</text>
<text text-anchor="middle" x="697" y="-56.5" font-family="Helvetica,sans-Serif" font-size="10.00">Classes.UtilityMethods.Unzip</text>
</a>
</g>
</g>
<!-- Node13&#45;&gt;Node15 -->
<g id="edge14" class="edge"><title>Node13&#45;&gt;Node15</title>
<path fill="none" stroke="midnightblue" d="M558.671,-48.0337C576.587,-50.182 595.958,-52.5046 614.345,-54.7092"/>
<polygon fill="midnightblue" stroke="midnightblue" points="614.097,-58.2044 624.442,-55.9199 614.93,-51.2542 614.097,-58.2044"/>
</g>
<!-- Node16&#45;&gt;Node8 -->
<g id="edge16" class="edge"><title>Node16&#45;&gt;Node8</title>
<path fill="none" stroke="midnightblue" d="M568.112,-185.006C583.434,-186.623 599.476,-188.315 614.816,-189.934"/>
<polygon fill="midnightblue" stroke="midnightblue" points="614.468,-193.416 624.78,-190.985 615.203,-186.455 614.468,-193.416"/>
</g>
<!-- Node17&#45;&gt;Node8 -->
<g id="edge19" class="edge"><title>Node17&#45;&gt;Node8</title>
<path fill="none" stroke="midnightblue" d="M539.613,-142.521C549.091,-145.399 558.866,-148.465 568,-151.5 594.458,-160.292 623.663,-170.942 647.487,-179.88"/>
<polygon fill="midnightblue" stroke="midnightblue" points="646.415,-183.216 657.007,-183.467 648.884,-176.665 646.415,-183.216"/>
</g>
<!-- Node18&#45;&gt;Node8 -->
<g id="edge21" class="edge"><title>Node18&#45;&gt;Node8</title>
<path fill="none" stroke="midnightblue" d="M366.238,-402.235C425.89,-403.402 506.549,-397.024 568,-362.5 625.811,-330.021 666.535,-259.778 684.948,-222.642"/>
<polygon fill="midnightblue" stroke="midnightblue" points="688.151,-224.058 689.345,-213.53 681.847,-221.015 688.151,-224.058"/>
</g>
</g>
</svg>
        <g id="navigator" transform="translate(0 0)" fill="#404254">
                <rect fill="#f2f5e9" fill-opacity="0.5" stroke="#606060" stroke-width=".5" x="0" y="0" width="60" height="60"/>
                <use id="zoomplus" xlink:href="#zoomPlus" x="17" y="9" onmousedown="handleZoom(evt,'in')"/>
                <use id="zoomminus" xlink:href="#zoomMin" x="42" y="9" onmousedown="handleZoom(evt,'out')"/>
                <use id="reset" xlink:href="#resetDef" x="30" y="36" onmousedown="handleReset()"/>
                <g id="arrowUp" xlink:href="#dirArrow" transform="translate(30 24)" onmousedown="handlePan(0,-1)">
                  <use xlink:href="#rim" fill="#404040">
                        <set attributeName="fill" to="#808080" begin="arrowUp.mouseover" end="arrowUp.mouseout"/>
                  </use>
                  <path fill="none" stroke="white" stroke-width="1.5" d="M0,-3.0v7 M-2.5,-0.5L0,-3.0L2.5,-0.5"/>
                </g>
                <g id="arrowRight" xlink:href="#dirArrow" transform="rotate(90) translate(36 -43)" onmousedown="handlePan(1,0)">
                  <use xlink:href="#rim" fill="#404040">
                        <set attributeName="fill" to="#808080" begin="arrowRight.mouseover" end="arrowRight.mouseout"/>
                  </use>
                  <path fill="none" stroke="white" stroke-width="1.5" d="M0,-3.0v7 M-2.5,-0.5L0,-3.0L2.5,-0.5"/>
                </g>
                <g id="arrowDown" xlink:href="#dirArrow" transform="rotate(180) translate(-30 -48)" onmousedown="handlePan(0,1)">
                  <use xlink:href="#rim" fill="#404040">
                        <set attributeName="fill" to="#808080" begin="arrowDown.mouseover" end="arrowDown.mouseout"/>
                  </use>
                  <path fill="none" stroke="white" stroke-width="1.5" d="M0,-3.0v7 M-2.5,-0.5L0,-3.0L2.5,-0.5"/>
                </g>
                <g id="arrowLeft" xlink:href="#dirArrow" transform="rotate(270) translate(-36 17)" onmousedown="handlePan(-1,0)">
                  <use xlink:href="#rim" fill="#404040">
                        <set attributeName="fill" to="#808080" begin="arrowLeft.mouseover" end="arrowLeft.mouseout"/>
                  </use>
                  <path fill="none" stroke="white" stroke-width="1.5" d="M0,-3.0v7 M-2.5,-0.5L0,-3.0L2.5,-0.5"/>
                </g>
        </g>
        <svg viewBox="0 0 15 15" width="100%" height="30px" preserveAspectRatio="xMaxYMin meet">
         <g id="arrow_out" transform="scale(0.3 0.3)">
          <a xlink:href="class_little_weeb_library_1_1_services_1_1_file_web_socket_service_ab1375e8e82a50dfa06d91bebe988d133_cgraph_org.svg" target="_base">
           <rect id="button" ry="5" rx="5" y="6" x="6" height="38" width="38"
                fill="#f2f5e9" fill-opacity="0.5" stroke="#606060" stroke-width="1.0"/>
           <path id="arrow"
             d="M 11.500037,31.436501 C 11.940474,20.09759 22.043105,11.32322 32.158766,21.979434 L 37.068811,17.246167 C 37.068811,17.246167 37.088388,32 37.088388,32 L 22.160133,31.978069 C 22.160133,31.978069 26.997745,27.140456 26.997745,27.140456 C 18.528582,18.264221 13.291696,25.230495 11.500037,31.436501 z"
             style="fill:#404040;"/>
          </a>
         </g>
        </svg>
</svg>
