<?xml version="1.0" encoding="UTF-8" standalone="no"?>
<!DOCTYPE svg PUBLIC "-//W3C//DTD SVG 1.1//EN"
 "http://www.w3.org/Graphics/SVG/1.1/DTD/svg11.dtd">
<!-- Generated by graphviz version 2.38.0 (20140413.2041)
 -->
<!-- Title: LittleWeebLibrary.Handlers.AnimeRuleHandler Pages: 1 -->
<svg width="425pt" height="314pt"
 viewBox="0.00 0.00 424.50 314.00" xmlns="http://www.w3.org/2000/svg" xmlns:xlink="http://www.w3.org/1999/xlink">
<g id="graph0" class="graph" transform="scale(1 1) rotate(0) translate(4 310)">
<title>LittleWeebLibrary.Handlers.AnimeRuleHandler</title>
<polygon fill="white" stroke="none" points="-4,4 -4,-310 420.5,-310 420.5,4 -4,4"/>
<!-- Node2 -->
<g id="node1" class="node"><title>Node2</title>
<polygon fill="#bfbfbf" stroke="black" points="124.5,-0.5 124.5,-112.5 261.5,-112.5 261.5,-0.5 124.5,-0.5"/>
<text text-anchor="start" x="132.5" y="-100.5" font-family="Helvetica,sans-Serif" font-size="10.00">LittleWeebLibrary.Handlers.</text>
<text text-anchor="middle" x="193" y="-89.5" font-family="Helvetica,sans-Serif" font-size="10.00">AnimeRuleHandler</text>
<polyline fill="none" stroke="black" points="124.5,-82.5 261.5,-82.5 "/>
<text text-anchor="start" x="132.5" y="-70.5" font-family="Helvetica,sans-Serif" font-size="10.00">&#45; GlobalRules</text>
<polyline fill="none" stroke="black" points="124.5,-63.5 261.5,-63.5 "/>
<text text-anchor="start" x="132.5" y="-51.5" font-family="Helvetica,sans-Serif" font-size="10.00">+ AnimeRuleHandler()</text>
<text text-anchor="start" x="132.5" y="-40.5" font-family="Helvetica,sans-Serif" font-size="10.00">+ AddRules()</text>
<text text-anchor="start" x="132.5" y="-29.5" font-family="Helvetica,sans-Serif" font-size="10.00">+ FilterAnimeRules()</text>
<text text-anchor="start" x="132.5" y="-18.5" font-family="Helvetica,sans-Serif" font-size="10.00">&#45; Get()</text>
<text text-anchor="start" x="132.5" y="-7.5" font-family="Helvetica,sans-Serif" font-size="10.00">&#45; Init()</text>
</g>
<!-- Node3 -->
<g id="node2" class="node"><title>Node3</title>
<g id="a_node2"><a xlink:href="interface_little_weeb_library_1_1_handlers_1_1_i_anime_rule_handler.html" target="_top" xlink:title="{IAnimeRuleHandler\n||+ AddRules()\l+ FilterAnimeRules()\l}">
<polygon fill="white" stroke="black" points="0,-199 0,-267 106,-267 106,-199 0,-199"/>
<text text-anchor="middle" x="53" y="-255" font-family="Helvetica,sans-Serif" font-size="10.00">IAnimeRuleHandler</text>
<polyline fill="none" stroke="black" points="0,-248 106,-248 "/>
<text text-anchor="middle" x="53" y="-236" font-family="Helvetica,sans-Serif" font-size="10.00"> </text>
<polyline fill="none" stroke="black" points="0,-229 106,-229 "/>
<text text-anchor="start" x="8" y="-217" font-family="Helvetica,sans-Serif" font-size="10.00">+ AddRules()</text>
<text text-anchor="start" x="8" y="-206" font-family="Helvetica,sans-Serif" font-size="10.00">+ FilterAnimeRules()</text>
</a>
</g>
</g>
<!-- Node3&#45;&gt;Node2 -->
<g id="edge1" class="edge"><title>Node3&#45;&gt;Node2</title>
<path fill="none" stroke="midnightblue" d="M86.0712,-190.779C104.812,-167.42 128.501,-137.894 148.816,-112.573"/>
<polygon fill="none" stroke="midnightblue" points="83.1904,-188.777 79.6625,-198.767 88.6503,-193.157 83.1904,-188.777"/>
</g>
<!-- Node4 -->
<g id="node3" class="node"><title>Node4</title>
<g id="a_node3"><a xlink:href="interface_little_weeb_library_1_1_handlers_1_1_i_debug_handler.html" target="_top" xlink:title="{LittleWeebLibrary.Handlers.\lIDebugHandler\n||+ SetSettings()\l+ StopDebugger()\l+ TraceMessage()\l}">
<polygon fill="white" stroke="black" points="124.5,-188 124.5,-278 261.5,-278 261.5,-188 124.5,-188"/>
<text text-anchor="start" x="132.5" y="-266" font-family="Helvetica,sans-Serif" font-size="10.00">LittleWeebLibrary.Handlers.</text>
<text text-anchor="middle" x="193" y="-255" font-family="Helvetica,sans-Serif" font-size="10.00">IDebugHandler</text>
<polyline fill="none" stroke="black" points="124.5,-248 261.5,-248 "/>
<text text-anchor="middle" x="193" y="-236" font-family="Helvetica,sans-Serif" font-size="10.00"> </text>
<polyline fill="none" stroke="black" points="124.5,-229 261.5,-229 "/>
<text text-anchor="start" x="132.5" y="-217" font-family="Helvetica,sans-Serif" font-size="10.00">+ SetSettings()</text>
<text text-anchor="start" x="132.5" y="-206" font-family="Helvetica,sans-Serif" font-size="10.00">+ StopDebugger()</text>
<text text-anchor="start" x="132.5" y="-195" font-family="Helvetica,sans-Serif" font-size="10.00">+ TraceMessage()</text>
</a>
</g>
</g>
<!-- Node4&#45;&gt;Node2 -->
<g id="edge2" class="edge"><title>Node4&#45;&gt;Node2</title>
<path fill="none" stroke="#404040" d="M193,-187.966C193,-168.892 193,-146.13 193,-125"/>
<polygon fill="none" stroke="#404040" points="193,-124.788 189,-118.788 193,-112.788 197,-118.788 193,-124.788"/>
<text text-anchor="middle" x="226.5" y="-134" font-family="Helvetica,sans-Serif" font-size="10.00"> &#45;DebugHandler</text>
</g>
<!-- Node5 -->
<g id="node4" class="node"><title>Node5</title>
<g id="a_node4"><a xlink:href="interface_little_weeb_library_1_1_handlers_1_1_i_data_base_handler.html" target="_top" xlink:title="{LittleWeebLibrary.Handlers.\lIDataBaseHandler\n||+ GetCollection()\l+ GetJObject()\l+ GetJObject()\l+ RemoveJObject()\l+ RemoveJObject()\l+ StoreJObject()\l+ UpdateJObject()\l+ UpdateJObject()\l}">
<polygon fill="white" stroke="black" points="279.5,-160.5 279.5,-305.5 416.5,-305.5 416.5,-160.5 279.5,-160.5"/>
<text text-anchor="start" x="287.5" y="-293.5" font-family="Helvetica,sans-Serif" font-size="10.00">LittleWeebLibrary.Handlers.</text>
<text text-anchor="middle" x="348" y="-282.5" font-family="Helvetica,sans-Serif" font-size="10.00">IDataBaseHandler</text>
<polyline fill="none" stroke="black" points="279.5,-275.5 416.5,-275.5 "/>
<text text-anchor="middle" x="348" y="-263.5" font-family="Helvetica,sans-Serif" font-size="10.00"> </text>
<polyline fill="none" stroke="black" points="279.5,-256.5 416.5,-256.5 "/>
<text text-anchor="start" x="287.5" y="-244.5" font-family="Helvetica,sans-Serif" font-size="10.00">+ GetCollection()</text>
<text text-anchor="start" x="287.5" y="-233.5" font-family="Helvetica,sans-Serif" font-size="10.00">+ GetJObject()</text>
<text text-anchor="start" x="287.5" y="-222.5" font-family="Helvetica,sans-Serif" font-size="10.00">+ GetJObject()</text>
<text text-anchor="start" x="287.5" y="-211.5" font-family="Helvetica,sans-Serif" font-size="10.00">+ RemoveJObject()</text>
<text text-anchor="start" x="287.5" y="-200.5" font-family="Helvetica,sans-Serif" font-size="10.00">+ RemoveJObject()</text>
<text text-anchor="start" x="287.5" y="-189.5" font-family="Helvetica,sans-Serif" font-size="10.00">+ StoreJObject()</text>
<text text-anchor="start" x="287.5" y="-178.5" font-family="Helvetica,sans-Serif" font-size="10.00">+ UpdateJObject()</text>
<text text-anchor="start" x="287.5" y="-167.5" font-family="Helvetica,sans-Serif" font-size="10.00">+ UpdateJObject()</text>
</a>
</g>
</g>
<!-- Node5&#45;&gt;Node2 -->
<g id="edge3" class="edge"><title>Node5&#45;&gt;Node2</title>
<path fill="none" stroke="#404040" d="M289.452,-160.255C281.027,-150.328 272.374,-140.339 264,-131 261.252,-127.935 258.419,-124.822 255.538,-121.694"/>
<polygon fill="none" stroke="#404040" points="255.502,-121.656 248.487,-119.988 247.328,-112.871 254.343,-114.538 255.502,-121.656"/>
<text text-anchor="middle" x="315" y="-134" font-family="Helvetica,sans-Serif" font-size="10.00"> &#45;DataBaseHandler</text>
</g>
</g>
</svg>
