<?xml version="1.0" encoding="UTF-8" standalone="no"?>
<!DOCTYPE svg PUBLIC "-//W3C//DTD SVG 1.1//EN"
 "http://www.w3.org/Graphics/SVG/1.1/DTD/svg11.dtd">
<!-- Generated by graphviz version 2.38.0 (20140413.2041)
 -->
<!-- Title: LittleWeebLibrary.Handlers.IrcClientHandler.StartDownload Pages: 1 -->
<svg width="393pt" height="39pt"
 viewBox="0.00 0.00 393.00 39.00" xmlns="http://www.w3.org/2000/svg" xmlns:xlink="http://www.w3.org/1999/xlink">
<g id="graph0" class="graph" transform="scale(1 1) rotate(0) translate(4 35)">
<title>LittleWeebLibrary.Handlers.IrcClientHandler.StartDownload</title>
<polygon fill="white" stroke="none" points="-4,4 -4,-35 389,-35 389,4 -4,4"/>
<!-- Node25 -->
<g id="node1" class="node"><title>Node25</title>
<polygon fill="#bfbfbf" stroke="black" points="0,-0.5 0,-30.5 151,-30.5 151,-0.5 0,-0.5"/>
<text text-anchor="start" x="8" y="-18.5" font-family="Helvetica,sans-Serif" font-size="10.00">LittleWeebLibrary.Handlers.</text>
<text text-anchor="middle" x="75.5" y="-7.5" font-family="Helvetica,sans-Serif" font-size="10.00">IrcClientHandler.StartDownload</text>
</g>
<!-- Node26 -->
<g id="node2" class="node"><title>Node26</title>
<g id="a_node2"><a xlink:href="class_little_weeb_library_1_1_handlers_1_1_download_handler.html#a2f646f8d28235a8953b67207ee6131d9" target="_top" xlink:title="LittleWeebLibrary.Handlers.\lDownloadHandler.DownloadQueueHandler">
<polygon fill="white" stroke="black" points="187,-0.5 187,-30.5 385,-30.5 385,-0.5 187,-0.5"/>
<text text-anchor="start" x="195" y="-18.5" font-family="Helvetica,sans-Serif" font-size="10.00">LittleWeebLibrary.Handlers.</text>
<text text-anchor="middle" x="286" y="-7.5" font-family="Helvetica,sans-Serif" font-size="10.00">DownloadHandler.DownloadQueueHandler</text>
</a>
</g>
</g>
<!-- Node25&#45;&gt;Node26 -->
<g id="edge1" class="edge"><title>Node25&#45;&gt;Node26</title>
<path fill="none" stroke="midnightblue" d="M161.333,-15.5C169.737,-15.5 178.316,-15.5 186.84,-15.5"/>
<polygon fill="midnightblue" stroke="midnightblue" points="161.184,-12.0001 151.184,-15.5 161.184,-19.0001 161.184,-12.0001"/>
</g>
</g>
</svg>
