<?xml version="1.0" encoding="UTF-8" standalone="no"?>
<!DOCTYPE svg PUBLIC "-//W3C//DTD SVG 1.1//EN"
 "http://www.w3.org/Graphics/SVG/1.1/DTD/svg11.dtd">
<!-- Generated by graphviz version 2.38.0 (20140413.2041)
 -->
<!-- Title: LittleWeebLibrary.Handlers.AnimeProfileHandler.GetCurrentlyAiring Pages: 1 -->
<!--zoomable 335 -->
<svg id="main" version="1.1" xmlns="http://www.w3.org/2000/svg" xmlns:xlink="http://www.w3.org/1999/xlink" xml:space="preserve" onload="init(evt)">
<style type="text/css"><![CDATA[
.edge:hover path { stroke: red; }
.edge:hover polygon { stroke: red; fill: red; }
]]></style>
<script type="text/javascript"><![CDATA[
var edges = document.getElementsByTagName('g');
if (edges && edges.length) {
  for (var i=0;i<edges.length;i++) {
    if (edges[i].id.substr(0,4)=='edge') {
      edges[i].setAttribute('class','edge');
    }
  }
}
]]></script>
        <defs>
                <circle id="rim" cx="0" cy="0" r="7"/>
                <circle id="rim2" cx="0" cy="0" r="3.5"/>
                <g id="zoomPlus">
                        <use xlink:href="#rim" fill="#404040">
                                <set attributeName="fill" to="#808080" begin="zoomplus.mouseover" end="zoomplus.mouseout"/>
                        </use>
                        <path d="M-4,0h8M0,-4v8" fill="none" stroke="white" stroke-width="1.5" pointer-events="none"/>
                </g>
                <g id="zoomMin">
                        <use xlink:href="#rim" fill="#404040">
                                <set attributeName="fill" to="#808080" begin="zoomminus.mouseover" end="zoomminus.mouseout"/>
                        </use>
                        <path d="M-4,0h8" fill="none" stroke="white" stroke-width="1.5" pointer-events="none"/>
                </g>
                <g id="dirArrow">
                        <path fill="none" stroke="white" stroke-width="1.5" d="M0,-3.0v7 M-2.5,-0.5L0,-3.0L2.5,-0.5"/>
                </g>
               <g id="resetDef">
                       <use xlink:href="#rim2" fill="#404040">
                               <set attributeName="fill" to="#808080" begin="reset.mouseover" end="reset.mouseout"/>
                       </use>
               </g>
        </defs>

<script type="text/javascript">
var viewWidth = 592;
var viewHeight = 335;
var sectionId = 'dynsection-7';
</script>
<script xlink:href="svgpan.js"/>
<svg id="graph" class="graph">
<g id="viewport">
<title>LittleWeebLibrary.Handlers.AnimeProfileHandler.GetCurrentlyAiring</title>
<polygon fill="white" stroke="none" points="-4,4 -4,-331 588,-331 588,4 -4,4"/>
<!-- Node31 -->
<g id="node1" class="node"><title>Node31</title>
<polygon fill="#bfbfbf" stroke="black" points="0,-154 0,-195 162,-195 162,-154 0,-154"/>
<text text-anchor="start" x="8" y="-183" font-family="Helvetica,sans-Serif" font-size="10.00">LittleWeebLibrary.Handlers.</text>
<text text-anchor="start" x="8" y="-172" font-family="Helvetica,sans-Serif" font-size="10.00">AnimeProfileHandler.GetCurrently</text>
<text text-anchor="middle" x="81" y="-161" font-family="Helvetica,sans-Serif" font-size="10.00">Airing</text>
</g>
<!-- Node32 -->
<g id="node2" class="node"><title>Node32</title>
<g id="a_node2"><a xlink:href="class_little_weeb_library_1_1_handlers_1_1_kitsu_handler.html#af733f442659b7789588da55b00c065c4" target="_top" xlink:title="LittleWeebLibrary.Handlers.\lKitsuHandler.GetCurrentlyAiring">
<polygon fill="white" stroke="black" points="202.5,-208.5 202.5,-238.5 357.5,-238.5 357.5,-208.5 202.5,-208.5"/>
<text text-anchor="start" x="210.5" y="-226.5" font-family="Helvetica,sans-Serif" font-size="10.00">LittleWeebLibrary.Handlers.</text>
<text text-anchor="middle" x="280" y="-215.5" font-family="Helvetica,sans-Serif" font-size="10.00">KitsuHandler.GetCurrentlyAiring</text>
</a>
</g>
</g>
<!-- Node31&#45;&gt;Node32 -->
<g id="edge1" class="edge"><title>Node31&#45;&gt;Node32</title>
<path fill="none" stroke="midnightblue" d="M162.127,-194.43C177.594,-198.277 193.688,-202.28 208.809,-206.041"/>
<polygon fill="midnightblue" stroke="midnightblue" points="208.039,-209.456 218.588,-208.474 209.729,-202.663 208.039,-209.456"/>
</g>
<!-- Node33 -->
<g id="node3" class="node"><title>Node33</title>
<g id="a_node3"><a xlink:href="class_little_weeb_library_1_1_handlers_1_1_debug_handler.html#afccb37dfd6b2114af72000c2f4fe4607" target="_top" xlink:title="LittleWeebLibrary.Handlers.\lDebugHandler.TraceMessage">
<polygon fill="white" stroke="black" points="419,-208.5 419,-238.5 563,-238.5 563,-208.5 419,-208.5"/>
<text text-anchor="start" x="427" y="-226.5" font-family="Helvetica,sans-Serif" font-size="10.00">LittleWeebLibrary.Handlers.</text>
<text text-anchor="middle" x="491" y="-215.5" font-family="Helvetica,sans-Serif" font-size="10.00">DebugHandler.TraceMessage</text>
</a>
</g>
</g>
<!-- Node31&#45;&gt;Node33 -->
<g id="edge14" class="edge"><title>Node31&#45;&gt;Node33</title>
<path fill="none" stroke="midnightblue" d="M105.323,-195.123C127.429,-213.188 162.456,-238.128 198,-248.5 276.03,-271.27 370.388,-255.884 430.306,-241.098"/>
<polygon fill="midnightblue" stroke="midnightblue" points="431.52,-244.401 440.349,-238.545 429.795,-237.616 431.52,-244.401"/>
</g>
<!-- Node34 -->
<g id="node4" class="node"><title>Node34</title>
<g id="a_node4"><a xlink:href="class_little_weeb_library_1_1_static_classes_1_1_utility_methods.html#a12336d9e64983ddabaad8950486fafb2" target="_top" xlink:title="LittleWeebLibrary.Static\lClasses.UtilityMethods.GetEpoch">
<polygon fill="white" stroke="black" points="198,-12.5 198,-42.5 362,-42.5 362,-12.5 198,-12.5"/>
<text text-anchor="start" x="206" y="-30.5" font-family="Helvetica,sans-Serif" font-size="10.00">LittleWeebLibrary.Static</text>
<text text-anchor="middle" x="280" y="-19.5" font-family="Helvetica,sans-Serif" font-size="10.00">Classes.UtilityMethods.GetEpoch</text>
</a>
</g>
</g>
<!-- Node31&#45;&gt;Node34 -->
<g id="edge3" class="edge"><title>Node31&#45;&gt;Node34</title>
<path fill="none" stroke="midnightblue" d="M96.0122,-153.901C115.669,-126.551 153.995,-78.5625 198,-51.5 200.663,-49.8625 203.443,-48.3313 206.304,-46.9001"/>
<polygon fill="midnightblue" stroke="midnightblue" points="207.999,-49.9746 215.665,-42.6616 205.112,-43.5978 207.999,-49.9746"/>
</g>
<!-- Node35 -->
<g id="node5" class="node"><title>Node35</title>
<g id="a_node5"><a xlink:href="class_little_weeb_library_1_1_handlers_1_1_data_base_handler.html#a7f61583807f99b7838a33d2db0f7ca68" target="_top" xlink:title="LittleWeebLibrary.Handlers.\lDataBaseHandler.GetJObject">
<polygon fill="white" stroke="black" points="208,-110.5 208,-140.5 352,-140.5 352,-110.5 208,-110.5"/>
<text text-anchor="start" x="216" y="-128.5" font-family="Helvetica,sans-Serif" font-size="10.00">LittleWeebLibrary.Handlers.</text>
<text text-anchor="middle" x="280" y="-117.5" font-family="Helvetica,sans-Serif" font-size="10.00">DataBaseHandler.GetJObject</text>
</a>
</g>
</g>
<!-- Node31&#45;&gt;Node35 -->
<g id="edge4" class="edge"><title>Node31&#45;&gt;Node35</title>
<path fill="none" stroke="midnightblue" d="M162.127,-154.57C177.594,-150.723 193.688,-146.72 208.809,-142.959"/>
<polygon fill="midnightblue" stroke="midnightblue" points="209.729,-146.337 218.588,-140.526 208.039,-139.544 209.729,-146.337"/>
</g>
<!-- Node38 -->
<g id="node8" class="node"><title>Node38</title>
<g id="a_node8"><a xlink:href="class_little_weeb_library_1_1_handlers_1_1_nibl_handler.html#a20fef31afe52976e394fc44659cc3593" target="_top" xlink:title="LittleWeebLibrary.Handlers.\lNiblHandler.GetLatestFiles">
<polygon fill="white" stroke="black" points="211.5,-159.5 211.5,-189.5 348.5,-189.5 348.5,-159.5 211.5,-159.5"/>
<text text-anchor="start" x="219.5" y="-177.5" font-family="Helvetica,sans-Serif" font-size="10.00">LittleWeebLibrary.Handlers.</text>
<text text-anchor="middle" x="280" y="-166.5" font-family="Helvetica,sans-Serif" font-size="10.00">NiblHandler.GetLatestFiles</text>
</a>
</g>
</g>
<!-- Node31&#45;&gt;Node38 -->
<g id="edge8" class="edge"><title>Node31&#45;&gt;Node38</title>
<path fill="none" stroke="midnightblue" d="M162.127,-174.5C174.988,-174.5 188.281,-174.5 201.089,-174.5"/>
<polygon fill="midnightblue" stroke="midnightblue" points="201.238,-178 211.238,-174.5 201.238,-171 201.238,-178"/>
</g>
<!-- Node39 -->
<g id="node9" class="node"><title>Node39</title>
<g id="a_node9"><a xlink:href="class_little_weeb_library_1_1_handlers_1_1_data_base_handler.html#a5e6a70ef81b049da46b6ae3a15b09cd3" target="_top" xlink:title="LittleWeebLibrary.Handlers.\lDataBaseHandler.StoreJObject">
<polygon fill="white" stroke="black" points="204,-61.5 204,-91.5 356,-91.5 356,-61.5 204,-61.5"/>
<text text-anchor="start" x="212" y="-79.5" font-family="Helvetica,sans-Serif" font-size="10.00">LittleWeebLibrary.Handlers.</text>
<text text-anchor="middle" x="280" y="-68.5" font-family="Helvetica,sans-Serif" font-size="10.00">DataBaseHandler.StoreJObject</text>
</a>
</g>
</g>
<!-- Node31&#45;&gt;Node39 -->
<g id="edge10" class="edge"><title>Node31&#45;&gt;Node39</title>
<path fill="none" stroke="midnightblue" d="M109.342,-153.935C132.09,-137.612 165.834,-115.172 198,-100.5 202.278,-98.5484 206.756,-96.7092 211.315,-94.9849"/>
<polygon fill="midnightblue" stroke="midnightblue" points="212.516,-98.2727 220.751,-91.6075 210.157,-91.6821 212.516,-98.2727"/>
</g>
<!-- Node42 -->
<g id="node12" class="node"><title>Node42</title>
<g id="a_node12"><a xlink:href="class_little_weeb_library_1_1_handlers_1_1_data_base_handler.html#a9b2223ff71f688234f95d247ea3b5739" target="_top" xlink:title="LittleWeebLibrary.Handlers.\lDataBaseHandler.UpdateJObject">
<polygon fill="white" stroke="black" points="200.5,-296.5 200.5,-326.5 359.5,-326.5 359.5,-296.5 200.5,-296.5"/>
<text text-anchor="start" x="208.5" y="-314.5" font-family="Helvetica,sans-Serif" font-size="10.00">LittleWeebLibrary.Handlers.</text>
<text text-anchor="middle" x="280" y="-303.5" font-family="Helvetica,sans-Serif" font-size="10.00">DataBaseHandler.UpdateJObject</text>
</a>
</g>
</g>
<!-- Node31&#45;&gt;Node42 -->
<g id="edge15" class="edge"><title>Node31&#45;&gt;Node42</title>
<path fill="none" stroke="midnightblue" d="M99.786,-195.211C121.063,-218.882 158.756,-257.446 198,-281.5 204.652,-285.578 211.947,-289.237 219.347,-292.48"/>
<polygon fill="midnightblue" stroke="midnightblue" points="218.159,-295.776 228.738,-296.364 220.835,-289.307 218.159,-295.776"/>
</g>
<!-- Node32&#45;&gt;Node33 -->
<g id="edge2" class="edge"><title>Node32&#45;&gt;Node33</title>
<path fill="none" stroke="midnightblue" d="M357.637,-223.5C374.231,-223.5 391.837,-223.5 408.606,-223.5"/>
<polygon fill="midnightblue" stroke="midnightblue" points="408.923,-227 418.923,-223.5 408.923,-220 408.923,-227"/>
</g>
<!-- Node35&#45;&gt;Node33 -->
<g id="edge5" class="edge"><title>Node35&#45;&gt;Node33</title>
<path fill="none" stroke="midnightblue" d="M346.022,-140.534C351.659,-143.077 357.08,-146.042 362,-149.5 384.109,-165.039 375.716,-183.214 398,-198.5 401.709,-201.044 405.666,-203.33 409.779,-205.383"/>
<polygon fill="midnightblue" stroke="midnightblue" points="408.435,-208.616 418.991,-209.518 411.301,-202.23 408.435,-208.616"/>
</g>
<!-- Node36 -->
<g id="node6" class="node"><title>Node36</title>
<g id="a_node6"><a xlink:href="class_little_weeb_library_1_1_static_classes_1_1_utility_methods.html#a7b5de7a3ecc749b655fc3ed2af55360b" target="_top" xlink:title="LittleWeebLibrary.Static\lClasses.UtilityMethods.ReadBinaryFile">
<polygon fill="white" stroke="black" points="398,-110.5 398,-140.5 584,-140.5 584,-110.5 398,-110.5"/>
<text text-anchor="start" x="406" y="-128.5" font-family="Helvetica,sans-Serif" font-size="10.00">LittleWeebLibrary.Static</text>
<text text-anchor="middle" x="491" y="-117.5" font-family="Helvetica,sans-Serif" font-size="10.00">Classes.UtilityMethods.ReadBinaryFile</text>
</a>
</g>
</g>
<!-- Node35&#45;&gt;Node36 -->
<g id="edge6" class="edge"><title>Node35&#45;&gt;Node36</title>
<path fill="none" stroke="midnightblue" d="M352.049,-125.5C363.514,-125.5 375.578,-125.5 387.605,-125.5"/>
<polygon fill="midnightblue" stroke="midnightblue" points="387.686,-129 397.686,-125.5 387.685,-122 387.686,-129"/>
</g>
<!-- Node37 -->
<g id="node7" class="node"><title>Node37</title>
<g id="a_node7"><a xlink:href="class_little_weeb_library_1_1_static_classes_1_1_utility_methods.html#a0a86ee01a3bf201bd9cc9b2552e54976" target="_top" xlink:title="LittleWeebLibrary.Static\lClasses.UtilityMethods.Unzip">
<polygon fill="white" stroke="black" points="418.5,-159.5 418.5,-189.5 563.5,-189.5 563.5,-159.5 418.5,-159.5"/>
<text text-anchor="start" x="426.5" y="-177.5" font-family="Helvetica,sans-Serif" font-size="10.00">LittleWeebLibrary.Static</text>
<text text-anchor="middle" x="491" y="-166.5" font-family="Helvetica,sans-Serif" font-size="10.00">Classes.UtilityMethods.Unzip</text>
</a>
</g>
</g>
<!-- Node35&#45;&gt;Node37 -->
<g id="edge7" class="edge"><title>Node35&#45;&gt;Node37</title>
<path fill="none" stroke="midnightblue" d="M345.127,-140.535C367.596,-145.802 393.007,-151.76 416.203,-157.198"/>
<polygon fill="midnightblue" stroke="midnightblue" points="415.459,-160.619 425.994,-159.494 417.057,-153.804 415.459,-160.619"/>
</g>
<!-- Node38&#45;&gt;Node33 -->
<g id="edge9" class="edge"><title>Node38&#45;&gt;Node33</title>
<path fill="none" stroke="midnightblue" d="M345.127,-189.535C367.596,-194.802 393.007,-200.76 416.203,-206.198"/>
<polygon fill="midnightblue" stroke="midnightblue" points="415.459,-209.619 425.994,-208.494 417.057,-202.804 415.459,-209.619"/>
</g>
<!-- Node39&#45;&gt;Node33 -->
<g id="edge11" class="edge"><title>Node39&#45;&gt;Node33</title>
<path fill="none" stroke="midnightblue" d="M349.888,-91.6459C354.263,-94.1598 358.363,-97.0885 362,-100.5 395.844,-132.244 363.798,-167.142 398,-198.5 401.456,-201.669 405.274,-204.442 409.331,-206.869"/>
<polygon fill="midnightblue" stroke="midnightblue" points="408.058,-210.152 418.547,-211.648 411.28,-203.937 408.058,-210.152"/>
</g>
<!-- Node40 -->
<g id="node10" class="node"><title>Node40</title>
<g id="a_node10"><a xlink:href="class_little_weeb_library_1_1_static_classes_1_1_utility_methods.html#a16933213071d531063b29979e7b55fe8" target="_top" xlink:title="LittleWeebLibrary.Static\lClasses.UtilityMethods.Zip">
<polygon fill="white" stroke="black" points="424.5,-0.5 424.5,-30.5 557.5,-30.5 557.5,-0.5 424.5,-0.5"/>
<text text-anchor="start" x="432.5" y="-18.5" font-family="Helvetica,sans-Serif" font-size="10.00">LittleWeebLibrary.Static</text>
<text text-anchor="middle" x="491" y="-7.5" font-family="Helvetica,sans-Serif" font-size="10.00">Classes.UtilityMethods.Zip</text>
</a>
</g>
</g>
<!-- Node39&#45;&gt;Node40 -->
<g id="edge12" class="edge"><title>Node39&#45;&gt;Node40</title>
<path fill="none" stroke="midnightblue" d="M329.755,-61.4583C360.265,-52.0523 394.453,-41.5273 398,-40.5 406.317,-38.0912 415.076,-35.623 423.75,-33.2202"/>
<polygon fill="midnightblue" stroke="midnightblue" points="424.766,-36.5706 433.479,-30.5417 422.908,-29.8217 424.766,-36.5706"/>
</g>
<!-- Node41 -->
<g id="node11" class="node"><title>Node41</title>
<g id="a_node11"><a xlink:href="class_little_weeb_library_1_1_static_classes_1_1_utility_methods.html#a6542a3a6ea0aed6b4d78bb44a4a7d9d7" target="_top" xlink:title="LittleWeebLibrary.Static\lClasses.UtilityMethods.Write\lBinaryFile">
<polygon fill="white" stroke="black" points="419.5,-50 419.5,-91 562.5,-91 562.5,-50 419.5,-50"/>
<text text-anchor="start" x="427.5" y="-79" font-family="Helvetica,sans-Serif" font-size="10.00">LittleWeebLibrary.Static</text>
<text text-anchor="start" x="427.5" y="-68" font-family="Helvetica,sans-Serif" font-size="10.00">Classes.UtilityMethods.Write</text>
<text text-anchor="middle" x="491" y="-57" font-family="Helvetica,sans-Serif" font-size="10.00">BinaryFile</text>
</a>
</g>
</g>
<!-- Node39&#45;&gt;Node41 -->
<g id="edge13" class="edge"><title>Node39&#45;&gt;Node41</title>
<path fill="none" stroke="midnightblue" d="M356.159,-74.3423C373.376,-73.8481 391.75,-73.3206 409.195,-72.8198"/>
<polygon fill="midnightblue" stroke="midnightblue" points="409.447,-76.3141 419.342,-72.5285 409.246,-69.317 409.447,-76.3141"/>
</g>
<!-- Node42&#45;&gt;Node33 -->
<g id="edge16" class="edge"><title>Node42&#45;&gt;Node33</title>
<path fill="none" stroke="midnightblue" d="M323.26,-296.49C335.8,-291.864 349.517,-286.632 362,-281.5 391.512,-269.366 424.279,-254.492 449.272,-242.844"/>
<polygon fill="midnightblue" stroke="midnightblue" points="450.874,-245.959 458.448,-238.55 447.907,-239.619 450.874,-245.959"/>
</g>
</g>
</svg>
        <g id="navigator" transform="translate(0 0)" fill="#404254">
                <rect fill="#f2f5e9" fill-opacity="0.5" stroke="#606060" stroke-width=".5" x="0" y="0" width="60" height="60"/>
                <use id="zoomplus" xlink:href="#zoomPlus" x="17" y="9" onmousedown="handleZoom(evt,'in')"/>
                <use id="zoomminus" xlink:href="#zoomMin" x="42" y="9" onmousedown="handleZoom(evt,'out')"/>
                <use id="reset" xlink:href="#resetDef" x="30" y="36" onmousedown="handleReset()"/>
                <g id="arrowUp" xlink:href="#dirArrow" transform="translate(30 24)" onmousedown="handlePan(0,-1)">
                  <use xlink:href="#rim" fill="#404040">
                        <set attributeName="fill" to="#808080" begin="arrowUp.mouseover" end="arrowUp.mouseout"/>
                  </use>
                  <path fill="none" stroke="white" stroke-width="1.5" d="M0,-3.0v7 M-2.5,-0.5L0,-3.0L2.5,-0.5"/>
                </g>
                <g id="arrowRight" xlink:href="#dirArrow" transform="rotate(90) translate(36 -43)" onmousedown="handlePan(1,0)">
                  <use xlink:href="#rim" fill="#404040">
                        <set attributeName="fill" to="#808080" begin="arrowRight.mouseover" end="arrowRight.mouseout"/>
                  </use>
                  <path fill="none" stroke="white" stroke-width="1.5" d="M0,-3.0v7 M-2.5,-0.5L0,-3.0L2.5,-0.5"/>
                </g>
                <g id="arrowDown" xlink:href="#dirArrow" transform="rotate(180) translate(-30 -48)" onmousedown="handlePan(0,1)">
                  <use xlink:href="#rim" fill="#404040">
                        <set attributeName="fill" to="#808080" begin="arrowDown.mouseover" end="arrowDown.mouseout"/>
                  </use>
                  <path fill="none" stroke="white" stroke-width="1.5" d="M0,-3.0v7 M-2.5,-0.5L0,-3.0L2.5,-0.5"/>
                </g>
                <g id="arrowLeft" xlink:href="#dirArrow" transform="rotate(270) translate(-36 17)" onmousedown="handlePan(-1,0)">
                  <use xlink:href="#rim" fill="#404040">
                        <set attributeName="fill" to="#808080" begin="arrowLeft.mouseover" end="arrowLeft.mouseout"/>
                  </use>
                  <path fill="none" stroke="white" stroke-width="1.5" d="M0,-3.0v7 M-2.5,-0.5L0,-3.0L2.5,-0.5"/>
                </g>
        </g>
        <svg viewBox="0 0 15 15" width="100%" height="30px" preserveAspectRatio="xMaxYMin meet">
         <g id="arrow_out" transform="scale(0.3 0.3)">
          <a xlink:href="class_little_weeb_library_1_1_handlers_1_1_anime_profile_handler_a7469a40799e1067d871ba87679f54c37_cgraph_org.svg" target="_base">
           <rect id="button" ry="5" rx="5" y="6" x="6" height="38" width="38"
                fill="#f2f5e9" fill-opacity="0.5" stroke="#606060" stroke-width="1.0"/>
           <path id="arrow"
             d="M 11.500037,31.436501 C 11.940474,20.09759 22.043105,11.32322 32.158766,21.979434 L 37.068811,17.246167 C 37.068811,17.246167 37.088388,32 37.088388,32 L 22.160133,31.978069 C 22.160133,31.978069 26.997745,27.140456 26.997745,27.140456 C 18.528582,18.264221 13.291696,25.230495 11.500037,31.436501 z"
             style="fill:#404040;"/>
          </a>
         </g>
        </svg>
</svg>
