<?xml version="1.0" encoding="UTF-8" standalone="no"?>
<!DOCTYPE svg PUBLIC "-//W3C//DTD SVG 1.1//EN"
 "http://www.w3.org/Graphics/SVG/1.1/DTD/svg11.dtd">
<!-- Generated by graphviz version 2.38.0 (20140413.2041)
 -->
<!-- Title: LittleWeebLibrary.Handlers.AnimeProfileHandler.ParseTitles Pages: 1 -->
<svg width="372pt" height="149pt"
 viewBox="0.00 0.00 372.00 149.00" xmlns="http://www.w3.org/2000/svg" xmlns:xlink="http://www.w3.org/1999/xlink">
<g id="graph0" class="graph" transform="scale(1 1) rotate(0) translate(4 145)">
<title>LittleWeebLibrary.Handlers.AnimeProfileHandler.ParseTitles</title>
<polygon fill="white" stroke="none" points="-4,4 -4,-145 368,-145 368,4 -4,4"/>
<!-- Node52 -->
<g id="node1" class="node"><title>Node52</title>
<polygon fill="#bfbfbf" stroke="black" points="0,-55.5 0,-85.5 156,-85.5 156,-55.5 0,-55.5"/>
<text text-anchor="start" x="8" y="-73.5" font-family="Helvetica,sans-Serif" font-size="10.00">LittleWeebLibrary.Handlers.</text>
<text text-anchor="middle" x="78" y="-62.5" font-family="Helvetica,sans-Serif" font-size="10.00">AnimeProfileHandler.ParseTitles</text>
</g>
<!-- Node53 -->
<g id="node2" class="node"><title>Node53</title>
<g id="a_node2"><a xlink:href="class_little_weeb_library_1_1_static_classes_1_1_utility_methods.html#ab54bc5e0856652f4554fda497af655b8" target="_top" xlink:title="LittleWeebLibrary.Static\lClasses.UtilityMethods.IntToRoman">
<polygon fill="white" stroke="black" points="192,-110.5 192,-140.5 364,-140.5 364,-110.5 192,-110.5"/>
<text text-anchor="start" x="200" y="-128.5" font-family="Helvetica,sans-Serif" font-size="10.00">LittleWeebLibrary.Static</text>
<text text-anchor="middle" x="278" y="-117.5" font-family="Helvetica,sans-Serif" font-size="10.00">Classes.UtilityMethods.IntToRoman</text>
</a>
</g>
</g>
<!-- Node52&#45;&gt;Node53 -->
<g id="edge1" class="edge"><title>Node52&#45;&gt;Node53</title>
<path fill="none" stroke="midnightblue" d="M133.104,-85.529C157.878,-92.4104 187.409,-100.614 213.254,-107.793"/>
<polygon fill="midnightblue" stroke="midnightblue" points="212.389,-111.185 222.961,-110.489 214.263,-104.44 212.389,-111.185"/>
</g>
<!-- Node54 -->
<g id="node3" class="node"><title>Node54</title>
<g id="a_node3"><a xlink:href="class_little_weeb_library_1_1_static_classes_1_1_utility_methods.html#aa04235b1cf84b6741c496d8ecaea0eeb" target="_top" xlink:title="LittleWeebLibrary.Static\lClasses.UtilityMethods.Remove\lSpecialCharacters">
<polygon fill="white" stroke="black" points="200.5,-50 200.5,-91 355.5,-91 355.5,-50 200.5,-50"/>
<text text-anchor="start" x="208.5" y="-79" font-family="Helvetica,sans-Serif" font-size="10.00">LittleWeebLibrary.Static</text>
<text text-anchor="start" x="208.5" y="-68" font-family="Helvetica,sans-Serif" font-size="10.00">Classes.UtilityMethods.Remove</text>
<text text-anchor="middle" x="278" y="-57" font-family="Helvetica,sans-Serif" font-size="10.00">SpecialCharacters</text>
</a>
</g>
</g>
<!-- Node52&#45;&gt;Node54 -->
<g id="edge2" class="edge"><title>Node52&#45;&gt;Node54</title>
<path fill="none" stroke="midnightblue" d="M156.119,-70.5C167.259,-70.5 178.788,-70.5 190.103,-70.5"/>
<polygon fill="midnightblue" stroke="midnightblue" points="190.417,-74.0001 200.417,-70.5 190.417,-67.0001 190.417,-74.0001"/>
</g>
<!-- Node55 -->
<g id="node4" class="node"><title>Node55</title>
<g id="a_node4"><a xlink:href="class_little_weeb_library_1_1_handlers_1_1_debug_handler.html#afccb37dfd6b2114af72000c2f4fe4607" target="_top" xlink:title="LittleWeebLibrary.Handlers.\lDebugHandler.TraceMessage">
<polygon fill="white" stroke="black" points="206,-0.5 206,-30.5 350,-30.5 350,-0.5 206,-0.5"/>
<text text-anchor="start" x="214" y="-18.5" font-family="Helvetica,sans-Serif" font-size="10.00">LittleWeebLibrary.Handlers.</text>
<text text-anchor="middle" x="278" y="-7.5" font-family="Helvetica,sans-Serif" font-size="10.00">DebugHandler.TraceMessage</text>
</a>
</g>
</g>
<!-- Node52&#45;&gt;Node55 -->
<g id="edge3" class="edge"><title>Node52&#45;&gt;Node55</title>
<path fill="none" stroke="midnightblue" d="M133.104,-55.471C157.878,-48.5896 187.409,-40.3863 213.254,-33.2072"/>
<polygon fill="midnightblue" stroke="midnightblue" points="214.263,-36.5596 222.961,-30.5108 212.389,-29.815 214.263,-36.5596"/>
</g>
</g>
</svg>
