<?xml version="1.0" encoding="UTF-8" standalone="no"?>
<!DOCTYPE svg PUBLIC "-//W3C//DTD SVG 1.1//EN"
 "http://www.w3.org/Graphics/SVG/1.1/DTD/svg11.dtd">
<!-- Generated by graphviz version 2.38.0 (20140413.2041)
 -->
<!-- Title: LittleWeebLibrary.Controllers.SubControllers.VersionWebSocketController Pages: 1 -->
<!--zoomable 226 -->
<svg id="main" version="1.1" xmlns="http://www.w3.org/2000/svg" xmlns:xlink="http://www.w3.org/1999/xlink" xml:space="preserve" onload="init(evt)">
<style type="text/css"><![CDATA[
.edge:hover path { stroke: red; }
.edge:hover polygon { stroke: red; fill: red; }
]]></style>
<script type="text/javascript"><![CDATA[
var edges = document.getElementsByTagName('g');
if (edges && edges.length) {
  for (var i=0;i<edges.length;i++) {
    if (edges[i].id.substr(0,4)=='edge') {
      edges[i].setAttribute('class','edge');
    }
  }
}
]]></script>
        <defs>
                <circle id="rim" cx="0" cy="0" r="7"/>
                <circle id="rim2" cx="0" cy="0" r="3.5"/>
                <g id="zoomPlus">
                        <use xlink:href="#rim" fill="#404040">
                                <set attributeName="fill" to="#808080" begin="zoomplus.mouseover" end="zoomplus.mouseout"/>
                        </use>
                        <path d="M-4,0h8M0,-4v8" fill="none" stroke="white" stroke-width="1.5" pointer-events="none"/>
                </g>
                <g id="zoomMin">
                        <use xlink:href="#rim" fill="#404040">
                                <set attributeName="fill" to="#808080" begin="zoomminus.mouseover" end="zoomminus.mouseout"/>
                        </use>
                        <path d="M-4,0h8" fill="none" stroke="white" stroke-width="1.5" pointer-events="none"/>
                </g>
                <g id="dirArrow">
                        <path fill="none" stroke="white" stroke-width="1.5" d="M0,-3.0v7 M-2.5,-0.5L0,-3.0L2.5,-0.5"/>
                </g>
               <g id="resetDef">
                       <use xlink:href="#rim2" fill="#404040">
                               <set attributeName="fill" to="#808080" begin="reset.mouseover" end="reset.mouseout"/>
                       </use>
               </g>
        </defs>

<script type="text/javascript">
var viewWidth = 600;
var viewHeight = 226;
var sectionId = 'dynsection-1';
</script>
<script xlink:href="svgpan.js"/>
<svg id="graph" class="graph">
<g id="viewport">
<title>LittleWeebLibrary.Controllers.SubControllers.VersionWebSocketController</title>
<polygon fill="white" stroke="none" points="-4,4 -4,-222 595.5,-222 595.5,4 -4,4"/>
<!-- Node2 -->
<g id="node1" class="node"><title>Node2</title>
<polygon fill="#bfbfbf" stroke="black" points="187.5,-0.5 187.5,-79.5 396.5,-79.5 396.5,-0.5 187.5,-0.5"/>
<text text-anchor="start" x="195.5" y="-67.5" font-family="Helvetica,sans-Serif" font-size="10.00">LittleWeebLibrary.Controllers.</text>
<text text-anchor="middle" x="292" y="-56.5" font-family="Helvetica,sans-Serif" font-size="10.00">SubControllers.VersionWebSocketController</text>
<polyline fill="none" stroke="black" points="187.5,-49.5 396.5,-49.5 "/>
<text text-anchor="middle" x="292" y="-37.5" font-family="Helvetica,sans-Serif" font-size="10.00"> </text>
<polyline fill="none" stroke="black" points="187.5,-30.5 396.5,-30.5 "/>
<text text-anchor="start" x="195.5" y="-18.5" font-family="Helvetica,sans-Serif" font-size="10.00">+ VersionWebSocketController()</text>
<text text-anchor="start" x="195.5" y="-7.5" font-family="Helvetica,sans-Serif" font-size="10.00">+ OnWebSocketEvent()</text>
</g>
<!-- Node3 -->
<g id="node2" class="node"><title>Node3</title>
<g id="a_node2"><a xlink:href="interface_little_weeb_library_1_1_controllers_1_1_i_sub_web_socket_controller.html" target="_top" xlink:title="{ISubWebSocketController\n||+ OnWebSocketEvent()\l}">
<polygon fill="white" stroke="black" points="0,-144 0,-201 128,-201 128,-144 0,-144"/>
<text text-anchor="middle" x="64" y="-189" font-family="Helvetica,sans-Serif" font-size="10.00">ISubWebSocketController</text>
<polyline fill="none" stroke="black" points="0,-182 128,-182 "/>
<text text-anchor="middle" x="64" y="-170" font-family="Helvetica,sans-Serif" font-size="10.00"> </text>
<polyline fill="none" stroke="black" points="0,-163 128,-163 "/>
<text text-anchor="start" x="8" y="-151" font-family="Helvetica,sans-Serif" font-size="10.00">+ OnWebSocketEvent()</text>
</a>
</g>
</g>
<!-- Node3&#45;&gt;Node2 -->
<g id="edge1" class="edge"><title>Node3&#45;&gt;Node2</title>
<path fill="none" stroke="midnightblue" d="M117.472,-138.561C124.026,-134.625 130.65,-130.695 137,-127 164.264,-111.135 194.544,-94.1881 221.054,-79.5683"/>
<polygon fill="none" stroke="midnightblue" points="115.362,-135.746 108.61,-143.91 118.98,-141.739 115.362,-135.746"/>
</g>
<!-- Node4 -->
<g id="node3" class="node"><title>Node4</title>
<g id="a_node3"><a xlink:href="interface_little_weeb_library_1_1_handlers_1_1_i_debug_handler.html" target="_top" xlink:title="{LittleWeebLibrary.Handlers.\lIDebugHandler\n||+ SetSettings()\l+ StopDebugger()\l+ TraceMessage()\l}">
<polygon fill="white" stroke="black" points="146.5,-127.5 146.5,-217.5 283.5,-217.5 283.5,-127.5 146.5,-127.5"/>
<text text-anchor="start" x="154.5" y="-205.5" font-family="Helvetica,sans-Serif" font-size="10.00">LittleWeebLibrary.Handlers.</text>
<text text-anchor="middle" x="215" y="-194.5" font-family="Helvetica,sans-Serif" font-size="10.00">IDebugHandler</text>
<polyline fill="none" stroke="black" points="146.5,-187.5 283.5,-187.5 "/>
<text text-anchor="middle" x="215" y="-175.5" font-family="Helvetica,sans-Serif" font-size="10.00"> </text>
<polyline fill="none" stroke="black" points="146.5,-168.5 283.5,-168.5 "/>
<text text-anchor="start" x="154.5" y="-156.5" font-family="Helvetica,sans-Serif" font-size="10.00">+ SetSettings()</text>
<text text-anchor="start" x="154.5" y="-145.5" font-family="Helvetica,sans-Serif" font-size="10.00">+ StopDebugger()</text>
<text text-anchor="start" x="154.5" y="-134.5" font-family="Helvetica,sans-Serif" font-size="10.00">+ TraceMessage()</text>
</a>
</g>
</g>
<!-- Node4&#45;&gt;Node2 -->
<g id="edge2" class="edge"><title>Node4&#45;&gt;Node2</title>
<path fill="none" stroke="#404040" d="M241.069,-127.319C248.088,-115.423 255.724,-102.481 262.897,-90.3241"/>
<polygon fill="none" stroke="#404040" points="262.956,-90.2243 262.56,-83.0241 269.054,-79.8892 269.45,-87.0895 262.956,-90.2243"/>
<text text-anchor="middle" x="292.5" y="-101" font-family="Helvetica,sans-Serif" font-size="10.00"> &#45;DebugHandler</text>
</g>
<!-- Node5 -->
<g id="node4" class="node"><title>Node5</title>
<g id="a_node4"><a xlink:href="interface_little_weeb_library_1_1_handlers_1_1_i_web_socket_handler.html" target="_top" xlink:title="{LittleWeebLibrary.Handlers.\lIWebSocketHandler\n||+ SendMessage()\l+ StartServer()\l+ StopServer()\l}">
<polygon fill="white" stroke="black" points="301.5,-127.5 301.5,-217.5 438.5,-217.5 438.5,-127.5 301.5,-127.5"/>
<text text-anchor="start" x="309.5" y="-205.5" font-family="Helvetica,sans-Serif" font-size="10.00">LittleWeebLibrary.Handlers.</text>
<text text-anchor="middle" x="370" y="-194.5" font-family="Helvetica,sans-Serif" font-size="10.00">IWebSocketHandler</text>
<polyline fill="none" stroke="black" points="301.5,-187.5 438.5,-187.5 "/>
<text text-anchor="middle" x="370" y="-175.5" font-family="Helvetica,sans-Serif" font-size="10.00"> </text>
<polyline fill="none" stroke="black" points="301.5,-168.5 438.5,-168.5 "/>
<text text-anchor="start" x="309.5" y="-156.5" font-family="Helvetica,sans-Serif" font-size="10.00">+ SendMessage()</text>
<text text-anchor="start" x="309.5" y="-145.5" font-family="Helvetica,sans-Serif" font-size="10.00">+ StartServer()</text>
<text text-anchor="start" x="309.5" y="-134.5" font-family="Helvetica,sans-Serif" font-size="10.00">+ StopServer()</text>
</a>
</g>
</g>
<!-- Node5&#45;&gt;Node2 -->
<g id="edge3" class="edge"><title>Node5&#45;&gt;Node2</title>
<path fill="none" stroke="#404040" d="M346.734,-127.217C341.397,-117.498 335.632,-107.327 330,-98 328.413,-95.3719 326.76,-92.6943 325.07,-90.0039"/>
<polygon fill="none" stroke="#404040" points="324.905,-89.7456 318.3,-86.851 318.432,-79.641 325.036,-82.5357 324.905,-89.7456"/>
<text text-anchor="middle" x="381.5" y="-101" font-family="Helvetica,sans-Serif" font-size="10.00"> &#45;WebSocketHandler</text>
</g>
<!-- Node6 -->
<g id="node5" class="node"><title>Node6</title>
<g id="a_node5"><a xlink:href="interface_little_weeb_library_1_1_services_1_1_i_version_web_socket_service.html" target="_top" xlink:title="{LittleWeebLibrary.Services.\lIVersionWebSocketService\n||+ CheckVersion()\l}">
<polygon fill="white" stroke="black" points="456.5,-138.5 456.5,-206.5 591.5,-206.5 591.5,-138.5 456.5,-138.5"/>
<text text-anchor="start" x="464.5" y="-194.5" font-family="Helvetica,sans-Serif" font-size="10.00">LittleWeebLibrary.Services.</text>
<text text-anchor="middle" x="524" y="-183.5" font-family="Helvetica,sans-Serif" font-size="10.00">IVersionWebSocketService</text>
<polyline fill="none" stroke="black" points="456.5,-176.5 591.5,-176.5 "/>
<text text-anchor="middle" x="524" y="-164.5" font-family="Helvetica,sans-Serif" font-size="10.00"> </text>
<polyline fill="none" stroke="black" points="456.5,-157.5 591.5,-157.5 "/>
<text text-anchor="start" x="464.5" y="-145.5" font-family="Helvetica,sans-Serif" font-size="10.00">+ CheckVersion()</text>
</a>
</g>
</g>
<!-- Node6&#45;&gt;Node2 -->
<g id="edge4" class="edge"><title>Node6&#45;&gt;Node2</title>
<path fill="none" stroke="#404040" d="M486.826,-138.196C470.462,-124.601 450.543,-109.424 431,-98 423.084,-93.3725 414.72,-88.9411 406.182,-84.739"/>
<polygon fill="none" stroke="#404040" points="406.123,-84.7109 398.985,-85.7362 395.293,-79.5417 402.431,-78.5164 406.123,-84.7109"/>
<text text-anchor="middle" x="509" y="-101" font-family="Helvetica,sans-Serif" font-size="10.00"> &#45;VersionWebSocketService</text>
</g>
</g>
</svg>
        <g id="navigator" transform="translate(0 0)" fill="#404254">
                <rect fill="#f2f5e9" fill-opacity="0.5" stroke="#606060" stroke-width=".5" x="0" y="0" width="60" height="60"/>
                <use id="zoomplus" xlink:href="#zoomPlus" x="17" y="9" onmousedown="handleZoom(evt,'in')"/>
                <use id="zoomminus" xlink:href="#zoomMin" x="42" y="9" onmousedown="handleZoom(evt,'out')"/>
                <use id="reset" xlink:href="#resetDef" x="30" y="36" onmousedown="handleReset()"/>
                <g id="arrowUp" xlink:href="#dirArrow" transform="translate(30 24)" onmousedown="handlePan(0,-1)">
                  <use xlink:href="#rim" fill="#404040">
                        <set attributeName="fill" to="#808080" begin="arrowUp.mouseover" end="arrowUp.mouseout"/>
                  </use>
                  <path fill="none" stroke="white" stroke-width="1.5" d="M0,-3.0v7 M-2.5,-0.5L0,-3.0L2.5,-0.5"/>
                </g>
                <g id="arrowRight" xlink:href="#dirArrow" transform="rotate(90) translate(36 -43)" onmousedown="handlePan(1,0)">
                  <use xlink:href="#rim" fill="#404040">
                        <set attributeName="fill" to="#808080" begin="arrowRight.mouseover" end="arrowRight.mouseout"/>
                  </use>
                  <path fill="none" stroke="white" stroke-width="1.5" d="M0,-3.0v7 M-2.5,-0.5L0,-3.0L2.5,-0.5"/>
                </g>
                <g id="arrowDown" xlink:href="#dirArrow" transform="rotate(180) translate(-30 -48)" onmousedown="handlePan(0,1)">
                  <use xlink:href="#rim" fill="#404040">
                        <set attributeName="fill" to="#808080" begin="arrowDown.mouseover" end="arrowDown.mouseout"/>
                  </use>
                  <path fill="none" stroke="white" stroke-width="1.5" d="M0,-3.0v7 M-2.5,-0.5L0,-3.0L2.5,-0.5"/>
                </g>
                <g id="arrowLeft" xlink:href="#dirArrow" transform="rotate(270) translate(-36 17)" onmousedown="handlePan(-1,0)">
                  <use xlink:href="#rim" fill="#404040">
                        <set attributeName="fill" to="#808080" begin="arrowLeft.mouseover" end="arrowLeft.mouseout"/>
                  </use>
                  <path fill="none" stroke="white" stroke-width="1.5" d="M0,-3.0v7 M-2.5,-0.5L0,-3.0L2.5,-0.5"/>
                </g>
        </g>
        <svg viewBox="0 0 15 15" width="100%" height="30px" preserveAspectRatio="xMaxYMin meet">
         <g id="arrow_out" transform="scale(0.3 0.3)">
          <a xlink:href="class_little_weeb_library_1_1_controllers_1_1_sub_controllers_1_1_version_web_socket_controller__coll__graph_org.svg" target="_base">
           <rect id="button" ry="5" rx="5" y="6" x="6" height="38" width="38"
                fill="#f2f5e9" fill-opacity="0.5" stroke="#606060" stroke-width="1.0"/>
           <path id="arrow"
             d="M 11.500037,31.436501 C 11.940474,20.09759 22.043105,11.32322 32.158766,21.979434 L 37.068811,17.246167 C 37.068811,17.246167 37.088388,32 37.088388,32 L 22.160133,31.978069 C 22.160133,31.978069 26.997745,27.140456 26.997745,27.140456 C 18.528582,18.264221 13.291696,25.230495 11.500037,31.436501 z"
             style="fill:#404040;"/>
          </a>
         </g>
        </svg>
</svg>
