<?xml version="1.0" encoding="UTF-8" standalone="no"?>
<!DOCTYPE svg PUBLIC "-//W3C//DTD SVG 1.1//EN"
 "http://www.w3.org/Graphics/SVG/1.1/DTD/svg11.dtd">
<!-- Generated by graphviz version 2.38.0 (20140413.2041)
 -->
<!-- Title: LittleWeebLibrary.Services.IrcWebSocketService.OnIrcClientMessageEvent Pages: 1 -->
<!--zoomable 274 -->
<svg id="main" version="1.1" xmlns="http://www.w3.org/2000/svg" xmlns:xlink="http://www.w3.org/1999/xlink" xml:space="preserve" onload="init(evt)">
<style type="text/css"><![CDATA[
.edge:hover path { stroke: red; }
.edge:hover polygon { stroke: red; fill: red; }
]]></style>
<script type="text/javascript"><![CDATA[
var edges = document.getElementsByTagName('g');
if (edges && edges.length) {
  for (var i=0;i<edges.length;i++) {
    if (edges[i].id.substr(0,4)=='edge') {
      edges[i].setAttribute('class','edge');
    }
  }
}
]]></script>
        <defs>
                <circle id="rim" cx="0" cy="0" r="7"/>
                <circle id="rim2" cx="0" cy="0" r="3.5"/>
                <g id="zoomPlus">
                        <use xlink:href="#rim" fill="#404040">
                                <set attributeName="fill" to="#808080" begin="zoomplus.mouseover" end="zoomplus.mouseout"/>
                        </use>
                        <path d="M-4,0h8M0,-4v8" fill="none" stroke="white" stroke-width="1.5" pointer-events="none"/>
                </g>
                <g id="zoomMin">
                        <use xlink:href="#rim" fill="#404040">
                                <set attributeName="fill" to="#808080" begin="zoomminus.mouseover" end="zoomminus.mouseout"/>
                        </use>
                        <path d="M-4,0h8" fill="none" stroke="white" stroke-width="1.5" pointer-events="none"/>
                </g>
                <g id="dirArrow">
                        <path fill="none" stroke="white" stroke-width="1.5" d="M0,-3.0v7 M-2.5,-0.5L0,-3.0L2.5,-0.5"/>
                </g>
               <g id="resetDef">
                       <use xlink:href="#rim2" fill="#404040">
                               <set attributeName="fill" to="#808080" begin="reset.mouseover" end="reset.mouseout"/>
                       </use>
               </g>
        </defs>

<script type="text/javascript">
var viewWidth = 560;
var viewHeight = 274;
var sectionId = 'dynsection-15';
</script>
<script xlink:href="svgpan.js"/>
<svg id="graph" class="graph">
<g id="viewport">
<title>LittleWeebLibrary.Services.IrcWebSocketService.OnIrcClientMessageEvent</title>
<polygon fill="white" stroke="none" points="-4,4 -4,-270 556,-270 556,4 -4,4"/>
<!-- Node53 -->
<g id="node1" class="node"><title>Node53</title>
<polygon fill="#bfbfbf" stroke="black" points="0,-117 0,-158 161,-158 161,-117 0,-117"/>
<text text-anchor="start" x="8" y="-146" font-family="Helvetica,sans-Serif" font-size="10.00">LittleWeebLibrary.Services.</text>
<text text-anchor="start" x="8" y="-135" font-family="Helvetica,sans-Serif" font-size="10.00">IrcWebSocketService.OnIrcClient</text>
<text text-anchor="middle" x="80.5" y="-124" font-family="Helvetica,sans-Serif" font-size="10.00">MessageEvent</text>
</g>
<!-- Node54 -->
<g id="node2" class="node"><title>Node54</title>
<g id="a_node2"><a xlink:href="class_little_weeb_library_1_1_handlers_1_1_web_socket_handler.html#a1de289d54d665a32c93478c68d3e6ad0" target="_top" xlink:title="LittleWeebLibrary.Handlers.\lWebSocketHandler.SendMessage">
<polygon fill="white" stroke="black" points="201.5,-235.5 201.5,-265.5 367.5,-265.5 367.5,-235.5 201.5,-235.5"/>
<text text-anchor="start" x="209.5" y="-253.5" font-family="Helvetica,sans-Serif" font-size="10.00">LittleWeebLibrary.Handlers.</text>
<text text-anchor="middle" x="284.5" y="-242.5" font-family="Helvetica,sans-Serif" font-size="10.00">WebSocketHandler.SendMessage</text>
</a>
</g>
</g>
<!-- Node53&#45;&gt;Node54 -->
<g id="edge1" class="edge"><title>Node53&#45;&gt;Node54</title>
<path fill="none" stroke="midnightblue" d="M105.82,-158.191C128.304,-176.512 163.244,-202.992 197,-220.5 205.082,-224.692 213.878,-228.51 222.664,-231.912"/>
<polygon fill="midnightblue" stroke="midnightblue" points="221.567,-235.238 232.16,-235.437 224.003,-228.675 221.567,-235.238"/>
</g>
<!-- Node55 -->
<g id="node3" class="node"><title>Node55</title>
<g id="a_node3"><a xlink:href="class_little_weeb_library_1_1_handlers_1_1_debug_handler.html#afccb37dfd6b2114af72000c2f4fe4607" target="_top" xlink:title="LittleWeebLibrary.Handlers.\lDebugHandler.TraceMessage">
<polygon fill="white" stroke="black" points="408,-213.5 408,-243.5 552,-243.5 552,-213.5 408,-213.5"/>
<text text-anchor="start" x="416" y="-231.5" font-family="Helvetica,sans-Serif" font-size="10.00">LittleWeebLibrary.Handlers.</text>
<text text-anchor="middle" x="480" y="-220.5" font-family="Helvetica,sans-Serif" font-size="10.00">DebugHandler.TraceMessage</text>
</a>
</g>
</g>
<!-- Node53&#45;&gt;Node55 -->
<g id="edge7" class="edge"><title>Node53&#45;&gt;Node55</title>
<path fill="none" stroke="midnightblue" d="M121.696,-158.024C143.471,-168.335 171.145,-180.164 197,-187.5 263.226,-206.29 340.771,-216.767 397.766,-222.416"/>
<polygon fill="midnightblue" stroke="midnightblue" points="397.513,-225.908 407.803,-223.382 398.184,-218.94 397.513,-225.908"/>
</g>
<!-- Node56 -->
<g id="node4" class="node"><title>Node56</title>
<g id="a_node4"><a xlink:href="class_little_weeb_library_1_1_models_1_1_json_error.html#a0e3e7dd2e2990404b7f0461742b23440" target="_top" xlink:title="LittleWeebLibrary.Models.\lJsonError.ToJson">
<polygon fill="white" stroke="black" points="219.5,-147.5 219.5,-177.5 349.5,-177.5 349.5,-147.5 219.5,-147.5"/>
<text text-anchor="start" x="227.5" y="-165.5" font-family="Helvetica,sans-Serif" font-size="10.00">LittleWeebLibrary.Models.</text>
<text text-anchor="middle" x="284.5" y="-154.5" font-family="Helvetica,sans-Serif" font-size="10.00">JsonError.ToJson</text>
</a>
</g>
</g>
<!-- Node53&#45;&gt;Node56 -->
<g id="edge3" class="edge"><title>Node53&#45;&gt;Node56</title>
<path fill="none" stroke="midnightblue" d="M161.046,-147.345C176.895,-149.306 193.483,-151.359 209.15,-153.298"/>
<polygon fill="midnightblue" stroke="midnightblue" points="208.941,-156.799 219.295,-154.554 209.8,-149.852 208.941,-156.799"/>
</g>
<!-- Node57 -->
<g id="node5" class="node"><title>Node57</title>
<g id="a_node5"><a xlink:href="class_little_weeb_library_1_1_models_1_1_json_irc_chat_message.html#acbac803fd5e8ecffab5335a4069fc4b4" target="_top" xlink:title="LittleWeebLibrary.Models.\lJsonIrcChatMessage.ToJson">
<polygon fill="white" stroke="black" points="214,-98.5 214,-128.5 355,-128.5 355,-98.5 214,-98.5"/>
<text text-anchor="start" x="222" y="-116.5" font-family="Helvetica,sans-Serif" font-size="10.00">LittleWeebLibrary.Models.</text>
<text text-anchor="middle" x="284.5" y="-105.5" font-family="Helvetica,sans-Serif" font-size="10.00">JsonIrcChatMessage.ToJson</text>
</a>
</g>
</g>
<!-- Node53&#45;&gt;Node57 -->
<g id="edge4" class="edge"><title>Node53&#45;&gt;Node57</title>
<path fill="none" stroke="midnightblue" d="M161.046,-128.049C175.083,-126.381 189.699,-124.645 203.742,-122.976"/>
<polygon fill="midnightblue" stroke="midnightblue" points="204.332,-126.431 213.849,-121.775 203.506,-119.48 204.332,-126.431"/>
</g>
<!-- Node58 -->
<g id="node6" class="node"><title>Node58</title>
<g id="a_node6"><a xlink:href="class_little_weeb_library_1_1_event_arguments_1_1_irc_client_message_event_args.html#a0b8df2a044d27dec2dd963e978311be4" target="_top" xlink:title="LittleWeebLibrary.EventArguments.\lIrcClientMessageEventArgs.ToString">
<polygon fill="white" stroke="black" points="197,-49.5 197,-79.5 372,-79.5 372,-49.5 197,-49.5"/>
<text text-anchor="start" x="205" y="-67.5" font-family="Helvetica,sans-Serif" font-size="10.00">LittleWeebLibrary.EventArguments.</text>
<text text-anchor="middle" x="284.5" y="-56.5" font-family="Helvetica,sans-Serif" font-size="10.00">IrcClientMessageEventArgs.ToString</text>
</a>
</g>
</g>
<!-- Node53&#45;&gt;Node58 -->
<g id="edge5" class="edge"><title>Node53&#45;&gt;Node58</title>
<path fill="none" stroke="midnightblue" d="M127.682,-116.909C148.63,-107.932 173.848,-97.6277 197,-89.5 203.794,-87.115 210.944,-84.7788 218.101,-82.5512"/>
<polygon fill="midnightblue" stroke="midnightblue" points="219.287,-85.8488 227.833,-79.5864 217.247,-79.1526 219.287,-85.8488"/>
</g>
<!-- Node59 -->
<g id="node7" class="node"><title>Node59</title>
<g id="a_node7"><a xlink:href="class_little_weeb_library_1_1_models_1_1_json_error.html#ad7d5522c90119111d2e929f39e7f6d3c" target="_top" xlink:title="LittleWeebLibrary.Models.\lJsonError.ToString">
<polygon fill="white" stroke="black" points="219.5,-0.5 219.5,-30.5 349.5,-30.5 349.5,-0.5 219.5,-0.5"/>
<text text-anchor="start" x="227.5" y="-18.5" font-family="Helvetica,sans-Serif" font-size="10.00">LittleWeebLibrary.Models.</text>
<text text-anchor="middle" x="284.5" y="-7.5" font-family="Helvetica,sans-Serif" font-size="10.00">JsonError.ToString</text>
</a>
</g>
</g>
<!-- Node53&#45;&gt;Node59 -->
<g id="edge6" class="edge"><title>Node53&#45;&gt;Node59</title>
<path fill="none" stroke="midnightblue" d="M100.848,-116.751C122.364,-94.834 159.108,-60.7089 197,-40.5 201.259,-38.2288 205.748,-36.1418 210.351,-34.2275"/>
<polygon fill="midnightblue" stroke="midnightblue" points="211.849,-37.401 219.921,-30.5374 209.331,-30.8698 211.849,-37.401"/>
</g>
<!-- Node54&#45;&gt;Node55 -->
<g id="edge2" class="edge"><title>Node54&#45;&gt;Node55</title>
<path fill="none" stroke="midnightblue" d="M367.561,-241.17C377.5,-240.04 387.65,-238.886 397.579,-237.757"/>
<polygon fill="midnightblue" stroke="midnightblue" points="398.287,-241.199 407.828,-236.592 397.496,-234.244 398.287,-241.199"/>
</g>
</g>
</svg>
        <g id="navigator" transform="translate(0 0)" fill="#404254">
                <rect fill="#f2f5e9" fill-opacity="0.5" stroke="#606060" stroke-width=".5" x="0" y="0" width="60" height="60"/>
                <use id="zoomplus" xlink:href="#zoomPlus" x="17" y="9" onmousedown="handleZoom(evt,'in')"/>
                <use id="zoomminus" xlink:href="#zoomMin" x="42" y="9" onmousedown="handleZoom(evt,'out')"/>
                <use id="reset" xlink:href="#resetDef" x="30" y="36" onmousedown="handleReset()"/>
                <g id="arrowUp" xlink:href="#dirArrow" transform="translate(30 24)" onmousedown="handlePan(0,-1)">
                  <use xlink:href="#rim" fill="#404040">
                        <set attributeName="fill" to="#808080" begin="arrowUp.mouseover" end="arrowUp.mouseout"/>
                  </use>
                  <path fill="none" stroke="white" stroke-width="1.5" d="M0,-3.0v7 M-2.5,-0.5L0,-3.0L2.5,-0.5"/>
                </g>
                <g id="arrowRight" xlink:href="#dirArrow" transform="rotate(90) translate(36 -43)" onmousedown="handlePan(1,0)">
                  <use xlink:href="#rim" fill="#404040">
                        <set attributeName="fill" to="#808080" begin="arrowRight.mouseover" end="arrowRight.mouseout"/>
                  </use>
                  <path fill="none" stroke="white" stroke-width="1.5" d="M0,-3.0v7 M-2.5,-0.5L0,-3.0L2.5,-0.5"/>
                </g>
                <g id="arrowDown" xlink:href="#dirArrow" transform="rotate(180) translate(-30 -48)" onmousedown="handlePan(0,1)">
                  <use xlink:href="#rim" fill="#404040">
                        <set attributeName="fill" to="#808080" begin="arrowDown.mouseover" end="arrowDown.mouseout"/>
                  </use>
                  <path fill="none" stroke="white" stroke-width="1.5" d="M0,-3.0v7 M-2.5,-0.5L0,-3.0L2.5,-0.5"/>
                </g>
                <g id="arrowLeft" xlink:href="#dirArrow" transform="rotate(270) translate(-36 17)" onmousedown="handlePan(-1,0)">
                  <use xlink:href="#rim" fill="#404040">
                        <set attributeName="fill" to="#808080" begin="arrowLeft.mouseover" end="arrowLeft.mouseout"/>
                  </use>
                  <path fill="none" stroke="white" stroke-width="1.5" d="M0,-3.0v7 M-2.5,-0.5L0,-3.0L2.5,-0.5"/>
                </g>
        </g>
        <svg viewBox="0 0 15 15" width="100%" height="30px" preserveAspectRatio="xMaxYMin meet">
         <g id="arrow_out" transform="scale(0.3 0.3)">
          <a xlink:href="class_little_weeb_library_1_1_services_1_1_irc_web_socket_service_ab8023cd1161bcff9bebf2614764614fe_cgraph_org.svg" target="_base">
           <rect id="button" ry="5" rx="5" y="6" x="6" height="38" width="38"
                fill="#f2f5e9" fill-opacity="0.5" stroke="#606060" stroke-width="1.0"/>
           <path id="arrow"
             d="M 11.500037,31.436501 C 11.940474,20.09759 22.043105,11.32322 32.158766,21.979434 L 37.068811,17.246167 C 37.068811,17.246167 37.088388,32 37.088388,32 L 22.160133,31.978069 C 22.160133,31.978069 26.997745,27.140456 26.997745,27.140456 C 18.528582,18.264221 13.291696,25.230495 11.500037,31.436501 z"
             style="fill:#404040;"/>
          </a>
         </g>
        </svg>
</svg>
