<?xml version="1.0" encoding="UTF-8" standalone="no"?>
<!DOCTYPE svg PUBLIC "-//W3C//DTD SVG 1.1//EN"
 "http://www.w3.org/Graphics/SVG/1.1/DTD/svg11.dtd">
<!-- Generated by graphviz version 2.38.0 (20140413.2041)
 -->
<!-- Title: LittleWeebLibrary.Services.DownloadWebSocketService.OnDownloadUpdateEvent Pages: 1 -->
<svg width="596pt" height="176pt"
 viewBox="0.00 0.00 596.00 176.00" xmlns="http://www.w3.org/2000/svg" xmlns:xlink="http://www.w3.org/1999/xlink">
<g id="graph0" class="graph" transform="scale(1 1) rotate(0) translate(4 172)">
<title>LittleWeebLibrary.Services.DownloadWebSocketService.OnDownloadUpdateEvent</title>
<polygon fill="white" stroke="none" points="-4,4 -4,-172 592,-172 592,4 -4,4"/>
<!-- Node46 -->
<g id="node1" class="node"><title>Node46</title>
<polygon fill="#bfbfbf" stroke="black" points="0,-66 0,-107 199,-107 199,-66 0,-66"/>
<text text-anchor="start" x="8" y="-95" font-family="Helvetica,sans-Serif" font-size="10.00">LittleWeebLibrary.Services.</text>
<text text-anchor="start" x="8" y="-84" font-family="Helvetica,sans-Serif" font-size="10.00">DownloadWebSocketService.OnDownload</text>
<text text-anchor="middle" x="99.5" y="-73" font-family="Helvetica,sans-Serif" font-size="10.00">UpdateEvent</text>
</g>
<!-- Node47 -->
<g id="node2" class="node"><title>Node47</title>
<g id="a_node2"><a xlink:href="class_little_weeb_library_1_1_handlers_1_1_web_socket_handler.html#a1de289d54d665a32c93478c68d3e6ad0" target="_top" xlink:title="LittleWeebLibrary.Handlers.\lWebSocketHandler.SendMessage">
<polygon fill="white" stroke="black" points="238.5,-137.5 238.5,-167.5 404.5,-167.5 404.5,-137.5 238.5,-137.5"/>
<text text-anchor="start" x="246.5" y="-155.5" font-family="Helvetica,sans-Serif" font-size="10.00">LittleWeebLibrary.Handlers.</text>
<text text-anchor="middle" x="321.5" y="-144.5" font-family="Helvetica,sans-Serif" font-size="10.00">WebSocketHandler.SendMessage</text>
</a>
</g>
</g>
<!-- Node46&#45;&gt;Node47 -->
<g id="edge1" class="edge"><title>Node46&#45;&gt;Node47</title>
<path fill="none" stroke="midnightblue" d="M168.903,-107.021C198.24,-115.822 232.205,-126.012 260.541,-134.512"/>
<polygon fill="midnightblue" stroke="midnightblue" points="259.728,-137.922 270.312,-137.444 261.739,-131.218 259.728,-137.922"/>
</g>
<!-- Node48 -->
<g id="node3" class="node"><title>Node48</title>
<g id="a_node3"><a xlink:href="class_little_weeb_library_1_1_handlers_1_1_debug_handler.html#afccb37dfd6b2114af72000c2f4fe4607" target="_top" xlink:title="LittleWeebLibrary.Handlers.\lDebugHandler.TraceMessage">
<polygon fill="white" stroke="black" points="444,-115.5 444,-145.5 588,-145.5 588,-115.5 444,-115.5"/>
<text text-anchor="start" x="452" y="-133.5" font-family="Helvetica,sans-Serif" font-size="10.00">LittleWeebLibrary.Handlers.</text>
<text text-anchor="middle" x="516" y="-122.5" font-family="Helvetica,sans-Serif" font-size="10.00">DebugHandler.TraceMessage</text>
</a>
</g>
</g>
<!-- Node46&#45;&gt;Node48 -->
<g id="edge5" class="edge"><title>Node46&#45;&gt;Node48</title>
<path fill="none" stroke="midnightblue" d="M199.256,-96.9832C270.888,-104.587 366.6,-114.747 433.801,-121.881"/>
<polygon fill="midnightblue" stroke="midnightblue" points="433.604,-125.379 443.918,-122.954 434.343,-118.418 433.604,-125.379"/>
</g>
<!-- Node49 -->
<g id="node4" class="node"><title>Node49</title>
<g id="a_node4"><a xlink:href="class_little_weeb_library_1_1_models_1_1_json_download_info.html#a3fd450e7e2de8b9a936ba3b2cbeeaccb" target="_top" xlink:title="LittleWeebLibrary.Models.\lJsonDownloadInfo.ToJson">
<polygon fill="white" stroke="black" points="256.5,-49.5 256.5,-79.5 386.5,-79.5 386.5,-49.5 256.5,-49.5"/>
<text text-anchor="start" x="264.5" y="-67.5" font-family="Helvetica,sans-Serif" font-size="10.00">LittleWeebLibrary.Models.</text>
<text text-anchor="middle" x="321.5" y="-56.5" font-family="Helvetica,sans-Serif" font-size="10.00">JsonDownloadInfo.ToJson</text>
</a>
</g>
</g>
<!-- Node46&#45;&gt;Node49 -->
<g id="edge3" class="edge"><title>Node46&#45;&gt;Node49</title>
<path fill="none" stroke="midnightblue" d="M199.238,-76.6262C215.016,-75.0484 231.106,-73.4394 246.192,-71.9308"/>
<polygon fill="midnightblue" stroke="midnightblue" points="246.857,-75.3818 256.459,-70.9041 246.161,-68.4166 246.857,-75.3818"/>
</g>
<!-- Node50 -->
<g id="node5" class="node"><title>Node50</title>
<g id="a_node5"><a xlink:href="class_little_weeb_library_1_1_event_arguments_1_1_download_update_event_args.html#ac81037572c354a14f1d35b654ac24b5a" target="_top" xlink:title="LittleWeebLibrary.EventArguments.\lDownloadUpdateEventArgs.ToString">
<polygon fill="white" stroke="black" points="235,-0.5 235,-30.5 408,-30.5 408,-0.5 235,-0.5"/>
<text text-anchor="start" x="243" y="-18.5" font-family="Helvetica,sans-Serif" font-size="10.00">LittleWeebLibrary.EventArguments.</text>
<text text-anchor="middle" x="321.5" y="-7.5" font-family="Helvetica,sans-Serif" font-size="10.00">DownloadUpdateEventArgs.ToString</text>
</a>
</g>
</g>
<!-- Node46&#45;&gt;Node50 -->
<g id="edge4" class="edge"><title>Node46&#45;&gt;Node50</title>
<path fill="none" stroke="midnightblue" d="M158.902,-65.8859C182.46,-57.738 209.946,-48.4427 235,-40.5 242.36,-38.1668 250.1,-35.7929 257.793,-33.4829"/>
<polygon fill="midnightblue" stroke="midnightblue" points="258.895,-36.8069 267.48,-30.5989 256.897,-30.0979 258.895,-36.8069"/>
</g>
<!-- Node47&#45;&gt;Node48 -->
<g id="edge2" class="edge"><title>Node47&#45;&gt;Node48</title>
<path fill="none" stroke="midnightblue" d="M404.696,-143.106C414.226,-142.017 423.945,-140.906 433.467,-139.818"/>
<polygon fill="midnightblue" stroke="midnightblue" points="434.166,-143.261 443.704,-138.648 433.371,-136.306 434.166,-143.261"/>
</g>
</g>
</svg>
