<?xml version="1.0" encoding="UTF-8" standalone="no"?>
<!DOCTYPE svg PUBLIC "-//W3C//DTD SVG 1.1//EN"
 "http://www.w3.org/Graphics/SVG/1.1/DTD/svg11.dtd">
<!-- Generated by graphviz version 2.38.0 (20140413.2041)
 -->
<!-- Title: LittleWeebLibrary.Services.FileWebSocketService Pages: 1 -->
<!--zoomable 270 -->
<svg id="main" version="1.1" xmlns="http://www.w3.org/2000/svg" xmlns:xlink="http://www.w3.org/1999/xlink" xml:space="preserve" onload="init(evt)">
<style type="text/css"><![CDATA[
.edge:hover path { stroke: red; }
.edge:hover polygon { stroke: red; fill: red; }
]]></style>
<script type="text/javascript"><![CDATA[
var edges = document.getElementsByTagName('g');
if (edges && edges.length) {
  for (var i=0;i<edges.length;i++) {
    if (edges[i].id.substr(0,4)=='edge') {
      edges[i].setAttribute('class','edge');
    }
  }
}
]]></script>
        <defs>
                <circle id="rim" cx="0" cy="0" r="7"/>
                <circle id="rim2" cx="0" cy="0" r="3.5"/>
                <g id="zoomPlus">
                        <use xlink:href="#rim" fill="#404040">
                                <set attributeName="fill" to="#808080" begin="zoomplus.mouseover" end="zoomplus.mouseout"/>
                        </use>
                        <path d="M-4,0h8M0,-4v8" fill="none" stroke="white" stroke-width="1.5" pointer-events="none"/>
                </g>
                <g id="zoomMin">
                        <use xlink:href="#rim" fill="#404040">
                                <set attributeName="fill" to="#808080" begin="zoomminus.mouseover" end="zoomminus.mouseout"/>
                        </use>
                        <path d="M-4,0h8" fill="none" stroke="white" stroke-width="1.5" pointer-events="none"/>
                </g>
                <g id="dirArrow">
                        <path fill="none" stroke="white" stroke-width="1.5" d="M0,-3.0v7 M-2.5,-0.5L0,-3.0L2.5,-0.5"/>
                </g>
               <g id="resetDef">
                       <use xlink:href="#rim2" fill="#404040">
                               <set attributeName="fill" to="#808080" begin="reset.mouseover" end="reset.mouseout"/>
                       </use>
               </g>
        </defs>

<script type="text/javascript">
var viewWidth = 918;
var viewHeight = 270;
var sectionId = 'dynsection-1';
</script>
<script xlink:href="svgpan.js"/>
<svg id="graph" class="graph">
<g id="viewport">
<title>LittleWeebLibrary.Services.FileWebSocketService</title>
<polygon fill="white" stroke="none" points="-4,4 -4,-266 914,-266 914,4 -4,4"/>
<!-- Node2 -->
<g id="node1" class="node"><title>Node2</title>
<polygon fill="#bfbfbf" stroke="black" points="369,-0.5 369,-90.5 504,-90.5 504,-0.5 369,-0.5"/>
<text text-anchor="start" x="377" y="-78.5" font-family="Helvetica,sans-Serif" font-size="10.00">LittleWeebLibrary.Services.</text>
<text text-anchor="middle" x="436.5" y="-67.5" font-family="Helvetica,sans-Serif" font-size="10.00">FileWebSocketService</text>
<polyline fill="none" stroke="black" points="369,-60.5 504,-60.5 "/>
<text text-anchor="middle" x="436.5" y="-48.5" font-family="Helvetica,sans-Serif" font-size="10.00"> </text>
<polyline fill="none" stroke="black" points="369,-41.5 504,-41.5 "/>
<text text-anchor="start" x="377" y="-29.5" font-family="Helvetica,sans-Serif" font-size="10.00">+ FileWebSocketService()</text>
<text text-anchor="start" x="377" y="-18.5" font-family="Helvetica,sans-Serif" font-size="10.00">+ DeleteFile()</text>
<text text-anchor="start" x="377" y="-7.5" font-family="Helvetica,sans-Serif" font-size="10.00">+ OpenFile()</text>
</g>
<!-- Node3 -->
<g id="node2" class="node"><title>Node3</title>
<g id="a_node2"><a xlink:href="interface_little_weeb_library_1_1_services_1_1_i_file_web_socket_service.html" target="_top" xlink:title="{IFileWebSocketService\n||+ DeleteFile()\l+ OpenFile()\l}">
<polygon fill="white" stroke="black" points="0,-166 0,-234 117,-234 117,-166 0,-166"/>
<text text-anchor="middle" x="58.5" y="-222" font-family="Helvetica,sans-Serif" font-size="10.00">IFileWebSocketService</text>
<polyline fill="none" stroke="black" points="0,-215 117,-215 "/>
<text text-anchor="middle" x="58.5" y="-203" font-family="Helvetica,sans-Serif" font-size="10.00"> </text>
<polyline fill="none" stroke="black" points="0,-196 117,-196 "/>
<text text-anchor="start" x="8" y="-184" font-family="Helvetica,sans-Serif" font-size="10.00">+ DeleteFile()</text>
<text text-anchor="start" x="8" y="-173" font-family="Helvetica,sans-Serif" font-size="10.00">+ OpenFile()</text>
</a>
</g>
</g>
<!-- Node3&#45;&gt;Node2 -->
<g id="edge1" class="edge"><title>Node3&#45;&gt;Node2</title>
<path fill="none" stroke="midnightblue" d="M96.4668,-159.076C105.409,-151.262 115.32,-143.726 125.5,-138 203.006,-94.4069 303.307,-69.7698 368.742,-57.2954"/>
<polygon fill="none" stroke="midnightblue" points="93.9214,-156.66 88.8761,-165.976 98.63,-161.84 93.9214,-156.66"/>
</g>
<!-- Node4 -->
<g id="node3" class="node"><title>Node4</title>
<g id="a_node3"><a xlink:href="interface_little_weeb_library_1_1_handlers_1_1_i_debug_handler.html" target="_top" xlink:title="{LittleWeebLibrary.Handlers.\lIDebugHandler\n||+ SetSettings()\l+ StopDebugger()\l+ TraceMessage()\l}">
<polygon fill="white" stroke="black" points="135,-155 135,-245 272,-245 272,-155 135,-155"/>
<text text-anchor="start" x="143" y="-233" font-family="Helvetica,sans-Serif" font-size="10.00">LittleWeebLibrary.Handlers.</text>
<text text-anchor="middle" x="203.5" y="-222" font-family="Helvetica,sans-Serif" font-size="10.00">IDebugHandler</text>
<polyline fill="none" stroke="black" points="135,-215 272,-215 "/>
<text text-anchor="middle" x="203.5" y="-203" font-family="Helvetica,sans-Serif" font-size="10.00"> </text>
<polyline fill="none" stroke="black" points="135,-196 272,-196 "/>
<text text-anchor="start" x="143" y="-184" font-family="Helvetica,sans-Serif" font-size="10.00">+ SetSettings()</text>
<text text-anchor="start" x="143" y="-173" font-family="Helvetica,sans-Serif" font-size="10.00">+ StopDebugger()</text>
<text text-anchor="start" x="143" y="-162" font-family="Helvetica,sans-Serif" font-size="10.00">+ TraceMessage()</text>
</a>
</g>
</g>
<!-- Node4&#45;&gt;Node2 -->
<g id="edge2" class="edge"><title>Node4&#45;&gt;Node2</title>
<path fill="none" stroke="#404040" d="M257.629,-154.94C265.214,-149.114 272.985,-143.323 280.5,-138 304.938,-120.692 332.819,-103.58 358.187,-88.9211"/>
<polygon fill="none" stroke="#404040" points="358.473,-88.7573 361.693,-82.3049 368.887,-82.7953 365.667,-89.2477 358.473,-88.7573"/>
<text text-anchor="middle" x="356" y="-112" font-family="Helvetica,sans-Serif" font-size="10.00"> &#45;DebugHandler</text>
</g>
<!-- Node5 -->
<g id="node4" class="node"><title>Node5</title>
<g id="a_node4"><a xlink:href="interface_little_weeb_library_1_1_handlers_1_1_i_web_socket_handler.html" target="_top" xlink:title="{LittleWeebLibrary.Handlers.\lIWebSocketHandler\n||+ SendMessage()\l+ StartServer()\l+ StopServer()\l}">
<polygon fill="white" stroke="black" points="290,-155 290,-245 427,-245 427,-155 290,-155"/>
<text text-anchor="start" x="298" y="-233" font-family="Helvetica,sans-Serif" font-size="10.00">LittleWeebLibrary.Handlers.</text>
<text text-anchor="middle" x="358.5" y="-222" font-family="Helvetica,sans-Serif" font-size="10.00">IWebSocketHandler</text>
<polyline fill="none" stroke="black" points="290,-215 427,-215 "/>
<text text-anchor="middle" x="358.5" y="-203" font-family="Helvetica,sans-Serif" font-size="10.00"> </text>
<polyline fill="none" stroke="black" points="290,-196 427,-196 "/>
<text text-anchor="start" x="298" y="-184" font-family="Helvetica,sans-Serif" font-size="10.00">+ SendMessage()</text>
<text text-anchor="start" x="298" y="-173" font-family="Helvetica,sans-Serif" font-size="10.00">+ StartServer()</text>
<text text-anchor="start" x="298" y="-162" font-family="Helvetica,sans-Serif" font-size="10.00">+ StopServer()</text>
</a>
</g>
</g>
<!-- Node5&#45;&gt;Node2 -->
<g id="edge3" class="edge"><title>Node5&#45;&gt;Node2</title>
<path fill="none" stroke="#404040" d="M379.604,-154.864C386.74,-140.202 394.842,-123.837 402.5,-109 403.791,-106.499 405.121,-103.949 406.473,-101.377"/>
<polygon fill="none" stroke="#404040" points="406.484,-101.356 405.767,-94.1809 412.115,-90.7591 412.832,-97.9344 406.484,-101.356"/>
<text text-anchor="middle" x="448" y="-112" font-family="Helvetica,sans-Serif" font-size="10.00"> &#45;WebSocketHandler</text>
</g>
<!-- Node6 -->
<g id="node5" class="node"><title>Node6</title>
<g id="a_node5"><a xlink:href="interface_little_weeb_library_1_1_handlers_1_1_i_download_handler.html" target="_top" xlink:title="{LittleWeebLibrary.Handlers.\lIDownloadHandler\n||+ AbortDownload()\l+ AddDownload()\l+ AddDownloads()\l+ GetCurrentlyDownloading()\l+ RemoveDownload()\l+ StopQueue()\l}">
<polygon fill="white" stroke="black" points="445,-138.5 445,-261.5 586,-261.5 586,-138.5 445,-138.5"/>
<text text-anchor="start" x="453" y="-249.5" font-family="Helvetica,sans-Serif" font-size="10.00">LittleWeebLibrary.Handlers.</text>
<text text-anchor="middle" x="515.5" y="-238.5" font-family="Helvetica,sans-Serif" font-size="10.00">IDownloadHandler</text>
<polyline fill="none" stroke="black" points="445,-231.5 586,-231.5 "/>
<text text-anchor="middle" x="515.5" y="-219.5" font-family="Helvetica,sans-Serif" font-size="10.00"> </text>
<polyline fill="none" stroke="black" points="445,-212.5 586,-212.5 "/>
<text text-anchor="start" x="453" y="-200.5" font-family="Helvetica,sans-Serif" font-size="10.00">+ AbortDownload()</text>
<text text-anchor="start" x="453" y="-189.5" font-family="Helvetica,sans-Serif" font-size="10.00">+ AddDownload()</text>
<text text-anchor="start" x="453" y="-178.5" font-family="Helvetica,sans-Serif" font-size="10.00">+ AddDownloads()</text>
<text text-anchor="start" x="453" y="-167.5" font-family="Helvetica,sans-Serif" font-size="10.00">+ GetCurrentlyDownloading()</text>
<text text-anchor="start" x="453" y="-156.5" font-family="Helvetica,sans-Serif" font-size="10.00">+ RemoveDownload()</text>
<text text-anchor="start" x="453" y="-145.5" font-family="Helvetica,sans-Serif" font-size="10.00">+ StopQueue()</text>
</a>
</g>
</g>
<!-- Node6&#45;&gt;Node2 -->
<g id="edge4" class="edge"><title>Node6&#45;&gt;Node2</title>
<path fill="none" stroke="#404040" d="M505.107,-138.394C502.136,-128.253 498.341,-118.085 493.5,-109 491.967,-106.122 490.271,-103.274 488.451,-100.471"/>
<polygon fill="none" stroke="#404040" points="488.351,-100.33 481.615,-97.7585 481.397,-90.5507 488.134,-93.1223 488.351,-100.33"/>
<text text-anchor="middle" x="538.5" y="-112" font-family="Helvetica,sans-Serif" font-size="10.00"> &#45;DownloadHandler</text>
</g>
<!-- Node7 -->
<g id="node6" class="node"><title>Node7</title>
<g id="a_node6"><a xlink:href="interface_little_weeb_library_1_1_handlers_1_1_i_file_history_handler.html" target="_top" xlink:title="{LittleWeebLibrary.Handlers.\lIFileHistoryHandler\n||+ AddFileToFileHistory()\l+ GetCurrentFileHistory()\l+ RemoveFileFromFileHistory()\l}">
<polygon fill="white" stroke="black" points="604,-155 604,-245 755,-245 755,-155 604,-155"/>
<text text-anchor="start" x="612" y="-233" font-family="Helvetica,sans-Serif" font-size="10.00">LittleWeebLibrary.Handlers.</text>
<text text-anchor="middle" x="679.5" y="-222" font-family="Helvetica,sans-Serif" font-size="10.00">IFileHistoryHandler</text>
<polyline fill="none" stroke="black" points="604,-215 755,-215 "/>
<text text-anchor="middle" x="679.5" y="-203" font-family="Helvetica,sans-Serif" font-size="10.00"> </text>
<polyline fill="none" stroke="black" points="604,-196 755,-196 "/>
<text text-anchor="start" x="612" y="-184" font-family="Helvetica,sans-Serif" font-size="10.00">+ AddFileToFileHistory()</text>
<text text-anchor="start" x="612" y="-173" font-family="Helvetica,sans-Serif" font-size="10.00">+ GetCurrentFileHistory()</text>
<text text-anchor="start" x="612" y="-162" font-family="Helvetica,sans-Serif" font-size="10.00">+ RemoveFileFromFileHistory()</text>
</a>
</g>
</g>
<!-- Node7&#45;&gt;Node2 -->
<g id="edge5" class="edge"><title>Node7&#45;&gt;Node2</title>
<path fill="none" stroke="#404040" d="M638.741,-154.752C622.605,-138.926 603.214,-121.848 583.5,-109 562.631,-95.3992 538.309,-83.6482 515.527,-74.1233"/>
<polygon fill="none" stroke="#404040" points="515.25,-74.0109 508.185,-75.4545 504.135,-69.488 511.2,-68.0445 515.25,-74.0109"/>
<text text-anchor="middle" x="640.5" y="-112" font-family="Helvetica,sans-Serif" font-size="10.00"> &#45;FileHistoryHandler</text>
</g>
<!-- Node8 -->
<g id="node7" class="node"><title>Node8</title>
<g id="a_node7"><a xlink:href="interface_little_weeb_library_1_1_handlers_1_1_i_file_handler.html" target="_top" xlink:title="{LittleWeebLibrary.Handlers.\lIFileHandler\n||+ DeleteFile()\l+ OpenFile()\l}">
<polygon fill="white" stroke="black" points="773,-160.5 773,-239.5 910,-239.5 910,-160.5 773,-160.5"/>
<text text-anchor="start" x="781" y="-227.5" font-family="Helvetica,sans-Serif" font-size="10.00">LittleWeebLibrary.Handlers.</text>
<text text-anchor="middle" x="841.5" y="-216.5" font-family="Helvetica,sans-Serif" font-size="10.00">IFileHandler</text>
<polyline fill="none" stroke="black" points="773,-209.5 910,-209.5 "/>
<text text-anchor="middle" x="841.5" y="-197.5" font-family="Helvetica,sans-Serif" font-size="10.00"> </text>
<polyline fill="none" stroke="black" points="773,-190.5 910,-190.5 "/>
<text text-anchor="start" x="781" y="-178.5" font-family="Helvetica,sans-Serif" font-size="10.00">+ DeleteFile()</text>
<text text-anchor="start" x="781" y="-167.5" font-family="Helvetica,sans-Serif" font-size="10.00">+ OpenFile()</text>
</a>
</g>
</g>
<!-- Node8&#45;&gt;Node2 -->
<g id="edge6" class="edge"><title>Node8&#45;&gt;Node2</title>
<path fill="none" stroke="#404040" d="M797.559,-160.406C787.149,-152.355 775.78,-144.385 764.5,-138 686.36,-93.7689 585.487,-69.8143 516.359,-57.6455"/>
<polygon fill="none" stroke="#404040" points="516.092,-57.5998 509.504,-60.5324 504.263,-55.5792 510.851,-52.6466 516.092,-57.5998"/>
<text text-anchor="middle" x="750" y="-112" font-family="Helvetica,sans-Serif" font-size="10.00"> &#45;FileHandler</text>
</g>
</g>
</svg>
        <g id="navigator" transform="translate(0 0)" fill="#404254">
                <rect fill="#f2f5e9" fill-opacity="0.5" stroke="#606060" stroke-width=".5" x="0" y="0" width="60" height="60"/>
                <use id="zoomplus" xlink:href="#zoomPlus" x="17" y="9" onmousedown="handleZoom(evt,'in')"/>
                <use id="zoomminus" xlink:href="#zoomMin" x="42" y="9" onmousedown="handleZoom(evt,'out')"/>
                <use id="reset" xlink:href="#resetDef" x="30" y="36" onmousedown="handleReset()"/>
                <g id="arrowUp" xlink:href="#dirArrow" transform="translate(30 24)" onmousedown="handlePan(0,-1)">
                  <use xlink:href="#rim" fill="#404040">
                        <set attributeName="fill" to="#808080" begin="arrowUp.mouseover" end="arrowUp.mouseout"/>
                  </use>
                  <path fill="none" stroke="white" stroke-width="1.5" d="M0,-3.0v7 M-2.5,-0.5L0,-3.0L2.5,-0.5"/>
                </g>
                <g id="arrowRight" xlink:href="#dirArrow" transform="rotate(90) translate(36 -43)" onmousedown="handlePan(1,0)">
                  <use xlink:href="#rim" fill="#404040">
                        <set attributeName="fill" to="#808080" begin="arrowRight.mouseover" end="arrowRight.mouseout"/>
                  </use>
                  <path fill="none" stroke="white" stroke-width="1.5" d="M0,-3.0v7 M-2.5,-0.5L0,-3.0L2.5,-0.5"/>
                </g>
                <g id="arrowDown" xlink:href="#dirArrow" transform="rotate(180) translate(-30 -48)" onmousedown="handlePan(0,1)">
                  <use xlink:href="#rim" fill="#404040">
                        <set attributeName="fill" to="#808080" begin="arrowDown.mouseover" end="arrowDown.mouseout"/>
                  </use>
                  <path fill="none" stroke="white" stroke-width="1.5" d="M0,-3.0v7 M-2.5,-0.5L0,-3.0L2.5,-0.5"/>
                </g>
                <g id="arrowLeft" xlink:href="#dirArrow" transform="rotate(270) translate(-36 17)" onmousedown="handlePan(-1,0)">
                  <use xlink:href="#rim" fill="#404040">
                        <set attributeName="fill" to="#808080" begin="arrowLeft.mouseover" end="arrowLeft.mouseout"/>
                  </use>
                  <path fill="none" stroke="white" stroke-width="1.5" d="M0,-3.0v7 M-2.5,-0.5L0,-3.0L2.5,-0.5"/>
                </g>
        </g>
        <svg viewBox="0 0 15 15" width="100%" height="30px" preserveAspectRatio="xMaxYMin meet">
         <g id="arrow_out" transform="scale(0.3 0.3)">
          <a xlink:href="class_little_weeb_library_1_1_services_1_1_file_web_socket_service__coll__graph_org.svg" target="_base">
           <rect id="button" ry="5" rx="5" y="6" x="6" height="38" width="38"
                fill="#f2f5e9" fill-opacity="0.5" stroke="#606060" stroke-width="1.0"/>
           <path id="arrow"
             d="M 11.500037,31.436501 C 11.940474,20.09759 22.043105,11.32322 32.158766,21.979434 L 37.068811,17.246167 C 37.068811,17.246167 37.088388,32 37.088388,32 L 22.160133,31.978069 C 22.160133,31.978069 26.997745,27.140456 26.997745,27.140456 C 18.528582,18.264221 13.291696,25.230495 11.500037,31.436501 z"
             style="fill:#404040;"/>
          </a>
         </g>
        </svg>
</svg>
