<?xml version="1.0" encoding="UTF-8" standalone="no"?>
<!DOCTYPE svg PUBLIC "-//W3C//DTD SVG 1.1//EN"
 "http://www.w3.org/Graphics/SVG/1.1/DTD/svg11.dtd">
<!-- Generated by graphviz version 2.38.0 (20140413.2041)
 -->
<!-- Title: LittleWeebLibrary.Services.FileWebSocketService.OpenFile Pages: 1 -->
<svg width="551pt" height="253pt"
 viewBox="0.00 0.00 551.00 253.27" xmlns="http://www.w3.org/2000/svg" xmlns:xlink="http://www.w3.org/1999/xlink">
<g id="graph0" class="graph" transform="scale(1 1) rotate(0) translate(4 249.271)">
<title>LittleWeebLibrary.Services.FileWebSocketService.OpenFile</title>
<polygon fill="white" stroke="none" points="-4,4 -4,-249.271 547,-249.271 547,4 -4,4"/>
<!-- Node21 -->
<g id="node1" class="node"><title>Node21</title>
<polygon fill="#bfbfbf" stroke="black" points="0,-66.7713 0,-96.7713 157,-96.7713 157,-66.7713 0,-66.7713"/>
<text text-anchor="start" x="8" y="-84.7713" font-family="Helvetica,sans-Serif" font-size="10.00">LittleWeebLibrary.Services.</text>
<text text-anchor="middle" x="78.5" y="-73.7713" font-family="Helvetica,sans-Serif" font-size="10.00">FileWebSocketService.OpenFile</text>
</g>
<!-- Node22 -->
<g id="node2" class="node"><title>Node22</title>
<g id="a_node2"><a xlink:href="class_little_weeb_library_1_1_handlers_1_1_file_handler.html#a08cbef4974d973035a7ddeedb9f8ff4a" target="_top" xlink:title="LittleWeebLibrary.Handlers.\lFileHandler.OpenFile">
<polygon fill="white" stroke="black" points="207.5,-110.771 207.5,-140.771 344.5,-140.771 344.5,-110.771 207.5,-110.771"/>
<text text-anchor="start" x="215.5" y="-128.771" font-family="Helvetica,sans-Serif" font-size="10.00">LittleWeebLibrary.Handlers.</text>
<text text-anchor="middle" x="276" y="-117.771" font-family="Helvetica,sans-Serif" font-size="10.00">FileHandler.OpenFile</text>
</a>
</g>
</g>
<!-- Node21&#45;&gt;Node22 -->
<g id="edge1" class="edge"><title>Node21&#45;&gt;Node22</title>
<path fill="none" stroke="midnightblue" d="M146.233,-96.7905C162.97,-100.557 181.06,-104.629 198.241,-108.496"/>
<polygon fill="midnightblue" stroke="midnightblue" points="197.711,-111.964 208.236,-110.745 199.248,-105.135 197.711,-111.964"/>
</g>
<!-- Node25 -->
<g id="node5" class="node"><title>Node25</title>
<g id="a_node5"><a xlink:href="class_little_weeb_library_1_1_models_1_1_json_error.html#a0e3e7dd2e2990404b7f0461742b23440" target="_top" xlink:title="LittleWeebLibrary.Models.\lJsonError.ToJson">
<polygon fill="white" stroke="black" points="404,-214.771 404,-244.771 534,-244.771 534,-214.771 404,-214.771"/>
<text text-anchor="start" x="412" y="-232.771" font-family="Helvetica,sans-Serif" font-size="10.00">LittleWeebLibrary.Models.</text>
<text text-anchor="middle" x="469" y="-221.771" font-family="Helvetica,sans-Serif" font-size="10.00">JsonError.ToJson</text>
</a>
</g>
</g>
<!-- Node21&#45;&gt;Node25 -->
<g id="edge9" class="edge"><title>Node21&#45;&gt;Node25</title>
<path fill="none" stroke="midnightblue" d="M100.786,-96.8038C122.951,-111.899 159.103,-134.981 193,-149.771 258.67,-178.425 337.541,-200.169 393.945,-213.702"/>
<polygon fill="midnightblue" stroke="midnightblue" points="393.317,-217.15 403.854,-216.051 394.931,-210.339 393.317,-217.15"/>
</g>
<!-- Node26 -->
<g id="node6" class="node"><title>Node26</title>
<g id="a_node6"><a xlink:href="class_little_weeb_library_1_1_models_1_1_json_error.html#ad7d5522c90119111d2e929f39e7f6d3c" target="_top" xlink:title="LittleWeebLibrary.Models.\lJsonError.ToString">
<polygon fill="white" stroke="black" points="404,-55.7713 404,-85.7713 534,-85.7713 534,-55.7713 404,-55.7713"/>
<text text-anchor="start" x="412" y="-73.7713" font-family="Helvetica,sans-Serif" font-size="10.00">LittleWeebLibrary.Models.</text>
<text text-anchor="middle" x="469" y="-62.7713" font-family="Helvetica,sans-Serif" font-size="10.00">JsonError.ToString</text>
</a>
</g>
</g>
<!-- Node21&#45;&gt;Node26 -->
<g id="edge10" class="edge"><title>Node21&#45;&gt;Node26</title>
<path fill="none" stroke="midnightblue" d="M157.185,-79.5717C226.058,-77.6216 325.956,-74.7931 393.767,-72.8731"/>
<polygon fill="midnightblue" stroke="midnightblue" points="394.051,-76.3666 403.947,-72.5848 393.852,-69.3694 394.051,-76.3666"/>
</g>
<!-- Node27 -->
<g id="node7" class="node"><title>Node27</title>
<g id="a_node7"><a xlink:href="class_little_weeb_library_1_1_handlers_1_1_debug_handler.html#afccb37dfd6b2114af72000c2f4fe4607" target="_top" xlink:title="LittleWeebLibrary.Handlers.\lDebugHandler.TraceMessage">
<polygon fill="white" stroke="black" points="397,-6.77125 397,-36.7713 541,-36.7713 541,-6.77125 397,-6.77125"/>
<text text-anchor="start" x="405" y="-24.7713" font-family="Helvetica,sans-Serif" font-size="10.00">LittleWeebLibrary.Handlers.</text>
<text text-anchor="middle" x="469" y="-13.7713" font-family="Helvetica,sans-Serif" font-size="10.00">DebugHandler.TraceMessage</text>
</a>
</g>
</g>
<!-- Node21&#45;&gt;Node27 -->
<g id="edge11" class="edge"><title>Node21&#45;&gt;Node27</title>
<path fill="none" stroke="midnightblue" d="M97.2899,-66.6211C118.472,-49.6713 155.694,-23.2211 193,-12.7713 256.33,4.96853 331.083,1.02366 386.654,-6.41234"/>
<polygon fill="midnightblue" stroke="midnightblue" points="386.41,-9.91239 396.8,-7.83699 387.384,-2.9804 386.41,-9.91239"/>
</g>
<!-- Node28 -->
<g id="node8" class="node"><title>Node28</title>
<g id="a_node8"><a xlink:href="class_little_weeb_library_1_1_handlers_1_1_web_socket_handler.html#a1de289d54d665a32c93478c68d3e6ad0" target="_top" xlink:title="LittleWeebLibrary.Handlers.\lWebSocketHandler.SendMessage">
<polygon fill="white" stroke="black" points="193,-22.7713 193,-52.7713 359,-52.7713 359,-22.7713 193,-22.7713"/>
<text text-anchor="start" x="201" y="-40.7713" font-family="Helvetica,sans-Serif" font-size="10.00">LittleWeebLibrary.Handlers.</text>
<text text-anchor="middle" x="276" y="-29.7713" font-family="Helvetica,sans-Serif" font-size="10.00">WebSocketHandler.SendMessage</text>
</a>
</g>
</g>
<!-- Node21&#45;&gt;Node28 -->
<g id="edge7" class="edge"><title>Node21&#45;&gt;Node28</title>
<path fill="none" stroke="midnightblue" d="M146.233,-66.752C162.97,-62.9852 181.06,-58.9138 198.241,-55.0468"/>
<polygon fill="midnightblue" stroke="midnightblue" points="199.248,-58.4078 208.236,-52.7975 197.711,-51.5787 199.248,-58.4078"/>
</g>
<!-- Node23 -->
<g id="node3" class="node"><title>Node23</title>
<g id="a_node3"><a xlink:href="class_little_weeb_library_1_1_static_classes_1_1_utility_methods.html#afc8c716f32bc35d59afdb287be06c3ca" target="_top" xlink:title="LittleWeebLibrary.Static\lClasses.UtilityMethods.Check\lOperatingSystems">
<polygon fill="white" stroke="black" points="395,-105.271 395,-146.271 543,-146.271 543,-105.271 395,-105.271"/>
<text text-anchor="start" x="403" y="-134.271" font-family="Helvetica,sans-Serif" font-size="10.00">LittleWeebLibrary.Static</text>
<text text-anchor="start" x="403" y="-123.271" font-family="Helvetica,sans-Serif" font-size="10.00">Classes.UtilityMethods.Check</text>
<text text-anchor="middle" x="469" y="-112.271" font-family="Helvetica,sans-Serif" font-size="10.00">OperatingSystems</text>
</a>
</g>
</g>
<!-- Node22&#45;&gt;Node23 -->
<g id="edge2" class="edge"><title>Node22&#45;&gt;Node23</title>
<path fill="none" stroke="midnightblue" d="M344.608,-125.771C357.607,-125.771 371.361,-125.771 384.785,-125.771"/>
<polygon fill="midnightblue" stroke="midnightblue" points="384.969,-129.271 394.969,-125.771 384.969,-122.271 384.969,-129.271"/>
</g>
<!-- Node24 -->
<g id="node4" class="node"><title>Node24</title>
<g id="a_node4"><a xlink:href="class_little_weeb_library_1_1_models_1_1_json_success.html#a407103dc37a77aaf47a782296bab7518" target="_top" xlink:title="LittleWeebLibrary.Models.\lJsonSuccess.ToJson">
<polygon fill="white" stroke="black" points="404,-165.771 404,-195.771 534,-195.771 534,-165.771 404,-165.771"/>
<text text-anchor="start" x="412" y="-183.771" font-family="Helvetica,sans-Serif" font-size="10.00">LittleWeebLibrary.Models.</text>
<text text-anchor="middle" x="469" y="-172.771" font-family="Helvetica,sans-Serif" font-size="10.00">JsonSuccess.ToJson</text>
</a>
</g>
</g>
<!-- Node22&#45;&gt;Node24 -->
<g id="edge3" class="edge"><title>Node22&#45;&gt;Node24</title>
<path fill="none" stroke="midnightblue" d="M329.192,-140.8C352.984,-147.651 381.326,-155.813 406.178,-162.969"/>
<polygon fill="midnightblue" stroke="midnightblue" points="405.293,-166.357 415.872,-165.76 407.231,-159.63 405.293,-166.357"/>
</g>
<!-- Node22&#45;&gt;Node25 -->
<g id="edge4" class="edge"><title>Node22&#45;&gt;Node25</title>
<path fill="none" stroke="midnightblue" d="M295.615,-140.819C318.059,-158.369 357.459,-187.325 395,-205.771 398.772,-207.625 402.72,-209.385 406.746,-211.048"/>
<polygon fill="midnightblue" stroke="midnightblue" points="405.641,-214.373 416.229,-214.747 408.185,-207.852 405.641,-214.373"/>
</g>
<!-- Node22&#45;&gt;Node26 -->
<g id="edge5" class="edge"><title>Node22&#45;&gt;Node26</title>
<path fill="none" stroke="midnightblue" d="M329.192,-110.742C352.984,-103.891 381.326,-95.7298 406.178,-88.5734"/>
<polygon fill="midnightblue" stroke="midnightblue" points="407.231,-91.9126 415.872,-85.7821 405.293,-85.1859 407.231,-91.9126"/>
</g>
<!-- Node22&#45;&gt;Node27 -->
<g id="edge6" class="edge"><title>Node22&#45;&gt;Node27</title>
<path fill="none" stroke="midnightblue" d="M295.615,-110.724C318.059,-93.1734 357.459,-64.2174 395,-45.7713 398.772,-43.918 402.72,-42.1575 406.746,-40.4948"/>
<polygon fill="midnightblue" stroke="midnightblue" points="408.185,-43.6905 416.229,-36.7957 405.641,-37.1691 408.185,-43.6905"/>
</g>
<!-- Node28&#45;&gt;Node27 -->
<g id="edge8" class="edge"><title>Node28&#45;&gt;Node27</title>
<path fill="none" stroke="midnightblue" d="M359.11,-30.893C368.219,-30.1299 377.494,-29.3529 386.594,-28.5906"/>
<polygon fill="midnightblue" stroke="midnightblue" points="387.104,-32.0602 396.777,-27.7376 386.52,-25.0847 387.104,-32.0602"/>
</g>
</g>
</svg>
