<?xml version="1.0" encoding="UTF-8" standalone="no"?>
<!DOCTYPE svg PUBLIC "-//W3C//DTD SVG 1.1//EN"
 "http://www.w3.org/Graphics/SVG/1.1/DTD/svg11.dtd">
<!-- Generated by graphviz version 2.38.0 (20140413.2041)
 -->
<!-- Title: LittleWeebLibrary.Handlers.AnimeRuleHandler.FilterAnimeRules Pages: 1 -->
<svg width="864pt" height="50pt"
 viewBox="0.00 0.00 864.00 50.00" xmlns="http://www.w3.org/2000/svg" xmlns:xlink="http://www.w3.org/1999/xlink">
<g id="graph0" class="graph" transform="scale(1 1) rotate(0) translate(4 46)">
<title>LittleWeebLibrary.Handlers.AnimeRuleHandler.FilterAnimeRules</title>
<polygon fill="white" stroke="none" points="-4,4 -4,-46 860,-46 860,4 -4,4"/>
<!-- Node17 -->
<g id="node1" class="node"><title>Node17</title>
<polygon fill="#bfbfbf" stroke="black" points="0,-6 0,-36 174,-36 174,-6 0,-6"/>
<text text-anchor="start" x="8" y="-24" font-family="Helvetica,sans-Serif" font-size="10.00">LittleWeebLibrary.Handlers.</text>
<text text-anchor="middle" x="87" y="-13" font-family="Helvetica,sans-Serif" font-size="10.00">AnimeRuleHandler.FilterAnimeRules</text>
</g>
<!-- Node18 -->
<g id="node2" class="node"><title>Node18</title>
<g id="a_node2"><a xlink:href="class_little_weeb_library_1_1_handlers_1_1_anime_profile_handler.html#a5b163eb7e68b1e40904fa55454d8ba54" target="_top" xlink:title="LittleWeebLibrary.Handlers.\lAnimeProfileHandler.GetAnimeEpisodes">
<polygon fill="white" stroke="black" points="210,-6 210,-36 401,-36 401,-6 210,-6"/>
<text text-anchor="start" x="218" y="-24" font-family="Helvetica,sans-Serif" font-size="10.00">LittleWeebLibrary.Handlers.</text>
<text text-anchor="middle" x="305.5" y="-13" font-family="Helvetica,sans-Serif" font-size="10.00">AnimeProfileHandler.GetAnimeEpisodes</text>
</a>
</g>
</g>
<!-- Node17&#45;&gt;Node18 -->
<g id="edge1" class="edge"><title>Node17&#45;&gt;Node18</title>
<path fill="none" stroke="midnightblue" d="M184.388,-21C192.8,-21 201.309,-21 209.709,-21"/>
<polygon fill="midnightblue" stroke="midnightblue" points="184.189,-17.5001 174.189,-21 184.189,-24.5001 184.189,-17.5001"/>
</g>
<!-- Node19 -->
<g id="node3" class="node"><title>Node19</title>
<g id="a_node3"><a xlink:href="class_little_weeb_library_1_1_services_1_1_info_api_web_socket_service.html#a754f738fba586cc927d64251329c736a" target="_top" xlink:title="LittleWeebLibrary.Services.\lInfoApiWebSocketService.GetAnime\lEpisodes">
<polygon fill="white" stroke="black" points="437,-0.5 437,-41.5 612,-41.5 612,-0.5 437,-0.5"/>
<text text-anchor="start" x="445" y="-29.5" font-family="Helvetica,sans-Serif" font-size="10.00">LittleWeebLibrary.Services.</text>
<text text-anchor="start" x="445" y="-18.5" font-family="Helvetica,sans-Serif" font-size="10.00">InfoApiWebSocketService.GetAnime</text>
<text text-anchor="middle" x="524.5" y="-7.5" font-family="Helvetica,sans-Serif" font-size="10.00">Episodes</text>
</a>
</g>
</g>
<!-- Node18&#45;&gt;Node19 -->
<g id="edge2" class="edge"><title>Node18&#45;&gt;Node19</title>
<path fill="none" stroke="midnightblue" d="M411.111,-21C419.707,-21 428.336,-21 436.781,-21"/>
<polygon fill="midnightblue" stroke="midnightblue" points="411.048,-17.5001 401.048,-21 411.048,-24.5001 411.048,-17.5001"/>
</g>
<!-- Node20 -->
<g id="node4" class="node"><title>Node20</title>
<g id="a_node4"><a xlink:href="class_little_weeb_library_1_1_controllers_1_1_sub_controllers_1_1_info_api_web_socket_controller.html#ad620537574b819085ff8eb394add2912" target="_top" xlink:title="LittleWeebLibrary.Controllers.\lSubControllers.InfoApiWebSocketController.\lOnWebSocketEvent">
<polygon fill="white" stroke="black" points="648,-0.5 648,-41.5 856,-41.5 856,-0.5 648,-0.5"/>
<text text-anchor="start" x="656" y="-29.5" font-family="Helvetica,sans-Serif" font-size="10.00">LittleWeebLibrary.Controllers.</text>
<text text-anchor="start" x="656" y="-18.5" font-family="Helvetica,sans-Serif" font-size="10.00">SubControllers.InfoApiWebSocketController.</text>
<text text-anchor="middle" x="752" y="-7.5" font-family="Helvetica,sans-Serif" font-size="10.00">OnWebSocketEvent</text>
</a>
</g>
</g>
<!-- Node19&#45;&gt;Node20 -->
<g id="edge3" class="edge"><title>Node19&#45;&gt;Node20</title>
<path fill="none" stroke="midnightblue" d="M622.25,-21C630.682,-21 639.235,-21 647.716,-21"/>
<polygon fill="midnightblue" stroke="midnightblue" points="622.039,-17.5001 612.039,-21 622.039,-24.5001 622.039,-17.5001"/>
</g>
</g>
</svg>
