<?xml version="1.0" encoding="UTF-8" standalone="no"?>
<!DOCTYPE svg PUBLIC "-//W3C//DTD SVG 1.1//EN"
 "http://www.w3.org/Graphics/SVG/1.1/DTD/svg11.dtd">
<!-- Generated by graphviz version 2.38.0 (20140413.2041)
 -->
<!-- Title: LittleWeebLibrary.Services.DataBaseWebSocketService.StoreDocument Pages: 1 -->
<svg width="602pt" height="225pt"
 viewBox="0.00 0.00 602.00 225.00" xmlns="http://www.w3.org/2000/svg" xmlns:xlink="http://www.w3.org/1999/xlink">
<g id="graph0" class="graph" transform="scale(1 1) rotate(0) translate(4 221)">
<title>LittleWeebLibrary.Services.DataBaseWebSocketService.StoreDocument</title>
<polygon fill="white" stroke="none" points="-4,4 -4,-221 598,-221 598,4 -4,4"/>
<!-- Node31 -->
<g id="node1" class="node"><title>Node31</title>
<polygon fill="#bfbfbf" stroke="black" points="0,-98.5 0,-128.5 212,-128.5 212,-98.5 0,-98.5"/>
<text text-anchor="start" x="8" y="-116.5" font-family="Helvetica,sans-Serif" font-size="10.00">LittleWeebLibrary.Services.</text>
<text text-anchor="middle" x="106" y="-105.5" font-family="Helvetica,sans-Serif" font-size="10.00">DataBaseWebSocketService.StoreDocument</text>
</g>
<!-- Node32 -->
<g id="node2" class="node"><title>Node32</title>
<g id="a_node2"><a xlink:href="class_little_weeb_library_1_1_handlers_1_1_web_socket_handler.html#a1de289d54d665a32c93478c68d3e6ad0" target="_top" xlink:title="LittleWeebLibrary.Handlers.\lWebSocketHandler.SendMessage">
<polygon fill="white" stroke="black" points="248,-186.5 248,-216.5 414,-216.5 414,-186.5 248,-186.5"/>
<text text-anchor="start" x="256" y="-204.5" font-family="Helvetica,sans-Serif" font-size="10.00">LittleWeebLibrary.Handlers.</text>
<text text-anchor="middle" x="331" y="-193.5" font-family="Helvetica,sans-Serif" font-size="10.00">WebSocketHandler.SendMessage</text>
</a>
</g>
</g>
<!-- Node31&#45;&gt;Node32 -->
<g id="edge1" class="edge"><title>Node31&#45;&gt;Node32</title>
<path fill="none" stroke="midnightblue" d="M142.483,-128.55C170.902,-140.495 211.854,-157.46 248,-171.5 257.744,-175.285 268.189,-179.208 278.25,-182.919"/>
<polygon fill="midnightblue" stroke="midnightblue" points="277.149,-186.244 287.743,-186.402 279.56,-179.672 277.149,-186.244"/>
</g>
<!-- Node33 -->
<g id="node3" class="node"><title>Node33</title>
<g id="a_node3"><a xlink:href="class_little_weeb_library_1_1_handlers_1_1_debug_handler.html#afccb37dfd6b2114af72000c2f4fe4607" target="_top" xlink:title="LittleWeebLibrary.Handlers.\lDebugHandler.TraceMessage">
<polygon fill="white" stroke="black" points="450,-153.5 450,-183.5 594,-183.5 594,-153.5 450,-153.5"/>
<text text-anchor="start" x="458" y="-171.5" font-family="Helvetica,sans-Serif" font-size="10.00">LittleWeebLibrary.Handlers.</text>
<text text-anchor="middle" x="522" y="-160.5" font-family="Helvetica,sans-Serif" font-size="10.00">DebugHandler.TraceMessage</text>
</a>
</g>
</g>
<!-- Node31&#45;&gt;Node33 -->
<g id="edge9" class="edge"><title>Node31&#45;&gt;Node33</title>
<path fill="none" stroke="midnightblue" d="M186.27,-128.502C206.367,-132.044 227.944,-135.623 248,-138.5 312.183,-147.706 385.21,-155.597 439.576,-160.972"/>
<polygon fill="midnightblue" stroke="midnightblue" points="439.553,-164.486 449.847,-161.98 440.237,-157.52 439.553,-164.486"/>
</g>
<!-- Node34 -->
<g id="node4" class="node"><title>Node34</title>
<g id="a_node4"><a xlink:href="class_little_weeb_library_1_1_handlers_1_1_data_base_handler.html#a5e6a70ef81b049da46b6ae3a15b09cd3" target="_top" xlink:title="LittleWeebLibrary.Handlers.\lDataBaseHandler.StoreJObject">
<polygon fill="white" stroke="black" points="255,-98.5 255,-128.5 407,-128.5 407,-98.5 255,-98.5"/>
<text text-anchor="start" x="263" y="-116.5" font-family="Helvetica,sans-Serif" font-size="10.00">LittleWeebLibrary.Handlers.</text>
<text text-anchor="middle" x="331" y="-105.5" font-family="Helvetica,sans-Serif" font-size="10.00">DataBaseHandler.StoreJObject</text>
</a>
</g>
</g>
<!-- Node31&#45;&gt;Node34 -->
<g id="edge3" class="edge"><title>Node31&#45;&gt;Node34</title>
<path fill="none" stroke="midnightblue" d="M212.296,-113.5C223.15,-113.5 234.082,-113.5 244.679,-113.5"/>
<polygon fill="midnightblue" stroke="midnightblue" points="244.724,-117 254.724,-113.5 244.724,-110 244.724,-117"/>
</g>
<!-- Node37 -->
<g id="node7" class="node"><title>Node37</title>
<g id="a_node7"><a xlink:href="class_little_weeb_library_1_1_models_1_1_json_success.html#a407103dc37a77aaf47a782296bab7518" target="_top" xlink:title="LittleWeebLibrary.Models.\lJsonSuccess.ToJson">
<polygon fill="white" stroke="black" points="266,-49.5 266,-79.5 396,-79.5 396,-49.5 266,-49.5"/>
<text text-anchor="start" x="274" y="-67.5" font-family="Helvetica,sans-Serif" font-size="10.00">LittleWeebLibrary.Models.</text>
<text text-anchor="middle" x="331" y="-56.5" font-family="Helvetica,sans-Serif" font-size="10.00">JsonSuccess.ToJson</text>
</a>
</g>
</g>
<!-- Node31&#45;&gt;Node37 -->
<g id="edge7" class="edge"><title>Node31&#45;&gt;Node37</title>
<path fill="none" stroke="midnightblue" d="M175.423,-98.4654C200.967,-92.8526 230.074,-86.4567 256.09,-80.7402"/>
<polygon fill="midnightblue" stroke="midnightblue" points="256.88,-84.1503 265.896,-78.5857 255.378,-77.3134 256.88,-84.1503"/>
</g>
<!-- Node38 -->
<g id="node8" class="node"><title>Node38</title>
<g id="a_node8"><a xlink:href="class_little_weeb_library_1_1_models_1_1_json_error.html#a0e3e7dd2e2990404b7f0461742b23440" target="_top" xlink:title="LittleWeebLibrary.Models.\lJsonError.ToJson">
<polygon fill="white" stroke="black" points="266,-0.5 266,-30.5 396,-30.5 396,-0.5 266,-0.5"/>
<text text-anchor="start" x="274" y="-18.5" font-family="Helvetica,sans-Serif" font-size="10.00">LittleWeebLibrary.Models.</text>
<text text-anchor="middle" x="331" y="-7.5" font-family="Helvetica,sans-Serif" font-size="10.00">JsonError.ToJson</text>
</a>
</g>
</g>
<!-- Node31&#45;&gt;Node38 -->
<g id="edge8" class="edge"><title>Node31&#45;&gt;Node38</title>
<path fill="none" stroke="midnightblue" d="M132.255,-98.2791C159.92,-82.0785 205.963,-56.4862 248,-39.5 252.985,-37.4855 258.203,-35.5602 263.487,-33.7394"/>
<polygon fill="midnightblue" stroke="midnightblue" points="264.642,-37.044 273.035,-30.5779 262.442,-30.3988 264.642,-37.044"/>
</g>
<!-- Node32&#45;&gt;Node33 -->
<g id="edge2" class="edge"><title>Node32&#45;&gt;Node33</title>
<path fill="none" stroke="midnightblue" d="M414.074,-187.17C422.666,-185.669 431.398,-184.145 439.978,-182.647"/>
<polygon fill="midnightblue" stroke="midnightblue" points="440.715,-186.071 449.964,-180.903 439.511,-179.175 440.715,-186.071"/>
</g>
<!-- Node34&#45;&gt;Node33 -->
<g id="edge4" class="edge"><title>Node34&#45;&gt;Node33</title>
<path fill="none" stroke="midnightblue" d="M383.645,-128.529C407.084,-135.35 434.985,-143.469 459.499,-150.603"/>
<polygon fill="midnightblue" stroke="midnightblue" points="458.838,-154.056 469.417,-153.489 460.794,-147.334 458.838,-154.056"/>
</g>
<!-- Node35 -->
<g id="node5" class="node"><title>Node35</title>
<g id="a_node5"><a xlink:href="class_little_weeb_library_1_1_static_classes_1_1_utility_methods.html#a6542a3a6ea0aed6b4d78bb44a4a7d9d7" target="_top" xlink:title="LittleWeebLibrary.Static\lClasses.UtilityMethods.Write\lBinaryFile">
<polygon fill="white" stroke="black" points="450.5,-93 450.5,-134 593.5,-134 593.5,-93 450.5,-93"/>
<text text-anchor="start" x="458.5" y="-122" font-family="Helvetica,sans-Serif" font-size="10.00">LittleWeebLibrary.Static</text>
<text text-anchor="start" x="458.5" y="-111" font-family="Helvetica,sans-Serif" font-size="10.00">Classes.UtilityMethods.Write</text>
<text text-anchor="middle" x="522" y="-100" font-family="Helvetica,sans-Serif" font-size="10.00">BinaryFile</text>
</a>
</g>
</g>
<!-- Node34&#45;&gt;Node35 -->
<g id="edge5" class="edge"><title>Node34&#45;&gt;Node35</title>
<path fill="none" stroke="midnightblue" d="M407.241,-113.5C418.006,-113.5 429.12,-113.5 439.99,-113.5"/>
<polygon fill="midnightblue" stroke="midnightblue" points="440.319,-117 450.319,-113.5 440.319,-110 440.319,-117"/>
</g>
<!-- Node36 -->
<g id="node6" class="node"><title>Node36</title>
<g id="a_node6"><a xlink:href="class_little_weeb_library_1_1_static_classes_1_1_utility_methods.html#a16933213071d531063b29979e7b55fe8" target="_top" xlink:title="LittleWeebLibrary.Static\lClasses.UtilityMethods.Zip">
<polygon fill="white" stroke="black" points="455.5,-43.5 455.5,-73.5 588.5,-73.5 588.5,-43.5 455.5,-43.5"/>
<text text-anchor="start" x="463.5" y="-61.5" font-family="Helvetica,sans-Serif" font-size="10.00">LittleWeebLibrary.Static</text>
<text text-anchor="middle" x="522" y="-50.5" font-family="Helvetica,sans-Serif" font-size="10.00">Classes.UtilityMethods.Zip</text>
</a>
</g>
</g>
<!-- Node34&#45;&gt;Node36 -->
<g id="edge6" class="edge"><title>Node34&#45;&gt;Node36</title>
<path fill="none" stroke="midnightblue" d="M383.645,-98.471C407.084,-91.6502 434.985,-83.5308 459.499,-76.3972"/>
<polygon fill="midnightblue" stroke="midnightblue" points="460.794,-79.6656 469.417,-73.5108 458.838,-72.9444 460.794,-79.6656"/>
</g>
</g>
</svg>
