<?xml version="1.0" encoding="UTF-8" standalone="no"?>
<!DOCTYPE svg PUBLIC "-//W3C//DTD SVG 1.1//EN"
 "http://www.w3.org/Graphics/SVG/1.1/DTD/svg11.dtd">
<!-- Generated by graphviz version 2.38.0 (20140413.2041)
 -->
<!-- Title: LittleWeebLibrary.Services.InfoApiWebSocketService.GetAllCategories Pages: 1 -->
<svg width="637pt" height="361pt"
 viewBox="0.00 0.00 637.00 360.74" xmlns="http://www.w3.org/2000/svg" xmlns:xlink="http://www.w3.org/1999/xlink">
<g id="graph0" class="graph" transform="scale(1 1) rotate(0) translate(4 356.741)">
<title>LittleWeebLibrary.Services.InfoApiWebSocketService.GetAllCategories</title>
<polygon fill="white" stroke="none" points="-4,4 -4,-356.741 633,-356.741 633,4 -4,4"/>
<!-- Node114 -->
<g id="node1" class="node"><title>Node114</title>
<polygon fill="#bfbfbf" stroke="black" points="0,-171.5 0,-201.5 205,-201.5 205,-171.5 0,-171.5"/>
<text text-anchor="start" x="8" y="-189.5" font-family="Helvetica,sans-Serif" font-size="10.00">LittleWeebLibrary.Services.</text>
<text text-anchor="middle" x="102.5" y="-178.5" font-family="Helvetica,sans-Serif" font-size="10.00">InfoApiWebSocketService.GetAllCategories</text>
</g>
<!-- Node115 -->
<g id="node2" class="node"><title>Node115</title>
<g id="a_node2"><a xlink:href="class_little_weeb_library_1_1_handlers_1_1_kitsu_handler.html#ae329f7e735a6abee2734bbbd13d121b2" target="_top" xlink:title="LittleWeebLibrary.Handlers.\lKitsuHandler.GetAllCategories">
<polygon fill="white" stroke="black" points="249.5,-294.5 249.5,-324.5 398.5,-324.5 398.5,-294.5 249.5,-294.5"/>
<text text-anchor="start" x="257.5" y="-312.5" font-family="Helvetica,sans-Serif" font-size="10.00">LittleWeebLibrary.Handlers.</text>
<text text-anchor="middle" x="324" y="-301.5" font-family="Helvetica,sans-Serif" font-size="10.00">KitsuHandler.GetAllCategories</text>
</a>
</g>
</g>
<!-- Node114&#45;&gt;Node115 -->
<g id="edge1" class="edge"><title>Node114&#45;&gt;Node115</title>
<path fill="none" stroke="midnightblue" d="M120.495,-201.709C145.315,-223.196 193.689,-262.39 241,-285.5 244.824,-287.368 248.82,-289.118 252.902,-290.754"/>
<polygon fill="midnightblue" stroke="midnightblue" points="251.951,-294.135 262.543,-294.365 254.406,-287.58 251.951,-294.135"/>
</g>
<!-- Node116 -->
<g id="node3" class="node"><title>Node116</title>
<g id="a_node3"><a xlink:href="class_little_weeb_library_1_1_handlers_1_1_debug_handler.html#afccb37dfd6b2114af72000c2f4fe4607" target="_top" xlink:title="LittleWeebLibrary.Handlers.\lDebugHandler.TraceMessage">
<polygon fill="white" stroke="black" points="464,-294.5 464,-324.5 608,-324.5 608,-294.5 464,-294.5"/>
<text text-anchor="start" x="472" y="-312.5" font-family="Helvetica,sans-Serif" font-size="10.00">LittleWeebLibrary.Handlers.</text>
<text text-anchor="middle" x="536" y="-301.5" font-family="Helvetica,sans-Serif" font-size="10.00">DebugHandler.TraceMessage</text>
</a>
</g>
</g>
<!-- Node114&#45;&gt;Node116 -->
<g id="edge16" class="edge"><title>Node114&#45;&gt;Node116</title>
<path fill="none" stroke="midnightblue" d="M111.673,-201.575C129.902,-233.392 177.342,-306.751 241,-334.5 321.067,-369.403 424.901,-346.721 485.323,-327.68"/>
<polygon fill="midnightblue" stroke="midnightblue" points="486.565,-330.957 494.999,-324.544 484.407,-324.297 486.565,-330.957"/>
</g>
<!-- Node117 -->
<g id="node4" class="node"><title>Node117</title>
<g id="a_node4"><a xlink:href="class_little_weeb_library_1_1_handlers_1_1_data_base_handler.html#a7f61583807f99b7838a33d2db0f7ca68" target="_top" xlink:title="LittleWeebLibrary.Handlers.\lDataBaseHandler.GetJObject">
<polygon fill="white" stroke="black" points="252,-196.5 252,-226.5 396,-226.5 396,-196.5 252,-196.5"/>
<text text-anchor="start" x="260" y="-214.5" font-family="Helvetica,sans-Serif" font-size="10.00">LittleWeebLibrary.Handlers.</text>
<text text-anchor="middle" x="324" y="-203.5" font-family="Helvetica,sans-Serif" font-size="10.00">DataBaseHandler.GetJObject</text>
</a>
</g>
</g>
<!-- Node114&#45;&gt;Node117 -->
<g id="edge3" class="edge"><title>Node114&#45;&gt;Node117</title>
<path fill="none" stroke="midnightblue" d="M205.218,-198.085C217.361,-199.468 229.636,-200.866 241.444,-202.211"/>
<polygon fill="midnightblue" stroke="midnightblue" points="241.353,-205.723 251.685,-203.378 242.145,-198.768 241.353,-205.723"/>
</g>
<!-- Node120 -->
<g id="node7" class="node"><title>Node120</title>
<g id="a_node7"><a xlink:href="class_little_weeb_library_1_1_handlers_1_1_web_socket_handler.html#a1de289d54d665a32c93478c68d3e6ad0" target="_top" xlink:title="LittleWeebLibrary.Handlers.\lWebSocketHandler.SendMessage">
<polygon fill="white" stroke="black" points="241,-245.5 241,-275.5 407,-275.5 407,-245.5 241,-245.5"/>
<text text-anchor="start" x="249" y="-263.5" font-family="Helvetica,sans-Serif" font-size="10.00">LittleWeebLibrary.Handlers.</text>
<text text-anchor="middle" x="324" y="-252.5" font-family="Helvetica,sans-Serif" font-size="10.00">WebSocketHandler.SendMessage</text>
</a>
</g>
</g>
<!-- Node114&#45;&gt;Node120 -->
<g id="edge7" class="edge"><title>Node114&#45;&gt;Node120</title>
<path fill="none" stroke="midnightblue" d="M142.682,-201.505C170.066,-211.806 207.57,-225.542 241,-236.5 247.013,-238.471 253.298,-240.451 259.599,-242.383"/>
<polygon fill="midnightblue" stroke="midnightblue" points="258.89,-245.825 269.475,-245.371 260.917,-239.125 258.89,-245.825"/>
</g>
<!-- Node121 -->
<g id="node8" class="node"><title>Node121</title>
<g id="a_node8"><a xlink:href="class_little_weeb_library_1_1_handlers_1_1_data_base_handler.html#a5e6a70ef81b049da46b6ae3a15b09cd3" target="_top" xlink:title="LittleWeebLibrary.Handlers.\lDataBaseHandler.StoreJObject">
<polygon fill="white" stroke="black" points="248,-147.5 248,-177.5 400,-177.5 400,-147.5 248,-147.5"/>
<text text-anchor="start" x="256" y="-165.5" font-family="Helvetica,sans-Serif" font-size="10.00">LittleWeebLibrary.Handlers.</text>
<text text-anchor="middle" x="324" y="-154.5" font-family="Helvetica,sans-Serif" font-size="10.00">DataBaseHandler.StoreJObject</text>
</a>
</g>
</g>
<!-- Node114&#45;&gt;Node121 -->
<g id="edge9" class="edge"><title>Node114&#45;&gt;Node121</title>
<path fill="none" stroke="midnightblue" d="M205.218,-175.378C216.096,-174.189 227.08,-172.988 237.739,-171.822"/>
<polygon fill="midnightblue" stroke="midnightblue" points="238.284,-175.284 247.844,-170.717 237.523,-168.325 238.284,-175.284"/>
</g>
<!-- Node124 -->
<g id="node11" class="node"><title>Node124</title>
<g id="a_node11"><a xlink:href="class_little_weeb_library_1_1_models_1_1_json_kistu_categories.html#aa4fa8f73a8a500c0ee4238329c2dd8f8" target="_top" xlink:title="LittleWeebLibrary.Models.\lJsonKistuCategories.ToJObject">
<polygon fill="white" stroke="black" points="248,-98.5 248,-128.5 400,-128.5 400,-98.5 248,-98.5"/>
<text text-anchor="start" x="256" y="-116.5" font-family="Helvetica,sans-Serif" font-size="10.00">LittleWeebLibrary.Models.</text>
<text text-anchor="middle" x="324" y="-105.5" font-family="Helvetica,sans-Serif" font-size="10.00">JsonKistuCategories.ToJObject</text>
</a>
</g>
</g>
<!-- Node114&#45;&gt;Node124 -->
<g id="edge13" class="edge"><title>Node114&#45;&gt;Node124</title>
<path fill="none" stroke="midnightblue" d="M143.902,-171.411C171.188,-161.391 208.094,-148.169 241,-137.5 247.111,-135.518 253.502,-133.52 259.903,-131.568"/>
<polygon fill="midnightblue" stroke="midnightblue" points="261.365,-134.783 269.93,-128.547 259.346,-128.081 261.365,-134.783"/>
</g>
<!-- Node125 -->
<g id="node12" class="node"><title>Node125</title>
<g id="a_node12"><a xlink:href="class_little_weeb_library_1_1_models_1_1_json_kistu_categories.html#aaab94c1dc228770f7bf0b66f4a47fd54" target="_top" xlink:title="LittleWeebLibrary.Models.\lJsonKistuCategories.ToJson">
<polygon fill="white" stroke="black" points="254,-49.5 254,-79.5 394,-79.5 394,-49.5 254,-49.5"/>
<text text-anchor="start" x="262" y="-67.5" font-family="Helvetica,sans-Serif" font-size="10.00">LittleWeebLibrary.Models.</text>
<text text-anchor="middle" x="324" y="-56.5" font-family="Helvetica,sans-Serif" font-size="10.00">JsonKistuCategories.ToJson</text>
</a>
</g>
</g>
<!-- Node114&#45;&gt;Node125 -->
<g id="edge14" class="edge"><title>Node114&#45;&gt;Node125</title>
<path fill="none" stroke="midnightblue" d="M120.524,-171.455C145.379,-150.199 193.797,-111.417 241,-88.5 245.012,-86.5524 249.212,-84.7313 253.501,-83.0338"/>
<polygon fill="midnightblue" stroke="midnightblue" points="254.835,-86.2722 262.994,-79.514 252.401,-79.7088 254.835,-86.2722"/>
</g>
<!-- Node126 -->
<g id="node13" class="node"><title>Node126</title>
<g id="a_node13"><a xlink:href="class_little_weeb_library_1_1_models_1_1_json_error.html#a0e3e7dd2e2990404b7f0461742b23440" target="_top" xlink:title="LittleWeebLibrary.Models.\lJsonError.ToJson">
<polygon fill="white" stroke="black" points="259,-0.5 259,-30.5 389,-30.5 389,-0.5 259,-0.5"/>
<text text-anchor="start" x="267" y="-18.5" font-family="Helvetica,sans-Serif" font-size="10.00">LittleWeebLibrary.Models.</text>
<text text-anchor="middle" x="324" y="-7.5" font-family="Helvetica,sans-Serif" font-size="10.00">JsonError.ToJson</text>
</a>
</g>
</g>
<!-- Node114&#45;&gt;Node126 -->
<g id="edge15" class="edge"><title>Node114&#45;&gt;Node126</title>
<path fill="none" stroke="midnightblue" d="M113.63,-171.063C134.072,-141.132 183.267,-75.0362 241,-39.5 243.779,-37.7894 246.686,-36.1956 249.679,-34.7111"/>
<polygon fill="midnightblue" stroke="midnightblue" points="251.185,-37.8715 258.87,-30.5782 248.314,-31.4872 251.185,-37.8715"/>
</g>
<!-- Node115&#45;&gt;Node116 -->
<g id="edge2" class="edge"><title>Node115&#45;&gt;Node116</title>
<path fill="none" stroke="midnightblue" d="M398.743,-309.5C416.509,-309.5 435.59,-309.5 453.681,-309.5"/>
<polygon fill="midnightblue" stroke="midnightblue" points="453.906,-313 463.906,-309.5 453.906,-306 453.906,-313"/>
</g>
<!-- Node117&#45;&gt;Node116 -->
<g id="edge5" class="edge"><title>Node117&#45;&gt;Node116</title>
<path fill="none" stroke="midnightblue" d="M389.153,-226.562C395.459,-229.344 401.536,-232.627 407,-236.5 429.048,-252.126 420.638,-270.327 443,-285.5 446.534,-287.898 450.294,-290.057 454.198,-292"/>
<polygon fill="midnightblue" stroke="midnightblue" points="452.969,-295.284 463.528,-296.153 455.816,-288.889 452.969,-295.284"/>
</g>
<!-- Node118 -->
<g id="node5" class="node"><title>Node118</title>
<g id="a_node5"><a xlink:href="class_little_weeb_library_1_1_static_classes_1_1_utility_methods.html#a7b5de7a3ecc749b655fc3ed2af55360b" target="_top" xlink:title="LittleWeebLibrary.Static\lClasses.UtilityMethods.ReadBinaryFile">
<polygon fill="white" stroke="black" points="443,-196.5 443,-226.5 629,-226.5 629,-196.5 443,-196.5"/>
<text text-anchor="start" x="451" y="-214.5" font-family="Helvetica,sans-Serif" font-size="10.00">LittleWeebLibrary.Static</text>
<text text-anchor="middle" x="536" y="-203.5" font-family="Helvetica,sans-Serif" font-size="10.00">Classes.UtilityMethods.ReadBinaryFile</text>
</a>
</g>
</g>
<!-- Node117&#45;&gt;Node118 -->
<g id="edge4" class="edge"><title>Node117&#45;&gt;Node118</title>
<path fill="none" stroke="midnightblue" d="M396.096,-211.5C407.809,-211.5 420.153,-211.5 432.452,-211.5"/>
<polygon fill="midnightblue" stroke="midnightblue" points="432.757,-215 442.757,-211.5 432.757,-208 432.757,-215"/>
</g>
<!-- Node119 -->
<g id="node6" class="node"><title>Node119</title>
<g id="a_node6"><a xlink:href="class_little_weeb_library_1_1_static_classes_1_1_utility_methods.html#a0a86ee01a3bf201bd9cc9b2552e54976" target="_top" xlink:title="LittleWeebLibrary.Static\lClasses.UtilityMethods.Unzip">
<polygon fill="white" stroke="black" points="463.5,-245.5 463.5,-275.5 608.5,-275.5 608.5,-245.5 463.5,-245.5"/>
<text text-anchor="start" x="471.5" y="-263.5" font-family="Helvetica,sans-Serif" font-size="10.00">LittleWeebLibrary.Static</text>
<text text-anchor="middle" x="536" y="-252.5" font-family="Helvetica,sans-Serif" font-size="10.00">Classes.UtilityMethods.Unzip</text>
</a>
</g>
</g>
<!-- Node117&#45;&gt;Node119 -->
<g id="edge6" class="edge"><title>Node117&#45;&gt;Node119</title>
<path fill="none" stroke="midnightblue" d="M389.434,-226.535C412.01,-231.802 437.543,-237.76 460.85,-243.198"/>
<polygon fill="midnightblue" stroke="midnightblue" points="460.154,-246.63 470.688,-245.494 461.745,-239.813 460.154,-246.63"/>
</g>
<!-- Node120&#45;&gt;Node116 -->
<g id="edge8" class="edge"><title>Node120&#45;&gt;Node116</title>
<path fill="none" stroke="midnightblue" d="M389.434,-275.535C412.01,-280.802 437.543,-286.76 460.85,-292.198"/>
<polygon fill="midnightblue" stroke="midnightblue" points="460.154,-295.63 470.688,-294.494 461.745,-288.813 460.154,-295.63"/>
</g>
<!-- Node121&#45;&gt;Node116 -->
<g id="edge10" class="edge"><title>Node121&#45;&gt;Node116</title>
<path fill="none" stroke="midnightblue" d="M393.176,-177.559C398.194,-180.332 402.89,-183.615 407,-187.5 440.718,-219.377 408.639,-254.316 443,-285.5 446.463,-288.643 450.286,-291.383 454.346,-293.773"/>
<polygon fill="midnightblue" stroke="midnightblue" points="453.069,-297.05 463.57,-298.463 456.242,-290.811 453.069,-297.05"/>
</g>
<!-- Node122 -->
<g id="node9" class="node"><title>Node122</title>
<g id="a_node9"><a xlink:href="class_little_weeb_library_1_1_static_classes_1_1_utility_methods.html#a6542a3a6ea0aed6b4d78bb44a4a7d9d7" target="_top" xlink:title="LittleWeebLibrary.Static\lClasses.UtilityMethods.Write\lBinaryFile">
<polygon fill="white" stroke="black" points="464.5,-87 464.5,-128 607.5,-128 607.5,-87 464.5,-87"/>
<text text-anchor="start" x="472.5" y="-116" font-family="Helvetica,sans-Serif" font-size="10.00">LittleWeebLibrary.Static</text>
<text text-anchor="start" x="472.5" y="-105" font-family="Helvetica,sans-Serif" font-size="10.00">Classes.UtilityMethods.Write</text>
<text text-anchor="middle" x="536" y="-94" font-family="Helvetica,sans-Serif" font-size="10.00">BinaryFile</text>
</a>
</g>
</g>
<!-- Node121&#45;&gt;Node122 -->
<g id="edge11" class="edge"><title>Node121&#45;&gt;Node122</title>
<path fill="none" stroke="midnightblue" d="M382.383,-147.471C404.584,-141.657 430.388,-134.898 454.392,-128.612"/>
<polygon fill="midnightblue" stroke="midnightblue" points="455.409,-131.963 464.196,-126.044 453.636,-125.192 455.409,-131.963"/>
</g>
<!-- Node123 -->
<g id="node10" class="node"><title>Node123</title>
<g id="a_node10"><a xlink:href="class_little_weeb_library_1_1_static_classes_1_1_utility_methods.html#a16933213071d531063b29979e7b55fe8" target="_top" xlink:title="LittleWeebLibrary.Static\lClasses.UtilityMethods.Zip">
<polygon fill="white" stroke="black" points="469.5,-147.5 469.5,-177.5 602.5,-177.5 602.5,-147.5 469.5,-147.5"/>
<text text-anchor="start" x="477.5" y="-165.5" font-family="Helvetica,sans-Serif" font-size="10.00">LittleWeebLibrary.Static</text>
<text text-anchor="middle" x="536" y="-154.5" font-family="Helvetica,sans-Serif" font-size="10.00">Classes.UtilityMethods.Zip</text>
</a>
</g>
</g>
<!-- Node121&#45;&gt;Node123 -->
<g id="edge12" class="edge"><title>Node121&#45;&gt;Node123</title>
<path fill="none" stroke="midnightblue" d="M400.222,-162.5C419.376,-162.5 439.971,-162.5 459.156,-162.5"/>
<polygon fill="midnightblue" stroke="midnightblue" points="459.347,-166 469.347,-162.5 459.347,-159 459.347,-166"/>
</g>
</g>
</svg>
