<?xml version="1.0" encoding="UTF-8" standalone="no"?>
<!DOCTYPE svg PUBLIC "-//W3C//DTD SVG 1.1//EN"
 "http://www.w3.org/Graphics/SVG/1.1/DTD/svg11.dtd">
<!-- Generated by graphviz version 2.38.0 (20140413.2041)
 -->
<!-- Title: LittleWeebLibrary.Handlers.DownloadHandler.OnIrcClientDownloadEvent Pages: 1 -->
<!--zoomable 315 -->
<svg id="main" version="1.1" xmlns="http://www.w3.org/2000/svg" xmlns:xlink="http://www.w3.org/1999/xlink" xml:space="preserve" onload="init(evt)">
<style type="text/css"><![CDATA[
.edge:hover path { stroke: red; }
.edge:hover polygon { stroke: red; fill: red; }
]]></style>
<script type="text/javascript"><![CDATA[
var edges = document.getElementsByTagName('g');
if (edges && edges.length) {
  for (var i=0;i<edges.length;i++) {
    if (edges[i].id.substr(0,4)=='edge') {
      edges[i].setAttribute('class','edge');
    }
  }
}
]]></script>
        <defs>
                <circle id="rim" cx="0" cy="0" r="7"/>
                <circle id="rim2" cx="0" cy="0" r="3.5"/>
                <g id="zoomPlus">
                        <use xlink:href="#rim" fill="#404040">
                                <set attributeName="fill" to="#808080" begin="zoomplus.mouseover" end="zoomplus.mouseout"/>
                        </use>
                        <path d="M-4,0h8M0,-4v8" fill="none" stroke="white" stroke-width="1.5" pointer-events="none"/>
                </g>
                <g id="zoomMin">
                        <use xlink:href="#rim" fill="#404040">
                                <set attributeName="fill" to="#808080" begin="zoomminus.mouseover" end="zoomminus.mouseout"/>
                        </use>
                        <path d="M-4,0h8" fill="none" stroke="white" stroke-width="1.5" pointer-events="none"/>
                </g>
                <g id="dirArrow">
                        <path fill="none" stroke="white" stroke-width="1.5" d="M0,-3.0v7 M-2.5,-0.5L0,-3.0L2.5,-0.5"/>
                </g>
               <g id="resetDef">
                       <use xlink:href="#rim2" fill="#404040">
                               <set attributeName="fill" to="#808080" begin="reset.mouseover" end="reset.mouseout"/>
                       </use>
               </g>
        </defs>

<script type="text/javascript">
var viewWidth = 840;
var viewHeight = 315;
var sectionId = 'dynsection-10';
</script>
<script xlink:href="svgpan.js"/>
<svg id="graph" class="graph">
<g id="viewport">
<title>LittleWeebLibrary.Handlers.DownloadHandler.OnIrcClientDownloadEvent</title>
<polygon fill="white" stroke="none" points="-4,4 -4,-311 836,-311 836,4 -4,4"/>
<!-- Node33 -->
<g id="node1" class="node"><title>Node33</title>
<polygon fill="#bfbfbf" stroke="black" points="0,-68.5 0,-98.5 209,-98.5 209,-68.5 0,-68.5"/>
<text text-anchor="start" x="8" y="-86.5" font-family="Helvetica,sans-Serif" font-size="10.00">LittleWeebLibrary.Handlers.</text>
<text text-anchor="middle" x="104.5" y="-75.5" font-family="Helvetica,sans-Serif" font-size="10.00">DownloadHandler.OnIrcClientDownloadEvent</text>
</g>
<!-- Node34 -->
<g id="node2" class="node"><title>Node34</title>
<g id="a_node2"><a xlink:href="class_little_weeb_library_1_1_handlers_1_1_file_history_handler.html#a615bf14eae35f656b211f0500abe4d29" target="_top" xlink:title="LittleWeebLibrary.Handlers.\lFileHistoryHandler.AddFileToFile\lHistory">
<polygon fill="white" stroke="black" points="254.5,-134 254.5,-175 412.5,-175 412.5,-134 254.5,-134"/>
<text text-anchor="start" x="262.5" y="-163" font-family="Helvetica,sans-Serif" font-size="10.00">LittleWeebLibrary.Handlers.</text>
<text text-anchor="start" x="262.5" y="-152" font-family="Helvetica,sans-Serif" font-size="10.00">FileHistoryHandler.AddFileToFile</text>
<text text-anchor="middle" x="333.5" y="-141" font-family="Helvetica,sans-Serif" font-size="10.00">History</text>
</a>
</g>
</g>
<!-- Node33&#45;&gt;Node34 -->
<g id="edge1" class="edge"><title>Node33&#45;&gt;Node34</title>
<path fill="none" stroke="midnightblue" d="M153.641,-98.5573C183.609,-107.931 222.799,-120.188 256.854,-130.84"/>
<polygon fill="midnightblue" stroke="midnightblue" points="256.187,-134.298 266.776,-133.943 258.276,-127.617 256.187,-134.298"/>
</g>
<!-- Node35 -->
<g id="node3" class="node"><title>Node35</title>
<g id="a_node3"><a xlink:href="class_little_weeb_library_1_1_handlers_1_1_debug_handler.html#afccb37dfd6b2114af72000c2f4fe4607" target="_top" xlink:title="LittleWeebLibrary.Handlers.\lDebugHandler.TraceMessage">
<polygon fill="white" stroke="black" points="667,-120.5 667,-150.5 811,-150.5 811,-120.5 667,-120.5"/>
<text text-anchor="start" x="675" y="-138.5" font-family="Helvetica,sans-Serif" font-size="10.00">LittleWeebLibrary.Handlers.</text>
<text text-anchor="middle" x="739" y="-127.5" font-family="Helvetica,sans-Serif" font-size="10.00">DebugHandler.TraceMessage</text>
</a>
</g>
</g>
<!-- Node33&#45;&gt;Node35 -->
<g id="edge14" class="edge"><title>Node33&#45;&gt;Node35</title>
<path fill="none" stroke="midnightblue" d="M209.477,-80.9347C311.897,-79.9284 472.534,-82.4293 610,-102.5 633.237,-105.893 658.348,-111.846 680.123,-117.77"/>
<polygon fill="midnightblue" stroke="midnightblue" points="679.303,-121.175 689.875,-120.481 681.177,-114.43 679.303,-121.175"/>
</g>
<!-- Node44 -->
<g id="node12" class="node"><title>Node44</title>
<g id="a_node12"><a xlink:href="class_little_weeb_library_1_1_event_arguments_1_1_irc_client_download_event_args.html#a08055fe777a1585dafab7fbeec58b891" target="_top" xlink:title="LittleWeebLibrary.EventArguments.\lIrcClientDownloadEventArgs.ToString">
<polygon fill="white" stroke="black" points="245,-24.5 245,-54.5 422,-54.5 422,-24.5 245,-24.5"/>
<text text-anchor="start" x="253" y="-42.5" font-family="Helvetica,sans-Serif" font-size="10.00">LittleWeebLibrary.EventArguments.</text>
<text text-anchor="middle" x="333.5" y="-31.5" font-family="Helvetica,sans-Serif" font-size="10.00">IrcClientDownloadEventArgs.ToString</text>
</a>
</g>
</g>
<!-- Node33&#45;&gt;Node44 -->
<g id="edge13" class="edge"><title>Node33&#45;&gt;Node44</title>
<path fill="none" stroke="midnightblue" d="M182.986,-68.4808C202.964,-64.6084 224.603,-60.414 245.049,-56.4508"/>
<polygon fill="midnightblue" stroke="midnightblue" points="245.827,-59.8652 254.978,-54.5262 244.495,-52.9931 245.827,-59.8652"/>
</g>
<!-- Node34&#45;&gt;Node35 -->
<g id="edge2" class="edge"><title>Node34&#45;&gt;Node35</title>
<path fill="none" stroke="midnightblue" d="M378.008,-175.047C401.193,-184.871 430.529,-195.55 458,-200.5 524.485,-212.48 544.3,-216.226 610,-200.5 645.619,-191.974 682.523,-171.818 707.5,-156.193"/>
<polygon fill="midnightblue" stroke="midnightblue" points="709.597,-159.007 716.138,-150.672 705.827,-153.109 709.597,-159.007"/>
</g>
<!-- Node36 -->
<g id="node4" class="node"><title>Node36</title>
<g id="a_node4"><a xlink:href="class_little_weeb_library_1_1_models_1_1_json_downloaded_info.html#a1ffa120527f102b7bf96a4c0a2d9e298" target="_top" xlink:title="LittleWeebLibrary.Models.\lJsonDownloadedInfo.ToString">
<polygon fill="white" stroke="black" points="462.5,-112.5 462.5,-142.5 605.5,-142.5 605.5,-112.5 462.5,-112.5"/>
<text text-anchor="start" x="470.5" y="-130.5" font-family="Helvetica,sans-Serif" font-size="10.00">LittleWeebLibrary.Models.</text>
<text text-anchor="middle" x="534" y="-119.5" font-family="Helvetica,sans-Serif" font-size="10.00">JsonDownloadedInfo.ToString</text>
</a>
</g>
</g>
<!-- Node34&#45;&gt;Node36 -->
<g id="edge3" class="edge"><title>Node34&#45;&gt;Node36</title>
<path fill="none" stroke="midnightblue" d="M412.668,-143.868C425.722,-142.092 439.287,-140.247 452.401,-138.463"/>
<polygon fill="midnightblue" stroke="midnightblue" points="452.889,-141.929 462.326,-137.113 451.945,-134.993 452.889,-141.929"/>
</g>
<!-- Node37 -->
<g id="node5" class="node"><title>Node37</title>
<g id="a_node5"><a xlink:href="class_little_weeb_library_1_1_handlers_1_1_data_base_handler.html#a7f61583807f99b7838a33d2db0f7ca68" target="_top" xlink:title="LittleWeebLibrary.Handlers.\lDataBaseHandler.GetJObject">
<polygon fill="white" stroke="black" points="462,-24.5 462,-54.5 606,-54.5 606,-24.5 462,-24.5"/>
<text text-anchor="start" x="470" y="-42.5" font-family="Helvetica,sans-Serif" font-size="10.00">LittleWeebLibrary.Handlers.</text>
<text text-anchor="middle" x="534" y="-31.5" font-family="Helvetica,sans-Serif" font-size="10.00">DataBaseHandler.GetJObject</text>
</a>
</g>
</g>
<!-- Node34&#45;&gt;Node37 -->
<g id="edge4" class="edge"><title>Node34&#45;&gt;Node37</title>
<path fill="none" stroke="midnightblue" d="M369.988,-133.94C406.277,-112.916 462.289,-80.4661 498.292,-59.6076"/>
<polygon fill="midnightblue" stroke="midnightblue" points="500.092,-62.6099 506.991,-54.5684 496.583,-56.5529 500.092,-62.6099"/>
</g>
<!-- Node40 -->
<g id="node8" class="node"><title>Node40</title>
<g id="a_node8"><a xlink:href="class_little_weeb_library_1_1_handlers_1_1_data_base_handler.html#a5e6a70ef81b049da46b6ae3a15b09cd3" target="_top" xlink:title="LittleWeebLibrary.Handlers.\lDataBaseHandler.StoreJObject">
<polygon fill="white" stroke="black" points="458,-249.5 458,-279.5 610,-279.5 610,-249.5 458,-249.5"/>
<text text-anchor="start" x="466" y="-267.5" font-family="Helvetica,sans-Serif" font-size="10.00">LittleWeebLibrary.Handlers.</text>
<text text-anchor="middle" x="534" y="-256.5" font-family="Helvetica,sans-Serif" font-size="10.00">DataBaseHandler.StoreJObject</text>
</a>
</g>
</g>
<!-- Node34&#45;&gt;Node40 -->
<g id="edge8" class="edge"><title>Node34&#45;&gt;Node40</title>
<path fill="none" stroke="midnightblue" d="M362.983,-175.229C387.418,-192.446 423.969,-216.885 458,-234.5 465.519,-238.392 473.663,-242.117 481.719,-245.537"/>
<polygon fill="midnightblue" stroke="midnightblue" points="480.514,-248.826 491.093,-249.404 483.183,-242.355 480.514,-248.826"/>
</g>
<!-- Node43 -->
<g id="node11" class="node"><title>Node43</title>
<g id="a_node11"><a xlink:href="class_little_weeb_library_1_1_models_1_1_json_downloaded_list.html#a97de2493e2a60e3d98bd480c311a08b9" target="_top" xlink:title="LittleWeebLibrary.Models.\lJsonDownloadedList.ToJObject">
<polygon fill="white" stroke="black" points="458,-161.5 458,-191.5 610,-191.5 610,-161.5 458,-161.5"/>
<text text-anchor="start" x="466" y="-179.5" font-family="Helvetica,sans-Serif" font-size="10.00">LittleWeebLibrary.Models.</text>
<text text-anchor="middle" x="534" y="-168.5" font-family="Helvetica,sans-Serif" font-size="10.00">JsonDownloadedList.ToJObject</text>
</a>
</g>
</g>
<!-- Node34&#45;&gt;Node43 -->
<g id="edge12" class="edge"><title>Node34&#45;&gt;Node43</title>
<path fill="none" stroke="midnightblue" d="M412.668,-163.163C424.163,-164.438 436.055,-165.755 447.686,-167.045"/>
<polygon fill="midnightblue" stroke="midnightblue" points="447.499,-170.545 457.824,-168.168 448.27,-163.588 447.499,-170.545"/>
</g>
<!-- Node37&#45;&gt;Node35 -->
<g id="edge6" class="edge"><title>Node37&#45;&gt;Node35</title>
<path fill="none" stroke="midnightblue" d="M575.033,-54.6112C586.435,-59.1577 598.798,-64.321 610,-69.5 626.422,-77.0922 629.944,-80.1623 646,-88.5 663.298,-97.4827 682.488,-107.308 698.847,-115.643"/>
<polygon fill="midnightblue" stroke="midnightblue" points="697.617,-118.944 708.116,-120.36 700.792,-112.705 697.617,-118.944"/>
</g>
<!-- Node38 -->
<g id="node6" class="node"><title>Node38</title>
<g id="a_node6"><a xlink:href="class_little_weeb_library_1_1_static_classes_1_1_utility_methods.html#a7b5de7a3ecc749b655fc3ed2af55360b" target="_top" xlink:title="LittleWeebLibrary.Static\lClasses.UtilityMethods.ReadBinaryFile">
<polygon fill="white" stroke="black" points="646,-49.5 646,-79.5 832,-79.5 832,-49.5 646,-49.5"/>
<text text-anchor="start" x="654" y="-67.5" font-family="Helvetica,sans-Serif" font-size="10.00">LittleWeebLibrary.Static</text>
<text text-anchor="middle" x="739" y="-56.5" font-family="Helvetica,sans-Serif" font-size="10.00">Classes.UtilityMethods.ReadBinaryFile</text>
</a>
</g>
</g>
<!-- Node37&#45;&gt;Node38 -->
<g id="edge5" class="edge"><title>Node37&#45;&gt;Node38</title>
<path fill="none" stroke="midnightblue" d="M606.285,-48.2789C615.881,-49.4607 625.874,-50.6914 635.875,-51.923"/>
<polygon fill="midnightblue" stroke="midnightblue" points="635.512,-55.4046 645.864,-53.1532 636.367,-48.4571 635.512,-55.4046"/>
</g>
<!-- Node39 -->
<g id="node7" class="node"><title>Node39</title>
<g id="a_node7"><a xlink:href="class_little_weeb_library_1_1_static_classes_1_1_utility_methods.html#a0a86ee01a3bf201bd9cc9b2552e54976" target="_top" xlink:title="LittleWeebLibrary.Static\lClasses.UtilityMethods.Unzip">
<polygon fill="white" stroke="black" points="666.5,-0.5 666.5,-30.5 811.5,-30.5 811.5,-0.5 666.5,-0.5"/>
<text text-anchor="start" x="674.5" y="-18.5" font-family="Helvetica,sans-Serif" font-size="10.00">LittleWeebLibrary.Static</text>
<text text-anchor="middle" x="739" y="-7.5" font-family="Helvetica,sans-Serif" font-size="10.00">Classes.UtilityMethods.Unzip</text>
</a>
</g>
</g>
<!-- Node37&#45;&gt;Node39 -->
<g id="edge7" class="edge"><title>Node37&#45;&gt;Node39</title>
<path fill="none" stroke="midnightblue" d="M606.285,-31.0722C622.368,-29.1708 639.565,-27.1376 656.047,-25.189"/>
<polygon fill="midnightblue" stroke="midnightblue" points="656.681,-28.6385 666.201,-23.9885 655.859,-21.6869 656.681,-28.6385"/>
</g>
<!-- Node40&#45;&gt;Node35 -->
<g id="edge9" class="edge"><title>Node40&#45;&gt;Node35</title>
<path fill="none" stroke="midnightblue" d="M578.806,-249.373C589.295,-245.105 600.268,-240.082 610,-234.5 627.583,-224.415 629.977,-218.914 646,-206.5 667.576,-189.784 692.04,-170.908 710.314,-156.823"/>
<polygon fill="midnightblue" stroke="midnightblue" points="712.458,-159.59 718.242,-150.713 708.185,-154.045 712.458,-159.59"/>
</g>
<!-- Node41 -->
<g id="node9" class="node"><title>Node41</title>
<g id="a_node9"><a xlink:href="class_little_weeb_library_1_1_static_classes_1_1_utility_methods.html#a6542a3a6ea0aed6b4d78bb44a4a7d9d7" target="_top" xlink:title="LittleWeebLibrary.Static\lClasses.UtilityMethods.Write\lBinaryFile">
<polygon fill="white" stroke="black" points="667.5,-216 667.5,-257 810.5,-257 810.5,-216 667.5,-216"/>
<text text-anchor="start" x="675.5" y="-245" font-family="Helvetica,sans-Serif" font-size="10.00">LittleWeebLibrary.Static</text>
<text text-anchor="start" x="675.5" y="-234" font-family="Helvetica,sans-Serif" font-size="10.00">Classes.UtilityMethods.Write</text>
<text text-anchor="middle" x="739" y="-223" font-family="Helvetica,sans-Serif" font-size="10.00">BinaryFile</text>
</a>
</g>
</g>
<!-- Node40&#45;&gt;Node41 -->
<g id="edge10" class="edge"><title>Node40&#45;&gt;Node41</title>
<path fill="none" stroke="midnightblue" d="M610.013,-254.153C625.393,-252.032 641.645,-249.79 657.217,-247.642"/>
<polygon fill="midnightblue" stroke="midnightblue" points="657.909,-251.08 667.337,-246.247 656.952,-244.146 657.909,-251.08"/>
</g>
<!-- Node42 -->
<g id="node10" class="node"><title>Node42</title>
<g id="a_node10"><a xlink:href="class_little_weeb_library_1_1_static_classes_1_1_utility_methods.html#a16933213071d531063b29979e7b55fe8" target="_top" xlink:title="LittleWeebLibrary.Static\lClasses.UtilityMethods.Zip">
<polygon fill="white" stroke="black" points="672.5,-276.5 672.5,-306.5 805.5,-306.5 805.5,-276.5 672.5,-276.5"/>
<text text-anchor="start" x="680.5" y="-294.5" font-family="Helvetica,sans-Serif" font-size="10.00">LittleWeebLibrary.Static</text>
<text text-anchor="middle" x="739" y="-283.5" font-family="Helvetica,sans-Serif" font-size="10.00">Classes.UtilityMethods.Zip</text>
</a>
</g>
</g>
<!-- Node40&#45;&gt;Node42 -->
<g id="edge11" class="edge"><title>Node40&#45;&gt;Node42</title>
<path fill="none" stroke="midnightblue" d="M610.013,-274.477C627.102,-276.75 645.268,-279.166 662.382,-281.442"/>
<polygon fill="midnightblue" stroke="midnightblue" points="661.946,-284.915 672.321,-282.764 662.869,-277.976 661.946,-284.915"/>
</g>
</g>
</svg>
        <g id="navigator" transform="translate(0 0)" fill="#404254">
                <rect fill="#f2f5e9" fill-opacity="0.5" stroke="#606060" stroke-width=".5" x="0" y="0" width="60" height="60"/>
                <use id="zoomplus" xlink:href="#zoomPlus" x="17" y="9" onmousedown="handleZoom(evt,'in')"/>
                <use id="zoomminus" xlink:href="#zoomMin" x="42" y="9" onmousedown="handleZoom(evt,'out')"/>
                <use id="reset" xlink:href="#resetDef" x="30" y="36" onmousedown="handleReset()"/>
                <g id="arrowUp" xlink:href="#dirArrow" transform="translate(30 24)" onmousedown="handlePan(0,-1)">
                  <use xlink:href="#rim" fill="#404040">
                        <set attributeName="fill" to="#808080" begin="arrowUp.mouseover" end="arrowUp.mouseout"/>
                  </use>
                  <path fill="none" stroke="white" stroke-width="1.5" d="M0,-3.0v7 M-2.5,-0.5L0,-3.0L2.5,-0.5"/>
                </g>
                <g id="arrowRight" xlink:href="#dirArrow" transform="rotate(90) translate(36 -43)" onmousedown="handlePan(1,0)">
                  <use xlink:href="#rim" fill="#404040">
                        <set attributeName="fill" to="#808080" begin="arrowRight.mouseover" end="arrowRight.mouseout"/>
                  </use>
                  <path fill="none" stroke="white" stroke-width="1.5" d="M0,-3.0v7 M-2.5,-0.5L0,-3.0L2.5,-0.5"/>
                </g>
                <g id="arrowDown" xlink:href="#dirArrow" transform="rotate(180) translate(-30 -48)" onmousedown="handlePan(0,1)">
                  <use xlink:href="#rim" fill="#404040">
                        <set attributeName="fill" to="#808080" begin="arrowDown.mouseover" end="arrowDown.mouseout"/>
                  </use>
                  <path fill="none" stroke="white" stroke-width="1.5" d="M0,-3.0v7 M-2.5,-0.5L0,-3.0L2.5,-0.5"/>
                </g>
                <g id="arrowLeft" xlink:href="#dirArrow" transform="rotate(270) translate(-36 17)" onmousedown="handlePan(-1,0)">
                  <use xlink:href="#rim" fill="#404040">
                        <set attributeName="fill" to="#808080" begin="arrowLeft.mouseover" end="arrowLeft.mouseout"/>
                  </use>
                  <path fill="none" stroke="white" stroke-width="1.5" d="M0,-3.0v7 M-2.5,-0.5L0,-3.0L2.5,-0.5"/>
                </g>
        </g>
        <svg viewBox="0 0 15 15" width="100%" height="30px" preserveAspectRatio="xMaxYMin meet">
         <g id="arrow_out" transform="scale(0.3 0.3)">
          <a xlink:href="class_little_weeb_library_1_1_handlers_1_1_download_handler_a8e40df55d254c0b95bb0a72becde5039_cgraph_org.svg" target="_base">
           <rect id="button" ry="5" rx="5" y="6" x="6" height="38" width="38"
                fill="#f2f5e9" fill-opacity="0.5" stroke="#606060" stroke-width="1.0"/>
           <path id="arrow"
             d="M 11.500037,31.436501 C 11.940474,20.09759 22.043105,11.32322 32.158766,21.979434 L 37.068811,17.246167 C 37.068811,17.246167 37.088388,32 37.088388,32 L 22.160133,31.978069 C 22.160133,31.978069 26.997745,27.140456 26.997745,27.140456 C 18.528582,18.264221 13.291696,25.230495 11.500037,31.436501 z"
             style="fill:#404040;"/>
          </a>
         </g>
        </svg>
</svg>
