<?xml version="1.0" encoding="UTF-8" standalone="no"?>
<!DOCTYPE svg PUBLIC "-//W3C//DTD SVG 1.1//EN"
 "http://www.w3.org/Graphics/SVG/1.1/DTD/svg11.dtd">
<!-- Generated by graphviz version 2.38.0 (20140413.2041)
 -->
<!-- Title: LittleWeebLibrary.Controllers.SubControllers.InfoApiWebSocketController Pages: 1 -->
<svg width="600pt" height="303pt"
 viewBox="0.00 0.00 599.50 303.00" xmlns="http://www.w3.org/2000/svg" xmlns:xlink="http://www.w3.org/1999/xlink">
<g id="graph0" class="graph" transform="scale(1 1) rotate(0) translate(4 299)">
<title>LittleWeebLibrary.Controllers.SubControllers.InfoApiWebSocketController</title>
<polygon fill="white" stroke="none" points="-4,4 -4,-299 595.5,-299 595.5,4 -4,4"/>
<!-- Node2 -->
<g id="node1" class="node"><title>Node2</title>
<polygon fill="#bfbfbf" stroke="black" points="189.5,-0.5 189.5,-79.5 394.5,-79.5 394.5,-0.5 189.5,-0.5"/>
<text text-anchor="start" x="197.5" y="-67.5" font-family="Helvetica,sans-Serif" font-size="10.00">LittleWeebLibrary.Controllers.</text>
<text text-anchor="middle" x="292" y="-56.5" font-family="Helvetica,sans-Serif" font-size="10.00">SubControllers.InfoApiWebSocketController</text>
<polyline fill="none" stroke="black" points="189.5,-49.5 394.5,-49.5 "/>
<text text-anchor="middle" x="292" y="-37.5" font-family="Helvetica,sans-Serif" font-size="10.00"> </text>
<polyline fill="none" stroke="black" points="189.5,-30.5 394.5,-30.5 "/>
<text text-anchor="start" x="197.5" y="-18.5" font-family="Helvetica,sans-Serif" font-size="10.00">+ InfoApiWebSocketController()</text>
<text text-anchor="start" x="197.5" y="-7.5" font-family="Helvetica,sans-Serif" font-size="10.00">+ OnWebSocketEvent()</text>
</g>
<!-- Node3 -->
<g id="node2" class="node"><title>Node3</title>
<g id="a_node2"><a xlink:href="interface_little_weeb_library_1_1_controllers_1_1_i_sub_web_socket_controller.html" target="_top" xlink:title="{ISubWebSocketController\n||+ OnWebSocketEvent()\l}">
<polygon fill="white" stroke="black" points="0,-182.5 0,-239.5 128,-239.5 128,-182.5 0,-182.5"/>
<text text-anchor="middle" x="64" y="-227.5" font-family="Helvetica,sans-Serif" font-size="10.00">ISubWebSocketController</text>
<polyline fill="none" stroke="black" points="0,-220.5 128,-220.5 "/>
<text text-anchor="middle" x="64" y="-208.5" font-family="Helvetica,sans-Serif" font-size="10.00"> </text>
<polyline fill="none" stroke="black" points="0,-201.5 128,-201.5 "/>
<text text-anchor="start" x="8" y="-189.5" font-family="Helvetica,sans-Serif" font-size="10.00">+ OnWebSocketEvent()</text>
</a>
</g>
</g>
<!-- Node3&#45;&gt;Node2 -->
<g id="edge1" class="edge"><title>Node3&#45;&gt;Node2</title>
<path fill="none" stroke="midnightblue" d="M90.7002,-174.429C103.59,-158.716 119.945,-140.735 137,-127 159.171,-109.145 185.556,-92.9655 210.216,-79.5812"/>
<polygon fill="none" stroke="midnightblue" points="87.8265,-172.418 84.2899,-182.405 93.2827,-176.803 87.8265,-172.418"/>
</g>
<!-- Node4 -->
<g id="node3" class="node"><title>Node4</title>
<g id="a_node3"><a xlink:href="interface_little_weeb_library_1_1_handlers_1_1_i_debug_handler.html" target="_top" xlink:title="{LittleWeebLibrary.Handlers.\lIDebugHandler\n||+ SetSettings()\l+ StopDebugger()\l+ TraceMessage()\l}">
<polygon fill="white" stroke="black" points="146.5,-166 146.5,-256 283.5,-256 283.5,-166 146.5,-166"/>
<text text-anchor="start" x="154.5" y="-244" font-family="Helvetica,sans-Serif" font-size="10.00">LittleWeebLibrary.Handlers.</text>
<text text-anchor="middle" x="215" y="-233" font-family="Helvetica,sans-Serif" font-size="10.00">IDebugHandler</text>
<polyline fill="none" stroke="black" points="146.5,-226 283.5,-226 "/>
<text text-anchor="middle" x="215" y="-214" font-family="Helvetica,sans-Serif" font-size="10.00"> </text>
<polyline fill="none" stroke="black" points="146.5,-207 283.5,-207 "/>
<text text-anchor="start" x="154.5" y="-195" font-family="Helvetica,sans-Serif" font-size="10.00">+ SetSettings()</text>
<text text-anchor="start" x="154.5" y="-184" font-family="Helvetica,sans-Serif" font-size="10.00">+ StopDebugger()</text>
<text text-anchor="start" x="154.5" y="-173" font-family="Helvetica,sans-Serif" font-size="10.00">+ TraceMessage()</text>
</a>
</g>
</g>
<!-- Node4&#45;&gt;Node2 -->
<g id="edge2" class="edge"><title>Node4&#45;&gt;Node2</title>
<path fill="none" stroke="#404040" d="M235.231,-165.597C245.685,-142.653 258.478,-114.575 269.271,-90.8849"/>
<polygon fill="none" stroke="#404040" points="269.415,-90.5695 268.263,-83.451 274.39,-79.6495 275.543,-86.768 269.415,-90.5695"/>
<text text-anchor="middle" x="298.5" y="-101" font-family="Helvetica,sans-Serif" font-size="10.00"> &#45;DebugHandler</text>
</g>
<!-- Node5 -->
<g id="node4" class="node"><title>Node5</title>
<g id="a_node4"><a xlink:href="interface_little_weeb_library_1_1_handlers_1_1_i_web_socket_handler.html" target="_top" xlink:title="{LittleWeebLibrary.Handlers.\lIWebSocketHandler\n||+ SendMessage()\l+ StartServer()\l+ StopServer()\l}">
<polygon fill="white" stroke="black" points="301.5,-166 301.5,-256 438.5,-256 438.5,-166 301.5,-166"/>
<text text-anchor="start" x="309.5" y="-244" font-family="Helvetica,sans-Serif" font-size="10.00">LittleWeebLibrary.Handlers.</text>
<text text-anchor="middle" x="370" y="-233" font-family="Helvetica,sans-Serif" font-size="10.00">IWebSocketHandler</text>
<polyline fill="none" stroke="black" points="301.5,-226 438.5,-226 "/>
<text text-anchor="middle" x="370" y="-214" font-family="Helvetica,sans-Serif" font-size="10.00"> </text>
<polyline fill="none" stroke="black" points="301.5,-207 438.5,-207 "/>
<text text-anchor="start" x="309.5" y="-195" font-family="Helvetica,sans-Serif" font-size="10.00">+ SendMessage()</text>
<text text-anchor="start" x="309.5" y="-184" font-family="Helvetica,sans-Serif" font-size="10.00">+ StartServer()</text>
<text text-anchor="start" x="309.5" y="-173" font-family="Helvetica,sans-Serif" font-size="10.00">+ StopServer()</text>
</a>
</g>
</g>
<!-- Node5&#45;&gt;Node2 -->
<g id="edge3" class="edge"><title>Node5&#45;&gt;Node2</title>
<path fill="none" stroke="#404040" d="M360.521,-165.76C355.003,-144.557 346.942,-119.222 336,-98 334.596,-95.2778 333.058,-92.5545 331.425,-89.8554"/>
<polygon fill="none" stroke="#404040" points="331.298,-89.6609 324.666,-86.8282 324.73,-79.6174 331.362,-82.45 331.298,-89.6609"/>
<text text-anchor="middle" x="386.5" y="-101" font-family="Helvetica,sans-Serif" font-size="10.00"> &#45;WebSocketHandler</text>
</g>
<!-- Node6 -->
<g id="node5" class="node"><title>Node6</title>
<g id="a_node5"><a xlink:href="interface_little_weeb_library_1_1_services_1_1_i_info_api_web_socket_service.html" target="_top" xlink:title="{LittleWeebLibrary.Services.\lIInfoApiWebSocketService\n||+ AddRule()\l+ GetAllCategories()\l+ GetAllGenres()\l+ GetAnimeEpisodes()\l+ GetAnimeProfile()\l+ GetBotList()\l+ GetCurrentlyAiring()\l+ GetCurrentlyAiring()\l+ GetFilesForAnime()\l+ SearchKitsu()\l}">
<polygon fill="white" stroke="black" points="456.5,-127.5 456.5,-294.5 591.5,-294.5 591.5,-127.5 456.5,-127.5"/>
<text text-anchor="start" x="464.5" y="-282.5" font-family="Helvetica,sans-Serif" font-size="10.00">LittleWeebLibrary.Services.</text>
<text text-anchor="middle" x="524" y="-271.5" font-family="Helvetica,sans-Serif" font-size="10.00">IInfoApiWebSocketService</text>
<polyline fill="none" stroke="black" points="456.5,-264.5 591.5,-264.5 "/>
<text text-anchor="middle" x="524" y="-252.5" font-family="Helvetica,sans-Serif" font-size="10.00"> </text>
<polyline fill="none" stroke="black" points="456.5,-245.5 591.5,-245.5 "/>
<text text-anchor="start" x="464.5" y="-233.5" font-family="Helvetica,sans-Serif" font-size="10.00">+ AddRule()</text>
<text text-anchor="start" x="464.5" y="-222.5" font-family="Helvetica,sans-Serif" font-size="10.00">+ GetAllCategories()</text>
<text text-anchor="start" x="464.5" y="-211.5" font-family="Helvetica,sans-Serif" font-size="10.00">+ GetAllGenres()</text>
<text text-anchor="start" x="464.5" y="-200.5" font-family="Helvetica,sans-Serif" font-size="10.00">+ GetAnimeEpisodes()</text>
<text text-anchor="start" x="464.5" y="-189.5" font-family="Helvetica,sans-Serif" font-size="10.00">+ GetAnimeProfile()</text>
<text text-anchor="start" x="464.5" y="-178.5" font-family="Helvetica,sans-Serif" font-size="10.00">+ GetBotList()</text>
<text text-anchor="start" x="464.5" y="-167.5" font-family="Helvetica,sans-Serif" font-size="10.00">+ GetCurrentlyAiring()</text>
<text text-anchor="start" x="464.5" y="-156.5" font-family="Helvetica,sans-Serif" font-size="10.00">+ GetCurrentlyAiring()</text>
<text text-anchor="start" x="464.5" y="-145.5" font-family="Helvetica,sans-Serif" font-size="10.00">+ GetFilesForAnime()</text>
<text text-anchor="start" x="464.5" y="-134.5" font-family="Helvetica,sans-Serif" font-size="10.00">+ SearchKitsu()</text>
</a>
</g>
</g>
<!-- Node6&#45;&gt;Node2 -->
<g id="edge4" class="edge"><title>Node6&#45;&gt;Node2</title>
<path fill="none" stroke="#404040" d="M467.627,-127.462C457.928,-116.654 447.298,-106.427 436,-98 426.625,-91.0071 416.278,-84.7449 405.56,-79.1669"/>
<polygon fill="none" stroke="#404040" points="405.497,-79.1359 398.346,-80.061 394.741,-73.8154 401.893,-72.8903 405.497,-79.1359"/>
<text text-anchor="middle" x="507" y="-101" font-family="Helvetica,sans-Serif" font-size="10.00"> &#45;InfoApiWebSocketService</text>
</g>
</g>
</svg>
