<?xml version="1.0" encoding="UTF-8" standalone="no"?>
<!DOCTYPE svg PUBLIC "-//W3C//DTD SVG 1.1//EN"
 "http://www.w3.org/Graphics/SVG/1.1/DTD/svg11.dtd">
<!-- Generated by graphviz version 2.38.0 (20140413.2041)
 -->
<!-- Title: LittleWeebLibrary.Handlers.FileHistoryHandler.GetCurrentFileHistory Pages: 1 -->
<svg width="582pt" height="137pt"
 viewBox="0.00 0.00 582.00 137.00" xmlns="http://www.w3.org/2000/svg" xmlns:xlink="http://www.w3.org/1999/xlink">
<g id="graph0" class="graph" transform="scale(1 1) rotate(0) translate(4 133)">
<title>LittleWeebLibrary.Handlers.FileHistoryHandler.GetCurrentFileHistory</title>
<polygon fill="white" stroke="none" points="-4,4 -4,-133 578,-133 578,4 -4,4"/>
<!-- Node25 -->
<g id="node1" class="node"><title>Node25</title>
<polygon fill="#bfbfbf" stroke="black" points="0,-19 0,-60 162,-60 162,-19 0,-19"/>
<text text-anchor="start" x="8" y="-48" font-family="Helvetica,sans-Serif" font-size="10.00">LittleWeebLibrary.Handlers.</text>
<text text-anchor="start" x="8" y="-37" font-family="Helvetica,sans-Serif" font-size="10.00">FileHistoryHandler.GetCurrentFile</text>
<text text-anchor="middle" x="81" y="-26" font-family="Helvetica,sans-Serif" font-size="10.00">History</text>
</g>
<!-- Node26 -->
<g id="node2" class="node"><title>Node26</title>
<g id="a_node2"><a xlink:href="class_little_weeb_library_1_1_handlers_1_1_data_base_handler.html#ae04312874502a18b241c1123ef963b90" target="_top" xlink:title="LittleWeebLibrary.Handlers.\lDataBaseHandler.GetCollection">
<polygon fill="white" stroke="black" points="198,-47.5 198,-77.5 352,-77.5 352,-47.5 198,-47.5"/>
<text text-anchor="start" x="206" y="-65.5" font-family="Helvetica,sans-Serif" font-size="10.00">LittleWeebLibrary.Handlers.</text>
<text text-anchor="middle" x="275" y="-54.5" font-family="Helvetica,sans-Serif" font-size="10.00">DataBaseHandler.GetCollection</text>
</a>
</g>
</g>
<!-- Node25&#45;&gt;Node26 -->
<g id="edge1" class="edge"><title>Node25&#45;&gt;Node26</title>
<path fill="none" stroke="midnightblue" d="M162.035,-49.0875C170.54,-50.1063 179.217,-51.1458 187.789,-52.1726"/>
<polygon fill="midnightblue" stroke="midnightblue" points="187.441,-55.6559 197.786,-53.3702 188.274,-48.7056 187.441,-55.6559"/>
</g>
<!-- Node28 -->
<g id="node4" class="node"><title>Node28</title>
<g id="a_node4"><a xlink:href="class_little_weeb_library_1_1_handlers_1_1_debug_handler.html#afccb37dfd6b2114af72000c2f4fe4607" target="_top" xlink:title="LittleWeebLibrary.Handlers.\lDebugHandler.TraceMessage">
<polygon fill="white" stroke="black" points="409,-0.5 409,-30.5 553,-30.5 553,-0.5 409,-0.5"/>
<text text-anchor="start" x="417" y="-18.5" font-family="Helvetica,sans-Serif" font-size="10.00">LittleWeebLibrary.Handlers.</text>
<text text-anchor="middle" x="481" y="-7.5" font-family="Helvetica,sans-Serif" font-size="10.00">DebugHandler.TraceMessage</text>
</a>
</g>
</g>
<!-- Node25&#45;&gt;Node28 -->
<g id="edge5" class="edge"><title>Node25&#45;&gt;Node28</title>
<path fill="none" stroke="midnightblue" d="M162.062,-34.6721C230.723,-30.5318 329.221,-24.5922 398.339,-20.4243"/>
<polygon fill="midnightblue" stroke="midnightblue" points="398.972,-23.8926 408.743,-19.7969 398.551,-16.9052 398.972,-23.8926"/>
</g>
<!-- Node27 -->
<g id="node3" class="node"><title>Node27</title>
<g id="a_node3"><a xlink:href="class_little_weeb_library_1_1_static_classes_1_1_utility_methods.html#a7b5de7a3ecc749b655fc3ed2af55360b" target="_top" xlink:title="LittleWeebLibrary.Static\lClasses.UtilityMethods.ReadBinaryFile">
<polygon fill="white" stroke="black" points="388,-98.5 388,-128.5 574,-128.5 574,-98.5 388,-98.5"/>
<text text-anchor="start" x="396" y="-116.5" font-family="Helvetica,sans-Serif" font-size="10.00">LittleWeebLibrary.Static</text>
<text text-anchor="middle" x="481" y="-105.5" font-family="Helvetica,sans-Serif" font-size="10.00">Classes.UtilityMethods.ReadBinaryFile</text>
</a>
</g>
</g>
<!-- Node26&#45;&gt;Node27 -->
<g id="edge2" class="edge"><title>Node26&#45;&gt;Node27</title>
<path fill="none" stroke="midnightblue" d="M336.103,-77.5258C359.345,-83.3363 386.1,-90.0249 410.186,-96.0466"/>
<polygon fill="midnightblue" stroke="midnightblue" points="409.424,-99.4636 419.974,-98.4935 411.121,-92.6726 409.424,-99.4636"/>
</g>
<!-- Node26&#45;&gt;Node28 -->
<g id="edge3" class="edge"><title>Node26&#45;&gt;Node28</title>
<path fill="none" stroke="midnightblue" d="M341.108,-47.4997C361.442,-42.8149 384.036,-37.6093 404.993,-32.781"/>
<polygon fill="midnightblue" stroke="midnightblue" points="405.852,-36.1749 414.811,-30.519 404.281,-29.3535 405.852,-36.1749"/>
</g>
<!-- Node29 -->
<g id="node5" class="node"><title>Node29</title>
<g id="a_node5"><a xlink:href="class_little_weeb_library_1_1_static_classes_1_1_utility_methods.html#a0a86ee01a3bf201bd9cc9b2552e54976" target="_top" xlink:title="LittleWeebLibrary.Static\lClasses.UtilityMethods.Unzip">
<polygon fill="white" stroke="black" points="408.5,-49.5 408.5,-79.5 553.5,-79.5 553.5,-49.5 408.5,-49.5"/>
<text text-anchor="start" x="416.5" y="-67.5" font-family="Helvetica,sans-Serif" font-size="10.00">LittleWeebLibrary.Static</text>
<text text-anchor="middle" x="481" y="-56.5" font-family="Helvetica,sans-Serif" font-size="10.00">Classes.UtilityMethods.Unzip</text>
</a>
</g>
</g>
<!-- Node26&#45;&gt;Node29 -->
<g id="edge4" class="edge"><title>Node26&#45;&gt;Node29</title>
<path fill="none" stroke="midnightblue" d="M352.252,-63.2476C367.148,-63.3936 382.828,-63.5473 397.905,-63.6951"/>
<polygon fill="midnightblue" stroke="midnightblue" points="398.195,-67.1981 408.229,-63.7964 398.263,-60.1984 398.195,-67.1981"/>
</g>
</g>
</svg>
