<?xml version="1.0" encoding="UTF-8" standalone="no"?>
<!DOCTYPE svg PUBLIC "-//W3C//DTD SVG 1.1//EN"
 "http://www.w3.org/Graphics/SVG/1.1/DTD/svg11.dtd">
<!-- Generated by graphviz version 2.38.0 (20140413.2041)
 -->
<!-- Title: LittleWeebLibrary.Models.JsonSuccess.ToJObject Pages: 1 -->
<svg width="802pt" height="100pt"
 viewBox="0.00 0.00 802.00 99.50" xmlns="http://www.w3.org/2000/svg" xmlns:xlink="http://www.w3.org/1999/xlink">
<g id="graph0" class="graph" transform="scale(1 1) rotate(0) translate(4 95.5)">
<title>LittleWeebLibrary.Models.JsonSuccess.ToJObject</title>
<polygon fill="white" stroke="none" points="-4,4 -4,-95.5 798,-95.5 798,4 -4,4"/>
<!-- Node25 -->
<g id="node1" class="node"><title>Node25</title>
<polygon fill="#bfbfbf" stroke="black" points="0,-28.5 0,-58.5 130,-58.5 130,-28.5 0,-28.5"/>
<text text-anchor="start" x="8" y="-46.5" font-family="Helvetica,sans-Serif" font-size="10.00">LittleWeebLibrary.Models.</text>
<text text-anchor="middle" x="65" y="-35.5" font-family="Helvetica,sans-Serif" font-size="10.00">JsonSuccess.ToJObject</text>
</g>
<!-- Node26 -->
<g id="node2" class="node"><title>Node26</title>
<g id="a_node2"><a xlink:href="class_little_weeb_library_1_1_handlers_1_1_download_handler.html#a5a28664c89bf43b921fc9d3f1845b5a1" target="_top" xlink:title="LittleWeebLibrary.Handlers.\lDownloadHandler.AbortDownload">
<polygon fill="white" stroke="black" points="166,-53.5 166,-83.5 326,-83.5 326,-53.5 166,-53.5"/>
<text text-anchor="start" x="174" y="-71.5" font-family="Helvetica,sans-Serif" font-size="10.00">LittleWeebLibrary.Handlers.</text>
<text text-anchor="middle" x="246" y="-60.5" font-family="Helvetica,sans-Serif" font-size="10.00">DownloadHandler.AbortDownload</text>
</a>
</g>
</g>
<!-- Node25&#45;&gt;Node26 -->
<g id="edge1" class="edge"><title>Node25&#45;&gt;Node26</title>
<path fill="none" stroke="midnightblue" d="M140.255,-53.8708C148.658,-55.0444 157.245,-56.2437 165.709,-57.4259"/>
<polygon fill="midnightblue" stroke="midnightblue" points="140.506,-50.3719 130.118,-52.455 139.537,-57.3046 140.506,-50.3719"/>
</g>
<!-- Node29 -->
<g id="node5" class="node"><title>Node29</title>
<g id="a_node5"><a xlink:href="class_little_weeb_library_1_1_handlers_1_1_download_handler.html#a8fd807f023ed25e031844da3927e1a23" target="_top" xlink:title="LittleWeebLibrary.Handlers.\lDownloadHandler.StopQueue">
<polygon fill="white" stroke="black" points="174.5,-4.5 174.5,-34.5 317.5,-34.5 317.5,-4.5 174.5,-4.5"/>
<text text-anchor="start" x="182.5" y="-22.5" font-family="Helvetica,sans-Serif" font-size="10.00">LittleWeebLibrary.Handlers.</text>
<text text-anchor="middle" x="246" y="-11.5" font-family="Helvetica,sans-Serif" font-size="10.00">DownloadHandler.StopQueue</text>
</a>
</g>
</g>
<!-- Node25&#45;&gt;Node29 -->
<g id="edge4" class="edge"><title>Node25&#45;&gt;Node29</title>
<path fill="none" stroke="midnightblue" d="M140.339,-33.5327C151.593,-32.0238 163.177,-30.4707 174.35,-28.9726"/>
<polygon fill="midnightblue" stroke="midnightblue" points="139.564,-30.1053 130.118,-34.9032 140.494,-37.0432 139.564,-30.1053"/>
</g>
<!-- Node27 -->
<g id="node3" class="node"><title>Node27</title>
<g id="a_node3"><a xlink:href="class_little_weeb_library_1_1_services_1_1_download_web_socket_service.html#a0ab2f2e6fcb90cd42dfa0de9d6a58f7e" target="_top" xlink:title="LittleWeebLibrary.Services.\lDownloadWebSocketService.AbortDownload">
<polygon fill="white" stroke="black" points="362,-54.5 362,-84.5 571,-84.5 571,-54.5 362,-54.5"/>
<text text-anchor="start" x="370" y="-72.5" font-family="Helvetica,sans-Serif" font-size="10.00">LittleWeebLibrary.Services.</text>
<text text-anchor="middle" x="466.5" y="-61.5" font-family="Helvetica,sans-Serif" font-size="10.00">DownloadWebSocketService.AbortDownload</text>
</a>
</g>
</g>
<!-- Node26&#45;&gt;Node27 -->
<g id="edge2" class="edge"><title>Node26&#45;&gt;Node27</title>
<path fill="none" stroke="midnightblue" d="M336.363,-68.909C344.778,-68.9475 353.357,-68.9868 361.89,-69.0258"/>
<polygon fill="midnightblue" stroke="midnightblue" points="336.208,-65.4083 326.192,-68.8624 336.176,-72.4083 336.208,-65.4083"/>
</g>
<!-- Node28 -->
<g id="node4" class="node"><title>Node28</title>
<g id="a_node4"><a xlink:href="class_little_weeb_library_1_1_controllers_1_1_download_web_socket_controller.html#a9e5e421ed57b8b2a294e17d93d027c53" target="_top" xlink:title="LittleWeebLibrary.Controllers.\lDownloadWebSocketController.OnWeb\lSocketEvent">
<polygon fill="white" stroke="black" points="607,-50 607,-91 794,-91 794,-50 607,-50"/>
<text text-anchor="start" x="615" y="-79" font-family="Helvetica,sans-Serif" font-size="10.00">LittleWeebLibrary.Controllers.</text>
<text text-anchor="start" x="615" y="-68" font-family="Helvetica,sans-Serif" font-size="10.00">DownloadWebSocketController.OnWeb</text>
<text text-anchor="middle" x="700.5" y="-57" font-family="Helvetica,sans-Serif" font-size="10.00">SocketEvent</text>
</a>
</g>
</g>
<!-- Node27&#45;&gt;Node28 -->
<g id="edge3" class="edge"><title>Node27&#45;&gt;Node28</title>
<path fill="none" stroke="midnightblue" d="M581.291,-69.9905C589.83,-70.0273 598.385,-70.0642 606.771,-70.1003"/>
<polygon fill="midnightblue" stroke="midnightblue" points="581.301,-66.4906 571.286,-69.9474 581.271,-73.4905 581.301,-66.4906"/>
</g>
<!-- Node30 -->
<g id="node6" class="node"><title>Node30</title>
<g id="a_node6"><a xlink:href="class_little_weeb_library_1_1_start_up.html#aaa6147f0dd162c1962e575689dcb22c5" target="_top" xlink:title="LittleWeebLibrary.StartUp.Stop">
<polygon fill="white" stroke="black" points="390.5,-9 390.5,-28 542.5,-28 542.5,-9 390.5,-9"/>
<text text-anchor="middle" x="466.5" y="-16" font-family="Helvetica,sans-Serif" font-size="10.00">LittleWeebLibrary.StartUp.Stop</text>
</a>
</g>
</g>
<!-- Node29&#45;&gt;Node30 -->
<g id="edge5" class="edge"><title>Node29&#45;&gt;Node30</title>
<path fill="none" stroke="midnightblue" d="M327.846,-19.13C348.255,-19.0366 370.085,-18.9367 390.208,-18.8446"/>
<polygon fill="midnightblue" stroke="midnightblue" points="327.623,-15.6309 317.639,-19.1767 327.655,-22.6308 327.623,-15.6309"/>
</g>
<!-- Node31 -->
<g id="node7" class="node"><title>Node31</title>
<g id="a_node7"><a xlink:href="class_little_weeb_library_1_1_little_weeb.html#abdb53c29265dddd9fa0a27c8bf4d50f2" target="_top" xlink:title="LittleWeebLibrary.Little\lWeeb.Stop">
<polygon fill="white" stroke="black" points="642.5,-0.5 642.5,-30.5 758.5,-30.5 758.5,-0.5 642.5,-0.5"/>
<text text-anchor="start" x="650.5" y="-18.5" font-family="Helvetica,sans-Serif" font-size="10.00">LittleWeebLibrary.Little</text>
<text text-anchor="middle" x="700.5" y="-7.5" font-family="Helvetica,sans-Serif" font-size="10.00">Weeb.Stop</text>
</a>
</g>
</g>
<!-- Node30&#45;&gt;Node31 -->
<g id="edge6" class="edge"><title>Node30&#45;&gt;Node31</title>
<path fill="none" stroke="midnightblue" d="M552.525,-17.4005C582.449,-17.0136 615.34,-16.5883 642.407,-16.2383"/>
<polygon fill="midnightblue" stroke="midnightblue" points="552.457,-13.901 542.503,-17.5301 552.548,-20.9004 552.457,-13.901"/>
</g>
</g>
</svg>
