<?xml version="1.0" encoding="UTF-8" standalone="no"?>
<!DOCTYPE svg PUBLIC "-//W3C//DTD SVG 1.1//EN"
 "http://www.w3.org/Graphics/SVG/1.1/DTD/svg11.dtd">
<!-- Generated by graphviz version 2.38.0 (20140413.2041)
 -->
<!-- Title: LittleWeebLibrary.Services.DataBaseWebSocketService.UpdateDocument Pages: 1 -->
<svg width="566pt" height="225pt"
 viewBox="0.00 0.00 566.00 225.00" xmlns="http://www.w3.org/2000/svg" xmlns:xlink="http://www.w3.org/1999/xlink">
<g id="graph0" class="graph" transform="scale(1 1) rotate(0) translate(4 221)">
<title>LittleWeebLibrary.Services.DataBaseWebSocketService.UpdateDocument</title>
<polygon fill="white" stroke="none" points="-4,4 -4,-221 562,-221 562,4 -4,4"/>
<!-- Node41 -->
<g id="node1" class="node"><title>Node41</title>
<polygon fill="#bfbfbf" stroke="black" points="0,-93 0,-134 176,-134 176,-93 0,-93"/>
<text text-anchor="start" x="8" y="-122" font-family="Helvetica,sans-Serif" font-size="10.00">LittleWeebLibrary.Services.</text>
<text text-anchor="start" x="8" y="-111" font-family="Helvetica,sans-Serif" font-size="10.00">DataBaseWebSocketService.Update</text>
<text text-anchor="middle" x="88" y="-100" font-family="Helvetica,sans-Serif" font-size="10.00">Document</text>
</g>
<!-- Node42 -->
<g id="node2" class="node"><title>Node42</title>
<g id="a_node2"><a xlink:href="class_little_weeb_library_1_1_handlers_1_1_web_socket_handler.html#a1de289d54d665a32c93478c68d3e6ad0" target="_top" xlink:title="LittleWeebLibrary.Handlers.\lWebSocketHandler.SendMessage">
<polygon fill="white" stroke="black" points="212,-186.5 212,-216.5 378,-216.5 378,-186.5 212,-186.5"/>
<text text-anchor="start" x="220" y="-204.5" font-family="Helvetica,sans-Serif" font-size="10.00">LittleWeebLibrary.Handlers.</text>
<text text-anchor="middle" x="295" y="-193.5" font-family="Helvetica,sans-Serif" font-size="10.00">WebSocketHandler.SendMessage</text>
</a>
</g>
</g>
<!-- Node41&#45;&gt;Node42 -->
<g id="edge1" class="edge"><title>Node41&#45;&gt;Node42</title>
<path fill="none" stroke="midnightblue" d="M130.145,-134.036C153.845,-145.579 184.333,-159.943 212,-171.5 221.337,-175.4 231.379,-179.306 241.125,-182.949"/>
<polygon fill="midnightblue" stroke="midnightblue" points="240.141,-186.317 250.735,-186.495 242.565,-179.75 240.141,-186.317"/>
</g>
<!-- Node43 -->
<g id="node3" class="node"><title>Node43</title>
<g id="a_node3"><a xlink:href="class_little_weeb_library_1_1_handlers_1_1_debug_handler.html#afccb37dfd6b2114af72000c2f4fe4607" target="_top" xlink:title="LittleWeebLibrary.Handlers.\lDebugHandler.TraceMessage">
<polygon fill="white" stroke="black" points="414,-142.5 414,-172.5 558,-172.5 558,-142.5 414,-142.5"/>
<text text-anchor="start" x="422" y="-160.5" font-family="Helvetica,sans-Serif" font-size="10.00">LittleWeebLibrary.Handlers.</text>
<text text-anchor="middle" x="486" y="-149.5" font-family="Helvetica,sans-Serif" font-size="10.00">DebugHandler.TraceMessage</text>
</a>
</g>
</g>
<!-- Node41&#45;&gt;Node43 -->
<g id="edge5" class="edge"><title>Node41&#45;&gt;Node43</title>
<path fill="none" stroke="midnightblue" d="M176.111,-132.674C188.126,-134.888 200.34,-136.916 212,-138.5 276.02,-147.196 349.057,-152.014 403.468,-154.621"/>
<polygon fill="midnightblue" stroke="midnightblue" points="403.597,-158.131 413.749,-155.098 403.922,-151.138 403.597,-158.131"/>
</g>
<!-- Node44 -->
<g id="node4" class="node"><title>Node44</title>
<g id="a_node4"><a xlink:href="class_little_weeb_library_1_1_models_1_1_json_success.html#a407103dc37a77aaf47a782296bab7518" target="_top" xlink:title="LittleWeebLibrary.Models.\lJsonSuccess.ToJson">
<polygon fill="white" stroke="black" points="230,-98.5 230,-128.5 360,-128.5 360,-98.5 230,-98.5"/>
<text text-anchor="start" x="238" y="-116.5" font-family="Helvetica,sans-Serif" font-size="10.00">LittleWeebLibrary.Models.</text>
<text text-anchor="middle" x="295" y="-105.5" font-family="Helvetica,sans-Serif" font-size="10.00">JsonSuccess.ToJson</text>
</a>
</g>
</g>
<!-- Node41&#45;&gt;Node44 -->
<g id="edge3" class="edge"><title>Node41&#45;&gt;Node44</title>
<path fill="none" stroke="midnightblue" d="M176.236,-113.5C190.705,-113.5 205.589,-113.5 219.7,-113.5"/>
<polygon fill="midnightblue" stroke="midnightblue" points="219.822,-117 229.822,-113.5 219.821,-110 219.822,-117"/>
</g>
<!-- Node45 -->
<g id="node5" class="node"><title>Node45</title>
<g id="a_node5"><a xlink:href="class_little_weeb_library_1_1_models_1_1_json_error.html#a0e3e7dd2e2990404b7f0461742b23440" target="_top" xlink:title="LittleWeebLibrary.Models.\lJsonError.ToJson">
<polygon fill="white" stroke="black" points="230,-49.5 230,-79.5 360,-79.5 360,-49.5 230,-49.5"/>
<text text-anchor="start" x="238" y="-67.5" font-family="Helvetica,sans-Serif" font-size="10.00">LittleWeebLibrary.Models.</text>
<text text-anchor="middle" x="295" y="-56.5" font-family="Helvetica,sans-Serif" font-size="10.00">JsonError.ToJson</text>
</a>
</g>
</g>
<!-- Node41&#45;&gt;Node45 -->
<g id="edge4" class="edge"><title>Node41&#45;&gt;Node45</title>
<path fill="none" stroke="midnightblue" d="M175.047,-92.9326C190.36,-89.2725 206.176,-85.4922 221.079,-81.93"/>
<polygon fill="midnightblue" stroke="midnightblue" points="222.321,-85.2317 231.233,-79.5028 220.693,-78.4235 222.321,-85.2317"/>
</g>
<!-- Node46 -->
<g id="node6" class="node"><title>Node46</title>
<g id="a_node6"><a xlink:href="class_little_weeb_library_1_1_handlers_1_1_data_base_handler.html#a9b2223ff71f688234f95d247ea3b5739" target="_top" xlink:title="LittleWeebLibrary.Handlers.\lDataBaseHandler.UpdateJObject">
<polygon fill="white" stroke="black" points="215.5,-0.5 215.5,-30.5 374.5,-30.5 374.5,-0.5 215.5,-0.5"/>
<text text-anchor="start" x="223.5" y="-18.5" font-family="Helvetica,sans-Serif" font-size="10.00">LittleWeebLibrary.Handlers.</text>
<text text-anchor="middle" x="295" y="-7.5" font-family="Helvetica,sans-Serif" font-size="10.00">DataBaseHandler.UpdateJObject</text>
</a>
</g>
</g>
<!-- Node41&#45;&gt;Node46 -->
<g id="edge6" class="edge"><title>Node41&#45;&gt;Node46</title>
<path fill="none" stroke="midnightblue" d="M119.243,-92.7592C143.492,-76.8277 178.834,-55.1431 212,-40.5 217.321,-38.1509 222.927,-35.9365 228.609,-33.8703"/>
<polygon fill="midnightblue" stroke="midnightblue" points="229.908,-37.1243 238.205,-30.5354 227.61,-30.5122 229.908,-37.1243"/>
</g>
<!-- Node42&#45;&gt;Node43 -->
<g id="edge2" class="edge"><title>Node42&#45;&gt;Node43</title>
<path fill="none" stroke="midnightblue" d="M360.514,-186.481C376.543,-182.749 393.856,-178.719 410.328,-174.884"/>
<polygon fill="midnightblue" stroke="midnightblue" points="411.51,-178.203 420.456,-172.526 409.922,-171.385 411.51,-178.203"/>
</g>
<!-- Node46&#45;&gt;Node43 -->
<g id="edge7" class="edge"><title>Node46&#45;&gt;Node43</title>
<path fill="none" stroke="midnightblue" d="M358.468,-30.642C365.3,-33.4255 371.959,-36.6873 378,-40.5 416.9,-65.0494 450.608,-107.403 469.327,-133.857"/>
<polygon fill="midnightblue" stroke="midnightblue" points="466.514,-135.943 475.086,-142.169 472.268,-131.956 466.514,-135.943"/>
</g>
</g>
</svg>
