<?xml version="1.0" encoding="UTF-8" standalone="no"?>
<!DOCTYPE svg PUBLIC "-//W3C//DTD SVG 1.1//EN"
 "http://www.w3.org/Graphics/SVG/1.1/DTD/svg11.dtd">
<!-- Generated by graphviz version 2.38.0 (20140413.2041)
 -->
<!-- Title: LittleWeebLibrary.Models.JsonNiblBotList.ToJObject Pages: 1 -->
<svg width="597pt" height="50pt"
 viewBox="0.00 0.00 597.00 50.00" xmlns="http://www.w3.org/2000/svg" xmlns:xlink="http://www.w3.org/1999/xlink">
<g id="graph0" class="graph" transform="scale(1 1) rotate(0) translate(4 46)">
<title>LittleWeebLibrary.Models.JsonNiblBotList.ToJObject</title>
<polygon fill="white" stroke="none" points="-4,4 -4,-46 593,-46 593,4 -4,4"/>
<!-- Node7 -->
<g id="node1" class="node"><title>Node7</title>
<polygon fill="#bfbfbf" stroke="black" points="0,-6 0,-36 131,-36 131,-6 0,-6"/>
<text text-anchor="start" x="8" y="-24" font-family="Helvetica,sans-Serif" font-size="10.00">LittleWeebLibrary.Models.</text>
<text text-anchor="middle" x="65.5" y="-13" font-family="Helvetica,sans-Serif" font-size="10.00">JsonNiblBotList.ToJObject</text>
</g>
<!-- Node8 -->
<g id="node2" class="node"><title>Node8</title>
<g id="a_node2"><a xlink:href="class_little_weeb_library_1_1_services_1_1_info_api_web_socket_service.html#a5f91364bc403db5d521f15881a385143" target="_top" xlink:title="LittleWeebLibrary.Services.\lInfoApiWebSocketService.GetBotList">
<polygon fill="white" stroke="black" points="167,-6 167,-36 345,-36 345,-6 167,-6"/>
<text text-anchor="start" x="175" y="-24" font-family="Helvetica,sans-Serif" font-size="10.00">LittleWeebLibrary.Services.</text>
<text text-anchor="middle" x="256" y="-13" font-family="Helvetica,sans-Serif" font-size="10.00">InfoApiWebSocketService.GetBotList</text>
</a>
</g>
</g>
<!-- Node7&#45;&gt;Node8 -->
<g id="edge1" class="edge"><title>Node7&#45;&gt;Node8</title>
<path fill="none" stroke="midnightblue" d="M141.234,-21C149.64,-21 158.263,-21 166.819,-21"/>
<polygon fill="midnightblue" stroke="midnightblue" points="141.107,-17.5001 131.107,-21 141.107,-24.5001 141.107,-17.5001"/>
</g>
<!-- Node9 -->
<g id="node3" class="node"><title>Node9</title>
<g id="a_node3"><a xlink:href="class_little_weeb_library_1_1_controllers_1_1_sub_controllers_1_1_info_api_web_socket_controller.html#ad620537574b819085ff8eb394add2912" target="_top" xlink:title="LittleWeebLibrary.Controllers.\lSubControllers.InfoApiWebSocketController.\lOnWebSocketEvent">
<polygon fill="white" stroke="black" points="381,-0.5 381,-41.5 589,-41.5 589,-0.5 381,-0.5"/>
<text text-anchor="start" x="389" y="-29.5" font-family="Helvetica,sans-Serif" font-size="10.00">LittleWeebLibrary.Controllers.</text>
<text text-anchor="start" x="389" y="-18.5" font-family="Helvetica,sans-Serif" font-size="10.00">SubControllers.InfoApiWebSocketController.</text>
<text text-anchor="middle" x="485" y="-7.5" font-family="Helvetica,sans-Serif" font-size="10.00">OnWebSocketEvent</text>
</a>
</g>
</g>
<!-- Node8&#45;&gt;Node9 -->
<g id="edge2" class="edge"><title>Node8&#45;&gt;Node9</title>
<path fill="none" stroke="midnightblue" d="M355.33,-21C363.784,-21 372.351,-21 380.841,-21"/>
<polygon fill="midnightblue" stroke="midnightblue" points="355.089,-17.5001 345.089,-21 355.089,-24.5001 355.089,-17.5001"/>
</g>
</g>
</svg>
