<?xml version="1.0" encoding="UTF-8" standalone="no"?>
<!DOCTYPE svg PUBLIC "-//W3C//DTD SVG 1.1//EN"
 "http://www.w3.org/Graphics/SVG/1.1/DTD/svg11.dtd">
<!-- Generated by graphviz version 2.38.0 (20140413.2041)
 -->
<!-- Title: LittleWeebLibrary.Handlers.DownloadHandler Pages: 1 -->
<!--zoomable 534 -->
<svg id="main" version="1.1" xmlns="http://www.w3.org/2000/svg" xmlns:xlink="http://www.w3.org/1999/xlink" xml:space="preserve" onload="init(evt)">
<style type="text/css"><![CDATA[
.edge:hover path { stroke: red; }
.edge:hover polygon { stroke: red; fill: red; }
]]></style>
<script type="text/javascript"><![CDATA[
var edges = document.getElementsByTagName('g');
if (edges && edges.length) {
  for (var i=0;i<edges.length;i++) {
    if (edges[i].id.substr(0,4)=='edge') {
      edges[i].setAttribute('class','edge');
    }
  }
}
]]></script>
        <defs>
                <circle id="rim" cx="0" cy="0" r="7"/>
                <circle id="rim2" cx="0" cy="0" r="3.5"/>
                <g id="zoomPlus">
                        <use xlink:href="#rim" fill="#404040">
                                <set attributeName="fill" to="#808080" begin="zoomplus.mouseover" end="zoomplus.mouseout"/>
                        </use>
                        <path d="M-4,0h8M0,-4v8" fill="none" stroke="white" stroke-width="1.5" pointer-events="none"/>
                </g>
                <g id="zoomMin">
                        <use xlink:href="#rim" fill="#404040">
                                <set attributeName="fill" to="#808080" begin="zoomminus.mouseover" end="zoomminus.mouseout"/>
                        </use>
                        <path d="M-4,0h8" fill="none" stroke="white" stroke-width="1.5" pointer-events="none"/>
                </g>
                <g id="dirArrow">
                        <path fill="none" stroke="white" stroke-width="1.5" d="M0,-3.0v7 M-2.5,-0.5L0,-3.0L2.5,-0.5"/>
                </g>
               <g id="resetDef">
                       <use xlink:href="#rim2" fill="#404040">
                               <set attributeName="fill" to="#808080" begin="reset.mouseover" end="reset.mouseout"/>
                       </use>
               </g>
        </defs>

<script type="text/javascript">
var viewWidth = 1232;
var viewHeight = 534;
var sectionId = 'dynsection-1';
</script>
<script xlink:href="svgpan.js"/>
<svg id="graph" class="graph">
<g id="viewport">
<title>LittleWeebLibrary.Handlers.DownloadHandler</title>
<polygon fill="white" stroke="none" points="-4,4 -4,-530 1227.5,-530 1227.5,4 -4,4"/>
<!-- Node3 -->
<g id="node1" class="node"><title>Node3</title>
<polygon fill="#bfbfbf" stroke="black" points="539,-0.5 539,-211.5 682,-211.5 682,-0.5 539,-0.5"/>
<text text-anchor="start" x="547" y="-199.5" font-family="Helvetica,sans-Serif" font-size="10.00">LittleWeebLibrary.Handlers.</text>
<text text-anchor="middle" x="610.5" y="-188.5" font-family="Helvetica,sans-Serif" font-size="10.00">DownloadHandler</text>
<polyline fill="none" stroke="black" points="539,-181.5 682,-181.5 "/>
<text text-anchor="start" x="547" y="-169.5" font-family="Helvetica,sans-Serif" font-size="10.00">&#45; DownloadProcesOnGoing</text>
<text text-anchor="start" x="547" y="-158.5" font-family="Helvetica,sans-Serif" font-size="10.00">&#45; DownloadQueue</text>
<text text-anchor="start" x="547" y="-147.5" font-family="Helvetica,sans-Serif" font-size="10.00">&#45; Stop</text>
<polyline fill="none" stroke="black" points="539,-140.5 682,-140.5 "/>
<text text-anchor="start" x="547" y="-128.5" font-family="Helvetica,sans-Serif" font-size="10.00">+ DownloadHandler()</text>
<text text-anchor="start" x="547" y="-117.5" font-family="Helvetica,sans-Serif" font-size="10.00">+ AbortDownload()</text>
<text text-anchor="start" x="547" y="-106.5" font-family="Helvetica,sans-Serif" font-size="10.00">+ AddDownload()</text>
<text text-anchor="start" x="547" y="-95.5" font-family="Helvetica,sans-Serif" font-size="10.00">+ AddDownloads()</text>
<text text-anchor="start" x="547" y="-84.5" font-family="Helvetica,sans-Serif" font-size="10.00">+ GetCurrentlyDownloading()</text>
<text text-anchor="start" x="547" y="-73.5" font-family="Helvetica,sans-Serif" font-size="10.00">+ RemoveDownload()</text>
<text text-anchor="start" x="547" y="-62.5" font-family="Helvetica,sans-Serif" font-size="10.00">+ SetIrcSettings()</text>
<text text-anchor="start" x="547" y="-51.5" font-family="Helvetica,sans-Serif" font-size="10.00">+ SetLittleWeebSettings()</text>
<text text-anchor="start" x="547" y="-40.5" font-family="Helvetica,sans-Serif" font-size="10.00">+ StopQueue()</text>
<text text-anchor="start" x="547" y="-29.5" font-family="Helvetica,sans-Serif" font-size="10.00">&#45; DownloadQueueHandler()</text>
<text text-anchor="start" x="547" y="-18.5" font-family="Helvetica,sans-Serif" font-size="10.00">&#45; IdGenerator()</text>
<text text-anchor="start" x="547" y="-7.5" font-family="Helvetica,sans-Serif" font-size="10.00">&#45; OnIrcClientDownloadEvent()</text>
</g>
<!-- Node4 -->
<g id="node2" class="node"><title>Node4</title>
<g id="a_node2"><a xlink:href="interface_little_weeb_library_1_1_handlers_1_1_i_download_handler.html" target="_top" xlink:title="{IDownloadHandler\n||+ AbortDownload()\l+ AddDownload()\l+ AddDownloads()\l+ GetCurrentlyDownloading()\l+ RemoveDownload()\l+ StopQueue()\l}">
<polygon fill="white" stroke="black" points="0,-336.5 0,-448.5 141,-448.5 141,-336.5 0,-336.5"/>
<text text-anchor="middle" x="70.5" y="-436.5" font-family="Helvetica,sans-Serif" font-size="10.00">IDownloadHandler</text>
<polyline fill="none" stroke="black" points="0,-429.5 141,-429.5 "/>
<text text-anchor="middle" x="70.5" y="-417.5" font-family="Helvetica,sans-Serif" font-size="10.00"> </text>
<polyline fill="none" stroke="black" points="0,-410.5 141,-410.5 "/>
<text text-anchor="start" x="8" y="-398.5" font-family="Helvetica,sans-Serif" font-size="10.00">+ AbortDownload()</text>
<text text-anchor="start" x="8" y="-387.5" font-family="Helvetica,sans-Serif" font-size="10.00">+ AddDownload()</text>
<text text-anchor="start" x="8" y="-376.5" font-family="Helvetica,sans-Serif" font-size="10.00">+ AddDownloads()</text>
<text text-anchor="start" x="8" y="-365.5" font-family="Helvetica,sans-Serif" font-size="10.00">+ GetCurrentlyDownloading()</text>
<text text-anchor="start" x="8" y="-354.5" font-family="Helvetica,sans-Serif" font-size="10.00">+ RemoveDownload()</text>
<text text-anchor="start" x="8" y="-343.5" font-family="Helvetica,sans-Serif" font-size="10.00">+ StopQueue()</text>
</a>
</g>
</g>
<!-- Node4&#45;&gt;Node3 -->
<g id="edge1" class="edge"><title>Node4&#45;&gt;Node3</title>
<path fill="none" stroke="midnightblue" d="M96.9657,-327.208C109.722,-302.941 127.174,-276.901 149.5,-259 265.711,-165.824 441.207,-128.854 538.726,-114.893"/>
<polygon fill="none" stroke="midnightblue" points="93.7053,-325.899 92.3061,-336.401 99.9491,-329.064 93.7053,-325.899"/>
</g>
<!-- Node5 -->
<g id="node3" class="node"><title>Node5</title>
<g id="a_node3"><a xlink:href="interface_little_weeb_library_1_1_global_interfaces_1_1_i_settings_interface.html" target="_top" xlink:title="{ISettingsInterface\n||+ SetIrcSettings()\l+ SetLittleWeebSettings()\l}">
<polygon fill="white" stroke="black" points="159,-358.5 159,-426.5 288,-426.5 288,-358.5 159,-358.5"/>
<text text-anchor="middle" x="223.5" y="-414.5" font-family="Helvetica,sans-Serif" font-size="10.00">ISettingsInterface</text>
<polyline fill="none" stroke="black" points="159,-407.5 288,-407.5 "/>
<text text-anchor="middle" x="223.5" y="-395.5" font-family="Helvetica,sans-Serif" font-size="10.00"> </text>
<polyline fill="none" stroke="black" points="159,-388.5 288,-388.5 "/>
<text text-anchor="start" x="167" y="-376.5" font-family="Helvetica,sans-Serif" font-size="10.00">+ SetIrcSettings()</text>
<text text-anchor="start" x="167" y="-365.5" font-family="Helvetica,sans-Serif" font-size="10.00">+ SetLittleWeebSettings()</text>
</a>
</g>
</g>
<!-- Node5&#45;&gt;Node3 -->
<g id="edge2" class="edge"><title>Node5&#45;&gt;Node3</title>
<path fill="none" stroke="midnightblue" d="M238.877,-349.118C250.947,-320.688 270.136,-284.009 296.5,-259 366.145,-192.934 469.917,-150.409 538.86,-127.601"/>
<polygon fill="none" stroke="midnightblue" points="235.62,-347.835 235.057,-358.415 242.095,-350.496 235.62,-347.835"/>
</g>
<!-- Node6 -->
<g id="node4" class="node"><title>Node6</title>
<g id="a_node4"><a xlink:href="interface_little_weeb_library_1_1_handlers_1_1_i_debug_handler.html" target="_top" xlink:title="{LittleWeebLibrary.Handlers.\lIDebugHandler\n||+ SetSettings()\l+ StopDebugger()\l+ TraceMessage()\l}">
<polygon fill="white" stroke="black" points="306,-347.5 306,-437.5 443,-437.5 443,-347.5 306,-347.5"/>
<text text-anchor="start" x="314" y="-425.5" font-family="Helvetica,sans-Serif" font-size="10.00">LittleWeebLibrary.Handlers.</text>
<text text-anchor="middle" x="374.5" y="-414.5" font-family="Helvetica,sans-Serif" font-size="10.00">IDebugHandler</text>
<polyline fill="none" stroke="black" points="306,-407.5 443,-407.5 "/>
<text text-anchor="middle" x="374.5" y="-395.5" font-family="Helvetica,sans-Serif" font-size="10.00"> </text>
<polyline fill="none" stroke="black" points="306,-388.5 443,-388.5 "/>
<text text-anchor="start" x="314" y="-376.5" font-family="Helvetica,sans-Serif" font-size="10.00">+ SetSettings()</text>
<text text-anchor="start" x="314" y="-365.5" font-family="Helvetica,sans-Serif" font-size="10.00">+ StopDebugger()</text>
<text text-anchor="start" x="314" y="-354.5" font-family="Helvetica,sans-Serif" font-size="10.00">+ TraceMessage()</text>
</a>
</g>
</g>
<!-- Node6&#45;&gt;Node3 -->
<g id="edge3" class="edge"><title>Node6&#45;&gt;Node3</title>
<path fill="none" stroke="#404040" d="M396.061,-347.468C410.126,-320.694 429.852,-286.485 451.5,-259 474.64,-229.621 503.344,-200.476 529.968,-175.686"/>
<polygon fill="none" stroke="#404040" points="530.081,-175.582 531.783,-168.575 538.906,-167.451 537.204,-174.459 530.081,-175.582"/>
<text text-anchor="middle" x="509" y="-233" font-family="Helvetica,sans-Serif" font-size="10.00"> &#45;DebugHandler</text>
</g>
<!-- Node7 -->
<g id="node5" class="node"><title>Node7</title>
<g id="a_node5"><a xlink:href="interface_little_weeb_library_1_1_handlers_1_1_i_irc_client_handler.html" target="_top" xlink:title="{LittleWeebLibrary.Handlers.\lIIrcClientHandler\n||+ CurrentSettings()\l+ IsConnected()\l+ IsDownloading()\l+ SendMessage()\l+ Setfullfilepath()\l+ StartConnection()\l+ StartDownload()\l+ StopConnection()\l+ StopDownload()\l}">
<polygon fill="white" stroke="black" points="461,-314.5 461,-470.5 598,-470.5 598,-314.5 461,-314.5"/>
<text text-anchor="start" x="469" y="-458.5" font-family="Helvetica,sans-Serif" font-size="10.00">LittleWeebLibrary.Handlers.</text>
<text text-anchor="middle" x="529.5" y="-447.5" font-family="Helvetica,sans-Serif" font-size="10.00">IIrcClientHandler</text>
<polyline fill="none" stroke="black" points="461,-440.5 598,-440.5 "/>
<text text-anchor="middle" x="529.5" y="-428.5" font-family="Helvetica,sans-Serif" font-size="10.00"> </text>
<polyline fill="none" stroke="black" points="461,-421.5 598,-421.5 "/>
<text text-anchor="start" x="469" y="-409.5" font-family="Helvetica,sans-Serif" font-size="10.00">+ CurrentSettings()</text>
<text text-anchor="start" x="469" y="-398.5" font-family="Helvetica,sans-Serif" font-size="10.00">+ IsConnected()</text>
<text text-anchor="start" x="469" y="-387.5" font-family="Helvetica,sans-Serif" font-size="10.00">+ IsDownloading()</text>
<text text-anchor="start" x="469" y="-376.5" font-family="Helvetica,sans-Serif" font-size="10.00">+ SendMessage()</text>
<text text-anchor="start" x="469" y="-365.5" font-family="Helvetica,sans-Serif" font-size="10.00">+ Setfullfilepath()</text>
<text text-anchor="start" x="469" y="-354.5" font-family="Helvetica,sans-Serif" font-size="10.00">+ StartConnection()</text>
<text text-anchor="start" x="469" y="-343.5" font-family="Helvetica,sans-Serif" font-size="10.00">+ StartDownload()</text>
<text text-anchor="start" x="469" y="-332.5" font-family="Helvetica,sans-Serif" font-size="10.00">+ StopConnection()</text>
<text text-anchor="start" x="469" y="-321.5" font-family="Helvetica,sans-Serif" font-size="10.00">+ StopDownload()</text>
</a>
</g>
</g>
<!-- Node7&#45;&gt;Node3 -->
<g id="edge4" class="edge"><title>Node7&#45;&gt;Node3</title>
<path fill="none" stroke="#404040" d="M551.527,-314.135C559.502,-286.121 568.695,-253.835 577.412,-223.215"/>
<polygon fill="none" stroke="#404040" points="577.441,-223.115 575.237,-216.249 580.727,-211.574 582.931,-218.44 577.441,-223.115"/>
<text text-anchor="middle" x="613" y="-233" font-family="Helvetica,sans-Serif" font-size="10.00"> &#45;IrcClientHandler</text>
</g>
<!-- Node8 -->
<g id="node6" class="node"><title>Node8</title>
<g id="a_node6"><a xlink:href="interface_little_weeb_library_1_1_handlers_1_1_i_file_history_handler.html" target="_top" xlink:title="{LittleWeebLibrary.Handlers.\lIFileHistoryHandler\n||+ AddFileToFileHistory()\l+ GetCurrentFileHistory()\l+ RemoveFileFromFileHistory()\l}">
<polygon fill="white" stroke="black" points="616,-347.5 616,-437.5 767,-437.5 767,-347.5 616,-347.5"/>
<text text-anchor="start" x="624" y="-425.5" font-family="Helvetica,sans-Serif" font-size="10.00">LittleWeebLibrary.Handlers.</text>
<text text-anchor="middle" x="691.5" y="-414.5" font-family="Helvetica,sans-Serif" font-size="10.00">IFileHistoryHandler</text>
<polyline fill="none" stroke="black" points="616,-407.5 767,-407.5 "/>
<text text-anchor="middle" x="691.5" y="-395.5" font-family="Helvetica,sans-Serif" font-size="10.00"> </text>
<polyline fill="none" stroke="black" points="616,-388.5 767,-388.5 "/>
<text text-anchor="start" x="624" y="-376.5" font-family="Helvetica,sans-Serif" font-size="10.00">+ AddFileToFileHistory()</text>
<text text-anchor="start" x="624" y="-365.5" font-family="Helvetica,sans-Serif" font-size="10.00">+ GetCurrentFileHistory()</text>
<text text-anchor="start" x="624" y="-354.5" font-family="Helvetica,sans-Serif" font-size="10.00">+ RemoveFileFromFileHistory()</text>
</a>
</g>
</g>
<!-- Node8&#45;&gt;Node3 -->
<g id="edge5" class="edge"><title>Node8&#45;&gt;Node3</title>
<path fill="none" stroke="#404040" d="M682.841,-347.269C676.09,-314.607 665.96,-269.205 654.5,-230 653.844,-227.755 653.169,-225.492 652.478,-223.214"/>
<polygon fill="none" stroke="#404040" points="652.473,-223.196 646.869,-218.657 648.904,-211.739 654.507,-216.278 652.473,-223.196"/>
<text text-anchor="middle" x="700.5" y="-233" font-family="Helvetica,sans-Serif" font-size="10.00"> &#45;FileHistoryHandler</text>
</g>
<!-- Node9 -->
<g id="node7" class="node"><title>Node9</title>
<g id="a_node7"><a xlink:href="class_little_weeb_library_1_1_models_1_1_json_download_info.html" target="_top" xlink:title="{LittleWeebLibrary.Models.\lJsonDownloadInfo\n|+ type\l+ anime_id\l+ anime_name\l+ bot\l+ downloadDirectory\l+ downloadIndex\l+ episodeNumber\l+ filename\l+ filesize\l+ fullfilepath\l+ id\l+ pack\l+ progress\l+ season\l+ speed\l+ status\l+ updated\l|+ ToJObject()\l+ ToJson()\l+ ToString()\l}">
<polygon fill="white" stroke="black" points="785.5,-259.5 785.5,-525.5 915.5,-525.5 915.5,-259.5 785.5,-259.5"/>
<text text-anchor="start" x="793.5" y="-513.5" font-family="Helvetica,sans-Serif" font-size="10.00">LittleWeebLibrary.Models.</text>
<text text-anchor="middle" x="850.5" y="-502.5" font-family="Helvetica,sans-Serif" font-size="10.00">JsonDownloadInfo</text>
<polyline fill="none" stroke="black" points="785.5,-495.5 915.5,-495.5 "/>
<text text-anchor="start" x="793.5" y="-483.5" font-family="Helvetica,sans-Serif" font-size="10.00">+ type</text>
<text text-anchor="start" x="793.5" y="-472.5" font-family="Helvetica,sans-Serif" font-size="10.00">+ anime_id</text>
<text text-anchor="start" x="793.5" y="-461.5" font-family="Helvetica,sans-Serif" font-size="10.00">+ anime_name</text>
<text text-anchor="start" x="793.5" y="-450.5" font-family="Helvetica,sans-Serif" font-size="10.00">+ bot</text>
<text text-anchor="start" x="793.5" y="-439.5" font-family="Helvetica,sans-Serif" font-size="10.00">+ downloadDirectory</text>
<text text-anchor="start" x="793.5" y="-428.5" font-family="Helvetica,sans-Serif" font-size="10.00">+ downloadIndex</text>
<text text-anchor="start" x="793.5" y="-417.5" font-family="Helvetica,sans-Serif" font-size="10.00">+ episodeNumber</text>
<text text-anchor="start" x="793.5" y="-406.5" font-family="Helvetica,sans-Serif" font-size="10.00">+ filename</text>
<text text-anchor="start" x="793.5" y="-395.5" font-family="Helvetica,sans-Serif" font-size="10.00">+ filesize</text>
<text text-anchor="start" x="793.5" y="-384.5" font-family="Helvetica,sans-Serif" font-size="10.00">+ fullfilepath</text>
<text text-anchor="start" x="793.5" y="-373.5" font-family="Helvetica,sans-Serif" font-size="10.00">+ id</text>
<text text-anchor="start" x="793.5" y="-362.5" font-family="Helvetica,sans-Serif" font-size="10.00">+ pack</text>
<text text-anchor="start" x="793.5" y="-351.5" font-family="Helvetica,sans-Serif" font-size="10.00">+ progress</text>
<text text-anchor="start" x="793.5" y="-340.5" font-family="Helvetica,sans-Serif" font-size="10.00">+ season</text>
<text text-anchor="start" x="793.5" y="-329.5" font-family="Helvetica,sans-Serif" font-size="10.00">+ speed</text>
<text text-anchor="start" x="793.5" y="-318.5" font-family="Helvetica,sans-Serif" font-size="10.00">+ status</text>
<text text-anchor="start" x="793.5" y="-307.5" font-family="Helvetica,sans-Serif" font-size="10.00">+ updated</text>
<polyline fill="none" stroke="black" points="785.5,-300.5 915.5,-300.5 "/>
<text text-anchor="start" x="793.5" y="-288.5" font-family="Helvetica,sans-Serif" font-size="10.00">+ ToJObject()</text>
<text text-anchor="start" x="793.5" y="-277.5" font-family="Helvetica,sans-Serif" font-size="10.00">+ ToJson()</text>
<text text-anchor="start" x="793.5" y="-266.5" font-family="Helvetica,sans-Serif" font-size="10.00">+ ToString()</text>
</a>
</g>
</g>
<!-- Node9&#45;&gt;Node3 -->
<g id="edge6" class="edge"><title>Node9&#45;&gt;Node3</title>
<path fill="none" stroke="#404040" d="M785.328,-272.772C782.103,-268.057 778.822,-263.448 775.5,-259 751.632,-227.04 720.453,-196.324 691.633,-170.973"/>
<polygon fill="none" stroke="#404040" points="691.434,-170.8 684.281,-169.889 682.371,-162.935 689.524,-163.847 691.434,-170.8"/>
<text text-anchor="middle" x="810.5" y="-233" font-family="Helvetica,sans-Serif" font-size="10.00"> &#45;CurrentlyDownloading</text>
</g>
<!-- Node10 -->
<g id="node8" class="node"><title>Node10</title>
<g id="a_node8"><a xlink:href="interface_little_weeb_library_1_1_handlers_1_1_i_file_handler.html" target="_top" xlink:title="{LittleWeebLibrary.Handlers.\lIFileHandler\n||+ DeleteFile()\l+ OpenFile()\l}">
<polygon fill="white" stroke="black" points="934,-353 934,-432 1071,-432 1071,-353 934,-353"/>
<text text-anchor="start" x="942" y="-420" font-family="Helvetica,sans-Serif" font-size="10.00">LittleWeebLibrary.Handlers.</text>
<text text-anchor="middle" x="1002.5" y="-409" font-family="Helvetica,sans-Serif" font-size="10.00">IFileHandler</text>
<polyline fill="none" stroke="black" points="934,-402 1071,-402 "/>
<text text-anchor="middle" x="1002.5" y="-390" font-family="Helvetica,sans-Serif" font-size="10.00"> </text>
<polyline fill="none" stroke="black" points="934,-383 1071,-383 "/>
<text text-anchor="start" x="942" y="-371" font-family="Helvetica,sans-Serif" font-size="10.00">+ DeleteFile()</text>
<text text-anchor="start" x="942" y="-360" font-family="Helvetica,sans-Serif" font-size="10.00">+ OpenFile()</text>
</a>
</g>
</g>
<!-- Node10&#45;&gt;Node3 -->
<g id="edge7" class="edge"><title>Node10&#45;&gt;Node3</title>
<path fill="none" stroke="#404040" d="M987.139,-352.868C974.055,-323.99 952.859,-285.145 924.5,-259 857.886,-197.588 761.902,-156.045 693.62,-132.121"/>
<polygon fill="none" stroke="#404040" points="693.406,-132.047 686.432,-133.879 682.058,-128.145 689.033,-126.313 693.406,-132.047"/>
<text text-anchor="middle" x="931" y="-233" font-family="Helvetica,sans-Serif" font-size="10.00"> &#45;FileHandler</text>
</g>
<!-- Node11 -->
<g id="node9" class="node"><title>Node11</title>
<g id="a_node9"><a xlink:href="class_little_weeb_library_1_1_settings_1_1_irc_settings.html" target="_top" xlink:title="{LittleWeebLibrary.Settings.\lIrcSettings\n|+ Channels\l+ fullfilepath\l+ Port\l+ Secure\l+ ServerAddress\l+ UserName\l|+ ToString()\l}">
<polygon fill="white" stroke="black" points="1089.5,-331 1089.5,-454 1223.5,-454 1223.5,-331 1089.5,-331"/>
<text text-anchor="start" x="1097.5" y="-442" font-family="Helvetica,sans-Serif" font-size="10.00">LittleWeebLibrary.Settings.</text>
<text text-anchor="middle" x="1156.5" y="-431" font-family="Helvetica,sans-Serif" font-size="10.00">IrcSettings</text>
<polyline fill="none" stroke="black" points="1089.5,-424 1223.5,-424 "/>
<text text-anchor="start" x="1097.5" y="-412" font-family="Helvetica,sans-Serif" font-size="10.00">+ Channels</text>
<text text-anchor="start" x="1097.5" y="-401" font-family="Helvetica,sans-Serif" font-size="10.00">+ fullfilepath</text>
<text text-anchor="start" x="1097.5" y="-390" font-family="Helvetica,sans-Serif" font-size="10.00">+ Port</text>
<text text-anchor="start" x="1097.5" y="-379" font-family="Helvetica,sans-Serif" font-size="10.00">+ Secure</text>
<text text-anchor="start" x="1097.5" y="-368" font-family="Helvetica,sans-Serif" font-size="10.00">+ ServerAddress</text>
<text text-anchor="start" x="1097.5" y="-357" font-family="Helvetica,sans-Serif" font-size="10.00">+ UserName</text>
<polyline fill="none" stroke="black" points="1089.5,-350 1223.5,-350 "/>
<text text-anchor="start" x="1097.5" y="-338" font-family="Helvetica,sans-Serif" font-size="10.00">+ ToString()</text>
</a>
</g>
</g>
<!-- Node11&#45;&gt;Node3 -->
<g id="edge8" class="edge"><title>Node11&#45;&gt;Node3</title>
<path fill="none" stroke="#404040" d="M1133,-330.992C1120.49,-305.659 1102.79,-277.795 1079.5,-259 965.878,-167.327 795.463,-130.336 694.374,-115.857"/>
<polygon fill="none" stroke="#404040" points="694.286,-115.845 687.794,-118.985 682.399,-114.201 688.89,-111.061 694.286,-115.845"/>
<text text-anchor="middle" x="1075" y="-233" font-family="Helvetica,sans-Serif" font-size="10.00"> &#45;IrcSettings</text>
</g>
</g>
</svg>
        <g id="navigator" transform="translate(0 0)" fill="#404254">
                <rect fill="#f2f5e9" fill-opacity="0.5" stroke="#606060" stroke-width=".5" x="0" y="0" width="60" height="60"/>
                <use id="zoomplus" xlink:href="#zoomPlus" x="17" y="9" onmousedown="handleZoom(evt,'in')"/>
                <use id="zoomminus" xlink:href="#zoomMin" x="42" y="9" onmousedown="handleZoom(evt,'out')"/>
                <use id="reset" xlink:href="#resetDef" x="30" y="36" onmousedown="handleReset()"/>
                <g id="arrowUp" xlink:href="#dirArrow" transform="translate(30 24)" onmousedown="handlePan(0,-1)">
                  <use xlink:href="#rim" fill="#404040">
                        <set attributeName="fill" to="#808080" begin="arrowUp.mouseover" end="arrowUp.mouseout"/>
                  </use>
                  <path fill="none" stroke="white" stroke-width="1.5" d="M0,-3.0v7 M-2.5,-0.5L0,-3.0L2.5,-0.5"/>
                </g>
                <g id="arrowRight" xlink:href="#dirArrow" transform="rotate(90) translate(36 -43)" onmousedown="handlePan(1,0)">
                  <use xlink:href="#rim" fill="#404040">
                        <set attributeName="fill" to="#808080" begin="arrowRight.mouseover" end="arrowRight.mouseout"/>
                  </use>
                  <path fill="none" stroke="white" stroke-width="1.5" d="M0,-3.0v7 M-2.5,-0.5L0,-3.0L2.5,-0.5"/>
                </g>
                <g id="arrowDown" xlink:href="#dirArrow" transform="rotate(180) translate(-30 -48)" onmousedown="handlePan(0,1)">
                  <use xlink:href="#rim" fill="#404040">
                        <set attributeName="fill" to="#808080" begin="arrowDown.mouseover" end="arrowDown.mouseout"/>
                  </use>
                  <path fill="none" stroke="white" stroke-width="1.5" d="M0,-3.0v7 M-2.5,-0.5L0,-3.0L2.5,-0.5"/>
                </g>
                <g id="arrowLeft" xlink:href="#dirArrow" transform="rotate(270) translate(-36 17)" onmousedown="handlePan(-1,0)">
                  <use xlink:href="#rim" fill="#404040">
                        <set attributeName="fill" to="#808080" begin="arrowLeft.mouseover" end="arrowLeft.mouseout"/>
                  </use>
                  <path fill="none" stroke="white" stroke-width="1.5" d="M0,-3.0v7 M-2.5,-0.5L0,-3.0L2.5,-0.5"/>
                </g>
        </g>
        <svg viewBox="0 0 15 15" width="100%" height="30px" preserveAspectRatio="xMaxYMin meet">
         <g id="arrow_out" transform="scale(0.3 0.3)">
          <a xlink:href="class_little_weeb_library_1_1_handlers_1_1_download_handler__coll__graph_org.svg" target="_base">
           <rect id="button" ry="5" rx="5" y="6" x="6" height="38" width="38"
                fill="#f2f5e9" fill-opacity="0.5" stroke="#606060" stroke-width="1.0"/>
           <path id="arrow"
             d="M 11.500037,31.436501 C 11.940474,20.09759 22.043105,11.32322 32.158766,21.979434 L 37.068811,17.246167 C 37.068811,17.246167 37.088388,32 37.088388,32 L 22.160133,31.978069 C 22.160133,31.978069 26.997745,27.140456 26.997745,27.140456 C 18.528582,18.264221 13.291696,25.230495 11.500037,31.436501 z"
             style="fill:#404040;"/>
          </a>
         </g>
        </svg>
</svg>
