<?xml version="1.0" encoding="UTF-8" standalone="no"?>
<!DOCTYPE svg PUBLIC "-//W3C//DTD SVG 1.1//EN"
 "http://www.w3.org/Graphics/SVG/1.1/DTD/svg11.dtd">
<!-- Generated by graphviz version 2.38.0 (20140413.2041)
 -->
<!-- Title: LittleWeebLibrary.Handlers.DataBaseHandler.UpdateJObject Pages: 1 -->
<!--zoomable 335 -->
<svg id="main" version="1.1" xmlns="http://www.w3.org/2000/svg" xmlns:xlink="http://www.w3.org/1999/xlink" xml:space="preserve" onload="init(evt)">
<style type="text/css"><![CDATA[
.edge:hover path { stroke: red; }
.edge:hover polygon { stroke: red; fill: red; }
]]></style>
<script type="text/javascript"><![CDATA[
var edges = document.getElementsByTagName('g');
if (edges && edges.length) {
  for (var i=0;i<edges.length;i++) {
    if (edges[i].id.substr(0,4)=='edge') {
      edges[i].setAttribute('class','edge');
    }
  }
}
]]></script>
        <defs>
                <circle id="rim" cx="0" cy="0" r="7"/>
                <circle id="rim2" cx="0" cy="0" r="3.5"/>
                <g id="zoomPlus">
                        <use xlink:href="#rim" fill="#404040">
                                <set attributeName="fill" to="#808080" begin="zoomplus.mouseover" end="zoomplus.mouseout"/>
                        </use>
                        <path d="M-4,0h8M0,-4v8" fill="none" stroke="white" stroke-width="1.5" pointer-events="none"/>
                </g>
                <g id="zoomMin">
                        <use xlink:href="#rim" fill="#404040">
                                <set attributeName="fill" to="#808080" begin="zoomminus.mouseover" end="zoomminus.mouseout"/>
                        </use>
                        <path d="M-4,0h8" fill="none" stroke="white" stroke-width="1.5" pointer-events="none"/>
                </g>
                <g id="dirArrow">
                        <path fill="none" stroke="white" stroke-width="1.5" d="M0,-3.0v7 M-2.5,-0.5L0,-3.0L2.5,-0.5"/>
                </g>
               <g id="resetDef">
                       <use xlink:href="#rim2" fill="#404040">
                               <set attributeName="fill" to="#808080" begin="reset.mouseover" end="reset.mouseout"/>
                       </use>
               </g>
        </defs>

<script type="text/javascript">
var viewWidth = 867;
var viewHeight = 335;
var sectionId = 'dynsection-14';
</script>
<script xlink:href="svgpan.js"/>
<svg id="graph" class="graph">
<g id="viewport">
<title>LittleWeebLibrary.Handlers.DataBaseHandler.UpdateJObject</title>
<polygon fill="white" stroke="none" points="-4,4 -4,-330.5 863,-330.5 863,4 -4,4"/>
<!-- Node78 -->
<g id="node1" class="node"><title>Node78</title>
<polygon fill="#bfbfbf" stroke="black" points="0,-153 0,-183 159,-183 159,-153 0,-153"/>
<text text-anchor="start" x="8" y="-171" font-family="Helvetica,sans-Serif" font-size="10.00">LittleWeebLibrary.Handlers.</text>
<text text-anchor="middle" x="79.5" y="-160" font-family="Helvetica,sans-Serif" font-size="10.00">DataBaseHandler.UpdateJObject</text>
</g>
<!-- Node79 -->
<g id="node2" class="node"><title>Node79</title>
<g id="a_node2"><a xlink:href="class_little_weeb_library_1_1_handlers_1_1_anime_rule_handler.html#a469232c6b73d0ceff935c4ef2d78d039" target="_top" xlink:title="LittleWeebLibrary.Handlers.\lAnimeRuleHandler.AddRules">
<polygon fill="white" stroke="black" points="219.5,-290 219.5,-320 361.5,-320 361.5,-290 219.5,-290"/>
<text text-anchor="start" x="227.5" y="-308" font-family="Helvetica,sans-Serif" font-size="10.00">LittleWeebLibrary.Handlers.</text>
<text text-anchor="middle" x="290.5" y="-297" font-family="Helvetica,sans-Serif" font-size="10.00">AnimeRuleHandler.AddRules</text>
</a>
</g>
</g>
<!-- Node78&#45;&gt;Node79 -->
<g id="edge1" class="edge"><title>Node78&#45;&gt;Node79</title>
<path fill="none" stroke="midnightblue" d="M99.8634,-191.022C121.018,-214.843 156.991,-251.632 195,-274 205.863,-280.393 218.215,-285.661 230.323,-289.925"/>
<polygon fill="midnightblue" stroke="midnightblue" points="102.233,-188.414 93.0197,-183.182 96.9592,-193.018 102.233,-188.414"/>
</g>
<!-- Node82 -->
<g id="node5" class="node"><title>Node82</title>
<g id="a_node5"><a xlink:href="class_little_weeb_library_1_1_handlers_1_1_anime_profile_handler.html#a5b163eb7e68b1e40904fa55454d8ba54" target="_top" xlink:title="LittleWeebLibrary.Handlers.\lAnimeProfileHandler.GetAnimeEpisodes">
<polygon fill="white" stroke="black" points="195,-235 195,-265 386,-265 386,-235 195,-235"/>
<text text-anchor="start" x="203" y="-253" font-family="Helvetica,sans-Serif" font-size="10.00">LittleWeebLibrary.Handlers.</text>
<text text-anchor="middle" x="290.5" y="-242" font-family="Helvetica,sans-Serif" font-size="10.00">AnimeProfileHandler.GetAnimeEpisodes</text>
</a>
</g>
</g>
<!-- Node78&#45;&gt;Node82 -->
<g id="edge4" class="edge"><title>Node78&#45;&gt;Node82</title>
<path fill="none" stroke="midnightblue" d="M120.437,-187.55C142.211,-197.848 169.791,-210.314 195,-220 208.818,-225.31 224.017,-230.437 238.11,-234.906"/>
<polygon fill="midnightblue" stroke="midnightblue" points="121.712,-184.28 111.179,-183.136 118.7,-190.599 121.712,-184.28"/>
</g>
<!-- Node84 -->
<g id="node7" class="node"><title>Node84</title>
<g id="a_node7"><a xlink:href="class_little_weeb_library_1_1_handlers_1_1_anime_profile_handler.html#aaa89fba506cfcdad18a5aa3f9b860061" target="_top" xlink:title="LittleWeebLibrary.Handlers.\lAnimeProfileHandler.GetAnimeProfile">
<polygon fill="white" stroke="black" points="201.5,-181 201.5,-211 379.5,-211 379.5,-181 201.5,-181"/>
<text text-anchor="start" x="209.5" y="-199" font-family="Helvetica,sans-Serif" font-size="10.00">LittleWeebLibrary.Handlers.</text>
<text text-anchor="middle" x="290.5" y="-188" font-family="Helvetica,sans-Serif" font-size="10.00">AnimeProfileHandler.GetAnimeProfile</text>
</a>
</g>
</g>
<!-- Node78&#45;&gt;Node84 -->
<g id="edge7" class="edge"><title>Node78&#45;&gt;Node84</title>
<path fill="none" stroke="midnightblue" d="M169.318,-179.899C179.941,-181.322 190.785,-182.775 201.397,-184.197"/>
<polygon fill="midnightblue" stroke="midnightblue" points="169.592,-176.405 159.216,-178.546 168.663,-183.343 169.592,-176.405"/>
</g>
<!-- Node86 -->
<g id="node9" class="node"><title>Node86</title>
<g id="a_node9"><a xlink:href="class_little_weeb_library_1_1_handlers_1_1_anime_profile_handler.html#a7469a40799e1067d871ba87679f54c37" target="_top" xlink:title="LittleWeebLibrary.Handlers.\lAnimeProfileHandler.GetCurrently\lAiring">
<polygon fill="white" stroke="black" points="209.5,-120.5 209.5,-161.5 371.5,-161.5 371.5,-120.5 209.5,-120.5"/>
<text text-anchor="start" x="217.5" y="-149.5" font-family="Helvetica,sans-Serif" font-size="10.00">LittleWeebLibrary.Handlers.</text>
<text text-anchor="start" x="217.5" y="-138.5" font-family="Helvetica,sans-Serif" font-size="10.00">AnimeProfileHandler.GetCurrently</text>
<text text-anchor="middle" x="290.5" y="-127.5" font-family="Helvetica,sans-Serif" font-size="10.00">Airing</text>
</a>
</g>
</g>
<!-- Node78&#45;&gt;Node86 -->
<g id="edge10" class="edge"><title>Node78&#45;&gt;Node86</title>
<path fill="none" stroke="midnightblue" d="M169.326,-156.525C182.656,-154.803 196.333,-153.036 209.464,-151.34"/>
<polygon fill="midnightblue" stroke="midnightblue" points="168.685,-153.078 159.216,-157.831 169.582,-160.021 168.685,-153.078"/>
</g>
<!-- Node88 -->
<g id="node11" class="node"><title>Node88</title>
<g id="a_node11"><a xlink:href="class_little_weeb_library_1_1_handlers_1_1_file_history_handler.html#a3b3f0cdedee405d607feff81c2de085d" target="_top" xlink:title="LittleWeebLibrary.Handlers.\lFileHistoryHandler.RemoveFileFrom\lFileHistory">
<polygon fill="white" stroke="black" points="204.5,-60.5 204.5,-101.5 376.5,-101.5 376.5,-60.5 204.5,-60.5"/>
<text text-anchor="start" x="212.5" y="-89.5" font-family="Helvetica,sans-Serif" font-size="10.00">LittleWeebLibrary.Handlers.</text>
<text text-anchor="start" x="212.5" y="-78.5" font-family="Helvetica,sans-Serif" font-size="10.00">FileHistoryHandler.RemoveFileFrom</text>
<text text-anchor="middle" x="290.5" y="-67.5" font-family="Helvetica,sans-Serif" font-size="10.00">FileHistory</text>
</a>
</g>
</g>
<!-- Node78&#45;&gt;Node88 -->
<g id="edge13" class="edge"><title>Node78&#45;&gt;Node88</title>
<path fill="none" stroke="midnightblue" d="M116.771,-148.141C138.966,-136.445 168.165,-121.863 195,-111 203.137,-107.706 211.783,-104.534 220.411,-101.566"/>
<polygon fill="midnightblue" stroke="midnightblue" points="114.9,-145.172 107.714,-152.957 118.187,-151.352 114.9,-145.172"/>
</g>
<!-- Node91 -->
<g id="node14" class="node"><title>Node91</title>
<g id="a_node14"><a xlink:href="class_little_weeb_library_1_1_services_1_1_data_base_web_socket_service.html#a3771a51f4d0aab2cd4f65676427d0902" target="_top" xlink:title="LittleWeebLibrary.Services.\lDataBaseWebSocketService.Update\lDocument">
<polygon fill="white" stroke="black" points="202.5,-0.5 202.5,-41.5 378.5,-41.5 378.5,-0.5 202.5,-0.5"/>
<text text-anchor="start" x="210.5" y="-29.5" font-family="Helvetica,sans-Serif" font-size="10.00">LittleWeebLibrary.Services.</text>
<text text-anchor="start" x="210.5" y="-18.5" font-family="Helvetica,sans-Serif" font-size="10.00">DataBaseWebSocketService.Update</text>
<text text-anchor="middle" x="290.5" y="-7.5" font-family="Helvetica,sans-Serif" font-size="10.00">Document</text>
</a>
</g>
</g>
<!-- Node78&#45;&gt;Node91 -->
<g id="edge16" class="edge"><title>Node78&#45;&gt;Node91</title>
<path fill="none" stroke="midnightblue" d="M97.6989,-144.482C118.123,-118.145 154.555,-75.8973 195,-51 200.717,-47.4809 206.885,-44.3377 213.234,-41.5376"/>
<polygon fill="midnightblue" stroke="midnightblue" points="94.6734,-142.679 91.4035,-152.756 100.244,-146.917 94.6734,-142.679"/>
</g>
<!-- Node80 -->
<g id="node3" class="node"><title>Node80</title>
<g id="a_node3"><a xlink:href="class_little_weeb_library_1_1_services_1_1_info_api_web_socket_service.html#a0ed7b2a1d1fe30b43d06232719570435" target="_top" xlink:title="LittleWeebLibrary.Services.\lInfoApiWebSocketService.AddRule">
<polygon fill="white" stroke="black" points="431,-296 431,-326 599,-326 599,-296 431,-296"/>
<text text-anchor="start" x="439" y="-314" font-family="Helvetica,sans-Serif" font-size="10.00">LittleWeebLibrary.Services.</text>
<text text-anchor="middle" x="515" y="-303" font-family="Helvetica,sans-Serif" font-size="10.00">InfoApiWebSocketService.AddRule</text>
</a>
</g>
</g>
<!-- Node79&#45;&gt;Node80 -->
<g id="edge2" class="edge"><title>Node79&#45;&gt;Node80</title>
<path fill="none" stroke="midnightblue" d="M371.766,-307.164C390.897,-307.68 411.356,-308.232 430.623,-308.752"/>
<polygon fill="midnightblue" stroke="midnightblue" points="371.686,-303.661 361.595,-306.89 371.497,-310.659 371.686,-303.661"/>
</g>
<!-- Node81 -->
<g id="node4" class="node"><title>Node81</title>
<g id="a_node4"><a xlink:href="class_little_weeb_library_1_1_controllers_1_1_sub_controllers_1_1_info_api_web_socket_controller.html#ad620537574b819085ff8eb394add2912" target="_top" xlink:title="LittleWeebLibrary.Controllers.\lSubControllers.InfoApiWebSocketController.\lOnWebSocketEvent">
<polygon fill="white" stroke="black" points="647.5,-205.5 647.5,-246.5 855.5,-246.5 855.5,-205.5 647.5,-205.5"/>
<text text-anchor="start" x="655.5" y="-234.5" font-family="Helvetica,sans-Serif" font-size="10.00">LittleWeebLibrary.Controllers.</text>
<text text-anchor="start" x="655.5" y="-223.5" font-family="Helvetica,sans-Serif" font-size="10.00">SubControllers.InfoApiWebSocketController.</text>
<text text-anchor="middle" x="751.5" y="-212.5" font-family="Helvetica,sans-Serif" font-size="10.00">OnWebSocketEvent</text>
</a>
</g>
</g>
<!-- Node80&#45;&gt;Node81 -->
<g id="edge3" class="edge"><title>Node80&#45;&gt;Node81</title>
<path fill="none" stroke="midnightblue" d="M586.024,-293.021C593.485,-290.794 600.928,-288.438 608,-286 641.372,-274.497 678.059,-258.98 705.851,-246.608"/>
<polygon fill="midnightblue" stroke="midnightblue" points="584.856,-289.716 576.233,-295.871 586.813,-296.437 584.856,-289.716"/>
</g>
<!-- Node83 -->
<g id="node6" class="node"><title>Node83</title>
<g id="a_node6"><a xlink:href="class_little_weeb_library_1_1_services_1_1_info_api_web_socket_service.html#a754f738fba586cc927d64251329c736a" target="_top" xlink:title="LittleWeebLibrary.Services.\lInfoApiWebSocketService.GetAnime\lEpisodes">
<polygon fill="white" stroke="black" points="427.5,-235.5 427.5,-276.5 602.5,-276.5 602.5,-235.5 427.5,-235.5"/>
<text text-anchor="start" x="435.5" y="-264.5" font-family="Helvetica,sans-Serif" font-size="10.00">LittleWeebLibrary.Services.</text>
<text text-anchor="start" x="435.5" y="-253.5" font-family="Helvetica,sans-Serif" font-size="10.00">InfoApiWebSocketService.GetAnime</text>
<text text-anchor="middle" x="515" y="-242.5" font-family="Helvetica,sans-Serif" font-size="10.00">Episodes</text>
</a>
</g>
</g>
<!-- Node82&#45;&gt;Node83 -->
<g id="edge5" class="edge"><title>Node82&#45;&gt;Node83</title>
<path fill="none" stroke="midnightblue" d="M396.435,-252.83C406.724,-253.107 417.085,-253.387 427.165,-253.658"/>
<polygon fill="midnightblue" stroke="midnightblue" points="396.273,-249.324 386.183,-252.553 396.085,-256.322 396.273,-249.324"/>
</g>
<!-- Node83&#45;&gt;Node81 -->
<g id="edge6" class="edge"><title>Node83&#45;&gt;Node81</title>
<path fill="none" stroke="midnightblue" d="M612.588,-243.643C623.985,-242.185 635.651,-240.693 647.137,-239.223"/>
<polygon fill="midnightblue" stroke="midnightblue" points="612.128,-240.174 602.653,-244.914 613.016,-247.117 612.128,-240.174"/>
</g>
<!-- Node85 -->
<g id="node8" class="node"><title>Node85</title>
<g id="a_node8"><a xlink:href="class_little_weeb_library_1_1_services_1_1_info_api_web_socket_service.html#a12f4d83332b28988ce0e2bc5ff3ed369" target="_top" xlink:title="LittleWeebLibrary.Services.\lInfoApiWebSocketService.GetAnime\lProfile">
<polygon fill="white" stroke="black" points="427.5,-175.5 427.5,-216.5 602.5,-216.5 602.5,-175.5 427.5,-175.5"/>
<text text-anchor="start" x="435.5" y="-204.5" font-family="Helvetica,sans-Serif" font-size="10.00">LittleWeebLibrary.Services.</text>
<text text-anchor="start" x="435.5" y="-193.5" font-family="Helvetica,sans-Serif" font-size="10.00">InfoApiWebSocketService.GetAnime</text>
<text text-anchor="middle" x="515" y="-182.5" font-family="Helvetica,sans-Serif" font-size="10.00">Profile</text>
</a>
</g>
</g>
<!-- Node84&#45;&gt;Node85 -->
<g id="edge8" class="edge"><title>Node84&#45;&gt;Node85</title>
<path fill="none" stroke="midnightblue" d="M390.106,-196C402.502,-196 415.11,-196 427.303,-196"/>
<polygon fill="midnightblue" stroke="midnightblue" points="389.757,-192.5 379.757,-196 389.757,-199.5 389.757,-192.5"/>
</g>
<!-- Node85&#45;&gt;Node81 -->
<g id="edge9" class="edge"><title>Node85&#45;&gt;Node81</title>
<path fill="none" stroke="midnightblue" d="M612.588,-208.357C623.985,-209.815 635.651,-211.307 647.137,-212.777"/>
<polygon fill="midnightblue" stroke="midnightblue" points="613.016,-204.883 602.653,-207.086 612.128,-211.826 613.016,-204.883"/>
</g>
<!-- Node87 -->
<g id="node10" class="node"><title>Node87</title>
<g id="a_node10"><a xlink:href="class_little_weeb_library_1_1_services_1_1_info_api_web_socket_service.html#aec42147d67551cb17c458453ef40f3bc" target="_top" xlink:title="LittleWeebLibrary.Services.\lInfoApiWebSocketService.GetCurrently\lAiring">
<polygon fill="white" stroke="black" points="422,-115.5 422,-156.5 608,-156.5 608,-115.5 422,-115.5"/>
<text text-anchor="start" x="430" y="-144.5" font-family="Helvetica,sans-Serif" font-size="10.00">LittleWeebLibrary.Services.</text>
<text text-anchor="start" x="430" y="-133.5" font-family="Helvetica,sans-Serif" font-size="10.00">InfoApiWebSocketService.GetCurrently</text>
<text text-anchor="middle" x="515" y="-122.5" font-family="Helvetica,sans-Serif" font-size="10.00">Airing</text>
</a>
</g>
</g>
<!-- Node86&#45;&gt;Node87 -->
<g id="edge11" class="edge"><title>Node86&#45;&gt;Node87</title>
<path fill="none" stroke="midnightblue" d="M381.566,-138.976C394.837,-138.678 408.524,-138.37 421.836,-138.071"/>
<polygon fill="midnightblue" stroke="midnightblue" points="381.432,-135.478 371.513,-139.202 381.589,-142.476 381.432,-135.478"/>
</g>
<!-- Node87&#45;&gt;Node81 -->
<g id="edge12" class="edge"><title>Node87&#45;&gt;Node81</title>
<path fill="none" stroke="midnightblue" d="M591.194,-159.949C596.901,-161.94 602.554,-163.97 608,-166 640.572,-178.144 676.655,-193.355 704.362,-205.423"/>
<polygon fill="midnightblue" stroke="midnightblue" points="592.164,-156.581 581.569,-156.639 589.887,-163.2 592.164,-156.581"/>
</g>
<!-- Node89 -->
<g id="node12" class="node"><title>Node89</title>
<g id="a_node12"><a xlink:href="class_little_weeb_library_1_1_services_1_1_file_web_socket_service.html#ab1375e8e82a50dfa06d91bebe988d133" target="_top" xlink:title="LittleWeebLibrary.Services.\lFileWebSocketService.DeleteFile">
<polygon fill="white" stroke="black" points="434.5,-66 434.5,-96 595.5,-96 595.5,-66 434.5,-66"/>
<text text-anchor="start" x="442.5" y="-84" font-family="Helvetica,sans-Serif" font-size="10.00">LittleWeebLibrary.Services.</text>
<text text-anchor="middle" x="515" y="-73" font-family="Helvetica,sans-Serif" font-size="10.00">FileWebSocketService.DeleteFile</text>
</a>
</g>
</g>
<!-- Node88&#45;&gt;Node89 -->
<g id="edge14" class="edge"><title>Node88&#45;&gt;Node89</title>
<path fill="none" stroke="midnightblue" d="M386.912,-81C402.766,-81 419.058,-81 434.465,-81"/>
<polygon fill="midnightblue" stroke="midnightblue" points="386.57,-77.5001 376.57,-81 386.57,-84.5001 386.57,-77.5001"/>
</g>
<!-- Node90 -->
<g id="node13" class="node"><title>Node90</title>
<g id="a_node13"><a xlink:href="class_little_weeb_library_1_1_controllers_1_1_file_web_socket_controller.html#a9ecdec41f15ac23a56c402ff2c554a08" target="_top" xlink:title="LittleWeebLibrary.Controllers.\lFileWebSocketController.OnWebSocketEvent">
<polygon fill="white" stroke="black" points="644,-66 644,-96 859,-96 859,-66 644,-66"/>
<text text-anchor="start" x="652" y="-84" font-family="Helvetica,sans-Serif" font-size="10.00">LittleWeebLibrary.Controllers.</text>
<text text-anchor="middle" x="751.5" y="-73" font-family="Helvetica,sans-Serif" font-size="10.00">FileWebSocketController.OnWebSocketEvent</text>
</a>
</g>
</g>
<!-- Node89&#45;&gt;Node90 -->
<g id="edge15" class="edge"><title>Node89&#45;&gt;Node90</title>
<path fill="none" stroke="midnightblue" d="M605.952,-81C618.269,-81 631.012,-81 643.594,-81"/>
<polygon fill="midnightblue" stroke="midnightblue" points="605.718,-77.5001 595.718,-81 605.718,-84.5001 605.718,-77.5001"/>
</g>
<!-- Node92 -->
<g id="node15" class="node"><title>Node92</title>
<g id="a_node15"><a xlink:href="class_little_weeb_library_1_1_controllers_1_1_sub_controllers_1_1_data_base_web_socket_controller.html#a655abc0c42c54c9ff3572e4b4271fa3b" target="_top" xlink:title="LittleWeebLibrary.Controllers.\lSubControllers.DataBaseWebSocket\lController.OnWebSocketEvent">
<polygon fill="white" stroke="black" points="426.5,-0.5 426.5,-41.5 603.5,-41.5 603.5,-0.5 426.5,-0.5"/>
<text text-anchor="start" x="434.5" y="-29.5" font-family="Helvetica,sans-Serif" font-size="10.00">LittleWeebLibrary.Controllers.</text>
<text text-anchor="start" x="434.5" y="-18.5" font-family="Helvetica,sans-Serif" font-size="10.00">SubControllers.DataBaseWebSocket</text>
<text text-anchor="middle" x="515" y="-7.5" font-family="Helvetica,sans-Serif" font-size="10.00">Controller.OnWebSocketEvent</text>
</a>
</g>
</g>
<!-- Node91&#45;&gt;Node92 -->
<g id="edge17" class="edge"><title>Node91&#45;&gt;Node92</title>
<path fill="none" stroke="midnightblue" d="M389.107,-21C401.458,-21 414.037,-21 426.222,-21"/>
<polygon fill="midnightblue" stroke="midnightblue" points="388.799,-17.5001 378.799,-21 388.799,-24.5001 388.799,-17.5001"/>
</g>
</g>
</svg>
        <g id="navigator" transform="translate(0 0)" fill="#404254">
                <rect fill="#f2f5e9" fill-opacity="0.5" stroke="#606060" stroke-width=".5" x="0" y="0" width="60" height="60"/>
                <use id="zoomplus" xlink:href="#zoomPlus" x="17" y="9" onmousedown="handleZoom(evt,'in')"/>
                <use id="zoomminus" xlink:href="#zoomMin" x="42" y="9" onmousedown="handleZoom(evt,'out')"/>
                <use id="reset" xlink:href="#resetDef" x="30" y="36" onmousedown="handleReset()"/>
                <g id="arrowUp" xlink:href="#dirArrow" transform="translate(30 24)" onmousedown="handlePan(0,-1)">
                  <use xlink:href="#rim" fill="#404040">
                        <set attributeName="fill" to="#808080" begin="arrowUp.mouseover" end="arrowUp.mouseout"/>
                  </use>
                  <path fill="none" stroke="white" stroke-width="1.5" d="M0,-3.0v7 M-2.5,-0.5L0,-3.0L2.5,-0.5"/>
                </g>
                <g id="arrowRight" xlink:href="#dirArrow" transform="rotate(90) translate(36 -43)" onmousedown="handlePan(1,0)">
                  <use xlink:href="#rim" fill="#404040">
                        <set attributeName="fill" to="#808080" begin="arrowRight.mouseover" end="arrowRight.mouseout"/>
                  </use>
                  <path fill="none" stroke="white" stroke-width="1.5" d="M0,-3.0v7 M-2.5,-0.5L0,-3.0L2.5,-0.5"/>
                </g>
                <g id="arrowDown" xlink:href="#dirArrow" transform="rotate(180) translate(-30 -48)" onmousedown="handlePan(0,1)">
                  <use xlink:href="#rim" fill="#404040">
                        <set attributeName="fill" to="#808080" begin="arrowDown.mouseover" end="arrowDown.mouseout"/>
                  </use>
                  <path fill="none" stroke="white" stroke-width="1.5" d="M0,-3.0v7 M-2.5,-0.5L0,-3.0L2.5,-0.5"/>
                </g>
                <g id="arrowLeft" xlink:href="#dirArrow" transform="rotate(270) translate(-36 17)" onmousedown="handlePan(-1,0)">
                  <use xlink:href="#rim" fill="#404040">
                        <set attributeName="fill" to="#808080" begin="arrowLeft.mouseover" end="arrowLeft.mouseout"/>
                  </use>
                  <path fill="none" stroke="white" stroke-width="1.5" d="M0,-3.0v7 M-2.5,-0.5L0,-3.0L2.5,-0.5"/>
                </g>
        </g>
        <svg viewBox="0 0 15 15" width="100%" height="30px" preserveAspectRatio="xMaxYMin meet">
         <g id="arrow_out" transform="scale(0.3 0.3)">
          <a xlink:href="class_little_weeb_library_1_1_handlers_1_1_data_base_handler_a9b2223ff71f688234f95d247ea3b5739_icgraph_org.svg" target="_base">
           <rect id="button" ry="5" rx="5" y="6" x="6" height="38" width="38"
                fill="#f2f5e9" fill-opacity="0.5" stroke="#606060" stroke-width="1.0"/>
           <path id="arrow"
             d="M 11.500037,31.436501 C 11.940474,20.09759 22.043105,11.32322 32.158766,21.979434 L 37.068811,17.246167 C 37.068811,17.246167 37.088388,32 37.088388,32 L 22.160133,31.978069 C 22.160133,31.978069 26.997745,27.140456 26.997745,27.140456 C 18.528582,18.264221 13.291696,25.230495 11.500037,31.436501 z"
             style="fill:#404040;"/>
          </a>
         </g>
        </svg>
</svg>
