<?xml version="1.0" encoding="UTF-8" standalone="no"?>
<!DOCTYPE svg PUBLIC "-//W3C//DTD SVG 1.1//EN"
 "http://www.w3.org/Graphics/SVG/1.1/DTD/svg11.dtd">
<!-- Generated by graphviz version 2.38.0 (20140413.2041)
 -->
<!-- Title: LittleWeebLibrary.Handlers.IrcClientHandler.StopDownload Pages: 1 -->
<svg width="822pt" height="94pt"
 viewBox="0.00 0.00 822.00 93.50" xmlns="http://www.w3.org/2000/svg" xmlns:xlink="http://www.w3.org/1999/xlink">
<g id="graph0" class="graph" transform="scale(1 1) rotate(0) translate(4 89.5)">
<title>LittleWeebLibrary.Handlers.IrcClientHandler.StopDownload</title>
<polygon fill="white" stroke="none" points="-4,4 -4,-89.5 818,-89.5 818,4 -4,4"/>
<!-- Node41 -->
<g id="node1" class="node"><title>Node41</title>
<polygon fill="#bfbfbf" stroke="black" points="0,-24.5 0,-54.5 150,-54.5 150,-24.5 0,-24.5"/>
<text text-anchor="start" x="8" y="-42.5" font-family="Helvetica,sans-Serif" font-size="10.00">LittleWeebLibrary.Handlers.</text>
<text text-anchor="middle" x="75" y="-31.5" font-family="Helvetica,sans-Serif" font-size="10.00">IrcClientHandler.StopDownload</text>
</g>
<!-- Node42 -->
<g id="node2" class="node"><title>Node42</title>
<g id="a_node2"><a xlink:href="class_little_weeb_library_1_1_handlers_1_1_download_handler.html#a5a28664c89bf43b921fc9d3f1845b5a1" target="_top" xlink:title="LittleWeebLibrary.Handlers.\lDownloadHandler.AbortDownload">
<polygon fill="white" stroke="black" points="186,-47.5 186,-77.5 346,-77.5 346,-47.5 186,-47.5"/>
<text text-anchor="start" x="194" y="-65.5" font-family="Helvetica,sans-Serif" font-size="10.00">LittleWeebLibrary.Handlers.</text>
<text text-anchor="middle" x="266" y="-54.5" font-family="Helvetica,sans-Serif" font-size="10.00">DownloadHandler.AbortDownload</text>
</a>
</g>
</g>
<!-- Node41&#45;&gt;Node42 -->
<g id="edge1" class="edge"><title>Node41&#45;&gt;Node42</title>
<path fill="none" stroke="midnightblue" d="M160.102,-49.7346C168.634,-50.7729 177.281,-51.8252 185.759,-52.857"/>
<polygon fill="midnightblue" stroke="midnightblue" points="160.505,-46.2579 150.155,-48.5242 159.659,-53.2067 160.505,-46.2579"/>
</g>
<!-- Node45 -->
<g id="node5" class="node"><title>Node45</title>
<g id="a_node5"><a xlink:href="class_little_weeb_library_1_1_start_up.html#aaa6147f0dd162c1962e575689dcb22c5" target="_top" xlink:title="LittleWeebLibrary.StartUp.Stop">
<polygon fill="white" stroke="black" points="190,-8 190,-27 342,-27 342,-8 190,-8"/>
<text text-anchor="middle" x="266" y="-15" font-family="Helvetica,sans-Serif" font-size="10.00">LittleWeebLibrary.StartUp.Stop</text>
</a>
</g>
</g>
<!-- Node41&#45;&gt;Node45 -->
<g id="edge4" class="edge"><title>Node41&#45;&gt;Node45</title>
<path fill="none" stroke="midnightblue" d="M160.324,-29.6846C170.15,-28.5407 180.125,-27.3797 189.816,-26.2515"/>
<polygon fill="midnightblue" stroke="midnightblue" points="159.684,-26.2353 150.155,-30.8682 160.493,-33.1884 159.684,-26.2353"/>
</g>
<!-- Node43 -->
<g id="node3" class="node"><title>Node43</title>
<g id="a_node3"><a xlink:href="class_little_weeb_library_1_1_services_1_1_download_web_socket_service.html#a0ab2f2e6fcb90cd42dfa0de9d6a58f7e" target="_top" xlink:title="LittleWeebLibrary.Services.\lDownloadWebSocketService.AbortDownload">
<polygon fill="white" stroke="black" points="382,-49.5 382,-79.5 591,-79.5 591,-49.5 382,-49.5"/>
<text text-anchor="start" x="390" y="-67.5" font-family="Helvetica,sans-Serif" font-size="10.00">LittleWeebLibrary.Services.</text>
<text text-anchor="middle" x="486.5" y="-56.5" font-family="Helvetica,sans-Serif" font-size="10.00">DownloadWebSocketService.AbortDownload</text>
</a>
</g>
</g>
<!-- Node42&#45;&gt;Node43 -->
<g id="edge2" class="edge"><title>Node42&#45;&gt;Node43</title>
<path fill="none" stroke="midnightblue" d="M356.363,-63.318C364.778,-63.395 373.357,-63.4735 381.89,-63.5516"/>
<polygon fill="midnightblue" stroke="midnightblue" points="356.224,-59.8166 346.192,-63.2249 356.16,-66.8164 356.224,-59.8166"/>
</g>
<!-- Node44 -->
<g id="node4" class="node"><title>Node44</title>
<g id="a_node4"><a xlink:href="class_little_weeb_library_1_1_controllers_1_1_download_web_socket_controller.html#a9e5e421ed57b8b2a294e17d93d027c53" target="_top" xlink:title="LittleWeebLibrary.Controllers.\lDownloadWebSocketController.OnWeb\lSocketEvent">
<polygon fill="white" stroke="black" points="627,-44 627,-85 814,-85 814,-44 627,-44"/>
<text text-anchor="start" x="635" y="-73" font-family="Helvetica,sans-Serif" font-size="10.00">LittleWeebLibrary.Controllers.</text>
<text text-anchor="start" x="635" y="-62" font-family="Helvetica,sans-Serif" font-size="10.00">DownloadWebSocketController.OnWeb</text>
<text text-anchor="middle" x="720.5" y="-51" font-family="Helvetica,sans-Serif" font-size="10.00">SocketEvent</text>
</a>
</g>
</g>
<!-- Node43&#45;&gt;Node44 -->
<g id="edge3" class="edge"><title>Node43&#45;&gt;Node44</title>
<path fill="none" stroke="midnightblue" d="M601.291,-64.5C609.83,-64.5 618.385,-64.5 626.771,-64.5"/>
<polygon fill="midnightblue" stroke="midnightblue" points="601.286,-61.0001 591.286,-64.5 601.286,-68.0001 601.286,-61.0001"/>
</g>
<!-- Node46 -->
<g id="node6" class="node"><title>Node46</title>
<g id="a_node6"><a xlink:href="class_little_weeb_library_1_1_little_weeb.html#abdb53c29265dddd9fa0a27c8bf4d50f2" target="_top" xlink:title="LittleWeebLibrary.Little\lWeeb.Stop">
<polygon fill="white" stroke="black" points="428.5,-0.5 428.5,-30.5 544.5,-30.5 544.5,-0.5 428.5,-0.5"/>
<text text-anchor="start" x="436.5" y="-18.5" font-family="Helvetica,sans-Serif" font-size="10.00">LittleWeebLibrary.Little</text>
<text text-anchor="middle" x="486.5" y="-7.5" font-family="Helvetica,sans-Serif" font-size="10.00">Weeb.Stop</text>
</a>
</g>
</g>
<!-- Node45&#45;&gt;Node46 -->
<g id="edge5" class="edge"><title>Node45&#45;&gt;Node46</title>
<path fill="none" stroke="midnightblue" d="M352.259,-16.7196C377.809,-16.4857 405.201,-16.235 428.464,-16.0221"/>
<polygon fill="midnightblue" stroke="midnightblue" points="352.163,-13.2202 342.195,-16.8117 352.227,-20.2199 352.163,-13.2202"/>
</g>
</g>
</svg>
