<?xml version="1.0" encoding="UTF-8" standalone="no"?>
<!DOCTYPE svg PUBLIC "-//W3C//DTD SVG 1.1//EN"
 "http://www.w3.org/Graphics/SVG/1.1/DTD/svg11.dtd">
<!-- Generated by graphviz version 2.38.0 (20140413.2041)
 -->
<!-- Title: LittleWeebLibrary.Controllers.SubControllers.VersionWebSocketController.OnWebSocketEvent Pages: 1 -->
<svg width="838pt" height="482pt"
 viewBox="0.00 0.00 838.00 481.50" xmlns="http://www.w3.org/2000/svg" xmlns:xlink="http://www.w3.org/1999/xlink">
<g id="graph0" class="graph" transform="scale(1 1) rotate(0) translate(4 477.5)">
<title>LittleWeebLibrary.Controllers.SubControllers.VersionWebSocketController.OnWebSocketEvent</title>
<polygon fill="white" stroke="none" points="-4,4 -4,-477.5 834,-477.5 834,4 -4,4"/>
<!-- Node3 -->
<g id="node1" class="node"><title>Node3</title>
<polygon fill="#bfbfbf" stroke="black" points="0,-115 0,-156 212,-156 212,-115 0,-115"/>
<text text-anchor="start" x="8" y="-144" font-family="Helvetica,sans-Serif" font-size="10.00">LittleWeebLibrary.Controllers.</text>
<text text-anchor="start" x="8" y="-133" font-family="Helvetica,sans-Serif" font-size="10.00">SubControllers.VersionWebSocketController.</text>
<text text-anchor="middle" x="106" y="-122" font-family="Helvetica,sans-Serif" font-size="10.00">OnWebSocketEvent</text>
</g>
<!-- Node4 -->
<g id="node2" class="node"><title>Node4</title>
<g id="a_node2"><a xlink:href="class_little_weeb_library_1_1_services_1_1_version_web_socket_service.html#af1a64a24e2d1b2299b82ba81b3c4a537" target="_top" xlink:title="LittleWeebLibrary.Services.\lVersionWebSocketService.CheckVersion">
<polygon fill="white" stroke="black" points="248,-284.5 248,-314.5 444,-314.5 444,-284.5 248,-284.5"/>
<text text-anchor="start" x="256" y="-302.5" font-family="Helvetica,sans-Serif" font-size="10.00">LittleWeebLibrary.Services.</text>
<text text-anchor="middle" x="346" y="-291.5" font-family="Helvetica,sans-Serif" font-size="10.00">VersionWebSocketService.CheckVersion</text>
</a>
</g>
</g>
<!-- Node3&#45;&gt;Node4 -->
<g id="edge1" class="edge"><title>Node3&#45;&gt;Node4</title>
<path fill="none" stroke="midnightblue" d="M137.143,-156.271C182.854,-187.769 269.206,-247.272 314.895,-278.755"/>
<polygon fill="midnightblue" stroke="midnightblue" points="312.98,-281.686 323.2,-284.478 316.952,-275.922 312.98,-281.686"/>
</g>
<!-- Node5 -->
<g id="node3" class="node"><title>Node5</title>
<g id="a_node3"><a xlink:href="class_little_weeb_library_1_1_handlers_1_1_debug_handler.html#afccb37dfd6b2114af72000c2f4fe4607" target="_top" xlink:title="LittleWeebLibrary.Handlers.\lDebugHandler.TraceMessage">
<polygon fill="white" stroke="black" points="684,-311.5 684,-341.5 828,-341.5 828,-311.5 684,-311.5"/>
<text text-anchor="start" x="692" y="-329.5" font-family="Helvetica,sans-Serif" font-size="10.00">LittleWeebLibrary.Handlers.</text>
<text text-anchor="middle" x="756" y="-318.5" font-family="Helvetica,sans-Serif" font-size="10.00">DebugHandler.TraceMessage</text>
</a>
</g>
</g>
<!-- Node3&#45;&gt;Node5 -->
<g id="edge17" class="edge"><title>Node3&#45;&gt;Node5</title>
<path fill="none" stroke="midnightblue" d="M212.168,-138.774C358.331,-144.041 609.177,-155.943 646,-176.5 696.398,-204.635 729.669,-266.941 745.082,-301.751"/>
<polygon fill="midnightblue" stroke="midnightblue" points="741.971,-303.379 749.123,-311.196 748.407,-300.625 741.971,-303.379"/>
</g>
<!-- Node11 -->
<g id="node9" class="node"><title>Node11</title>
<g id="a_node9"><a xlink:href="class_little_weeb_library_1_1_handlers_1_1_web_socket_handler.html#a1de289d54d665a32c93478c68d3e6ad0" target="_top" xlink:title="LittleWeebLibrary.Handlers.\lWebSocketHandler.SendMessage">
<polygon fill="white" stroke="black" points="480,-186.5 480,-216.5 646,-216.5 646,-186.5 480,-186.5"/>
<text text-anchor="start" x="488" y="-204.5" font-family="Helvetica,sans-Serif" font-size="10.00">LittleWeebLibrary.Handlers.</text>
<text text-anchor="middle" x="563" y="-193.5" font-family="Helvetica,sans-Serif" font-size="10.00">WebSocketHandler.SendMessage</text>
</a>
</g>
</g>
<!-- Node3&#45;&gt;Node11 -->
<g id="edge13" class="edge"><title>Node3&#45;&gt;Node11</title>
<path fill="none" stroke="midnightblue" d="M178.628,-156.072C200.72,-161.798 225.227,-167.529 248,-171.5 321.972,-184.397 406.784,-192.085 469.603,-196.444"/>
<polygon fill="midnightblue" stroke="midnightblue" points="469.67,-199.956 479.884,-197.141 470.144,-192.972 469.67,-199.956"/>
</g>
<!-- Node12 -->
<g id="node10" class="node"><title>Node12</title>
<g id="a_node10"><a xlink:href="class_little_weeb_library_1_1_models_1_1_json_error.html#a0e3e7dd2e2990404b7f0461742b23440" target="_top" xlink:title="LittleWeebLibrary.Models.\lJsonError.ToJson">
<polygon fill="white" stroke="black" points="281,-98.5 281,-128.5 411,-128.5 411,-98.5 281,-98.5"/>
<text text-anchor="start" x="289" y="-116.5" font-family="Helvetica,sans-Serif" font-size="10.00">LittleWeebLibrary.Models.</text>
<text text-anchor="middle" x="346" y="-105.5" font-family="Helvetica,sans-Serif" font-size="10.00">JsonError.ToJson</text>
</a>
</g>
</g>
<!-- Node3&#45;&gt;Node12 -->
<g id="edge14" class="edge"><title>Node3&#45;&gt;Node12</title>
<path fill="none" stroke="midnightblue" d="M212.083,-125.786C231.836,-123.961 252.107,-122.087 270.68,-120.37"/>
<polygon fill="midnightblue" stroke="midnightblue" points="271.174,-123.839 280.809,-119.434 270.53,-116.869 271.174,-123.839"/>
</g>
<!-- Node13 -->
<g id="node11" class="node"><title>Node13</title>
<g id="a_node11"><a xlink:href="class_little_weeb_library_1_1_event_arguments_1_1_web_socket_event_args.html#acf402c2f7fd4ddbf175fea7f921ea879" target="_top" xlink:title="LittleWeebLibrary.EventArguments.\lWebSocketEventArgs.ToString">
<polygon fill="white" stroke="black" points="261,-49.5 261,-79.5 431,-79.5 431,-49.5 261,-49.5"/>
<text text-anchor="start" x="269" y="-67.5" font-family="Helvetica,sans-Serif" font-size="10.00">LittleWeebLibrary.EventArguments.</text>
<text text-anchor="middle" x="346" y="-56.5" font-family="Helvetica,sans-Serif" font-size="10.00">WebSocketEventArgs.ToString</text>
</a>
</g>
</g>
<!-- Node3&#45;&gt;Node13 -->
<g id="edge15" class="edge"><title>Node3&#45;&gt;Node13</title>
<path fill="none" stroke="midnightblue" d="M165.329,-114.904C190.6,-106.281 220.615,-96.4386 248,-88.5 255.498,-86.3265 263.357,-84.1755 271.219,-82.1063"/>
<polygon fill="midnightblue" stroke="midnightblue" points="272.348,-85.4293 281.151,-79.5335 270.593,-78.6529 272.348,-85.4293"/>
</g>
<!-- Node14 -->
<g id="node12" class="node"><title>Node14</title>
<g id="a_node12"><a xlink:href="class_little_weeb_library_1_1_models_1_1_json_error.html#ad7d5522c90119111d2e929f39e7f6d3c" target="_top" xlink:title="LittleWeebLibrary.Models.\lJsonError.ToString">
<polygon fill="white" stroke="black" points="281,-0.5 281,-30.5 411,-30.5 411,-0.5 281,-0.5"/>
<text text-anchor="start" x="289" y="-18.5" font-family="Helvetica,sans-Serif" font-size="10.00">LittleWeebLibrary.Models.</text>
<text text-anchor="middle" x="346" y="-7.5" font-family="Helvetica,sans-Serif" font-size="10.00">JsonError.ToString</text>
</a>
</g>
</g>
<!-- Node3&#45;&gt;Node14 -->
<g id="edge16" class="edge"><title>Node3&#45;&gt;Node14</title>
<path fill="none" stroke="midnightblue" d="M131.361,-114.892C158.262,-93.1374 203.657,-59.3108 248,-39.5 255.319,-36.23 263.157,-33.3585 271.087,-30.8482"/>
<polygon fill="midnightblue" stroke="midnightblue" points="272.193,-34.171 280.778,-27.9628 270.195,-27.4621 272.193,-34.171"/>
</g>
<!-- Node4&#45;&gt;Node5 -->
<g id="edge2" class="edge"><title>Node4&#45;&gt;Node5</title>
<path fill="none" stroke="midnightblue" d="M363.478,-314.553C387.17,-335.068 433.181,-370.817 480,-384.5 550.815,-405.196 574.417,-402.36 646,-384.5 674.936,-377.281 704.613,-360.778 725.681,-347.215"/>
<polygon fill="midnightblue" stroke="midnightblue" points="727.74,-350.049 734.155,-341.617 723.882,-344.208 727.74,-350.049"/>
</g>
<!-- Node6 -->
<g id="node4" class="node"><title>Node6</title>
<g id="a_node4"><a xlink:href="class_little_weeb_library_1_1_handlers_1_1_version_handler.html#ad4dc752be10a1b3cc2d546dc1d4d6bff" target="_top" xlink:title="LittleWeebLibrary.Handlers.\lVersionHandler.GetLatestVersion\lDesktop">
<polygon fill="white" stroke="black" points="482.5,-432 482.5,-473 643.5,-473 643.5,-432 482.5,-432"/>
<text text-anchor="start" x="490.5" y="-461" font-family="Helvetica,sans-Serif" font-size="10.00">LittleWeebLibrary.Handlers.</text>
<text text-anchor="start" x="490.5" y="-450" font-family="Helvetica,sans-Serif" font-size="10.00">VersionHandler.GetLatestVersion</text>
<text text-anchor="middle" x="563" y="-439" font-family="Helvetica,sans-Serif" font-size="10.00">Desktop</text>
</a>
</g>
</g>
<!-- Node4&#45;&gt;Node6 -->
<g id="edge3" class="edge"><title>Node4&#45;&gt;Node6</title>
<path fill="none" stroke="midnightblue" d="M360.883,-314.644C383.783,-338.928 431.756,-386.946 480,-417.5 485.623,-421.061 491.671,-424.414 497.841,-427.527"/>
<polygon fill="midnightblue" stroke="midnightblue" points="496.408,-430.721 506.935,-431.913 499.449,-424.416 496.408,-430.721"/>
</g>
<!-- Node8 -->
<g id="node6" class="node"><title>Node8</title>
<g id="a_node6"><a xlink:href="class_little_weeb_library_1_1_handlers_1_1_version_handler.html#a4021041fcc24a7f9489060c598222891" target="_top" xlink:title="LittleWeebLibrary.Handlers.\lVersionHandler.GetLatestVersion\lAndroid">
<polygon fill="white" stroke="black" points="482.5,-334 482.5,-375 643.5,-375 643.5,-334 482.5,-334"/>
<text text-anchor="start" x="490.5" y="-363" font-family="Helvetica,sans-Serif" font-size="10.00">LittleWeebLibrary.Handlers.</text>
<text text-anchor="start" x="490.5" y="-352" font-family="Helvetica,sans-Serif" font-size="10.00">VersionHandler.GetLatestVersion</text>
<text text-anchor="middle" x="563" y="-341" font-family="Helvetica,sans-Serif" font-size="10.00">Android</text>
</a>
</g>
</g>
<!-- Node4&#45;&gt;Node8 -->
<g id="edge6" class="edge"><title>Node4&#45;&gt;Node8</title>
<path fill="none" stroke="midnightblue" d="M405.75,-314.529C426.327,-319.793 449.929,-325.831 472.449,-331.592"/>
<polygon fill="midnightblue" stroke="midnightblue" points="471.807,-335.04 482.362,-334.127 473.541,-328.258 471.807,-335.04"/>
</g>
<!-- Node9 -->
<g id="node7" class="node"><title>Node9</title>
<g id="a_node7"><a xlink:href="class_little_weeb_library_1_1_handlers_1_1_version_handler.html#ac2510dcad764a9c925d8da152740f095" target="_top" xlink:title="LittleWeebLibrary.Handlers.\lVersionHandler.GetLocalVersion">
<polygon fill="white" stroke="black" points="484,-284.5 484,-314.5 642,-314.5 642,-284.5 484,-284.5"/>
<text text-anchor="start" x="492" y="-302.5" font-family="Helvetica,sans-Serif" font-size="10.00">LittleWeebLibrary.Handlers.</text>
<text text-anchor="middle" x="563" y="-291.5" font-family="Helvetica,sans-Serif" font-size="10.00">VersionHandler.GetLocalVersion</text>
</a>
</g>
</g>
<!-- Node4&#45;&gt;Node9 -->
<g id="edge8" class="edge"><title>Node4&#45;&gt;Node9</title>
<path fill="none" stroke="midnightblue" d="M444.121,-299.5C454.032,-299.5 464.062,-299.5 473.87,-299.5"/>
<polygon fill="midnightblue" stroke="midnightblue" points="473.995,-303 483.995,-299.5 473.995,-296 473.995,-303"/>
</g>
<!-- Node10 -->
<g id="node8" class="node"><title>Node10</title>
<g id="a_node8"><a xlink:href="class_little_weeb_library_1_1_models_1_1_json_version_info.html#a79b72a4b31accba79e2fbf1ca93297c4" target="_top" xlink:title="LittleWeebLibrary.Models.\lJsonVersionInfo.ToJson">
<polygon fill="white" stroke="black" points="498,-235.5 498,-265.5 628,-265.5 628,-235.5 498,-235.5"/>
<text text-anchor="start" x="506" y="-253.5" font-family="Helvetica,sans-Serif" font-size="10.00">LittleWeebLibrary.Models.</text>
<text text-anchor="middle" x="563" y="-242.5" font-family="Helvetica,sans-Serif" font-size="10.00">JsonVersionInfo.ToJson</text>
</a>
</g>
</g>
<!-- Node4&#45;&gt;Node10 -->
<g id="edge10" class="edge"><title>Node4&#45;&gt;Node10</title>
<path fill="none" stroke="midnightblue" d="M412.968,-284.465C436.619,-279.075 463.439,-272.963 487.745,-267.423"/>
<polygon fill="midnightblue" stroke="midnightblue" points="488.661,-270.804 497.633,-265.17 487.105,-263.979 488.661,-270.804"/>
</g>
<!-- Node4&#45;&gt;Node11 -->
<g id="edge11" class="edge"><title>Node4&#45;&gt;Node11</title>
<path fill="none" stroke="midnightblue" d="M370.763,-284.494C396.807,-268.52 440.195,-243.28 480,-226.5 485.447,-224.204 491.178,-222.018 496.973,-219.964"/>
<polygon fill="midnightblue" stroke="midnightblue" points="498.41,-223.172 506.748,-216.636 496.154,-216.546 498.41,-223.172"/>
</g>
<!-- Node6&#45;&gt;Node5 -->
<g id="edge4" class="edge"><title>Node6&#45;&gt;Node5</title>
<path fill="none" stroke="midnightblue" d="M618.497,-431.899C627.911,-427.598 637.42,-422.755 646,-417.5 678.435,-397.635 711.366,-368.66 732.414,-348.772"/>
<polygon fill="midnightblue" stroke="midnightblue" points="735.069,-351.076 739.873,-341.633 730.229,-346.019 735.069,-351.076"/>
</g>
<!-- Node7 -->
<g id="node5" class="node"><title>Node7</title>
<g id="a_node5"><a xlink:href="class_little_weeb_library_1_1_static_classes_1_1_utility_methods.html#afc8c716f32bc35d59afdb287be06c3ca" target="_top" xlink:title="LittleWeebLibrary.Static\lClasses.UtilityMethods.Check\lOperatingSystems">
<polygon fill="white" stroke="black" points="682,-432 682,-473 830,-473 830,-432 682,-432"/>
<text text-anchor="start" x="690" y="-461" font-family="Helvetica,sans-Serif" font-size="10.00">LittleWeebLibrary.Static</text>
<text text-anchor="start" x="690" y="-450" font-family="Helvetica,sans-Serif" font-size="10.00">Classes.UtilityMethods.Check</text>
<text text-anchor="middle" x="756" y="-439" font-family="Helvetica,sans-Serif" font-size="10.00">OperatingSystems</text>
</a>
</g>
</g>
<!-- Node6&#45;&gt;Node7 -->
<g id="edge5" class="edge"><title>Node6&#45;&gt;Node7</title>
<path fill="none" stroke="midnightblue" d="M643.618,-452.5C652.939,-452.5 662.468,-452.5 671.836,-452.5"/>
<polygon fill="midnightblue" stroke="midnightblue" points="671.92,-456 681.92,-452.5 671.92,-449 671.92,-456"/>
</g>
<!-- Node8&#45;&gt;Node5 -->
<g id="edge7" class="edge"><title>Node8&#45;&gt;Node5</title>
<path fill="none" stroke="midnightblue" d="M643.618,-342.828C653.598,-341.365 663.816,-339.867 673.82,-338.401"/>
<polygon fill="midnightblue" stroke="midnightblue" points="674.349,-341.861 683.735,-336.947 673.333,-334.935 674.349,-341.861"/>
</g>
<!-- Node9&#45;&gt;Node5 -->
<g id="edge9" class="edge"><title>Node9&#45;&gt;Node5</title>
<path fill="none" stroke="midnightblue" d="M642.238,-310.56C652.7,-312.039 663.447,-313.558 673.955,-315.043"/>
<polygon fill="midnightblue" stroke="midnightblue" points="673.549,-318.521 683.94,-316.455 674.529,-311.59 673.549,-318.521"/>
</g>
<!-- Node11&#45;&gt;Node5 -->
<g id="edge12" class="edge"><title>Node11&#45;&gt;Node5</title>
<path fill="none" stroke="midnightblue" d="M624.424,-216.51C631.908,-219.349 639.281,-222.66 646,-226.5 681.745,-246.926 715.466,-280.985 735.681,-303.592"/>
<polygon fill="midnightblue" stroke="midnightblue" points="733.269,-306.15 742.496,-311.357 738.53,-301.532 733.269,-306.15"/>
</g>
</g>
</svg>
