<?xml version="1.0" encoding="UTF-8" standalone="no"?>
<!DOCTYPE svg PUBLIC "-//W3C//DTD SVG 1.1//EN"
 "http://www.w3.org/Graphics/SVG/1.1/DTD/svg11.dtd">
<!-- Generated by graphviz version 2.38.0 (20140413.2041)
 -->
<!-- Title: LittleWeebLibrary.StaticClasses.UtilityMethods.Zip Pages: 1 -->
<!--zoomable 357 -->
<svg id="main" version="1.1" xmlns="http://www.w3.org/2000/svg" xmlns:xlink="http://www.w3.org/1999/xlink" xml:space="preserve" onload="init(evt)">
<style type="text/css"><![CDATA[
.edge:hover path { stroke: red; }
.edge:hover polygon { stroke: red; fill: red; }
]]></style>
<script type="text/javascript"><![CDATA[
var edges = document.getElementsByTagName('g');
if (edges && edges.length) {
  for (var i=0;i<edges.length;i++) {
    if (edges[i].id.substr(0,4)=='edge') {
      edges[i].setAttribute('class','edge');
    }
  }
}
]]></script>
        <defs>
                <circle id="rim" cx="0" cy="0" r="7"/>
                <circle id="rim2" cx="0" cy="0" r="3.5"/>
                <g id="zoomPlus">
                        <use xlink:href="#rim" fill="#404040">
                                <set attributeName="fill" to="#808080" begin="zoomplus.mouseover" end="zoomplus.mouseout"/>
                        </use>
                        <path d="M-4,0h8M0,-4v8" fill="none" stroke="white" stroke-width="1.5" pointer-events="none"/>
                </g>
                <g id="zoomMin">
                        <use xlink:href="#rim" fill="#404040">
                                <set attributeName="fill" to="#808080" begin="zoomminus.mouseover" end="zoomminus.mouseout"/>
                        </use>
                        <path d="M-4,0h8" fill="none" stroke="white" stroke-width="1.5" pointer-events="none"/>
                </g>
                <g id="dirArrow">
                        <path fill="none" stroke="white" stroke-width="1.5" d="M0,-3.0v7 M-2.5,-0.5L0,-3.0L2.5,-0.5"/>
                </g>
               <g id="resetDef">
                       <use xlink:href="#rim2" fill="#404040">
                               <set attributeName="fill" to="#808080" begin="reset.mouseover" end="reset.mouseout"/>
                       </use>
               </g>
        </defs>

<script type="text/javascript">
var viewWidth = 1066;
var viewHeight = 357;
var sectionId = 'dynsection-6';
</script>
<script xlink:href="svgpan.js"/>
<svg id="graph" class="graph">
<g id="viewport">
<title>LittleWeebLibrary.StaticClasses.UtilityMethods.Zip</title>
<polygon fill="white" stroke="none" points="-4,4 -4,-353 1062,-353 1062,4 -4,4"/>
<!-- Node31 -->
<g id="node1" class="node"><title>Node31</title>
<polygon fill="#bfbfbf" stroke="black" points="0,-170 0,-200 133,-200 133,-170 0,-170"/>
<text text-anchor="start" x="8" y="-188" font-family="Helvetica,sans-Serif" font-size="10.00">LittleWeebLibrary.Static</text>
<text text-anchor="middle" x="66.5" y="-177" font-family="Helvetica,sans-Serif" font-size="10.00">Classes.UtilityMethods.Zip</text>
</g>
<!-- Node32 -->
<g id="node2" class="node"><title>Node32</title>
<g id="a_node2"><a xlink:href="class_little_weeb_library_1_1_handlers_1_1_data_base_handler.html#a5e6a70ef81b049da46b6ae3a15b09cd3" target="_top" xlink:title="LittleWeebLibrary.Handlers.\lDataBaseHandler.StoreJObject">
<polygon fill="white" stroke="black" points="169,-170 169,-200 321,-200 321,-170 169,-170"/>
<text text-anchor="start" x="177" y="-188" font-family="Helvetica,sans-Serif" font-size="10.00">LittleWeebLibrary.Handlers.</text>
<text text-anchor="middle" x="245" y="-177" font-family="Helvetica,sans-Serif" font-size="10.00">DataBaseHandler.StoreJObject</text>
</a>
</g>
</g>
<!-- Node31&#45;&gt;Node32 -->
<g id="edge1" class="edge"><title>Node31&#45;&gt;Node32</title>
<path fill="none" stroke="midnightblue" d="M143.369,-185C151.767,-185 160.317,-185 168.708,-185"/>
<polygon fill="midnightblue" stroke="midnightblue" points="143.222,-181.5 133.222,-185 143.222,-188.5 143.222,-181.5"/>
</g>
<!-- Node33 -->
<g id="node3" class="node"><title>Node33</title>
<g id="a_node3"><a xlink:href="class_little_weeb_library_1_1_handlers_1_1_file_history_handler.html#a615bf14eae35f656b211f0500abe4d29" target="_top" xlink:title="LittleWeebLibrary.Handlers.\lFileHistoryHandler.AddFileToFile\lHistory">
<polygon fill="white" stroke="black" points="384,-307.5 384,-348.5 542,-348.5 542,-307.5 384,-307.5"/>
<text text-anchor="start" x="392" y="-336.5" font-family="Helvetica,sans-Serif" font-size="10.00">LittleWeebLibrary.Handlers.</text>
<text text-anchor="start" x="392" y="-325.5" font-family="Helvetica,sans-Serif" font-size="10.00">FileHistoryHandler.AddFileToFile</text>
<text text-anchor="middle" x="463" y="-314.5" font-family="Helvetica,sans-Serif" font-size="10.00">History</text>
</a>
</g>
</g>
<!-- Node32&#45;&gt;Node33 -->
<g id="edge2" class="edge"><title>Node32&#45;&gt;Node33</title>
<path fill="none" stroke="midnightblue" d="M265.145,-207.992C285.724,-231.432 320.439,-267.462 357,-290 367.974,-296.765 380.332,-302.58 392.614,-307.481"/>
<polygon fill="midnightblue" stroke="midnightblue" points="267.66,-205.549 258.475,-200.268 262.362,-210.125 267.66,-205.549"/>
</g>
<!-- Node35 -->
<g id="node5" class="node"><title>Node35</title>
<g id="a_node5"><a xlink:href="class_little_weeb_library_1_1_services_1_1_info_api_web_socket_service.html#a310f91aba5d17d8202aea81442da2545" target="_top" xlink:title="LittleWeebLibrary.Services.\lInfoApiWebSocketService.GetAllCategories">
<polygon fill="white" stroke="black" points="607,-268 607,-298 812,-298 812,-268 607,-268"/>
<text text-anchor="start" x="615" y="-286" font-family="Helvetica,sans-Serif" font-size="10.00">LittleWeebLibrary.Services.</text>
<text text-anchor="middle" x="709.5" y="-275" font-family="Helvetica,sans-Serif" font-size="10.00">InfoApiWebSocketService.GetAllCategories</text>
</a>
</g>
</g>
<!-- Node32&#45;&gt;Node35 -->
<g id="edge4" class="edge"><title>Node32&#45;&gt;Node35</title>
<path fill="none" stroke="midnightblue" d="M284.11,-204.49C305.113,-214.453 331.94,-225.937 357,-233 439.316,-256.201 535.658,-268.94 606.641,-275.743"/>
<polygon fill="midnightblue" stroke="midnightblue" points="285.425,-201.237 274.898,-200.04 282.38,-207.541 285.425,-201.237"/>
</g>
<!-- Node37 -->
<g id="node7" class="node"><title>Node37</title>
<g id="a_node7"><a xlink:href="class_little_weeb_library_1_1_services_1_1_info_api_web_socket_service.html#a2882975741be27c69b461509d48e2636" target="_top" xlink:title="LittleWeebLibrary.Services.\lInfoApiWebSocketService.GetAllGenres">
<polygon fill="white" stroke="black" points="614.5,-219 614.5,-249 804.5,-249 804.5,-219 614.5,-219"/>
<text text-anchor="start" x="622.5" y="-237" font-family="Helvetica,sans-Serif" font-size="10.00">LittleWeebLibrary.Services.</text>
<text text-anchor="middle" x="709.5" y="-226" font-family="Helvetica,sans-Serif" font-size="10.00">InfoApiWebSocketService.GetAllGenres</text>
</a>
</g>
</g>
<!-- Node32&#45;&gt;Node37 -->
<g id="edge6" class="edge"><title>Node32&#45;&gt;Node37</title>
<path fill="none" stroke="midnightblue" d="M317.775,-202.074C330.772,-204.721 344.246,-207.177 357,-209 443.756,-221.4 543.482,-227.751 614.496,-230.94"/>
<polygon fill="midnightblue" stroke="midnightblue" points="318.453,-198.64 307.949,-200.02 317.021,-205.492 318.453,-198.64"/>
</g>
<!-- Node38 -->
<g id="node8" class="node"><title>Node38</title>
<g id="a_node8"><a xlink:href="class_little_weeb_library_1_1_handlers_1_1_anime_profile_handler.html#aaa89fba506cfcdad18a5aa3f9b860061" target="_top" xlink:title="LittleWeebLibrary.Handlers.\lAnimeProfileHandler.GetAnimeProfile">
<polygon fill="white" stroke="black" points="374,-170 374,-200 552,-200 552,-170 374,-170"/>
<text text-anchor="start" x="382" y="-188" font-family="Helvetica,sans-Serif" font-size="10.00">LittleWeebLibrary.Handlers.</text>
<text text-anchor="middle" x="463" y="-177" font-family="Helvetica,sans-Serif" font-size="10.00">AnimeProfileHandler.GetAnimeProfile</text>
</a>
</g>
</g>
<!-- Node32&#45;&gt;Node38 -->
<g id="edge8" class="edge"><title>Node32&#45;&gt;Node38</title>
<path fill="none" stroke="midnightblue" d="M331.281,-185C345.214,-185 359.675,-185 373.679,-185"/>
<polygon fill="midnightblue" stroke="midnightblue" points="331.243,-181.5 321.243,-185 331.243,-188.5 331.243,-181.5"/>
</g>
<!-- Node40 -->
<g id="node10" class="node"><title>Node40</title>
<g id="a_node10"><a xlink:href="class_little_weeb_library_1_1_services_1_1_info_api_web_socket_service.html#a5f91364bc403db5d521f15881a385143" target="_top" xlink:title="LittleWeebLibrary.Services.\lInfoApiWebSocketService.GetBotList">
<polygon fill="white" stroke="black" points="374,-121 374,-151 552,-151 552,-121 374,-121"/>
<text text-anchor="start" x="382" y="-139" font-family="Helvetica,sans-Serif" font-size="10.00">LittleWeebLibrary.Services.</text>
<text text-anchor="middle" x="463" y="-128" font-family="Helvetica,sans-Serif" font-size="10.00">InfoApiWebSocketService.GetBotList</text>
</a>
</g>
</g>
<!-- Node32&#45;&gt;Node40 -->
<g id="edge11" class="edge"><title>Node32&#45;&gt;Node40</title>
<path fill="none" stroke="midnightblue" d="M322.077,-167.742C346.144,-162.282 372.536,-156.295 395.85,-151.006"/>
<polygon fill="midnightblue" stroke="midnightblue" points="321.253,-164.34 312.275,-169.965 322.802,-171.166 321.253,-164.34"/>
</g>
<!-- Node41 -->
<g id="node11" class="node"><title>Node41</title>
<g id="a_node11"><a xlink:href="class_little_weeb_library_1_1_handlers_1_1_anime_profile_handler.html#a7469a40799e1067d871ba87679f54c37" target="_top" xlink:title="LittleWeebLibrary.Handlers.\lAnimeProfileHandler.GetCurrently\lAiring">
<polygon fill="white" stroke="black" points="382,-60.5 382,-101.5 544,-101.5 544,-60.5 382,-60.5"/>
<text text-anchor="start" x="390" y="-89.5" font-family="Helvetica,sans-Serif" font-size="10.00">LittleWeebLibrary.Handlers.</text>
<text text-anchor="start" x="390" y="-78.5" font-family="Helvetica,sans-Serif" font-size="10.00">AnimeProfileHandler.GetCurrently</text>
<text text-anchor="middle" x="463" y="-67.5" font-family="Helvetica,sans-Serif" font-size="10.00">Airing</text>
</a>
</g>
</g>
<!-- Node32&#45;&gt;Node41 -->
<g id="edge13" class="edge"><title>Node32&#45;&gt;Node41</title>
<path fill="none" stroke="midnightblue" d="M272.627,-163.798C294.283,-147.432 326.193,-125.246 357,-111 364.916,-107.34 373.377,-104.026 381.932,-101.053"/>
<polygon fill="midnightblue" stroke="midnightblue" points="270.377,-161.113 264.572,-169.976 274.637,-166.668 270.377,-161.113"/>
</g>
<!-- Node43 -->
<g id="node13" class="node"><title>Node43</title>
<g id="a_node13"><a xlink:href="class_little_weeb_library_1_1_services_1_1_data_base_web_socket_service.html#af85671a494e85f8418f60606566521f0" target="_top" xlink:title="LittleWeebLibrary.Services.\lDataBaseWebSocketService.StoreDocument">
<polygon fill="white" stroke="black" points="357,-9 357,-39 569,-39 569,-9 357,-9"/>
<text text-anchor="start" x="365" y="-27" font-family="Helvetica,sans-Serif" font-size="10.00">LittleWeebLibrary.Services.</text>
<text text-anchor="middle" x="463" y="-16" font-family="Helvetica,sans-Serif" font-size="10.00">DataBaseWebSocketService.StoreDocument</text>
</a>
</g>
</g>
<!-- Node32&#45;&gt;Node43 -->
<g id="edge16" class="edge"><title>Node32&#45;&gt;Node43</title>
<path fill="none" stroke="midnightblue" d="M259.208,-161.23C277.287,-130.944 312.615,-79.1586 357,-51 364.549,-46.2105 372.912,-42.2688 381.527,-39.0252"/>
<polygon fill="midnightblue" stroke="midnightblue" points="256.173,-159.486 254.161,-169.888 262.221,-163.012 256.173,-159.486"/>
</g>
<!-- Node34 -->
<g id="node4" class="node"><title>Node34</title>
<g id="a_node4"><a xlink:href="class_little_weeb_library_1_1_handlers_1_1_download_handler.html#a8e40df55d254c0b95bb0a72becde5039" target="_top" xlink:title="LittleWeebLibrary.Handlers.\lDownloadHandler.OnIrcClientDownloadEvent">
<polygon fill="white" stroke="black" points="605,-317 605,-347 814,-347 814,-317 605,-317"/>
<text text-anchor="start" x="613" y="-335" font-family="Helvetica,sans-Serif" font-size="10.00">LittleWeebLibrary.Handlers.</text>
<text text-anchor="middle" x="709.5" y="-324" font-family="Helvetica,sans-Serif" font-size="10.00">DownloadHandler.OnIrcClientDownloadEvent</text>
</a>
</g>
</g>
<!-- Node33&#45;&gt;Node34 -->
<g id="edge3" class="edge"><title>Node33&#45;&gt;Node34</title>
<path fill="none" stroke="midnightblue" d="M552.487,-329.448C569.492,-329.726 587.444,-330.02 604.878,-330.305"/>
<polygon fill="midnightblue" stroke="midnightblue" points="552.09,-325.941 542.034,-329.277 551.975,-332.94 552.09,-325.941"/>
</g>
<!-- Node36 -->
<g id="node6" class="node"><title>Node36</title>
<g id="a_node6"><a xlink:href="class_little_weeb_library_1_1_controllers_1_1_sub_controllers_1_1_info_api_web_socket_controller.html#ad620537574b819085ff8eb394add2912" target="_top" xlink:title="LittleWeebLibrary.Controllers.\lSubControllers.InfoApiWebSocketController.\lOnWebSocketEvent">
<polygon fill="white" stroke="black" points="850,-158.5 850,-199.5 1058,-199.5 1058,-158.5 850,-158.5"/>
<text text-anchor="start" x="858" y="-187.5" font-family="Helvetica,sans-Serif" font-size="10.00">LittleWeebLibrary.Controllers.</text>
<text text-anchor="start" x="858" y="-176.5" font-family="Helvetica,sans-Serif" font-size="10.00">SubControllers.InfoApiWebSocketController.</text>
<text text-anchor="middle" x="954" y="-165.5" font-family="Helvetica,sans-Serif" font-size="10.00">OnWebSocketEvent</text>
</a>
</g>
</g>
<!-- Node35&#45;&gt;Node36 -->
<g id="edge5" class="edge"><title>Node35&#45;&gt;Node36</title>
<path fill="none" stroke="midnightblue" d="M794.018,-264.992C800.853,-262.865 807.591,-260.537 814,-258 853.358,-242.421 895.151,-217.368 922.51,-199.658"/>
<polygon fill="midnightblue" stroke="midnightblue" points="792.559,-261.773 783.961,-267.964 794.543,-268.486 792.559,-261.773"/>
</g>
<!-- Node37&#45;&gt;Node36 -->
<g id="edge7" class="edge"><title>Node37&#45;&gt;Node36</title>
<path fill="none" stroke="midnightblue" d="M786.523,-216.758C810.544,-211.31 837.329,-205.235 862.271,-199.578"/>
<polygon fill="midnightblue" stroke="midnightblue" points="785.742,-213.346 776.764,-218.971 787.291,-220.172 785.742,-213.346"/>
</g>
<!-- Node39 -->
<g id="node9" class="node"><title>Node39</title>
<g id="a_node9"><a xlink:href="class_little_weeb_library_1_1_services_1_1_info_api_web_socket_service.html#a12f4d83332b28988ce0e2bc5ff3ed369" target="_top" xlink:title="LittleWeebLibrary.Services.\lInfoApiWebSocketService.GetAnime\lProfile">
<polygon fill="white" stroke="black" points="622,-158.5 622,-199.5 797,-199.5 797,-158.5 622,-158.5"/>
<text text-anchor="start" x="630" y="-187.5" font-family="Helvetica,sans-Serif" font-size="10.00">LittleWeebLibrary.Services.</text>
<text text-anchor="start" x="630" y="-176.5" font-family="Helvetica,sans-Serif" font-size="10.00">InfoApiWebSocketService.GetAnime</text>
<text text-anchor="middle" x="709.5" y="-165.5" font-family="Helvetica,sans-Serif" font-size="10.00">Profile</text>
</a>
</g>
</g>
<!-- Node38&#45;&gt;Node39 -->
<g id="edge9" class="edge"><title>Node38&#45;&gt;Node39</title>
<path fill="none" stroke="midnightblue" d="M562.482,-182.583C582.182,-182.1 602.739,-181.595 621.997,-181.123"/>
<polygon fill="midnightblue" stroke="midnightblue" points="562.181,-179.089 552.27,-182.834 562.353,-186.087 562.181,-179.089"/>
</g>
<!-- Node39&#45;&gt;Node36 -->
<g id="edge10" class="edge"><title>Node39&#45;&gt;Node36</title>
<path fill="none" stroke="midnightblue" d="M807.167,-179C821.229,-179 835.752,-179 849.934,-179"/>
<polygon fill="midnightblue" stroke="midnightblue" points="807.021,-175.5 797.021,-179 807.021,-182.5 807.021,-175.5"/>
</g>
<!-- Node40&#45;&gt;Node36 -->
<g id="edge12" class="edge"><title>Node40&#45;&gt;Node36</title>
<path fill="none" stroke="midnightblue" d="M562.27,-135.058C632.627,-135.501 729.468,-138.391 814,-149 832.004,-151.26 851.128,-154.695 869.244,-158.444"/>
<polygon fill="midnightblue" stroke="midnightblue" points="562.103,-131.557 552.086,-135.01 562.07,-138.557 562.103,-131.557"/>
</g>
<!-- Node42 -->
<g id="node12" class="node"><title>Node42</title>
<g id="a_node12"><a xlink:href="class_little_weeb_library_1_1_services_1_1_info_api_web_socket_service.html#aec42147d67551cb17c458453ef40f3bc" target="_top" xlink:title="LittleWeebLibrary.Services.\lInfoApiWebSocketService.GetCurrently\lAiring">
<polygon fill="white" stroke="black" points="616.5,-60.5 616.5,-101.5 802.5,-101.5 802.5,-60.5 616.5,-60.5"/>
<text text-anchor="start" x="624.5" y="-89.5" font-family="Helvetica,sans-Serif" font-size="10.00">LittleWeebLibrary.Services.</text>
<text text-anchor="start" x="624.5" y="-78.5" font-family="Helvetica,sans-Serif" font-size="10.00">InfoApiWebSocketService.GetCurrently</text>
<text text-anchor="middle" x="709.5" y="-67.5" font-family="Helvetica,sans-Serif" font-size="10.00">Airing</text>
</a>
</g>
</g>
<!-- Node41&#45;&gt;Node42 -->
<g id="edge14" class="edge"><title>Node41&#45;&gt;Node42</title>
<path fill="none" stroke="midnightblue" d="M554.215,-81C574.49,-81 596.029,-81 616.381,-81"/>
<polygon fill="midnightblue" stroke="midnightblue" points="554.058,-77.5001 544.058,-81 554.058,-84.5001 554.058,-77.5001"/>
</g>
<!-- Node42&#45;&gt;Node36 -->
<g id="edge15" class="edge"><title>Node42&#45;&gt;Node36</title>
<path fill="none" stroke="midnightblue" d="M784.228,-104.927C794.29,-108.484 804.44,-112.228 814,-116 846.902,-128.982 883.289,-145.557 910.578,-158.447"/>
<polygon fill="midnightblue" stroke="midnightblue" points="785.225,-101.568 774.63,-101.578 782.919,-108.177 785.225,-101.568"/>
</g>
<!-- Node44 -->
<g id="node14" class="node"><title>Node44</title>
<g id="a_node14"><a xlink:href="class_little_weeb_library_1_1_controllers_1_1_sub_controllers_1_1_data_base_web_socket_controller.html#a655abc0c42c54c9ff3572e4b4271fa3b" target="_top" xlink:title="LittleWeebLibrary.Controllers.\lSubControllers.DataBaseWebSocket\lController.OnWebSocketEvent">
<polygon fill="white" stroke="black" points="621,-0.5 621,-41.5 798,-41.5 798,-0.5 621,-0.5"/>
<text text-anchor="start" x="629" y="-29.5" font-family="Helvetica,sans-Serif" font-size="10.00">LittleWeebLibrary.Controllers.</text>
<text text-anchor="start" x="629" y="-18.5" font-family="Helvetica,sans-Serif" font-size="10.00">SubControllers.DataBaseWebSocket</text>
<text text-anchor="middle" x="709.5" y="-7.5" font-family="Helvetica,sans-Serif" font-size="10.00">Controller.OnWebSocketEvent</text>
</a>
</g>
</g>
<!-- Node43&#45;&gt;Node44 -->
<g id="edge17" class="edge"><title>Node43&#45;&gt;Node44</title>
<path fill="none" stroke="midnightblue" d="M579.238,-22.586C593.192,-22.4148 607.269,-22.2421 620.737,-22.0768"/>
<polygon fill="midnightblue" stroke="midnightblue" points="579.065,-19.0878 569.109,-22.7103 579.151,-26.0873 579.065,-19.0878"/>
</g>
</g>
</svg>
        <g id="navigator" transform="translate(0 0)" fill="#404254">
                <rect fill="#f2f5e9" fill-opacity="0.5" stroke="#606060" stroke-width=".5" x="0" y="0" width="60" height="60"/>
                <use id="zoomplus" xlink:href="#zoomPlus" x="17" y="9" onmousedown="handleZoom(evt,'in')"/>
                <use id="zoomminus" xlink:href="#zoomMin" x="42" y="9" onmousedown="handleZoom(evt,'out')"/>
                <use id="reset" xlink:href="#resetDef" x="30" y="36" onmousedown="handleReset()"/>
                <g id="arrowUp" xlink:href="#dirArrow" transform="translate(30 24)" onmousedown="handlePan(0,-1)">
                  <use xlink:href="#rim" fill="#404040">
                        <set attributeName="fill" to="#808080" begin="arrowUp.mouseover" end="arrowUp.mouseout"/>
                  </use>
                  <path fill="none" stroke="white" stroke-width="1.5" d="M0,-3.0v7 M-2.5,-0.5L0,-3.0L2.5,-0.5"/>
                </g>
                <g id="arrowRight" xlink:href="#dirArrow" transform="rotate(90) translate(36 -43)" onmousedown="handlePan(1,0)">
                  <use xlink:href="#rim" fill="#404040">
                        <set attributeName="fill" to="#808080" begin="arrowRight.mouseover" end="arrowRight.mouseout"/>
                  </use>
                  <path fill="none" stroke="white" stroke-width="1.5" d="M0,-3.0v7 M-2.5,-0.5L0,-3.0L2.5,-0.5"/>
                </g>
                <g id="arrowDown" xlink:href="#dirArrow" transform="rotate(180) translate(-30 -48)" onmousedown="handlePan(0,1)">
                  <use xlink:href="#rim" fill="#404040">
                        <set attributeName="fill" to="#808080" begin="arrowDown.mouseover" end="arrowDown.mouseout"/>
                  </use>
                  <path fill="none" stroke="white" stroke-width="1.5" d="M0,-3.0v7 M-2.5,-0.5L0,-3.0L2.5,-0.5"/>
                </g>
                <g id="arrowLeft" xlink:href="#dirArrow" transform="rotate(270) translate(-36 17)" onmousedown="handlePan(-1,0)">
                  <use xlink:href="#rim" fill="#404040">
                        <set attributeName="fill" to="#808080" begin="arrowLeft.mouseover" end="arrowLeft.mouseout"/>
                  </use>
                  <path fill="none" stroke="white" stroke-width="1.5" d="M0,-3.0v7 M-2.5,-0.5L0,-3.0L2.5,-0.5"/>
                </g>
        </g>
        <svg viewBox="0 0 15 15" width="100%" height="30px" preserveAspectRatio="xMaxYMin meet">
         <g id="arrow_out" transform="scale(0.3 0.3)">
          <a xlink:href="class_little_weeb_library_1_1_static_classes_1_1_utility_methods_a16933213071d531063b29979e7b55fe8_icgraph_org.svg" target="_base">
           <rect id="button" ry="5" rx="5" y="6" x="6" height="38" width="38"
                fill="#f2f5e9" fill-opacity="0.5" stroke="#606060" stroke-width="1.0"/>
           <path id="arrow"
             d="M 11.500037,31.436501 C 11.940474,20.09759 22.043105,11.32322 32.158766,21.979434 L 37.068811,17.246167 C 37.068811,17.246167 37.088388,32 37.088388,32 L 22.160133,31.978069 C 22.160133,31.978069 26.997745,27.140456 26.997745,27.140456 C 18.528582,18.264221 13.291696,25.230495 11.500037,31.436501 z"
             style="fill:#404040;"/>
          </a>
         </g>
        </svg>
</svg>
