<?xml version="1.0" encoding="UTF-8" standalone="no"?>
<!DOCTYPE svg PUBLIC "-//W3C//DTD SVG 1.1//EN"
 "http://www.w3.org/Graphics/SVG/1.1/DTD/svg11.dtd">
<!-- Generated by graphviz version 2.38.0 (20140413.2041)
 -->
<!-- Title: LittleWeebLibrary.Handlers.VersionHandler.GetLocalVersion Pages: 1 -->
<svg width="646pt" height="50pt"
 viewBox="0.00 0.00 646.00 50.00" xmlns="http://www.w3.org/2000/svg" xmlns:xlink="http://www.w3.org/1999/xlink">
<g id="graph0" class="graph" transform="scale(1 1) rotate(0) translate(4 46)">
<title>LittleWeebLibrary.Handlers.VersionHandler.GetLocalVersion</title>
<polygon fill="white" stroke="none" points="-4,4 -4,-46 642,-46 642,4 -4,4"/>
<!-- Node16 -->
<g id="node1" class="node"><title>Node16</title>
<polygon fill="#bfbfbf" stroke="black" points="0,-6 0,-36 158,-36 158,-6 0,-6"/>
<text text-anchor="start" x="8" y="-24" font-family="Helvetica,sans-Serif" font-size="10.00">LittleWeebLibrary.Handlers.</text>
<text text-anchor="middle" x="79" y="-13" font-family="Helvetica,sans-Serif" font-size="10.00">VersionHandler.GetLocalVersion</text>
</g>
<!-- Node17 -->
<g id="node2" class="node"><title>Node17</title>
<g id="a_node2"><a xlink:href="class_little_weeb_library_1_1_services_1_1_version_web_socket_service.html#af1a64a24e2d1b2299b82ba81b3c4a537" target="_top" xlink:title="LittleWeebLibrary.Services.\lVersionWebSocketService.CheckVersion">
<polygon fill="white" stroke="black" points="194,-6 194,-36 390,-36 390,-6 194,-6"/>
<text text-anchor="start" x="202" y="-24" font-family="Helvetica,sans-Serif" font-size="10.00">LittleWeebLibrary.Services.</text>
<text text-anchor="middle" x="292" y="-13" font-family="Helvetica,sans-Serif" font-size="10.00">VersionWebSocketService.CheckVersion</text>
</a>
</g>
</g>
<!-- Node16&#45;&gt;Node17 -->
<g id="edge1" class="edge"><title>Node16&#45;&gt;Node17</title>
<path fill="none" stroke="midnightblue" d="M168.441,-21C176.853,-21 185.414,-21 193.902,-21"/>
<polygon fill="midnightblue" stroke="midnightblue" points="168.269,-17.5001 158.269,-21 168.269,-24.5001 168.269,-17.5001"/>
</g>
<!-- Node18 -->
<g id="node3" class="node"><title>Node18</title>
<g id="a_node3"><a xlink:href="class_little_weeb_library_1_1_controllers_1_1_sub_controllers_1_1_version_web_socket_controller.html#aecbfb94508db51693b11ea8dba9cf7e9" target="_top" xlink:title="LittleWeebLibrary.Controllers.\lSubControllers.VersionWebSocketController.\lOnWebSocketEvent">
<polygon fill="white" stroke="black" points="426,-0.5 426,-41.5 638,-41.5 638,-0.5 426,-0.5"/>
<text text-anchor="start" x="434" y="-29.5" font-family="Helvetica,sans-Serif" font-size="10.00">LittleWeebLibrary.Controllers.</text>
<text text-anchor="start" x="434" y="-18.5" font-family="Helvetica,sans-Serif" font-size="10.00">SubControllers.VersionWebSocketController.</text>
<text text-anchor="middle" x="532" y="-7.5" font-family="Helvetica,sans-Serif" font-size="10.00">OnWebSocketEvent</text>
</a>
</g>
</g>
<!-- Node17&#45;&gt;Node18 -->
<g id="edge2" class="edge"><title>Node17&#45;&gt;Node18</title>
<path fill="none" stroke="midnightblue" d="M400.352,-21C408.759,-21 417.245,-21 425.639,-21"/>
<polygon fill="midnightblue" stroke="midnightblue" points="400.147,-17.5001 390.147,-21 400.147,-24.5001 400.147,-17.5001"/>
</g>
</g>
</svg>
