<?xml version="1.0" encoding="UTF-8" standalone="no"?>
<!DOCTYPE svg PUBLIC "-//W3C//DTD SVG 1.1//EN"
 "http://www.w3.org/Graphics/SVG/1.1/DTD/svg11.dtd">
<!-- Generated by graphviz version 2.38.0 (20140413.2041)
 -->
<!-- Title: LittleWeebLibrary.EventArguments.IrcClientMessageEventArgs.ToString Pages: 1 -->
<svg width="380pt" height="100pt"
 viewBox="0.00 0.00 380.00 99.50" xmlns="http://www.w3.org/2000/svg" xmlns:xlink="http://www.w3.org/1999/xlink">
<g id="graph0" class="graph" transform="scale(1 1) rotate(0) translate(4 95.5)">
<title>LittleWeebLibrary.EventArguments.IrcClientMessageEventArgs.ToString</title>
<polygon fill="white" stroke="none" points="-4,4 -4,-95.5 376,-95.5 376,4 -4,4"/>
<!-- Node1 -->
<g id="node1" class="node"><title>Node1</title>
<polygon fill="#bfbfbf" stroke="black" points="0,-27.5 0,-57.5 175,-57.5 175,-27.5 0,-27.5"/>
<text text-anchor="start" x="8" y="-45.5" font-family="Helvetica,sans-Serif" font-size="10.00">LittleWeebLibrary.EventArguments.</text>
<text text-anchor="middle" x="87.5" y="-34.5" font-family="Helvetica,sans-Serif" font-size="10.00">IrcClientMessageEventArgs.ToString</text>
</g>
<!-- Node2 -->
<g id="node2" class="node"><title>Node2</title>
<g id="a_node2"><a xlink:href="class_little_weeb_library_1_1_services_1_1_irc_web_socket_service.html#ab8023cd1161bcff9bebf2614764614fe" target="_top" xlink:title="LittleWeebLibrary.Services.\lIrcWebSocketService.OnIrcClient\lMessageEvent">
<polygon fill="white" stroke="black" points="211,-50 211,-91 372,-91 372,-50 211,-50"/>
<text text-anchor="start" x="219" y="-79" font-family="Helvetica,sans-Serif" font-size="10.00">LittleWeebLibrary.Services.</text>
<text text-anchor="start" x="219" y="-68" font-family="Helvetica,sans-Serif" font-size="10.00">IrcWebSocketService.OnIrcClient</text>
<text text-anchor="middle" x="291.5" y="-57" font-family="Helvetica,sans-Serif" font-size="10.00">MessageEvent</text>
</a>
</g>
</g>
<!-- Node1&#45;&gt;Node2 -->
<g id="edge1" class="edge"><title>Node1&#45;&gt;Node2</title>
<path fill="none" stroke="midnightblue" d="M185.124,-55.8934C193.739,-57.0876 202.396,-58.2876 210.845,-59.4587"/>
<polygon fill="midnightblue" stroke="midnightblue" points="185.431,-52.4026 175.045,-54.4964 184.47,-59.3363 185.431,-52.4026"/>
</g>
<!-- Node3 -->
<g id="node3" class="node"><title>Node3</title>
<g id="a_node3"><a xlink:href="class_little_weeb_library_1_1_handlers_1_1_irc_client_handler.html#ad97947bcce5bebd851bef6e29fecb467" target="_top" xlink:title="LittleWeebLibrary.Handlers.\lIrcClientHandler.OnMessage">
<polygon fill="white" stroke="black" points="221.5,-0.5 221.5,-30.5 361.5,-30.5 361.5,-0.5 221.5,-0.5"/>
<text text-anchor="start" x="229.5" y="-18.5" font-family="Helvetica,sans-Serif" font-size="10.00">LittleWeebLibrary.Handlers.</text>
<text text-anchor="middle" x="291.5" y="-7.5" font-family="Helvetica,sans-Serif" font-size="10.00">IrcClientHandler.OnMessage</text>
</a>
</g>
</g>
<!-- Node1&#45;&gt;Node3 -->
<g id="edge2" class="edge"><title>Node1&#45;&gt;Node3</title>
<path fill="none" stroke="midnightblue" d="M185.215,-29.5728C197.363,-27.949 209.595,-26.3141 221.204,-24.7624"/>
<polygon fill="midnightblue" stroke="midnightblue" points="184.493,-26.138 175.045,-30.9321 185.421,-33.0763 184.493,-26.138"/>
</g>
</g>
</svg>
