<?xml version="1.0" encoding="UTF-8" standalone="no"?>
<!DOCTYPE svg PUBLIC "-//W3C//DTD SVG 1.1//EN"
 "http://www.w3.org/Graphics/SVG/1.1/DTD/svg11.dtd">
<!-- Generated by graphviz version 2.38.0 (20140413.2041)
 -->
<!-- Title: LittleWeebLibrary.Services.SettingsWebSocketService.SetAllIrcSettings Pages: 1 -->
<svg width="352pt" height="149pt"
 viewBox="0.00 0.00 352.00 148.50" xmlns="http://www.w3.org/2000/svg" xmlns:xlink="http://www.w3.org/1999/xlink">
<g id="graph0" class="graph" transform="scale(1 1) rotate(0) translate(4 144.5)">
<title>LittleWeebLibrary.Services.SettingsWebSocketService.SetAllIrcSettings</title>
<polygon fill="white" stroke="none" points="-4,4 -4,-144.5 348,-144.5 348,4 -4,4"/>
<!-- Node58 -->
<g id="node1" class="node"><title>Node58</title>
<polygon fill="#bfbfbf" stroke="black" points="0,-44 0,-85 164,-85 164,-44 0,-44"/>
<text text-anchor="start" x="8" y="-73" font-family="Helvetica,sans-Serif" font-size="10.00">LittleWeebLibrary.Services.</text>
<text text-anchor="start" x="8" y="-62" font-family="Helvetica,sans-Serif" font-size="10.00">SettingsWebSocketService.SetAll</text>
<text text-anchor="middle" x="82" y="-51" font-family="Helvetica,sans-Serif" font-size="10.00">IrcSettings</text>
</g>
<!-- Node59 -->
<g id="node2" class="node"><title>Node59</title>
<g id="a_node2"><a xlink:href="interface_little_weeb_library_1_1_global_interfaces_1_1_i_settings_interface.html#a9ddf06e247a96d757482b37ddb070e3d" target="_top" xlink:title="LittleWeebLibrary.Global\lInterfaces.ISettingsInterface.\lSetIrcSettings">
<polygon fill="white" stroke="black" points="202,-99 202,-140 342,-140 342,-99 202,-99"/>
<text text-anchor="start" x="210" y="-128" font-family="Helvetica,sans-Serif" font-size="10.00">LittleWeebLibrary.Global</text>
<text text-anchor="start" x="210" y="-117" font-family="Helvetica,sans-Serif" font-size="10.00">Interfaces.ISettingsInterface.</text>
<text text-anchor="middle" x="272" y="-106" font-family="Helvetica,sans-Serif" font-size="10.00">SetIrcSettings</text>
</a>
</g>
</g>
<!-- Node58&#45;&gt;Node59 -->
<g id="edge1" class="edge"><title>Node58&#45;&gt;Node59</title>
<path fill="none" stroke="midnightblue" d="M153.272,-85.0582C165.904,-88.7539 179.149,-92.6286 192.008,-96.3908"/>
<polygon fill="midnightblue" stroke="midnightblue" points="191.17,-99.7922 201.751,-99.2409 193.136,-93.0738 191.17,-99.7922"/>
</g>
<!-- Node60 -->
<g id="node3" class="node"><title>Node60</title>
<g id="a_node3"><a xlink:href="class_little_weeb_library_1_1_settings_1_1_irc_settings.html#a2e1d7f26d7d3083d19c3a9e6c6c2d0b2" target="_top" xlink:title="LittleWeebLibrary.Settings.\lIrcSettings.ToString">
<polygon fill="white" stroke="black" points="205,-49.5 205,-79.5 339,-79.5 339,-49.5 205,-49.5"/>
<text text-anchor="start" x="213" y="-67.5" font-family="Helvetica,sans-Serif" font-size="10.00">LittleWeebLibrary.Settings.</text>
<text text-anchor="middle" x="272" y="-56.5" font-family="Helvetica,sans-Serif" font-size="10.00">IrcSettings.ToString</text>
</a>
</g>
</g>
<!-- Node58&#45;&gt;Node60 -->
<g id="edge2" class="edge"><title>Node58&#45;&gt;Node60</title>
<path fill="none" stroke="midnightblue" d="M164.093,-64.5C174.304,-64.5 184.723,-64.5 194.854,-64.5"/>
<polygon fill="midnightblue" stroke="midnightblue" points="194.871,-68.0001 204.871,-64.5 194.871,-61.0001 194.871,-68.0001"/>
</g>
<!-- Node61 -->
<g id="node4" class="node"><title>Node61</title>
<g id="a_node4"><a xlink:href="class_little_weeb_library_1_1_handlers_1_1_debug_handler.html#afccb37dfd6b2114af72000c2f4fe4607" target="_top" xlink:title="LittleWeebLibrary.Handlers.\lDebugHandler.TraceMessage">
<polygon fill="white" stroke="black" points="200,-0.5 200,-30.5 344,-30.5 344,-0.5 200,-0.5"/>
<text text-anchor="start" x="208" y="-18.5" font-family="Helvetica,sans-Serif" font-size="10.00">LittleWeebLibrary.Handlers.</text>
<text text-anchor="middle" x="272" y="-7.5" font-family="Helvetica,sans-Serif" font-size="10.00">DebugHandler.TraceMessage</text>
</a>
</g>
</g>
<!-- Node58&#45;&gt;Node61 -->
<g id="edge3" class="edge"><title>Node58&#45;&gt;Node61</title>
<path fill="none" stroke="midnightblue" d="M161.912,-43.9326C175.819,-40.3077 190.18,-36.5649 203.731,-33.0328"/>
<polygon fill="midnightblue" stroke="midnightblue" points="204.644,-36.4118 213.438,-30.5028 202.879,-29.6381 204.644,-36.4118"/>
</g>
</g>
</svg>
