<?xml version="1.0" encoding="UTF-8" standalone="no"?>
<!DOCTYPE svg PUBLIC "-//W3C//DTD SVG 1.1//EN"
 "http://www.w3.org/Graphics/SVG/1.1/DTD/svg11.dtd">
<!-- Generated by graphviz version 2.38.0 (20140413.2041)
 -->
<!-- Title: LittleWeebLibrary.Services.SettingsWebSocketService.Setfullfilepath Pages: 1 -->
<svg width="586pt" height="250pt"
 viewBox="0.00 0.00 586.00 249.95" xmlns="http://www.w3.org/2000/svg" xmlns:xlink="http://www.w3.org/1999/xlink">
<g id="graph0" class="graph" transform="scale(1 1) rotate(0) translate(4 245.951)">
<title>LittleWeebLibrary.Services.SettingsWebSocketService.Setfullfilepath</title>
<polygon fill="white" stroke="none" points="-4,4 -4,-245.951 582,-245.951 582,4 -4,4"/>
<!-- Node43 -->
<g id="node1" class="node"><title>Node43</title>
<polygon fill="#bfbfbf" stroke="black" points="0,-120.5 0,-150.5 196,-150.5 196,-120.5 0,-120.5"/>
<text text-anchor="start" x="8" y="-138.5" font-family="Helvetica,sans-Serif" font-size="10.00">LittleWeebLibrary.Services.</text>
<text text-anchor="middle" x="98" y="-127.5" font-family="Helvetica,sans-Serif" font-size="10.00">SettingsWebSocketService.Setfullfilepath</text>
</g>
<!-- Node44 -->
<g id="node2" class="node"><title>Node44</title>
<g id="a_node2"><a xlink:href="class_little_weeb_library_1_1_handlers_1_1_directory_handler.html#a6be1b158ee280e8a74a49917a90484e2" target="_top" xlink:title="LittleWeebLibrary.Handlers.\lDirectoryHandler.CreateDirectory">
<polygon fill="white" stroke="black" points="235.5,-186.5 235.5,-216.5 394.5,-216.5 394.5,-186.5 235.5,-186.5"/>
<text text-anchor="start" x="243.5" y="-204.5" font-family="Helvetica,sans-Serif" font-size="10.00">LittleWeebLibrary.Handlers.</text>
<text text-anchor="middle" x="315" y="-193.5" font-family="Helvetica,sans-Serif" font-size="10.00">DirectoryHandler.CreateDirectory</text>
</a>
</g>
</g>
<!-- Node43&#45;&gt;Node44 -->
<g id="edge1" class="edge"><title>Node43&#45;&gt;Node44</title>
<path fill="none" stroke="midnightblue" d="M148.056,-150.559C179.866,-160.324 221.485,-173.1 255.085,-183.414"/>
<polygon fill="midnightblue" stroke="midnightblue" points="254.196,-186.803 264.783,-186.392 256.251,-180.111 254.196,-186.803"/>
</g>
<!-- Node45 -->
<g id="node3" class="node"><title>Node45</title>
<g id="a_node3"><a xlink:href="class_little_weeb_library_1_1_models_1_1_json_error.html#a0e3e7dd2e2990404b7f0461742b23440" target="_top" xlink:title="LittleWeebLibrary.Models.\lJsonError.ToJson">
<polygon fill="white" stroke="black" points="441,-208.5 441,-238.5 571,-238.5 571,-208.5 441,-208.5"/>
<text text-anchor="start" x="449" y="-226.5" font-family="Helvetica,sans-Serif" font-size="10.00">LittleWeebLibrary.Models.</text>
<text text-anchor="middle" x="506" y="-215.5" font-family="Helvetica,sans-Serif" font-size="10.00">JsonError.ToJson</text>
</a>
</g>
</g>
<!-- Node43&#45;&gt;Node45 -->
<g id="edge6" class="edge"><title>Node43&#45;&gt;Node45</title>
<path fill="none" stroke="midnightblue" d="M114.101,-150.502C137.168,-172.24 183.622,-211.534 232,-226.5 296.901,-246.578 374.705,-243.233 430.619,-236.4"/>
<polygon fill="midnightblue" stroke="midnightblue" points="431.326,-239.838 440.796,-235.088 430.431,-232.895 431.326,-239.838"/>
</g>
<!-- Node46 -->
<g id="node4" class="node"><title>Node46</title>
<g id="a_node4"><a xlink:href="class_little_weeb_library_1_1_handlers_1_1_debug_handler.html#afccb37dfd6b2114af72000c2f4fe4607" target="_top" xlink:title="LittleWeebLibrary.Handlers.\lDebugHandler.TraceMessage">
<polygon fill="white" stroke="black" points="434,-120.5 434,-150.5 578,-150.5 578,-120.5 434,-120.5"/>
<text text-anchor="start" x="442" y="-138.5" font-family="Helvetica,sans-Serif" font-size="10.00">LittleWeebLibrary.Handlers.</text>
<text text-anchor="middle" x="506" y="-127.5" font-family="Helvetica,sans-Serif" font-size="10.00">DebugHandler.TraceMessage</text>
</a>
</g>
</g>
<!-- Node43&#45;&gt;Node46 -->
<g id="edge8" class="edge"><title>Node43&#45;&gt;Node46</title>
<path fill="none" stroke="midnightblue" d="M196.33,-137.948C208.342,-138.176 220.453,-138.37 232,-138.5 305.773,-139.332 324.229,-139.534 398,-138.5 406.347,-138.383 415.06,-138.215 423.752,-138.017"/>
<polygon fill="midnightblue" stroke="midnightblue" points="424.012,-141.512 433.924,-137.772 423.843,-134.514 424.012,-141.512"/>
</g>
<!-- Node47 -->
<g id="node5" class="node"><title>Node47</title>
<g id="a_node5"><a xlink:href="class_little_weeb_library_1_1_handlers_1_1_web_socket_handler.html#a1de289d54d665a32c93478c68d3e6ad0" target="_top" xlink:title="LittleWeebLibrary.Handlers.\lWebSocketHandler.SendMessage">
<polygon fill="white" stroke="black" points="232,-98.5 232,-128.5 398,-128.5 398,-98.5 232,-98.5"/>
<text text-anchor="start" x="240" y="-116.5" font-family="Helvetica,sans-Serif" font-size="10.00">LittleWeebLibrary.Handlers.</text>
<text text-anchor="middle" x="315" y="-105.5" font-family="Helvetica,sans-Serif" font-size="10.00">WebSocketHandler.SendMessage</text>
</a>
</g>
</g>
<!-- Node43&#45;&gt;Node47 -->
<g id="edge4" class="edge"><title>Node43&#45;&gt;Node47</title>
<path fill="none" stroke="midnightblue" d="M196.121,-125.562C204.587,-124.696 213.139,-123.821 221.565,-122.959"/>
<polygon fill="midnightblue" stroke="midnightblue" points="222.174,-126.415 231.766,-121.915 221.461,-119.451 222.174,-126.415"/>
</g>
<!-- Node48 -->
<g id="node6" class="node"><title>Node48</title>
<g id="a_node6"><a xlink:href="class_little_weeb_library_1_1_models_1_1_json_error.html#ad7d5522c90119111d2e929f39e7f6d3c" target="_top" xlink:title="LittleWeebLibrary.Models.\lJsonError.ToString">
<polygon fill="white" stroke="black" points="250,-49.5 250,-79.5 380,-79.5 380,-49.5 250,-49.5"/>
<text text-anchor="start" x="258" y="-67.5" font-family="Helvetica,sans-Serif" font-size="10.00">LittleWeebLibrary.Models.</text>
<text text-anchor="middle" x="315" y="-56.5" font-family="Helvetica,sans-Serif" font-size="10.00">JsonError.ToString</text>
</a>
</g>
</g>
<!-- Node43&#45;&gt;Node48 -->
<g id="edge7" class="edge"><title>Node43&#45;&gt;Node48</title>
<path fill="none" stroke="midnightblue" d="M139.844,-120.412C166.055,-110.892 200.887,-98.5422 232,-88.5 238.114,-86.5266 244.507,-84.5339 250.908,-82.585"/>
<polygon fill="midnightblue" stroke="midnightblue" points="252.369,-85.8005 260.937,-79.5676 250.352,-79.0973 252.369,-85.8005"/>
</g>
<!-- Node49 -->
<g id="node7" class="node"><title>Node49</title>
<g id="a_node7"><a xlink:href="class_little_weeb_library_1_1_handlers_1_1_settings_handler.html#ad42462e9e851301c5f5b91663dc3fe24" target="_top" xlink:title="LittleWeebLibrary.Handlers.\lSettingsHandler.WriteIrcSettings">
<polygon fill="white" stroke="black" points="236,-0.5 236,-30.5 394,-30.5 394,-0.5 236,-0.5"/>
<text text-anchor="start" x="244" y="-18.5" font-family="Helvetica,sans-Serif" font-size="10.00">LittleWeebLibrary.Handlers.</text>
<text text-anchor="middle" x="315" y="-7.5" font-family="Helvetica,sans-Serif" font-size="10.00">SettingsHandler.WriteIrcSettings</text>
</a>
</g>
</g>
<!-- Node43&#45;&gt;Node49 -->
<g id="edge9" class="edge"><title>Node43&#45;&gt;Node49</title>
<path fill="none" stroke="midnightblue" d="M115.836,-120.398C139.953,-99.4857 186.467,-61.7746 232,-39.5 235.822,-37.6301 239.818,-35.8778 243.9,-34.2404"/>
<polygon fill="midnightblue" stroke="midnightblue" points="245.404,-37.4143 253.539,-30.6268 242.947,-30.8597 245.404,-37.4143"/>
</g>
<!-- Node44&#45;&gt;Node45 -->
<g id="edge2" class="edge"><title>Node44&#45;&gt;Node45</title>
<path fill="none" stroke="midnightblue" d="M394.511,-210.639C406.434,-212.027 418.707,-213.455 430.541,-214.833"/>
<polygon fill="midnightblue" stroke="midnightblue" points="430.47,-218.348 440.807,-216.028 431.279,-211.395 430.47,-218.348"/>
</g>
<!-- Node44&#45;&gt;Node46 -->
<g id="edge3" class="edge"><title>Node44&#45;&gt;Node46</title>
<path fill="none" stroke="midnightblue" d="M359.36,-186.358C386.972,-176.716 422.92,-164.163 452.192,-153.941"/>
<polygon fill="midnightblue" stroke="midnightblue" points="453.554,-157.172 461.841,-150.571 451.247,-150.564 453.554,-157.172"/>
</g>
<!-- Node47&#45;&gt;Node46 -->
<g id="edge5" class="edge"><title>Node47&#45;&gt;Node46</title>
<path fill="none" stroke="midnightblue" d="M398.074,-123.054C406.666,-124.054 415.398,-125.07 423.978,-126.069"/>
<polygon fill="midnightblue" stroke="midnightblue" points="423.626,-129.551 433.964,-127.231 424.435,-122.598 423.626,-129.551"/>
</g>
<!-- Node49&#45;&gt;Node46 -->
<g id="edge11" class="edge"><title>Node49&#45;&gt;Node46</title>
<path fill="none" stroke="midnightblue" d="M378.543,-30.5892C385.29,-33.1538 391.909,-36.1088 398,-39.5 432.569,-58.7455 465.356,-90.9696 485.312,-112.718"/>
<polygon fill="midnightblue" stroke="midnightblue" points="482.77,-115.125 492.063,-120.213 487.971,-110.44 482.77,-115.125"/>
</g>
<!-- Node50 -->
<g id="node8" class="node"><title>Node50</title>
<g id="a_node8"><a xlink:href="class_little_weeb_library_1_1_settings_1_1_irc_settings.html#a2e1d7f26d7d3083d19c3a9e6c6c2d0b2" target="_top" xlink:title="LittleWeebLibrary.Settings.\lIrcSettings.ToString">
<polygon fill="white" stroke="black" points="439,-0.5 439,-30.5 573,-30.5 573,-0.5 439,-0.5"/>
<text text-anchor="start" x="447" y="-18.5" font-family="Helvetica,sans-Serif" font-size="10.00">LittleWeebLibrary.Settings.</text>
<text text-anchor="middle" x="506" y="-7.5" font-family="Helvetica,sans-Serif" font-size="10.00">IrcSettings.ToString</text>
</a>
</g>
</g>
<!-- Node49&#45;&gt;Node50 -->
<g id="edge10" class="edge"><title>Node49&#45;&gt;Node50</title>
<path fill="none" stroke="midnightblue" d="M394.238,-15.5C405.59,-15.5 417.264,-15.5 428.579,-15.5"/>
<polygon fill="midnightblue" stroke="midnightblue" points="428.85,-19.0001 438.85,-15.5 428.85,-12.0001 428.85,-19.0001"/>
</g>
</g>
</svg>
