<?xml version="1.0" encoding="UTF-8" standalone="no"?>
<!DOCTYPE svg PUBLIC "-//W3C//DTD SVG 1.1//EN"
 "http://www.w3.org/Graphics/SVG/1.1/DTD/svg11.dtd">
<!-- Generated by graphviz version 2.38.0 (20140413.2041)
 -->
<!-- Title: LittleWeebLibrary.Handlers.NiblHandler Pages: 1 -->
<svg width="429pt" height="369pt"
 viewBox="0.00 0.00 428.50 369.00" xmlns="http://www.w3.org/2000/svg" xmlns:xlink="http://www.w3.org/1999/xlink">
<g id="graph0" class="graph" transform="scale(1 1) rotate(0) translate(4 365)">
<title>LittleWeebLibrary.Handlers.NiblHandler</title>
<polygon fill="white" stroke="none" points="-4,4 -4,-365 424.5,-365 424.5,4 -4,4"/>
<!-- Node2 -->
<g id="node1" class="node"><title>Node2</title>
<polygon fill="#bfbfbf" stroke="black" points="128.5,-0.5 128.5,-134.5 265.5,-134.5 265.5,-0.5 128.5,-0.5"/>
<text text-anchor="start" x="136.5" y="-122.5" font-family="Helvetica,sans-Serif" font-size="10.00">LittleWeebLibrary.Handlers.</text>
<text text-anchor="middle" x="197" y="-111.5" font-family="Helvetica,sans-Serif" font-size="10.00">NiblHandler</text>
<polyline fill="none" stroke="black" points="128.5,-104.5 265.5,-104.5 "/>
<text text-anchor="start" x="136.5" y="-92.5" font-family="Helvetica,sans-Serif" font-size="10.00">&#45; WeebFileNameParser</text>
<polyline fill="none" stroke="black" points="128.5,-85.5 265.5,-85.5 "/>
<text text-anchor="start" x="136.5" y="-73.5" font-family="Helvetica,sans-Serif" font-size="10.00">+ NiblHandler()</text>
<text text-anchor="start" x="136.5" y="-62.5" font-family="Helvetica,sans-Serif" font-size="10.00">+ GetBotList()</text>
<text text-anchor="start" x="136.5" y="-51.5" font-family="Helvetica,sans-Serif" font-size="10.00">+ GetLatestEpisode()</text>
<text text-anchor="start" x="136.5" y="-40.5" font-family="Helvetica,sans-Serif" font-size="10.00">+ GetLatestFiles()</text>
<text text-anchor="start" x="136.5" y="-29.5" font-family="Helvetica,sans-Serif" font-size="10.00">+ SearchNibl()</text>
<text text-anchor="start" x="136.5" y="-18.5" font-family="Helvetica,sans-Serif" font-size="10.00">+ SearchNibl()</text>
<text text-anchor="start" x="136.5" y="-7.5" font-family="Helvetica,sans-Serif" font-size="10.00">&#45; Get()</text>
</g>
<!-- Node3 -->
<g id="node2" class="node"><title>Node3</title>
<g id="a_node2"><a xlink:href="interface_little_weeb_library_1_1_handlers_1_1_i_nibl_handler.html" target="_top" xlink:title="{INiblHandler\n||+ GetBotList()\l+ GetLatestEpisode()\l+ GetLatestFiles()\l+ SearchNibl()\l+ SearchNibl()\l}">
<polygon fill="white" stroke="black" points="0,-221 0,-322 110,-322 110,-221 0,-221"/>
<text text-anchor="middle" x="55" y="-310" font-family="Helvetica,sans-Serif" font-size="10.00">INiblHandler</text>
<polyline fill="none" stroke="black" points="0,-303 110,-303 "/>
<text text-anchor="middle" x="55" y="-291" font-family="Helvetica,sans-Serif" font-size="10.00"> </text>
<polyline fill="none" stroke="black" points="0,-284 110,-284 "/>
<text text-anchor="start" x="8" y="-272" font-family="Helvetica,sans-Serif" font-size="10.00">+ GetBotList()</text>
<text text-anchor="start" x="8" y="-261" font-family="Helvetica,sans-Serif" font-size="10.00">+ GetLatestEpisode()</text>
<text text-anchor="start" x="8" y="-250" font-family="Helvetica,sans-Serif" font-size="10.00">+ GetLatestFiles()</text>
<text text-anchor="start" x="8" y="-239" font-family="Helvetica,sans-Serif" font-size="10.00">+ SearchNibl()</text>
<text text-anchor="start" x="8" y="-228" font-family="Helvetica,sans-Serif" font-size="10.00">+ SearchNibl()</text>
</a>
</g>
</g>
<!-- Node3&#45;&gt;Node2 -->
<g id="edge1" class="edge"><title>Node3&#45;&gt;Node2</title>
<path fill="none" stroke="midnightblue" d="M95.823,-212.428C112.875,-188.171 132.78,-159.855 150.402,-134.788"/>
<polygon fill="none" stroke="midnightblue" points="92.8066,-210.633 89.919,-220.827 98.5333,-214.658 92.8066,-210.633"/>
</g>
<!-- Node4 -->
<g id="node3" class="node"><title>Node4</title>
<g id="a_node3"><a xlink:href="interface_little_weeb_library_1_1_handlers_1_1_i_debug_handler.html" target="_top" xlink:title="{LittleWeebLibrary.Handlers.\lIDebugHandler\n||+ SetSettings()\l+ StopDebugger()\l+ TraceMessage()\l}">
<polygon fill="white" stroke="black" points="128.5,-226.5 128.5,-316.5 265.5,-316.5 265.5,-226.5 128.5,-226.5"/>
<text text-anchor="start" x="136.5" y="-304.5" font-family="Helvetica,sans-Serif" font-size="10.00">LittleWeebLibrary.Handlers.</text>
<text text-anchor="middle" x="197" y="-293.5" font-family="Helvetica,sans-Serif" font-size="10.00">IDebugHandler</text>
<polyline fill="none" stroke="black" points="128.5,-286.5 265.5,-286.5 "/>
<text text-anchor="middle" x="197" y="-274.5" font-family="Helvetica,sans-Serif" font-size="10.00"> </text>
<polyline fill="none" stroke="black" points="128.5,-267.5 265.5,-267.5 "/>
<text text-anchor="start" x="136.5" y="-255.5" font-family="Helvetica,sans-Serif" font-size="10.00">+ SetSettings()</text>
<text text-anchor="start" x="136.5" y="-244.5" font-family="Helvetica,sans-Serif" font-size="10.00">+ StopDebugger()</text>
<text text-anchor="start" x="136.5" y="-233.5" font-family="Helvetica,sans-Serif" font-size="10.00">+ TraceMessage()</text>
</a>
</g>
</g>
<!-- Node4&#45;&gt;Node2 -->
<g id="edge2" class="edge"><title>Node4&#45;&gt;Node2</title>
<path fill="none" stroke="#404040" d="M197,-226.17C197,-202.906 197,-173.71 197,-146.786"/>
<polygon fill="none" stroke="#404040" points="197,-146.604 193,-140.604 197,-134.604 201,-140.604 197,-146.604"/>
<text text-anchor="middle" x="230.5" y="-156" font-family="Helvetica,sans-Serif" font-size="10.00"> &#45;DebugHandler</text>
</g>
<!-- Node5 -->
<g id="node4" class="node"><title>Node5</title>
<g id="a_node4"><a xlink:href="interface_little_weeb_library_1_1_handlers_1_1_i_kitsu_handler.html" target="_top" xlink:title="{LittleWeebLibrary.Handlers.\lIKitsuHandler\n||+ GetAllCategories()\l+ GetAllGenres()\l+ GetAnime()\l+ GetCategories()\l+ GetCurrentlyAiring()\l+ GetEpisode()\l+ GetEpisodes()\l+ GetFullAnime()\l+ GetGenres()\l+ GetRelations()\l+ SearchAnime()\l}">
<polygon fill="white" stroke="black" points="283.5,-182.5 283.5,-360.5 420.5,-360.5 420.5,-182.5 283.5,-182.5"/>
<text text-anchor="start" x="291.5" y="-348.5" font-family="Helvetica,sans-Serif" font-size="10.00">LittleWeebLibrary.Handlers.</text>
<text text-anchor="middle" x="352" y="-337.5" font-family="Helvetica,sans-Serif" font-size="10.00">IKitsuHandler</text>
<polyline fill="none" stroke="black" points="283.5,-330.5 420.5,-330.5 "/>
<text text-anchor="middle" x="352" y="-318.5" font-family="Helvetica,sans-Serif" font-size="10.00"> </text>
<polyline fill="none" stroke="black" points="283.5,-311.5 420.5,-311.5 "/>
<text text-anchor="start" x="291.5" y="-299.5" font-family="Helvetica,sans-Serif" font-size="10.00">+ GetAllCategories()</text>
<text text-anchor="start" x="291.5" y="-288.5" font-family="Helvetica,sans-Serif" font-size="10.00">+ GetAllGenres()</text>
<text text-anchor="start" x="291.5" y="-277.5" font-family="Helvetica,sans-Serif" font-size="10.00">+ GetAnime()</text>
<text text-anchor="start" x="291.5" y="-266.5" font-family="Helvetica,sans-Serif" font-size="10.00">+ GetCategories()</text>
<text text-anchor="start" x="291.5" y="-255.5" font-family="Helvetica,sans-Serif" font-size="10.00">+ GetCurrentlyAiring()</text>
<text text-anchor="start" x="291.5" y="-244.5" font-family="Helvetica,sans-Serif" font-size="10.00">+ GetEpisode()</text>
<text text-anchor="start" x="291.5" y="-233.5" font-family="Helvetica,sans-Serif" font-size="10.00">+ GetEpisodes()</text>
<text text-anchor="start" x="291.5" y="-222.5" font-family="Helvetica,sans-Serif" font-size="10.00">+ GetFullAnime()</text>
<text text-anchor="start" x="291.5" y="-211.5" font-family="Helvetica,sans-Serif" font-size="10.00">+ GetGenres()</text>
<text text-anchor="start" x="291.5" y="-200.5" font-family="Helvetica,sans-Serif" font-size="10.00">+ GetRelations()</text>
<text text-anchor="start" x="291.5" y="-189.5" font-family="Helvetica,sans-Serif" font-size="10.00">+ SearchAnime()</text>
</a>
</g>
</g>
<!-- Node5&#45;&gt;Node2 -->
<g id="edge3" class="edge"><title>Node5&#45;&gt;Node2</title>
<path fill="none" stroke="#404040" d="M290.13,-182.364C282.783,-172.376 275.3,-162.412 268,-153 265.725,-150.067 263.387,-147.093 261.009,-144.103"/>
<polygon fill="none" stroke="#404040" points="260.826,-143.875 253.95,-141.704 253.309,-134.521 260.185,-136.692 260.826,-143.875"/>
<text text-anchor="middle" x="307" y="-156" font-family="Helvetica,sans-Serif" font-size="10.00"> &#45;KitsuHandler</text>
</g>
</g>
</svg>
