<?xml version="1.0" encoding="UTF-8" standalone="no"?>
<!DOCTYPE svg PUBLIC "-//W3C//DTD SVG 1.1//EN"
 "http://www.w3.org/Graphics/SVG/1.1/DTD/svg11.dtd">
<!-- Generated by graphviz version 2.38.0 (20140413.2041)
 -->
<!-- Title: LittleWeebLibrary.Handlers.DownloadHandler.GetCurrentlyDownloading Pages: 1 -->
<svg width="392pt" height="88pt"
 viewBox="0.00 0.00 392.00 88.00" xmlns="http://www.w3.org/2000/svg" xmlns:xlink="http://www.w3.org/1999/xlink">
<g id="graph0" class="graph" transform="scale(1 1) rotate(0) translate(4 84)">
<title>LittleWeebLibrary.Handlers.DownloadHandler.GetCurrentlyDownloading</title>
<polygon fill="white" stroke="none" points="-4,4 -4,-84 388,-84 388,4 -4,4"/>
<!-- Node29 -->
<g id="node1" class="node"><title>Node29</title>
<polygon fill="#bfbfbf" stroke="black" points="0,-24.5 0,-54.5 204,-54.5 204,-24.5 0,-24.5"/>
<text text-anchor="start" x="8" y="-42.5" font-family="Helvetica,sans-Serif" font-size="10.00">LittleWeebLibrary.Handlers.</text>
<text text-anchor="middle" x="102" y="-31.5" font-family="Helvetica,sans-Serif" font-size="10.00">DownloadHandler.GetCurrentlyDownloading</text>
</g>
<!-- Node30 -->
<g id="node2" class="node"><title>Node30</title>
<g id="a_node2"><a xlink:href="class_little_weeb_library_1_1_models_1_1_json_download_info.html#a9a8921b52b118be5bc135ad49a4aee29" target="_top" xlink:title="LittleWeebLibrary.Models.\lJsonDownloadInfo.ToJObject">
<polygon fill="white" stroke="black" points="242,-49.5 242,-79.5 382,-79.5 382,-49.5 242,-49.5"/>
<text text-anchor="start" x="250" y="-67.5" font-family="Helvetica,sans-Serif" font-size="10.00">LittleWeebLibrary.Models.</text>
<text text-anchor="middle" x="312" y="-56.5" font-family="Helvetica,sans-Serif" font-size="10.00">JsonDownloadInfo.ToJObject</text>
</a>
</g>
</g>
<!-- Node29&#45;&gt;Node30 -->
<g id="edge1" class="edge"><title>Node29&#45;&gt;Node30</title>
<path fill="none" stroke="midnightblue" d="M204.258,-51.6704C213.491,-52.7802 222.753,-53.8934 231.752,-54.975"/>
<polygon fill="midnightblue" stroke="midnightblue" points="231.44,-58.4626 241.786,-56.181 232.275,-51.5126 231.44,-58.4626"/>
</g>
<!-- Node31 -->
<g id="node3" class="node"><title>Node31</title>
<g id="a_node3"><a xlink:href="class_little_weeb_library_1_1_handlers_1_1_debug_handler.html#afccb37dfd6b2114af72000c2f4fe4607" target="_top" xlink:title="LittleWeebLibrary.Handlers.\lDebugHandler.TraceMessage">
<polygon fill="white" stroke="black" points="240,-0.5 240,-30.5 384,-30.5 384,-0.5 240,-0.5"/>
<text text-anchor="start" x="248" y="-18.5" font-family="Helvetica,sans-Serif" font-size="10.00">LittleWeebLibrary.Handlers.</text>
<text text-anchor="middle" x="312" y="-7.5" font-family="Helvetica,sans-Serif" font-size="10.00">DebugHandler.TraceMessage</text>
</a>
</g>
</g>
<!-- Node29&#45;&gt;Node31 -->
<g id="edge2" class="edge"><title>Node29&#45;&gt;Node31</title>
<path fill="none" stroke="midnightblue" d="M204.258,-27.8164C212.778,-26.8333 221.323,-25.8473 229.664,-24.8849"/>
<polygon fill="midnightblue" stroke="midnightblue" points="230.188,-28.3478 239.721,-23.7246 229.385,-21.3939 230.188,-28.3478"/>
</g>
</g>
</svg>
