<?xml version="1.0" encoding="UTF-8" standalone="no"?>
<!DOCTYPE svg PUBLIC "-//W3C//DTD SVG 1.1//EN"
 "http://www.w3.org/Graphics/SVG/1.1/DTD/svg11.dtd">
<!-- Generated by graphviz version 2.38.0 (20140413.2041)
 -->
<!-- Title: LittleWeebLibrary.EventArguments.IrcClientConnectionStatusArgs.ToString Pages: 1 -->
<svg width="399pt" height="100pt"
 viewBox="0.00 0.00 399.00 99.50" xmlns="http://www.w3.org/2000/svg" xmlns:xlink="http://www.w3.org/1999/xlink">
<g id="graph0" class="graph" transform="scale(1 1) rotate(0) translate(4 95.5)">
<title>LittleWeebLibrary.EventArguments.IrcClientConnectionStatusArgs.ToString</title>
<polygon fill="white" stroke="none" points="-4,4 -4,-95.5 395,-95.5 395,4 -4,4"/>
<!-- Node1 -->
<g id="node1" class="node"><title>Node1</title>
<polygon fill="#bfbfbf" stroke="black" points="0,-27.5 0,-57.5 188,-57.5 188,-27.5 0,-27.5"/>
<text text-anchor="start" x="8" y="-45.5" font-family="Helvetica,sans-Serif" font-size="10.00">LittleWeebLibrary.EventArguments.</text>
<text text-anchor="middle" x="94" y="-34.5" font-family="Helvetica,sans-Serif" font-size="10.00">IrcClientConnectionStatusArgs.ToString</text>
</g>
<!-- Node2 -->
<g id="node2" class="node"><title>Node2</title>
<g id="a_node2"><a xlink:href="class_little_weeb_library_1_1_services_1_1_irc_web_socket_service.html#abd98810f045f0200700d8441a0c14902" target="_top" xlink:title="LittleWeebLibrary.Services.\lIrcWebSocketService.OnIrcClient\lConnectionStatusEvent">
<polygon fill="white" stroke="black" points="227,-50 227,-91 388,-91 388,-50 227,-50"/>
<text text-anchor="start" x="235" y="-79" font-family="Helvetica,sans-Serif" font-size="10.00">LittleWeebLibrary.Services.</text>
<text text-anchor="start" x="235" y="-68" font-family="Helvetica,sans-Serif" font-size="10.00">IrcWebSocketService.OnIrcClient</text>
<text text-anchor="middle" x="307.5" y="-57" font-family="Helvetica,sans-Serif" font-size="10.00">ConnectionStatusEvent</text>
</a>
</g>
</g>
<!-- Node1&#45;&gt;Node2 -->
<g id="edge1" class="edge"><title>Node1&#45;&gt;Node2</title>
<path fill="none" stroke="midnightblue" d="M198.141,-56.1547C207.825,-57.4366 217.537,-58.7224 226.953,-59.969"/>
<polygon fill="midnightblue" stroke="midnightblue" points="198.448,-52.6647 188.075,-54.822 197.529,-59.6042 198.448,-52.6647"/>
</g>
<!-- Node3 -->
<g id="node3" class="node"><title>Node3</title>
<g id="a_node3"><a xlink:href="class_little_weeb_library_1_1_handlers_1_1_irc_client_handler.html#a8ffa9ba31b96d32a4c1fdafc04afaf5e" target="_top" xlink:title="LittleWeebLibrary.Handlers.\lIrcClientHandler.OnUserListUpdate">
<polygon fill="white" stroke="black" points="224,-0.5 224,-30.5 391,-30.5 391,-0.5 224,-0.5"/>
<text text-anchor="start" x="232" y="-18.5" font-family="Helvetica,sans-Serif" font-size="10.00">LittleWeebLibrary.Handlers.</text>
<text text-anchor="middle" x="307.5" y="-7.5" font-family="Helvetica,sans-Serif" font-size="10.00">IrcClientHandler.OnUserListUpdate</text>
</a>
</g>
</g>
<!-- Node1&#45;&gt;Node3 -->
<g id="edge2" class="edge"><title>Node1&#45;&gt;Node3</title>
<path fill="none" stroke="midnightblue" d="M198.118,-29.336C206.694,-28.2412 215.293,-27.1435 223.689,-26.0716"/>
<polygon fill="midnightblue" stroke="midnightblue" points="197.551,-25.8799 188.075,-30.6181 198.437,-32.8235 197.551,-25.8799"/>
</g>
</g>
</svg>
