<?xml version="1.0" encoding="UTF-8" standalone="no"?>
<!DOCTYPE svg PUBLIC "-//W3C//DTD SVG 1.1//EN"
 "http://www.w3.org/Graphics/SVG/1.1/DTD/svg11.dtd">
<!-- Generated by graphviz version 2.38.0 (20140413.2041)
 -->
<!-- Title: LittleWeebLibrary.Handlers.DownloadHandler.AddDownloads Pages: 1 -->
<svg width="358pt" height="296pt"
 viewBox="0.00 0.00 358.00 295.50" xmlns="http://www.w3.org/2000/svg" xmlns:xlink="http://www.w3.org/1999/xlink">
<g id="graph0" class="graph" transform="scale(1 1) rotate(0) translate(4 291.5)">
<title>LittleWeebLibrary.Handlers.DownloadHandler.AddDownloads</title>
<polygon fill="white" stroke="none" points="-4,4 -4,-291.5 354,-291.5 354,4 -4,4"/>
<!-- Node69 -->
<g id="node1" class="node"><title>Node69</title>
<polygon fill="#bfbfbf" stroke="black" points="0,-122.5 0,-152.5 159,-152.5 159,-122.5 0,-122.5"/>
<text text-anchor="start" x="8" y="-140.5" font-family="Helvetica,sans-Serif" font-size="10.00">LittleWeebLibrary.Handlers.</text>
<text text-anchor="middle" x="79.5" y="-129.5" font-family="Helvetica,sans-Serif" font-size="10.00">DownloadHandler.AddDownloads</text>
</g>
<!-- Node70 -->
<g id="node2" class="node"><title>Node70</title>
<g id="a_node2"><a xlink:href="class_little_weeb_library_1_1_static_classes_1_1_utility_methods.html#a76fa2aea99ce4b1ad4130cc18b1d5969" target="_top" xlink:title="LittleWeebLibrary.Static\lClasses.UtilityMethods.GetFree\lSpaceKbits">
<polygon fill="white" stroke="black" points="195,-246 195,-287 350,-287 350,-246 195,-246"/>
<text text-anchor="start" x="203" y="-275" font-family="Helvetica,sans-Serif" font-size="10.00">LittleWeebLibrary.Static</text>
<text text-anchor="start" x="203" y="-264" font-family="Helvetica,sans-Serif" font-size="10.00">Classes.UtilityMethods.GetFree</text>
<text text-anchor="middle" x="272.5" y="-253" font-family="Helvetica,sans-Serif" font-size="10.00">SpaceKbits</text>
</a>
</g>
</g>
<!-- Node69&#45;&gt;Node70 -->
<g id="edge1" class="edge"><title>Node69&#45;&gt;Node70</title>
<path fill="none" stroke="midnightblue" d="M94.76,-152.736C115.245,-173.901 154.96,-212.318 195,-236.5 197.809,-238.196 200.73,-239.83 203.722,-241.399"/>
<polygon fill="midnightblue" stroke="midnightblue" points="202.346,-244.622 212.862,-245.907 205.442,-238.344 202.346,-244.622"/>
</g>
<!-- Node71 -->
<g id="node3" class="node"><title>Node71</title>
<g id="a_node3"><a xlink:href="class_little_weeb_library_1_1_models_1_1_json_download_queue.html#a1d77053fc493aa88857bcafd6fea4bf7" target="_top" xlink:title="LittleWeebLibrary.Models.\lJsonDownloadQueue.ToJObject">
<polygon fill="white" stroke="black" points="195.5,-196.5 195.5,-226.5 349.5,-226.5 349.5,-196.5 195.5,-196.5"/>
<text text-anchor="start" x="203.5" y="-214.5" font-family="Helvetica,sans-Serif" font-size="10.00">LittleWeebLibrary.Models.</text>
<text text-anchor="middle" x="272.5" y="-203.5" font-family="Helvetica,sans-Serif" font-size="10.00">JsonDownloadQueue.ToJObject</text>
</a>
</g>
</g>
<!-- Node69&#45;&gt;Node71 -->
<g id="edge2" class="edge"><title>Node69&#45;&gt;Node71</title>
<path fill="none" stroke="midnightblue" d="M112.692,-152.667C135.43,-163.106 166.759,-176.939 195,-187.5 200.134,-189.42 205.498,-191.317 210.9,-193.153"/>
<polygon fill="midnightblue" stroke="midnightblue" points="210.031,-196.552 220.624,-196.383 212.237,-189.909 210.031,-196.552"/>
</g>
<!-- Node72 -->
<g id="node4" class="node"><title>Node72</title>
<g id="a_node4"><a xlink:href="class_little_weeb_library_1_1_models_1_1_json_error.html#a0623b835bb68d5d5e1f591df6a09dd81" target="_top" xlink:title="LittleWeebLibrary.Models.\lJsonError.ToJObject">
<polygon fill="white" stroke="black" points="207.5,-147.5 207.5,-177.5 337.5,-177.5 337.5,-147.5 207.5,-147.5"/>
<text text-anchor="start" x="215.5" y="-165.5" font-family="Helvetica,sans-Serif" font-size="10.00">LittleWeebLibrary.Models.</text>
<text text-anchor="middle" x="272.5" y="-154.5" font-family="Helvetica,sans-Serif" font-size="10.00">JsonError.ToJObject</text>
</a>
</g>
</g>
<!-- Node69&#45;&gt;Node72 -->
<g id="edge3" class="edge"><title>Node69&#45;&gt;Node72</title>
<path fill="none" stroke="midnightblue" d="M159.014,-147.777C171.679,-149.434 184.756,-151.146 197.315,-152.79"/>
<polygon fill="midnightblue" stroke="midnightblue" points="196.889,-156.264 207.258,-154.091 197.797,-149.323 196.889,-156.264"/>
</g>
<!-- Node73 -->
<g id="node5" class="node"><title>Node73</title>
<g id="a_node5"><a xlink:href="class_little_weeb_library_1_1_models_1_1_json_error.html#ad7d5522c90119111d2e929f39e7f6d3c" target="_top" xlink:title="LittleWeebLibrary.Models.\lJsonError.ToString">
<polygon fill="white" stroke="black" points="207.5,-98.5 207.5,-128.5 337.5,-128.5 337.5,-98.5 207.5,-98.5"/>
<text text-anchor="start" x="215.5" y="-116.5" font-family="Helvetica,sans-Serif" font-size="10.00">LittleWeebLibrary.Models.</text>
<text text-anchor="middle" x="272.5" y="-105.5" font-family="Helvetica,sans-Serif" font-size="10.00">JsonError.ToString</text>
</a>
</g>
</g>
<!-- Node69&#45;&gt;Node73 -->
<g id="edge4" class="edge"><title>Node69&#45;&gt;Node73</title>
<path fill="none" stroke="midnightblue" d="M159.014,-127.634C171.679,-126.043 184.756,-124.4 197.315,-122.822"/>
<polygon fill="midnightblue" stroke="midnightblue" points="197.773,-126.292 207.258,-121.572 196.9,-119.346 197.773,-126.292"/>
</g>
<!-- Node74 -->
<g id="node6" class="node"><title>Node74</title>
<g id="a_node6"><a xlink:href="class_little_weeb_library_1_1_models_1_1_json_download_info.html#af36cbb3251b0efcd80a45f1fef89f5c9" target="_top" xlink:title="LittleWeebLibrary.Models.\lJsonDownloadInfo.ToString">
<polygon fill="white" stroke="black" points="206,-49.5 206,-79.5 339,-79.5 339,-49.5 206,-49.5"/>
<text text-anchor="start" x="214" y="-67.5" font-family="Helvetica,sans-Serif" font-size="10.00">LittleWeebLibrary.Models.</text>
<text text-anchor="middle" x="272.5" y="-56.5" font-family="Helvetica,sans-Serif" font-size="10.00">JsonDownloadInfo.ToString</text>
</a>
</g>
</g>
<!-- Node69&#45;&gt;Node74 -->
<g id="edge5" class="edge"><title>Node69&#45;&gt;Node74</title>
<path fill="none" stroke="midnightblue" d="M114.281,-122.489C136.93,-112.636 167.528,-99.728 195,-89.5 201.015,-87.2605 207.335,-85.0197 213.656,-82.8502"/>
<polygon fill="midnightblue" stroke="midnightblue" points="215.193,-86.0256 223.547,-79.5102 212.953,-79.3935 215.193,-86.0256"/>
</g>
<!-- Node75 -->
<g id="node7" class="node"><title>Node75</title>
<g id="a_node7"><a xlink:href="class_little_weeb_library_1_1_handlers_1_1_debug_handler.html#afccb37dfd6b2114af72000c2f4fe4607" target="_top" xlink:title="LittleWeebLibrary.Handlers.\lDebugHandler.TraceMessage">
<polygon fill="white" stroke="black" points="200.5,-0.5 200.5,-30.5 344.5,-30.5 344.5,-0.5 200.5,-0.5"/>
<text text-anchor="start" x="208.5" y="-18.5" font-family="Helvetica,sans-Serif" font-size="10.00">LittleWeebLibrary.Handlers.</text>
<text text-anchor="middle" x="272.5" y="-7.5" font-family="Helvetica,sans-Serif" font-size="10.00">DebugHandler.TraceMessage</text>
</a>
</g>
</g>
<!-- Node69&#45;&gt;Node75 -->
<g id="edge6" class="edge"><title>Node69&#45;&gt;Node75</title>
<path fill="none" stroke="midnightblue" d="M94.6354,-122.27C114.972,-101.175 154.513,-63.1124 195,-40.5 198.879,-38.3336 202.974,-36.3198 207.173,-34.4539"/>
<polygon fill="midnightblue" stroke="midnightblue" points="208.58,-37.6593 216.484,-30.6039 205.906,-31.1904 208.58,-37.6593"/>
</g>
</g>
</svg>
