<?xml version="1.0" encoding="UTF-8" standalone="no"?>
<!DOCTYPE svg PUBLIC "-//W3C//DTD SVG 1.1//EN"
 "http://www.w3.org/Graphics/SVG/1.1/DTD/svg11.dtd">
<!-- Generated by graphviz version 2.38.0 (20140413.2041)
 -->
<!-- Title: LittleWeebLibrary.Handlers.WebSocketHandler.OnWebSocketServerEvent Pages: 1 -->
<svg width="415pt" height="88pt"
 viewBox="0.00 0.00 415.00 88.00" xmlns="http://www.w3.org/2000/svg" xmlns:xlink="http://www.w3.org/1999/xlink">
<g id="graph0" class="graph" transform="scale(1 1) rotate(0) translate(4 84)">
<title>LittleWeebLibrary.Handlers.WebSocketHandler.OnWebSocketServerEvent</title>
<polygon fill="white" stroke="none" points="-4,4 -4,-84 411,-84 411,4 -4,4"/>
<!-- Node71 -->
<g id="node1" class="node"><title>Node71</title>
<polygon fill="#bfbfbf" stroke="black" points="0,-24.5 0,-54.5 218,-54.5 218,-24.5 0,-24.5"/>
<text text-anchor="start" x="8" y="-42.5" font-family="Helvetica,sans-Serif" font-size="10.00">LittleWeebLibrary.Handlers.</text>
<text text-anchor="middle" x="109" y="-31.5" font-family="Helvetica,sans-Serif" font-size="10.00">WebSocketHandler.OnWebSocketServerEvent</text>
</g>
<!-- Node72 -->
<g id="node2" class="node"><title>Node72</title>
<g id="a_node2"><a xlink:href="class_little_weeb_library_1_1_models_1_1_json_received_response.html#abed77a236608efb9bf777a44e6d2361b" target="_top" xlink:title="LittleWeebLibrary.Models.\lJsonReceivedResponse.ToJson">
<polygon fill="white" stroke="black" points="254,-49.5 254,-79.5 407,-79.5 407,-49.5 254,-49.5"/>
<text text-anchor="start" x="262" y="-67.5" font-family="Helvetica,sans-Serif" font-size="10.00">LittleWeebLibrary.Models.</text>
<text text-anchor="middle" x="330.5" y="-56.5" font-family="Helvetica,sans-Serif" font-size="10.00">JsonReceivedResponse.ToJson</text>
</a>
</g>
</g>
<!-- Node71&#45;&gt;Node72 -->
<g id="edge1" class="edge"><title>Node71&#45;&gt;Node72</title>
<path fill="none" stroke="midnightblue" d="M218.142,-51.8169C226.759,-52.7983 235.389,-53.7812 243.819,-54.7414"/>
<polygon fill="midnightblue" stroke="midnightblue" points="243.657,-58.2455 253.989,-55.8997 244.45,-51.2905 243.657,-58.2455"/>
</g>
<!-- Node73 -->
<g id="node3" class="node"><title>Node73</title>
<g id="a_node3"><a xlink:href="class_little_weeb_library_1_1_handlers_1_1_debug_handler.html#afccb37dfd6b2114af72000c2f4fe4607" target="_top" xlink:title="LittleWeebLibrary.Handlers.\lDebugHandler.TraceMessage">
<polygon fill="white" stroke="black" points="258.5,-0.5 258.5,-30.5 402.5,-30.5 402.5,-0.5 258.5,-0.5"/>
<text text-anchor="start" x="266.5" y="-18.5" font-family="Helvetica,sans-Serif" font-size="10.00">LittleWeebLibrary.Handlers.</text>
<text text-anchor="middle" x="330.5" y="-7.5" font-family="Helvetica,sans-Serif" font-size="10.00">DebugHandler.TraceMessage</text>
</a>
</g>
</g>
<!-- Node71&#45;&gt;Node73 -->
<g id="edge2" class="edge"><title>Node71&#45;&gt;Node73</title>
<path fill="none" stroke="midnightblue" d="M218.142,-27.6758C228.262,-26.5693 238.4,-25.4608 248.212,-24.388"/>
<polygon fill="midnightblue" stroke="midnightblue" points="248.744,-27.8507 258.305,-23.2845 247.983,-20.8922 248.744,-27.8507"/>
</g>
</g>
</svg>
