<?xml version="1.0" encoding="UTF-8" standalone="no"?>
<!DOCTYPE svg PUBLIC "-//W3C//DTD SVG 1.1//EN"
 "http://www.w3.org/Graphics/SVG/1.1/DTD/svg11.dtd">
<!-- Generated by graphviz version 2.38.0 (20140413.2041)
 -->
<!-- Title: LittleWeebLibrary.Handlers.AnimeRuleHandler.FilterAnimeRules Pages: 1 -->
<svg width="584pt" height="137pt"
 viewBox="0.00 0.00 584.00 137.00" xmlns="http://www.w3.org/2000/svg" xmlns:xlink="http://www.w3.org/1999/xlink">
<g id="graph0" class="graph" transform="scale(1 1) rotate(0) translate(4 133)">
<title>LittleWeebLibrary.Handlers.AnimeRuleHandler.FilterAnimeRules</title>
<polygon fill="white" stroke="none" points="-4,4 -4,-133 580,-133 580,4 -4,4"/>
<!-- Node12 -->
<g id="node1" class="node"><title>Node12</title>
<polygon fill="#bfbfbf" stroke="black" points="0,-73.5 0,-103.5 174,-103.5 174,-73.5 0,-73.5"/>
<text text-anchor="start" x="8" y="-91.5" font-family="Helvetica,sans-Serif" font-size="10.00">LittleWeebLibrary.Handlers.</text>
<text text-anchor="middle" x="87" y="-80.5" font-family="Helvetica,sans-Serif" font-size="10.00">AnimeRuleHandler.FilterAnimeRules</text>
</g>
<!-- Node13 -->
<g id="node2" class="node"><title>Node13</title>
<g id="a_node2"><a xlink:href="class_little_weeb_library_1_1_handlers_1_1_data_base_handler.html#a7f61583807f99b7838a33d2db0f7ca68" target="_top" xlink:title="LittleWeebLibrary.Handlers.\lDataBaseHandler.GetJObject">
<polygon fill="white" stroke="black" points="210,-50.5 210,-80.5 354,-80.5 354,-50.5 210,-50.5"/>
<text text-anchor="start" x="218" y="-68.5" font-family="Helvetica,sans-Serif" font-size="10.00">LittleWeebLibrary.Handlers.</text>
<text text-anchor="middle" x="282" y="-57.5" font-family="Helvetica,sans-Serif" font-size="10.00">DataBaseHandler.GetJObject</text>
</a>
</g>
</g>
<!-- Node12&#45;&gt;Node13 -->
<g id="edge1" class="edge"><title>Node12&#45;&gt;Node13</title>
<path fill="none" stroke="midnightblue" d="M174.058,-78.2444C182.655,-77.2198 191.365,-76.1819 199.909,-75.1637"/>
<polygon fill="midnightblue" stroke="midnightblue" points="200.331,-78.6383 209.847,-73.9794 199.503,-71.6874 200.331,-78.6383"/>
</g>
<!-- Node14 -->
<g id="node3" class="node"><title>Node14</title>
<g id="a_node3"><a xlink:href="class_little_weeb_library_1_1_handlers_1_1_debug_handler.html#afccb37dfd6b2114af72000c2f4fe4607" target="_top" xlink:title="LittleWeebLibrary.Handlers.\lDebugHandler.TraceMessage">
<polygon fill="white" stroke="black" points="411,-98.5 411,-128.5 555,-128.5 555,-98.5 411,-98.5"/>
<text text-anchor="start" x="419" y="-116.5" font-family="Helvetica,sans-Serif" font-size="10.00">LittleWeebLibrary.Handlers.</text>
<text text-anchor="middle" x="483" y="-105.5" font-family="Helvetica,sans-Serif" font-size="10.00">DebugHandler.TraceMessage</text>
</a>
</g>
</g>
<!-- Node12&#45;&gt;Node14 -->
<g id="edge5" class="edge"><title>Node12&#45;&gt;Node14</title>
<path fill="none" stroke="midnightblue" d="M174.465,-93.9864C241.767,-98.2568 334.516,-104.142 400.517,-108.33"/>
<polygon fill="midnightblue" stroke="midnightblue" points="400.671,-111.846 410.872,-108.987 401.114,-104.861 400.671,-111.846"/>
</g>
<!-- Node13&#45;&gt;Node14 -->
<g id="edge2" class="edge"><title>Node13&#45;&gt;Node14</title>
<path fill="none" stroke="midnightblue" d="M345.419,-80.5558C365.886,-85.4927 388.796,-91.0187 409.919,-96.1135"/>
<polygon fill="midnightblue" stroke="midnightblue" points="409.261,-99.5552 419.803,-98.4976 410.902,-92.7503 409.261,-99.5552"/>
</g>
<!-- Node15 -->
<g id="node4" class="node"><title>Node15</title>
<g id="a_node4"><a xlink:href="class_little_weeb_library_1_1_static_classes_1_1_utility_methods.html#a7b5de7a3ecc749b655fc3ed2af55360b" target="_top" xlink:title="LittleWeebLibrary.Static\lClasses.UtilityMethods.ReadBinaryFile">
<polygon fill="white" stroke="black" points="390,-49.5 390,-79.5 576,-79.5 576,-49.5 390,-49.5"/>
<text text-anchor="start" x="398" y="-67.5" font-family="Helvetica,sans-Serif" font-size="10.00">LittleWeebLibrary.Static</text>
<text text-anchor="middle" x="483" y="-56.5" font-family="Helvetica,sans-Serif" font-size="10.00">Classes.UtilityMethods.ReadBinaryFile</text>
</a>
</g>
</g>
<!-- Node13&#45;&gt;Node15 -->
<g id="edge3" class="edge"><title>Node13&#45;&gt;Node15</title>
<path fill="none" stroke="midnightblue" d="M354.001,-65.1432C362.344,-65.1013 370.98,-65.0579 379.645,-65.0143"/>
<polygon fill="midnightblue" stroke="midnightblue" points="379.831,-68.5136 389.814,-64.9632 379.796,-61.5136 379.831,-68.5136"/>
</g>
<!-- Node16 -->
<g id="node5" class="node"><title>Node16</title>
<g id="a_node5"><a xlink:href="class_little_weeb_library_1_1_static_classes_1_1_utility_methods.html#a0a86ee01a3bf201bd9cc9b2552e54976" target="_top" xlink:title="LittleWeebLibrary.Static\lClasses.UtilityMethods.Unzip">
<polygon fill="white" stroke="black" points="410.5,-0.5 410.5,-30.5 555.5,-30.5 555.5,-0.5 410.5,-0.5"/>
<text text-anchor="start" x="418.5" y="-18.5" font-family="Helvetica,sans-Serif" font-size="10.00">LittleWeebLibrary.Static</text>
<text text-anchor="middle" x="483" y="-7.5" font-family="Helvetica,sans-Serif" font-size="10.00">Classes.UtilityMethods.Unzip</text>
</a>
</g>
</g>
<!-- Node13&#45;&gt;Node16 -->
<g id="edge4" class="edge"><title>Node13&#45;&gt;Node16</title>
<path fill="none" stroke="midnightblue" d="M342.707,-50.4984C364.547,-45.0108 389.45,-38.7538 412.101,-33.0625"/>
<polygon fill="midnightblue" stroke="midnightblue" points="413.146,-36.4088 421.992,-30.5774 411.44,-29.6198 413.146,-36.4088"/>
</g>
</g>
</svg>
