<?xml version="1.0" encoding="UTF-8" standalone="no"?>
<!DOCTYPE svg PUBLIC "-//W3C//DTD SVG 1.1//EN"
 "http://www.w3.org/Graphics/SVG/1.1/DTD/svg11.dtd">
<!-- Generated by graphviz version 2.38.0 (20140413.2041)
 -->
<!-- Title: LittleWeebLibrary.Services.InfoApiWebSocketService.GetAnimeProfile Pages: 1 -->
<!--zoomable 449 -->
<svg id="main" version="1.1" xmlns="http://www.w3.org/2000/svg" xmlns:xlink="http://www.w3.org/1999/xlink" xml:space="preserve" onload="init(evt)">
<style type="text/css"><![CDATA[
.edge:hover path { stroke: red; }
.edge:hover polygon { stroke: red; fill: red; }
]]></style>
<script type="text/javascript"><![CDATA[
var edges = document.getElementsByTagName('g');
if (edges && edges.length) {
  for (var i=0;i<edges.length;i++) {
    if (edges[i].id.substr(0,4)=='edge') {
      edges[i].setAttribute('class','edge');
    }
  }
}
]]></script>
        <defs>
                <circle id="rim" cx="0" cy="0" r="7"/>
                <circle id="rim2" cx="0" cy="0" r="3.5"/>
                <g id="zoomPlus">
                        <use xlink:href="#rim" fill="#404040">
                                <set attributeName="fill" to="#808080" begin="zoomplus.mouseover" end="zoomplus.mouseout"/>
                        </use>
                        <path d="M-4,0h8M0,-4v8" fill="none" stroke="white" stroke-width="1.5" pointer-events="none"/>
                </g>
                <g id="zoomMin">
                        <use xlink:href="#rim" fill="#404040">
                                <set attributeName="fill" to="#808080" begin="zoomminus.mouseover" end="zoomminus.mouseout"/>
                        </use>
                        <path d="M-4,0h8" fill="none" stroke="white" stroke-width="1.5" pointer-events="none"/>
                </g>
                <g id="dirArrow">
                        <path fill="none" stroke="white" stroke-width="1.5" d="M0,-3.0v7 M-2.5,-0.5L0,-3.0L2.5,-0.5"/>
                </g>
               <g id="resetDef">
                       <use xlink:href="#rim2" fill="#404040">
                               <set attributeName="fill" to="#808080" begin="reset.mouseover" end="reset.mouseout"/>
                       </use>
               </g>
        </defs>

<script type="text/javascript">
var viewWidth = 819;
var viewHeight = 449;
var sectionId = 'dynsection-3';
</script>
<script xlink:href="svgpan.js"/>
<svg id="graph" class="graph">
<g id="viewport">
<title>LittleWeebLibrary.Services.InfoApiWebSocketService.GetAnimeProfile</title>
<polygon fill="white" stroke="none" points="-4,4 -4,-445 815,-445 815,4 -4,4"/>
<!-- Node3 -->
<g id="node1" class="node"><title>Node3</title>
<polygon fill="#bfbfbf" stroke="black" points="0,-61 0,-102 175,-102 175,-61 0,-61"/>
<text text-anchor="start" x="8" y="-90" font-family="Helvetica,sans-Serif" font-size="10.00">LittleWeebLibrary.Services.</text>
<text text-anchor="start" x="8" y="-79" font-family="Helvetica,sans-Serif" font-size="10.00">InfoApiWebSocketService.GetAnime</text>
<text text-anchor="middle" x="87.5" y="-68" font-family="Helvetica,sans-Serif" font-size="10.00">Profile</text>
</g>
<!-- Node4 -->
<g id="node2" class="node"><title>Node4</title>
<g id="a_node2"><a xlink:href="class_little_weeb_library_1_1_handlers_1_1_anime_profile_handler.html#aaa89fba506cfcdad18a5aa3f9b860061" target="_top" xlink:title="LittleWeebLibrary.Handlers.\lAnimeProfileHandler.GetAnimeProfile">
<polygon fill="white" stroke="black" points="211,-246.5 211,-276.5 389,-276.5 389,-246.5 211,-246.5"/>
<text text-anchor="start" x="219" y="-264.5" font-family="Helvetica,sans-Serif" font-size="10.00">LittleWeebLibrary.Handlers.</text>
<text text-anchor="middle" x="300" y="-253.5" font-family="Helvetica,sans-Serif" font-size="10.00">AnimeProfileHandler.GetAnimeProfile</text>
</a>
</g>
</g>
<!-- Node3&#45;&gt;Node4 -->
<g id="edge1" class="edge"><title>Node3&#45;&gt;Node4</title>
<path fill="none" stroke="midnightblue" d="M112.647,-102.148C152.739,-136.431 232.668,-204.779 273.583,-239.766"/>
<polygon fill="midnightblue" stroke="midnightblue" points="271.348,-242.46 281.223,-246.299 275.897,-237.14 271.348,-242.46"/>
</g>
<!-- Node7 -->
<g id="node5" class="node"><title>Node7</title>
<g id="a_node5"><a xlink:href="class_little_weeb_library_1_1_handlers_1_1_debug_handler.html#afccb37dfd6b2114af72000c2f4fe4607" target="_top" xlink:title="LittleWeebLibrary.Handlers.\lDebugHandler.TraceMessage">
<polygon fill="white" stroke="black" points="646,-202.5 646,-232.5 790,-232.5 790,-202.5 646,-202.5"/>
<text text-anchor="start" x="654" y="-220.5" font-family="Helvetica,sans-Serif" font-size="10.00">LittleWeebLibrary.Handlers.</text>
<text text-anchor="middle" x="718" y="-209.5" font-family="Helvetica,sans-Serif" font-size="10.00">DebugHandler.TraceMessage</text>
</a>
</g>
</g>
<!-- Node3&#45;&gt;Node7 -->
<g id="edge20" class="edge"><title>Node3&#45;&gt;Node7</title>
<path fill="none" stroke="midnightblue" d="M175.247,-63.0425C278.701,-45.3874 454.511,-29.4133 589,-89.5 639.142,-111.902 680.472,-163.364 701.656,-193.773"/>
<polygon fill="midnightblue" stroke="midnightblue" points="698.812,-195.815 707.33,-202.115 704.6,-191.878 698.812,-195.815"/>
</g>
<!-- Node16 -->
<g id="node14" class="node"><title>Node16</title>
<g id="a_node14"><a xlink:href="class_little_weeb_library_1_1_handlers_1_1_web_socket_handler.html#a1de289d54d665a32c93478c68d3e6ad0" target="_top" xlink:title="LittleWeebLibrary.Handlers.\lWebSocketHandler.SendMessage">
<polygon fill="white" stroke="black" points="217,-88.5 217,-118.5 383,-118.5 383,-88.5 217,-88.5"/>
<text text-anchor="start" x="225" y="-106.5" font-family="Helvetica,sans-Serif" font-size="10.00">LittleWeebLibrary.Handlers.</text>
<text text-anchor="middle" x="300" y="-95.5" font-family="Helvetica,sans-Serif" font-size="10.00">WebSocketHandler.SendMessage</text>
</a>
</g>
</g>
<!-- Node3&#45;&gt;Node16 -->
<g id="edge17" class="edge"><title>Node3&#45;&gt;Node16</title>
<path fill="none" stroke="midnightblue" d="M175.03,-90.5435C185.513,-91.6392 196.253,-92.7616 206.815,-93.8655"/>
<polygon fill="midnightblue" stroke="midnightblue" points="206.563,-97.3581 216.872,-94.9166 207.29,-90.396 206.563,-97.3581"/>
</g>
<!-- Node17 -->
<g id="node15" class="node"><title>Node17</title>
<g id="a_node15"><a xlink:href="class_little_weeb_library_1_1_models_1_1_json_kitsu_anime_info.html#a6f026c01a93f73b903cfef82d4c2dad5" target="_top" xlink:title="LittleWeebLibrary.Models.\lJsonKitsuAnimeInfo.ToJson">
<polygon fill="white" stroke="black" points="232,-0.5 232,-30.5 368,-30.5 368,-0.5 232,-0.5"/>
<text text-anchor="start" x="240" y="-18.5" font-family="Helvetica,sans-Serif" font-size="10.00">LittleWeebLibrary.Models.</text>
<text text-anchor="middle" x="300" y="-7.5" font-family="Helvetica,sans-Serif" font-size="10.00">JsonKitsuAnimeInfo.ToJson</text>
</a>
</g>
</g>
<!-- Node3&#45;&gt;Node17 -->
<g id="edge19" class="edge"><title>Node3&#45;&gt;Node17</title>
<path fill="none" stroke="midnightblue" d="M153.95,-60.979C181.897,-52.2165 214.234,-42.0774 241.275,-33.5992"/>
<polygon fill="midnightblue" stroke="midnightblue" points="242.484,-36.888 250.979,-30.5564 240.39,-30.2086 242.484,-36.888"/>
</g>
<!-- Node5 -->
<g id="node3" class="node"><title>Node5</title>
<g id="a_node3"><a xlink:href="class_little_weeb_library_1_1_static_classes_1_1_utility_methods.html#a12336d9e64983ddabaad8950486fafb2" target="_top" xlink:title="LittleWeebLibrary.Static\lClasses.UtilityMethods.GetEpoch">
<polygon fill="white" stroke="black" points="425,-410.5 425,-440.5 589,-440.5 589,-410.5 425,-410.5"/>
<text text-anchor="start" x="433" y="-428.5" font-family="Helvetica,sans-Serif" font-size="10.00">LittleWeebLibrary.Static</text>
<text text-anchor="middle" x="507" y="-417.5" font-family="Helvetica,sans-Serif" font-size="10.00">Classes.UtilityMethods.GetEpoch</text>
</a>
</g>
</g>
<!-- Node4&#45;&gt;Node5 -->
<g id="edge2" class="edge"><title>Node4&#45;&gt;Node5</title>
<path fill="none" stroke="midnightblue" d="M310.229,-276.648C328.505,-305.362 372.141,-367.843 425,-401.5 427.577,-403.141 430.27,-404.673 433.045,-406.105"/>
<polygon fill="midnightblue" stroke="midnightblue" points="431.594,-409.29 442.137,-410.339 434.549,-402.944 431.594,-409.29"/>
</g>
<!-- Node6 -->
<g id="node4" class="node"><title>Node6</title>
<g id="a_node4"><a xlink:href="class_little_weeb_library_1_1_handlers_1_1_kitsu_handler.html#a5f655ed8b3e26f6d6767e090eea9e3bb" target="_top" xlink:title="LittleWeebLibrary.Handlers.\lKitsuHandler.GetFullAnime">
<polygon fill="white" stroke="black" points="438.5,-224.5 438.5,-254.5 575.5,-254.5 575.5,-224.5 438.5,-224.5"/>
<text text-anchor="start" x="446.5" y="-242.5" font-family="Helvetica,sans-Serif" font-size="10.00">LittleWeebLibrary.Handlers.</text>
<text text-anchor="middle" x="507" y="-231.5" font-family="Helvetica,sans-Serif" font-size="10.00">KitsuHandler.GetFullAnime</text>
</a>
</g>
</g>
<!-- Node4&#45;&gt;Node6 -->
<g id="edge3" class="edge"><title>Node4&#45;&gt;Node6</title>
<path fill="none" stroke="midnightblue" d="M389.128,-252.042C402.144,-250.646 415.475,-249.215 428.259,-247.843"/>
<polygon fill="midnightblue" stroke="midnightblue" points="428.809,-251.304 438.378,-246.757 428.062,-244.344 428.809,-251.304"/>
</g>
<!-- Node4&#45;&gt;Node7 -->
<g id="edge14" class="edge"><title>Node4&#45;&gt;Node7</title>
<path fill="none" stroke="midnightblue" d="M389.206,-274.195C447.027,-279.591 523.717,-281.149 589,-263.5 606.881,-258.666 607.915,-249.657 625,-242.5 630.811,-240.066 636.927,-237.803 643.13,-235.714"/>
<polygon fill="midnightblue" stroke="midnightblue" points="644.464,-238.962 652.917,-232.575 642.326,-232.296 644.464,-238.962"/>
</g>
<!-- Node8 -->
<g id="node6" class="node"><title>Node8</title>
<g id="a_node6"><a xlink:href="class_little_weeb_library_1_1_handlers_1_1_data_base_handler.html#a7f61583807f99b7838a33d2db0f7ca68" target="_top" xlink:title="LittleWeebLibrary.Handlers.\lDataBaseHandler.GetJObject">
<polygon fill="white" stroke="black" points="435,-361.5 435,-391.5 579,-391.5 579,-361.5 435,-361.5"/>
<text text-anchor="start" x="443" y="-379.5" font-family="Helvetica,sans-Serif" font-size="10.00">LittleWeebLibrary.Handlers.</text>
<text text-anchor="middle" x="507" y="-368.5" font-family="Helvetica,sans-Serif" font-size="10.00">DataBaseHandler.GetJObject</text>
</a>
</g>
</g>
<!-- Node4&#45;&gt;Node8 -->
<g id="edge5" class="edge"><title>Node4&#45;&gt;Node8</title>
<path fill="none" stroke="midnightblue" d="M317.814,-276.828C340.565,-296.832 383.139,-331.73 425,-352.5 428.769,-354.37 432.711,-356.122 436.739,-357.76"/>
<polygon fill="midnightblue" stroke="midnightblue" points="435.662,-361.095 446.254,-361.374 438.148,-354.551 435.662,-361.095"/>
</g>
<!-- Node11 -->
<g id="node9" class="node"><title>Node11</title>
<g id="a_node9"><a xlink:href="class_little_weeb_library_1_1_handlers_1_1_data_base_handler.html#a5e6a70ef81b049da46b6ae3a15b09cd3" target="_top" xlink:title="LittleWeebLibrary.Handlers.\lDataBaseHandler.StoreJObject">
<polygon fill="white" stroke="black" points="431,-312.5 431,-342.5 583,-342.5 583,-312.5 431,-312.5"/>
<text text-anchor="start" x="439" y="-330.5" font-family="Helvetica,sans-Serif" font-size="10.00">LittleWeebLibrary.Handlers.</text>
<text text-anchor="middle" x="507" y="-319.5" font-family="Helvetica,sans-Serif" font-size="10.00">DataBaseHandler.StoreJObject</text>
</a>
</g>
</g>
<!-- Node4&#45;&gt;Node11 -->
<g id="edge9" class="edge"><title>Node4&#45;&gt;Node11</title>
<path fill="none" stroke="midnightblue" d="M347.774,-276.559C377.974,-286.282 417.447,-298.99 449.412,-309.281"/>
<polygon fill="midnightblue" stroke="midnightblue" points="448.481,-312.658 459.072,-312.392 450.626,-305.995 448.481,-312.658"/>
</g>
<!-- Node14 -->
<g id="node12" class="node"><title>Node14</title>
<g id="a_node12"><a xlink:href="class_little_weeb_library_1_1_models_1_1_json_kitsu_anime_info.html#a2c92ffb7d523c4f75497988156b64b7b" target="_top" xlink:title="LittleWeebLibrary.Models.\lJsonKitsuAnimeInfo.ToJObject">
<polygon fill="white" stroke="black" points="432.5,-175.5 432.5,-205.5 581.5,-205.5 581.5,-175.5 432.5,-175.5"/>
<text text-anchor="start" x="440.5" y="-193.5" font-family="Helvetica,sans-Serif" font-size="10.00">LittleWeebLibrary.Models.</text>
<text text-anchor="middle" x="507" y="-182.5" font-family="Helvetica,sans-Serif" font-size="10.00">JsonKitsuAnimeInfo.ToJObject</text>
</a>
</g>
</g>
<!-- Node4&#45;&gt;Node14 -->
<g id="edge13" class="edge"><title>Node4&#45;&gt;Node14</title>
<path fill="none" stroke="midnightblue" d="M338.453,-246.474C362.919,-236.864 395.658,-224.393 425,-214.5 430.928,-212.501 437.13,-210.502 443.349,-208.559"/>
<polygon fill="midnightblue" stroke="midnightblue" points="444.572,-211.844 453.1,-205.558 442.513,-205.154 444.572,-211.844"/>
</g>
<!-- Node15 -->
<g id="node13" class="node"><title>Node15</title>
<g id="a_node13"><a xlink:href="class_little_weeb_library_1_1_handlers_1_1_data_base_handler.html#a9b2223ff71f688234f95d247ea3b5739" target="_top" xlink:title="LittleWeebLibrary.Handlers.\lDataBaseHandler.UpdateJObject">
<polygon fill="white" stroke="black" points="427.5,-126.5 427.5,-156.5 586.5,-156.5 586.5,-126.5 427.5,-126.5"/>
<text text-anchor="start" x="435.5" y="-144.5" font-family="Helvetica,sans-Serif" font-size="10.00">LittleWeebLibrary.Handlers.</text>
<text text-anchor="middle" x="507" y="-133.5" font-family="Helvetica,sans-Serif" font-size="10.00">DataBaseHandler.UpdateJObject</text>
</a>
</g>
</g>
<!-- Node4&#45;&gt;Node15 -->
<g id="edge15" class="edge"><title>Node4&#45;&gt;Node15</title>
<path fill="none" stroke="midnightblue" d="M316.508,-246.348C338.768,-225.377 381.869,-187.596 425,-165.5 428.569,-163.671 432.3,-161.96 436.118,-160.361"/>
<polygon fill="midnightblue" stroke="midnightblue" points="437.691,-163.504 445.741,-156.616 435.153,-156.981 437.691,-163.504"/>
</g>
<!-- Node6&#45;&gt;Node7 -->
<g id="edge4" class="edge"><title>Node6&#45;&gt;Node7</title>
<path fill="none" stroke="midnightblue" d="M575.568,-232.388C594.748,-230.369 615.834,-228.149 635.736,-226.054"/>
<polygon fill="midnightblue" stroke="midnightblue" points="636.128,-229.532 645.707,-225.005 635.395,-222.571 636.128,-229.532"/>
</g>
<!-- Node8&#45;&gt;Node7 -->
<g id="edge7" class="edge"><title>Node8&#45;&gt;Node7</title>
<path fill="none" stroke="midnightblue" d="M577.027,-361.5C581.37,-358.952 585.424,-355.976 589,-352.5 625.884,-316.643 587.711,-277.936 625,-242.5 628.562,-239.115 632.535,-236.179 636.776,-233.633"/>
<polygon fill="midnightblue" stroke="midnightblue" points="638.552,-236.655 645.811,-228.937 635.324,-230.444 638.552,-236.655"/>
</g>
<!-- Node9 -->
<g id="node7" class="node"><title>Node9</title>
<g id="a_node7"><a xlink:href="class_little_weeb_library_1_1_static_classes_1_1_utility_methods.html#a7b5de7a3ecc749b655fc3ed2af55360b" target="_top" xlink:title="LittleWeebLibrary.Static\lClasses.UtilityMethods.ReadBinaryFile">
<polygon fill="white" stroke="black" points="625,-361.5 625,-391.5 811,-391.5 811,-361.5 625,-361.5"/>
<text text-anchor="start" x="633" y="-379.5" font-family="Helvetica,sans-Serif" font-size="10.00">LittleWeebLibrary.Static</text>
<text text-anchor="middle" x="718" y="-368.5" font-family="Helvetica,sans-Serif" font-size="10.00">Classes.UtilityMethods.ReadBinaryFile</text>
</a>
</g>
</g>
<!-- Node8&#45;&gt;Node9 -->
<g id="edge6" class="edge"><title>Node8&#45;&gt;Node9</title>
<path fill="none" stroke="midnightblue" d="M579.049,-376.5C590.514,-376.5 602.578,-376.5 614.605,-376.5"/>
<polygon fill="midnightblue" stroke="midnightblue" points="614.686,-380 624.686,-376.5 614.685,-373 614.686,-380"/>
</g>
<!-- Node10 -->
<g id="node8" class="node"><title>Node10</title>
<g id="a_node8"><a xlink:href="class_little_weeb_library_1_1_static_classes_1_1_utility_methods.html#a0a86ee01a3bf201bd9cc9b2552e54976" target="_top" xlink:title="LittleWeebLibrary.Static\lClasses.UtilityMethods.Unzip">
<polygon fill="white" stroke="black" points="645.5,-410.5 645.5,-440.5 790.5,-440.5 790.5,-410.5 645.5,-410.5"/>
<text text-anchor="start" x="653.5" y="-428.5" font-family="Helvetica,sans-Serif" font-size="10.00">LittleWeebLibrary.Static</text>
<text text-anchor="middle" x="718" y="-417.5" font-family="Helvetica,sans-Serif" font-size="10.00">Classes.UtilityMethods.Unzip</text>
</a>
</g>
</g>
<!-- Node8&#45;&gt;Node10 -->
<g id="edge8" class="edge"><title>Node8&#45;&gt;Node10</title>
<path fill="none" stroke="midnightblue" d="M572.127,-391.535C594.596,-396.802 620.007,-402.76 643.203,-408.198"/>
<polygon fill="midnightblue" stroke="midnightblue" points="642.459,-411.619 652.994,-410.494 644.057,-404.804 642.459,-411.619"/>
</g>
<!-- Node11&#45;&gt;Node7 -->
<g id="edge10" class="edge"><title>Node11&#45;&gt;Node7</title>
<path fill="none" stroke="midnightblue" d="M563.257,-312.466C572.404,-308.5 581.378,-303.576 589,-297.5 611.846,-279.29 601.364,-259.671 625,-242.5 628.639,-239.857 632.541,-237.493 636.611,-235.379"/>
<polygon fill="midnightblue" stroke="midnightblue" points="638.151,-238.523 645.749,-231.139 635.205,-232.173 638.151,-238.523"/>
</g>
<!-- Node12 -->
<g id="node10" class="node"><title>Node12</title>
<g id="a_node10"><a xlink:href="class_little_weeb_library_1_1_static_classes_1_1_utility_methods.html#a6542a3a6ea0aed6b4d78bb44a4a7d9d7" target="_top" xlink:title="LittleWeebLibrary.Static\lClasses.UtilityMethods.Write\lBinaryFile">
<polygon fill="white" stroke="black" points="646.5,-252 646.5,-293 789.5,-293 789.5,-252 646.5,-252"/>
<text text-anchor="start" x="654.5" y="-281" font-family="Helvetica,sans-Serif" font-size="10.00">LittleWeebLibrary.Static</text>
<text text-anchor="start" x="654.5" y="-270" font-family="Helvetica,sans-Serif" font-size="10.00">Classes.UtilityMethods.Write</text>
<text text-anchor="middle" x="718" y="-259" font-family="Helvetica,sans-Serif" font-size="10.00">BinaryFile</text>
</a>
</g>
</g>
<!-- Node11&#45;&gt;Node12 -->
<g id="edge11" class="edge"><title>Node11&#45;&gt;Node12</title>
<path fill="none" stroke="midnightblue" d="M565.11,-312.471C587.099,-306.684 612.639,-299.963 636.431,-293.702"/>
<polygon fill="midnightblue" stroke="midnightblue" points="637.371,-297.074 646.151,-291.144 635.59,-290.305 637.371,-297.074"/>
</g>
<!-- Node13 -->
<g id="node11" class="node"><title>Node13</title>
<g id="a_node11"><a xlink:href="class_little_weeb_library_1_1_static_classes_1_1_utility_methods.html#a16933213071d531063b29979e7b55fe8" target="_top" xlink:title="LittleWeebLibrary.Static\lClasses.UtilityMethods.Zip">
<polygon fill="white" stroke="black" points="651.5,-312.5 651.5,-342.5 784.5,-342.5 784.5,-312.5 651.5,-312.5"/>
<text text-anchor="start" x="659.5" y="-330.5" font-family="Helvetica,sans-Serif" font-size="10.00">LittleWeebLibrary.Static</text>
<text text-anchor="middle" x="718" y="-319.5" font-family="Helvetica,sans-Serif" font-size="10.00">Classes.UtilityMethods.Zip</text>
</a>
</g>
</g>
<!-- Node11&#45;&gt;Node13 -->
<g id="edge12" class="edge"><title>Node11&#45;&gt;Node13</title>
<path fill="none" stroke="midnightblue" d="M583.159,-327.5C602.106,-327.5 622.453,-327.5 641.421,-327.5"/>
<polygon fill="midnightblue" stroke="midnightblue" points="641.498,-331 651.498,-327.5 641.498,-324 641.498,-331"/>
</g>
<!-- Node15&#45;&gt;Node7 -->
<g id="edge16" class="edge"><title>Node15&#45;&gt;Node7</title>
<path fill="none" stroke="midnightblue" d="M561.394,-156.513C570.649,-159.345 580.141,-162.396 589,-165.5 617.378,-175.442 648.656,-188.116 673.19,-198.463"/>
<polygon fill="midnightblue" stroke="midnightblue" points="672.009,-201.763 682.581,-202.448 674.743,-195.319 672.009,-201.763"/>
</g>
<!-- Node16&#45;&gt;Node7 -->
<g id="edge18" class="edge"><title>Node16&#45;&gt;Node7</title>
<path fill="none" stroke="midnightblue" d="M383.102,-94.0999C442.216,-90.4241 522.867,-91.8659 589,-116.5 633.042,-132.906 673.797,-170.515 697.003,-194.923"/>
<polygon fill="midnightblue" stroke="midnightblue" points="694.529,-197.402 703.903,-202.341 699.655,-192.635 694.529,-197.402"/>
</g>
</g>
</svg>
        <g id="navigator" transform="translate(0 0)" fill="#404254">
                <rect fill="#f2f5e9" fill-opacity="0.5" stroke="#606060" stroke-width=".5" x="0" y="0" width="60" height="60"/>
                <use id="zoomplus" xlink:href="#zoomPlus" x="17" y="9" onmousedown="handleZoom(evt,'in')"/>
                <use id="zoomminus" xlink:href="#zoomMin" x="42" y="9" onmousedown="handleZoom(evt,'out')"/>
                <use id="reset" xlink:href="#resetDef" x="30" y="36" onmousedown="handleReset()"/>
                <g id="arrowUp" xlink:href="#dirArrow" transform="translate(30 24)" onmousedown="handlePan(0,-1)">
                  <use xlink:href="#rim" fill="#404040">
                        <set attributeName="fill" to="#808080" begin="arrowUp.mouseover" end="arrowUp.mouseout"/>
                  </use>
                  <path fill="none" stroke="white" stroke-width="1.5" d="M0,-3.0v7 M-2.5,-0.5L0,-3.0L2.5,-0.5"/>
                </g>
                <g id="arrowRight" xlink:href="#dirArrow" transform="rotate(90) translate(36 -43)" onmousedown="handlePan(1,0)">
                  <use xlink:href="#rim" fill="#404040">
                        <set attributeName="fill" to="#808080" begin="arrowRight.mouseover" end="arrowRight.mouseout"/>
                  </use>
                  <path fill="none" stroke="white" stroke-width="1.5" d="M0,-3.0v7 M-2.5,-0.5L0,-3.0L2.5,-0.5"/>
                </g>
                <g id="arrowDown" xlink:href="#dirArrow" transform="rotate(180) translate(-30 -48)" onmousedown="handlePan(0,1)">
                  <use xlink:href="#rim" fill="#404040">
                        <set attributeName="fill" to="#808080" begin="arrowDown.mouseover" end="arrowDown.mouseout"/>
                  </use>
                  <path fill="none" stroke="white" stroke-width="1.5" d="M0,-3.0v7 M-2.5,-0.5L0,-3.0L2.5,-0.5"/>
                </g>
                <g id="arrowLeft" xlink:href="#dirArrow" transform="rotate(270) translate(-36 17)" onmousedown="handlePan(-1,0)">
                  <use xlink:href="#rim" fill="#404040">
                        <set attributeName="fill" to="#808080" begin="arrowLeft.mouseover" end="arrowLeft.mouseout"/>
                  </use>
                  <path fill="none" stroke="white" stroke-width="1.5" d="M0,-3.0v7 M-2.5,-0.5L0,-3.0L2.5,-0.5"/>
                </g>
        </g>
        <svg viewBox="0 0 15 15" width="100%" height="30px" preserveAspectRatio="xMaxYMin meet">
         <g id="arrow_out" transform="scale(0.3 0.3)">
          <a xlink:href="class_little_weeb_library_1_1_services_1_1_info_api_web_socket_service_a12f4d83332b28988ce0e2bc5ff3ed369_cgraph_org.svg" target="_base">
           <rect id="button" ry="5" rx="5" y="6" x="6" height="38" width="38"
                fill="#f2f5e9" fill-opacity="0.5" stroke="#606060" stroke-width="1.0"/>
           <path id="arrow"
             d="M 11.500037,31.436501 C 11.940474,20.09759 22.043105,11.32322 32.158766,21.979434 L 37.068811,17.246167 C 37.068811,17.246167 37.088388,32 37.088388,32 L 22.160133,31.978069 C 22.160133,31.978069 26.997745,27.140456 26.997745,27.140456 C 18.528582,18.264221 13.291696,25.230495 11.500037,31.436501 z"
             style="fill:#404040;"/>
          </a>
         </g>
        </svg>
</svg>
