<?xml version="1.0" encoding="UTF-8" standalone="no"?>
<!DOCTYPE svg PUBLIC "-//W3C//DTD SVG 1.1//EN"
 "http://www.w3.org/Graphics/SVG/1.1/DTD/svg11.dtd">
<!-- Generated by graphviz version 2.38.0 (20140413.2041)
 -->
<!-- Title: LittleWeebLibrary.Services.SettingsWebSocketService.SetIrcSettings Pages: 1 -->
<svg width="554pt" height="274pt"
 viewBox="0.00 0.00 554.00 274.00" xmlns="http://www.w3.org/2000/svg" xmlns:xlink="http://www.w3.org/1999/xlink">
<g id="graph0" class="graph" transform="scale(1 1) rotate(0) translate(4 270)">
<title>LittleWeebLibrary.Services.SettingsWebSocketService.SetIrcSettings</title>
<polygon fill="white" stroke="none" points="-4,4 -4,-270 550,-270 550,4 -4,4"/>
<!-- Node23 -->
<g id="node1" class="node"><title>Node23</title>
<polygon fill="#bfbfbf" stroke="black" points="0,-117 0,-158 164,-158 164,-117 0,-117"/>
<text text-anchor="start" x="8" y="-146" font-family="Helvetica,sans-Serif" font-size="10.00">LittleWeebLibrary.Services.</text>
<text text-anchor="start" x="8" y="-135" font-family="Helvetica,sans-Serif" font-size="10.00">SettingsWebSocketService.SetIrc</text>
<text text-anchor="middle" x="82" y="-124" font-family="Helvetica,sans-Serif" font-size="10.00">Settings</text>
</g>
<!-- Node24 -->
<g id="node2" class="node"><title>Node24</title>
<g id="a_node2"><a xlink:href="class_little_weeb_library_1_1_handlers_1_1_settings_handler.html#a22195b5d1df129295e0e30298611bdba" target="_top" xlink:title="LittleWeebLibrary.Handlers.\lSettingsHandler.GetIrcSettings">
<polygon fill="white" stroke="black" points="207.5,-235.5 207.5,-265.5 358.5,-265.5 358.5,-235.5 207.5,-235.5"/>
<text text-anchor="start" x="215.5" y="-253.5" font-family="Helvetica,sans-Serif" font-size="10.00">LittleWeebLibrary.Handlers.</text>
<text text-anchor="middle" x="283" y="-242.5" font-family="Helvetica,sans-Serif" font-size="10.00">SettingsHandler.GetIrcSettings</text>
</a>
</g>
</g>
<!-- Node23&#45;&gt;Node24 -->
<g id="edge1" class="edge"><title>Node23&#45;&gt;Node24</title>
<path fill="none" stroke="midnightblue" d="M107.752,-158.032C130.606,-176.246 166.05,-202.658 200,-220.5 207.8,-224.599 216.285,-228.383 224.742,-231.784"/>
<polygon fill="midnightblue" stroke="midnightblue" points="223.651,-235.115 234.24,-235.458 226.176,-228.586 223.651,-235.115"/>
</g>
<!-- Node25 -->
<g id="node3" class="node"><title>Node25</title>
<g id="a_node3"><a xlink:href="class_little_weeb_library_1_1_handlers_1_1_debug_handler.html#afccb37dfd6b2114af72000c2f4fe4607" target="_top" xlink:title="LittleWeebLibrary.Handlers.\lDebugHandler.TraceMessage">
<polygon fill="white" stroke="black" points="402,-169.5 402,-199.5 546,-199.5 546,-169.5 402,-169.5"/>
<text text-anchor="start" x="410" y="-187.5" font-family="Helvetica,sans-Serif" font-size="10.00">LittleWeebLibrary.Handlers.</text>
<text text-anchor="middle" x="474" y="-176.5" font-family="Helvetica,sans-Serif" font-size="10.00">DebugHandler.TraceMessage</text>
</a>
</g>
</g>
<!-- Node23&#45;&gt;Node25 -->
<g id="edge7" class="edge"><title>Node23&#45;&gt;Node25</title>
<path fill="none" stroke="midnightblue" d="M120.464,-158.117C142.821,-169.231 172.192,-181.807 200,-187.5 263.496,-200.499 337.048,-198.755 391.799,-194.31"/>
<polygon fill="midnightblue" stroke="midnightblue" points="392.132,-197.794 401.796,-193.451 391.533,-190.82 392.132,-197.794"/>
</g>
<!-- Node26 -->
<g id="node4" class="node"><title>Node26</title>
<g id="a_node4"><a xlink:href="class_little_weeb_library_1_1_handlers_1_1_web_socket_handler.html#a1de289d54d665a32c93478c68d3e6ad0" target="_top" xlink:title="LittleWeebLibrary.Handlers.\lWebSocketHandler.SendMessage">
<polygon fill="white" stroke="black" points="200,-147.5 200,-177.5 366,-177.5 366,-147.5 200,-147.5"/>
<text text-anchor="start" x="208" y="-165.5" font-family="Helvetica,sans-Serif" font-size="10.00">LittleWeebLibrary.Handlers.</text>
<text text-anchor="middle" x="283" y="-154.5" font-family="Helvetica,sans-Serif" font-size="10.00">WebSocketHandler.SendMessage</text>
</a>
</g>
</g>
<!-- Node23&#45;&gt;Node26 -->
<g id="edge3" class="edge"><title>Node23&#45;&gt;Node26</title>
<path fill="none" stroke="midnightblue" d="M164.228,-147.705C172.648,-148.762 181.248,-149.843 189.777,-150.914"/>
<polygon fill="midnightblue" stroke="midnightblue" points="189.383,-154.392 199.741,-152.166 190.255,-147.447 189.383,-154.392"/>
</g>
<!-- Node27 -->
<g id="node5" class="node"><title>Node27</title>
<g id="a_node5"><a xlink:href="class_little_weeb_library_1_1_models_1_1_json_error.html#a0e3e7dd2e2990404b7f0461742b23440" target="_top" xlink:title="LittleWeebLibrary.Models.\lJsonError.ToJson">
<polygon fill="white" stroke="black" points="218,-98.5 218,-128.5 348,-128.5 348,-98.5 218,-98.5"/>
<text text-anchor="start" x="226" y="-116.5" font-family="Helvetica,sans-Serif" font-size="10.00">LittleWeebLibrary.Models.</text>
<text text-anchor="middle" x="283" y="-105.5" font-family="Helvetica,sans-Serif" font-size="10.00">JsonError.ToJson</text>
</a>
</g>
</g>
<!-- Node23&#45;&gt;Node27 -->
<g id="edge5" class="edge"><title>Node23&#45;&gt;Node27</title>
<path fill="none" stroke="midnightblue" d="M164.228,-127.704C178.584,-125.972 193.465,-124.178 207.621,-122.47"/>
<polygon fill="midnightblue" stroke="midnightblue" points="208.273,-125.917 217.782,-121.245 207.435,-118.967 208.273,-125.917"/>
</g>
<!-- Node28 -->
<g id="node6" class="node"><title>Node28</title>
<g id="a_node6"><a xlink:href="class_little_weeb_library_1_1_models_1_1_json_error.html#ad7d5522c90119111d2e929f39e7f6d3c" target="_top" xlink:title="LittleWeebLibrary.Models.\lJsonError.ToString">
<polygon fill="white" stroke="black" points="218,-49.5 218,-79.5 348,-79.5 348,-49.5 218,-49.5"/>
<text text-anchor="start" x="226" y="-67.5" font-family="Helvetica,sans-Serif" font-size="10.00">LittleWeebLibrary.Models.</text>
<text text-anchor="middle" x="283" y="-56.5" font-family="Helvetica,sans-Serif" font-size="10.00">JsonError.ToString</text>
</a>
</g>
</g>
<!-- Node23&#45;&gt;Node28 -->
<g id="edge6" class="edge"><title>Node23&#45;&gt;Node28</title>
<path fill="none" stroke="midnightblue" d="M130.144,-116.984C151.324,-108.073 176.736,-97.7981 200,-89.5 206.499,-87.182 213.333,-84.8837 220.168,-82.674"/>
<polygon fill="midnightblue" stroke="midnightblue" points="221.671,-85.8691 230.143,-79.5078 219.553,-79.1971 221.671,-85.8691"/>
</g>
<!-- Node29 -->
<g id="node7" class="node"><title>Node29</title>
<g id="a_node7"><a xlink:href="class_little_weeb_library_1_1_handlers_1_1_settings_handler.html#ad42462e9e851301c5f5b91663dc3fe24" target="_top" xlink:title="LittleWeebLibrary.Handlers.\lSettingsHandler.WriteIrcSettings">
<polygon fill="white" stroke="black" points="204,-0.5 204,-30.5 362,-30.5 362,-0.5 204,-0.5"/>
<text text-anchor="start" x="212" y="-18.5" font-family="Helvetica,sans-Serif" font-size="10.00">LittleWeebLibrary.Handlers.</text>
<text text-anchor="middle" x="283" y="-7.5" font-family="Helvetica,sans-Serif" font-size="10.00">SettingsHandler.WriteIrcSettings</text>
</a>
</g>
</g>
<!-- Node23&#45;&gt;Node29 -->
<g id="edge8" class="edge"><title>Node23&#45;&gt;Node29</title>
<path fill="none" stroke="midnightblue" d="M102.226,-116.968C123.986,-94.8663 161.445,-60.1138 200,-39.5 203.434,-37.6641 207.026,-35.9523 210.707,-34.3586"/>
<polygon fill="midnightblue" stroke="midnightblue" points="212.02,-37.603 220.003,-30.6365 209.418,-31.1045 212.02,-37.603"/>
</g>
<!-- Node24&#45;&gt;Node25 -->
<g id="edge2" class="edge"><title>Node24&#45;&gt;Node25</title>
<path fill="none" stroke="midnightblue" d="M327.36,-235.358C354.972,-225.716 390.92,-213.163 420.192,-202.941"/>
<polygon fill="midnightblue" stroke="midnightblue" points="421.554,-206.172 429.841,-199.571 419.247,-199.564 421.554,-206.172"/>
</g>
<!-- Node26&#45;&gt;Node25 -->
<g id="edge4" class="edge"><title>Node26&#45;&gt;Node25</title>
<path fill="none" stroke="midnightblue" d="M366.074,-172.054C374.666,-173.054 383.398,-174.07 391.978,-175.069"/>
<polygon fill="midnightblue" stroke="midnightblue" points="391.626,-178.551 401.964,-176.231 392.435,-171.598 391.626,-178.551"/>
</g>
<!-- Node29&#45;&gt;Node25 -->
<g id="edge10" class="edge"><title>Node29&#45;&gt;Node25</title>
<path fill="none" stroke="midnightblue" d="M350.232,-30.6669C355.791,-33.1791 361.136,-36.1015 366,-39.5 411.087,-71.0054 444.712,-127.626 461.353,-160.006"/>
<polygon fill="midnightblue" stroke="midnightblue" points="458.36,-161.846 465.966,-169.222 464.62,-158.713 458.36,-161.846"/>
</g>
<!-- Node30 -->
<g id="node8" class="node"><title>Node30</title>
<g id="a_node8"><a xlink:href="class_little_weeb_library_1_1_settings_1_1_irc_settings.html#a2e1d7f26d7d3083d19c3a9e6c6c2d0b2" target="_top" xlink:title="LittleWeebLibrary.Settings.\lIrcSettings.ToString">
<polygon fill="white" stroke="black" points="407,-0.5 407,-30.5 541,-30.5 541,-0.5 407,-0.5"/>
<text text-anchor="start" x="415" y="-18.5" font-family="Helvetica,sans-Serif" font-size="10.00">LittleWeebLibrary.Settings.</text>
<text text-anchor="middle" x="474" y="-7.5" font-family="Helvetica,sans-Serif" font-size="10.00">IrcSettings.ToString</text>
</a>
</g>
</g>
<!-- Node29&#45;&gt;Node30 -->
<g id="edge9" class="edge"><title>Node29&#45;&gt;Node30</title>
<path fill="none" stroke="midnightblue" d="M362.238,-15.5C373.59,-15.5 385.264,-15.5 396.579,-15.5"/>
<polygon fill="midnightblue" stroke="midnightblue" points="396.85,-19.0001 406.85,-15.5 396.85,-12.0001 396.85,-19.0001"/>
</g>
</g>
</svg>
