<?xml version="1.0" encoding="UTF-8" standalone="no"?>
<!DOCTYPE svg PUBLIC "-//W3C//DTD SVG 1.1//EN"
 "http://www.w3.org/Graphics/SVG/1.1/DTD/svg11.dtd">
<!-- Generated by graphviz version 2.38.0 (20140413.2041)
 -->
<!-- Title: LittleWeebLibrary.Handlers.WebSocketHandler.StartServer Pages: 1 -->
<svg width="479pt" height="39pt"
 viewBox="0.00 0.00 479.00 39.00" xmlns="http://www.w3.org/2000/svg" xmlns:xlink="http://www.w3.org/1999/xlink">
<g id="graph0" class="graph" transform="scale(1 1) rotate(0) translate(4 35)">
<title>LittleWeebLibrary.Handlers.WebSocketHandler.StartServer</title>
<polygon fill="white" stroke="none" points="-4,4 -4,-35 475,-35 475,4 -4,4"/>
<!-- Node10 -->
<g id="node1" class="node"><title>Node10</title>
<polygon fill="#bfbfbf" stroke="black" points="0,-0.5 0,-30.5 152,-30.5 152,-0.5 0,-0.5"/>
<text text-anchor="start" x="8" y="-18.5" font-family="Helvetica,sans-Serif" font-size="10.00">LittleWeebLibrary.Handlers.</text>
<text text-anchor="middle" x="76" y="-7.5" font-family="Helvetica,sans-Serif" font-size="10.00">WebSocketHandler.StartServer</text>
</g>
<!-- Node11 -->
<g id="node2" class="node"><title>Node11</title>
<g id="a_node2"><a xlink:href="class_little_weeb_library_1_1_start_up.html#a2ea98092dfdb92bfc6decfdc373d6e78" target="_top" xlink:title="LittleWeebLibrary.StartUp.\lStart">
<polygon fill="white" stroke="black" points="188,-0.5 188,-30.5 319,-30.5 319,-0.5 188,-0.5"/>
<text text-anchor="start" x="196" y="-18.5" font-family="Helvetica,sans-Serif" font-size="10.00">LittleWeebLibrary.StartUp.</text>
<text text-anchor="middle" x="253.5" y="-7.5" font-family="Helvetica,sans-Serif" font-size="10.00">Start</text>
</a>
</g>
</g>
<!-- Node10&#45;&gt;Node11 -->
<g id="edge1" class="edge"><title>Node10&#45;&gt;Node11</title>
<path fill="none" stroke="midnightblue" d="M162.294,-15.5C170.929,-15.5 179.596,-15.5 187.96,-15.5"/>
<polygon fill="midnightblue" stroke="midnightblue" points="162.192,-12.0001 152.192,-15.5 162.192,-19.0001 162.192,-12.0001"/>
</g>
<!-- Node12 -->
<g id="node3" class="node"><title>Node12</title>
<g id="a_node3"><a xlink:href="class_little_weeb_library_1_1_little_weeb.html#a15e3c466b1eccd90f03c3d2661dfbfd7" target="_top" xlink:title="LittleWeebLibrary.Little\lWeeb.LittleWeeb">
<polygon fill="white" stroke="black" points="355,-0.5 355,-30.5 471,-30.5 471,-0.5 355,-0.5"/>
<text text-anchor="start" x="363" y="-18.5" font-family="Helvetica,sans-Serif" font-size="10.00">LittleWeebLibrary.Little</text>
<text text-anchor="middle" x="413" y="-7.5" font-family="Helvetica,sans-Serif" font-size="10.00">Weeb.LittleWeeb</text>
</a>
</g>
</g>
<!-- Node11&#45;&gt;Node12 -->
<g id="edge2" class="edge"><title>Node11&#45;&gt;Node12</title>
<path fill="none" stroke="midnightblue" d="M329.132,-15.5C337.797,-15.5 346.529,-15.5 354.906,-15.5"/>
<polygon fill="midnightblue" stroke="midnightblue" points="329.016,-12.0001 319.016,-15.5 329.016,-19.0001 329.016,-12.0001"/>
</g>
</g>
</svg>
