<?xml version="1.0" encoding="UTF-8" standalone="no"?>
<!DOCTYPE svg PUBLIC "-//W3C//DTD SVG 1.1//EN"
 "http://www.w3.org/Graphics/SVG/1.1/DTD/svg11.dtd">
<!-- Generated by graphviz version 2.38.0 (20140413.2041)
 -->
<!-- Title: LittleWeebLibrary.Models.JsonError.ToJObject Pages: 1 -->
<!--zoomable 247 -->
<svg id="main" version="1.1" xmlns="http://www.w3.org/2000/svg" xmlns:xlink="http://www.w3.org/1999/xlink" xml:space="preserve" onload="init(evt)">
<style type="text/css"><![CDATA[
.edge:hover path { stroke: red; }
.edge:hover polygon { stroke: red; fill: red; }
]]></style>
<script type="text/javascript"><![CDATA[
var edges = document.getElementsByTagName('g');
if (edges && edges.length) {
  for (var i=0;i<edges.length;i++) {
    if (edges[i].id.substr(0,4)=='edge') {
      edges[i].setAttribute('class','edge');
    }
  }
}
]]></script>
        <defs>
                <circle id="rim" cx="0" cy="0" r="7"/>
                <circle id="rim2" cx="0" cy="0" r="3.5"/>
                <g id="zoomPlus">
                        <use xlink:href="#rim" fill="#404040">
                                <set attributeName="fill" to="#808080" begin="zoomplus.mouseover" end="zoomplus.mouseout"/>
                        </use>
                        <path d="M-4,0h8M0,-4v8" fill="none" stroke="white" stroke-width="1.5" pointer-events="none"/>
                </g>
                <g id="zoomMin">
                        <use xlink:href="#rim" fill="#404040">
                                <set attributeName="fill" to="#808080" begin="zoomminus.mouseover" end="zoomminus.mouseout"/>
                        </use>
                        <path d="M-4,0h8" fill="none" stroke="white" stroke-width="1.5" pointer-events="none"/>
                </g>
                <g id="dirArrow">
                        <path fill="none" stroke="white" stroke-width="1.5" d="M0,-3.0v7 M-2.5,-0.5L0,-3.0L2.5,-0.5"/>
                </g>
               <g id="resetDef">
                       <use xlink:href="#rim2" fill="#404040">
                               <set attributeName="fill" to="#808080" begin="reset.mouseover" end="reset.mouseout"/>
                       </use>
               </g>
        </defs>

<script type="text/javascript">
var viewWidth = 841;
var viewHeight = 247;
var sectionId = 'dynsection-3';
</script>
<script xlink:href="svgpan.js"/>
<svg id="graph" class="graph">
<g id="viewport">
<title>LittleWeebLibrary.Models.JsonError.ToJObject</title>
<polygon fill="white" stroke="none" points="-4,4 -4,-243 837,-243 837,4 -4,4"/>
<!-- Node82 -->
<g id="node1" class="node"><title>Node82</title>
<polygon fill="#bfbfbf" stroke="black" points="0,-134.5 0,-164.5 130,-164.5 130,-134.5 0,-134.5"/>
<text text-anchor="start" x="8" y="-152.5" font-family="Helvetica,sans-Serif" font-size="10.00">LittleWeebLibrary.Models.</text>
<text text-anchor="middle" x="65" y="-141.5" font-family="Helvetica,sans-Serif" font-size="10.00">JsonError.ToJObject</text>
</g>
<!-- Node83 -->
<g id="node2" class="node"><title>Node83</title>
<g id="a_node2"><a xlink:href="class_little_weeb_library_1_1_handlers_1_1_download_handler.html#a5a28664c89bf43b921fc9d3f1845b5a1" target="_top" xlink:title="LittleWeebLibrary.Handlers.\lDownloadHandler.AbortDownload">
<polygon fill="white" stroke="black" points="171.5,-208.5 171.5,-238.5 331.5,-238.5 331.5,-208.5 171.5,-208.5"/>
<text text-anchor="start" x="179.5" y="-226.5" font-family="Helvetica,sans-Serif" font-size="10.00">LittleWeebLibrary.Handlers.</text>
<text text-anchor="middle" x="251.5" y="-215.5" font-family="Helvetica,sans-Serif" font-size="10.00">DownloadHandler.AbortDownload</text>
</a>
</g>
</g>
<!-- Node82&#45;&gt;Node83 -->
<g id="edge1" class="edge"><title>Node82&#45;&gt;Node83</title>
<path fill="none" stroke="midnightblue" d="M102.007,-169.553C120.714,-179.441 144.173,-191.029 166,-199.5 174.246,-202.7 183.093,-205.682 191.845,-208.381"/>
<polygon fill="midnightblue" stroke="midnightblue" points="103.431,-166.345 92.9627,-164.71 100.126,-172.516 103.431,-166.345"/>
</g>
<!-- Node86 -->
<g id="node5" class="node"><title>Node86</title>
<g id="a_node5"><a xlink:href="class_little_weeb_library_1_1_handlers_1_1_download_handler.html#ad28cb47c19cac5e761ceff86ea021a02" target="_top" xlink:title="LittleWeebLibrary.Handlers.\lDownloadHandler.AddDownload">
<polygon fill="white" stroke="black" points="174.5,-159.5 174.5,-189.5 328.5,-189.5 328.5,-159.5 174.5,-159.5"/>
<text text-anchor="start" x="182.5" y="-177.5" font-family="Helvetica,sans-Serif" font-size="10.00">LittleWeebLibrary.Handlers.</text>
<text text-anchor="middle" x="251.5" y="-166.5" font-family="Helvetica,sans-Serif" font-size="10.00">DownloadHandler.AddDownload</text>
</a>
</g>
</g>
<!-- Node82&#45;&gt;Node86 -->
<g id="edge4" class="edge"><title>Node82&#45;&gt;Node86</title>
<path fill="none" stroke="midnightblue" d="M140.181,-159.552C151.39,-161.07 162.969,-162.639 174.222,-164.164"/>
<polygon fill="midnightblue" stroke="midnightblue" points="140.391,-156.048 130.011,-158.174 139.451,-162.985 140.391,-156.048"/>
</g>
<!-- Node88 -->
<g id="node7" class="node"><title>Node88</title>
<g id="a_node7"><a xlink:href="class_little_weeb_library_1_1_handlers_1_1_download_handler.html#ac03f2dc024c0884bb7bd1c68ee03142e" target="_top" xlink:title="LittleWeebLibrary.Handlers.\lDownloadHandler.AddDownloads">
<polygon fill="white" stroke="black" points="172,-110.5 172,-140.5 331,-140.5 331,-110.5 172,-110.5"/>
<text text-anchor="start" x="180" y="-128.5" font-family="Helvetica,sans-Serif" font-size="10.00">LittleWeebLibrary.Handlers.</text>
<text text-anchor="middle" x="251.5" y="-117.5" font-family="Helvetica,sans-Serif" font-size="10.00">DownloadHandler.AddDownloads</text>
</a>
</g>
</g>
<!-- Node82&#45;&gt;Node88 -->
<g id="edge7" class="edge"><title>Node82&#45;&gt;Node88</title>
<path fill="none" stroke="midnightblue" d="M139.981,-139.876C150.504,-138.508 161.358,-137.096 171.965,-135.716"/>
<polygon fill="midnightblue" stroke="midnightblue" points="139.476,-136.413 130.011,-141.173 140.379,-143.354 139.476,-136.413"/>
</g>
<!-- Node90 -->
<g id="node9" class="node"><title>Node90</title>
<g id="a_node9"><a xlink:href="class_little_weeb_library_1_1_handlers_1_1_download_handler.html#aac22841386d098daef366cbe05262187" target="_top" xlink:title="LittleWeebLibrary.Handlers.\lDownloadHandler.RemoveDownload">
<polygon fill="white" stroke="black" points="166,-55.5 166,-85.5 337,-85.5 337,-55.5 166,-55.5"/>
<text text-anchor="start" x="174" y="-73.5" font-family="Helvetica,sans-Serif" font-size="10.00">LittleWeebLibrary.Handlers.</text>
<text text-anchor="middle" x="251.5" y="-62.5" font-family="Helvetica,sans-Serif" font-size="10.00">DownloadHandler.RemoveDownload</text>
</a>
</g>
</g>
<!-- Node82&#45;&gt;Node90 -->
<g id="edge10" class="edge"><title>Node82&#45;&gt;Node90</title>
<path fill="none" stroke="midnightblue" d="M103.491,-129.863C122.063,-120.462 144.963,-109.354 166,-100.5 178.483,-95.2461 192.241,-90.0984 204.965,-85.5915"/>
<polygon fill="midnightblue" stroke="midnightblue" points="101.795,-126.799 94.4787,-134.462 104.977,-133.034 101.795,-126.799"/>
</g>
<!-- Node84 -->
<g id="node3" class="node"><title>Node84</title>
<g id="a_node3"><a xlink:href="class_little_weeb_library_1_1_services_1_1_download_web_socket_service.html#a0ab2f2e6fcb90cd42dfa0de9d6a58f7e" target="_top" xlink:title="LittleWeebLibrary.Services.\lDownloadWebSocketService.AbortDownload">
<polygon fill="white" stroke="black" points="373,-208.5 373,-238.5 582,-238.5 582,-208.5 373,-208.5"/>
<text text-anchor="start" x="381" y="-226.5" font-family="Helvetica,sans-Serif" font-size="10.00">LittleWeebLibrary.Services.</text>
<text text-anchor="middle" x="477.5" y="-215.5" font-family="Helvetica,sans-Serif" font-size="10.00">DownloadWebSocketService.AbortDownload</text>
</a>
</g>
</g>
<!-- Node83&#45;&gt;Node84 -->
<g id="edge2" class="edge"><title>Node83&#45;&gt;Node84</title>
<path fill="none" stroke="midnightblue" d="M341.909,-223.5C352.129,-223.5 362.611,-223.5 372.995,-223.5"/>
<polygon fill="midnightblue" stroke="midnightblue" points="341.789,-220 331.789,-223.5 341.789,-227 341.789,-220"/>
</g>
<!-- Node85 -->
<g id="node4" class="node"><title>Node85</title>
<g id="a_node4"><a xlink:href="class_little_weeb_library_1_1_controllers_1_1_download_web_socket_controller.html#a9e5e421ed57b8b2a294e17d93d027c53" target="_top" xlink:title="LittleWeebLibrary.Controllers.\lDownloadWebSocketController.OnWeb\lSocketEvent">
<polygon fill="white" stroke="black" points="632,-129 632,-170 819,-170 819,-129 632,-129"/>
<text text-anchor="start" x="640" y="-158" font-family="Helvetica,sans-Serif" font-size="10.00">LittleWeebLibrary.Controllers.</text>
<text text-anchor="start" x="640" y="-147" font-family="Helvetica,sans-Serif" font-size="10.00">DownloadWebSocketController.OnWeb</text>
<text text-anchor="middle" x="725.5" y="-136" font-family="Helvetica,sans-Serif" font-size="10.00">SocketEvent</text>
</a>
</g>
</g>
<!-- Node84&#45;&gt;Node85 -->
<g id="edge3" class="edge"><title>Node84&#45;&gt;Node85</title>
<path fill="none" stroke="midnightblue" d="M557.998,-206.001C566.137,-203.93 574.255,-201.749 582,-199.5 611.584,-190.908 644.031,-179.67 670.48,-170.025"/>
<polygon fill="midnightblue" stroke="midnightblue" points="556.943,-202.657 548.085,-208.469 558.634,-209.449 556.943,-202.657"/>
</g>
<!-- Node87 -->
<g id="node6" class="node"><title>Node87</title>
<g id="a_node6"><a xlink:href="class_little_weeb_library_1_1_services_1_1_download_web_socket_service.html#a7aaa1db63ee81a2e5246e45ef8643087" target="_top" xlink:title="LittleWeebLibrary.Services.\lDownloadWebSocketService.AddDownload">
<polygon fill="white" stroke="black" points="376,-159.5 376,-189.5 579,-189.5 579,-159.5 376,-159.5"/>
<text text-anchor="start" x="384" y="-177.5" font-family="Helvetica,sans-Serif" font-size="10.00">LittleWeebLibrary.Services.</text>
<text text-anchor="middle" x="477.5" y="-166.5" font-family="Helvetica,sans-Serif" font-size="10.00">DownloadWebSocketService.AddDownload</text>
</a>
</g>
</g>
<!-- Node86&#45;&gt;Node87 -->
<g id="edge5" class="edge"><title>Node86&#45;&gt;Node87</title>
<path fill="none" stroke="midnightblue" d="M338.765,-174.5C350.944,-174.5 363.553,-174.5 375.972,-174.5"/>
<polygon fill="midnightblue" stroke="midnightblue" points="338.649,-171 328.649,-174.5 338.649,-178 338.649,-171"/>
</g>
<!-- Node87&#45;&gt;Node85 -->
<g id="edge6" class="edge"><title>Node87&#45;&gt;Node85</title>
<path fill="none" stroke="midnightblue" d="M589.512,-163.218C603.647,-161.782 617.995,-160.324 631.801,-158.921"/>
<polygon fill="midnightblue" stroke="midnightblue" points="588.862,-159.766 579.267,-164.259 589.57,-166.73 588.862,-159.766"/>
</g>
<!-- Node89 -->
<g id="node8" class="node"><title>Node89</title>
<g id="a_node8"><a xlink:href="class_little_weeb_library_1_1_services_1_1_download_web_socket_service.html#ad6afd5ee42650d16c67790c6d2ac80c1" target="_top" xlink:title="LittleWeebLibrary.Services.\lDownloadWebSocketService.AddDownloads">
<polygon fill="white" stroke="black" points="373,-110.5 373,-140.5 582,-140.5 582,-110.5 373,-110.5"/>
<text text-anchor="start" x="381" y="-128.5" font-family="Helvetica,sans-Serif" font-size="10.00">LittleWeebLibrary.Services.</text>
<text text-anchor="middle" x="477.5" y="-117.5" font-family="Helvetica,sans-Serif" font-size="10.00">DownloadWebSocketService.AddDownloads</text>
</a>
</g>
</g>
<!-- Node88&#45;&gt;Node89 -->
<g id="edge8" class="edge"><title>Node88&#45;&gt;Node89</title>
<path fill="none" stroke="midnightblue" d="M341.395,-125.5C351.736,-125.5 362.352,-125.5 372.869,-125.5"/>
<polygon fill="midnightblue" stroke="midnightblue" points="341.159,-122 331.159,-125.5 341.159,-129 341.159,-122"/>
</g>
<!-- Node89&#45;&gt;Node85 -->
<g id="edge9" class="edge"><title>Node89&#45;&gt;Node85</title>
<path fill="none" stroke="midnightblue" d="M592.244,-136.597C605.543,-137.894 618.987,-139.206 631.95,-140.471"/>
<polygon fill="midnightblue" stroke="midnightblue" points="592.406,-133.096 582.113,-135.609 591.726,-140.063 592.406,-133.096"/>
</g>
<!-- Node91 -->
<g id="node10" class="node"><title>Node91</title>
<g id="a_node10"><a xlink:href="class_little_weeb_library_1_1_services_1_1_file_web_socket_service.html#ab1375e8e82a50dfa06d91bebe988d133" target="_top" xlink:title="LittleWeebLibrary.Services.\lFileWebSocketService.DeleteFile">
<polygon fill="white" stroke="black" points="397,-0.5 397,-30.5 558,-30.5 558,-0.5 397,-0.5"/>
<text text-anchor="start" x="405" y="-18.5" font-family="Helvetica,sans-Serif" font-size="10.00">LittleWeebLibrary.Services.</text>
<text text-anchor="middle" x="477.5" y="-7.5" font-family="Helvetica,sans-Serif" font-size="10.00">FileWebSocketService.DeleteFile</text>
</a>
</g>
</g>
<!-- Node90&#45;&gt;Node91 -->
<g id="edge11" class="edge"><title>Node90&#45;&gt;Node91</title>
<path fill="none" stroke="midnightblue" d="M322.669,-52.9426C339.172,-48.8376 356.701,-44.4974 373,-40.5 386.286,-37.2417 400.539,-33.7782 414.09,-30.5003"/>
<polygon fill="midnightblue" stroke="midnightblue" points="321.404,-49.6506 312.546,-55.463 323.096,-56.4432 321.404,-49.6506"/>
</g>
<!-- Node93 -->
<g id="node12" class="node"><title>Node93</title>
<g id="a_node12"><a xlink:href="class_little_weeb_library_1_1_services_1_1_download_web_socket_service.html#a3bc6b4176561f56b918e75527c7698d0" target="_top" xlink:title="LittleWeebLibrary.Services.\lDownloadWebSocketService.Remove\lDownload">
<polygon fill="white" stroke="black" points="388,-50 388,-91 567,-91 567,-50 388,-50"/>
<text text-anchor="start" x="396" y="-79" font-family="Helvetica,sans-Serif" font-size="10.00">LittleWeebLibrary.Services.</text>
<text text-anchor="start" x="396" y="-68" font-family="Helvetica,sans-Serif" font-size="10.00">DownloadWebSocketService.Remove</text>
<text text-anchor="middle" x="477.5" y="-57" font-family="Helvetica,sans-Serif" font-size="10.00">Download</text>
</a>
</g>
</g>
<!-- Node90&#45;&gt;Node93 -->
<g id="edge13" class="edge"><title>Node90&#45;&gt;Node93</title>
<path fill="none" stroke="midnightblue" d="M347.394,-70.5C360.847,-70.5 374.638,-70.5 387.964,-70.5"/>
<polygon fill="midnightblue" stroke="midnightblue" points="347.185,-67.0001 337.185,-70.5 347.185,-74.0001 347.185,-67.0001"/>
</g>
<!-- Node92 -->
<g id="node11" class="node"><title>Node92</title>
<g id="a_node11"><a xlink:href="class_little_weeb_library_1_1_controllers_1_1_file_web_socket_controller.html#a9ecdec41f15ac23a56c402ff2c554a08" target="_top" xlink:title="LittleWeebLibrary.Controllers.\lFileWebSocketController.OnWebSocketEvent">
<polygon fill="white" stroke="black" points="618,-0.5 618,-30.5 833,-30.5 833,-0.5 618,-0.5"/>
<text text-anchor="start" x="626" y="-18.5" font-family="Helvetica,sans-Serif" font-size="10.00">LittleWeebLibrary.Controllers.</text>
<text text-anchor="middle" x="725.5" y="-7.5" font-family="Helvetica,sans-Serif" font-size="10.00">FileWebSocketController.OnWebSocketEvent</text>
</a>
</g>
</g>
<!-- Node91&#45;&gt;Node92 -->
<g id="edge12" class="edge"><title>Node91&#45;&gt;Node92</title>
<path fill="none" stroke="midnightblue" d="M568.463,-15.5C584.538,-15.5 601.427,-15.5 617.914,-15.5"/>
<polygon fill="midnightblue" stroke="midnightblue" points="568.029,-12.0001 558.029,-15.5 568.029,-19.0001 568.029,-12.0001"/>
</g>
<!-- Node93&#45;&gt;Node85 -->
<g id="edge14" class="edge"><title>Node93&#45;&gt;Node85</title>
<path fill="none" stroke="midnightblue" d="M560.812,-93.96C567.991,-96.1268 575.133,-98.3257 582,-100.5 610.058,-109.385 640.976,-119.923 666.82,-128.947"/>
<polygon fill="midnightblue" stroke="midnightblue" points="561.604,-90.5439 551.02,-91.0304 559.597,-97.2501 561.604,-90.5439"/>
</g>
</g>
</svg>
        <g id="navigator" transform="translate(0 0)" fill="#404254">
                <rect fill="#f2f5e9" fill-opacity="0.5" stroke="#606060" stroke-width=".5" x="0" y="0" width="60" height="60"/>
                <use id="zoomplus" xlink:href="#zoomPlus" x="17" y="9" onmousedown="handleZoom(evt,'in')"/>
                <use id="zoomminus" xlink:href="#zoomMin" x="42" y="9" onmousedown="handleZoom(evt,'out')"/>
                <use id="reset" xlink:href="#resetDef" x="30" y="36" onmousedown="handleReset()"/>
                <g id="arrowUp" xlink:href="#dirArrow" transform="translate(30 24)" onmousedown="handlePan(0,-1)">
                  <use xlink:href="#rim" fill="#404040">
                        <set attributeName="fill" to="#808080" begin="arrowUp.mouseover" end="arrowUp.mouseout"/>
                  </use>
                  <path fill="none" stroke="white" stroke-width="1.5" d="M0,-3.0v7 M-2.5,-0.5L0,-3.0L2.5,-0.5"/>
                </g>
                <g id="arrowRight" xlink:href="#dirArrow" transform="rotate(90) translate(36 -43)" onmousedown="handlePan(1,0)">
                  <use xlink:href="#rim" fill="#404040">
                        <set attributeName="fill" to="#808080" begin="arrowRight.mouseover" end="arrowRight.mouseout"/>
                  </use>
                  <path fill="none" stroke="white" stroke-width="1.5" d="M0,-3.0v7 M-2.5,-0.5L0,-3.0L2.5,-0.5"/>
                </g>
                <g id="arrowDown" xlink:href="#dirArrow" transform="rotate(180) translate(-30 -48)" onmousedown="handlePan(0,1)">
                  <use xlink:href="#rim" fill="#404040">
                        <set attributeName="fill" to="#808080" begin="arrowDown.mouseover" end="arrowDown.mouseout"/>
                  </use>
                  <path fill="none" stroke="white" stroke-width="1.5" d="M0,-3.0v7 M-2.5,-0.5L0,-3.0L2.5,-0.5"/>
                </g>
                <g id="arrowLeft" xlink:href="#dirArrow" transform="rotate(270) translate(-36 17)" onmousedown="handlePan(-1,0)">
                  <use xlink:href="#rim" fill="#404040">
                        <set attributeName="fill" to="#808080" begin="arrowLeft.mouseover" end="arrowLeft.mouseout"/>
                  </use>
                  <path fill="none" stroke="white" stroke-width="1.5" d="M0,-3.0v7 M-2.5,-0.5L0,-3.0L2.5,-0.5"/>
                </g>
        </g>
        <svg viewBox="0 0 15 15" width="100%" height="30px" preserveAspectRatio="xMaxYMin meet">
         <g id="arrow_out" transform="scale(0.3 0.3)">
          <a xlink:href="class_little_weeb_library_1_1_models_1_1_json_error_a0623b835bb68d5d5e1f591df6a09dd81_icgraph_org.svg" target="_base">
           <rect id="button" ry="5" rx="5" y="6" x="6" height="38" width="38"
                fill="#f2f5e9" fill-opacity="0.5" stroke="#606060" stroke-width="1.0"/>
           <path id="arrow"
             d="M 11.500037,31.436501 C 11.940474,20.09759 22.043105,11.32322 32.158766,21.979434 L 37.068811,17.246167 C 37.068811,17.246167 37.088388,32 37.088388,32 L 22.160133,31.978069 C 22.160133,31.978069 26.997745,27.140456 26.997745,27.140456 C 18.528582,18.264221 13.291696,25.230495 11.500037,31.436501 z"
             style="fill:#404040;"/>
          </a>
         </g>
        </svg>
</svg>
