<?xml version="1.0" encoding="UTF-8" standalone="no"?>
<!DOCTYPE svg PUBLIC "-//W3C//DTD SVG 1.1//EN"
 "http://www.w3.org/Graphics/SVG/1.1/DTD/svg11.dtd">
<!-- Generated by graphviz version 2.38.0 (20140413.2041)
 -->
<!-- Title: LittleWeebLibrary.Services.IrcWebSocketService.Disconnect Pages: 1 -->
<!--zoomable 274 -->
<svg id="main" version="1.1" xmlns="http://www.w3.org/2000/svg" xmlns:xlink="http://www.w3.org/1999/xlink" xml:space="preserve" onload="init(evt)">
<style type="text/css"><![CDATA[
.edge:hover path { stroke: red; }
.edge:hover polygon { stroke: red; fill: red; }
]]></style>
<script type="text/javascript"><![CDATA[
var edges = document.getElementsByTagName('g');
if (edges && edges.length) {
  for (var i=0;i<edges.length;i++) {
    if (edges[i].id.substr(0,4)=='edge') {
      edges[i].setAttribute('class','edge');
    }
  }
}
]]></script>
        <defs>
                <circle id="rim" cx="0" cy="0" r="7"/>
                <circle id="rim2" cx="0" cy="0" r="3.5"/>
                <g id="zoomPlus">
                        <use xlink:href="#rim" fill="#404040">
                                <set attributeName="fill" to="#808080" begin="zoomplus.mouseover" end="zoomplus.mouseout"/>
                        </use>
                        <path d="M-4,0h8M0,-4v8" fill="none" stroke="white" stroke-width="1.5" pointer-events="none"/>
                </g>
                <g id="zoomMin">
                        <use xlink:href="#rim" fill="#404040">
                                <set attributeName="fill" to="#808080" begin="zoomminus.mouseover" end="zoomminus.mouseout"/>
                        </use>
                        <path d="M-4,0h8" fill="none" stroke="white" stroke-width="1.5" pointer-events="none"/>
                </g>
                <g id="dirArrow">
                        <path fill="none" stroke="white" stroke-width="1.5" d="M0,-3.0v7 M-2.5,-0.5L0,-3.0L2.5,-0.5"/>
                </g>
               <g id="resetDef">
                       <use xlink:href="#rim2" fill="#404040">
                               <set attributeName="fill" to="#808080" begin="reset.mouseover" end="reset.mouseout"/>
                       </use>
               </g>
        </defs>

<script type="text/javascript">
var viewWidth = 551;
var viewHeight = 274;
var sectionId = 'dynsection-11';
</script>
<script xlink:href="svgpan.js"/>
<svg id="graph" class="graph">
<g id="viewport">
<title>LittleWeebLibrary.Services.IrcWebSocketService.Disconnect</title>
<polygon fill="white" stroke="none" points="-4,4 -4,-270 547,-270 547,4 -4,4"/>
<!-- Node36 -->
<g id="node1" class="node"><title>Node36</title>
<polygon fill="#bfbfbf" stroke="black" points="0,-122.5 0,-152.5 161,-152.5 161,-122.5 0,-122.5"/>
<text text-anchor="start" x="8" y="-140.5" font-family="Helvetica,sans-Serif" font-size="10.00">LittleWeebLibrary.Services.</text>
<text text-anchor="middle" x="80.5" y="-129.5" font-family="Helvetica,sans-Serif" font-size="10.00">IrcWebSocketService.Disconnect</text>
</g>
<!-- Node37 -->
<g id="node2" class="node"><title>Node37</title>
<g id="a_node2"><a xlink:href="class_little_weeb_library_1_1_handlers_1_1_web_socket_handler.html#a1de289d54d665a32c93478c68d3e6ad0" target="_top" xlink:title="LittleWeebLibrary.Handlers.\lWebSocketHandler.SendMessage">
<polygon fill="white" stroke="black" points="197,-235.5 197,-265.5 363,-265.5 363,-235.5 197,-235.5"/>
<text text-anchor="start" x="205" y="-253.5" font-family="Helvetica,sans-Serif" font-size="10.00">LittleWeebLibrary.Handlers.</text>
<text text-anchor="middle" x="280" y="-242.5" font-family="Helvetica,sans-Serif" font-size="10.00">WebSocketHandler.SendMessage</text>
</a>
</g>
</g>
<!-- Node36&#45;&gt;Node37 -->
<g id="edge1" class="edge"><title>Node36&#45;&gt;Node37</title>
<path fill="none" stroke="midnightblue" d="M99.286,-152.657C121.141,-170.702 159.901,-200.859 197,-220.5 204.69,-224.571 213.053,-228.325 221.402,-231.699"/>
<polygon fill="midnightblue" stroke="midnightblue" points="220.197,-234.985 230.786,-235.343 222.731,-228.46 220.197,-234.985"/>
</g>
<!-- Node38 -->
<g id="node3" class="node"><title>Node38</title>
<g id="a_node3"><a xlink:href="class_little_weeb_library_1_1_handlers_1_1_debug_handler.html#afccb37dfd6b2114af72000c2f4fe4607" target="_top" xlink:title="LittleWeebLibrary.Handlers.\lDebugHandler.TraceMessage">
<polygon fill="white" stroke="black" points="399,-191.5 399,-221.5 543,-221.5 543,-191.5 399,-191.5"/>
<text text-anchor="start" x="407" y="-209.5" font-family="Helvetica,sans-Serif" font-size="10.00">LittleWeebLibrary.Handlers.</text>
<text text-anchor="middle" x="471" y="-198.5" font-family="Helvetica,sans-Serif" font-size="10.00">DebugHandler.TraceMessage</text>
</a>
</g>
</g>
<!-- Node36&#45;&gt;Node38 -->
<g id="edge8" class="edge"><title>Node36&#45;&gt;Node38</title>
<path fill="none" stroke="midnightblue" d="M109.049,-152.601C131.887,-164.329 165.581,-179.844 197,-187.5 260.227,-202.907 333.95,-207.266 388.836,-207.989"/>
<polygon fill="midnightblue" stroke="midnightblue" points="388.826,-211.489 398.859,-208.084 388.892,-204.489 388.826,-211.489"/>
</g>
<!-- Node39 -->
<g id="node4" class="node"><title>Node39</title>
<g id="a_node4"><a xlink:href="class_little_weeb_library_1_1_handlers_1_1_irc_client_handler.html#a97a617b50a161906a91ce1ea483a1770" target="_top" xlink:title="LittleWeebLibrary.Handlers.\lIrcClientHandler.StopConnection">
<polygon fill="white" stroke="black" points="201.5,-147.5 201.5,-177.5 358.5,-177.5 358.5,-147.5 201.5,-147.5"/>
<text text-anchor="start" x="209.5" y="-165.5" font-family="Helvetica,sans-Serif" font-size="10.00">LittleWeebLibrary.Handlers.</text>
<text text-anchor="middle" x="280" y="-154.5" font-family="Helvetica,sans-Serif" font-size="10.00">IrcClientHandler.StopConnection</text>
</a>
</g>
</g>
<!-- Node36&#45;&gt;Node39 -->
<g id="edge3" class="edge"><title>Node36&#45;&gt;Node39</title>
<path fill="none" stroke="midnightblue" d="M161.262,-147.596C171.138,-148.847 181.277,-150.13 191.264,-151.394"/>
<polygon fill="midnightblue" stroke="midnightblue" points="190.825,-154.866 201.185,-152.65 191.704,-147.922 190.825,-154.866"/>
</g>
<!-- Node40 -->
<g id="node5" class="node"><title>Node40</title>
<g id="a_node5"><a xlink:href="class_little_weeb_library_1_1_models_1_1_json_error.html#a0e3e7dd2e2990404b7f0461742b23440" target="_top" xlink:title="LittleWeebLibrary.Models.\lJsonError.ToJson">
<polygon fill="white" stroke="black" points="215,-98.5 215,-128.5 345,-128.5 345,-98.5 215,-98.5"/>
<text text-anchor="start" x="223" y="-116.5" font-family="Helvetica,sans-Serif" font-size="10.00">LittleWeebLibrary.Models.</text>
<text text-anchor="middle" x="280" y="-105.5" font-family="Helvetica,sans-Serif" font-size="10.00">JsonError.ToJson</text>
</a>
</g>
</g>
<!-- Node36&#45;&gt;Node40 -->
<g id="edge5" class="edge"><title>Node36&#45;&gt;Node40</title>
<path fill="none" stroke="midnightblue" d="M161.262,-127.807C175.562,-126.07 190.415,-124.265 204.558,-122.546"/>
<polygon fill="midnightblue" stroke="midnightblue" points="205.208,-125.993 214.713,-121.312 204.364,-119.044 205.208,-125.993"/>
</g>
<!-- Node41 -->
<g id="node6" class="node"><title>Node41</title>
<g id="a_node6"><a xlink:href="class_little_weeb_library_1_1_models_1_1_json_irc_info.html#af7d4dd885c7289ca28b0147d4feb2b84" target="_top" xlink:title="LittleWeebLibrary.Models.\lJsonIrcInfo.ToJson">
<polygon fill="white" stroke="black" points="215,-49.5 215,-79.5 345,-79.5 345,-49.5 215,-49.5"/>
<text text-anchor="start" x="223" y="-67.5" font-family="Helvetica,sans-Serif" font-size="10.00">LittleWeebLibrary.Models.</text>
<text text-anchor="middle" x="280" y="-56.5" font-family="Helvetica,sans-Serif" font-size="10.00">JsonIrcInfo.ToJson</text>
</a>
</g>
</g>
<!-- Node36&#45;&gt;Node41 -->
<g id="edge6" class="edge"><title>Node36&#45;&gt;Node41</title>
<path fill="none" stroke="midnightblue" d="M115.522,-122.329C138.347,-112.408 169.207,-99.4848 197,-89.5 203.399,-87.201 210.126,-84.9264 216.86,-82.7406"/>
<polygon fill="midnightblue" stroke="midnightblue" points="218.227,-85.9786 226.693,-79.6092 216.103,-79.3086 218.227,-85.9786"/>
</g>
<!-- Node42 -->
<g id="node7" class="node"><title>Node42</title>
<g id="a_node7"><a xlink:href="class_little_weeb_library_1_1_models_1_1_json_error.html#ad7d5522c90119111d2e929f39e7f6d3c" target="_top" xlink:title="LittleWeebLibrary.Models.\lJsonError.ToString">
<polygon fill="white" stroke="black" points="215,-0.5 215,-30.5 345,-30.5 345,-0.5 215,-0.5"/>
<text text-anchor="start" x="223" y="-18.5" font-family="Helvetica,sans-Serif" font-size="10.00">LittleWeebLibrary.Models.</text>
<text text-anchor="middle" x="280" y="-7.5" font-family="Helvetica,sans-Serif" font-size="10.00">JsonError.ToString</text>
</a>
</g>
</g>
<!-- Node36&#45;&gt;Node42 -->
<g id="edge7" class="edge"><title>Node36&#45;&gt;Node42</title>
<path fill="none" stroke="midnightblue" d="M95.7241,-122.165C116.197,-100.944 156.034,-62.7332 197,-40.5 201.008,-38.3247 205.231,-36.3121 209.561,-34.4542"/>
<polygon fill="midnightblue" stroke="midnightblue" points="211.17,-37.581 219.167,-30.6313 208.581,-31.0771 211.17,-37.581"/>
</g>
<!-- Node37&#45;&gt;Node38 -->
<g id="edge2" class="edge"><title>Node37&#45;&gt;Node38</title>
<path fill="none" stroke="midnightblue" d="M345.514,-235.481C361.543,-231.749 378.856,-227.719 395.328,-223.884"/>
<polygon fill="midnightblue" stroke="midnightblue" points="396.51,-227.203 405.456,-221.526 394.922,-220.385 396.51,-227.203"/>
</g>
<!-- Node39&#45;&gt;Node38 -->
<g id="edge4" class="edge"><title>Node39&#45;&gt;Node38</title>
<path fill="none" stroke="midnightblue" d="M345.514,-177.519C361.543,-181.251 378.856,-185.281 395.328,-189.116"/>
<polygon fill="midnightblue" stroke="midnightblue" points="394.922,-192.615 405.456,-191.474 396.51,-185.797 394.922,-192.615"/>
</g>
</g>
</svg>
        <g id="navigator" transform="translate(0 0)" fill="#404254">
                <rect fill="#f2f5e9" fill-opacity="0.5" stroke="#606060" stroke-width=".5" x="0" y="0" width="60" height="60"/>
                <use id="zoomplus" xlink:href="#zoomPlus" x="17" y="9" onmousedown="handleZoom(evt,'in')"/>
                <use id="zoomminus" xlink:href="#zoomMin" x="42" y="9" onmousedown="handleZoom(evt,'out')"/>
                <use id="reset" xlink:href="#resetDef" x="30" y="36" onmousedown="handleReset()"/>
                <g id="arrowUp" xlink:href="#dirArrow" transform="translate(30 24)" onmousedown="handlePan(0,-1)">
                  <use xlink:href="#rim" fill="#404040">
                        <set attributeName="fill" to="#808080" begin="arrowUp.mouseover" end="arrowUp.mouseout"/>
                  </use>
                  <path fill="none" stroke="white" stroke-width="1.5" d="M0,-3.0v7 M-2.5,-0.5L0,-3.0L2.5,-0.5"/>
                </g>
                <g id="arrowRight" xlink:href="#dirArrow" transform="rotate(90) translate(36 -43)" onmousedown="handlePan(1,0)">
                  <use xlink:href="#rim" fill="#404040">
                        <set attributeName="fill" to="#808080" begin="arrowRight.mouseover" end="arrowRight.mouseout"/>
                  </use>
                  <path fill="none" stroke="white" stroke-width="1.5" d="M0,-3.0v7 M-2.5,-0.5L0,-3.0L2.5,-0.5"/>
                </g>
                <g id="arrowDown" xlink:href="#dirArrow" transform="rotate(180) translate(-30 -48)" onmousedown="handlePan(0,1)">
                  <use xlink:href="#rim" fill="#404040">
                        <set attributeName="fill" to="#808080" begin="arrowDown.mouseover" end="arrowDown.mouseout"/>
                  </use>
                  <path fill="none" stroke="white" stroke-width="1.5" d="M0,-3.0v7 M-2.5,-0.5L0,-3.0L2.5,-0.5"/>
                </g>
                <g id="arrowLeft" xlink:href="#dirArrow" transform="rotate(270) translate(-36 17)" onmousedown="handlePan(-1,0)">
                  <use xlink:href="#rim" fill="#404040">
                        <set attributeName="fill" to="#808080" begin="arrowLeft.mouseover" end="arrowLeft.mouseout"/>
                  </use>
                  <path fill="none" stroke="white" stroke-width="1.5" d="M0,-3.0v7 M-2.5,-0.5L0,-3.0L2.5,-0.5"/>
                </g>
        </g>
        <svg viewBox="0 0 15 15" width="100%" height="30px" preserveAspectRatio="xMaxYMin meet">
         <g id="arrow_out" transform="scale(0.3 0.3)">
          <a xlink:href="class_little_weeb_library_1_1_services_1_1_irc_web_socket_service_a637703e827e16a5d99055119bfe62972_cgraph_org.svg" target="_base">
           <rect id="button" ry="5" rx="5" y="6" x="6" height="38" width="38"
                fill="#f2f5e9" fill-opacity="0.5" stroke="#606060" stroke-width="1.0"/>
           <path id="arrow"
             d="M 11.500037,31.436501 C 11.940474,20.09759 22.043105,11.32322 32.158766,21.979434 L 37.068811,17.246167 C 37.068811,17.246167 37.088388,32 37.088388,32 L 22.160133,31.978069 C 22.160133,31.978069 26.997745,27.140456 26.997745,27.140456 C 18.528582,18.264221 13.291696,25.230495 11.500037,31.436501 z"
             style="fill:#404040;"/>
          </a>
         </g>
        </svg>
</svg>
