<?xml version="1.0" encoding="UTF-8" standalone="no"?>
<!DOCTYPE svg PUBLIC "-//W3C//DTD SVG 1.1//EN"
 "http://www.w3.org/Graphics/SVG/1.1/DTD/svg11.dtd">
<!-- Generated by graphviz version 2.38.0 (20140413.2041)
 -->
<!-- Title: LittleWeebLibrary.Handlers.WebSocketHandler.StopServer Pages: 1 -->
<svg width="499pt" height="39pt"
 viewBox="0.00 0.00 499.00 39.00" xmlns="http://www.w3.org/2000/svg" xmlns:xlink="http://www.w3.org/1999/xlink">
<g id="graph0" class="graph" transform="scale(1 1) rotate(0) translate(4 35)">
<title>LittleWeebLibrary.Handlers.WebSocketHandler.StopServer</title>
<polygon fill="white" stroke="none" points="-4,4 -4,-35 495,-35 495,4 -4,4"/>
<!-- Node68 -->
<g id="node1" class="node"><title>Node68</title>
<polygon fill="#bfbfbf" stroke="black" points="0,-0.5 0,-30.5 151,-30.5 151,-0.5 0,-0.5"/>
<text text-anchor="start" x="8" y="-18.5" font-family="Helvetica,sans-Serif" font-size="10.00">LittleWeebLibrary.Handlers.</text>
<text text-anchor="middle" x="75.5" y="-7.5" font-family="Helvetica,sans-Serif" font-size="10.00">WebSocketHandler.StopServer</text>
</g>
<!-- Node69 -->
<g id="node2" class="node"><title>Node69</title>
<g id="a_node2"><a xlink:href="class_little_weeb_library_1_1_start_up.html#aaa6147f0dd162c1962e575689dcb22c5" target="_top" xlink:title="LittleWeebLibrary.StartUp.Stop">
<polygon fill="white" stroke="black" points="187,-6 187,-25 339,-25 339,-6 187,-6"/>
<text text-anchor="middle" x="263" y="-13" font-family="Helvetica,sans-Serif" font-size="10.00">LittleWeebLibrary.StartUp.Stop</text>
</a>
</g>
</g>
<!-- Node68&#45;&gt;Node69 -->
<g id="edge1" class="edge"><title>Node68&#45;&gt;Node69</title>
<path fill="none" stroke="midnightblue" d="M161.165,-15.5C169.749,-15.5 178.427,-15.5 186.9,-15.5"/>
<polygon fill="midnightblue" stroke="midnightblue" points="161.148,-12.0001 151.148,-15.5 161.148,-19.0001 161.148,-12.0001"/>
</g>
<!-- Node70 -->
<g id="node3" class="node"><title>Node70</title>
<g id="a_node3"><a xlink:href="class_little_weeb_library_1_1_little_weeb.html#abdb53c29265dddd9fa0a27c8bf4d50f2" target="_top" xlink:title="LittleWeebLibrary.Little\lWeeb.Stop">
<polygon fill="white" stroke="black" points="375,-0.5 375,-30.5 491,-30.5 491,-0.5 375,-0.5"/>
<text text-anchor="start" x="383" y="-18.5" font-family="Helvetica,sans-Serif" font-size="10.00">LittleWeebLibrary.Little</text>
<text text-anchor="middle" x="433" y="-7.5" font-family="Helvetica,sans-Serif" font-size="10.00">Weeb.Stop</text>
</a>
</g>
</g>
<!-- Node69&#45;&gt;Node70 -->
<g id="edge2" class="edge"><title>Node69&#45;&gt;Node70</title>
<path fill="none" stroke="midnightblue" d="M349.29,-15.5C357.934,-15.5 366.561,-15.5 374.802,-15.5"/>
<polygon fill="midnightblue" stroke="midnightblue" points="349.155,-12.0001 339.155,-15.5 349.155,-19.0001 349.155,-12.0001"/>
</g>
</g>
</svg>
