<?xml version="1.0" encoding="UTF-8" standalone="no"?>
<!DOCTYPE svg PUBLIC "-//W3C//DTD SVG 1.1//EN"
 "http://www.w3.org/Graphics/SVG/1.1/DTD/svg11.dtd">
<!-- Generated by graphviz version 2.38.0 (20140413.2041)
 -->
<!-- Title: LittleWeebLibrary.Services.SettingsWebSocketService.SetSettingsClasses Pages: 1 -->
<svg width="364pt" height="50pt"
 viewBox="0.00 0.00 364.00 50.00" xmlns="http://www.w3.org/2000/svg" xmlns:xlink="http://www.w3.org/1999/xlink">
<g id="graph0" class="graph" transform="scale(1 1) rotate(0) translate(4 46)">
<title>LittleWeebLibrary.Services.SettingsWebSocketService.SetSettingsClasses</title>
<polygon fill="white" stroke="none" points="-4,4 -4,-46 360,-46 360,4 -4,4"/>
<!-- Node7 -->
<g id="node1" class="node"><title>Node7</title>
<polygon fill="#bfbfbf" stroke="black" points="0,-0.5 0,-41.5 189,-41.5 189,-0.5 0,-0.5"/>
<text text-anchor="start" x="8" y="-29.5" font-family="Helvetica,sans-Serif" font-size="10.00">LittleWeebLibrary.Services.</text>
<text text-anchor="start" x="8" y="-18.5" font-family="Helvetica,sans-Serif" font-size="10.00">SettingsWebSocketService.SetSettings</text>
<text text-anchor="middle" x="94.5" y="-7.5" font-family="Helvetica,sans-Serif" font-size="10.00">Classes</text>
</g>
<!-- Node8 -->
<g id="node2" class="node"><title>Node8</title>
<g id="a_node2"><a xlink:href="class_little_weeb_library_1_1_start_up.html#a7f35b9dfb45fb003a9653d1f531044c9" target="_top" xlink:title="LittleWeebLibrary.StartUp.\lStartUp">
<polygon fill="white" stroke="black" points="225,-6 225,-36 356,-36 356,-6 225,-6"/>
<text text-anchor="start" x="233" y="-24" font-family="Helvetica,sans-Serif" font-size="10.00">LittleWeebLibrary.StartUp.</text>
<text text-anchor="middle" x="290.5" y="-13" font-family="Helvetica,sans-Serif" font-size="10.00">StartUp</text>
</a>
</g>
</g>
<!-- Node7&#45;&gt;Node8 -->
<g id="edge1" class="edge"><title>Node7&#45;&gt;Node8</title>
<path fill="none" stroke="midnightblue" d="M199.31,-21C208.001,-21 216.618,-21 224.882,-21"/>
<polygon fill="midnightblue" stroke="midnightblue" points="199.091,-17.5001 189.09,-21 199.09,-24.5001 199.091,-17.5001"/>
</g>
</g>
</svg>
