<?xml version="1.0" encoding="UTF-8" standalone="no"?>
<!DOCTYPE svg PUBLIC "-//W3C//DTD SVG 1.1//EN"
 "http://www.w3.org/Graphics/SVG/1.1/DTD/svg11.dtd">
<!-- Generated by graphviz version 2.38.0 (20140413.2041)
 -->
<!-- Title: LittleWeebLibrary.Controllers.IrcWebSocketController.OnWebSocketEvent Pages: 1 -->
<svg width="841pt" height="784pt"
 viewBox="0.00 0.00 841.00 784.41" xmlns="http://www.w3.org/2000/svg" xmlns:xlink="http://www.w3.org/1999/xlink">
<g id="graph0" class="graph" transform="scale(1 1) rotate(0) translate(4 780.409)">
<title>LittleWeebLibrary.Controllers.IrcWebSocketController.OnWebSocketEvent</title>
<polygon fill="white" stroke="none" points="-4,4 -4,-780.409 837,-780.409 837,4 -4,4"/>
<!-- Node3 -->
<g id="node1" class="node"><title>Node3</title>
<polygon fill="#bfbfbf" stroke="black" points="0,-423.867 0,-453.867 210,-453.867 210,-423.867 0,-423.867"/>
<text text-anchor="start" x="8" y="-441.867" font-family="Helvetica,sans-Serif" font-size="10.00">LittleWeebLibrary.Controllers.</text>
<text text-anchor="middle" x="105" y="-430.867" font-family="Helvetica,sans-Serif" font-size="10.00">IrcWebSocketController.OnWebSocketEvent</text>
</g>
<!-- Node4 -->
<g id="node2" class="node"><title>Node4</title>
<g id="a_node2"><a xlink:href="class_little_weeb_library_1_1_services_1_1_irc_web_socket_service.html#ad5592055f57beed1a26d76ee1a518af5" target="_top" xlink:title="LittleWeebLibrary.Services.\lIrcWebSocketService.Connect">
<polygon fill="white" stroke="black" points="274,-240.867 274,-270.867 423,-270.867 423,-240.867 274,-240.867"/>
<text text-anchor="start" x="282" y="-258.867" font-family="Helvetica,sans-Serif" font-size="10.00">LittleWeebLibrary.Services.</text>
<text text-anchor="middle" x="348.5" y="-247.867" font-family="Helvetica,sans-Serif" font-size="10.00">IrcWebSocketService.Connect</text>
</a>
</g>
</g>
<!-- Node3&#45;&gt;Node4 -->
<g id="edge1" class="edge"><title>Node3&#45;&gt;Node4</title>
<path fill="none" stroke="midnightblue" d="M116.079,-423.732C136.848,-393.682 187.411,-326.182 246,-288.867 254.824,-283.247 264.692,-278.501 274.715,-274.517"/>
<polygon fill="midnightblue" stroke="midnightblue" points="276.196,-277.7 284.343,-270.927 273.75,-271.141 276.196,-277.7"/>
</g>
<!-- Node5 -->
<g id="node3" class="node"><title>Node5</title>
<g id="a_node3"><a xlink:href="class_little_weeb_library_1_1_handlers_1_1_debug_handler.html#afccb37dfd6b2114af72000c2f4fe4607" target="_top" xlink:title="LittleWeebLibrary.Handlers.\lDebugHandler.TraceMessage">
<polygon fill="white" stroke="black" points="689,-467.867 689,-497.867 833,-497.867 833,-467.867 689,-467.867"/>
<text text-anchor="start" x="697" y="-485.867" font-family="Helvetica,sans-Serif" font-size="10.00">LittleWeebLibrary.Handlers.</text>
<text text-anchor="middle" x="761" y="-474.867" font-family="Helvetica,sans-Serif" font-size="10.00">DebugHandler.TraceMessage</text>
</a>
</g>
</g>
<!-- Node3&#45;&gt;Node5 -->
<g id="edge46" class="edge"><title>Node3&#45;&gt;Node5</title>
<path fill="none" stroke="midnightblue" d="M108.053,-453.976C115.67,-503.568 147.174,-662.175 246,-731.867 334.004,-793.928 379.458,-751.304 487,-756.867 560.679,-760.678 592.077,-798.479 653,-756.867 737.406,-699.215 755.234,-564.217 758.996,-508.063"/>
<polygon fill="midnightblue" stroke="midnightblue" points="762.499,-508.114 759.576,-497.93 755.51,-507.714 762.499,-508.114"/>
</g>
<!-- Node8 -->
<g id="node6" class="node"><title>Node8</title>
<g id="a_node6"><a xlink:href="class_little_weeb_library_1_1_handlers_1_1_web_socket_handler.html#a1de289d54d665a32c93478c68d3e6ad0" target="_top" xlink:title="LittleWeebLibrary.Handlers.\lWebSocketHandler.SendMessage">
<polygon fill="white" stroke="black" points="487,-563.867 487,-593.867 653,-593.867 653,-563.867 487,-563.867"/>
<text text-anchor="start" x="495" y="-581.867" font-family="Helvetica,sans-Serif" font-size="10.00">LittleWeebLibrary.Handlers.</text>
<text text-anchor="middle" x="570" y="-570.867" font-family="Helvetica,sans-Serif" font-size="10.00">WebSocketHandler.SendMessage</text>
</a>
</g>
</g>
<!-- Node3&#45;&gt;Node8 -->
<g id="edge35" class="edge"><title>Node3&#45;&gt;Node8</title>
<path fill="none" stroke="midnightblue" d="M124.145,-453.912C149.644,-474.195 198.316,-509.84 246,-527.867 320.629,-556.08 410.661,-568.686 476.694,-574.319"/>
<polygon fill="midnightblue" stroke="midnightblue" points="476.417,-577.808 486.668,-575.132 476.986,-570.831 476.417,-577.808"/>
</g>
<!-- Node12 -->
<g id="node10" class="node"><title>Node12</title>
<g id="a_node10"><a xlink:href="class_little_weeb_library_1_1_models_1_1_json_error.html#ad7d5522c90119111d2e929f39e7f6d3c" target="_top" xlink:title="LittleWeebLibrary.Models.\lJsonError.ToString">
<polygon fill="white" stroke="black" points="505,-240.867 505,-270.867 635,-270.867 635,-240.867 505,-240.867"/>
<text text-anchor="start" x="513" y="-258.867" font-family="Helvetica,sans-Serif" font-size="10.00">LittleWeebLibrary.Models.</text>
<text text-anchor="middle" x="570" y="-247.867" font-family="Helvetica,sans-Serif" font-size="10.00">JsonError.ToString</text>
</a>
</g>
</g>
<!-- Node3&#45;&gt;Node12 -->
<g id="edge45" class="edge"><title>Node3&#45;&gt;Node12</title>
<path fill="none" stroke="midnightblue" d="M118.504,-423.745C141.046,-397.586 191.275,-344.168 246,-317.867 329.518,-277.728 360.039,-297.546 451,-279.867 465.173,-277.112 480.286,-274.097 494.802,-271.163"/>
<polygon fill="midnightblue" stroke="midnightblue" points="495.632,-274.566 504.737,-269.148 494.24,-267.705 495.632,-274.566"/>
</g>
<!-- Node13 -->
<g id="node11" class="node"><title>Node13</title>
<g id="a_node11"><a xlink:href="class_little_weeb_library_1_1_models_1_1_json_error.html#a0e3e7dd2e2990404b7f0461742b23440" target="_top" xlink:title="LittleWeebLibrary.Models.\lJsonError.ToJson">
<polygon fill="white" stroke="black" points="505,-289.867 505,-319.867 635,-319.867 635,-289.867 505,-289.867"/>
<text text-anchor="start" x="513" y="-307.867" font-family="Helvetica,sans-Serif" font-size="10.00">LittleWeebLibrary.Models.</text>
<text text-anchor="middle" x="570" y="-296.867" font-family="Helvetica,sans-Serif" font-size="10.00">JsonError.ToJson</text>
</a>
</g>
</g>
<!-- Node3&#45;&gt;Node13 -->
<g id="edge43" class="edge"><title>Node3&#45;&gt;Node13</title>
<path fill="none" stroke="midnightblue" d="M128.198,-423.63C154.935,-406.013 201.785,-377.446 246,-361.867 290.744,-346.102 414.077,-326.712 494.741,-315.094"/>
<polygon fill="midnightblue" stroke="midnightblue" points="495.444,-318.529 504.847,-313.647 494.452,-311.6 495.444,-318.529"/>
</g>
<!-- Node14 -->
<g id="node12" class="node"><title>Node14</title>
<g id="a_node12"><a xlink:href="class_little_weeb_library_1_1_services_1_1_irc_web_socket_service.html#a71f89c2a8e9b0a86972d192bc3e55318" target="_top" xlink:title="LittleWeebLibrary.Services.\lIrcWebSocketService.DisableSend\lMessage">
<polygon fill="white" stroke="black" points="265,-681.367 265,-722.367 432,-722.367 432,-681.367 265,-681.367"/>
<text text-anchor="start" x="273" y="-710.367" font-family="Helvetica,sans-Serif" font-size="10.00">LittleWeebLibrary.Services.</text>
<text text-anchor="start" x="273" y="-699.367" font-family="Helvetica,sans-Serif" font-size="10.00">IrcWebSocketService.DisableSend</text>
<text text-anchor="middle" x="348.5" y="-688.367" font-family="Helvetica,sans-Serif" font-size="10.00">Message</text>
</a>
</g>
</g>
<!-- Node3&#45;&gt;Node14 -->
<g id="edge15" class="edge"><title>Node3&#45;&gt;Node14</title>
<path fill="none" stroke="midnightblue" d="M113.712,-454.063C132.45,-489.875 183.462,-580.975 246,-639.867 260.849,-653.851 279.352,-666.274 296.477,-676.259"/>
<polygon fill="midnightblue" stroke="midnightblue" points="294.855,-679.363 305.28,-681.254 298.309,-673.275 294.855,-679.363"/>
</g>
<!-- Node16 -->
<g id="node14" class="node"><title>Node16</title>
<g id="a_node14"><a xlink:href="class_little_weeb_library_1_1_services_1_1_irc_web_socket_service.html#a637703e827e16a5d99055119bfe62972" target="_top" xlink:title="LittleWeebLibrary.Services.\lIrcWebSocketService.Disconnect">
<polygon fill="white" stroke="black" points="268,-423.867 268,-453.867 429,-453.867 429,-423.867 268,-423.867"/>
<text text-anchor="start" x="276" y="-441.867" font-family="Helvetica,sans-Serif" font-size="10.00">LittleWeebLibrary.Services.</text>
<text text-anchor="middle" x="348.5" y="-430.867" font-family="Helvetica,sans-Serif" font-size="10.00">IrcWebSocketService.Disconnect</text>
</a>
</g>
</g>
<!-- Node3&#45;&gt;Node16 -->
<g id="edge19" class="edge"><title>Node3&#45;&gt;Node16</title>
<path fill="none" stroke="midnightblue" d="M210.17,-438.867C225.983,-438.867 242.182,-438.867 257.656,-438.867"/>
<polygon fill="midnightblue" stroke="midnightblue" points="257.708,-442.367 267.708,-438.867 257.708,-435.367 257.708,-442.367"/>
</g>
<!-- Node18 -->
<g id="node16" class="node"><title>Node18</title>
<g id="a_node16"><a xlink:href="class_little_weeb_library_1_1_services_1_1_irc_web_socket_service.html#acd9aa44a2389caa8e997db49a646c448" target="_top" xlink:title="LittleWeebLibrary.Services.\lIrcWebSocketService.EnableSendMessage">
<polygon fill="white" stroke="black" points="246,-599.867 246,-629.867 451,-629.867 451,-599.867 246,-599.867"/>
<text text-anchor="start" x="254" y="-617.867" font-family="Helvetica,sans-Serif" font-size="10.00">LittleWeebLibrary.Services.</text>
<text text-anchor="middle" x="348.5" y="-606.867" font-family="Helvetica,sans-Serif" font-size="10.00">IrcWebSocketService.EnableSendMessage</text>
</a>
</g>
</g>
<!-- Node3&#45;&gt;Node18 -->
<g id="edge27" class="edge"><title>Node3&#45;&gt;Node18</title>
<path fill="none" stroke="midnightblue" d="M119.396,-454.201C142.914,-480.411 194.08,-534.333 246,-568.867 261.62,-579.257 279.97,-588.375 296.741,-595.695"/>
<polygon fill="midnightblue" stroke="midnightblue" points="295.827,-599.11 306.4,-599.793 298.561,-592.666 295.827,-599.11"/>
</g>
<!-- Node19 -->
<g id="node17" class="node"><title>Node19</title>
<g id="a_node17"><a xlink:href="class_little_weeb_library_1_1_services_1_1_irc_web_socket_service.html#a9add76a72fff82d5b7009d34620516dd" target="_top" xlink:title="LittleWeebLibrary.Services.\lIrcWebSocketService.GetCurrentIrc\lSettings">
<polygon fill="white" stroke="black" points="263.5,-477.367 263.5,-518.367 433.5,-518.367 433.5,-477.367 263.5,-477.367"/>
<text text-anchor="start" x="271.5" y="-506.367" font-family="Helvetica,sans-Serif" font-size="10.00">LittleWeebLibrary.Services.</text>
<text text-anchor="start" x="271.5" y="-495.367" font-family="Helvetica,sans-Serif" font-size="10.00">IrcWebSocketService.GetCurrentIrc</text>
<text text-anchor="middle" x="348.5" y="-484.367" font-family="Helvetica,sans-Serif" font-size="10.00">Settings</text>
</a>
</g>
</g>
<!-- Node3&#45;&gt;Node19 -->
<g id="edge31" class="edge"><title>Node3&#45;&gt;Node19</title>
<path fill="none" stroke="midnightblue" d="M167.566,-453.908C193.567,-460.26 224.433,-467.801 253.194,-474.827"/>
<polygon fill="midnightblue" stroke="midnightblue" points="252.723,-478.315 263.268,-477.288 254.384,-471.515 252.723,-478.315"/>
</g>
<!-- Node20 -->
<g id="node18" class="node"><title>Node20</title>
<g id="a_node18"><a xlink:href="class_little_weeb_library_1_1_services_1_1_irc_web_socket_service.html#aa9fcd18dc123e1356049b4b95bbaf2ff" target="_top" xlink:title="LittleWeebLibrary.Services.\lIrcWebSocketService.SendMessage">
<polygon fill="white" stroke="black" points="261,-371.867 261,-401.867 436,-401.867 436,-371.867 261,-371.867"/>
<text text-anchor="start" x="269" y="-389.867" font-family="Helvetica,sans-Serif" font-size="10.00">LittleWeebLibrary.Services.</text>
<text text-anchor="middle" x="348.5" y="-378.867" font-family="Helvetica,sans-Serif" font-size="10.00">IrcWebSocketService.SendMessage</text>
</a>
</g>
</g>
<!-- Node3&#45;&gt;Node20 -->
<g id="edge36" class="edge"><title>Node3&#45;&gt;Node20</title>
<path fill="none" stroke="midnightblue" d="M175.852,-423.826C204.638,-417.628 238.148,-410.413 267.879,-404.011"/>
<polygon fill="midnightblue" stroke="midnightblue" points="268.766,-407.4 277.805,-401.874 267.292,-400.557 268.766,-407.4"/>
</g>
<!-- Node22 -->
<g id="node20" class="node"><title>Node22</title>
<g id="a_node20"><a xlink:href="class_little_weeb_library_1_1_event_arguments_1_1_web_socket_event_args.html#acf402c2f7fd4ddbf175fea7f921ea879" target="_top" xlink:title="LittleWeebLibrary.EventArguments.\lWebSocketEventArgs.ToString">
<polygon fill="white" stroke="black" points="263.5,-191.867 263.5,-221.867 433.5,-221.867 433.5,-191.867 263.5,-191.867"/>
<text text-anchor="start" x="271.5" y="-209.867" font-family="Helvetica,sans-Serif" font-size="10.00">LittleWeebLibrary.EventArguments.</text>
<text text-anchor="middle" x="348.5" y="-198.867" font-family="Helvetica,sans-Serif" font-size="10.00">WebSocketEventArgs.ToString</text>
</a>
</g>
</g>
<!-- Node3&#45;&gt;Node22 -->
<g id="edge44" class="edge"><title>Node3&#45;&gt;Node22</title>
<path fill="none" stroke="midnightblue" d="M111.607,-423.72C126.765,-384.979 172.44,-281.764 246,-230.867 248.597,-229.07 251.31,-227.407 254.113,-225.867"/>
<polygon fill="midnightblue" stroke="midnightblue" points="255.888,-228.896 263.334,-221.359 252.813,-222.607 255.888,-228.896"/>
</g>
<!-- Node4&#45;&gt;Node5 -->
<g id="edge2" class="edge"><title>Node4&#45;&gt;Node5</title>
<path fill="none" stroke="midnightblue" d="M423.058,-245.171C433.03,-241.658 442.678,-237.011 451,-230.867 476.019,-212.397 459.938,-186.189 487,-170.867 551.201,-134.517 592.963,-127.987 653,-170.867 747.755,-238.543 759.49,-395.558 760.308,-457.287"/>
<polygon fill="midnightblue" stroke="midnightblue" points="756.81,-457.676 760.351,-467.661 763.81,-457.646 756.81,-457.676"/>
</g>
<!-- Node6 -->
<g id="node4" class="node"><title>Node6</title>
<g id="a_node4"><a xlink:href="class_little_weeb_library_1_1_static_classes_1_1_utility_methods.html#a9304b6462a585dd9afa13818452638a7" target="_top" xlink:title="LittleWeebLibrary.Static\lClasses.UtilityMethods.Generate\lUsername">
<polygon fill="white" stroke="black" points="490,-180.367 490,-221.367 650,-221.367 650,-180.367 490,-180.367"/>
<text text-anchor="start" x="498" y="-209.367" font-family="Helvetica,sans-Serif" font-size="10.00">LittleWeebLibrary.Static</text>
<text text-anchor="start" x="498" y="-198.367" font-family="Helvetica,sans-Serif" font-size="10.00">Classes.UtilityMethods.Generate</text>
<text text-anchor="middle" x="570" y="-187.367" font-family="Helvetica,sans-Serif" font-size="10.00">Username</text>
</a>
</g>
</g>
<!-- Node4&#45;&gt;Node6 -->
<g id="edge3" class="edge"><title>Node4&#45;&gt;Node6</title>
<path fill="none" stroke="midnightblue" d="M410.975,-240.803C424.184,-237.545 438.06,-234.105 451,-230.867 460.458,-228.5 470.339,-226.012 480.182,-223.523"/>
<polygon fill="midnightblue" stroke="midnightblue" points="481.161,-226.886 489.997,-221.039 479.444,-220.1 481.161,-226.886"/>
</g>
<!-- Node7 -->
<g id="node5" class="node"><title>Node7</title>
<g id="a_node5"><a xlink:href="class_little_weeb_library_1_1_handlers_1_1_irc_client_handler.html#ae463832b8e9aea73f26ed6188a14d92e" target="_top" xlink:title="LittleWeebLibrary.Handlers.\lIrcClientHandler.StartConnection">
<polygon fill="white" stroke="black" points="491,-92.8669 491,-122.867 649,-122.867 649,-92.8669 491,-92.8669"/>
<text text-anchor="start" x="499" y="-110.867" font-family="Helvetica,sans-Serif" font-size="10.00">LittleWeebLibrary.Handlers.</text>
<text text-anchor="middle" x="570" y="-99.8669" font-family="Helvetica,sans-Serif" font-size="10.00">IrcClientHandler.StartConnection</text>
</a>
</g>
</g>
<!-- Node4&#45;&gt;Node7 -->
<g id="edge4" class="edge"><title>Node4&#45;&gt;Node7</title>
<path fill="none" stroke="midnightblue" d="M423.029,-246.803C433.236,-243.079 442.961,-237.939 451,-230.867 484.278,-201.592 455.369,-168.914 487,-137.867 490.922,-134.018 495.377,-130.657 500.136,-127.724"/>
<polygon fill="midnightblue" stroke="midnightblue" points="501.882,-130.758 508.981,-122.892 498.527,-124.614 501.882,-130.758"/>
</g>
<!-- Node4&#45;&gt;Node8 -->
<g id="edge6" class="edge"><title>Node4&#45;&gt;Node8</title>
<path fill="none" stroke="midnightblue" d="M369.883,-271.002C393.393,-289.638 431.325,-323.565 451,-361.867 490.67,-439.094 429.095,-489.177 487,-553.867 488.194,-555.201 489.457,-556.465 490.78,-557.663"/>
<polygon fill="midnightblue" stroke="midnightblue" points="488.854,-560.594 498.947,-563.819 493.068,-555.004 488.854,-560.594"/>
</g>
<!-- Node9 -->
<g id="node7" class="node"><title>Node9</title>
<g id="a_node7"><a xlink:href="class_little_weeb_library_1_1_models_1_1_json_irc_info.html#af7d4dd885c7289ca28b0147d4feb2b84" target="_top" xlink:title="LittleWeebLibrary.Models.\lJsonIrcInfo.ToJson">
<polygon fill="white" stroke="black" points="505,-465.867 505,-495.867 635,-495.867 635,-465.867 505,-465.867"/>
<text text-anchor="start" x="513" y="-483.867" font-family="Helvetica,sans-Serif" font-size="10.00">LittleWeebLibrary.Models.</text>
<text text-anchor="middle" x="570" y="-472.867" font-family="Helvetica,sans-Serif" font-size="10.00">JsonIrcInfo.ToJson</text>
</a>
</g>
</g>
<!-- Node4&#45;&gt;Node9 -->
<g id="edge8" class="edge"><title>Node4&#45;&gt;Node9</title>
<path fill="none" stroke="midnightblue" d="M365.94,-271.188C386.861,-291.084 423.571,-327.362 451,-361.867 469.18,-384.737 467.218,-395.368 487,-416.867 501.857,-433.013 521.082,-448.25 537.183,-459.803"/>
<polygon fill="midnightblue" stroke="midnightblue" points="535.563,-462.942 545.758,-465.824 539.586,-457.213 535.563,-462.942"/>
</g>
<!-- Node10 -->
<g id="node8" class="node"><title>Node10</title>
<g id="a_node8"><a xlink:href="class_little_weeb_library_1_1_settings_1_1_irc_settings.html#a2e1d7f26d7d3083d19c3a9e6c6c2d0b2" target="_top" xlink:title="LittleWeebLibrary.Settings.\lIrcSettings.ToString">
<polygon fill="white" stroke="black" points="694,-21.8669 694,-51.8669 828,-51.8669 828,-21.8669 694,-21.8669"/>
<text text-anchor="start" x="702" y="-39.8669" font-family="Helvetica,sans-Serif" font-size="10.00">LittleWeebLibrary.Settings.</text>
<text text-anchor="middle" x="761" y="-28.8669" font-family="Helvetica,sans-Serif" font-size="10.00">IrcSettings.ToString</text>
</a>
</g>
</g>
<!-- Node4&#45;&gt;Node10 -->
<g id="edge9" class="edge"><title>Node4&#45;&gt;Node10</title>
<path fill="none" stroke="midnightblue" d="M423.252,-248.482C433.679,-244.568 443.413,-238.929 451,-230.867 511.996,-166.048 418.64,-90.8664 487,-33.8669 549.072,17.8896 649.566,-0.629146 709.764,-18.7701"/>
<polygon fill="midnightblue" stroke="midnightblue" points="708.841,-22.1485 719.429,-21.7842 710.925,-15.4658 708.841,-22.1485"/>
</g>
<!-- Node11 -->
<g id="node9" class="node"><title>Node11</title>
<g id="a_node9"><a xlink:href="class_little_weeb_library_1_1_handlers_1_1_settings_handler.html#ad42462e9e851301c5f5b91663dc3fe24" target="_top" xlink:title="LittleWeebLibrary.Handlers.\lSettingsHandler.WriteIrcSettings">
<polygon fill="white" stroke="black" points="491,-43.8669 491,-73.8669 649,-73.8669 649,-43.8669 491,-43.8669"/>
<text text-anchor="start" x="499" y="-61.8669" font-family="Helvetica,sans-Serif" font-size="10.00">LittleWeebLibrary.Handlers.</text>
<text text-anchor="middle" x="570" y="-50.8669" font-family="Helvetica,sans-Serif" font-size="10.00">SettingsHandler.WriteIrcSettings</text>
</a>
</g>
</g>
<!-- Node4&#45;&gt;Node11 -->
<g id="edge10" class="edge"><title>Node4&#45;&gt;Node11</title>
<path fill="none" stroke="midnightblue" d="M423.109,-247.999C433.49,-244.138 443.247,-238.642 451,-230.867 498.799,-182.93 440.248,-131.826 487,-82.8669 487.922,-81.9014 488.88,-80.9741 489.872,-80.0835"/>
<polygon fill="midnightblue" stroke="midnightblue" points="492.151,-82.7494 498.053,-73.9507 487.952,-77.1484 492.151,-82.7494"/>
</g>
<!-- Node4&#45;&gt;Node12 -->
<g id="edge13" class="edge"><title>Node4&#45;&gt;Node12</title>
<path fill="none" stroke="midnightblue" d="M423.201,-255.867C446.201,-255.867 471.577,-255.867 494.623,-255.867"/>
<polygon fill="midnightblue" stroke="midnightblue" points="494.686,-259.367 504.686,-255.867 494.686,-252.367 494.686,-259.367"/>
</g>
<!-- Node4&#45;&gt;Node13 -->
<g id="edge14" class="edge"><title>Node4&#45;&gt;Node13</title>
<path fill="none" stroke="midnightblue" d="M416.849,-270.901C441.547,-276.415 469.631,-282.684 494.889,-288.323"/>
<polygon fill="midnightblue" stroke="midnightblue" points="494.262,-291.769 504.784,-290.532 495.787,-284.937 494.262,-291.769"/>
</g>
<!-- Node7&#45;&gt;Node5 -->
<g id="edge5" class="edge"><title>Node7&#45;&gt;Node5</title>
<path fill="none" stroke="midnightblue" d="M632.232,-122.926C639.934,-126.821 647.149,-131.716 653,-137.867 741.273,-230.667 756.802,-394.983 759.472,-457.638"/>
<polygon fill="midnightblue" stroke="midnightblue" points="755.98,-457.915 759.827,-467.787 762.975,-457.67 755.98,-457.915"/>
</g>
<!-- Node8&#45;&gt;Node5 -->
<g id="edge7" class="edge"><title>Node8&#45;&gt;Node5</title>
<path fill="none" stroke="midnightblue" d="M628.27,-563.746C636.715,-560.848 645.193,-557.551 653,-553.867 681.885,-540.237 711.95,-519.627 732.829,-504.118"/>
<polygon fill="midnightblue" stroke="midnightblue" points="735.028,-506.843 740.908,-498.03 730.815,-501.253 735.028,-506.843"/>
</g>
<!-- Node11&#45;&gt;Node5 -->
<g id="edge11" class="edge"><title>Node11&#45;&gt;Node5</title>
<path fill="none" stroke="midnightblue" d="M641.858,-74.0369C645.914,-76.55 649.683,-79.4715 653,-82.8669 706.495,-137.626 745.04,-378.135 756.483,-457.417"/>
<polygon fill="midnightblue" stroke="midnightblue" points="753.043,-458.091 757.917,-467.498 759.974,-457.105 753.043,-458.091"/>
</g>
<!-- Node11&#45;&gt;Node10 -->
<g id="edge12" class="edge"><title>Node11&#45;&gt;Node10</title>
<path fill="none" stroke="midnightblue" d="M649.238,-49.7598C660.59,-48.4385 672.264,-47.0795 683.579,-45.7624"/>
<polygon fill="midnightblue" stroke="midnightblue" points="684.322,-49.1997 693.85,-44.5668 683.513,-42.2466 684.322,-49.1997"/>
</g>
<!-- Node14&#45;&gt;Node5 -->
<g id="edge16" class="edge"><title>Node14&#45;&gt;Node5</title>
<path fill="none" stroke="midnightblue" d="M394.662,-722.372C457.966,-747.737 574.156,-781.636 653,-729.867 729.952,-679.34 751.833,-560.322 757.831,-508.136"/>
<polygon fill="midnightblue" stroke="midnightblue" points="761.326,-508.373 758.884,-498.063 754.364,-507.645 761.326,-508.373"/>
</g>
<!-- Node14&#45;&gt;Node8 -->
<g id="edge17" class="edge"><title>Node14&#45;&gt;Node8</title>
<path fill="none" stroke="midnightblue" d="M386.239,-681.279C427.199,-658.327 492.99,-621.46 533.458,-598.783"/>
<polygon fill="midnightblue" stroke="midnightblue" points="535.171,-601.836 542.184,-593.894 531.749,-595.729 535.171,-601.836"/>
</g>
<!-- Node15 -->
<g id="node13" class="node"><title>Node15</title>
<g id="a_node13"><a xlink:href="class_little_weeb_library_1_1_models_1_1_json_success.html#a407103dc37a77aaf47a782296bab7518" target="_top" xlink:title="LittleWeebLibrary.Models.\lJsonSuccess.ToJson">
<polygon fill="white" stroke="black" points="505,-689.867 505,-719.867 635,-719.867 635,-689.867 505,-689.867"/>
<text text-anchor="start" x="513" y="-707.867" font-family="Helvetica,sans-Serif" font-size="10.00">LittleWeebLibrary.Models.</text>
<text text-anchor="middle" x="570" y="-696.867" font-family="Helvetica,sans-Serif" font-size="10.00">JsonSuccess.ToJson</text>
</a>
</g>
</g>
<!-- Node14&#45;&gt;Node15 -->
<g id="edge18" class="edge"><title>Node14&#45;&gt;Node15</title>
<path fill="none" stroke="midnightblue" d="M432.171,-702.997C452.755,-703.278 474.695,-703.578 494.841,-703.853"/>
<polygon fill="midnightblue" stroke="midnightblue" points="494.836,-707.353 504.883,-703.991 494.932,-700.354 494.836,-707.353"/>
</g>
<!-- Node16&#45;&gt;Node5 -->
<g id="edge20" class="edge"><title>Node16&#45;&gt;Node5</title>
<path fill="none" stroke="midnightblue" d="M429.169,-439.18C490.637,-440.421 577.616,-444.353 653,-455.867 667.926,-458.147 683.803,-461.582 698.631,-465.245"/>
<polygon fill="midnightblue" stroke="midnightblue" points="698.15,-468.734 708.705,-467.806 699.875,-461.95 698.15,-468.734"/>
</g>
<!-- Node16&#45;&gt;Node8 -->
<g id="edge23" class="edge"><title>Node16&#45;&gt;Node8</title>
<path fill="none" stroke="midnightblue" d="M429.116,-453.855C437.064,-457.549 444.56,-462.146 451,-467.867 481.978,-495.386 456.265,-526.076 487,-553.867 488.749,-555.448 490.596,-556.93 492.521,-558.318"/>
<polygon fill="midnightblue" stroke="midnightblue" points="491.065,-561.533 501.41,-563.822 494.751,-555.582 491.065,-561.533"/>
</g>
<!-- Node16&#45;&gt;Node9 -->
<g id="edge24" class="edge"><title>Node16&#45;&gt;Node9</title>
<path fill="none" stroke="midnightblue" d="M428.125,-453.911C449.895,-458.077 473.446,-462.583 494.946,-466.697"/>
<polygon fill="midnightblue" stroke="midnightblue" points="494.512,-470.178 504.992,-468.619 495.828,-463.302 494.512,-470.178"/>
</g>
<!-- Node16&#45;&gt;Node12 -->
<g id="edge25" class="edge"><title>Node16&#45;&gt;Node12</title>
<path fill="none" stroke="midnightblue" d="M429.101,-425.863C437.199,-422.039 444.734,-417.139 451,-410.867 493.675,-368.15 444.659,-322.914 487,-279.867 489.708,-277.114 492.713,-274.673 495.926,-272.508"/>
<polygon fill="midnightblue" stroke="midnightblue" points="497.915,-275.403 504.86,-267.402 494.441,-269.326 497.915,-275.403"/>
</g>
<!-- Node16&#45;&gt;Node13 -->
<g id="edge26" class="edge"><title>Node16&#45;&gt;Node13</title>
<path fill="none" stroke="midnightblue" d="M424.378,-423.855C433.726,-420.377 442.851,-416.107 451,-410.867 471.964,-397.386 469.01,-385.118 487,-367.867 502.853,-352.665 522.282,-337.604 538.248,-326.022"/>
<polygon fill="midnightblue" stroke="midnightblue" points="540.618,-328.63 546.717,-319.967 536.547,-322.936 540.618,-328.63"/>
</g>
<!-- Node17 -->
<g id="node15" class="node"><title>Node17</title>
<g id="a_node15"><a xlink:href="class_little_weeb_library_1_1_handlers_1_1_irc_client_handler.html#a97a617b50a161906a91ce1ea483a1770" target="_top" xlink:title="LittleWeebLibrary.Handlers.\lIrcClientHandler.StopConnection">
<polygon fill="white" stroke="black" points="491.5,-514.867 491.5,-544.867 648.5,-544.867 648.5,-514.867 491.5,-514.867"/>
<text text-anchor="start" x="499.5" y="-532.867" font-family="Helvetica,sans-Serif" font-size="10.00">LittleWeebLibrary.Handlers.</text>
<text text-anchor="middle" x="570" y="-521.867" font-family="Helvetica,sans-Serif" font-size="10.00">IrcClientHandler.StopConnection</text>
</a>
</g>
</g>
<!-- Node16&#45;&gt;Node17 -->
<g id="edge21" class="edge"><title>Node16&#45;&gt;Node17</title>
<path fill="none" stroke="midnightblue" d="M420.288,-453.914C430.971,-457.636 441.561,-462.226 451,-467.867 470.694,-479.637 467.41,-492.923 487,-504.867 490.405,-506.943 493.996,-508.858 497.696,-510.624"/>
<polygon fill="midnightblue" stroke="midnightblue" points="496.51,-513.925 507.076,-514.71 499.306,-507.508 496.51,-513.925"/>
</g>
<!-- Node17&#45;&gt;Node5 -->
<g id="edge22" class="edge"><title>Node17&#45;&gt;Node5</title>
<path fill="none" stroke="midnightblue" d="M631.32,-514.867C649.904,-510.245 670.525,-505.117 689.717,-500.345"/>
<polygon fill="midnightblue" stroke="midnightblue" points="690.745,-503.696 699.604,-497.886 689.055,-496.903 690.745,-503.696"/>
</g>
<!-- Node18&#45;&gt;Node5 -->
<g id="edge28" class="edge"><title>Node18&#45;&gt;Node5</title>
<path fill="none" stroke="midnightblue" d="M394.825,-629.911C456.803,-647.681 569.787,-669.878 653,-627.867 703.075,-602.586 735.495,-541.588 750.426,-507.307"/>
<polygon fill="midnightblue" stroke="midnightblue" points="753.691,-508.571 754.337,-497.996 747.237,-505.861 753.691,-508.571"/>
</g>
<!-- Node18&#45;&gt;Node8 -->
<g id="edge29" class="edge"><title>Node18&#45;&gt;Node8</title>
<path fill="none" stroke="midnightblue" d="M440.998,-599.86C452.854,-597.916 465.001,-595.924 476.867,-593.978"/>
<polygon fill="midnightblue" stroke="midnightblue" points="477.453,-597.428 486.755,-592.356 476.32,-590.521 477.453,-597.428"/>
</g>
<!-- Node18&#45;&gt;Node15 -->
<g id="edge30" class="edge"><title>Node18&#45;&gt;Node15</title>
<path fill="none" stroke="midnightblue" d="M382.603,-629.986C410.307,-642.475 450.977,-660.433 487,-674.867 496.597,-678.712 506.901,-682.638 516.853,-686.328"/>
<polygon fill="midnightblue" stroke="midnightblue" points="515.66,-689.619 526.253,-689.784 518.075,-683.049 515.66,-689.619"/>
</g>
<!-- Node19&#45;&gt;Node5 -->
<g id="edge32" class="edge"><title>Node19&#45;&gt;Node5</title>
<path fill="none" stroke="midnightblue" d="M367.966,-518.573C392.288,-544.122 437.776,-586.221 487,-602.867 556.89,-626.501 585.674,-633.038 653,-602.867 696.9,-583.194 730.187,-535.621 747.254,-506.631"/>
<polygon fill="midnightblue" stroke="midnightblue" points="750.302,-508.35 752.218,-497.93 744.222,-504.881 750.302,-508.35"/>
</g>
<!-- Node19&#45;&gt;Node8 -->
<g id="edge33" class="edge"><title>Node19&#45;&gt;Node8</title>
<path fill="none" stroke="midnightblue" d="M396.816,-518.378C423.145,-529.477 456.64,-543.081 487,-553.867 493.502,-556.177 500.338,-558.47 507.174,-560.676"/>
<polygon fill="midnightblue" stroke="midnightblue" points="506.56,-564.153 517.15,-563.839 508.676,-557.481 506.56,-564.153"/>
</g>
<!-- Node19&#45;&gt;Node9 -->
<g id="edge34" class="edge"><title>Node19&#45;&gt;Node9</title>
<path fill="none" stroke="midnightblue" d="M433.737,-491.343C453.812,-489.788 475.094,-488.14 494.688,-486.622"/>
<polygon fill="midnightblue" stroke="midnightblue" points="495.065,-490.104 504.764,-485.842 494.524,-483.125 495.065,-490.104"/>
</g>
<!-- Node20&#45;&gt;Node5 -->
<g id="edge37" class="edge"><title>Node20&#45;&gt;Node5</title>
<path fill="none" stroke="midnightblue" d="M394.152,-371.82C455.354,-353.857 567.447,-330.611 653,-367.867 695.456,-386.355 728.666,-430.913 746.217,-458.822"/>
<polygon fill="midnightblue" stroke="midnightblue" points="743.366,-460.87 751.559,-467.587 749.343,-457.227 743.366,-460.87"/>
</g>
<!-- Node20&#45;&gt;Node8 -->
<g id="edge41" class="edge"><title>Node20&#45;&gt;Node8</title>
<path fill="none" stroke="midnightblue" d="M435.302,-402.089C441.048,-405.322 446.378,-409.206 451,-413.867 496.24,-459.484 442.587,-507.444 487,-553.867 488.389,-555.319 489.859,-556.687 491.399,-557.976"/>
<polygon fill="midnightblue" stroke="midnightblue" points="489.43,-560.87 499.615,-563.789 493.473,-555.156 489.43,-560.87"/>
</g>
<!-- Node20&#45;&gt;Node12 -->
<g id="edge40" class="edge"><title>Node20&#45;&gt;Node12</title>
<path fill="none" stroke="midnightblue" d="M374.257,-371.726C395.431,-358.331 426.308,-337.725 451,-316.867 468.527,-302.061 467.343,-291.701 487,-279.867 489.859,-278.145 492.849,-276.541 495.925,-275.047"/>
<polygon fill="midnightblue" stroke="midnightblue" points="497.626,-278.122 505.365,-270.886 494.803,-271.717 497.626,-278.122"/>
</g>
<!-- Node20&#45;&gt;Node13 -->
<g id="edge42" class="edge"><title>Node20&#45;&gt;Node13</title>
<path fill="none" stroke="midnightblue" d="M406.979,-371.843C421.581,-367.342 437.073,-361.957 451,-355.867 467.971,-348.445 470.236,-342.747 487,-334.867 495.553,-330.847 504.803,-327.005 513.904,-323.494"/>
<polygon fill="midnightblue" stroke="midnightblue" points="515.17,-326.757 523.298,-319.961 512.706,-320.205 515.17,-326.757"/>
</g>
<!-- Node21 -->
<g id="node19" class="node"><title>Node21</title>
<g id="a_node19"><a xlink:href="class_little_weeb_library_1_1_handlers_1_1_irc_client_handler.html#ae28984176dff0eda63604b8e5c25abb4" target="_top" xlink:title="LittleWeebLibrary.Handlers.\lIrcClientHandler.SendMessage">
<polygon fill="white" stroke="black" points="495,-377.867 495,-407.867 645,-407.867 645,-377.867 495,-377.867"/>
<text text-anchor="start" x="503" y="-395.867" font-family="Helvetica,sans-Serif" font-size="10.00">LittleWeebLibrary.Handlers.</text>
<text text-anchor="middle" x="570" y="-384.867" font-family="Helvetica,sans-Serif" font-size="10.00">IrcClientHandler.SendMessage</text>
</a>
</g>
</g>
<!-- Node20&#45;&gt;Node21 -->
<g id="edge38" class="edge"><title>Node20&#45;&gt;Node21</title>
<path fill="none" stroke="midnightblue" d="M436.252,-389.238C452.177,-389.674 468.778,-390.127 484.631,-390.561"/>
<polygon fill="midnightblue" stroke="midnightblue" points="484.834,-394.067 494.926,-390.842 485.026,-387.07 484.834,-394.067"/>
</g>
<!-- Node21&#45;&gt;Node5 -->
<g id="edge39" class="edge"><title>Node21&#45;&gt;Node5</title>
<path fill="none" stroke="midnightblue" d="M616.212,-407.937C628.32,-412.37 641.293,-417.485 653,-422.867 678.453,-434.568 705.998,-450.085 726.766,-462.407"/>
<polygon fill="midnightblue" stroke="midnightblue" points="725.134,-465.509 735.512,-467.645 728.731,-459.504 725.134,-465.509"/>
</g>
</g>
</svg>
