<?xml version="1.0" encoding="UTF-8" standalone="no"?>
<!DOCTYPE svg PUBLIC "-//W3C//DTD SVG 1.1//EN"
 "http://www.w3.org/Graphics/SVG/1.1/DTD/svg11.dtd">
<!-- Generated by graphviz version 2.38.0 (20140413.2041)
 -->
<!-- Title: LittleWeebLibrary.Services.DataBaseWebSocketService.GetDocument Pages: 1 -->
<svg width="637pt" height="274pt"
 viewBox="0.00 0.00 637.00 274.00" xmlns="http://www.w3.org/2000/svg" xmlns:xlink="http://www.w3.org/1999/xlink">
<g id="graph0" class="graph" transform="scale(1 1) rotate(0) translate(4 270)">
<title>LittleWeebLibrary.Services.DataBaseWebSocketService.GetDocument</title>
<polygon fill="white" stroke="none" points="-4,4 -4,-270 633,-270 633,4 -4,4"/>
<!-- Node21 -->
<g id="node1" class="node"><title>Node21</title>
<polygon fill="#bfbfbf" stroke="black" points="0,-98.5 0,-128.5 205,-128.5 205,-98.5 0,-98.5"/>
<text text-anchor="start" x="8" y="-116.5" font-family="Helvetica,sans-Serif" font-size="10.00">LittleWeebLibrary.Services.</text>
<text text-anchor="middle" x="102.5" y="-105.5" font-family="Helvetica,sans-Serif" font-size="10.00">DataBaseWebSocketService.GetDocument</text>
</g>
<!-- Node22 -->
<g id="node2" class="node"><title>Node22</title>
<g id="a_node2"><a xlink:href="class_little_weeb_library_1_1_handlers_1_1_data_base_handler.html#a7f61583807f99b7838a33d2db0f7ca68" target="_top" xlink:title="LittleWeebLibrary.Handlers.\lDataBaseHandler.GetJObject">
<polygon fill="white" stroke="black" points="252,-186.5 252,-216.5 396,-216.5 396,-186.5 252,-186.5"/>
<text text-anchor="start" x="260" y="-204.5" font-family="Helvetica,sans-Serif" font-size="10.00">LittleWeebLibrary.Handlers.</text>
<text text-anchor="middle" x="324" y="-193.5" font-family="Helvetica,sans-Serif" font-size="10.00">DataBaseHandler.GetJObject</text>
</a>
</g>
</g>
<!-- Node21&#45;&gt;Node22 -->
<g id="edge1" class="edge"><title>Node21&#45;&gt;Node22</title>
<path fill="none" stroke="midnightblue" d="M137.78,-128.505C165.484,-140.498 205.561,-157.552 241,-171.5 250.727,-175.328 261.165,-179.271 271.223,-182.989"/>
<polygon fill="midnightblue" stroke="midnightblue" points="270.122,-186.313 280.715,-186.473 272.534,-179.742 270.122,-186.313"/>
</g>
<!-- Node24 -->
<g id="node4" class="node"><title>Node24</title>
<g id="a_node4"><a xlink:href="class_little_weeb_library_1_1_handlers_1_1_debug_handler.html#afccb37dfd6b2114af72000c2f4fe4607" target="_top" xlink:title="LittleWeebLibrary.Handlers.\lDebugHandler.TraceMessage">
<polygon fill="white" stroke="black" points="464,-137.5 464,-167.5 608,-167.5 608,-137.5 464,-137.5"/>
<text text-anchor="start" x="472" y="-155.5" font-family="Helvetica,sans-Serif" font-size="10.00">LittleWeebLibrary.Handlers.</text>
<text text-anchor="middle" x="536" y="-144.5" font-family="Helvetica,sans-Serif" font-size="10.00">DebugHandler.TraceMessage</text>
</a>
</g>
</g>
<!-- Node21&#45;&gt;Node24 -->
<g id="edge9" class="edge"><title>Node21&#45;&gt;Node24</title>
<path fill="none" stroke="midnightblue" d="M176.02,-128.538C196.91,-132.366 219.787,-136.077 241,-138.5 312.63,-146.681 394.605,-150.097 453.765,-151.515"/>
<polygon fill="midnightblue" stroke="midnightblue" points="453.721,-155.015 463.797,-151.742 453.879,-148.017 453.721,-155.015"/>
</g>
<!-- Node26 -->
<g id="node6" class="node"><title>Node26</title>
<g id="a_node6"><a xlink:href="class_little_weeb_library_1_1_handlers_1_1_web_socket_handler.html#a1de289d54d665a32c93478c68d3e6ad0" target="_top" xlink:title="LittleWeebLibrary.Handlers.\lWebSocketHandler.SendMessage">
<polygon fill="white" stroke="black" points="241,-98.5 241,-128.5 407,-128.5 407,-98.5 241,-98.5"/>
<text text-anchor="start" x="249" y="-116.5" font-family="Helvetica,sans-Serif" font-size="10.00">LittleWeebLibrary.Handlers.</text>
<text text-anchor="middle" x="324" y="-105.5" font-family="Helvetica,sans-Serif" font-size="10.00">WebSocketHandler.SendMessage</text>
</a>
</g>
</g>
<!-- Node21&#45;&gt;Node26 -->
<g id="edge5" class="edge"><title>Node21&#45;&gt;Node26</title>
<path fill="none" stroke="midnightblue" d="M205.218,-113.5C213.669,-113.5 222.184,-113.5 230.561,-113.5"/>
<polygon fill="midnightblue" stroke="midnightblue" points="230.697,-117 240.697,-113.5 230.697,-110 230.697,-117"/>
</g>
<!-- Node27 -->
<g id="node7" class="node"><title>Node27</title>
<g id="a_node7"><a xlink:href="class_little_weeb_library_1_1_models_1_1_json_error.html#a0e3e7dd2e2990404b7f0461742b23440" target="_top" xlink:title="LittleWeebLibrary.Models.\lJsonError.ToJson">
<polygon fill="white" stroke="black" points="259,-49.5 259,-79.5 389,-79.5 389,-49.5 259,-49.5"/>
<text text-anchor="start" x="267" y="-67.5" font-family="Helvetica,sans-Serif" font-size="10.00">LittleWeebLibrary.Models.</text>
<text text-anchor="middle" x="324" y="-56.5" font-family="Helvetica,sans-Serif" font-size="10.00">JsonError.ToJson</text>
</a>
</g>
</g>
<!-- Node21&#45;&gt;Node27 -->
<g id="edge7" class="edge"><title>Node21&#45;&gt;Node27</title>
<path fill="none" stroke="midnightblue" d="M170.849,-98.4654C195.547,-92.9519 223.631,-86.6826 248.889,-81.0441"/>
<polygon fill="midnightblue" stroke="midnightblue" points="249.787,-84.4299 258.784,-78.8352 248.262,-77.5981 249.787,-84.4299"/>
</g>
<!-- Node28 -->
<g id="node8" class="node"><title>Node28</title>
<g id="a_node8"><a xlink:href="class_little_weeb_library_1_1_models_1_1_json_data_base_document.html#a0a84a997c39ac76d99382cdabf9227bf" target="_top" xlink:title="LittleWeebLibrary.Models.\lJsonDataBaseDocument.ToString">
<polygon fill="white" stroke="black" points="242.5,-0.5 242.5,-30.5 405.5,-30.5 405.5,-0.5 242.5,-0.5"/>
<text text-anchor="start" x="250.5" y="-18.5" font-family="Helvetica,sans-Serif" font-size="10.00">LittleWeebLibrary.Models.</text>
<text text-anchor="middle" x="324" y="-7.5" font-family="Helvetica,sans-Serif" font-size="10.00">JsonDataBaseDocument.ToString</text>
</a>
</g>
</g>
<!-- Node21&#45;&gt;Node28 -->
<g id="edge8" class="edge"><title>Node21&#45;&gt;Node28</title>
<path fill="none" stroke="midnightblue" d="M128.636,-98.261C155.676,-82.3232 200.287,-57.3303 241,-40.5 246.686,-38.1493 252.675,-35.9058 258.72,-33.7962"/>
<polygon fill="midnightblue" stroke="midnightblue" points="259.868,-37.1026 268.229,-30.5952 257.635,-30.4683 259.868,-37.1026"/>
</g>
<!-- Node23 -->
<g id="node3" class="node"><title>Node23</title>
<g id="a_node3"><a xlink:href="class_little_weeb_library_1_1_static_classes_1_1_utility_methods.html#a7b5de7a3ecc749b655fc3ed2af55360b" target="_top" xlink:title="LittleWeebLibrary.Static\lClasses.UtilityMethods.ReadBinaryFile">
<polygon fill="white" stroke="black" points="443,-235.5 443,-265.5 629,-265.5 629,-235.5 443,-235.5"/>
<text text-anchor="start" x="451" y="-253.5" font-family="Helvetica,sans-Serif" font-size="10.00">LittleWeebLibrary.Static</text>
<text text-anchor="middle" x="536" y="-242.5" font-family="Helvetica,sans-Serif" font-size="10.00">Classes.UtilityMethods.ReadBinaryFile</text>
</a>
</g>
</g>
<!-- Node22&#45;&gt;Node23 -->
<g id="edge2" class="edge"><title>Node22&#45;&gt;Node23</title>
<path fill="none" stroke="midnightblue" d="M389.434,-216.535C412.01,-221.802 437.543,-227.76 460.85,-233.198"/>
<polygon fill="midnightblue" stroke="midnightblue" points="460.154,-236.63 470.688,-235.494 461.745,-229.813 460.154,-236.63"/>
</g>
<!-- Node22&#45;&gt;Node24 -->
<g id="edge3" class="edge"><title>Node22&#45;&gt;Node24</title>
<path fill="none" stroke="midnightblue" d="M389.434,-186.465C412.01,-181.198 437.543,-175.24 460.85,-169.802"/>
<polygon fill="midnightblue" stroke="midnightblue" points="461.745,-173.187 470.688,-167.506 460.154,-166.37 461.745,-173.187"/>
</g>
<!-- Node25 -->
<g id="node5" class="node"><title>Node25</title>
<g id="a_node5"><a xlink:href="class_little_weeb_library_1_1_static_classes_1_1_utility_methods.html#a0a86ee01a3bf201bd9cc9b2552e54976" target="_top" xlink:title="LittleWeebLibrary.Static\lClasses.UtilityMethods.Unzip">
<polygon fill="white" stroke="black" points="463.5,-186.5 463.5,-216.5 608.5,-216.5 608.5,-186.5 463.5,-186.5"/>
<text text-anchor="start" x="471.5" y="-204.5" font-family="Helvetica,sans-Serif" font-size="10.00">LittleWeebLibrary.Static</text>
<text text-anchor="middle" x="536" y="-193.5" font-family="Helvetica,sans-Serif" font-size="10.00">Classes.UtilityMethods.Unzip</text>
</a>
</g>
</g>
<!-- Node22&#45;&gt;Node25 -->
<g id="edge4" class="edge"><title>Node22&#45;&gt;Node25</title>
<path fill="none" stroke="midnightblue" d="M396.096,-201.5C414.453,-201.5 434.359,-201.5 453.213,-201.5"/>
<polygon fill="midnightblue" stroke="midnightblue" points="453.262,-205 463.262,-201.5 453.262,-198 453.262,-205"/>
</g>
<!-- Node26&#45;&gt;Node24 -->
<g id="edge6" class="edge"><title>Node26&#45;&gt;Node24</title>
<path fill="none" stroke="midnightblue" d="M405.891,-128.523C421.53,-131.427 437.923,-134.471 453.579,-137.379"/>
<polygon fill="midnightblue" stroke="midnightblue" points="453.274,-140.882 463.745,-139.267 454.552,-134 453.274,-140.882"/>
</g>
</g>
</svg>
