<?xml version="1.0" encoding="UTF-8" standalone="no"?>
<!DOCTYPE svg PUBLIC "-//W3C//DTD SVG 1.1//EN"
 "http://www.w3.org/Graphics/SVG/1.1/DTD/svg11.dtd">
<!-- Generated by graphviz version 2.38.0 (20140413.2041)
 -->
<!-- Title: LittleWeebLibrary.StaticClasses.UtilityMethods.ReadBinaryFile Pages: 1 -->
<!--zoomable 598 -->
<svg id="main" version="1.1" xmlns="http://www.w3.org/2000/svg" xmlns:xlink="http://www.w3.org/1999/xlink" xml:space="preserve" onload="init(evt)">
<style type="text/css"><![CDATA[
.edge:hover path { stroke: red; }
.edge:hover polygon { stroke: red; fill: red; }
]]></style>
<script type="text/javascript"><![CDATA[
var edges = document.getElementsByTagName('g');
if (edges && edges.length) {
  for (var i=0;i<edges.length;i++) {
    if (edges[i].id.substr(0,4)=='edge') {
      edges[i].setAttribute('class','edge');
    }
  }
}
]]></script>
        <defs>
                <circle id="rim" cx="0" cy="0" r="7"/>
                <circle id="rim2" cx="0" cy="0" r="3.5"/>
                <g id="zoomPlus">
                        <use xlink:href="#rim" fill="#404040">
                                <set attributeName="fill" to="#808080" begin="zoomplus.mouseover" end="zoomplus.mouseout"/>
                        </use>
                        <path d="M-4,0h8M0,-4v8" fill="none" stroke="white" stroke-width="1.5" pointer-events="none"/>
                </g>
                <g id="zoomMin">
                        <use xlink:href="#rim" fill="#404040">
                                <set attributeName="fill" to="#808080" begin="zoomminus.mouseover" end="zoomminus.mouseout"/>
                        </use>
                        <path d="M-4,0h8" fill="none" stroke="white" stroke-width="1.5" pointer-events="none"/>
                </g>
                <g id="dirArrow">
                        <path fill="none" stroke="white" stroke-width="1.5" d="M0,-3.0v7 M-2.5,-0.5L0,-3.0L2.5,-0.5"/>
                </g>
               <g id="resetDef">
                       <use xlink:href="#rim2" fill="#404040">
                               <set attributeName="fill" to="#808080" begin="reset.mouseover" end="reset.mouseout"/>
                       </use>
               </g>
        </defs>

<script type="text/javascript">
var viewWidth = 1374;
var viewHeight = 598;
var sectionId = 'dynsection-9';
</script>
<script xlink:href="svgpan.js"/>
<svg id="graph" class="graph">
<g id="viewport">
<title>LittleWeebLibrary.StaticClasses.UtilityMethods.ReadBinaryFile</title>
<polygon fill="white" stroke="none" points="-4,4 -4,-594.247 1370,-594.247 1370,4 -4,4"/>
<!-- Node90 -->
<g id="node1" class="node"><title>Node90</title>
<polygon fill="#bfbfbf" stroke="black" points="0,-242.247 0,-272.247 186,-272.247 186,-242.247 0,-242.247"/>
<text text-anchor="start" x="8" y="-260.247" font-family="Helvetica,sans-Serif" font-size="10.00">LittleWeebLibrary.Static</text>
<text text-anchor="middle" x="93" y="-249.247" font-family="Helvetica,sans-Serif" font-size="10.00">Classes.UtilityMethods.ReadBinaryFile</text>
</g>
<!-- Node91 -->
<g id="node2" class="node"><title>Node91</title>
<g id="a_node2"><a xlink:href="class_little_weeb_library_1_1_handlers_1_1_data_base_handler.html#ae04312874502a18b241c1123ef963b90" target="_top" xlink:title="LittleWeebLibrary.Handlers.\lDataBaseHandler.GetCollection">
<polygon fill="white" stroke="black" points="226.5,-499.247 226.5,-529.247 380.5,-529.247 380.5,-499.247 226.5,-499.247"/>
<text text-anchor="start" x="234.5" y="-517.247" font-family="Helvetica,sans-Serif" font-size="10.00">LittleWeebLibrary.Handlers.</text>
<text text-anchor="middle" x="303.5" y="-506.247" font-family="Helvetica,sans-Serif" font-size="10.00">DataBaseHandler.GetCollection</text>
</a>
</g>
</g>
<!-- Node90&#45;&gt;Node91 -->
<g id="edge1" class="edge"><title>Node90&#45;&gt;Node91</title>
<path fill="none" stroke="midnightblue" d="M112.869,-280.506C154.864,-332.269 255.099,-455.821 290.147,-499.021"/>
<polygon fill="midnightblue" stroke="midnightblue" points="115.437,-278.115 106.418,-272.554 110,-282.525 115.437,-278.115"/>
</g>
<!-- Node97 -->
<g id="node8" class="node"><title>Node97</title>
<g id="a_node8"><a xlink:href="class_little_weeb_library_1_1_handlers_1_1_data_base_handler.html#a7f61583807f99b7838a33d2db0f7ca68" target="_top" xlink:title="LittleWeebLibrary.Handlers.\lDataBaseHandler.GetJObject">
<polygon fill="white" stroke="black" points="231.5,-242.247 231.5,-272.247 375.5,-272.247 375.5,-242.247 231.5,-242.247"/>
<text text-anchor="start" x="239.5" y="-260.247" font-family="Helvetica,sans-Serif" font-size="10.00">LittleWeebLibrary.Handlers.</text>
<text text-anchor="middle" x="303.5" y="-249.247" font-family="Helvetica,sans-Serif" font-size="10.00">DataBaseHandler.GetJObject</text>
</a>
</g>
</g>
<!-- Node90&#45;&gt;Node97 -->
<g id="edge7" class="edge"><title>Node90&#45;&gt;Node97</title>
<path fill="none" stroke="midnightblue" d="M196.403,-257.247C208.202,-257.247 220.031,-257.247 231.288,-257.247"/>
<polygon fill="midnightblue" stroke="midnightblue" points="196.058,-253.748 186.058,-257.247 196.058,-260.748 196.058,-253.748"/>
</g>
<!-- Node117 -->
<g id="node28" class="node"><title>Node117</title>
<g id="a_node28"><a xlink:href="class_little_weeb_library_1_1_handlers_1_1_data_base_handler.html#ac9938b8d47b353d15c8e77e94849896e" target="_top" xlink:title="LittleWeebLibrary.Handlers.\lDataBaseHandler.RemoveJObject">
<polygon fill="white" stroke="black" points="222,-193.247 222,-223.247 385,-223.247 385,-193.247 222,-193.247"/>
<text text-anchor="start" x="230" y="-211.247" font-family="Helvetica,sans-Serif" font-size="10.00">LittleWeebLibrary.Handlers.</text>
<text text-anchor="middle" x="303.5" y="-200.247" font-family="Helvetica,sans-Serif" font-size="10.00">DataBaseHandler.RemoveJObject</text>
</a>
</g>
</g>
<!-- Node90&#45;&gt;Node117 -->
<g id="edge34" class="edge"><title>Node90&#45;&gt;Node117</title>
<path fill="none" stroke="midnightblue" d="M167.745,-239.916C190.894,-234.476 216.243,-228.519 238.647,-223.254"/>
<polygon fill="midnightblue" stroke="midnightblue" points="166.908,-236.518 157.974,-242.213 168.509,-243.332 166.908,-236.518"/>
</g>
<!-- Node92 -->
<g id="node3" class="node"><title>Node92</title>
<g id="a_node3"><a xlink:href="class_little_weeb_library_1_1_services_1_1_data_base_web_socket_service.html#aef8bdd650778c72d639f1e89c1d6dcad" target="_top" xlink:title="LittleWeebLibrary.Services.\lDataBaseWebSocketService.GetCollection">
<polygon fill="white" stroke="black" points="422,-499.247 422,-529.247 625,-529.247 625,-499.247 422,-499.247"/>
<text text-anchor="start" x="430" y="-517.247" font-family="Helvetica,sans-Serif" font-size="10.00">LittleWeebLibrary.Services.</text>
<text text-anchor="middle" x="523.5" y="-506.247" font-family="Helvetica,sans-Serif" font-size="10.00">DataBaseWebSocketService.GetCollection</text>
</a>
</g>
</g>
<!-- Node91&#45;&gt;Node92 -->
<g id="edge2" class="edge"><title>Node91&#45;&gt;Node92</title>
<path fill="none" stroke="midnightblue" d="M390.811,-514.247C400.982,-514.247 411.429,-514.247 421.776,-514.247"/>
<polygon fill="midnightblue" stroke="midnightblue" points="390.746,-510.748 380.746,-514.247 390.746,-517.748 390.746,-510.748"/>
</g>
<!-- Node94 -->
<g id="node5" class="node"><title>Node94</title>
<g id="a_node5"><a xlink:href="class_little_weeb_library_1_1_handlers_1_1_file_history_handler.html#a7e5a72e2cfdc3dfe97066cc7504b4445" target="_top" xlink:title="LittleWeebLibrary.Handlers.\lFileHistoryHandler.GetCurrentFile\lHistory">
<polygon fill="white" stroke="black" points="442.5,-548.747 442.5,-589.747 604.5,-589.747 604.5,-548.747 442.5,-548.747"/>
<text text-anchor="start" x="450.5" y="-577.747" font-family="Helvetica,sans-Serif" font-size="10.00">LittleWeebLibrary.Handlers.</text>
<text text-anchor="start" x="450.5" y="-566.747" font-family="Helvetica,sans-Serif" font-size="10.00">FileHistoryHandler.GetCurrentFile</text>
<text text-anchor="middle" x="523.5" y="-555.747" font-family="Helvetica,sans-Serif" font-size="10.00">History</text>
</a>
</g>
</g>
<!-- Node91&#45;&gt;Node94 -->
<g id="edge4" class="edge"><title>Node91&#45;&gt;Node94</title>
<path fill="none" stroke="midnightblue" d="M373.864,-531.748C395.588,-537.228 419.742,-543.322 442.157,-548.977"/>
<polygon fill="midnightblue" stroke="midnightblue" points="374.622,-528.329 364.069,-529.276 372.909,-535.116 374.622,-528.329"/>
</g>
<!-- Node93 -->
<g id="node4" class="node"><title>Node93</title>
<g id="a_node4"><a xlink:href="class_little_weeb_library_1_1_controllers_1_1_sub_controllers_1_1_data_base_web_socket_controller.html#a655abc0c42c54c9ff3572e4b4271fa3b" target="_top" xlink:title="LittleWeebLibrary.Controllers.\lSubControllers.DataBaseWebSocket\lController.OnWebSocketEvent">
<polygon fill="white" stroke="black" points="678,-474.747 678,-515.747 855,-515.747 855,-474.747 678,-474.747"/>
<text text-anchor="start" x="686" y="-503.747" font-family="Helvetica,sans-Serif" font-size="10.00">LittleWeebLibrary.Controllers.</text>
<text text-anchor="start" x="686" y="-492.747" font-family="Helvetica,sans-Serif" font-size="10.00">SubControllers.DataBaseWebSocket</text>
<text text-anchor="middle" x="766.5" y="-481.747" font-family="Helvetica,sans-Serif" font-size="10.00">Controller.OnWebSocketEvent</text>
</a>
</g>
</g>
<!-- Node92&#45;&gt;Node93 -->
<g id="edge3" class="edge"><title>Node92&#45;&gt;Node93</title>
<path fill="none" stroke="midnightblue" d="M635.565,-505.491C649.708,-504.376 664.026,-503.247 677.732,-502.167"/>
<polygon fill="midnightblue" stroke="midnightblue" points="635.003,-502.025 625.309,-506.3 635.553,-509.003 635.003,-502.025"/>
</g>
<!-- Node95 -->
<g id="node6" class="node"><title>Node95</title>
<g id="a_node6"><a xlink:href="class_little_weeb_library_1_1_services_1_1_download_web_socket_service.html#adb3b1a3aadf9ad491388890e432f6c91" target="_top" xlink:title="LittleWeebLibrary.Services.\lDownloadWebSocketService.GetCurrent\lFileHistory">
<polygon fill="white" stroke="black" points="671,-548.747 671,-589.747 862,-589.747 862,-548.747 671,-548.747"/>
<text text-anchor="start" x="679" y="-577.747" font-family="Helvetica,sans-Serif" font-size="10.00">LittleWeebLibrary.Services.</text>
<text text-anchor="start" x="679" y="-566.747" font-family="Helvetica,sans-Serif" font-size="10.00">DownloadWebSocketService.GetCurrent</text>
<text text-anchor="middle" x="766.5" y="-555.747" font-family="Helvetica,sans-Serif" font-size="10.00">FileHistory</text>
</a>
</g>
</g>
<!-- Node94&#45;&gt;Node95 -->
<g id="edge5" class="edge"><title>Node94&#45;&gt;Node95</title>
<path fill="none" stroke="midnightblue" d="M614.824,-569.247C633.165,-569.247 652.502,-569.247 670.983,-569.247"/>
<polygon fill="midnightblue" stroke="midnightblue" points="614.75,-565.748 604.75,-569.247 614.749,-572.748 614.75,-565.748"/>
</g>
<!-- Node96 -->
<g id="node7" class="node"><title>Node96</title>
<g id="a_node7"><a xlink:href="class_little_weeb_library_1_1_controllers_1_1_download_web_socket_controller.html#a9e5e421ed57b8b2a294e17d93d027c53" target="_top" xlink:title="LittleWeebLibrary.Controllers.\lDownloadWebSocketController.OnWeb\lSocketEvent">
<polygon fill="white" stroke="black" points="921,-548.747 921,-589.747 1108,-589.747 1108,-548.747 921,-548.747"/>
<text text-anchor="start" x="929" y="-577.747" font-family="Helvetica,sans-Serif" font-size="10.00">LittleWeebLibrary.Controllers.</text>
<text text-anchor="start" x="929" y="-566.747" font-family="Helvetica,sans-Serif" font-size="10.00">DownloadWebSocketController.OnWeb</text>
<text text-anchor="middle" x="1014.5" y="-555.747" font-family="Helvetica,sans-Serif" font-size="10.00">SocketEvent</text>
</a>
</g>
</g>
<!-- Node95&#45;&gt;Node96 -->
<g id="edge6" class="edge"><title>Node95&#45;&gt;Node96</title>
<path fill="none" stroke="midnightblue" d="M872.701,-569.247C888.701,-569.247 905.111,-569.247 920.817,-569.247"/>
<polygon fill="midnightblue" stroke="midnightblue" points="872.258,-565.748 862.258,-569.247 872.258,-572.748 872.258,-565.748"/>
</g>
<!-- Node98 -->
<g id="node9" class="node"><title>Node98</title>
<g id="a_node9"><a xlink:href="class_little_weeb_library_1_1_handlers_1_1_file_history_handler.html#a615bf14eae35f656b211f0500abe4d29" target="_top" xlink:title="LittleWeebLibrary.Handlers.\lFileHistoryHandler.AddFileToFile\lHistory">
<polygon fill="white" stroke="black" points="444.5,-291.747 444.5,-332.747 602.5,-332.747 602.5,-291.747 444.5,-291.747"/>
<text text-anchor="start" x="452.5" y="-320.747" font-family="Helvetica,sans-Serif" font-size="10.00">LittleWeebLibrary.Handlers.</text>
<text text-anchor="start" x="452.5" y="-309.747" font-family="Helvetica,sans-Serif" font-size="10.00">FileHistoryHandler.AddFileToFile</text>
<text text-anchor="middle" x="523.5" y="-298.747" font-family="Helvetica,sans-Serif" font-size="10.00">History</text>
</a>
</g>
</g>
<!-- Node97&#45;&gt;Node98 -->
<g id="edge8" class="edge"><title>Node97&#45;&gt;Node98</title>
<path fill="none" stroke="midnightblue" d="M373.824,-274.738C396.214,-280.386 421.189,-286.687 444.182,-292.488"/>
<polygon fill="midnightblue" stroke="midnightblue" points="374.622,-271.329 364.069,-272.276 372.909,-278.116 374.622,-271.329"/>
</g>
<!-- Node100 -->
<g id="node11" class="node"><title>Node100</title>
<g id="a_node11"><a xlink:href="class_little_weeb_library_1_1_handlers_1_1_anime_rule_handler.html#a469232c6b73d0ceff935c4ef2d78d039" target="_top" xlink:title="LittleWeebLibrary.Handlers.\lAnimeRuleHandler.AddRules">
<polygon fill="white" stroke="black" points="452.5,-242.247 452.5,-272.247 594.5,-272.247 594.5,-242.247 452.5,-242.247"/>
<text text-anchor="start" x="460.5" y="-260.247" font-family="Helvetica,sans-Serif" font-size="10.00">LittleWeebLibrary.Handlers.</text>
<text text-anchor="middle" x="523.5" y="-249.247" font-family="Helvetica,sans-Serif" font-size="10.00">AnimeRuleHandler.AddRules</text>
</a>
</g>
</g>
<!-- Node97&#45;&gt;Node100 -->
<g id="edge10" class="edge"><title>Node97&#45;&gt;Node100</title>
<path fill="none" stroke="midnightblue" d="M385.82,-257.247C407.657,-257.247 431.082,-257.247 452.261,-257.247"/>
<polygon fill="midnightblue" stroke="midnightblue" points="385.58,-253.748 375.58,-257.247 385.58,-260.748 385.58,-253.748"/>
</g>
<!-- Node103 -->
<g id="node14" class="node"><title>Node103</title>
<g id="a_node14"><a xlink:href="class_little_weeb_library_1_1_handlers_1_1_anime_rule_handler.html#a503fb2839489e1df8b80c9a461c0fd2b" target="_top" xlink:title="LittleWeebLibrary.Handlers.\lAnimeRuleHandler.FilterAnimeRules">
<polygon fill="white" stroke="black" points="436.5,-193.247 436.5,-223.247 610.5,-223.247 610.5,-193.247 436.5,-193.247"/>
<text text-anchor="start" x="444.5" y="-211.247" font-family="Helvetica,sans-Serif" font-size="10.00">LittleWeebLibrary.Handlers.</text>
<text text-anchor="middle" x="523.5" y="-200.247" font-family="Helvetica,sans-Serif" font-size="10.00">AnimeRuleHandler.FilterAnimeRules</text>
</a>
</g>
</g>
<!-- Node97&#45;&gt;Node103 -->
<g id="edge13" class="edge"><title>Node97&#45;&gt;Node103</title>
<path fill="none" stroke="midnightblue" d="M381.281,-239.989C405.572,-234.529 432.208,-228.542 455.738,-223.254"/>
<polygon fill="midnightblue" stroke="midnightblue" points="380.378,-236.605 371.389,-242.213 381.913,-243.435 380.378,-236.605"/>
</g>
<!-- Node106 -->
<g id="node17" class="node"><title>Node106</title>
<g id="a_node17"><a xlink:href="class_little_weeb_library_1_1_services_1_1_info_api_web_socket_service.html#a310f91aba5d17d8202aea81442da2545" target="_top" xlink:title="LittleWeebLibrary.Services.\lInfoApiWebSocketService.GetAllCategories">
<polygon fill="white" stroke="black" points="912,-160.247 912,-190.247 1117,-190.247 1117,-160.247 912,-160.247"/>
<text text-anchor="start" x="920" y="-178.247" font-family="Helvetica,sans-Serif" font-size="10.00">LittleWeebLibrary.Services.</text>
<text text-anchor="middle" x="1014.5" y="-167.247" font-family="Helvetica,sans-Serif" font-size="10.00">InfoApiWebSocketService.GetAllCategories</text>
</a>
</g>
</g>
<!-- Node97&#45;&gt;Node106 -->
<g id="edge17" class="edge"><title>Node97&#45;&gt;Node106</title>
<path fill="none" stroke="midnightblue" d="M376.551,-237.562C379.487,-235.926 382.319,-234.158 385,-232.247 407.007,-216.565 396.972,-195.614 421,-183.247 503.723,-140.671 765.329,-154.265 911.745,-165.91"/>
<polygon fill="midnightblue" stroke="midnightblue" points="374.871,-234.489 367.483,-242.082 377.994,-240.754 374.871,-234.489"/>
</g>
<!-- Node107 -->
<g id="node18" class="node"><title>Node107</title>
<g id="a_node18"><a xlink:href="class_little_weeb_library_1_1_services_1_1_info_api_web_socket_service.html#a2882975741be27c69b461509d48e2636" target="_top" xlink:title="LittleWeebLibrary.Services.\lInfoApiWebSocketService.GetAllGenres">
<polygon fill="white" stroke="black" points="919.5,-111.247 919.5,-141.247 1109.5,-141.247 1109.5,-111.247 919.5,-111.247"/>
<text text-anchor="start" x="927.5" y="-129.247" font-family="Helvetica,sans-Serif" font-size="10.00">LittleWeebLibrary.Services.</text>
<text text-anchor="middle" x="1014.5" y="-118.247" font-family="Helvetica,sans-Serif" font-size="10.00">InfoApiWebSocketService.GetAllGenres</text>
</a>
</g>
</g>
<!-- Node97&#45;&gt;Node107 -->
<g id="edge19" class="edge"><title>Node97&#45;&gt;Node107</title>
<path fill="none" stroke="midnightblue" d="M378.94,-237.013C381.058,-235.535 383.086,-233.949 385,-232.247 414.439,-206.069 388.427,-173.406 421,-151.247 499.582,-97.7895 772.988,-108.435 919.335,-118.527"/>
<polygon fill="midnightblue" stroke="midnightblue" points="377.119,-234.024 370.376,-242.195 380.743,-240.013 377.119,-234.024"/>
</g>
<!-- Node108 -->
<g id="node19" class="node"><title>Node108</title>
<g id="a_node19"><a xlink:href="class_little_weeb_library_1_1_handlers_1_1_anime_profile_handler.html#aaa89fba506cfcdad18a5aa3f9b860061" target="_top" xlink:title="LittleWeebLibrary.Handlers.\lAnimeProfileHandler.GetAnimeProfile">
<polygon fill="white" stroke="black" points="677.5,-61.2474 677.5,-91.2474 855.5,-91.2474 855.5,-61.2474 677.5,-61.2474"/>
<text text-anchor="start" x="685.5" y="-79.2474" font-family="Helvetica,sans-Serif" font-size="10.00">LittleWeebLibrary.Handlers.</text>
<text text-anchor="middle" x="766.5" y="-68.2474" font-family="Helvetica,sans-Serif" font-size="10.00">AnimeProfileHandler.GetAnimeProfile</text>
</a>
</g>
</g>
<!-- Node97&#45;&gt;Node108 -->
<g id="edge21" class="edge"><title>Node97&#45;&gt;Node108</title>
<path fill="none" stroke="midnightblue" d="M380.482,-236.331C382.061,-235.05 383.571,-233.69 385,-232.247 424.182,-192.685 378.117,-147.765 421,-112.247 493.71,-52.0251 606.808,-52.1291 683.408,-61.2159"/>
<polygon fill="midnightblue" stroke="midnightblue" points="378.334,-233.56 372.076,-242.11 382.3,-239.329 378.334,-233.56"/>
</g>
<!-- Node110 -->
<g id="node21" class="node"><title>Node110</title>
<g id="a_node21"><a xlink:href="class_little_weeb_library_1_1_services_1_1_info_api_web_socket_service.html#a5f91364bc403db5d521f15881a385143" target="_top" xlink:title="LittleWeebLibrary.Services.\lInfoApiWebSocketService.GetBotList">
<polygon fill="white" stroke="black" points="677.5,-12.2474 677.5,-42.2474 855.5,-42.2474 855.5,-12.2474 677.5,-12.2474"/>
<text text-anchor="start" x="685.5" y="-30.2474" font-family="Helvetica,sans-Serif" font-size="10.00">LittleWeebLibrary.Services.</text>
<text text-anchor="middle" x="766.5" y="-19.2474" font-family="Helvetica,sans-Serif" font-size="10.00">InfoApiWebSocketService.GetBotList</text>
</a>
</g>
</g>
<!-- Node97&#45;&gt;Node110 -->
<g id="edge24" class="edge"><title>Node97&#45;&gt;Node110</title>
<path fill="none" stroke="midnightblue" d="M381.27,-235.97C382.574,-234.794 383.821,-233.555 385,-232.247 439.361,-171.999 360.197,-106.989 421,-53.2474 499.085,15.7689 629.869,3.0778 705.848,-12.2015"/>
<polygon fill="midnightblue" stroke="midnightblue" points="379.111,-233.214 373.226,-242.024 383.321,-238.807 379.111,-233.214"/>
</g>
<!-- Node111 -->
<g id="node22" class="node"><title>Node111</title>
<g id="a_node22"><a xlink:href="class_little_weeb_library_1_1_handlers_1_1_anime_profile_handler.html#a7469a40799e1067d871ba87679f54c37" target="_top" xlink:title="LittleWeebLibrary.Handlers.\lAnimeProfileHandler.GetCurrently\lAiring">
<polygon fill="white" stroke="black" points="685.5,-400.747 685.5,-441.747 847.5,-441.747 847.5,-400.747 685.5,-400.747"/>
<text text-anchor="start" x="693.5" y="-429.747" font-family="Helvetica,sans-Serif" font-size="10.00">LittleWeebLibrary.Handlers.</text>
<text text-anchor="start" x="693.5" y="-418.747" font-family="Helvetica,sans-Serif" font-size="10.00">AnimeProfileHandler.GetCurrently</text>
<text text-anchor="middle" x="766.5" y="-407.747" font-family="Helvetica,sans-Serif" font-size="10.00">Airing</text>
</a>
</g>
</g>
<!-- Node97&#45;&gt;Node111 -->
<g id="edge26" class="edge"><title>Node97&#45;&gt;Node111</title>
<path fill="none" stroke="midnightblue" d="M316.001,-281.889C333.361,-315.879 369.759,-375.926 421,-402.247 503.453,-444.601 612.106,-442.693 685.154,-434.558"/>
<polygon fill="midnightblue" stroke="midnightblue" points="318.996,-280.05 311.421,-272.643 312.724,-283.158 318.996,-280.05"/>
</g>
<!-- Node113 -->
<g id="node24" class="node"><title>Node113</title>
<g id="a_node24"><a xlink:href="class_little_weeb_library_1_1_services_1_1_data_base_web_socket_service.html#aa51350396b2aa1634a680c94bebdc64c" target="_top" xlink:title="LittleWeebLibrary.Services.\lDataBaseWebSocketService.GetDocument">
<polygon fill="white" stroke="black" points="421,-450.247 421,-480.247 626,-480.247 626,-450.247 421,-450.247"/>
<text text-anchor="start" x="429" y="-468.247" font-family="Helvetica,sans-Serif" font-size="10.00">LittleWeebLibrary.Services.</text>
<text text-anchor="middle" x="523.5" y="-457.247" font-family="Helvetica,sans-Serif" font-size="10.00">DataBaseWebSocketService.GetDocument</text>
</a>
</g>
</g>
<!-- Node97&#45;&gt;Node113 -->
<g id="edge29" class="edge"><title>Node97&#45;&gt;Node113</title>
<path fill="none" stroke="midnightblue" d="M314.007,-281.913C330.119,-320.442 366.449,-394.689 421,-435.247 429.258,-441.387 438.76,-446.276 448.566,-450.168"/>
<polygon fill="midnightblue" stroke="midnightblue" points="317.184,-280.433 310.173,-272.488 310.7,-283.07 317.184,-280.433"/>
</g>
<!-- Node114 -->
<g id="node25" class="node"><title>Node114</title>
<g id="a_node25"><a xlink:href="class_little_weeb_library_1_1_handlers_1_1_file_history_handler.html#a3b3f0cdedee405d607feff81c2de085d" target="_top" xlink:title="LittleWeebLibrary.Handlers.\lFileHistoryHandler.RemoveFileFrom\lFileHistory">
<polygon fill="white" stroke="black" points="437.5,-351.747 437.5,-392.747 609.5,-392.747 609.5,-351.747 437.5,-351.747"/>
<text text-anchor="start" x="445.5" y="-380.747" font-family="Helvetica,sans-Serif" font-size="10.00">LittleWeebLibrary.Handlers.</text>
<text text-anchor="start" x="445.5" y="-369.747" font-family="Helvetica,sans-Serif" font-size="10.00">FileHistoryHandler.RemoveFileFrom</text>
<text text-anchor="middle" x="523.5" y="-358.747" font-family="Helvetica,sans-Serif" font-size="10.00">FileHistory</text>
</a>
</g>
</g>
<!-- Node97&#45;&gt;Node114 -->
<g id="edge31" class="edge"><title>Node97&#45;&gt;Node114</title>
<path fill="none" stroke="midnightblue" d="M329.14,-279.145C351.665,-298.167 386.614,-325.26 421,-342.247 428.002,-345.706 435.476,-348.844 443.073,-351.671"/>
<polygon fill="midnightblue" stroke="midnightblue" points="331.298,-276.385 321.427,-272.536 326.743,-281.7 331.298,-276.385"/>
</g>
<!-- Node99 -->
<g id="node10" class="node"><title>Node99</title>
<g id="a_node10"><a xlink:href="class_little_weeb_library_1_1_handlers_1_1_download_handler.html#a8e40df55d254c0b95bb0a72becde5039" target="_top" xlink:title="LittleWeebLibrary.Handlers.\lDownloadHandler.OnIrcClientDownloadEvent">
<polygon fill="white" stroke="black" points="662,-297.247 662,-327.247 871,-327.247 871,-297.247 662,-297.247"/>
<text text-anchor="start" x="670" y="-315.247" font-family="Helvetica,sans-Serif" font-size="10.00">LittleWeebLibrary.Handlers.</text>
<text text-anchor="middle" x="766.5" y="-304.247" font-family="Helvetica,sans-Serif" font-size="10.00">DownloadHandler.OnIrcClientDownloadEvent</text>
</a>
</g>
</g>
<!-- Node98&#45;&gt;Node99 -->
<g id="edge9" class="edge"><title>Node98&#45;&gt;Node99</title>
<path fill="none" stroke="midnightblue" d="M613.036,-312.247C628.889,-312.247 645.537,-312.247 661.771,-312.247"/>
<polygon fill="midnightblue" stroke="midnightblue" points="612.746,-308.748 602.746,-312.247 612.746,-315.748 612.746,-308.748"/>
</g>
<!-- Node101 -->
<g id="node12" class="node"><title>Node101</title>
<g id="a_node12"><a xlink:href="class_little_weeb_library_1_1_services_1_1_info_api_web_socket_service.html#a0ed7b2a1d1fe30b43d06232719570435" target="_top" xlink:title="LittleWeebLibrary.Services.\lInfoApiWebSocketService.AddRule">
<polygon fill="white" stroke="black" points="930.5,-270.247 930.5,-300.247 1098.5,-300.247 1098.5,-270.247 930.5,-270.247"/>
<text text-anchor="start" x="938.5" y="-288.247" font-family="Helvetica,sans-Serif" font-size="10.00">LittleWeebLibrary.Services.</text>
<text text-anchor="middle" x="1014.5" y="-277.247" font-family="Helvetica,sans-Serif" font-size="10.00">InfoApiWebSocketService.AddRule</text>
</a>
</g>
</g>
<!-- Node100&#45;&gt;Node101 -->
<g id="edge11" class="edge"><title>Node100&#45;&gt;Node101</title>
<path fill="none" stroke="midnightblue" d="M604.698,-261.84C694.548,-266.984 839.494,-275.284 930.479,-280.494"/>
<polygon fill="midnightblue" stroke="midnightblue" points="604.746,-258.337 594.562,-261.259 604.345,-265.325 604.746,-258.337"/>
</g>
<!-- Node102 -->
<g id="node13" class="node"><title>Node102</title>
<g id="a_node13"><a xlink:href="class_little_weeb_library_1_1_controllers_1_1_sub_controllers_1_1_info_api_web_socket_controller.html#ad620537574b819085ff8eb394add2912" target="_top" xlink:title="LittleWeebLibrary.Controllers.\lSubControllers.InfoApiWebSocketController.\lOnWebSocketEvent">
<polygon fill="white" stroke="black" points="1158,-154.747 1158,-195.747 1366,-195.747 1366,-154.747 1158,-154.747"/>
<text text-anchor="start" x="1166" y="-183.747" font-family="Helvetica,sans-Serif" font-size="10.00">LittleWeebLibrary.Controllers.</text>
<text text-anchor="start" x="1166" y="-172.747" font-family="Helvetica,sans-Serif" font-size="10.00">SubControllers.InfoApiWebSocketController.</text>
<text text-anchor="middle" x="1262" y="-161.747" font-family="Helvetica,sans-Serif" font-size="10.00">OnWebSocketEvent</text>
</a>
</g>
</g>
<!-- Node101&#45;&gt;Node102 -->
<g id="edge12" class="edge"><title>Node101&#45;&gt;Node102</title>
<path fill="none" stroke="midnightblue" d="M1102.48,-267.277C1109.17,-265.155 1115.74,-262.817 1122,-260.247 1163.21,-243.322 1206.33,-215.049 1233.4,-195.798"/>
<polygon fill="midnightblue" stroke="midnightblue" points="1101.2,-264.006 1092.63,-270.232 1103.22,-270.711 1101.2,-264.006"/>
</g>
<!-- Node104 -->
<g id="node15" class="node"><title>Node104</title>
<g id="a_node15"><a xlink:href="class_little_weeb_library_1_1_handlers_1_1_anime_profile_handler.html#a5b163eb7e68b1e40904fa55454d8ba54" target="_top" xlink:title="LittleWeebLibrary.Handlers.\lAnimeProfileHandler.GetAnimeEpisodes">
<polygon fill="white" stroke="black" points="671,-197.247 671,-227.247 862,-227.247 862,-197.247 671,-197.247"/>
<text text-anchor="start" x="679" y="-215.247" font-family="Helvetica,sans-Serif" font-size="10.00">LittleWeebLibrary.Handlers.</text>
<text text-anchor="middle" x="766.5" y="-204.247" font-family="Helvetica,sans-Serif" font-size="10.00">AnimeProfileHandler.GetAnimeEpisodes</text>
</a>
</g>
</g>
<!-- Node103&#45;&gt;Node104 -->
<g id="edge14" class="edge"><title>Node103&#45;&gt;Node104</title>
<path fill="none" stroke="midnightblue" d="M620.958,-209.848C637.377,-210.121 654.417,-210.404 670.791,-210.676"/>
<polygon fill="midnightblue" stroke="midnightblue" points="620.883,-206.347 610.826,-209.68 620.766,-213.346 620.883,-206.347"/>
</g>
<!-- Node105 -->
<g id="node16" class="node"><title>Node105</title>
<g id="a_node16"><a xlink:href="class_little_weeb_library_1_1_services_1_1_info_api_web_socket_service.html#a754f738fba586cc927d64251329c736a" target="_top" xlink:title="LittleWeebLibrary.Services.\lInfoApiWebSocketService.GetAnime\lEpisodes">
<polygon fill="white" stroke="black" points="927,-209.747 927,-250.747 1102,-250.747 1102,-209.747 927,-209.747"/>
<text text-anchor="start" x="935" y="-238.747" font-family="Helvetica,sans-Serif" font-size="10.00">LittleWeebLibrary.Services.</text>
<text text-anchor="start" x="935" y="-227.747" font-family="Helvetica,sans-Serif" font-size="10.00">InfoApiWebSocketService.GetAnime</text>
<text text-anchor="middle" x="1014.5" y="-216.747" font-family="Helvetica,sans-Serif" font-size="10.00">Episodes</text>
</a>
</g>
</g>
<!-- Node104&#45;&gt;Node105 -->
<g id="edge15" class="edge"><title>Node104&#45;&gt;Node105</title>
<path fill="none" stroke="midnightblue" d="M872.296,-219.915C890.483,-221.246 909.213,-222.617 926.847,-223.907"/>
<polygon fill="midnightblue" stroke="midnightblue" points="872.487,-216.42 862.258,-219.181 871.976,-223.401 872.487,-216.42"/>
</g>
<!-- Node105&#45;&gt;Node102 -->
<g id="edge16" class="edge"><title>Node105&#45;&gt;Node102</title>
<path fill="none" stroke="midnightblue" d="M1111.87,-208.658C1130.81,-204.415 1150.63,-199.975 1169.4,-195.768"/>
<polygon fill="midnightblue" stroke="midnightblue" points="1111.05,-205.255 1102.05,-210.857 1112.58,-212.086 1111.05,-205.255"/>
</g>
<!-- Node106&#45;&gt;Node102 -->
<g id="edge18" class="edge"><title>Node106&#45;&gt;Node102</title>
<path fill="none" stroke="midnightblue" d="M1127.27,-175.247C1137.46,-175.247 1147.76,-175.247 1157.87,-175.247"/>
<polygon fill="midnightblue" stroke="midnightblue" points="1127.13,-171.748 1117.13,-175.247 1127.13,-178.748 1127.13,-171.748"/>
</g>
<!-- Node107&#45;&gt;Node102 -->
<g id="edge20" class="edge"><title>Node107&#45;&gt;Node102</title>
<path fill="none" stroke="midnightblue" d="M1100.7,-143.253C1119.26,-146.957 1139.08,-150.914 1158.24,-154.738"/>
<polygon fill="midnightblue" stroke="midnightblue" points="1101.32,-139.807 1090.83,-141.282 1099.95,-146.672 1101.32,-139.807"/>
</g>
<!-- Node109 -->
<g id="node20" class="node"><title>Node109</title>
<g id="a_node20"><a xlink:href="class_little_weeb_library_1_1_services_1_1_info_api_web_socket_service.html#a12f4d83332b28988ce0e2bc5ff3ed369" target="_top" xlink:title="LittleWeebLibrary.Services.\lInfoApiWebSocketService.GetAnime\lProfile">
<polygon fill="white" stroke="black" points="927,-50.7474 927,-91.7474 1102,-91.7474 1102,-50.7474 927,-50.7474"/>
<text text-anchor="start" x="935" y="-79.7474" font-family="Helvetica,sans-Serif" font-size="10.00">LittleWeebLibrary.Services.</text>
<text text-anchor="start" x="935" y="-68.7474" font-family="Helvetica,sans-Serif" font-size="10.00">InfoApiWebSocketService.GetAnime</text>
<text text-anchor="middle" x="1014.5" y="-57.7474" font-family="Helvetica,sans-Serif" font-size="10.00">Profile</text>
</a>
</g>
</g>
<!-- Node108&#45;&gt;Node109 -->
<g id="edge22" class="edge"><title>Node108&#45;&gt;Node109</title>
<path fill="none" stroke="midnightblue" d="M865.761,-74.2503C885.954,-73.8398 907.075,-73.4106 926.824,-73.0092"/>
<polygon fill="midnightblue" stroke="midnightblue" points="865.544,-70.7539 855.617,-74.4565 865.686,-77.7524 865.544,-70.7539"/>
</g>
<!-- Node109&#45;&gt;Node102 -->
<g id="edge23" class="edge"><title>Node109&#45;&gt;Node102</title>
<path fill="none" stroke="midnightblue" d="M1105.21,-95.0027C1110.94,-96.9846 1116.58,-99.069 1122,-101.247 1159.42,-116.275 1199.86,-138.552 1227.42,-154.736"/>
<polygon fill="midnightblue" stroke="midnightblue" points="1106.11,-91.6119 1095.51,-91.7654 1103.89,-98.2517 1106.11,-91.6119"/>
</g>
<!-- Node110&#45;&gt;Node102 -->
<g id="edge25" class="edge"><title>Node110&#45;&gt;Node102</title>
<path fill="none" stroke="midnightblue" d="M865.979,-12.8542C939.497,-6.36358 1040.84,-6.61915 1122,-41.2474 1178.42,-65.3198 1225.21,-123.45 1247.3,-154.646"/>
<polygon fill="midnightblue" stroke="midnightblue" points="865.423,-9.39095 855.795,-13.812 866.079,-16.3602 865.423,-9.39095"/>
</g>
<!-- Node112 -->
<g id="node23" class="node"><title>Node112</title>
<g id="a_node23"><a xlink:href="class_little_weeb_library_1_1_services_1_1_info_api_web_socket_service.html#aec42147d67551cb17c458453ef40f3bc" target="_top" xlink:title="LittleWeebLibrary.Services.\lInfoApiWebSocketService.GetCurrently\lAiring">
<polygon fill="white" stroke="black" points="921.5,-400.747 921.5,-441.747 1107.5,-441.747 1107.5,-400.747 921.5,-400.747"/>
<text text-anchor="start" x="929.5" y="-429.747" font-family="Helvetica,sans-Serif" font-size="10.00">LittleWeebLibrary.Services.</text>
<text text-anchor="start" x="929.5" y="-418.747" font-family="Helvetica,sans-Serif" font-size="10.00">InfoApiWebSocketService.GetCurrently</text>
<text text-anchor="middle" x="1014.5" y="-407.747" font-family="Helvetica,sans-Serif" font-size="10.00">Airing</text>
</a>
</g>
</g>
<!-- Node111&#45;&gt;Node112 -->
<g id="edge27" class="edge"><title>Node111&#45;&gt;Node112</title>
<path fill="none" stroke="midnightblue" d="M857.777,-421.247C878.528,-421.247 900.619,-421.247 921.445,-421.247"/>
<polygon fill="midnightblue" stroke="midnightblue" points="857.709,-417.748 847.709,-421.247 857.709,-424.748 857.709,-417.748"/>
</g>
<!-- Node112&#45;&gt;Node102 -->
<g id="edge28" class="edge"><title>Node112&#45;&gt;Node102</title>
<path fill="none" stroke="midnightblue" d="M1113.66,-395.828C1116.55,-394.089 1119.34,-392.231 1122,-390.247 1192.23,-337.951 1236.68,-238.824 1253.44,-195.91"/>
<polygon fill="midnightblue" stroke="midnightblue" points="1111.85,-392.83 1104.75,-400.696 1115.21,-398.973 1111.85,-392.83"/>
</g>
<!-- Node113&#45;&gt;Node93 -->
<g id="edge30" class="edge"><title>Node113&#45;&gt;Node93</title>
<path fill="none" stroke="midnightblue" d="M636.157,-479.147C650.151,-480.889 664.304,-482.65 677.857,-484.338"/>
<polygon fill="midnightblue" stroke="midnightblue" points="636.363,-475.645 626.007,-477.883 635.498,-482.592 636.363,-475.645"/>
</g>
<!-- Node115 -->
<g id="node26" class="node"><title>Node115</title>
<g id="a_node26"><a xlink:href="class_little_weeb_library_1_1_services_1_1_file_web_socket_service.html#ab1375e8e82a50dfa06d91bebe988d133" target="_top" xlink:title="LittleWeebLibrary.Services.\lFileWebSocketService.DeleteFile">
<polygon fill="white" stroke="black" points="686,-351.247 686,-381.247 847,-381.247 847,-351.247 686,-351.247"/>
<text text-anchor="start" x="694" y="-369.247" font-family="Helvetica,sans-Serif" font-size="10.00">LittleWeebLibrary.Services.</text>
<text text-anchor="middle" x="766.5" y="-358.247" font-family="Helvetica,sans-Serif" font-size="10.00">FileWebSocketService.DeleteFile</text>
</a>
</g>
</g>
<!-- Node114&#45;&gt;Node115 -->
<g id="edge32" class="edge"><title>Node114&#45;&gt;Node115</title>
<path fill="none" stroke="midnightblue" d="M620.08,-369.868C641.909,-369.324 664.879,-368.753 685.953,-368.228"/>
<polygon fill="midnightblue" stroke="midnightblue" points="619.716,-366.376 609.807,-370.124 619.891,-373.374 619.716,-366.376"/>
</g>
<!-- Node116 -->
<g id="node27" class="node"><title>Node116</title>
<g id="a_node27"><a xlink:href="class_little_weeb_library_1_1_controllers_1_1_file_web_socket_controller.html#a9ecdec41f15ac23a56c402ff2c554a08" target="_top" xlink:title="LittleWeebLibrary.Controllers.\lFileWebSocketController.OnWebSocketEvent">
<polygon fill="white" stroke="black" points="907,-351.247 907,-381.247 1122,-381.247 1122,-351.247 907,-351.247"/>
<text text-anchor="start" x="915" y="-369.247" font-family="Helvetica,sans-Serif" font-size="10.00">LittleWeebLibrary.Controllers.</text>
<text text-anchor="middle" x="1014.5" y="-358.247" font-family="Helvetica,sans-Serif" font-size="10.00">FileWebSocketController.OnWebSocketEvent</text>
</a>
</g>
</g>
<!-- Node115&#45;&gt;Node116 -->
<g id="edge33" class="edge"><title>Node115&#45;&gt;Node116</title>
<path fill="none" stroke="midnightblue" d="M857.463,-366.247C873.538,-366.247 890.427,-366.247 906.914,-366.247"/>
<polygon fill="midnightblue" stroke="midnightblue" points="857.029,-362.748 847.029,-366.247 857.029,-369.748 857.029,-362.748"/>
</g>
</g>
</svg>
        <g id="navigator" transform="translate(0 0)" fill="#404254">
                <rect fill="#f2f5e9" fill-opacity="0.5" stroke="#606060" stroke-width=".5" x="0" y="0" width="60" height="60"/>
                <use id="zoomplus" xlink:href="#zoomPlus" x="17" y="9" onmousedown="handleZoom(evt,'in')"/>
                <use id="zoomminus" xlink:href="#zoomMin" x="42" y="9" onmousedown="handleZoom(evt,'out')"/>
                <use id="reset" xlink:href="#resetDef" x="30" y="36" onmousedown="handleReset()"/>
                <g id="arrowUp" xlink:href="#dirArrow" transform="translate(30 24)" onmousedown="handlePan(0,-1)">
                  <use xlink:href="#rim" fill="#404040">
                        <set attributeName="fill" to="#808080" begin="arrowUp.mouseover" end="arrowUp.mouseout"/>
                  </use>
                  <path fill="none" stroke="white" stroke-width="1.5" d="M0,-3.0v7 M-2.5,-0.5L0,-3.0L2.5,-0.5"/>
                </g>
                <g id="arrowRight" xlink:href="#dirArrow" transform="rotate(90) translate(36 -43)" onmousedown="handlePan(1,0)">
                  <use xlink:href="#rim" fill="#404040">
                        <set attributeName="fill" to="#808080" begin="arrowRight.mouseover" end="arrowRight.mouseout"/>
                  </use>
                  <path fill="none" stroke="white" stroke-width="1.5" d="M0,-3.0v7 M-2.5,-0.5L0,-3.0L2.5,-0.5"/>
                </g>
                <g id="arrowDown" xlink:href="#dirArrow" transform="rotate(180) translate(-30 -48)" onmousedown="handlePan(0,1)">
                  <use xlink:href="#rim" fill="#404040">
                        <set attributeName="fill" to="#808080" begin="arrowDown.mouseover" end="arrowDown.mouseout"/>
                  </use>
                  <path fill="none" stroke="white" stroke-width="1.5" d="M0,-3.0v7 M-2.5,-0.5L0,-3.0L2.5,-0.5"/>
                </g>
                <g id="arrowLeft" xlink:href="#dirArrow" transform="rotate(270) translate(-36 17)" onmousedown="handlePan(-1,0)">
                  <use xlink:href="#rim" fill="#404040">
                        <set attributeName="fill" to="#808080" begin="arrowLeft.mouseover" end="arrowLeft.mouseout"/>
                  </use>
                  <path fill="none" stroke="white" stroke-width="1.5" d="M0,-3.0v7 M-2.5,-0.5L0,-3.0L2.5,-0.5"/>
                </g>
        </g>
        <svg viewBox="0 0 15 15" width="100%" height="30px" preserveAspectRatio="xMaxYMin meet">
         <g id="arrow_out" transform="scale(0.3 0.3)">
          <a xlink:href="class_little_weeb_library_1_1_static_classes_1_1_utility_methods_a7b5de7a3ecc749b655fc3ed2af55360b_icgraph_org.svg" target="_base">
           <rect id="button" ry="5" rx="5" y="6" x="6" height="38" width="38"
                fill="#f2f5e9" fill-opacity="0.5" stroke="#606060" stroke-width="1.0"/>
           <path id="arrow"
             d="M 11.500037,31.436501 C 11.940474,20.09759 22.043105,11.32322 32.158766,21.979434 L 37.068811,17.246167 C 37.068811,17.246167 37.088388,32 37.088388,32 L 22.160133,31.978069 C 22.160133,31.978069 26.997745,27.140456 26.997745,27.140456 C 18.528582,18.264221 13.291696,25.230495 11.500037,31.436501 z"
             style="fill:#404040;"/>
          </a>
         </g>
        </svg>
</svg>
