<?xml version="1.0" encoding="UTF-8" standalone="no"?>
<!DOCTYPE svg PUBLIC "-//W3C//DTD SVG 1.1//EN"
 "http://www.w3.org/Graphics/SVG/1.1/DTD/svg11.dtd">
<!-- Generated by graphviz version 2.38.0 (20140413.2041)
 -->
<!-- Title: LittleWeebLibrary.Services.InfoApiWebSocketService Pages: 1 -->
<!--zoomable 413 -->
<svg id="main" version="1.1" xmlns="http://www.w3.org/2000/svg" xmlns:xlink="http://www.w3.org/1999/xlink" xml:space="preserve" onload="init(evt)">
<style type="text/css"><![CDATA[
.edge:hover path { stroke: red; }
.edge:hover polygon { stroke: red; fill: red; }
]]></style>
<script type="text/javascript"><![CDATA[
var edges = document.getElementsByTagName('g');
if (edges && edges.length) {
  for (var i=0;i<edges.length;i++) {
    if (edges[i].id.substr(0,4)=='edge') {
      edges[i].setAttribute('class','edge');
    }
  }
}
]]></script>
        <defs>
                <circle id="rim" cx="0" cy="0" r="7"/>
                <circle id="rim2" cx="0" cy="0" r="3.5"/>
                <g id="zoomPlus">
                        <use xlink:href="#rim" fill="#404040">
                                <set attributeName="fill" to="#808080" begin="zoomplus.mouseover" end="zoomplus.mouseout"/>
                        </use>
                        <path d="M-4,0h8M0,-4v8" fill="none" stroke="white" stroke-width="1.5" pointer-events="none"/>
                </g>
                <g id="zoomMin">
                        <use xlink:href="#rim" fill="#404040">
                                <set attributeName="fill" to="#808080" begin="zoomminus.mouseover" end="zoomminus.mouseout"/>
                        </use>
                        <path d="M-4,0h8" fill="none" stroke="white" stroke-width="1.5" pointer-events="none"/>
                </g>
                <g id="dirArrow">
                        <path fill="none" stroke="white" stroke-width="1.5" d="M0,-3.0v7 M-2.5,-0.5L0,-3.0L2.5,-0.5"/>
                </g>
               <g id="resetDef">
                       <use xlink:href="#rim2" fill="#404040">
                               <set attributeName="fill" to="#808080" begin="reset.mouseover" end="reset.mouseout"/>
                       </use>
               </g>
        </defs>

<script type="text/javascript">
var viewWidth = 1224;
var viewHeight = 413;
var sectionId = 'dynsection-1';
</script>
<script xlink:href="svgpan.js"/>
<svg id="graph" class="graph">
<g id="viewport">
<title>LittleWeebLibrary.Services.InfoApiWebSocketService</title>
<polygon fill="white" stroke="none" points="-4,4 -4,-409 1220,-409 1220,4 -4,4"/>
<!-- Node2 -->
<g id="node1" class="node"><title>Node2</title>
<polygon fill="#bfbfbf" stroke="black" points="533,-0.5 533,-178.5 676,-178.5 676,-0.5 533,-0.5"/>
<text text-anchor="start" x="541" y="-166.5" font-family="Helvetica,sans-Serif" font-size="10.00">LittleWeebLibrary.Services.</text>
<text text-anchor="middle" x="604.5" y="-155.5" font-family="Helvetica,sans-Serif" font-size="10.00">InfoApiWebSocketService</text>
<polyline fill="none" stroke="black" points="533,-148.5 676,-148.5 "/>
<text text-anchor="start" x="541" y="-136.5" font-family="Helvetica,sans-Serif" font-size="10.00">&#45; WeebFileNameParser</text>
<polyline fill="none" stroke="black" points="533,-129.5 676,-129.5 "/>
<text text-anchor="start" x="541" y="-117.5" font-family="Helvetica,sans-Serif" font-size="10.00">+ InfoApiWebSocketService()</text>
<text text-anchor="start" x="541" y="-106.5" font-family="Helvetica,sans-Serif" font-size="10.00">+ AddRule()</text>
<text text-anchor="start" x="541" y="-95.5" font-family="Helvetica,sans-Serif" font-size="10.00">+ GetAllCategories()</text>
<text text-anchor="start" x="541" y="-84.5" font-family="Helvetica,sans-Serif" font-size="10.00">+ GetAllGenres()</text>
<text text-anchor="start" x="541" y="-73.5" font-family="Helvetica,sans-Serif" font-size="10.00">+ GetAnimeEpisodes()</text>
<text text-anchor="start" x="541" y="-62.5" font-family="Helvetica,sans-Serif" font-size="10.00">+ GetAnimeProfile()</text>
<text text-anchor="start" x="541" y="-51.5" font-family="Helvetica,sans-Serif" font-size="10.00">+ GetBotList()</text>
<text text-anchor="start" x="541" y="-40.5" font-family="Helvetica,sans-Serif" font-size="10.00">+ GetCurrentlyAiring()</text>
<text text-anchor="start" x="541" y="-29.5" font-family="Helvetica,sans-Serif" font-size="10.00">+ GetCurrentlyAiring()</text>
<text text-anchor="start" x="541" y="-18.5" font-family="Helvetica,sans-Serif" font-size="10.00">+ GetFilesForAnime()</text>
<text text-anchor="start" x="541" y="-7.5" font-family="Helvetica,sans-Serif" font-size="10.00">+ SearchKitsu()</text>
</g>
<!-- Node3 -->
<g id="node2" class="node"><title>Node3</title>
<g id="a_node2"><a xlink:href="interface_little_weeb_library_1_1_services_1_1_i_info_api_web_socket_service.html" target="_top" xlink:title="{IInfoApiWebSocketService\n||+ AddRule()\l+ GetAllCategories()\l+ GetAllGenres()\l+ GetAnimeEpisodes()\l+ GetAnimeProfile()\l+ GetBotList()\l+ GetCurrentlyAiring()\l+ GetCurrentlyAiring()\l+ GetFilesForAnime()\l+ SearchKitsu()\l}">
<polygon fill="white" stroke="black" points="0,-237.5 0,-393.5 131,-393.5 131,-237.5 0,-237.5"/>
<text text-anchor="middle" x="65.5" y="-381.5" font-family="Helvetica,sans-Serif" font-size="10.00">IInfoApiWebSocketService</text>
<polyline fill="none" stroke="black" points="0,-374.5 131,-374.5 "/>
<text text-anchor="middle" x="65.5" y="-362.5" font-family="Helvetica,sans-Serif" font-size="10.00"> </text>
<polyline fill="none" stroke="black" points="0,-355.5 131,-355.5 "/>
<text text-anchor="start" x="8" y="-343.5" font-family="Helvetica,sans-Serif" font-size="10.00">+ AddRule()</text>
<text text-anchor="start" x="8" y="-332.5" font-family="Helvetica,sans-Serif" font-size="10.00">+ GetAllCategories()</text>
<text text-anchor="start" x="8" y="-321.5" font-family="Helvetica,sans-Serif" font-size="10.00">+ GetAllGenres()</text>
<text text-anchor="start" x="8" y="-310.5" font-family="Helvetica,sans-Serif" font-size="10.00">+ GetAnimeEpisodes()</text>
<text text-anchor="start" x="8" y="-299.5" font-family="Helvetica,sans-Serif" font-size="10.00">+ GetAnimeProfile()</text>
<text text-anchor="start" x="8" y="-288.5" font-family="Helvetica,sans-Serif" font-size="10.00">+ GetBotList()</text>
<text text-anchor="start" x="8" y="-277.5" font-family="Helvetica,sans-Serif" font-size="10.00">+ GetCurrentlyAiring()</text>
<text text-anchor="start" x="8" y="-266.5" font-family="Helvetica,sans-Serif" font-size="10.00">+ GetCurrentlyAiring()</text>
<text text-anchor="start" x="8" y="-255.5" font-family="Helvetica,sans-Serif" font-size="10.00">+ GetFilesForAnime()</text>
<text text-anchor="start" x="8" y="-244.5" font-family="Helvetica,sans-Serif" font-size="10.00">+ SearchKitsu()</text>
</a>
</g>
</g>
<!-- Node3&#45;&gt;Node2 -->
<g id="edge1" class="edge"><title>Node3&#45;&gt;Node2</title>
<path fill="none" stroke="midnightblue" d="M132.31,-231.073C134.666,-229.289 137.064,-227.592 139.5,-226 263.374,-145.024 436.706,-111.345 532.942,-98.2036"/>
<polygon fill="none" stroke="midnightblue" points="130.016,-228.428 124.464,-237.452 134.431,-233.859 130.016,-228.428"/>
</g>
<!-- Node4 -->
<g id="node3" class="node"><title>Node4</title>
<g id="a_node3"><a xlink:href="interface_little_weeb_library_1_1_handlers_1_1_i_debug_handler.html" target="_top" xlink:title="{LittleWeebLibrary.Handlers.\lIDebugHandler\n||+ SetSettings()\l+ StopDebugger()\l+ TraceMessage()\l}">
<polygon fill="white" stroke="black" points="149,-270.5 149,-360.5 286,-360.5 286,-270.5 149,-270.5"/>
<text text-anchor="start" x="157" y="-348.5" font-family="Helvetica,sans-Serif" font-size="10.00">LittleWeebLibrary.Handlers.</text>
<text text-anchor="middle" x="217.5" y="-337.5" font-family="Helvetica,sans-Serif" font-size="10.00">IDebugHandler</text>
<polyline fill="none" stroke="black" points="149,-330.5 286,-330.5 "/>
<text text-anchor="middle" x="217.5" y="-318.5" font-family="Helvetica,sans-Serif" font-size="10.00"> </text>
<polyline fill="none" stroke="black" points="149,-311.5 286,-311.5 "/>
<text text-anchor="start" x="157" y="-299.5" font-family="Helvetica,sans-Serif" font-size="10.00">+ SetSettings()</text>
<text text-anchor="start" x="157" y="-288.5" font-family="Helvetica,sans-Serif" font-size="10.00">+ StopDebugger()</text>
<text text-anchor="start" x="157" y="-277.5" font-family="Helvetica,sans-Serif" font-size="10.00">+ TraceMessage()</text>
</a>
</g>
</g>
<!-- Node4&#45;&gt;Node2 -->
<g id="edge2" class="edge"><title>Node4&#45;&gt;Node2</title>
<path fill="none" stroke="#404040" d="M249.392,-270.302C262.132,-254.843 277.757,-238.296 294.5,-226 363.947,-175.001 455.593,-137.957 521.195,-115.621"/>
<polygon fill="none" stroke="#404040" points="521.342,-115.572 525.759,-109.872 532.719,-111.757 528.302,-117.457 521.342,-115.572"/>
<text text-anchor="middle" x="367" y="-200" font-family="Helvetica,sans-Serif" font-size="10.00"> &#45;DebugHandler</text>
</g>
<!-- Node5 -->
<g id="node4" class="node"><title>Node5</title>
<g id="a_node4"><a xlink:href="interface_little_weeb_library_1_1_handlers_1_1_i_nibl_handler.html" target="_top" xlink:title="{LittleWeebLibrary.Handlers.\lINiblHandler\n||+ GetBotList()\l+ GetLatestEpisode()\l+ GetLatestFiles()\l+ SearchNibl()\l+ SearchNibl()\l}">
<polygon fill="white" stroke="black" points="304,-259.5 304,-371.5 441,-371.5 441,-259.5 304,-259.5"/>
<text text-anchor="start" x="312" y="-359.5" font-family="Helvetica,sans-Serif" font-size="10.00">LittleWeebLibrary.Handlers.</text>
<text text-anchor="middle" x="372.5" y="-348.5" font-family="Helvetica,sans-Serif" font-size="10.00">INiblHandler</text>
<polyline fill="none" stroke="black" points="304,-341.5 441,-341.5 "/>
<text text-anchor="middle" x="372.5" y="-329.5" font-family="Helvetica,sans-Serif" font-size="10.00"> </text>
<polyline fill="none" stroke="black" points="304,-322.5 441,-322.5 "/>
<text text-anchor="start" x="312" y="-310.5" font-family="Helvetica,sans-Serif" font-size="10.00">+ GetBotList()</text>
<text text-anchor="start" x="312" y="-299.5" font-family="Helvetica,sans-Serif" font-size="10.00">+ GetLatestEpisode()</text>
<text text-anchor="start" x="312" y="-288.5" font-family="Helvetica,sans-Serif" font-size="10.00">+ GetLatestFiles()</text>
<text text-anchor="start" x="312" y="-277.5" font-family="Helvetica,sans-Serif" font-size="10.00">+ SearchNibl()</text>
<text text-anchor="start" x="312" y="-266.5" font-family="Helvetica,sans-Serif" font-size="10.00">+ SearchNibl()</text>
</a>
</g>
</g>
<!-- Node5&#45;&gt;Node2 -->
<g id="edge3" class="edge"><title>Node5&#45;&gt;Node2</title>
<path fill="none" stroke="#404040" d="M418.603,-259.152C428.522,-247.923 439.143,-236.381 449.5,-226 472.668,-202.778 499.145,-178.791 523.581,-157.573"/>
<polygon fill="none" stroke="#404040" points="523.752,-157.425 525.68,-150.477 532.836,-149.584 530.908,-156.532 523.752,-157.425"/>
<text text-anchor="middle" x="506.5" y="-200" font-family="Helvetica,sans-Serif" font-size="10.00"> &#45;NiblHandler</text>
</g>
<!-- Node6 -->
<g id="node5" class="node"><title>Node6</title>
<g id="a_node5"><a xlink:href="interface_little_weeb_library_1_1_handlers_1_1_i_kitsu_handler.html" target="_top" xlink:title="{LittleWeebLibrary.Handlers.\lIKitsuHandler\n||+ GetAllCategories()\l+ GetAllGenres()\l+ GetAnime()\l+ GetCategories()\l+ GetCurrentlyAiring()\l+ GetEpisode()\l+ GetEpisodes()\l+ GetFullAnime()\l+ GetGenres()\l+ GetRelations()\l+ SearchAnime()\l}">
<polygon fill="white" stroke="black" points="459,-226.5 459,-404.5 596,-404.5 596,-226.5 459,-226.5"/>
<text text-anchor="start" x="467" y="-392.5" font-family="Helvetica,sans-Serif" font-size="10.00">LittleWeebLibrary.Handlers.</text>
<text text-anchor="middle" x="527.5" y="-381.5" font-family="Helvetica,sans-Serif" font-size="10.00">IKitsuHandler</text>
<polyline fill="none" stroke="black" points="459,-374.5 596,-374.5 "/>
<text text-anchor="middle" x="527.5" y="-362.5" font-family="Helvetica,sans-Serif" font-size="10.00"> </text>
<polyline fill="none" stroke="black" points="459,-355.5 596,-355.5 "/>
<text text-anchor="start" x="467" y="-343.5" font-family="Helvetica,sans-Serif" font-size="10.00">+ GetAllCategories()</text>
<text text-anchor="start" x="467" y="-332.5" font-family="Helvetica,sans-Serif" font-size="10.00">+ GetAllGenres()</text>
<text text-anchor="start" x="467" y="-321.5" font-family="Helvetica,sans-Serif" font-size="10.00">+ GetAnime()</text>
<text text-anchor="start" x="467" y="-310.5" font-family="Helvetica,sans-Serif" font-size="10.00">+ GetCategories()</text>
<text text-anchor="start" x="467" y="-299.5" font-family="Helvetica,sans-Serif" font-size="10.00">+ GetCurrentlyAiring()</text>
<text text-anchor="start" x="467" y="-288.5" font-family="Helvetica,sans-Serif" font-size="10.00">+ GetEpisode()</text>
<text text-anchor="start" x="467" y="-277.5" font-family="Helvetica,sans-Serif" font-size="10.00">+ GetEpisodes()</text>
<text text-anchor="start" x="467" y="-266.5" font-family="Helvetica,sans-Serif" font-size="10.00">+ GetFullAnime()</text>
<text text-anchor="start" x="467" y="-255.5" font-family="Helvetica,sans-Serif" font-size="10.00">+ GetGenres()</text>
<text text-anchor="start" x="467" y="-244.5" font-family="Helvetica,sans-Serif" font-size="10.00">+ GetRelations()</text>
<text text-anchor="start" x="467" y="-233.5" font-family="Helvetica,sans-Serif" font-size="10.00">+ SearchAnime()</text>
</a>
</g>
</g>
<!-- Node6&#45;&gt;Node2 -->
<g id="edge4" class="edge"><title>Node6&#45;&gt;Node2</title>
<path fill="none" stroke="#404040" d="M557.822,-226.291C561.904,-214.415 566.115,-202.165 570.259,-190.11"/>
<polygon fill="none" stroke="#404040" points="570.305,-189.977 568.472,-183.003 574.206,-178.629 576.038,-185.603 570.305,-189.977"/>
<text text-anchor="middle" x="596.5" y="-200" font-family="Helvetica,sans-Serif" font-size="10.00"> &#45;KitsuHandler</text>
</g>
<!-- Node7 -->
<g id="node6" class="node"><title>Node7</title>
<g id="a_node6"><a xlink:href="interface_little_weeb_library_1_1_handlers_1_1_i_web_socket_handler.html" target="_top" xlink:title="{LittleWeebLibrary.Handlers.\lIWebSocketHandler\n||+ SendMessage()\l+ StartServer()\l+ StopServer()\l}">
<polygon fill="white" stroke="black" points="614,-270.5 614,-360.5 751,-360.5 751,-270.5 614,-270.5"/>
<text text-anchor="start" x="622" y="-348.5" font-family="Helvetica,sans-Serif" font-size="10.00">LittleWeebLibrary.Handlers.</text>
<text text-anchor="middle" x="682.5" y="-337.5" font-family="Helvetica,sans-Serif" font-size="10.00">IWebSocketHandler</text>
<polyline fill="none" stroke="black" points="614,-330.5 751,-330.5 "/>
<text text-anchor="middle" x="682.5" y="-318.5" font-family="Helvetica,sans-Serif" font-size="10.00"> </text>
<polyline fill="none" stroke="black" points="614,-311.5 751,-311.5 "/>
<text text-anchor="start" x="622" y="-299.5" font-family="Helvetica,sans-Serif" font-size="10.00">+ SendMessage()</text>
<text text-anchor="start" x="622" y="-288.5" font-family="Helvetica,sans-Serif" font-size="10.00">+ StartServer()</text>
<text text-anchor="start" x="622" y="-277.5" font-family="Helvetica,sans-Serif" font-size="10.00">+ StopServer()</text>
</a>
</g>
</g>
<!-- Node7&#45;&gt;Node2 -->
<g id="edge5" class="edge"><title>Node7&#45;&gt;Node2</title>
<path fill="none" stroke="#404040" d="M667.09,-270.245C659.09,-247.272 648.97,-218.209 639.212,-190.186"/>
<polygon fill="none" stroke="#404040" points="639.152,-190.014 633.402,-185.663 635.206,-178.682 640.957,-183.032 639.152,-190.014"/>
<text text-anchor="middle" x="689" y="-200" font-family="Helvetica,sans-Serif" font-size="10.00"> &#45;WebSocketHandler</text>
</g>
<!-- Node8 -->
<g id="node7" class="node"><title>Node8</title>
<g id="a_node7"><a xlink:href="interface_little_weeb_library_1_1_handlers_1_1_i_data_base_handler.html" target="_top" xlink:title="{LittleWeebLibrary.Handlers.\lIDataBaseHandler\n||+ GetCollection()\l+ GetJObject()\l+ GetJObject()\l+ RemoveJObject()\l+ RemoveJObject()\l+ StoreJObject()\l+ UpdateJObject()\l+ UpdateJObject()\l}">
<polygon fill="white" stroke="black" points="769,-243 769,-388 906,-388 906,-243 769,-243"/>
<text text-anchor="start" x="777" y="-376" font-family="Helvetica,sans-Serif" font-size="10.00">LittleWeebLibrary.Handlers.</text>
<text text-anchor="middle" x="837.5" y="-365" font-family="Helvetica,sans-Serif" font-size="10.00">IDataBaseHandler</text>
<polyline fill="none" stroke="black" points="769,-358 906,-358 "/>
<text text-anchor="middle" x="837.5" y="-346" font-family="Helvetica,sans-Serif" font-size="10.00"> </text>
<polyline fill="none" stroke="black" points="769,-339 906,-339 "/>
<text text-anchor="start" x="777" y="-327" font-family="Helvetica,sans-Serif" font-size="10.00">+ GetCollection()</text>
<text text-anchor="start" x="777" y="-316" font-family="Helvetica,sans-Serif" font-size="10.00">+ GetJObject()</text>
<text text-anchor="start" x="777" y="-305" font-family="Helvetica,sans-Serif" font-size="10.00">+ GetJObject()</text>
<text text-anchor="start" x="777" y="-294" font-family="Helvetica,sans-Serif" font-size="10.00">+ RemoveJObject()</text>
<text text-anchor="start" x="777" y="-283" font-family="Helvetica,sans-Serif" font-size="10.00">+ RemoveJObject()</text>
<text text-anchor="start" x="777" y="-272" font-family="Helvetica,sans-Serif" font-size="10.00">+ StoreJObject()</text>
<text text-anchor="start" x="777" y="-261" font-family="Helvetica,sans-Serif" font-size="10.00">+ UpdateJObject()</text>
<text text-anchor="start" x="777" y="-250" font-family="Helvetica,sans-Serif" font-size="10.00">+ UpdateJObject()</text>
</a>
</g>
</g>
<!-- Node8&#45;&gt;Node2 -->
<g id="edge6" class="edge"><title>Node8&#45;&gt;Node2</title>
<path fill="none" stroke="#404040" d="M781.058,-242.874C767.67,-227.224 753.039,-211.129 738.5,-197 722.317,-181.273 703.944,-165.506 686.104,-151.105"/>
<polygon fill="none" stroke="#404040" points="685.645,-150.739 678.461,-150.124 676.265,-143.255 683.45,-143.87 685.645,-150.739"/>
<text text-anchor="middle" x="787.5" y="-200" font-family="Helvetica,sans-Serif" font-size="10.00"> &#45;DataBaseHandler</text>
</g>
<!-- Node9 -->
<g id="node8" class="node"><title>Node9</title>
<g id="a_node8"><a xlink:href="interface_little_weeb_library_1_1_handlers_1_1_i_anime_profile_handler.html" target="_top" xlink:title="{LittleWeebLibrary.Handlers.\lIAnimeProfileHandler\n||+ GetAnimeEpisodes()\l+ GetAnimeProfile()\l+ GetCurrentlyAiring()\l}">
<polygon fill="white" stroke="black" points="924,-270.5 924,-360.5 1061,-360.5 1061,-270.5 924,-270.5"/>
<text text-anchor="start" x="932" y="-348.5" font-family="Helvetica,sans-Serif" font-size="10.00">LittleWeebLibrary.Handlers.</text>
<text text-anchor="middle" x="992.5" y="-337.5" font-family="Helvetica,sans-Serif" font-size="10.00">IAnimeProfileHandler</text>
<polyline fill="none" stroke="black" points="924,-330.5 1061,-330.5 "/>
<text text-anchor="middle" x="992.5" y="-318.5" font-family="Helvetica,sans-Serif" font-size="10.00"> </text>
<polyline fill="none" stroke="black" points="924,-311.5 1061,-311.5 "/>
<text text-anchor="start" x="932" y="-299.5" font-family="Helvetica,sans-Serif" font-size="10.00">+ GetAnimeEpisodes()</text>
<text text-anchor="start" x="932" y="-288.5" font-family="Helvetica,sans-Serif" font-size="10.00">+ GetAnimeProfile()</text>
<text text-anchor="start" x="932" y="-277.5" font-family="Helvetica,sans-Serif" font-size="10.00">+ GetCurrentlyAiring()</text>
</a>
</g>
</g>
<!-- Node9&#45;&gt;Node2 -->
<g id="edge7" class="edge"><title>Node9&#45;&gt;Node2</title>
<path fill="none" stroke="#404040" d="M960.616,-270.291C947.877,-254.831 932.251,-238.286 915.5,-226 845.723,-174.821 753.596,-137.755 687.76,-115.46"/>
<polygon fill="none" stroke="#404040" points="687.58,-115.4 680.622,-117.297 676.196,-111.604 683.153,-109.708 687.58,-115.4"/>
<text text-anchor="middle" x="931.5" y="-200" font-family="Helvetica,sans-Serif" font-size="10.00"> &#45;AnimeProfileHandler</text>
</g>
<!-- Node10 -->
<g id="node9" class="node"><title>Node10</title>
<g id="a_node9"><a xlink:href="interface_little_weeb_library_1_1_handlers_1_1_i_anime_rule_handler.html" target="_top" xlink:title="{LittleWeebLibrary.Handlers.\lIAnimeRuleHandler\n||+ AddRules()\l+ FilterAnimeRules()\l}">
<polygon fill="white" stroke="black" points="1079,-276 1079,-355 1216,-355 1216,-276 1079,-276"/>
<text text-anchor="start" x="1087" y="-343" font-family="Helvetica,sans-Serif" font-size="10.00">LittleWeebLibrary.Handlers.</text>
<text text-anchor="middle" x="1147.5" y="-332" font-family="Helvetica,sans-Serif" font-size="10.00">IAnimeRuleHandler</text>
<polyline fill="none" stroke="black" points="1079,-325 1216,-325 "/>
<text text-anchor="middle" x="1147.5" y="-313" font-family="Helvetica,sans-Serif" font-size="10.00"> </text>
<polyline fill="none" stroke="black" points="1079,-306 1216,-306 "/>
<text text-anchor="start" x="1087" y="-294" font-family="Helvetica,sans-Serif" font-size="10.00">+ AddRules()</text>
<text text-anchor="start" x="1087" y="-283" font-family="Helvetica,sans-Serif" font-size="10.00">+ FilterAnimeRules()</text>
</a>
</g>
</g>
<!-- Node10&#45;&gt;Node2 -->
<g id="edge8" class="edge"><title>Node10&#45;&gt;Node2</title>
<path fill="none" stroke="#404040" d="M1121.26,-275.778C1107.83,-258.473 1090.18,-239.076 1070.5,-226 951.944,-147.211 786.903,-113.4 688.373,-99.5164"/>
<polygon fill="none" stroke="#404040" points="688.289,-99.5051 681.803,-102.656 676.399,-97.8814 682.885,-94.73 688.289,-99.5051"/>
<text text-anchor="middle" x="1080" y="-200" font-family="Helvetica,sans-Serif" font-size="10.00"> &#45;AnimeRuleHandler</text>
</g>
</g>
</svg>
        <g id="navigator" transform="translate(0 0)" fill="#404254">
                <rect fill="#f2f5e9" fill-opacity="0.5" stroke="#606060" stroke-width=".5" x="0" y="0" width="60" height="60"/>
                <use id="zoomplus" xlink:href="#zoomPlus" x="17" y="9" onmousedown="handleZoom(evt,'in')"/>
                <use id="zoomminus" xlink:href="#zoomMin" x="42" y="9" onmousedown="handleZoom(evt,'out')"/>
                <use id="reset" xlink:href="#resetDef" x="30" y="36" onmousedown="handleReset()"/>
                <g id="arrowUp" xlink:href="#dirArrow" transform="translate(30 24)" onmousedown="handlePan(0,-1)">
                  <use xlink:href="#rim" fill="#404040">
                        <set attributeName="fill" to="#808080" begin="arrowUp.mouseover" end="arrowUp.mouseout"/>
                  </use>
                  <path fill="none" stroke="white" stroke-width="1.5" d="M0,-3.0v7 M-2.5,-0.5L0,-3.0L2.5,-0.5"/>
                </g>
                <g id="arrowRight" xlink:href="#dirArrow" transform="rotate(90) translate(36 -43)" onmousedown="handlePan(1,0)">
                  <use xlink:href="#rim" fill="#404040">
                        <set attributeName="fill" to="#808080" begin="arrowRight.mouseover" end="arrowRight.mouseout"/>
                  </use>
                  <path fill="none" stroke="white" stroke-width="1.5" d="M0,-3.0v7 M-2.5,-0.5L0,-3.0L2.5,-0.5"/>
                </g>
                <g id="arrowDown" xlink:href="#dirArrow" transform="rotate(180) translate(-30 -48)" onmousedown="handlePan(0,1)">
                  <use xlink:href="#rim" fill="#404040">
                        <set attributeName="fill" to="#808080" begin="arrowDown.mouseover" end="arrowDown.mouseout"/>
                  </use>
                  <path fill="none" stroke="white" stroke-width="1.5" d="M0,-3.0v7 M-2.5,-0.5L0,-3.0L2.5,-0.5"/>
                </g>
                <g id="arrowLeft" xlink:href="#dirArrow" transform="rotate(270) translate(-36 17)" onmousedown="handlePan(-1,0)">
                  <use xlink:href="#rim" fill="#404040">
                        <set attributeName="fill" to="#808080" begin="arrowLeft.mouseover" end="arrowLeft.mouseout"/>
                  </use>
                  <path fill="none" stroke="white" stroke-width="1.5" d="M0,-3.0v7 M-2.5,-0.5L0,-3.0L2.5,-0.5"/>
                </g>
        </g>
        <svg viewBox="0 0 15 15" width="100%" height="30px" preserveAspectRatio="xMaxYMin meet">
         <g id="arrow_out" transform="scale(0.3 0.3)">
          <a xlink:href="class_little_weeb_library_1_1_services_1_1_info_api_web_socket_service__coll__graph_org.svg" target="_base">
           <rect id="button" ry="5" rx="5" y="6" x="6" height="38" width="38"
                fill="#f2f5e9" fill-opacity="0.5" stroke="#606060" stroke-width="1.0"/>
           <path id="arrow"
             d="M 11.500037,31.436501 C 11.940474,20.09759 22.043105,11.32322 32.158766,21.979434 L 37.068811,17.246167 C 37.068811,17.246167 37.088388,32 37.088388,32 L 22.160133,31.978069 C 22.160133,31.978069 26.997745,27.140456 26.997745,27.140456 C 18.528582,18.264221 13.291696,25.230495 11.500037,31.436501 z"
             style="fill:#404040;"/>
          </a>
         </g>
        </svg>
</svg>
