<?xml version="1.0" encoding="UTF-8" standalone="no"?>
<!DOCTYPE svg PUBLIC "-//W3C//DTD SVG 1.1//EN"
 "http://www.w3.org/Graphics/SVG/1.1/DTD/svg11.dtd">
<!-- Generated by graphviz version 2.38.0 (20140413.2041)
 -->
<!-- Title: LittleWeebLibrary.Services.DirectoryWebSocketService Pages: 1 -->
<svg width="296pt" height="336pt"
 viewBox="0.00 0.00 295.50 336.00" xmlns="http://www.w3.org/2000/svg" xmlns:xlink="http://www.w3.org/1999/xlink">
<g id="graph0" class="graph" transform="scale(1 1) rotate(0) translate(4 332)">
<title>LittleWeebLibrary.Services.DirectoryWebSocketService</title>
<polygon fill="white" stroke="none" points="-4,4 -4,-332 291.5,-332 291.5,4 -4,4"/>
<!-- Node0 -->
<g id="node1" class="node"><title>Node0</title>
<polygon fill="#bfbfbf" stroke="black" points="69.5,-0.5 69.5,-189.5 222.5,-189.5 222.5,-0.5 69.5,-0.5"/>
<text text-anchor="start" x="77.5" y="-177.5" font-family="Helvetica,sans-Serif" font-size="10.00">LittleWeebLibrary.Services.</text>
<text text-anchor="middle" x="146" y="-166.5" font-family="Helvetica,sans-Serif" font-size="10.00">DirectoryWebSocketService</text>
<polyline fill="none" stroke="black" points="69.5,-159.5 222.5,-159.5 "/>
<text text-anchor="start" x="77.5" y="-147.5" font-family="Helvetica,sans-Serif" font-size="10.00">&#45; DebugHandler</text>
<text text-anchor="start" x="77.5" y="-136.5" font-family="Helvetica,sans-Serif" font-size="10.00">&#45; DirectoryHandler</text>
<text text-anchor="start" x="77.5" y="-125.5" font-family="Helvetica,sans-Serif" font-size="10.00">&#45; IrcSettings</text>
<text text-anchor="start" x="77.5" y="-114.5" font-family="Helvetica,sans-Serif" font-size="10.00">&#45; LittleWeebSettings</text>
<text text-anchor="start" x="77.5" y="-103.5" font-family="Helvetica,sans-Serif" font-size="10.00">&#45; WebSocketHandler</text>
<polyline fill="none" stroke="black" points="69.5,-96.5 222.5,-96.5 "/>
<text text-anchor="start" x="77.5" y="-84.5" font-family="Helvetica,sans-Serif" font-size="10.00">+ DirectoryWebSocketService()</text>
<text text-anchor="start" x="77.5" y="-73.5" font-family="Helvetica,sans-Serif" font-size="10.00">+ CreateDirectory()</text>
<text text-anchor="start" x="77.5" y="-62.5" font-family="Helvetica,sans-Serif" font-size="10.00">+ DeleteDirectory()</text>
<text text-anchor="start" x="77.5" y="-51.5" font-family="Helvetica,sans-Serif" font-size="10.00">+ GetDirectories()</text>
<text text-anchor="start" x="77.5" y="-40.5" font-family="Helvetica,sans-Serif" font-size="10.00">+ GetDrives()</text>
<text text-anchor="start" x="77.5" y="-29.5" font-family="Helvetica,sans-Serif" font-size="10.00">+ GetFreeSpace()</text>
<text text-anchor="start" x="77.5" y="-18.5" font-family="Helvetica,sans-Serif" font-size="10.00">+ SetIrcSettings()</text>
<text text-anchor="start" x="77.5" y="-7.5" font-family="Helvetica,sans-Serif" font-size="10.00">+ SetLittleWeebSettings()</text>
</g>
<!-- Node1 -->
<g id="node2" class="node"><title>Node1</title>
<g id="a_node2"><a xlink:href="interface_little_weeb_library_1_1_services_1_1_i_directory_web_socket_service.html" target="_top" xlink:title="{IDirectoryWebSocketService\n||+ CreateDirectory()\l+ DeleteDirectory()\l+ GetDirectories()\l+ GetDrives()\l+ GetFreeSpace()\l}">
<polygon fill="white" stroke="black" points="0,-226.5 0,-327.5 140,-327.5 140,-226.5 0,-226.5"/>
<text text-anchor="middle" x="70" y="-315.5" font-family="Helvetica,sans-Serif" font-size="10.00">IDirectoryWebSocketService</text>
<polyline fill="none" stroke="black" points="0,-308.5 140,-308.5 "/>
<text text-anchor="middle" x="70" y="-296.5" font-family="Helvetica,sans-Serif" font-size="10.00"> </text>
<polyline fill="none" stroke="black" points="0,-289.5 140,-289.5 "/>
<text text-anchor="start" x="8" y="-277.5" font-family="Helvetica,sans-Serif" font-size="10.00">+ CreateDirectory()</text>
<text text-anchor="start" x="8" y="-266.5" font-family="Helvetica,sans-Serif" font-size="10.00">+ DeleteDirectory()</text>
<text text-anchor="start" x="8" y="-255.5" font-family="Helvetica,sans-Serif" font-size="10.00">+ GetDirectories()</text>
<text text-anchor="start" x="8" y="-244.5" font-family="Helvetica,sans-Serif" font-size="10.00">+ GetDrives()</text>
<text text-anchor="start" x="8" y="-233.5" font-family="Helvetica,sans-Serif" font-size="10.00">+ GetFreeSpace()</text>
</a>
</g>
</g>
<!-- Node1&#45;&gt;Node0 -->
<g id="edge1" class="edge"><title>Node1&#45;&gt;Node0</title>
<path fill="none" stroke="midnightblue" d="M94.91,-217.003C98.6182,-208.22 102.516,-198.989 106.436,-189.705"/>
<polygon fill="none" stroke="midnightblue" points="91.6339,-215.764 90.9685,-226.338 98.0827,-218.487 91.6339,-215.764"/>
</g>
<!-- Node2 -->
<g id="node3" class="node"><title>Node2</title>
<g id="a_node3"><a xlink:href="interface_little_weeb_library_1_1_global_interfaces_1_1_i_settings_interface.html" target="_top" xlink:title="{ISettingsInterface\n||+ SetIrcSettings()\l+ SetLittleWeebSettings()\l}">
<polygon fill="white" stroke="black" points="158.5,-243 158.5,-311 287.5,-311 287.5,-243 158.5,-243"/>
<text text-anchor="middle" x="223" y="-299" font-family="Helvetica,sans-Serif" font-size="10.00">ISettingsInterface</text>
<polyline fill="none" stroke="black" points="158.5,-292 287.5,-292 "/>
<text text-anchor="middle" x="223" y="-280" font-family="Helvetica,sans-Serif" font-size="10.00"> </text>
<polyline fill="none" stroke="black" points="158.5,-273 287.5,-273 "/>
<text text-anchor="start" x="166.5" y="-261" font-family="Helvetica,sans-Serif" font-size="10.00">+ SetIrcSettings()</text>
<text text-anchor="start" x="166.5" y="-250" font-family="Helvetica,sans-Serif" font-size="10.00">+ SetLittleWeebSettings()</text>
</a>
</g>
</g>
<!-- Node2&#45;&gt;Node0 -->
<g id="edge2" class="edge"><title>Node2&#45;&gt;Node0</title>
<path fill="none" stroke="midnightblue" d="M204.891,-233.668C199.199,-220.362 192.672,-205.103 186.082,-189.699"/>
<polygon fill="none" stroke="midnightblue" points="201.726,-235.168 208.877,-242.985 208.162,-232.415 201.726,-235.168"/>
</g>
</g>
</svg>
