<?xml version="1.0" encoding="UTF-8" standalone="no"?>
<!DOCTYPE svg PUBLIC "-//W3C//DTD SVG 1.1//EN"
 "http://www.w3.org/Graphics/SVG/1.1/DTD/svg11.dtd">
<!-- Generated by graphviz version 2.38.0 (20140413.2041)
 -->
<!-- Title: LittleWeebLibrary.Settings.IrcSettings.ToString Pages: 1 -->
<svg width="830pt" height="439pt"
 viewBox="0.00 0.00 830.00 438.75" xmlns="http://www.w3.org/2000/svg" xmlns:xlink="http://www.w3.org/1999/xlink">
<g id="graph0" class="graph" transform="scale(1 1) rotate(0) translate(4 434.752)">
<title>LittleWeebLibrary.Settings.IrcSettings.ToString</title>
<polygon fill="white" stroke="none" points="-4,4 -4,-434.752 826,-434.752 826,4 -4,4"/>
<!-- Node1 -->
<g id="node1" class="node"><title>Node1</title>
<polygon fill="#bfbfbf" stroke="black" points="0,-216 0,-246 134,-246 134,-216 0,-216"/>
<text text-anchor="start" x="8" y="-234" font-family="Helvetica,sans-Serif" font-size="10.00">LittleWeebLibrary.Settings.</text>
<text text-anchor="middle" x="67" y="-223" font-family="Helvetica,sans-Serif" font-size="10.00">IrcSettings.ToString</text>
</g>
<!-- Node2 -->
<g id="node2" class="node"><title>Node2</title>
<g id="a_node2"><a xlink:href="class_little_weeb_library_1_1_services_1_1_irc_web_socket_service.html#ad5592055f57beed1a26d76ee1a518af5" target="_top" xlink:title="LittleWeebLibrary.Services.\lIrcWebSocketService.Connect">
<polygon fill="white" stroke="black" points="403.5,-113 403.5,-143 552.5,-143 552.5,-113 403.5,-113"/>
<text text-anchor="start" x="411.5" y="-131" font-family="Helvetica,sans-Serif" font-size="10.00">LittleWeebLibrary.Services.</text>
<text text-anchor="middle" x="478" y="-120" font-family="Helvetica,sans-Serif" font-size="10.00">IrcWebSocketService.Connect</text>
</a>
</g>
</g>
<!-- Node1&#45;&gt;Node2 -->
<g id="edge1" class="edge"><title>Node1&#45;&gt;Node2</title>
<path fill="none" stroke="midnightblue" d="M74.4789,-256.005C86.1281,-295.16 114.717,-369.699 170,-401 237.295,-439.102 278.427,-441.995 344,-401 439.443,-341.331 468.195,-191.308 475.112,-143.141"/>
<polygon fill="midnightblue" stroke="midnightblue" points="77.7904,-254.853 71.6945,-246.188 71.0561,-256.763 77.7904,-254.853"/>
</g>
<!-- Node4 -->
<g id="node4" class="node"><title>Node4</title>
<g id="a_node4"><a xlink:href="class_little_weeb_library_1_1_services_1_1_settings_web_socket_service.html#a6eba1d3b176e627d3dae57070e1c3beb" target="_top" xlink:title="LittleWeebLibrary.Services.\lSettingsWebSocketService.SetAll\lIrcSettings">
<polygon fill="white" stroke="black" points="175,-350.5 175,-391.5 339,-391.5 339,-350.5 175,-350.5"/>
<text text-anchor="start" x="183" y="-379.5" font-family="Helvetica,sans-Serif" font-size="10.00">LittleWeebLibrary.Services.</text>
<text text-anchor="start" x="183" y="-368.5" font-family="Helvetica,sans-Serif" font-size="10.00">SettingsWebSocketService.SetAll</text>
<text text-anchor="middle" x="257" y="-357.5" font-family="Helvetica,sans-Serif" font-size="10.00">IrcSettings</text>
</a>
</g>
</g>
<!-- Node1&#45;&gt;Node4 -->
<g id="edge3" class="edge"><title>Node1&#45;&gt;Node4</title>
<path fill="none" stroke="midnightblue" d="M84.3041,-254.484C102.567,-279.189 134.324,-317.658 170,-341 175.293,-344.463 181.031,-347.576 186.947,-350.365"/>
<polygon fill="midnightblue" stroke="midnightblue" points="87.1244,-252.411 78.4229,-246.367 81.4559,-256.518 87.1244,-252.411"/>
</g>
<!-- Node5 -->
<g id="node5" class="node"><title>Node5</title>
<g id="a_node5"><a xlink:href="class_little_weeb_library_1_1_handlers_1_1_irc_client_handler.html#a510c909225e51c66b65f7114ebd356d3" target="_top" xlink:title="LittleWeebLibrary.Handlers.\lIrcClientHandler.SetIrcSettings">
<polygon fill="white" stroke="black" points="182.5,-301 182.5,-331 331.5,-331 331.5,-301 182.5,-301"/>
<text text-anchor="start" x="190.5" y="-319" font-family="Helvetica,sans-Serif" font-size="10.00">LittleWeebLibrary.Handlers.</text>
<text text-anchor="middle" x="257" y="-308" font-family="Helvetica,sans-Serif" font-size="10.00">IrcClientHandler.SetIrcSettings</text>
</a>
</g>
</g>
<!-- Node1&#45;&gt;Node5 -->
<g id="edge4" class="edge"><title>Node1&#45;&gt;Node5</title>
<path fill="none" stroke="midnightblue" d="M98.3947,-251.591C118.141,-264.274 144.808,-280.131 170,-291 178.566,-294.696 187.841,-298.032 197.022,-300.975"/>
<polygon fill="midnightblue" stroke="midnightblue" points="100.128,-248.543 89.8391,-246.016 96.3067,-254.408 100.128,-248.543"/>
</g>
<!-- Node6 -->
<g id="node6" class="node"><title>Node6</title>
<g id="a_node6"><a xlink:href="class_little_weeb_library_1_1_services_1_1_directory_web_socket_service.html#a223c62acb36e1ac602552fa1ecf67057" target="_top" xlink:title="LittleWeebLibrary.Services.\lDirectoryWebSocketService.SetIrc\lSettings">
<polygon fill="white" stroke="black" points="173.5,-240.5 173.5,-281.5 340.5,-281.5 340.5,-240.5 173.5,-240.5"/>
<text text-anchor="start" x="181.5" y="-269.5" font-family="Helvetica,sans-Serif" font-size="10.00">LittleWeebLibrary.Services.</text>
<text text-anchor="start" x="181.5" y="-258.5" font-family="Helvetica,sans-Serif" font-size="10.00">DirectoryWebSocketService.SetIrc</text>
<text text-anchor="middle" x="257" y="-247.5" font-family="Helvetica,sans-Serif" font-size="10.00">Settings</text>
</a>
</g>
</g>
<!-- Node1&#45;&gt;Node6 -->
<g id="edge5" class="edge"><title>Node1&#45;&gt;Node6</title>
<path fill="none" stroke="midnightblue" d="M143.969,-243.123C153.627,-244.664 163.548,-246.247 173.305,-247.804"/>
<polygon fill="midnightblue" stroke="midnightblue" points="144.444,-239.654 134.017,-241.535 143.341,-246.567 144.444,-239.654"/>
</g>
<!-- Node7 -->
<g id="node7" class="node"><title>Node7</title>
<g id="a_node7"><a xlink:href="class_little_weeb_library_1_1_services_1_1_download_web_socket_service.html#ac692e2804ac253cc2ceac79d88a2e191" target="_top" xlink:title="LittleWeebLibrary.Services.\lDownloadWebSocketService.SetIrc\lSettings">
<polygon fill="white" stroke="black" points="172,-180.5 172,-221.5 342,-221.5 342,-180.5 172,-180.5"/>
<text text-anchor="start" x="180" y="-209.5" font-family="Helvetica,sans-Serif" font-size="10.00">LittleWeebLibrary.Services.</text>
<text text-anchor="start" x="180" y="-198.5" font-family="Helvetica,sans-Serif" font-size="10.00">DownloadWebSocketService.SetIrc</text>
<text text-anchor="middle" x="257" y="-187.5" font-family="Helvetica,sans-Serif" font-size="10.00">Settings</text>
</a>
</g>
</g>
<!-- Node1&#45;&gt;Node7 -->
<g id="edge6" class="edge"><title>Node1&#45;&gt;Node7</title>
<path fill="none" stroke="midnightblue" d="M143.928,-218.884C153.165,-217.41 162.644,-215.897 171.99,-214.406"/>
<polygon fill="midnightblue" stroke="midnightblue" points="143.341,-215.433 134.017,-220.465 144.444,-222.346 143.341,-215.433"/>
</g>
<!-- Node8 -->
<g id="node8" class="node"><title>Node8</title>
<g id="a_node8"><a xlink:href="class_little_weeb_library_1_1_services_1_1_irc_web_socket_service.html#a6476ee44ddf292f916b20085c03af5eb" target="_top" xlink:title="LittleWeebLibrary.Services.\lIrcWebSocketService.SetIrcSettings">
<polygon fill="white" stroke="black" points="170,-131 170,-161 344,-161 344,-131 170,-131"/>
<text text-anchor="start" x="178" y="-149" font-family="Helvetica,sans-Serif" font-size="10.00">LittleWeebLibrary.Services.</text>
<text text-anchor="middle" x="257" y="-138" font-family="Helvetica,sans-Serif" font-size="10.00">IrcWebSocketService.SetIrcSettings</text>
</a>
</g>
</g>
<!-- Node1&#45;&gt;Node8 -->
<g id="edge7" class="edge"><title>Node1&#45;&gt;Node8</title>
<path fill="none" stroke="midnightblue" d="M98.3947,-210.409C118.141,-197.726 144.808,-181.869 170,-171 178.566,-167.304 187.841,-163.968 197.022,-161.025"/>
<polygon fill="midnightblue" stroke="midnightblue" points="96.3067,-207.592 89.8391,-215.984 100.128,-213.457 96.3067,-207.592"/>
</g>
<!-- Node9 -->
<g id="node9" class="node"><title>Node9</title>
<g id="a_node9"><a xlink:href="class_little_weeb_library_1_1_handlers_1_1_download_handler.html#a6edcb9be7543c9fb587df06c994f50fb" target="_top" xlink:title="LittleWeebLibrary.Handlers.\lDownloadHandler.SetIrcSettings">
<polygon fill="white" stroke="black" points="179,-82 179,-112 335,-112 335,-82 179,-82"/>
<text text-anchor="start" x="187" y="-100" font-family="Helvetica,sans-Serif" font-size="10.00">LittleWeebLibrary.Handlers.</text>
<text text-anchor="middle" x="257" y="-89" font-family="Helvetica,sans-Serif" font-size="10.00">DownloadHandler.SetIrcSettings</text>
</a>
</g>
</g>
<!-- Node1&#45;&gt;Node9 -->
<g id="edge8" class="edge"><title>Node1&#45;&gt;Node9</title>
<path fill="none" stroke="midnightblue" d="M83.7279,-207.48C101.7,-182.41 133.402,-143.319 170,-121 175.558,-117.61 181.608,-114.687 187.837,-112.168"/>
<polygon fill="midnightblue" stroke="midnightblue" points="80.8314,-205.514 77.9578,-215.712 86.5636,-209.532 80.8314,-205.514"/>
</g>
<!-- Node10 -->
<g id="node10" class="node"><title>Node10</title>
<g id="a_node10"><a xlink:href="class_little_weeb_library_1_1_handlers_1_1_settings_handler.html#ad42462e9e851301c5f5b91663dc3fe24" target="_top" xlink:title="LittleWeebLibrary.Handlers.\lSettingsHandler.WriteIrcSettings">
<polygon fill="white" stroke="black" points="178,-33 178,-63 336,-63 336,-33 178,-33"/>
<text text-anchor="start" x="186" y="-51" font-family="Helvetica,sans-Serif" font-size="10.00">LittleWeebLibrary.Handlers.</text>
<text text-anchor="middle" x="257" y="-40" font-family="Helvetica,sans-Serif" font-size="10.00">SettingsHandler.WriteIrcSettings</text>
</a>
</g>
</g>
<!-- Node1&#45;&gt;Node10 -->
<g id="edge9" class="edge"><title>Node1&#45;&gt;Node10</title>
<path fill="none" stroke="midnightblue" d="M77.2449,-206.144C91.6232,-170.935 122.704,-106.941 170,-72 174.613,-68.592 179.689,-65.6678 184.998,-63.1587"/>
<polygon fill="midnightblue" stroke="midnightblue" points="73.8991,-205.088 73.4757,-215.674 80.4084,-207.662 73.8991,-205.088"/>
</g>
<!-- Node3 -->
<g id="node3" class="node"><title>Node3</title>
<g id="a_node3"><a xlink:href="class_little_weeb_library_1_1_controllers_1_1_irc_web_socket_controller.html#a5ea966dddf1e0a082dd5ec28f6ace3ab" target="_top" xlink:title="LittleWeebLibrary.Controllers.\lIrcWebSocketController.OnWebSocketEvent">
<polygon fill="white" stroke="black" points="612,-113 612,-143 822,-143 822,-113 612,-113"/>
<text text-anchor="start" x="620" y="-131" font-family="Helvetica,sans-Serif" font-size="10.00">LittleWeebLibrary.Controllers.</text>
<text text-anchor="middle" x="717" y="-120" font-family="Helvetica,sans-Serif" font-size="10.00">IrcWebSocketController.OnWebSocketEvent</text>
</a>
</g>
</g>
<!-- Node2&#45;&gt;Node3 -->
<g id="edge2" class="edge"><title>Node2&#45;&gt;Node3</title>
<path fill="none" stroke="midnightblue" d="M562.954,-128C578.793,-128 595.534,-128 611.903,-128"/>
<polygon fill="midnightblue" stroke="midnightblue" points="562.689,-124.5 552.689,-128 562.689,-131.5 562.689,-124.5"/>
</g>
<!-- Node10&#45;&gt;Node2 -->
<g id="edge10" class="edge"><title>Node10&#45;&gt;Node2</title>
<path fill="none" stroke="midnightblue" d="M332.359,-66.7358C336.356,-68.3647 340.262,-70.1173 344,-72 362.103,-81.1183 361.938,-90.8014 380,-100 389.996,-105.091 401.057,-109.386 412.025,-112.966"/>
<polygon fill="midnightblue" stroke="midnightblue" points="333.494,-63.4233 322.903,-63.1563 331.016,-69.97 333.494,-63.4233"/>
</g>
<!-- Node11 -->
<g id="node11" class="node"><title>Node11</title>
<g id="a_node11"><a xlink:href="class_little_weeb_library_1_1_services_1_1_settings_web_socket_service.html#aef49a5d18d17b206d2807bba6c28f793" target="_top" xlink:title="LittleWeebLibrary.Services.\lSettingsWebSocketService.Setfullfilepath">
<polygon fill="white" stroke="black" points="380,-61 380,-91 576,-91 576,-61 380,-61"/>
<text text-anchor="start" x="388" y="-79" font-family="Helvetica,sans-Serif" font-size="10.00">LittleWeebLibrary.Services.</text>
<text text-anchor="middle" x="478" y="-68" font-family="Helvetica,sans-Serif" font-size="10.00">SettingsWebSocketService.Setfullfilepath</text>
</a>
</g>
</g>
<!-- Node10&#45;&gt;Node11 -->
<g id="edge11" class="edge"><title>Node10&#45;&gt;Node11</title>
<path fill="none" stroke="midnightblue" d="M346.181,-59.2743C357.225,-60.6863 368.57,-62.1369 379.743,-63.5654"/>
<polygon fill="midnightblue" stroke="midnightblue" points="346.5,-55.7866 336.137,-57.9901 345.612,-62.7301 346.5,-55.7866"/>
</g>
<!-- Node13 -->
<g id="node13" class="node"><title>Node13</title>
<g id="a_node13"><a xlink:href="class_little_weeb_library_1_1_services_1_1_settings_web_socket_service.html#a898cb4543b5abd273844405770687442" target="_top" xlink:title="LittleWeebLibrary.Services.\lSettingsWebSocketService.SetIrc\lSettings">
<polygon fill="white" stroke="black" points="396,-0.5 396,-41.5 560,-41.5 560,-0.5 396,-0.5"/>
<text text-anchor="start" x="404" y="-29.5" font-family="Helvetica,sans-Serif" font-size="10.00">LittleWeebLibrary.Services.</text>
<text text-anchor="start" x="404" y="-18.5" font-family="Helvetica,sans-Serif" font-size="10.00">SettingsWebSocketService.SetIrc</text>
<text text-anchor="middle" x="478" y="-7.5" font-family="Helvetica,sans-Serif" font-size="10.00">Settings</text>
</a>
</g>
</g>
<!-- Node10&#45;&gt;Node13 -->
<g id="edge13" class="edge"><title>Node10&#45;&gt;Node13</title>
<path fill="none" stroke="midnightblue" d="M346.257,-37.1189C362.672,-35.0952 379.749,-32.9899 395.935,-30.9943"/>
<polygon fill="midnightblue" stroke="midnightblue" points="345.633,-33.6693 336.137,-38.3667 346.49,-40.6167 345.633,-33.6693"/>
</g>
<!-- Node12 -->
<g id="node12" class="node"><title>Node12</title>
<g id="a_node12"><a xlink:href="class_little_weeb_library_1_1_controllers_1_1_sub_controllers_1_1_settings_web_socket_controller.html#a39b333aee248388fd295a8511486c76e" target="_top" xlink:title="LittleWeebLibrary.Controllers.\lSubControllers.SettingsWebSocket\lController.OnWebSocketEvent">
<polygon fill="white" stroke="black" points="632,-26.5 632,-67.5 802,-67.5 802,-26.5 632,-26.5"/>
<text text-anchor="start" x="640" y="-55.5" font-family="Helvetica,sans-Serif" font-size="10.00">LittleWeebLibrary.Controllers.</text>
<text text-anchor="start" x="640" y="-44.5" font-family="Helvetica,sans-Serif" font-size="10.00">SubControllers.SettingsWebSocket</text>
<text text-anchor="middle" x="717" y="-33.5" font-family="Helvetica,sans-Serif" font-size="10.00">Controller.OnWebSocketEvent</text>
</a>
</g>
</g>
<!-- Node11&#45;&gt;Node12 -->
<g id="edge12" class="edge"><title>Node11&#45;&gt;Node12</title>
<path fill="none" stroke="midnightblue" d="M586.132,-62.891C601.5,-61.0105 617.126,-59.0986 631.962,-57.2832"/>
<polygon fill="midnightblue" stroke="midnightblue" points="585.582,-59.4322 576.081,-64.1209 586.432,-66.3803 585.582,-59.4322"/>
</g>
<!-- Node13&#45;&gt;Node12 -->
<g id="edge14" class="edge"><title>Node13&#45;&gt;Node12</title>
<path fill="none" stroke="midnightblue" d="M570.343,-31.0207C590.505,-33.2327 611.777,-35.5662 631.648,-37.7461"/>
<polygon fill="midnightblue" stroke="midnightblue" points="570.552,-27.5228 560.23,-29.9113 569.789,-34.4811 570.552,-27.5228"/>
</g>
</g>
</svg>
