<?xml version="1.0" encoding="UTF-8" standalone="no"?>
<!DOCTYPE svg PUBLIC "-//W3C//DTD SVG 1.1//EN"
 "http://www.w3.org/Graphics/SVG/1.1/DTD/svg11.dtd">
<!-- Generated by graphviz version 2.38.0 (20140413.2041)
 -->
<!-- Title: LittleWeebLibrary.Handlers.KitsuHandler.SearchAnime Pages: 1 -->
<svg width="624pt" height="94pt"
 viewBox="0.00 0.00 624.00 93.50" xmlns="http://www.w3.org/2000/svg" xmlns:xlink="http://www.w3.org/1999/xlink">
<g id="graph0" class="graph" transform="scale(1 1) rotate(0) translate(4 89.5)">
<title>LittleWeebLibrary.Handlers.KitsuHandler.SearchAnime</title>
<polygon fill="white" stroke="none" points="-4,4 -4,-89.5 620,-89.5 620,4 -4,4"/>
<!-- Node5 -->
<g id="node1" class="node"><title>Node5</title>
<polygon fill="#bfbfbf" stroke="black" points="0,-30 0,-60 137,-60 137,-30 0,-30"/>
<text text-anchor="start" x="8" y="-48" font-family="Helvetica,sans-Serif" font-size="10.00">LittleWeebLibrary.Handlers.</text>
<text text-anchor="middle" x="68.5" y="-37" font-family="Helvetica,sans-Serif" font-size="10.00">KitsuHandler.SearchAnime</text>
</g>
<!-- Node6 -->
<g id="node2" class="node"><title>Node6</title>
<g id="a_node2"><a xlink:href="class_little_weeb_library_1_1_handlers_1_1_anime_profile_handler.html#a11b3560a1e2fe0e3ac5d481efb46d7a6" target="_top" xlink:title="LittleWeebLibrary.Handlers.\lAnimeProfileHandler.CurrentlyAiringAsync">
<polygon fill="white" stroke="black" points="173,-55 173,-85 372,-85 372,-55 173,-55"/>
<text text-anchor="start" x="181" y="-73" font-family="Helvetica,sans-Serif" font-size="10.00">LittleWeebLibrary.Handlers.</text>
<text text-anchor="middle" x="272.5" y="-62" font-family="Helvetica,sans-Serif" font-size="10.00">AnimeProfileHandler.CurrentlyAiringAsync</text>
</a>
</g>
</g>
<!-- Node5&#45;&gt;Node6 -->
<g id="edge1" class="edge"><title>Node5&#45;&gt;Node6</title>
<path fill="none" stroke="midnightblue" d="M147.136,-54.6084C155.516,-55.6455 164.122,-56.7107 172.708,-57.7732"/>
<polygon fill="midnightblue" stroke="midnightblue" points="147.398,-51.1142 137.044,-53.3594 146.538,-58.0612 147.398,-51.1142"/>
</g>
<!-- Node7 -->
<g id="node3" class="node"><title>Node7</title>
<g id="a_node3"><a xlink:href="class_little_weeb_library_1_1_services_1_1_info_api_web_socket_service.html#af6678c62bfe074bc5ce399ff21641d6e" target="_top" xlink:title="LittleWeebLibrary.Services.\lInfoApiWebSocketService.SearchKitsu">
<polygon fill="white" stroke="black" points="180,-6 180,-36 365,-36 365,-6 180,-6"/>
<text text-anchor="start" x="188" y="-24" font-family="Helvetica,sans-Serif" font-size="10.00">LittleWeebLibrary.Services.</text>
<text text-anchor="middle" x="272.5" y="-13" font-family="Helvetica,sans-Serif" font-size="10.00">InfoApiWebSocketService.SearchKitsu</text>
</a>
</g>
</g>
<!-- Node5&#45;&gt;Node7 -->
<g id="edge2" class="edge"><title>Node5&#45;&gt;Node7</title>
<path fill="none" stroke="midnightblue" d="M147.191,-35.7694C157.911,-34.4957 169.001,-33.1781 179.943,-31.8781"/>
<polygon fill="midnightblue" stroke="midnightblue" points="146.561,-32.3195 137.044,-36.975 147.387,-39.2706 146.561,-32.3195"/>
</g>
<!-- Node8 -->
<g id="node4" class="node"><title>Node8</title>
<g id="a_node4"><a xlink:href="class_little_weeb_library_1_1_controllers_1_1_sub_controllers_1_1_info_api_web_socket_controller.html#ad620537574b819085ff8eb394add2912" target="_top" xlink:title="LittleWeebLibrary.Controllers.\lSubControllers.InfoApiWebSocketController.\lOnWebSocketEvent">
<polygon fill="white" stroke="black" points="408,-0.5 408,-41.5 616,-41.5 616,-0.5 408,-0.5"/>
<text text-anchor="start" x="416" y="-29.5" font-family="Helvetica,sans-Serif" font-size="10.00">LittleWeebLibrary.Controllers.</text>
<text text-anchor="start" x="416" y="-18.5" font-family="Helvetica,sans-Serif" font-size="10.00">SubControllers.InfoApiWebSocketController.</text>
<text text-anchor="middle" x="512" y="-7.5" font-family="Helvetica,sans-Serif" font-size="10.00">OnWebSocketEvent</text>
</a>
</g>
</g>
<!-- Node7&#45;&gt;Node8 -->
<g id="edge3" class="edge"><title>Node7&#45;&gt;Node8</title>
<path fill="none" stroke="midnightblue" d="M375.552,-21C386.292,-21 397.218,-21 407.969,-21"/>
<polygon fill="midnightblue" stroke="midnightblue" points="375.324,-17.5001 365.324,-21 375.324,-24.5001 375.324,-17.5001"/>
</g>
</g>
</svg>
