<?xml version="1.0" encoding="UTF-8" standalone="no"?>
<!DOCTYPE svg PUBLIC "-//W3C//DTD SVG 1.1//EN"
 "http://www.w3.org/Graphics/SVG/1.1/DTD/svg11.dtd">
<!-- Generated by graphviz version 2.38.0 (20140413.2041)
 -->
<!-- Title: LittleWeebLibrary.EventArguments.IrcClientDownloadEventArgs.ToString Pages: 1 -->
<svg width="430pt" height="88pt"
 viewBox="0.00 0.00 430.00 88.00" xmlns="http://www.w3.org/2000/svg" xmlns:xlink="http://www.w3.org/1999/xlink">
<g id="graph0" class="graph" transform="scale(1 1) rotate(0) translate(4 84)">
<title>LittleWeebLibrary.EventArguments.IrcClientDownloadEventArgs.ToString</title>
<polygon fill="white" stroke="none" points="-4,4 -4,-84 426,-84 426,4 -4,4"/>
<!-- Node1 -->
<g id="node1" class="node"><title>Node1</title>
<polygon fill="#bfbfbf" stroke="black" points="0,-24.5 0,-54.5 177,-54.5 177,-24.5 0,-24.5"/>
<text text-anchor="start" x="8" y="-42.5" font-family="Helvetica,sans-Serif" font-size="10.00">LittleWeebLibrary.EventArguments.</text>
<text text-anchor="middle" x="88.5" y="-31.5" font-family="Helvetica,sans-Serif" font-size="10.00">IrcClientDownloadEventArgs.ToString</text>
</g>
<!-- Node2 -->
<g id="node2" class="node"><title>Node2</title>
<g id="a_node2"><a xlink:href="class_little_weeb_library_1_1_handlers_1_1_irc_client_handler.html#afef5cc2f76989366cb52ffa7d5a78752" target="_top" xlink:title="LittleWeebLibrary.Handlers.\lIrcClientHandler.OnDownloadUpdate">
<polygon fill="white" stroke="black" points="231,-49.5 231,-79.5 404,-79.5 404,-49.5 231,-49.5"/>
<text text-anchor="start" x="239" y="-67.5" font-family="Helvetica,sans-Serif" font-size="10.00">LittleWeebLibrary.Handlers.</text>
<text text-anchor="middle" x="317.5" y="-56.5" font-family="Helvetica,sans-Serif" font-size="10.00">IrcClientHandler.OnDownloadUpdate</text>
</a>
</g>
</g>
<!-- Node1&#45;&gt;Node2 -->
<g id="edge1" class="edge"><title>Node1&#45;&gt;Node2</title>
<path fill="none" stroke="midnightblue" d="M187.239,-50.2642C201.746,-51.8618 216.602,-53.498 230.836,-55.0657"/>
<polygon fill="midnightblue" stroke="midnightblue" points="187.587,-46.7815 177.264,-49.1657 186.821,-53.7394 187.587,-46.7815"/>
</g>
<!-- Node3 -->
<g id="node3" class="node"><title>Node3</title>
<g id="a_node3"><a xlink:href="class_little_weeb_library_1_1_handlers_1_1_download_handler.html#a8e40df55d254c0b95bb0a72becde5039" target="_top" xlink:title="LittleWeebLibrary.Handlers.\lDownloadHandler.OnIrcClientDownloadEvent">
<polygon fill="white" stroke="black" points="213,-0.5 213,-30.5 422,-30.5 422,-0.5 213,-0.5"/>
<text text-anchor="start" x="221" y="-18.5" font-family="Helvetica,sans-Serif" font-size="10.00">LittleWeebLibrary.Handlers.</text>
<text text-anchor="middle" x="317.5" y="-7.5" font-family="Helvetica,sans-Serif" font-size="10.00">DownloadHandler.OnIrcClientDownloadEvent</text>
</a>
</g>
</g>
<!-- Node1&#45;&gt;Node3 -->
<g id="edge2" class="edge"><title>Node1&#45;&gt;Node3</title>
<path fill="none" stroke="midnightblue" d="M187.408,-29.1485C195.782,-28.2631 204.271,-27.3656 212.688,-26.4757"/>
<polygon fill="midnightblue" stroke="midnightblue" points="186.841,-25.6889 177.264,-30.221 187.577,-32.6501 186.841,-25.6889"/>
</g>
</g>
</svg>
