<?xml version="1.0" encoding="UTF-8" standalone="no"?>
<!DOCTYPE svg PUBLIC "-//W3C//DTD SVG 1.1//EN"
 "http://www.w3.org/Graphics/SVG/1.1/DTD/svg11.dtd">
<!-- Generated by graphviz version 2.38.0 (20140413.2041)
 -->
<!-- Title: LittleWeebLibrary.Handlers.FileHandler.OpenFile Pages: 1 -->
<svg width="329pt" height="247pt"
 viewBox="0.00 0.00 329.00 246.50" xmlns="http://www.w3.org/2000/svg" xmlns:xlink="http://www.w3.org/1999/xlink">
<g id="graph0" class="graph" transform="scale(1 1) rotate(0) translate(4 242.5)">
<title>LittleWeebLibrary.Handlers.FileHandler.OpenFile</title>
<polygon fill="white" stroke="none" points="-4,4 -4,-242.5 325,-242.5 325,4 -4,4"/>
<!-- Node3 -->
<g id="node1" class="node"><title>Node3</title>
<polygon fill="#bfbfbf" stroke="black" points="0,-98.5 0,-128.5 137,-128.5 137,-98.5 0,-98.5"/>
<text text-anchor="start" x="8" y="-116.5" font-family="Helvetica,sans-Serif" font-size="10.00">LittleWeebLibrary.Handlers.</text>
<text text-anchor="middle" x="68.5" y="-105.5" font-family="Helvetica,sans-Serif" font-size="10.00">FileHandler.OpenFile</text>
</g>
<!-- Node4 -->
<g id="node2" class="node"><title>Node4</title>
<g id="a_node2"><a xlink:href="class_little_weeb_library_1_1_static_classes_1_1_utility_methods.html#afc8c716f32bc35d59afdb287be06c3ca" target="_top" xlink:title="LittleWeebLibrary.Static\lClasses.UtilityMethods.Check\lOperatingSystems">
<polygon fill="white" stroke="black" points="173,-197 173,-238 321,-238 321,-197 173,-197"/>
<text text-anchor="start" x="181" y="-226" font-family="Helvetica,sans-Serif" font-size="10.00">LittleWeebLibrary.Static</text>
<text text-anchor="start" x="181" y="-215" font-family="Helvetica,sans-Serif" font-size="10.00">Classes.UtilityMethods.Check</text>
<text text-anchor="middle" x="247" y="-204" font-family="Helvetica,sans-Serif" font-size="10.00">OperatingSystems</text>
</a>
</g>
</g>
<!-- Node3&#45;&gt;Node4 -->
<g id="edge1" class="edge"><title>Node3&#45;&gt;Node4</title>
<path fill="none" stroke="midnightblue" d="M87.7119,-128.508C107.74,-144.526 141.301,-169.964 173,-187.5 176.185,-189.262 179.495,-190.981 182.869,-192.648"/>
<polygon fill="midnightblue" stroke="midnightblue" points="181.376,-195.813 191.912,-196.929 184.371,-189.486 181.376,-195.813"/>
</g>
<!-- Node5 -->
<g id="node3" class="node"><title>Node5</title>
<g id="a_node3"><a xlink:href="class_little_weeb_library_1_1_models_1_1_json_success.html#a407103dc37a77aaf47a782296bab7518" target="_top" xlink:title="LittleWeebLibrary.Models.\lJsonSuccess.ToJson">
<polygon fill="white" stroke="black" points="182,-147.5 182,-177.5 312,-177.5 312,-147.5 182,-147.5"/>
<text text-anchor="start" x="190" y="-165.5" font-family="Helvetica,sans-Serif" font-size="10.00">LittleWeebLibrary.Models.</text>
<text text-anchor="middle" x="247" y="-154.5" font-family="Helvetica,sans-Serif" font-size="10.00">JsonSuccess.ToJson</text>
</a>
</g>
</g>
<!-- Node3&#45;&gt;Node5 -->
<g id="edge2" class="edge"><title>Node3&#45;&gt;Node5</title>
<path fill="none" stroke="midnightblue" d="M123.896,-128.601C142.268,-133.702 162.947,-139.443 181.993,-144.73"/>
<polygon fill="midnightblue" stroke="midnightblue" points="181.212,-148.146 191.784,-147.448 183.084,-141.401 181.212,-148.146"/>
</g>
<!-- Node6 -->
<g id="node4" class="node"><title>Node6</title>
<g id="a_node4"><a xlink:href="class_little_weeb_library_1_1_models_1_1_json_error.html#a0e3e7dd2e2990404b7f0461742b23440" target="_top" xlink:title="LittleWeebLibrary.Models.\lJsonError.ToJson">
<polygon fill="white" stroke="black" points="182,-98.5 182,-128.5 312,-128.5 312,-98.5 182,-98.5"/>
<text text-anchor="start" x="190" y="-116.5" font-family="Helvetica,sans-Serif" font-size="10.00">LittleWeebLibrary.Models.</text>
<text text-anchor="middle" x="247" y="-105.5" font-family="Helvetica,sans-Serif" font-size="10.00">JsonError.ToJson</text>
</a>
</g>
</g>
<!-- Node3&#45;&gt;Node6 -->
<g id="edge3" class="edge"><title>Node3&#45;&gt;Node6</title>
<path fill="none" stroke="midnightblue" d="M137.235,-113.5C148.588,-113.5 160.422,-113.5 171.925,-113.5"/>
<polygon fill="midnightblue" stroke="midnightblue" points="171.929,-117 181.928,-113.5 171.928,-110 171.929,-117"/>
</g>
<!-- Node7 -->
<g id="node5" class="node"><title>Node7</title>
<g id="a_node5"><a xlink:href="class_little_weeb_library_1_1_models_1_1_json_error.html#ad7d5522c90119111d2e929f39e7f6d3c" target="_top" xlink:title="LittleWeebLibrary.Models.\lJsonError.ToString">
<polygon fill="white" stroke="black" points="182,-49.5 182,-79.5 312,-79.5 312,-49.5 182,-49.5"/>
<text text-anchor="start" x="190" y="-67.5" font-family="Helvetica,sans-Serif" font-size="10.00">LittleWeebLibrary.Models.</text>
<text text-anchor="middle" x="247" y="-56.5" font-family="Helvetica,sans-Serif" font-size="10.00">JsonError.ToString</text>
</a>
</g>
</g>
<!-- Node3&#45;&gt;Node7 -->
<g id="edge4" class="edge"><title>Node3&#45;&gt;Node7</title>
<path fill="none" stroke="midnightblue" d="M123.896,-98.3986C142.268,-93.2981 162.947,-87.5571 181.993,-82.2695"/>
<polygon fill="midnightblue" stroke="midnightblue" points="183.084,-85.5991 191.784,-79.5516 181.212,-78.8542 183.084,-85.5991"/>
</g>
<!-- Node8 -->
<g id="node6" class="node"><title>Node8</title>
<g id="a_node6"><a xlink:href="class_little_weeb_library_1_1_handlers_1_1_debug_handler.html#afccb37dfd6b2114af72000c2f4fe4607" target="_top" xlink:title="LittleWeebLibrary.Handlers.\lDebugHandler.TraceMessage">
<polygon fill="white" stroke="black" points="175,-0.5 175,-30.5 319,-30.5 319,-0.5 175,-0.5"/>
<text text-anchor="start" x="183" y="-18.5" font-family="Helvetica,sans-Serif" font-size="10.00">LittleWeebLibrary.Handlers.</text>
<text text-anchor="middle" x="247" y="-7.5" font-family="Helvetica,sans-Serif" font-size="10.00">DebugHandler.TraceMessage</text>
</a>
</g>
</g>
<!-- Node3&#45;&gt;Node8 -->
<g id="edge5" class="edge"><title>Node3&#45;&gt;Node8</title>
<path fill="none" stroke="midnightblue" d="M87.5501,-98.3465C107.44,-82.2464 140.884,-56.8996 173,-40.5 177.25,-38.3297 181.731,-36.2792 186.297,-34.3573"/>
<polygon fill="midnightblue" stroke="midnightblue" points="187.744,-37.5483 195.739,-30.5958 185.154,-31.0453 187.744,-37.5483"/>
</g>
</g>
</svg>
