<?xml version="1.0" encoding="UTF-8" standalone="no"?>
<!DOCTYPE svg PUBLIC "-//W3C//DTD SVG 1.1//EN"
 "http://www.w3.org/Graphics/SVG/1.1/DTD/svg11.dtd">
<!-- Generated by graphviz version 2.38.0 (20140413.2041)
 -->
<!-- Title: LittleWeebLibrary.StaticClasses.UtilityMethods.WriteBinaryFile Pages: 1 -->
<svg width="1076pt" height="357pt"
 viewBox="0.00 0.00 1076.00 357.00" xmlns="http://www.w3.org/2000/svg" xmlns:xlink="http://www.w3.org/1999/xlink">
<g id="graph0" class="graph" transform="scale(1 1) rotate(0) translate(4 353)">
<title>LittleWeebLibrary.StaticClasses.UtilityMethods.WriteBinaryFile</title>
<polygon fill="white" stroke="none" points="-4,4 -4,-353 1072,-353 1072,4 -4,4"/>
<!-- Node75 -->
<g id="node1" class="node"><title>Node75</title>
<polygon fill="#bfbfbf" stroke="black" points="0,-164.5 0,-205.5 143,-205.5 143,-164.5 0,-164.5"/>
<text text-anchor="start" x="8" y="-193.5" font-family="Helvetica,sans-Serif" font-size="10.00">LittleWeebLibrary.Static</text>
<text text-anchor="start" x="8" y="-182.5" font-family="Helvetica,sans-Serif" font-size="10.00">Classes.UtilityMethods.Write</text>
<text text-anchor="middle" x="71.5" y="-171.5" font-family="Helvetica,sans-Serif" font-size="10.00">BinaryFile</text>
</g>
<!-- Node76 -->
<g id="node2" class="node"><title>Node76</title>
<g id="a_node2"><a xlink:href="class_little_weeb_library_1_1_handlers_1_1_data_base_handler.html#a5e6a70ef81b049da46b6ae3a15b09cd3" target="_top" xlink:title="LittleWeebLibrary.Handlers.\lDataBaseHandler.StoreJObject">
<polygon fill="white" stroke="black" points="179,-170 179,-200 331,-200 331,-170 179,-170"/>
<text text-anchor="start" x="187" y="-188" font-family="Helvetica,sans-Serif" font-size="10.00">LittleWeebLibrary.Handlers.</text>
<text text-anchor="middle" x="255" y="-177" font-family="Helvetica,sans-Serif" font-size="10.00">DataBaseHandler.StoreJObject</text>
</a>
</g>
</g>
<!-- Node75&#45;&gt;Node76 -->
<g id="edge1" class="edge"><title>Node75&#45;&gt;Node76</title>
<path fill="none" stroke="midnightblue" d="M153.388,-185C161.809,-185 170.345,-185 178.701,-185"/>
<polygon fill="midnightblue" stroke="midnightblue" points="153.192,-181.5 143.192,-185 153.192,-188.5 153.192,-181.5"/>
</g>
<!-- Node77 -->
<g id="node3" class="node"><title>Node77</title>
<g id="a_node3"><a xlink:href="class_little_weeb_library_1_1_handlers_1_1_file_history_handler.html#a615bf14eae35f656b211f0500abe4d29" target="_top" xlink:title="LittleWeebLibrary.Handlers.\lFileHistoryHandler.AddFileToFile\lHistory">
<polygon fill="white" stroke="black" points="394,-307.5 394,-348.5 552,-348.5 552,-307.5 394,-307.5"/>
<text text-anchor="start" x="402" y="-336.5" font-family="Helvetica,sans-Serif" font-size="10.00">LittleWeebLibrary.Handlers.</text>
<text text-anchor="start" x="402" y="-325.5" font-family="Helvetica,sans-Serif" font-size="10.00">FileHistoryHandler.AddFileToFile</text>
<text text-anchor="middle" x="473" y="-314.5" font-family="Helvetica,sans-Serif" font-size="10.00">History</text>
</a>
</g>
</g>
<!-- Node76&#45;&gt;Node77 -->
<g id="edge2" class="edge"><title>Node76&#45;&gt;Node77</title>
<path fill="none" stroke="midnightblue" d="M275.145,-207.992C295.724,-231.432 330.439,-267.462 367,-290 377.974,-296.765 390.332,-302.58 402.614,-307.481"/>
<polygon fill="midnightblue" stroke="midnightblue" points="277.66,-205.549 268.475,-200.268 272.362,-210.125 277.66,-205.549"/>
</g>
<!-- Node79 -->
<g id="node5" class="node"><title>Node79</title>
<g id="a_node5"><a xlink:href="class_little_weeb_library_1_1_services_1_1_info_api_web_socket_service.html#a310f91aba5d17d8202aea81442da2545" target="_top" xlink:title="LittleWeebLibrary.Services.\lInfoApiWebSocketService.GetAllCategories">
<polygon fill="white" stroke="black" points="617,-268 617,-298 822,-298 822,-268 617,-268"/>
<text text-anchor="start" x="625" y="-286" font-family="Helvetica,sans-Serif" font-size="10.00">LittleWeebLibrary.Services.</text>
<text text-anchor="middle" x="719.5" y="-275" font-family="Helvetica,sans-Serif" font-size="10.00">InfoApiWebSocketService.GetAllCategories</text>
</a>
</g>
</g>
<!-- Node76&#45;&gt;Node79 -->
<g id="edge4" class="edge"><title>Node76&#45;&gt;Node79</title>
<path fill="none" stroke="midnightblue" d="M294.11,-204.49C315.113,-214.453 341.94,-225.937 367,-233 449.316,-256.201 545.658,-268.94 616.641,-275.743"/>
<polygon fill="midnightblue" stroke="midnightblue" points="295.425,-201.237 284.898,-200.04 292.38,-207.541 295.425,-201.237"/>
</g>
<!-- Node81 -->
<g id="node7" class="node"><title>Node81</title>
<g id="a_node7"><a xlink:href="class_little_weeb_library_1_1_services_1_1_info_api_web_socket_service.html#a2882975741be27c69b461509d48e2636" target="_top" xlink:title="LittleWeebLibrary.Services.\lInfoApiWebSocketService.GetAllGenres">
<polygon fill="white" stroke="black" points="624.5,-219 624.5,-249 814.5,-249 814.5,-219 624.5,-219"/>
<text text-anchor="start" x="632.5" y="-237" font-family="Helvetica,sans-Serif" font-size="10.00">LittleWeebLibrary.Services.</text>
<text text-anchor="middle" x="719.5" y="-226" font-family="Helvetica,sans-Serif" font-size="10.00">InfoApiWebSocketService.GetAllGenres</text>
</a>
</g>
</g>
<!-- Node76&#45;&gt;Node81 -->
<g id="edge6" class="edge"><title>Node76&#45;&gt;Node81</title>
<path fill="none" stroke="midnightblue" d="M327.775,-202.074C340.772,-204.721 354.246,-207.177 367,-209 453.756,-221.4 553.482,-227.751 624.496,-230.94"/>
<polygon fill="midnightblue" stroke="midnightblue" points="328.453,-198.64 317.949,-200.02 327.021,-205.492 328.453,-198.64"/>
</g>
<!-- Node82 -->
<g id="node8" class="node"><title>Node82</title>
<g id="a_node8"><a xlink:href="class_little_weeb_library_1_1_handlers_1_1_anime_profile_handler.html#aaa89fba506cfcdad18a5aa3f9b860061" target="_top" xlink:title="LittleWeebLibrary.Handlers.\lAnimeProfileHandler.GetAnimeProfile">
<polygon fill="white" stroke="black" points="384,-170 384,-200 562,-200 562,-170 384,-170"/>
<text text-anchor="start" x="392" y="-188" font-family="Helvetica,sans-Serif" font-size="10.00">LittleWeebLibrary.Handlers.</text>
<text text-anchor="middle" x="473" y="-177" font-family="Helvetica,sans-Serif" font-size="10.00">AnimeProfileHandler.GetAnimeProfile</text>
</a>
</g>
</g>
<!-- Node76&#45;&gt;Node82 -->
<g id="edge8" class="edge"><title>Node76&#45;&gt;Node82</title>
<path fill="none" stroke="midnightblue" d="M341.281,-185C355.214,-185 369.675,-185 383.679,-185"/>
<polygon fill="midnightblue" stroke="midnightblue" points="341.243,-181.5 331.243,-185 341.243,-188.5 341.243,-181.5"/>
</g>
<!-- Node84 -->
<g id="node10" class="node"><title>Node84</title>
<g id="a_node10"><a xlink:href="class_little_weeb_library_1_1_services_1_1_info_api_web_socket_service.html#a5f91364bc403db5d521f15881a385143" target="_top" xlink:title="LittleWeebLibrary.Services.\lInfoApiWebSocketService.GetBotList">
<polygon fill="white" stroke="black" points="384,-121 384,-151 562,-151 562,-121 384,-121"/>
<text text-anchor="start" x="392" y="-139" font-family="Helvetica,sans-Serif" font-size="10.00">LittleWeebLibrary.Services.</text>
<text text-anchor="middle" x="473" y="-128" font-family="Helvetica,sans-Serif" font-size="10.00">InfoApiWebSocketService.GetBotList</text>
</a>
</g>
</g>
<!-- Node76&#45;&gt;Node84 -->
<g id="edge11" class="edge"><title>Node76&#45;&gt;Node84</title>
<path fill="none" stroke="midnightblue" d="M332.077,-167.742C356.144,-162.282 382.536,-156.295 405.85,-151.006"/>
<polygon fill="midnightblue" stroke="midnightblue" points="331.253,-164.34 322.275,-169.965 332.802,-171.166 331.253,-164.34"/>
</g>
<!-- Node85 -->
<g id="node11" class="node"><title>Node85</title>
<g id="a_node11"><a xlink:href="class_little_weeb_library_1_1_handlers_1_1_anime_profile_handler.html#a7469a40799e1067d871ba87679f54c37" target="_top" xlink:title="LittleWeebLibrary.Handlers.\lAnimeProfileHandler.GetCurrently\lAiring">
<polygon fill="white" stroke="black" points="392,-60.5 392,-101.5 554,-101.5 554,-60.5 392,-60.5"/>
<text text-anchor="start" x="400" y="-89.5" font-family="Helvetica,sans-Serif" font-size="10.00">LittleWeebLibrary.Handlers.</text>
<text text-anchor="start" x="400" y="-78.5" font-family="Helvetica,sans-Serif" font-size="10.00">AnimeProfileHandler.GetCurrently</text>
<text text-anchor="middle" x="473" y="-67.5" font-family="Helvetica,sans-Serif" font-size="10.00">Airing</text>
</a>
</g>
</g>
<!-- Node76&#45;&gt;Node85 -->
<g id="edge13" class="edge"><title>Node76&#45;&gt;Node85</title>
<path fill="none" stroke="midnightblue" d="M282.627,-163.798C304.283,-147.432 336.193,-125.246 367,-111 374.916,-107.34 383.377,-104.026 391.932,-101.053"/>
<polygon fill="midnightblue" stroke="midnightblue" points="280.377,-161.113 274.572,-169.976 284.637,-166.668 280.377,-161.113"/>
</g>
<!-- Node87 -->
<g id="node13" class="node"><title>Node87</title>
<g id="a_node13"><a xlink:href="class_little_weeb_library_1_1_services_1_1_data_base_web_socket_service.html#af85671a494e85f8418f60606566521f0" target="_top" xlink:title="LittleWeebLibrary.Services.\lDataBaseWebSocketService.StoreDocument">
<polygon fill="white" stroke="black" points="367,-9 367,-39 579,-39 579,-9 367,-9"/>
<text text-anchor="start" x="375" y="-27" font-family="Helvetica,sans-Serif" font-size="10.00">LittleWeebLibrary.Services.</text>
<text text-anchor="middle" x="473" y="-16" font-family="Helvetica,sans-Serif" font-size="10.00">DataBaseWebSocketService.StoreDocument</text>
</a>
</g>
</g>
<!-- Node76&#45;&gt;Node87 -->
<g id="edge16" class="edge"><title>Node76&#45;&gt;Node87</title>
<path fill="none" stroke="midnightblue" d="M269.208,-161.23C287.287,-130.944 322.615,-79.1586 367,-51 374.549,-46.2105 382.912,-42.2688 391.527,-39.0252"/>
<polygon fill="midnightblue" stroke="midnightblue" points="266.173,-159.486 264.161,-169.888 272.221,-163.012 266.173,-159.486"/>
</g>
<!-- Node78 -->
<g id="node4" class="node"><title>Node78</title>
<g id="a_node4"><a xlink:href="class_little_weeb_library_1_1_handlers_1_1_download_handler.html#a8e40df55d254c0b95bb0a72becde5039" target="_top" xlink:title="LittleWeebLibrary.Handlers.\lDownloadHandler.OnIrcClientDownloadEvent">
<polygon fill="white" stroke="black" points="615,-317 615,-347 824,-347 824,-317 615,-317"/>
<text text-anchor="start" x="623" y="-335" font-family="Helvetica,sans-Serif" font-size="10.00">LittleWeebLibrary.Handlers.</text>
<text text-anchor="middle" x="719.5" y="-324" font-family="Helvetica,sans-Serif" font-size="10.00">DownloadHandler.OnIrcClientDownloadEvent</text>
</a>
</g>
</g>
<!-- Node77&#45;&gt;Node78 -->
<g id="edge3" class="edge"><title>Node77&#45;&gt;Node78</title>
<path fill="none" stroke="midnightblue" d="M562.487,-329.448C579.492,-329.726 597.444,-330.02 614.878,-330.305"/>
<polygon fill="midnightblue" stroke="midnightblue" points="562.09,-325.941 552.034,-329.277 561.975,-332.94 562.09,-325.941"/>
</g>
<!-- Node80 -->
<g id="node6" class="node"><title>Node80</title>
<g id="a_node6"><a xlink:href="class_little_weeb_library_1_1_controllers_1_1_sub_controllers_1_1_info_api_web_socket_controller.html#ad620537574b819085ff8eb394add2912" target="_top" xlink:title="LittleWeebLibrary.Controllers.\lSubControllers.InfoApiWebSocketController.\lOnWebSocketEvent">
<polygon fill="white" stroke="black" points="860,-158.5 860,-199.5 1068,-199.5 1068,-158.5 860,-158.5"/>
<text text-anchor="start" x="868" y="-187.5" font-family="Helvetica,sans-Serif" font-size="10.00">LittleWeebLibrary.Controllers.</text>
<text text-anchor="start" x="868" y="-176.5" font-family="Helvetica,sans-Serif" font-size="10.00">SubControllers.InfoApiWebSocketController.</text>
<text text-anchor="middle" x="964" y="-165.5" font-family="Helvetica,sans-Serif" font-size="10.00">OnWebSocketEvent</text>
</a>
</g>
</g>
<!-- Node79&#45;&gt;Node80 -->
<g id="edge5" class="edge"><title>Node79&#45;&gt;Node80</title>
<path fill="none" stroke="midnightblue" d="M804.018,-264.992C810.853,-262.865 817.591,-260.537 824,-258 863.358,-242.421 905.151,-217.368 932.51,-199.658"/>
<polygon fill="midnightblue" stroke="midnightblue" points="802.559,-261.773 793.961,-267.964 804.543,-268.486 802.559,-261.773"/>
</g>
<!-- Node81&#45;&gt;Node80 -->
<g id="edge7" class="edge"><title>Node81&#45;&gt;Node80</title>
<path fill="none" stroke="midnightblue" d="M796.523,-216.758C820.544,-211.31 847.329,-205.235 872.271,-199.578"/>
<polygon fill="midnightblue" stroke="midnightblue" points="795.742,-213.346 786.764,-218.971 797.291,-220.172 795.742,-213.346"/>
</g>
<!-- Node83 -->
<g id="node9" class="node"><title>Node83</title>
<g id="a_node9"><a xlink:href="class_little_weeb_library_1_1_services_1_1_info_api_web_socket_service.html#a12f4d83332b28988ce0e2bc5ff3ed369" target="_top" xlink:title="LittleWeebLibrary.Services.\lInfoApiWebSocketService.GetAnime\lProfile">
<polygon fill="white" stroke="black" points="632,-158.5 632,-199.5 807,-199.5 807,-158.5 632,-158.5"/>
<text text-anchor="start" x="640" y="-187.5" font-family="Helvetica,sans-Serif" font-size="10.00">LittleWeebLibrary.Services.</text>
<text text-anchor="start" x="640" y="-176.5" font-family="Helvetica,sans-Serif" font-size="10.00">InfoApiWebSocketService.GetAnime</text>
<text text-anchor="middle" x="719.5" y="-165.5" font-family="Helvetica,sans-Serif" font-size="10.00">Profile</text>
</a>
</g>
</g>
<!-- Node82&#45;&gt;Node83 -->
<g id="edge9" class="edge"><title>Node82&#45;&gt;Node83</title>
<path fill="none" stroke="midnightblue" d="M572.482,-182.583C592.182,-182.1 612.739,-181.595 631.997,-181.123"/>
<polygon fill="midnightblue" stroke="midnightblue" points="572.181,-179.089 562.27,-182.834 572.353,-186.087 572.181,-179.089"/>
</g>
<!-- Node83&#45;&gt;Node80 -->
<g id="edge10" class="edge"><title>Node83&#45;&gt;Node80</title>
<path fill="none" stroke="midnightblue" d="M817.167,-179C831.229,-179 845.752,-179 859.934,-179"/>
<polygon fill="midnightblue" stroke="midnightblue" points="817.021,-175.5 807.021,-179 817.021,-182.5 817.021,-175.5"/>
</g>
<!-- Node84&#45;&gt;Node80 -->
<g id="edge12" class="edge"><title>Node84&#45;&gt;Node80</title>
<path fill="none" stroke="midnightblue" d="M572.27,-135.058C642.627,-135.501 739.468,-138.391 824,-149 842.004,-151.26 861.128,-154.695 879.244,-158.444"/>
<polygon fill="midnightblue" stroke="midnightblue" points="572.103,-131.557 562.086,-135.01 572.07,-138.557 572.103,-131.557"/>
</g>
<!-- Node86 -->
<g id="node12" class="node"><title>Node86</title>
<g id="a_node12"><a xlink:href="class_little_weeb_library_1_1_services_1_1_info_api_web_socket_service.html#aec42147d67551cb17c458453ef40f3bc" target="_top" xlink:title="LittleWeebLibrary.Services.\lInfoApiWebSocketService.GetCurrently\lAiring">
<polygon fill="white" stroke="black" points="626.5,-60.5 626.5,-101.5 812.5,-101.5 812.5,-60.5 626.5,-60.5"/>
<text text-anchor="start" x="634.5" y="-89.5" font-family="Helvetica,sans-Serif" font-size="10.00">LittleWeebLibrary.Services.</text>
<text text-anchor="start" x="634.5" y="-78.5" font-family="Helvetica,sans-Serif" font-size="10.00">InfoApiWebSocketService.GetCurrently</text>
<text text-anchor="middle" x="719.5" y="-67.5" font-family="Helvetica,sans-Serif" font-size="10.00">Airing</text>
</a>
</g>
</g>
<!-- Node85&#45;&gt;Node86 -->
<g id="edge14" class="edge"><title>Node85&#45;&gt;Node86</title>
<path fill="none" stroke="midnightblue" d="M564.215,-81C584.49,-81 606.029,-81 626.381,-81"/>
<polygon fill="midnightblue" stroke="midnightblue" points="564.058,-77.5001 554.058,-81 564.058,-84.5001 564.058,-77.5001"/>
</g>
<!-- Node86&#45;&gt;Node80 -->
<g id="edge15" class="edge"><title>Node86&#45;&gt;Node80</title>
<path fill="none" stroke="midnightblue" d="M794.228,-104.927C804.29,-108.484 814.44,-112.228 824,-116 856.902,-128.982 893.289,-145.557 920.578,-158.447"/>
<polygon fill="midnightblue" stroke="midnightblue" points="795.225,-101.568 784.63,-101.578 792.919,-108.177 795.225,-101.568"/>
</g>
<!-- Node88 -->
<g id="node14" class="node"><title>Node88</title>
<g id="a_node14"><a xlink:href="class_little_weeb_library_1_1_controllers_1_1_sub_controllers_1_1_data_base_web_socket_controller.html#a655abc0c42c54c9ff3572e4b4271fa3b" target="_top" xlink:title="LittleWeebLibrary.Controllers.\lSubControllers.DataBaseWebSocket\lController.OnWebSocketEvent">
<polygon fill="white" stroke="black" points="631,-0.5 631,-41.5 808,-41.5 808,-0.5 631,-0.5"/>
<text text-anchor="start" x="639" y="-29.5" font-family="Helvetica,sans-Serif" font-size="10.00">LittleWeebLibrary.Controllers.</text>
<text text-anchor="start" x="639" y="-18.5" font-family="Helvetica,sans-Serif" font-size="10.00">SubControllers.DataBaseWebSocket</text>
<text text-anchor="middle" x="719.5" y="-7.5" font-family="Helvetica,sans-Serif" font-size="10.00">Controller.OnWebSocketEvent</text>
</a>
</g>
</g>
<!-- Node87&#45;&gt;Node88 -->
<g id="edge17" class="edge"><title>Node87&#45;&gt;Node88</title>
<path fill="none" stroke="midnightblue" d="M589.238,-22.586C603.192,-22.4148 617.269,-22.2421 630.737,-22.0768"/>
<polygon fill="midnightblue" stroke="midnightblue" points="589.065,-19.0878 579.109,-22.7103 589.151,-26.0873 589.065,-19.0878"/>
</g>
</g>
</svg>
