<?xml version="1.0" encoding="UTF-8" standalone="no"?>
<!DOCTYPE svg PUBLIC "-//W3C//DTD SVG 1.1//EN"
 "http://www.w3.org/Graphics/SVG/1.1/DTD/svg11.dtd">
<!-- Generated by graphviz version 2.38.0 (20140413.2041)
 -->
<!-- Title: LittleWeebLibrary.Handlers.KitsuHandler.GetCurrentlyAiring Pages: 1 -->
<svg width="827pt" height="50pt"
 viewBox="0.00 0.00 827.00 50.00" xmlns="http://www.w3.org/2000/svg" xmlns:xlink="http://www.w3.org/1999/xlink">
<g id="graph0" class="graph" transform="scale(1 1) rotate(0) translate(4 46)">
<title>LittleWeebLibrary.Handlers.KitsuHandler.GetCurrentlyAiring</title>
<polygon fill="white" stroke="none" points="-4,4 -4,-46 823,-46 823,4 -4,4"/>
<!-- Node26 -->
<g id="node1" class="node"><title>Node26</title>
<polygon fill="#bfbfbf" stroke="black" points="0,-6 0,-36 155,-36 155,-6 0,-6"/>
<text text-anchor="start" x="8" y="-24" font-family="Helvetica,sans-Serif" font-size="10.00">LittleWeebLibrary.Handlers.</text>
<text text-anchor="middle" x="77.5" y="-13" font-family="Helvetica,sans-Serif" font-size="10.00">KitsuHandler.GetCurrentlyAiring</text>
</g>
<!-- Node27 -->
<g id="node2" class="node"><title>Node27</title>
<g id="a_node2"><a xlink:href="class_little_weeb_library_1_1_handlers_1_1_anime_profile_handler.html#a7469a40799e1067d871ba87679f54c37" target="_top" xlink:title="LittleWeebLibrary.Handlers.\lAnimeProfileHandler.GetCurrently\lAiring">
<polygon fill="white" stroke="black" points="191,-0.5 191,-41.5 353,-41.5 353,-0.5 191,-0.5"/>
<text text-anchor="start" x="199" y="-29.5" font-family="Helvetica,sans-Serif" font-size="10.00">LittleWeebLibrary.Handlers.</text>
<text text-anchor="start" x="199" y="-18.5" font-family="Helvetica,sans-Serif" font-size="10.00">AnimeProfileHandler.GetCurrently</text>
<text text-anchor="middle" x="272" y="-7.5" font-family="Helvetica,sans-Serif" font-size="10.00">Airing</text>
</a>
</g>
</g>
<!-- Node26&#45;&gt;Node27 -->
<g id="edge1" class="edge"><title>Node26&#45;&gt;Node27</title>
<path fill="none" stroke="midnightblue" d="M165.402,-21C173.873,-21 182.443,-21 190.844,-21"/>
<polygon fill="midnightblue" stroke="midnightblue" points="165.134,-17.5001 155.134,-21 165.134,-24.5001 165.134,-17.5001"/>
</g>
<!-- Node28 -->
<g id="node3" class="node"><title>Node28</title>
<g id="a_node3"><a xlink:href="class_little_weeb_library_1_1_services_1_1_info_api_web_socket_service.html#aec42147d67551cb17c458453ef40f3bc" target="_top" xlink:title="LittleWeebLibrary.Services.\lInfoApiWebSocketService.GetCurrently\lAiring">
<polygon fill="white" stroke="black" points="389,-0.5 389,-41.5 575,-41.5 575,-0.5 389,-0.5"/>
<text text-anchor="start" x="397" y="-29.5" font-family="Helvetica,sans-Serif" font-size="10.00">LittleWeebLibrary.Services.</text>
<text text-anchor="start" x="397" y="-18.5" font-family="Helvetica,sans-Serif" font-size="10.00">InfoApiWebSocketService.GetCurrently</text>
<text text-anchor="middle" x="482" y="-7.5" font-family="Helvetica,sans-Serif" font-size="10.00">Airing</text>
</a>
</g>
</g>
<!-- Node27&#45;&gt;Node28 -->
<g id="edge2" class="edge"><title>Node27&#45;&gt;Node28</title>
<path fill="none" stroke="midnightblue" d="M363.335,-21C371.77,-21 380.328,-21 388.781,-21"/>
<polygon fill="midnightblue" stroke="midnightblue" points="363.121,-17.5001 353.121,-21 363.121,-24.5001 363.121,-17.5001"/>
</g>
<!-- Node29 -->
<g id="node4" class="node"><title>Node29</title>
<g id="a_node4"><a xlink:href="class_little_weeb_library_1_1_controllers_1_1_sub_controllers_1_1_info_api_web_socket_controller.html#ad620537574b819085ff8eb394add2912" target="_top" xlink:title="LittleWeebLibrary.Controllers.\lSubControllers.InfoApiWebSocketController.\lOnWebSocketEvent">
<polygon fill="white" stroke="black" points="611,-0.5 611,-41.5 819,-41.5 819,-0.5 611,-0.5"/>
<text text-anchor="start" x="619" y="-29.5" font-family="Helvetica,sans-Serif" font-size="10.00">LittleWeebLibrary.Controllers.</text>
<text text-anchor="start" x="619" y="-18.5" font-family="Helvetica,sans-Serif" font-size="10.00">SubControllers.InfoApiWebSocketController.</text>
<text text-anchor="middle" x="715" y="-7.5" font-family="Helvetica,sans-Serif" font-size="10.00">OnWebSocketEvent</text>
</a>
</g>
</g>
<!-- Node28&#45;&gt;Node29 -->
<g id="edge3" class="edge"><title>Node28&#45;&gt;Node29</title>
<path fill="none" stroke="midnightblue" d="M585.499,-21C593.914,-21 602.422,-21 610.841,-21"/>
<polygon fill="midnightblue" stroke="midnightblue" points="585.293,-17.5001 575.293,-21 585.293,-24.5001 585.293,-17.5001"/>
</g>
</g>
</svg>
