<?xml version="1.0" encoding="UTF-8" standalone="no"?>
<!DOCTYPE svg PUBLIC "-//W3C//DTD SVG 1.1//EN"
 "http://www.w3.org/Graphics/SVG/1.1/DTD/svg11.dtd">
<!-- Generated by graphviz version 2.38.0 (20140413.2041)
 -->
<!-- Title: LittleWeebLibrary.Services.DataBaseWebSocketService.GetCollection Pages: 1 -->
<svg width="635pt" height="274pt"
 viewBox="0.00 0.00 635.00 274.00" xmlns="http://www.w3.org/2000/svg" xmlns:xlink="http://www.w3.org/1999/xlink">
<g id="graph0" class="graph" transform="scale(1 1) rotate(0) translate(4 270)">
<title>LittleWeebLibrary.Services.DataBaseWebSocketService.GetCollection</title>
<polygon fill="white" stroke="none" points="-4,4 -4,-270 631,-270 631,4 -4,4"/>
<!-- Node11 -->
<g id="node1" class="node"><title>Node11</title>
<polygon fill="#bfbfbf" stroke="black" points="0,-98.5 0,-128.5 203,-128.5 203,-98.5 0,-98.5"/>
<text text-anchor="start" x="8" y="-116.5" font-family="Helvetica,sans-Serif" font-size="10.00">LittleWeebLibrary.Services.</text>
<text text-anchor="middle" x="101.5" y="-105.5" font-family="Helvetica,sans-Serif" font-size="10.00">DataBaseWebSocketService.GetCollection</text>
</g>
<!-- Node12 -->
<g id="node2" class="node"><title>Node12</title>
<g id="a_node2"><a xlink:href="class_little_weeb_library_1_1_handlers_1_1_data_base_handler.html#ae04312874502a18b241c1123ef963b90" target="_top" xlink:title="LittleWeebLibrary.Handlers.\lDataBaseHandler.GetCollection">
<polygon fill="white" stroke="black" points="245,-186.5 245,-216.5 399,-216.5 399,-186.5 245,-186.5"/>
<text text-anchor="start" x="253" y="-204.5" font-family="Helvetica,sans-Serif" font-size="10.00">LittleWeebLibrary.Handlers.</text>
<text text-anchor="middle" x="322" y="-193.5" font-family="Helvetica,sans-Serif" font-size="10.00">DataBaseHandler.GetCollection</text>
</a>
</g>
</g>
<!-- Node11&#45;&gt;Node12 -->
<g id="edge1" class="edge"><title>Node11&#45;&gt;Node12</title>
<path fill="none" stroke="midnightblue" d="M136.52,-128.526C164.015,-140.532 203.798,-157.592 239,-171.5 248.722,-175.341 259.157,-179.29 269.215,-183.009"/>
<polygon fill="midnightblue" stroke="midnightblue" points="268.113,-186.333 278.707,-186.494 270.526,-179.762 268.113,-186.333"/>
</g>
<!-- Node14 -->
<g id="node4" class="node"><title>Node14</title>
<g id="a_node4"><a xlink:href="class_little_weeb_library_1_1_handlers_1_1_debug_handler.html#afccb37dfd6b2114af72000c2f4fe4607" target="_top" xlink:title="LittleWeebLibrary.Handlers.\lDebugHandler.TraceMessage">
<polygon fill="white" stroke="black" points="462,-137.5 462,-167.5 606,-167.5 606,-137.5 462,-137.5"/>
<text text-anchor="start" x="470" y="-155.5" font-family="Helvetica,sans-Serif" font-size="10.00">LittleWeebLibrary.Handlers.</text>
<text text-anchor="middle" x="534" y="-144.5" font-family="Helvetica,sans-Serif" font-size="10.00">DebugHandler.TraceMessage</text>
</a>
</g>
</g>
<!-- Node11&#45;&gt;Node14 -->
<g id="edge9" class="edge"><title>Node11&#45;&gt;Node14</title>
<path fill="none" stroke="midnightblue" d="M174.488,-128.543C195.226,-132.371 217.937,-136.081 239,-138.5 310.624,-146.727 392.6,-150.138 451.762,-151.543"/>
<polygon fill="midnightblue" stroke="midnightblue" points="451.718,-155.043 461.794,-151.767 451.875,-148.044 451.718,-155.043"/>
</g>
<!-- Node16 -->
<g id="node6" class="node"><title>Node16</title>
<g id="a_node6"><a xlink:href="class_little_weeb_library_1_1_handlers_1_1_web_socket_handler.html#a1de289d54d665a32c93478c68d3e6ad0" target="_top" xlink:title="LittleWeebLibrary.Handlers.\lWebSocketHandler.SendMessage">
<polygon fill="white" stroke="black" points="239,-98.5 239,-128.5 405,-128.5 405,-98.5 239,-98.5"/>
<text text-anchor="start" x="247" y="-116.5" font-family="Helvetica,sans-Serif" font-size="10.00">LittleWeebLibrary.Handlers.</text>
<text text-anchor="middle" x="322" y="-105.5" font-family="Helvetica,sans-Serif" font-size="10.00">WebSocketHandler.SendMessage</text>
</a>
</g>
</g>
<!-- Node11&#45;&gt;Node16 -->
<g id="edge5" class="edge"><title>Node11&#45;&gt;Node16</title>
<path fill="none" stroke="midnightblue" d="M203.116,-113.5C211.636,-113.5 220.227,-113.5 228.679,-113.5"/>
<polygon fill="midnightblue" stroke="midnightblue" points="228.906,-117 238.906,-113.5 228.906,-110 228.906,-117"/>
</g>
<!-- Node17 -->
<g id="node7" class="node"><title>Node17</title>
<g id="a_node7"><a xlink:href="class_little_weeb_library_1_1_models_1_1_json_data_base_collection.html#a2df5ba56e4691271213328b9bc2dbb1f" target="_top" xlink:title="LittleWeebLibrary.Models.\lJsonDataBaseCollection.ToJson">
<polygon fill="white" stroke="black" points="244,-49.5 244,-79.5 400,-79.5 400,-49.5 244,-49.5"/>
<text text-anchor="start" x="252" y="-67.5" font-family="Helvetica,sans-Serif" font-size="10.00">LittleWeebLibrary.Models.</text>
<text text-anchor="middle" x="322" y="-56.5" font-family="Helvetica,sans-Serif" font-size="10.00">JsonDataBaseCollection.ToJson</text>
</a>
</g>
</g>
<!-- Node11&#45;&gt;Node17 -->
<g id="edge7" class="edge"><title>Node11&#45;&gt;Node17</title>
<path fill="none" stroke="midnightblue" d="M169.542,-98.4654C193.137,-93.1741 219.836,-87.1867 244.174,-81.7288"/>
<polygon fill="midnightblue" stroke="midnightblue" points="245.093,-85.1097 254.085,-79.5062 243.561,-78.2793 245.093,-85.1097"/>
</g>
<!-- Node18 -->
<g id="node8" class="node"><title>Node18</title>
<g id="a_node8"><a xlink:href="class_little_weeb_library_1_1_models_1_1_json_error.html#a0e3e7dd2e2990404b7f0461742b23440" target="_top" xlink:title="LittleWeebLibrary.Models.\lJsonError.ToJson">
<polygon fill="white" stroke="black" points="257,-0.5 257,-30.5 387,-30.5 387,-0.5 257,-0.5"/>
<text text-anchor="start" x="265" y="-18.5" font-family="Helvetica,sans-Serif" font-size="10.00">LittleWeebLibrary.Models.</text>
<text text-anchor="middle" x="322" y="-7.5" font-family="Helvetica,sans-Serif" font-size="10.00">JsonError.ToJson</text>
</a>
</g>
</g>
<!-- Node11&#45;&gt;Node18 -->
<g id="edge8" class="edge"><title>Node11&#45;&gt;Node18</title>
<path fill="none" stroke="midnightblue" d="M127.437,-98.2475C154.267,-82.2985 198.543,-57.2962 239,-40.5 244.683,-38.1407 250.669,-35.8913 256.712,-33.778"/>
<polygon fill="midnightblue" stroke="midnightblue" points="257.862,-37.084 266.22,-30.5728 255.626,-30.4507 257.862,-37.084"/>
</g>
<!-- Node13 -->
<g id="node3" class="node"><title>Node13</title>
<g id="a_node3"><a xlink:href="class_little_weeb_library_1_1_static_classes_1_1_utility_methods.html#a7b5de7a3ecc749b655fc3ed2af55360b" target="_top" xlink:title="LittleWeebLibrary.Static\lClasses.UtilityMethods.ReadBinaryFile">
<polygon fill="white" stroke="black" points="441,-235.5 441,-265.5 627,-265.5 627,-235.5 441,-235.5"/>
<text text-anchor="start" x="449" y="-253.5" font-family="Helvetica,sans-Serif" font-size="10.00">LittleWeebLibrary.Static</text>
<text text-anchor="middle" x="534" y="-242.5" font-family="Helvetica,sans-Serif" font-size="10.00">Classes.UtilityMethods.ReadBinaryFile</text>
</a>
</g>
</g>
<!-- Node12&#45;&gt;Node13 -->
<g id="edge2" class="edge"><title>Node12&#45;&gt;Node13</title>
<path fill="none" stroke="midnightblue" d="M387.434,-216.535C410.01,-221.802 435.543,-227.76 458.85,-233.198"/>
<polygon fill="midnightblue" stroke="midnightblue" points="458.154,-236.63 468.688,-235.494 459.745,-229.813 458.154,-236.63"/>
</g>
<!-- Node12&#45;&gt;Node14 -->
<g id="edge3" class="edge"><title>Node12&#45;&gt;Node14</title>
<path fill="none" stroke="midnightblue" d="M387.434,-186.465C410.01,-181.198 435.543,-175.24 458.85,-169.802"/>
<polygon fill="midnightblue" stroke="midnightblue" points="459.745,-173.187 468.688,-167.506 458.154,-166.37 459.745,-173.187"/>
</g>
<!-- Node15 -->
<g id="node5" class="node"><title>Node15</title>
<g id="a_node5"><a xlink:href="class_little_weeb_library_1_1_static_classes_1_1_utility_methods.html#a0a86ee01a3bf201bd9cc9b2552e54976" target="_top" xlink:title="LittleWeebLibrary.Static\lClasses.UtilityMethods.Unzip">
<polygon fill="white" stroke="black" points="461.5,-186.5 461.5,-216.5 606.5,-216.5 606.5,-186.5 461.5,-186.5"/>
<text text-anchor="start" x="469.5" y="-204.5" font-family="Helvetica,sans-Serif" font-size="10.00">LittleWeebLibrary.Static</text>
<text text-anchor="middle" x="534" y="-193.5" font-family="Helvetica,sans-Serif" font-size="10.00">Classes.UtilityMethods.Unzip</text>
</a>
</g>
</g>
<!-- Node12&#45;&gt;Node15 -->
<g id="edge4" class="edge"><title>Node12&#45;&gt;Node15</title>
<path fill="none" stroke="midnightblue" d="M399.112,-201.5C416.087,-201.5 434.154,-201.5 451.343,-201.5"/>
<polygon fill="midnightblue" stroke="midnightblue" points="451.347,-205 461.346,-201.5 451.346,-198 451.347,-205"/>
</g>
<!-- Node16&#45;&gt;Node14 -->
<g id="edge6" class="edge"><title>Node16&#45;&gt;Node14</title>
<path fill="none" stroke="midnightblue" d="M403.891,-128.523C419.53,-131.427 435.923,-134.471 451.579,-137.379"/>
<polygon fill="midnightblue" stroke="midnightblue" points="451.274,-140.882 461.745,-139.267 452.552,-134 451.274,-140.882"/>
</g>
</g>
</svg>
