<?xml version="1.0" encoding="UTF-8" standalone="no"?>
<!DOCTYPE svg PUBLIC "-//W3C//DTD SVG 1.1//EN"
 "http://www.w3.org/Graphics/SVG/1.1/DTD/svg11.dtd">
<!-- Generated by graphviz version 2.38.0 (20140413.2041)
 -->
<!-- Title: LittleWeebLibrary.EventArguments.FileHandlerDebugEventArgs Pages: 1 -->
<svg width="178pt" height="204pt"
 viewBox="0.00 0.00 178.00 204.00" xmlns="http://www.w3.org/2000/svg" xmlns:xlink="http://www.w3.org/1999/xlink">
<g id="graph0" class="graph" transform="scale(1 1) rotate(0) translate(4 200)">
<title>LittleWeebLibrary.EventArguments.FileHandlerDebugEventArgs</title>
<polygon fill="white" stroke="none" points="-4,4 -4,-200 174,-200 174,4 -4,4"/>
<!-- Node0 -->
<g id="node1" class="node"><title>Node0</title>
<polygon fill="#bfbfbf" stroke="black" points="0,-0.5 0,-68.5 170,-68.5 170,-0.5 0,-0.5"/>
<text text-anchor="start" x="8" y="-56.5" font-family="Helvetica,sans-Serif" font-size="10.00">LittleWeebLibrary.EventArguments.</text>
<text text-anchor="middle" x="85" y="-45.5" font-family="Helvetica,sans-Serif" font-size="10.00">FileHandlerDebugEventArgs</text>
<polyline fill="none" stroke="black" points="0,-38.5 170,-38.5 "/>
<text text-anchor="middle" x="85" y="-26.5" font-family="Helvetica,sans-Serif" font-size="10.00"> </text>
<polyline fill="none" stroke="black" points="0,-19.5 170,-19.5 "/>
<text text-anchor="middle" x="85" y="-7.5" font-family="Helvetica,sans-Serif" font-size="10.00"> </text>
</g>
<!-- Node1 -->
<g id="node2" class="node"><title>Node1</title>
<g id="a_node2"><a xlink:href="class_little_weeb_library_1_1_event_arguments_1_1_base_debug_args.html" target="_top" xlink:title="{BaseDebugArgs\n|+ DebugMessage\l+ DebugSource\l+ DebugSourceType\l+ DebugType\l|+ ToString()\l}">
<polygon fill="white" stroke="black" points="32.5,-105.5 32.5,-195.5 137.5,-195.5 137.5,-105.5 32.5,-105.5"/>
<text text-anchor="middle" x="85" y="-183.5" font-family="Helvetica,sans-Serif" font-size="10.00">BaseDebugArgs</text>
<polyline fill="none" stroke="black" points="32.5,-176.5 137.5,-176.5 "/>
<text text-anchor="start" x="40.5" y="-164.5" font-family="Helvetica,sans-Serif" font-size="10.00">+ DebugMessage</text>
<text text-anchor="start" x="40.5" y="-153.5" font-family="Helvetica,sans-Serif" font-size="10.00">+ DebugSource</text>
<text text-anchor="start" x="40.5" y="-142.5" font-family="Helvetica,sans-Serif" font-size="10.00">+ DebugSourceType</text>
<text text-anchor="start" x="40.5" y="-131.5" font-family="Helvetica,sans-Serif" font-size="10.00">+ DebugType</text>
<polyline fill="none" stroke="black" points="32.5,-124.5 137.5,-124.5 "/>
<text text-anchor="start" x="40.5" y="-112.5" font-family="Helvetica,sans-Serif" font-size="10.00">+ ToString()</text>
</a>
</g>
</g>
<!-- Node1&#45;&gt;Node0 -->
<g id="edge1" class="edge"><title>Node1&#45;&gt;Node0</title>
<path fill="none" stroke="midnightblue" d="M85,-95.3164C85,-86.2849 85,-77.1589 85,-68.8483"/>
<polygon fill="none" stroke="midnightblue" points="81.5001,-95.4246 85,-105.425 88.5001,-95.4247 81.5001,-95.4246"/>
</g>
</g>
</svg>
