<?xml version="1.0" encoding="UTF-8" standalone="no"?>
<!DOCTYPE svg PUBLIC "-//W3C//DTD SVG 1.1//EN"
 "http://www.w3.org/Graphics/SVG/1.1/DTD/svg11.dtd">
<!-- Generated by graphviz version 2.38.0 (20140413.2041)
 -->
<!-- Title: LittleWeebLibrary.Services.DirectoryWebSocketService.GetDirectories Pages: 1 -->
<svg width="593pt" height="197pt"
 viewBox="0.00 0.00 593.00 197.01" xmlns="http://www.w3.org/2000/svg" xmlns:xlink="http://www.w3.org/1999/xlink">
<g id="graph0" class="graph" transform="scale(1 1) rotate(0) translate(4 193.011)">
<title>LittleWeebLibrary.Services.DirectoryWebSocketService.GetDirectories</title>
<polygon fill="white" stroke="none" points="-4,4 -4,-193.011 589,-193.011 589,4 -4,4"/>
<!-- Node30 -->
<g id="node1" class="node"><title>Node30</title>
<polygon fill="#bfbfbf" stroke="black" points="0,-63.5114 0,-93.5114 203,-93.5114 203,-63.5114 0,-63.5114"/>
<text text-anchor="start" x="8" y="-81.5114" font-family="Helvetica,sans-Serif" font-size="10.00">LittleWeebLibrary.Services.</text>
<text text-anchor="middle" x="101.5" y="-70.5114" font-family="Helvetica,sans-Serif" font-size="10.00">DirectoryWebSocketService.GetDirectories</text>
</g>
<!-- Node31 -->
<g id="node2" class="node"><title>Node31</title>
<g id="a_node2"><a xlink:href="class_little_weeb_library_1_1_handlers_1_1_directory_handler.html#aa9d1414a83cadcf99da2cad30f39b2e3" target="_top" xlink:title="LittleWeebLibrary.Handlers.\lDirectoryHandler.GetDirectories">
<polygon fill="white" stroke="black" points="245,-107.511 245,-137.511 399,-137.511 399,-107.511 245,-107.511"/>
<text text-anchor="start" x="253" y="-125.511" font-family="Helvetica,sans-Serif" font-size="10.00">LittleWeebLibrary.Handlers.</text>
<text text-anchor="middle" x="322" y="-114.511" font-family="Helvetica,sans-Serif" font-size="10.00">DirectoryHandler.GetDirectories</text>
</a>
</g>
</g>
<!-- Node30&#45;&gt;Node31 -->
<g id="edge1" class="edge"><title>Node30&#45;&gt;Node31</title>
<path fill="none" stroke="midnightblue" d="M177.084,-93.5307C196.227,-97.3855 216.953,-101.559 236.555,-105.507"/>
<polygon fill="midnightblue" stroke="midnightblue" points="235.887,-108.942 246.381,-107.485 237.269,-102.08 235.887,-108.942"/>
</g>
<!-- Node33 -->
<g id="node4" class="node"><title>Node33</title>
<g id="a_node4"><a xlink:href="class_little_weeb_library_1_1_models_1_1_json_error.html#a0e3e7dd2e2990404b7f0461742b23440" target="_top" xlink:title="LittleWeebLibrary.Models.\lJsonError.ToJson">
<polygon fill="white" stroke="black" points="448,-158.511 448,-188.511 578,-188.511 578,-158.511 448,-158.511"/>
<text text-anchor="start" x="456" y="-176.511" font-family="Helvetica,sans-Serif" font-size="10.00">LittleWeebLibrary.Models.</text>
<text text-anchor="middle" x="513" y="-165.511" font-family="Helvetica,sans-Serif" font-size="10.00">JsonError.ToJson</text>
</a>
</g>
</g>
<!-- Node30&#45;&gt;Node33 -->
<g id="edge8" class="edge"><title>Node30&#45;&gt;Node33</title>
<path fill="none" stroke="midnightblue" d="M126.068,-93.5974C152.451,-109.669 197.021,-134.423 239,-146.511 304.49,-165.37 382.063,-171.582 437.749,-173.393"/>
<polygon fill="midnightblue" stroke="midnightblue" points="437.788,-176.896 447.884,-173.682 437.988,-169.899 437.788,-176.896"/>
</g>
<!-- Node34 -->
<g id="node5" class="node"><title>Node34</title>
<g id="a_node5"><a xlink:href="class_little_weeb_library_1_1_models_1_1_json_error.html#ad7d5522c90119111d2e929f39e7f6d3c" target="_top" xlink:title="LittleWeebLibrary.Models.\lJsonError.ToString">
<polygon fill="white" stroke="black" points="448,-60.5114 448,-90.5114 578,-90.5114 578,-60.5114 448,-60.5114"/>
<text text-anchor="start" x="456" y="-78.5114" font-family="Helvetica,sans-Serif" font-size="10.00">LittleWeebLibrary.Models.</text>
<text text-anchor="middle" x="513" y="-67.5114" font-family="Helvetica,sans-Serif" font-size="10.00">JsonError.ToString</text>
</a>
</g>
</g>
<!-- Node30&#45;&gt;Node34 -->
<g id="edge9" class="edge"><title>Node30&#45;&gt;Node34</title>
<path fill="none" stroke="midnightblue" d="M203.199,-77.7737C275.694,-77.2426 371.89,-76.5379 437.53,-76.057"/>
<polygon fill="midnightblue" stroke="midnightblue" points="437.82,-79.5551 447.794,-75.9818 437.769,-72.5553 437.82,-79.5551"/>
</g>
<!-- Node35 -->
<g id="node6" class="node"><title>Node35</title>
<g id="a_node6"><a xlink:href="class_little_weeb_library_1_1_handlers_1_1_debug_handler.html#afccb37dfd6b2114af72000c2f4fe4607" target="_top" xlink:title="LittleWeebLibrary.Handlers.\lDebugHandler.TraceMessage">
<polygon fill="white" stroke="black" points="441,-11.5114 441,-41.5114 585,-41.5114 585,-11.5114 441,-11.5114"/>
<text text-anchor="start" x="449" y="-29.5114" font-family="Helvetica,sans-Serif" font-size="10.00">LittleWeebLibrary.Handlers.</text>
<text text-anchor="middle" x="513" y="-18.5114" font-family="Helvetica,sans-Serif" font-size="10.00">DebugHandler.TraceMessage</text>
</a>
</g>
</g>
<!-- Node30&#45;&gt;Node35 -->
<g id="edge10" class="edge"><title>Node30&#45;&gt;Node35</title>
<path fill="none" stroke="midnightblue" d="M124.416,-63.3239C150.381,-46.3391 195.606,-19.8559 239,-9.51145 303.795,5.93468 379.545,-0.649741 434.793,-9.75972"/>
<polygon fill="midnightblue" stroke="midnightblue" points="434.415,-13.246 444.863,-11.4854 435.598,-6.34655 434.415,-13.246"/>
</g>
<!-- Node36 -->
<g id="node7" class="node"><title>Node36</title>
<g id="a_node7"><a xlink:href="class_little_weeb_library_1_1_handlers_1_1_web_socket_handler.html#a1de289d54d665a32c93478c68d3e6ad0" target="_top" xlink:title="LittleWeebLibrary.Handlers.\lWebSocketHandler.SendMessage">
<polygon fill="white" stroke="black" points="239,-19.5114 239,-49.5114 405,-49.5114 405,-19.5114 239,-19.5114"/>
<text text-anchor="start" x="247" y="-37.5114" font-family="Helvetica,sans-Serif" font-size="10.00">LittleWeebLibrary.Handlers.</text>
<text text-anchor="middle" x="322" y="-26.5114" font-family="Helvetica,sans-Serif" font-size="10.00">WebSocketHandler.SendMessage</text>
</a>
</g>
</g>
<!-- Node30&#45;&gt;Node36 -->
<g id="edge6" class="edge"><title>Node30&#45;&gt;Node36</title>
<path fill="none" stroke="midnightblue" d="M177.084,-63.4922C196.227,-59.6374 216.953,-55.4636 236.555,-51.5163"/>
<polygon fill="midnightblue" stroke="midnightblue" points="237.269,-54.943 246.381,-49.5377 235.887,-48.0807 237.269,-54.943"/>
</g>
<!-- Node32 -->
<g id="node3" class="node"><title>Node32</title>
<g id="a_node3"><a xlink:href="class_little_weeb_library_1_1_models_1_1_json_directory.html#a3527cf5cff598f63b5f95cf7d6158b55" target="_top" xlink:title="LittleWeebLibrary.Models.\lJsonDirectory.ToJson">
<polygon fill="white" stroke="black" points="448,-109.511 448,-139.511 578,-139.511 578,-109.511 448,-109.511"/>
<text text-anchor="start" x="456" y="-127.511" font-family="Helvetica,sans-Serif" font-size="10.00">LittleWeebLibrary.Models.</text>
<text text-anchor="middle" x="513" y="-116.511" font-family="Helvetica,sans-Serif" font-size="10.00">JsonDirectory.ToJson</text>
</a>
</g>
</g>
<!-- Node31&#45;&gt;Node32 -->
<g id="edge2" class="edge"><title>Node31&#45;&gt;Node32</title>
<path fill="none" stroke="midnightblue" d="M399.057,-123.316C411.845,-123.452 425.102,-123.592 437.841,-123.727"/>
<polygon fill="midnightblue" stroke="midnightblue" points="437.891,-127.227 447.928,-123.833 437.965,-120.228 437.891,-127.227"/>
</g>
<!-- Node31&#45;&gt;Node33 -->
<g id="edge3" class="edge"><title>Node31&#45;&gt;Node33</title>
<path fill="none" stroke="midnightblue" d="M378.684,-137.537C400.025,-143.296 424.564,-149.918 446.724,-155.897"/>
<polygon fill="midnightblue" stroke="midnightblue" points="445.821,-159.279 456.388,-158.505 447.645,-152.521 445.821,-159.279"/>
</g>
<!-- Node31&#45;&gt;Node34 -->
<g id="edge4" class="edge"><title>Node31&#45;&gt;Node34</title>
<path fill="none" stroke="midnightblue" d="M383.32,-107.511C401.904,-102.89 422.525,-97.7619 441.717,-92.9893"/>
<polygon fill="midnightblue" stroke="midnightblue" points="442.745,-96.3404 451.604,-90.5305 441.055,-89.5473 442.745,-96.3404"/>
</g>
<!-- Node31&#45;&gt;Node35 -->
<g id="edge5" class="edge"><title>Node31&#45;&gt;Node35</title>
<path fill="none" stroke="midnightblue" d="M344.371,-107.463C367.41,-91.7275 405.557,-67.064 441,-50.5114 444.846,-48.7152 448.865,-46.9869 452.951,-45.3386"/>
<polygon fill="midnightblue" stroke="midnightblue" points="454.478,-48.5012 462.553,-41.643 451.963,-41.9683 454.478,-48.5012"/>
</g>
<!-- Node36&#45;&gt;Node35 -->
<g id="edge7" class="edge"><title>Node36&#45;&gt;Node35</title>
<path fill="none" stroke="midnightblue" d="M405.074,-31.0374C413.572,-30.6777 422.208,-30.3122 430.698,-29.9528"/>
<polygon fill="midnightblue" stroke="midnightblue" points="431.121,-33.4381 440.964,-29.5183 430.825,-26.4444 431.121,-33.4381"/>
</g>
</g>
</svg>
