<?xml version="1.0" encoding="UTF-8" standalone="no"?>
<!DOCTYPE svg PUBLIC "-//W3C//DTD SVG 1.1//EN"
 "http://www.w3.org/Graphics/SVG/1.1/DTD/svg11.dtd">
<!-- Generated by graphviz version 2.38.0 (20140413.2041)
 -->
<!-- Title: LittleWeebLibrary.StaticClasses.UtilityMethods.GetEpoch Pages: 1 -->
<!--zoomable 170 -->
<svg id="main" version="1.1" xmlns="http://www.w3.org/2000/svg" xmlns:xlink="http://www.w3.org/1999/xlink" xml:space="preserve" onload="init(evt)">
<style type="text/css"><![CDATA[
.edge:hover path { stroke: red; }
.edge:hover polygon { stroke: red; fill: red; }
]]></style>
<script type="text/javascript"><![CDATA[
var edges = document.getElementsByTagName('g');
if (edges && edges.length) {
  for (var i=0;i<edges.length;i++) {
    if (edges[i].id.substr(0,4)=='edge') {
      edges[i].setAttribute('class','edge');
    }
  }
}
]]></script>
        <defs>
                <circle id="rim" cx="0" cy="0" r="7"/>
                <circle id="rim2" cx="0" cy="0" r="3.5"/>
                <g id="zoomPlus">
                        <use xlink:href="#rim" fill="#404040">
                                <set attributeName="fill" to="#808080" begin="zoomplus.mouseover" end="zoomplus.mouseout"/>
                        </use>
                        <path d="M-4,0h8M0,-4v8" fill="none" stroke="white" stroke-width="1.5" pointer-events="none"/>
                </g>
                <g id="zoomMin">
                        <use xlink:href="#rim" fill="#404040">
                                <set attributeName="fill" to="#808080" begin="zoomminus.mouseover" end="zoomminus.mouseout"/>
                        </use>
                        <path d="M-4,0h8" fill="none" stroke="white" stroke-width="1.5" pointer-events="none"/>
                </g>
                <g id="dirArrow">
                        <path fill="none" stroke="white" stroke-width="1.5" d="M0,-3.0v7 M-2.5,-0.5L0,-3.0L2.5,-0.5"/>
                </g>
               <g id="resetDef">
                       <use xlink:href="#rim2" fill="#404040">
                               <set attributeName="fill" to="#808080" begin="reset.mouseover" end="reset.mouseout"/>
                       </use>
               </g>
        </defs>

<script type="text/javascript">
var viewWidth = 865;
var viewHeight = 170;
var sectionId = 'dynsection-2';
</script>
<script xlink:href="svgpan.js"/>
<svg id="graph" class="graph">
<g id="viewport">
<title>LittleWeebLibrary.StaticClasses.UtilityMethods.GetEpoch</title>
<polygon fill="white" stroke="none" points="-4,4 -4,-166 861,-166 861,4 -4,4"/>
<!-- Node4 -->
<g id="node1" class="node"><title>Node4</title>
<polygon fill="#bfbfbf" stroke="black" points="0,-66 0,-96 164,-96 164,-66 0,-66"/>
<text text-anchor="start" x="8" y="-84" font-family="Helvetica,sans-Serif" font-size="10.00">LittleWeebLibrary.Static</text>
<text text-anchor="middle" x="82" y="-73" font-family="Helvetica,sans-Serif" font-size="10.00">Classes.UtilityMethods.GetEpoch</text>
</g>
<!-- Node5 -->
<g id="node2" class="node"><title>Node5</title>
<g id="a_node2"><a xlink:href="class_little_weeb_library_1_1_handlers_1_1_anime_profile_handler.html#a5b163eb7e68b1e40904fa55454d8ba54" target="_top" xlink:title="LittleWeebLibrary.Handlers.\lAnimeProfileHandler.GetAnimeEpisodes">
<polygon fill="white" stroke="black" points="200,-120 200,-150 391,-150 391,-120 200,-120"/>
<text text-anchor="start" x="208" y="-138" font-family="Helvetica,sans-Serif" font-size="10.00">LittleWeebLibrary.Handlers.</text>
<text text-anchor="middle" x="295.5" y="-127" font-family="Helvetica,sans-Serif" font-size="10.00">AnimeProfileHandler.GetAnimeEpisodes</text>
</a>
</g>
</g>
<!-- Node4&#45;&gt;Node5 -->
<g id="edge1" class="edge"><title>Node4&#45;&gt;Node5</title>
<path fill="none" stroke="midnightblue" d="M151.699,-98.5401C178.753,-105.448 209.511,-113.301 235.535,-119.945"/>
<polygon fill="midnightblue" stroke="midnightblue" points="152.47,-95.1247 141.915,-96.042 150.738,-101.907 152.47,-95.1247"/>
</g>
<!-- Node8 -->
<g id="node5" class="node"><title>Node8</title>
<g id="a_node5"><a xlink:href="class_little_weeb_library_1_1_handlers_1_1_anime_profile_handler.html#aaa89fba506cfcdad18a5aa3f9b860061" target="_top" xlink:title="LittleWeebLibrary.Handlers.\lAnimeProfileHandler.GetAnimeProfile">
<polygon fill="white" stroke="black" points="206.5,-66 206.5,-96 384.5,-96 384.5,-66 206.5,-66"/>
<text text-anchor="start" x="214.5" y="-84" font-family="Helvetica,sans-Serif" font-size="10.00">LittleWeebLibrary.Handlers.</text>
<text text-anchor="middle" x="295.5" y="-73" font-family="Helvetica,sans-Serif" font-size="10.00">AnimeProfileHandler.GetAnimeProfile</text>
</a>
</g>
</g>
<!-- Node4&#45;&gt;Node8 -->
<g id="edge4" class="edge"><title>Node4&#45;&gt;Node8</title>
<path fill="none" stroke="midnightblue" d="M174.243,-81C184.831,-81 195.616,-81 206.164,-81"/>
<polygon fill="midnightblue" stroke="midnightblue" points="174.167,-77.5001 164.167,-81 174.167,-84.5001 174.167,-77.5001"/>
</g>
<!-- Node10 -->
<g id="node7" class="node"><title>Node10</title>
<g id="a_node7"><a xlink:href="class_little_weeb_library_1_1_handlers_1_1_anime_profile_handler.html#a7469a40799e1067d871ba87679f54c37" target="_top" xlink:title="LittleWeebLibrary.Handlers.\lAnimeProfileHandler.GetCurrently\lAiring">
<polygon fill="white" stroke="black" points="214.5,-3.5 214.5,-44.5 376.5,-44.5 376.5,-3.5 214.5,-3.5"/>
<text text-anchor="start" x="222.5" y="-32.5" font-family="Helvetica,sans-Serif" font-size="10.00">LittleWeebLibrary.Handlers.</text>
<text text-anchor="start" x="222.5" y="-21.5" font-family="Helvetica,sans-Serif" font-size="10.00">AnimeProfileHandler.GetCurrently</text>
<text text-anchor="middle" x="295.5" y="-10.5" font-family="Helvetica,sans-Serif" font-size="10.00">Airing</text>
</a>
</g>
</g>
<!-- Node4&#45;&gt;Node10 -->
<g id="edge7" class="edge"><title>Node4&#45;&gt;Node10</title>
<path fill="none" stroke="midnightblue" d="M148.775,-63.2734C170.84,-57.3268 195.627,-50.6466 218.415,-44.5052"/>
<polygon fill="midnightblue" stroke="midnightblue" points="147.59,-59.9677 138.846,-65.9494 149.412,-66.7265 147.59,-59.9677"/>
</g>
<!-- Node6 -->
<g id="node3" class="node"><title>Node6</title>
<g id="a_node3"><a xlink:href="class_little_weeb_library_1_1_services_1_1_info_api_web_socket_service.html#a754f738fba586cc927d64251329c736a" target="_top" xlink:title="LittleWeebLibrary.Services.\lInfoApiWebSocketService.GetAnime\lEpisodes">
<polygon fill="white" stroke="black" points="432.5,-120.5 432.5,-161.5 607.5,-161.5 607.5,-120.5 432.5,-120.5"/>
<text text-anchor="start" x="440.5" y="-149.5" font-family="Helvetica,sans-Serif" font-size="10.00">LittleWeebLibrary.Services.</text>
<text text-anchor="start" x="440.5" y="-138.5" font-family="Helvetica,sans-Serif" font-size="10.00">InfoApiWebSocketService.GetAnime</text>
<text text-anchor="middle" x="520" y="-127.5" font-family="Helvetica,sans-Serif" font-size="10.00">Episodes</text>
</a>
</g>
</g>
<!-- Node5&#45;&gt;Node6 -->
<g id="edge2" class="edge"><title>Node5&#45;&gt;Node6</title>
<path fill="none" stroke="midnightblue" d="M401.435,-137.83C411.724,-138.107 422.085,-138.387 432.165,-138.658"/>
<polygon fill="midnightblue" stroke="midnightblue" points="401.273,-134.324 391.183,-137.553 401.085,-141.322 401.273,-134.324"/>
</g>
<!-- Node7 -->
<g id="node4" class="node"><title>Node7</title>
<g id="a_node4"><a xlink:href="class_little_weeb_library_1_1_controllers_1_1_sub_controllers_1_1_info_api_web_socket_controller.html#ad620537574b819085ff8eb394add2912" target="_top" xlink:title="LittleWeebLibrary.Controllers.\lSubControllers.InfoApiWebSocketController.\lOnWebSocketEvent">
<polygon fill="white" stroke="black" points="649,-60.5 649,-101.5 857,-101.5 857,-60.5 649,-60.5"/>
<text text-anchor="start" x="657" y="-89.5" font-family="Helvetica,sans-Serif" font-size="10.00">LittleWeebLibrary.Controllers.</text>
<text text-anchor="start" x="657" y="-78.5" font-family="Helvetica,sans-Serif" font-size="10.00">SubControllers.InfoApiWebSocketController.</text>
<text text-anchor="middle" x="753" y="-67.5" font-family="Helvetica,sans-Serif" font-size="10.00">OnWebSocketEvent</text>
</a>
</g>
</g>
<!-- Node6&#45;&gt;Node7 -->
<g id="edge3" class="edge"><title>Node6&#45;&gt;Node7</title>
<path fill="none" stroke="midnightblue" d="M609.93,-117.901C630.68,-112.512 652.64,-106.808 672.93,-101.538"/>
<polygon fill="midnightblue" stroke="midnightblue" points="608.973,-114.534 600.174,-120.435 610.733,-121.309 608.973,-114.534"/>
</g>
<!-- Node9 -->
<g id="node6" class="node"><title>Node9</title>
<g id="a_node6"><a xlink:href="class_little_weeb_library_1_1_services_1_1_info_api_web_socket_service.html#a12f4d83332b28988ce0e2bc5ff3ed369" target="_top" xlink:title="LittleWeebLibrary.Services.\lInfoApiWebSocketService.GetAnime\lProfile">
<polygon fill="white" stroke="black" points="432.5,-60.5 432.5,-101.5 607.5,-101.5 607.5,-60.5 432.5,-60.5"/>
<text text-anchor="start" x="440.5" y="-89.5" font-family="Helvetica,sans-Serif" font-size="10.00">LittleWeebLibrary.Services.</text>
<text text-anchor="start" x="440.5" y="-78.5" font-family="Helvetica,sans-Serif" font-size="10.00">InfoApiWebSocketService.GetAnime</text>
<text text-anchor="middle" x="520" y="-67.5" font-family="Helvetica,sans-Serif" font-size="10.00">Profile</text>
</a>
</g>
</g>
<!-- Node8&#45;&gt;Node9 -->
<g id="edge5" class="edge"><title>Node8&#45;&gt;Node9</title>
<path fill="none" stroke="midnightblue" d="M395.106,-81C407.502,-81 420.11,-81 432.303,-81"/>
<polygon fill="midnightblue" stroke="midnightblue" points="394.757,-77.5001 384.757,-81 394.757,-84.5001 394.757,-77.5001"/>
</g>
<!-- Node9&#45;&gt;Node7 -->
<g id="edge6" class="edge"><title>Node9&#45;&gt;Node7</title>
<path fill="none" stroke="midnightblue" d="M617.847,-81C628.1,-81 638.555,-81 648.876,-81"/>
<polygon fill="midnightblue" stroke="midnightblue" points="617.673,-77.5001 607.673,-81 617.673,-84.5001 617.673,-77.5001"/>
</g>
<!-- Node11 -->
<g id="node8" class="node"><title>Node11</title>
<g id="a_node8"><a xlink:href="class_little_weeb_library_1_1_services_1_1_info_api_web_socket_service.html#aec42147d67551cb17c458453ef40f3bc" target="_top" xlink:title="LittleWeebLibrary.Services.\lInfoApiWebSocketService.GetCurrently\lAiring">
<polygon fill="white" stroke="black" points="427,-0.5 427,-41.5 613,-41.5 613,-0.5 427,-0.5"/>
<text text-anchor="start" x="435" y="-29.5" font-family="Helvetica,sans-Serif" font-size="10.00">LittleWeebLibrary.Services.</text>
<text text-anchor="start" x="435" y="-18.5" font-family="Helvetica,sans-Serif" font-size="10.00">InfoApiWebSocketService.GetCurrently</text>
<text text-anchor="middle" x="520" y="-7.5" font-family="Helvetica,sans-Serif" font-size="10.00">Airing</text>
</a>
</g>
</g>
<!-- Node10&#45;&gt;Node11 -->
<g id="edge8" class="edge"><title>Node10&#45;&gt;Node11</title>
<path fill="none" stroke="midnightblue" d="M386.566,-22.7856C399.837,-22.6067 413.524,-22.4221 426.836,-22.2427"/>
<polygon fill="midnightblue" stroke="midnightblue" points="386.465,-19.2866 376.513,-22.9212 386.56,-26.2859 386.465,-19.2866"/>
</g>
<!-- Node11&#45;&gt;Node7 -->
<g id="edge9" class="edge"><title>Node11&#45;&gt;Node7</title>
<path fill="none" stroke="midnightblue" d="M609.93,-44.0987C630.68,-49.4884 652.64,-55.1923 672.93,-60.4622"/>
<polygon fill="midnightblue" stroke="midnightblue" points="610.733,-40.6911 600.174,-41.5647 608.973,-47.4663 610.733,-40.6911"/>
</g>
</g>
</svg>
        <g id="navigator" transform="translate(0 0)" fill="#404254">
                <rect fill="#f2f5e9" fill-opacity="0.5" stroke="#606060" stroke-width=".5" x="0" y="0" width="60" height="60"/>
                <use id="zoomplus" xlink:href="#zoomPlus" x="17" y="9" onmousedown="handleZoom(evt,'in')"/>
                <use id="zoomminus" xlink:href="#zoomMin" x="42" y="9" onmousedown="handleZoom(evt,'out')"/>
                <use id="reset" xlink:href="#resetDef" x="30" y="36" onmousedown="handleReset()"/>
                <g id="arrowUp" xlink:href="#dirArrow" transform="translate(30 24)" onmousedown="handlePan(0,-1)">
                  <use xlink:href="#rim" fill="#404040">
                        <set attributeName="fill" to="#808080" begin="arrowUp.mouseover" end="arrowUp.mouseout"/>
                  </use>
                  <path fill="none" stroke="white" stroke-width="1.5" d="M0,-3.0v7 M-2.5,-0.5L0,-3.0L2.5,-0.5"/>
                </g>
                <g id="arrowRight" xlink:href="#dirArrow" transform="rotate(90) translate(36 -43)" onmousedown="handlePan(1,0)">
                  <use xlink:href="#rim" fill="#404040">
                        <set attributeName="fill" to="#808080" begin="arrowRight.mouseover" end="arrowRight.mouseout"/>
                  </use>
                  <path fill="none" stroke="white" stroke-width="1.5" d="M0,-3.0v7 M-2.5,-0.5L0,-3.0L2.5,-0.5"/>
                </g>
                <g id="arrowDown" xlink:href="#dirArrow" transform="rotate(180) translate(-30 -48)" onmousedown="handlePan(0,1)">
                  <use xlink:href="#rim" fill="#404040">
                        <set attributeName="fill" to="#808080" begin="arrowDown.mouseover" end="arrowDown.mouseout"/>
                  </use>
                  <path fill="none" stroke="white" stroke-width="1.5" d="M0,-3.0v7 M-2.5,-0.5L0,-3.0L2.5,-0.5"/>
                </g>
                <g id="arrowLeft" xlink:href="#dirArrow" transform="rotate(270) translate(-36 17)" onmousedown="handlePan(-1,0)">
                  <use xlink:href="#rim" fill="#404040">
                        <set attributeName="fill" to="#808080" begin="arrowLeft.mouseover" end="arrowLeft.mouseout"/>
                  </use>
                  <path fill="none" stroke="white" stroke-width="1.5" d="M0,-3.0v7 M-2.5,-0.5L0,-3.0L2.5,-0.5"/>
                </g>
        </g>
        <svg viewBox="0 0 15 15" width="100%" height="30px" preserveAspectRatio="xMaxYMin meet">
         <g id="arrow_out" transform="scale(0.3 0.3)">
          <a xlink:href="class_little_weeb_library_1_1_static_classes_1_1_utility_methods_a12336d9e64983ddabaad8950486fafb2_icgraph_org.svg" target="_base">
           <rect id="button" ry="5" rx="5" y="6" x="6" height="38" width="38"
                fill="#f2f5e9" fill-opacity="0.5" stroke="#606060" stroke-width="1.0"/>
           <path id="arrow"
             d="M 11.500037,31.436501 C 11.940474,20.09759 22.043105,11.32322 32.158766,21.979434 L 37.068811,17.246167 C 37.068811,17.246167 37.088388,32 37.088388,32 L 22.160133,31.978069 C 22.160133,31.978069 26.997745,27.140456 26.997745,27.140456 C 18.528582,18.264221 13.291696,25.230495 11.500037,31.436501 z"
             style="fill:#404040;"/>
          </a>
         </g>
        </svg>
</svg>
