<?xml version="1.0" encoding="UTF-8" standalone="no"?>
<!DOCTYPE svg PUBLIC "-//W3C//DTD SVG 1.1//EN"
 "http://www.w3.org/Graphics/SVG/1.1/DTD/svg11.dtd">
<!-- Generated by graphviz version 2.38.0 (20140413.2041)
 -->
<!-- Title: LittleWeebLibrary.Models.JsonDownloadQueue.ToJObject Pages: 1 -->
<svg width="865pt" height="198pt"
 viewBox="0.00 0.00 865.00 198.00" xmlns="http://www.w3.org/2000/svg" xmlns:xlink="http://www.w3.org/1999/xlink">
<g id="graph0" class="graph" transform="scale(1 1) rotate(0) translate(4 194)">
<title>LittleWeebLibrary.Models.JsonDownloadQueue.ToJObject</title>
<polygon fill="white" stroke="none" points="-4,4 -4,-194 861,-194 861,4 -4,4"/>
<!-- Node5 -->
<g id="node1" class="node"><title>Node5</title>
<polygon fill="#bfbfbf" stroke="black" points="0,-110.5 0,-140.5 154,-140.5 154,-110.5 0,-110.5"/>
<text text-anchor="start" x="8" y="-128.5" font-family="Helvetica,sans-Serif" font-size="10.00">LittleWeebLibrary.Models.</text>
<text text-anchor="middle" x="77" y="-117.5" font-family="Helvetica,sans-Serif" font-size="10.00">JsonDownloadQueue.ToJObject</text>
</g>
<!-- Node6 -->
<g id="node2" class="node"><title>Node6</title>
<g id="a_node2"><a xlink:href="class_little_weeb_library_1_1_handlers_1_1_download_handler.html#ad28cb47c19cac5e761ceff86ea021a02" target="_top" xlink:title="LittleWeebLibrary.Handlers.\lDownloadHandler.AddDownload">
<polygon fill="white" stroke="black" points="198.5,-159.5 198.5,-189.5 352.5,-189.5 352.5,-159.5 198.5,-159.5"/>
<text text-anchor="start" x="206.5" y="-177.5" font-family="Helvetica,sans-Serif" font-size="10.00">LittleWeebLibrary.Handlers.</text>
<text text-anchor="middle" x="275.5" y="-166.5" font-family="Helvetica,sans-Serif" font-size="10.00">DownloadHandler.AddDownload</text>
</a>
</g>
</g>
<!-- Node5&#45;&gt;Node6 -->
<g id="edge1" class="edge"><title>Node5&#45;&gt;Node6</title>
<path fill="none" stroke="midnightblue" d="M148.086,-142.977C169.743,-148.377 193.396,-154.276 214.322,-159.494"/>
<polygon fill="midnightblue" stroke="midnightblue" points="148.842,-139.558 138.292,-140.535 147.148,-146.35 148.842,-139.558"/>
</g>
<!-- Node9 -->
<g id="node5" class="node"><title>Node9</title>
<g id="a_node5"><a xlink:href="class_little_weeb_library_1_1_handlers_1_1_download_handler.html#ac03f2dc024c0884bb7bd1c68ee03142e" target="_top" xlink:title="LittleWeebLibrary.Handlers.\lDownloadHandler.AddDownloads">
<polygon fill="white" stroke="black" points="196,-110.5 196,-140.5 355,-140.5 355,-110.5 196,-110.5"/>
<text text-anchor="start" x="204" y="-128.5" font-family="Helvetica,sans-Serif" font-size="10.00">LittleWeebLibrary.Handlers.</text>
<text text-anchor="middle" x="275.5" y="-117.5" font-family="Helvetica,sans-Serif" font-size="10.00">DownloadHandler.AddDownloads</text>
</a>
</g>
</g>
<!-- Node5&#45;&gt;Node9 -->
<g id="edge4" class="edge"><title>Node5&#45;&gt;Node9</title>
<path fill="none" stroke="midnightblue" d="M164.542,-125.5C174.906,-125.5 185.447,-125.5 195.694,-125.5"/>
<polygon fill="midnightblue" stroke="midnightblue" points="164.253,-122 154.253,-125.5 164.253,-129 164.253,-122"/>
</g>
<!-- Node11 -->
<g id="node7" class="node"><title>Node11</title>
<g id="a_node7"><a xlink:href="class_little_weeb_library_1_1_handlers_1_1_download_handler.html#aac22841386d098daef366cbe05262187" target="_top" xlink:title="LittleWeebLibrary.Handlers.\lDownloadHandler.RemoveDownload">
<polygon fill="white" stroke="black" points="190,-55.5 190,-85.5 361,-85.5 361,-55.5 190,-55.5"/>
<text text-anchor="start" x="198" y="-73.5" font-family="Helvetica,sans-Serif" font-size="10.00">LittleWeebLibrary.Handlers.</text>
<text text-anchor="middle" x="275.5" y="-62.5" font-family="Helvetica,sans-Serif" font-size="10.00">DownloadHandler.RemoveDownload</text>
</a>
</g>
</g>
<!-- Node5&#45;&gt;Node11 -->
<g id="edge7" class="edge"><title>Node5&#45;&gt;Node11</title>
<path fill="none" stroke="midnightblue" d="M141.331,-107.774C166.986,-100.593 196.293,-92.3899 220.87,-85.5108"/>
<polygon fill="midnightblue" stroke="midnightblue" points="140.381,-104.405 131.694,-110.471 142.268,-111.146 140.381,-104.405"/>
</g>
<!-- Node7 -->
<g id="node3" class="node"><title>Node7</title>
<g id="a_node3"><a xlink:href="class_little_weeb_library_1_1_services_1_1_download_web_socket_service.html#a7aaa1db63ee81a2e5246e45ef8643087" target="_top" xlink:title="LittleWeebLibrary.Services.\lDownloadWebSocketService.AddDownload">
<polygon fill="white" stroke="black" points="400,-159.5 400,-189.5 603,-189.5 603,-159.5 400,-159.5"/>
<text text-anchor="start" x="408" y="-177.5" font-family="Helvetica,sans-Serif" font-size="10.00">LittleWeebLibrary.Services.</text>
<text text-anchor="middle" x="501.5" y="-166.5" font-family="Helvetica,sans-Serif" font-size="10.00">DownloadWebSocketService.AddDownload</text>
</a>
</g>
</g>
<!-- Node6&#45;&gt;Node7 -->
<g id="edge2" class="edge"><title>Node6&#45;&gt;Node7</title>
<path fill="none" stroke="midnightblue" d="M362.765,-174.5C374.944,-174.5 387.553,-174.5 399.972,-174.5"/>
<polygon fill="midnightblue" stroke="midnightblue" points="362.649,-171 352.649,-174.5 362.649,-178 362.649,-171"/>
</g>
<!-- Node8 -->
<g id="node4" class="node"><title>Node8</title>
<g id="a_node4"><a xlink:href="class_little_weeb_library_1_1_controllers_1_1_download_web_socket_controller.html#a9e5e421ed57b8b2a294e17d93d027c53" target="_top" xlink:title="LittleWeebLibrary.Controllers.\lDownloadWebSocketController.OnWeb\lSocketEvent">
<polygon fill="white" stroke="black" points="656,-105 656,-146 843,-146 843,-105 656,-105"/>
<text text-anchor="start" x="664" y="-134" font-family="Helvetica,sans-Serif" font-size="10.00">LittleWeebLibrary.Controllers.</text>
<text text-anchor="start" x="664" y="-123" font-family="Helvetica,sans-Serif" font-size="10.00">DownloadWebSocketController.OnWeb</text>
<text text-anchor="middle" x="749.5" y="-112" font-family="Helvetica,sans-Serif" font-size="10.00">SocketEvent</text>
</a>
</g>
</g>
<!-- Node7&#45;&gt;Node8 -->
<g id="edge3" class="edge"><title>Node7&#45;&gt;Node8</title>
<path fill="none" stroke="midnightblue" d="M587.918,-157.486C609.844,-153.118 633.532,-148.4 655.806,-143.963"/>
<polygon fill="midnightblue" stroke="midnightblue" points="587.103,-154.079 577.98,-159.465 588.471,-160.944 587.103,-154.079"/>
</g>
<!-- Node10 -->
<g id="node6" class="node"><title>Node10</title>
<g id="a_node6"><a xlink:href="class_little_weeb_library_1_1_services_1_1_download_web_socket_service.html#ad6afd5ee42650d16c67790c6d2ac80c1" target="_top" xlink:title="LittleWeebLibrary.Services.\lDownloadWebSocketService.AddDownloads">
<polygon fill="white" stroke="black" points="397,-110.5 397,-140.5 606,-140.5 606,-110.5 397,-110.5"/>
<text text-anchor="start" x="405" y="-128.5" font-family="Helvetica,sans-Serif" font-size="10.00">LittleWeebLibrary.Services.</text>
<text text-anchor="middle" x="501.5" y="-117.5" font-family="Helvetica,sans-Serif" font-size="10.00">DownloadWebSocketService.AddDownloads</text>
</a>
</g>
</g>
<!-- Node9&#45;&gt;Node10 -->
<g id="edge5" class="edge"><title>Node9&#45;&gt;Node10</title>
<path fill="none" stroke="midnightblue" d="M365.395,-125.5C375.736,-125.5 386.352,-125.5 396.869,-125.5"/>
<polygon fill="midnightblue" stroke="midnightblue" points="365.159,-122 355.159,-125.5 365.159,-129 365.159,-122"/>
</g>
<!-- Node10&#45;&gt;Node8 -->
<g id="edge6" class="edge"><title>Node10&#45;&gt;Node8</title>
<path fill="none" stroke="midnightblue" d="M616.244,-125.5C629.543,-125.5 642.987,-125.5 655.95,-125.5"/>
<polygon fill="midnightblue" stroke="midnightblue" points="616.113,-122 606.113,-125.5 616.113,-129 616.113,-122"/>
</g>
<!-- Node12 -->
<g id="node8" class="node"><title>Node12</title>
<g id="a_node8"><a xlink:href="class_little_weeb_library_1_1_services_1_1_file_web_socket_service.html#ab1375e8e82a50dfa06d91bebe988d133" target="_top" xlink:title="LittleWeebLibrary.Services.\lFileWebSocketService.DeleteFile">
<polygon fill="white" stroke="black" points="421,-0.5 421,-30.5 582,-30.5 582,-0.5 421,-0.5"/>
<text text-anchor="start" x="429" y="-18.5" font-family="Helvetica,sans-Serif" font-size="10.00">LittleWeebLibrary.Services.</text>
<text text-anchor="middle" x="501.5" y="-7.5" font-family="Helvetica,sans-Serif" font-size="10.00">FileWebSocketService.DeleteFile</text>
</a>
</g>
</g>
<!-- Node11&#45;&gt;Node12 -->
<g id="edge8" class="edge"><title>Node11&#45;&gt;Node12</title>
<path fill="none" stroke="midnightblue" d="M346.669,-52.9426C363.172,-48.8376 380.701,-44.4974 397,-40.5 410.286,-37.2417 424.539,-33.7782 438.09,-30.5003"/>
<polygon fill="midnightblue" stroke="midnightblue" points="345.404,-49.6506 336.546,-55.463 347.096,-56.4432 345.404,-49.6506"/>
</g>
<!-- Node14 -->
<g id="node10" class="node"><title>Node14</title>
<g id="a_node10"><a xlink:href="class_little_weeb_library_1_1_services_1_1_download_web_socket_service.html#a3bc6b4176561f56b918e75527c7698d0" target="_top" xlink:title="LittleWeebLibrary.Services.\lDownloadWebSocketService.Remove\lDownload">
<polygon fill="white" stroke="black" points="412,-50 412,-91 591,-91 591,-50 412,-50"/>
<text text-anchor="start" x="420" y="-79" font-family="Helvetica,sans-Serif" font-size="10.00">LittleWeebLibrary.Services.</text>
<text text-anchor="start" x="420" y="-68" font-family="Helvetica,sans-Serif" font-size="10.00">DownloadWebSocketService.Remove</text>
<text text-anchor="middle" x="501.5" y="-57" font-family="Helvetica,sans-Serif" font-size="10.00">Download</text>
</a>
</g>
</g>
<!-- Node11&#45;&gt;Node14 -->
<g id="edge10" class="edge"><title>Node11&#45;&gt;Node14</title>
<path fill="none" stroke="midnightblue" d="M371.394,-70.5C384.847,-70.5 398.638,-70.5 411.964,-70.5"/>
<polygon fill="midnightblue" stroke="midnightblue" points="371.185,-67.0001 361.185,-70.5 371.185,-74.0001 371.185,-67.0001"/>
</g>
<!-- Node13 -->
<g id="node9" class="node"><title>Node13</title>
<g id="a_node9"><a xlink:href="class_little_weeb_library_1_1_controllers_1_1_file_web_socket_controller.html#a9ecdec41f15ac23a56c402ff2c554a08" target="_top" xlink:title="LittleWeebLibrary.Controllers.\lFileWebSocketController.OnWebSocketEvent">
<polygon fill="white" stroke="black" points="642,-0.5 642,-30.5 857,-30.5 857,-0.5 642,-0.5"/>
<text text-anchor="start" x="650" y="-18.5" font-family="Helvetica,sans-Serif" font-size="10.00">LittleWeebLibrary.Controllers.</text>
<text text-anchor="middle" x="749.5" y="-7.5" font-family="Helvetica,sans-Serif" font-size="10.00">FileWebSocketController.OnWebSocketEvent</text>
</a>
</g>
</g>
<!-- Node12&#45;&gt;Node13 -->
<g id="edge9" class="edge"><title>Node12&#45;&gt;Node13</title>
<path fill="none" stroke="midnightblue" d="M592.463,-15.5C608.538,-15.5 625.427,-15.5 641.914,-15.5"/>
<polygon fill="midnightblue" stroke="midnightblue" points="592.029,-12.0001 582.029,-15.5 592.029,-19.0001 592.029,-12.0001"/>
</g>
<!-- Node14&#45;&gt;Node8 -->
<g id="edge11" class="edge"><title>Node14&#45;&gt;Node8</title>
<path fill="none" stroke="midnightblue" d="M601.091,-92.5426C619.381,-96.6319 638.421,-100.889 656.505,-104.932"/>
<polygon fill="midnightblue" stroke="midnightblue" points="601.834,-89.1226 591.312,-90.3563 600.307,-95.9539 601.834,-89.1226"/>
</g>
</g>
</svg>
