<?xml version="1.0" encoding="UTF-8" standalone="no"?>
<!DOCTYPE svg PUBLIC "-//W3C//DTD SVG 1.1//EN"
 "http://www.w3.org/Graphics/SVG/1.1/DTD/svg11.dtd">
<!-- Generated by graphviz version 2.38.0 (20140413.2041)
 -->
<!-- Title: LittleWeebLibrary.StartUp.Stop Pages: 1 -->
<svg width="533pt" height="186pt"
 viewBox="0.00 0.00 533.00 186.00" xmlns="http://www.w3.org/2000/svg" xmlns:xlink="http://www.w3.org/1999/xlink">
<g id="graph0" class="graph" transform="scale(1 1) rotate(0) translate(4 182)">
<title>LittleWeebLibrary.StartUp.Stop</title>
<polygon fill="white" stroke="none" points="-4,4 -4,-182 529,-182 529,4 -4,4"/>
<!-- Node13 -->
<g id="node1" class="node"><title>Node13</title>
<polygon fill="#bfbfbf" stroke="black" points="0,-79 0,-98 152,-98 152,-79 0,-79"/>
<text text-anchor="middle" x="76" y="-86" font-family="Helvetica,sans-Serif" font-size="10.00">LittleWeebLibrary.StartUp.Stop</text>
</g>
<!-- Node14 -->
<g id="node2" class="node"><title>Node14</title>
<g id="a_node2"><a xlink:href="class_little_weeb_library_1_1_handlers_1_1_irc_client_handler.html#a97a617b50a161906a91ce1ea483a1770" target="_top" xlink:title="LittleWeebLibrary.Handlers.\lIrcClientHandler.StopConnection">
<polygon fill="white" stroke="black" points="188,-147.5 188,-177.5 345,-177.5 345,-147.5 188,-147.5"/>
<text text-anchor="start" x="196" y="-165.5" font-family="Helvetica,sans-Serif" font-size="10.00">LittleWeebLibrary.Handlers.</text>
<text text-anchor="middle" x="266.5" y="-154.5" font-family="Helvetica,sans-Serif" font-size="10.00">IrcClientHandler.StopConnection</text>
</a>
</g>
</g>
<!-- Node13&#45;&gt;Node14 -->
<g id="edge1" class="edge"><title>Node13&#45;&gt;Node14</title>
<path fill="none" stroke="midnightblue" d="M96.3441,-98.0899C118.255,-108.745 155.186,-126.082 188,-138.5 193.105,-140.432 198.44,-142.329 203.818,-144.157"/>
<polygon fill="midnightblue" stroke="midnightblue" points="202.914,-147.544 213.507,-147.366 205.115,-140.899 202.914,-147.544"/>
</g>
<!-- Node16 -->
<g id="node4" class="node"><title>Node16</title>
<g id="a_node4"><a xlink:href="class_little_weeb_library_1_1_handlers_1_1_irc_client_handler.html#a265ca021f5086addf758e87f59a0aa11" target="_top" xlink:title="LittleWeebLibrary.Handlers.\lIrcClientHandler.StopDownload">
<polygon fill="white" stroke="black" points="191.5,-98.5 191.5,-128.5 341.5,-128.5 341.5,-98.5 191.5,-98.5"/>
<text text-anchor="start" x="199.5" y="-116.5" font-family="Helvetica,sans-Serif" font-size="10.00">LittleWeebLibrary.Handlers.</text>
<text text-anchor="middle" x="266.5" y="-105.5" font-family="Helvetica,sans-Serif" font-size="10.00">IrcClientHandler.StopDownload</text>
</a>
</g>
</g>
<!-- Node13&#45;&gt;Node16 -->
<g id="edge3" class="edge"><title>Node13&#45;&gt;Node16</title>
<path fill="none" stroke="midnightblue" d="M148.802,-98.0227C159.476,-99.4384 170.558,-100.908 181.456,-102.354"/>
<polygon fill="midnightblue" stroke="midnightblue" points="181.022,-105.827 191.395,-103.672 181.942,-98.8873 181.022,-105.827"/>
</g>
<!-- Node17 -->
<g id="node5" class="node"><title>Node17</title>
<g id="a_node5"><a xlink:href="class_little_weeb_library_1_1_handlers_1_1_download_handler.html#a8fd807f023ed25e031844da3927e1a23" target="_top" xlink:title="LittleWeebLibrary.Handlers.\lDownloadHandler.StopQueue">
<polygon fill="white" stroke="black" points="195,-0.5 195,-30.5 338,-30.5 338,-0.5 195,-0.5"/>
<text text-anchor="start" x="203" y="-18.5" font-family="Helvetica,sans-Serif" font-size="10.00">LittleWeebLibrary.Handlers.</text>
<text text-anchor="middle" x="266.5" y="-7.5" font-family="Helvetica,sans-Serif" font-size="10.00">DownloadHandler.StopQueue</text>
</a>
</g>
</g>
<!-- Node13&#45;&gt;Node17 -->
<g id="edge5" class="edge"><title>Node13&#45;&gt;Node17</title>
<path fill="none" stroke="midnightblue" d="M97.6233,-78.8727C119.729,-68.7212 155.972,-52.5588 188,-40.5 193.991,-38.2443 200.287,-36.0044 206.594,-33.8453"/>
<polygon fill="midnightblue" stroke="midnightblue" points="208.104,-37.0302 216.469,-30.5283 205.875,-30.3945 208.104,-37.0302"/>
</g>
<!-- Node19 -->
<g id="node7" class="node"><title>Node19</title>
<g id="a_node7"><a xlink:href="class_little_weeb_library_1_1_handlers_1_1_web_socket_handler.html#abcd87ac26780369b500299fc12aa0039" target="_top" xlink:title="LittleWeebLibrary.Handlers.\lWebSocketHandler.StopServer">
<polygon fill="white" stroke="black" points="191,-49.5 191,-79.5 342,-79.5 342,-49.5 191,-49.5"/>
<text text-anchor="start" x="199" y="-67.5" font-family="Helvetica,sans-Serif" font-size="10.00">LittleWeebLibrary.Handlers.</text>
<text text-anchor="middle" x="266.5" y="-56.5" font-family="Helvetica,sans-Serif" font-size="10.00">WebSocketHandler.StopServer</text>
</a>
</g>
</g>
<!-- Node13&#45;&gt;Node19 -->
<g id="edge8" class="edge"><title>Node13&#45;&gt;Node19</title>
<path fill="none" stroke="midnightblue" d="M151.771,-78.9801C161.307,-77.7659 171.121,-76.5164 180.8,-75.2841"/>
<polygon fill="midnightblue" stroke="midnightblue" points="181.342,-78.7435 190.82,-74.0084 180.458,-71.7995 181.342,-78.7435"/>
</g>
<!-- Node15 -->
<g id="node3" class="node"><title>Node15</title>
<g id="a_node3"><a xlink:href="class_little_weeb_library_1_1_handlers_1_1_debug_handler.html#afccb37dfd6b2114af72000c2f4fe4607" target="_top" xlink:title="LittleWeebLibrary.Handlers.\lDebugHandler.TraceMessage">
<polygon fill="white" stroke="black" points="381,-73.5 381,-103.5 525,-103.5 525,-73.5 381,-73.5"/>
<text text-anchor="start" x="389" y="-91.5" font-family="Helvetica,sans-Serif" font-size="10.00">LittleWeebLibrary.Handlers.</text>
<text text-anchor="middle" x="453" y="-80.5" font-family="Helvetica,sans-Serif" font-size="10.00">DebugHandler.TraceMessage</text>
</a>
</g>
</g>
<!-- Node14&#45;&gt;Node15 -->
<g id="edge2" class="edge"><title>Node14&#45;&gt;Node15</title>
<path fill="none" stroke="midnightblue" d="M319.531,-147.464C328.108,-144.678 336.854,-141.648 345,-138.5 368.116,-129.568 393.254,-117.926 413.353,-108.123"/>
<polygon fill="midnightblue" stroke="midnightblue" points="415.069,-111.179 422.495,-103.622 411.977,-104.899 415.069,-111.179"/>
</g>
<!-- Node16&#45;&gt;Node15 -->
<g id="edge4" class="edge"><title>Node16&#45;&gt;Node15</title>
<path fill="none" stroke="midnightblue" d="M341.746,-103.44C351.333,-102.141 361.189,-100.805 370.88,-99.4919"/>
<polygon fill="midnightblue" stroke="midnightblue" points="371.461,-102.945 380.9,-98.1342 370.521,-96.0087 371.461,-102.945"/>
</g>
<!-- Node17&#45;&gt;Node15 -->
<g id="edge6" class="edge"><title>Node17&#45;&gt;Node15</title>
<path fill="none" stroke="midnightblue" d="M316.982,-30.5663C326.352,-33.6714 336.026,-37.0517 345,-40.5 367.212,-49.0353 391.445,-59.7818 411.224,-68.9415"/>
<polygon fill="midnightblue" stroke="midnightblue" points="410.005,-72.2353 420.547,-73.294 412.966,-65.8924 410.005,-72.2353"/>
</g>
<!-- Node18 -->
<g id="node6" class="node"><title>Node18</title>
<g id="a_node6"><a xlink:href="class_little_weeb_library_1_1_models_1_1_json_success.html#aa0e750a34606497266e5a4aedc03cdeb" target="_top" xlink:title="LittleWeebLibrary.Models.\lJsonSuccess.ToJObject">
<polygon fill="white" stroke="black" points="388,-0.5 388,-30.5 518,-30.5 518,-0.5 388,-0.5"/>
<text text-anchor="start" x="396" y="-18.5" font-family="Helvetica,sans-Serif" font-size="10.00">LittleWeebLibrary.Models.</text>
<text text-anchor="middle" x="453" y="-7.5" font-family="Helvetica,sans-Serif" font-size="10.00">JsonSuccess.ToJObject</text>
</a>
</g>
</g>
<!-- Node17&#45;&gt;Node18 -->
<g id="edge7" class="edge"><title>Node17&#45;&gt;Node18</title>
<path fill="none" stroke="midnightblue" d="M338.041,-15.5C350.965,-15.5 364.491,-15.5 377.525,-15.5"/>
<polygon fill="midnightblue" stroke="midnightblue" points="377.852,-19.0001 387.852,-15.5 377.852,-12.0001 377.852,-19.0001"/>
</g>
<!-- Node19&#45;&gt;Node15 -->
<g id="edge9" class="edge"><title>Node19&#45;&gt;Node15</title>
<path fill="none" stroke="midnightblue" d="M342.011,-74.1925C351.512,-75.4284 361.274,-76.6983 370.873,-77.9469"/>
<polygon fill="midnightblue" stroke="midnightblue" points="370.431,-81.4189 380.799,-79.2381 371.335,-74.4773 370.431,-81.4189"/>
</g>
</g>
</svg>
