<?xml version="1.0" encoding="UTF-8" standalone="no"?>
<!DOCTYPE svg PUBLIC "-//W3C//DTD SVG 1.1//EN"
 "http://www.w3.org/Graphics/SVG/1.1/DTD/svg11.dtd">
<!-- Generated by graphviz version 2.38.0 (20140413.2041)
 -->
<!-- Title: LittleWeebLibrary.Services.IrcWebSocketService.IrcWebSocketService Pages: 1 -->
<svg width="585pt" height="137pt"
 viewBox="0.00 0.00 585.00 137.00" xmlns="http://www.w3.org/2000/svg" xmlns:xlink="http://www.w3.org/1999/xlink">
<g id="graph0" class="graph" transform="scale(1 1) rotate(0) translate(4 133)">
<title>LittleWeebLibrary.Services.IrcWebSocketService.IrcWebSocketService</title>
<polygon fill="white" stroke="none" points="-4,4 -4,-133 581,-133 581,4 -4,4"/>
<!-- Node0 -->
<g id="node1" class="node"><title>Node0</title>
<polygon fill="#bfbfbf" stroke="black" points="0,-44 0,-85 174,-85 174,-44 0,-44"/>
<text text-anchor="start" x="8" y="-73" font-family="Helvetica,sans-Serif" font-size="10.00">LittleWeebLibrary.Services.</text>
<text text-anchor="start" x="8" y="-62" font-family="Helvetica,sans-Serif" font-size="10.00">IrcWebSocketService.IrcWebSocket</text>
<text text-anchor="middle" x="87" y="-51" font-family="Helvetica,sans-Serif" font-size="10.00">Service</text>
</g>
<!-- Node1 -->
<g id="node2" class="node"><title>Node1</title>
<g id="a_node2"><a xlink:href="class_little_weeb_library_1_1_handlers_1_1_settings_handler.html#a22195b5d1df129295e0e30298611bdba" target="_top" xlink:title="LittleWeebLibrary.Handlers.\lSettingsHandler.GetIrcSettings">
<polygon fill="white" stroke="black" points="228,-98.5 228,-128.5 379,-128.5 379,-98.5 228,-98.5"/>
<text text-anchor="start" x="236" y="-116.5" font-family="Helvetica,sans-Serif" font-size="10.00">LittleWeebLibrary.Handlers.</text>
<text text-anchor="middle" x="303.5" y="-105.5" font-family="Helvetica,sans-Serif" font-size="10.00">SettingsHandler.GetIrcSettings</text>
</a>
</g>
</g>
<!-- Node0&#45;&gt;Node1 -->
<g id="edge1" class="edge"><title>Node0&#45;&gt;Node1</title>
<path fill="none" stroke="midnightblue" d="M174.009,-84.1478C191.45,-88.1319 209.671,-92.2942 226.726,-96.1904"/>
<polygon fill="midnightblue" stroke="midnightblue" points="226.091,-99.6353 236.619,-98.4503 227.65,-92.8111 226.091,-99.6353"/>
</g>
<!-- Node3 -->
<g id="node4" class="node"><title>Node3</title>
<g id="a_node4"><a xlink:href="class_little_weeb_library_1_1_handlers_1_1_settings_handler.html#a53a5c5206eb6d2c58fa9d970c9b97463" target="_top" xlink:title="LittleWeebLibrary.Handlers.\lSettingsHandler.GetLittleWeebSettings">
<polygon fill="white" stroke="black" points="210,-49.5 210,-79.5 397,-79.5 397,-49.5 210,-49.5"/>
<text text-anchor="start" x="218" y="-67.5" font-family="Helvetica,sans-Serif" font-size="10.00">LittleWeebLibrary.Handlers.</text>
<text text-anchor="middle" x="303.5" y="-56.5" font-family="Helvetica,sans-Serif" font-size="10.00">SettingsHandler.GetLittleWeebSettings</text>
</a>
</g>
</g>
<!-- Node0&#45;&gt;Node3 -->
<g id="edge3" class="edge"><title>Node0&#45;&gt;Node3</title>
<path fill="none" stroke="midnightblue" d="M174.009,-64.5C182.47,-64.5 191.115,-64.5 199.722,-64.5"/>
<polygon fill="midnightblue" stroke="midnightblue" points="199.794,-68.0001 209.794,-64.5 199.794,-61.0001 199.794,-68.0001"/>
</g>
<!-- Node4 -->
<g id="node5" class="node"><title>Node4</title>
<g id="a_node5"><a xlink:href="interface_little_weeb_library_1_1_handlers_1_1_i_debug_handler.html#a2e405bc3492e683cd3702fae125221bc" target="_top" xlink:title="LittleWeebLibrary.Handlers.\lIDebugHandler.TraceMessage">
<polygon fill="white" stroke="black" points="230.5,-0.5 230.5,-30.5 376.5,-30.5 376.5,-0.5 230.5,-0.5"/>
<text text-anchor="start" x="238.5" y="-18.5" font-family="Helvetica,sans-Serif" font-size="10.00">LittleWeebLibrary.Handlers.</text>
<text text-anchor="middle" x="303.5" y="-7.5" font-family="Helvetica,sans-Serif" font-size="10.00">IDebugHandler.TraceMessage</text>
</a>
</g>
</g>
<!-- Node0&#45;&gt;Node4 -->
<g id="edge5" class="edge"><title>Node0&#45;&gt;Node4</title>
<path fill="none" stroke="midnightblue" d="M174.009,-44.8522C191.45,-40.8681 209.671,-36.7058 226.726,-32.8096"/>
<polygon fill="midnightblue" stroke="midnightblue" points="227.65,-36.1889 236.619,-30.5497 226.091,-29.3647 227.65,-36.1889"/>
</g>
<!-- Node2 -->
<g id="node3" class="node"><title>Node2</title>
<g id="a_node3"><a xlink:href="class_little_weeb_library_1_1_handlers_1_1_debug_handler.html#afccb37dfd6b2114af72000c2f4fe4607" target="_top" xlink:title="LittleWeebLibrary.Handlers.\lDebugHandler.TraceMessage">
<polygon fill="white" stroke="black" points="433,-73.5 433,-103.5 577,-103.5 577,-73.5 433,-73.5"/>
<text text-anchor="start" x="441" y="-91.5" font-family="Helvetica,sans-Serif" font-size="10.00">LittleWeebLibrary.Handlers.</text>
<text text-anchor="middle" x="505" y="-80.5" font-family="Helvetica,sans-Serif" font-size="10.00">DebugHandler.TraceMessage</text>
</a>
</g>
</g>
<!-- Node1&#45;&gt;Node2 -->
<g id="edge2" class="edge"><title>Node1&#45;&gt;Node2</title>
<path fill="none" stroke="midnightblue" d="M379.07,-104.155C393.368,-102.364 408.404,-100.479 422.896,-98.6634"/>
<polygon fill="midnightblue" stroke="midnightblue" points="423.339,-102.135 432.826,-97.4191 422.468,-95.1897 423.339,-102.135"/>
</g>
<!-- Node3&#45;&gt;Node2 -->
<g id="edge4" class="edge"><title>Node3&#45;&gt;Node2</title>
<path fill="none" stroke="midnightblue" d="M397.241,-75.6569C405.778,-76.6838 414.383,-77.719 422.805,-78.7322"/>
<polygon fill="midnightblue" stroke="midnightblue" points="422.624,-82.2355 432.97,-79.9551 423.46,-75.2856 422.624,-82.2355"/>
</g>
</g>
</svg>
