<?xml version="1.0" encoding="UTF-8" standalone="no"?>
<!DOCTYPE svg PUBLIC "-//W3C//DTD SVG 1.1//EN"
 "http://www.w3.org/Graphics/SVG/1.1/DTD/svg11.dtd">
<!-- Generated by graphviz version 2.38.0 (20140413.2041)
 -->
<!-- Title: LittleWeebLibrary.Handlers.DownloadHandler.DownloadQueueHandler Pages: 1 -->
<svg width="573pt" height="132pt"
 viewBox="0.00 0.00 573.00 132.00" xmlns="http://www.w3.org/2000/svg" xmlns:xlink="http://www.w3.org/1999/xlink">
<g id="graph0" class="graph" transform="scale(1 1) rotate(0) translate(4 128)">
<title>LittleWeebLibrary.Handlers.DownloadHandler.DownloadQueueHandler</title>
<polygon fill="white" stroke="none" points="-4,4 -4,-128 569,-128 569,4 -4,4"/>
<!-- Node46 -->
<g id="node1" class="node"><title>Node46</title>
<polygon fill="#bfbfbf" stroke="black" points="0,-49.5 0,-79.5 198,-79.5 198,-49.5 0,-49.5"/>
<text text-anchor="start" x="8" y="-67.5" font-family="Helvetica,sans-Serif" font-size="10.00">LittleWeebLibrary.Handlers.</text>
<text text-anchor="middle" x="99" y="-56.5" font-family="Helvetica,sans-Serif" font-size="10.00">DownloadHandler.DownloadQueueHandler</text>
</g>
<!-- Node47 -->
<g id="node2" class="node"><title>Node47</title>
<g id="a_node2"><a xlink:href="class_little_weeb_library_1_1_handlers_1_1_irc_client_handler.html#afa3e3e60cc12d3867d3c6e2a188dca14" target="_top" xlink:title="LittleWeebLibrary.Handlers.\lIrcClientHandler.StartDownload">
<polygon fill="white" stroke="black" points="234,-49.5 234,-79.5 385,-79.5 385,-49.5 234,-49.5"/>
<text text-anchor="start" x="242" y="-67.5" font-family="Helvetica,sans-Serif" font-size="10.00">LittleWeebLibrary.Handlers.</text>
<text text-anchor="middle" x="309.5" y="-56.5" font-family="Helvetica,sans-Serif" font-size="10.00">IrcClientHandler.StartDownload</text>
</a>
</g>
</g>
<!-- Node46&#45;&gt;Node47 -->
<g id="edge1" class="edge"><title>Node46&#45;&gt;Node47</title>
<path fill="none" stroke="midnightblue" d="M198.145,-64.5C206.705,-64.5 215.32,-64.5 223.759,-64.5"/>
<polygon fill="midnightblue" stroke="midnightblue" points="223.949,-68.0001 233.949,-64.5 223.949,-61.0001 223.949,-68.0001"/>
</g>
<!-- Node48 -->
<g id="node3" class="node"><title>Node48</title>
<g id="a_node3"><a xlink:href="class_little_weeb_library_1_1_handlers_1_1_debug_handler.html#afccb37dfd6b2114af72000c2f4fe4607" target="_top" xlink:title="LittleWeebLibrary.Handlers.\lDebugHandler.TraceMessage">
<polygon fill="white" stroke="black" points="421,-93.5 421,-123.5 565,-123.5 565,-93.5 421,-93.5"/>
<text text-anchor="start" x="429" y="-111.5" font-family="Helvetica,sans-Serif" font-size="10.00">LittleWeebLibrary.Handlers.</text>
<text text-anchor="middle" x="493" y="-100.5" font-family="Helvetica,sans-Serif" font-size="10.00">DebugHandler.TraceMessage</text>
</a>
</g>
</g>
<!-- Node46&#45;&gt;Node48 -->
<g id="edge5" class="edge"><title>Node46&#45;&gt;Node48</title>
<path fill="none" stroke="midnightblue" d="M172.441,-79.5336C192.325,-83.2447 213.934,-86.8975 234,-89.5 292.858,-97.1338 359.697,-101.949 410.595,-104.822"/>
<polygon fill="midnightblue" stroke="midnightblue" points="410.703,-108.333 420.88,-105.388 411.088,-101.344 410.703,-108.333"/>
</g>
<!-- Node50 -->
<g id="node5" class="node"><title>Node50</title>
<g id="a_node5"><a xlink:href="class_little_weeb_library_1_1_models_1_1_json_download_info.html#a3fd450e7e2de8b9a936ba3b2cbeeaccb" target="_top" xlink:title="LittleWeebLibrary.Models.\lJsonDownloadInfo.ToJson">
<polygon fill="white" stroke="black" points="244.5,-0.5 244.5,-30.5 374.5,-30.5 374.5,-0.5 244.5,-0.5"/>
<text text-anchor="start" x="252.5" y="-18.5" font-family="Helvetica,sans-Serif" font-size="10.00">LittleWeebLibrary.Models.</text>
<text text-anchor="middle" x="309.5" y="-7.5" font-family="Helvetica,sans-Serif" font-size="10.00">JsonDownloadInfo.ToJson</text>
</a>
</g>
</g>
<!-- Node46&#45;&gt;Node50 -->
<g id="edge4" class="edge"><title>Node46&#45;&gt;Node50</title>
<path fill="none" stroke="midnightblue" d="M163.974,-49.4654C186.389,-44.1976 211.739,-38.2399 234.88,-32.8016"/>
<polygon fill="midnightblue" stroke="midnightblue" points="235.713,-36.2012 244.647,-30.5062 234.112,-29.3869 235.713,-36.2012"/>
</g>
<!-- Node47&#45;&gt;Node48 -->
<g id="edge2" class="edge"><title>Node47&#45;&gt;Node48</title>
<path fill="none" stroke="midnightblue" d="M372.454,-79.5192C387.847,-83.2508 404.473,-87.2814 420.291,-91.116"/>
<polygon fill="midnightblue" stroke="midnightblue" points="419.474,-94.5192 430.017,-93.4738 421.123,-87.7162 419.474,-94.5192"/>
</g>
<!-- Node49 -->
<g id="node4" class="node"><title>Node49</title>
<g id="a_node4"><a xlink:href="class_little_weeb_library_1_1_models_1_1_json_download_info.html#af36cbb3251b0efcd80a45f1fef89f5c9" target="_top" xlink:title="LittleWeebLibrary.Models.\lJsonDownloadInfo.ToString">
<polygon fill="white" stroke="black" points="426.5,-44.5 426.5,-74.5 559.5,-74.5 559.5,-44.5 426.5,-44.5"/>
<text text-anchor="start" x="434.5" y="-62.5" font-family="Helvetica,sans-Serif" font-size="10.00">LittleWeebLibrary.Models.</text>
<text text-anchor="middle" x="493" y="-51.5" font-family="Helvetica,sans-Serif" font-size="10.00">JsonDownloadInfo.ToString</text>
</a>
</g>
</g>
<!-- Node47&#45;&gt;Node49 -->
<g id="edge3" class="edge"><title>Node47&#45;&gt;Node49</title>
<path fill="none" stroke="midnightblue" d="M385.109,-62.4447C395.375,-62.1618 405.926,-61.8712 416.213,-61.5878"/>
<polygon fill="midnightblue" stroke="midnightblue" points="416.492,-65.0815 426.392,-61.3074 416.3,-58.0842 416.492,-65.0815"/>
</g>
</g>
</svg>
