<?xml version="1.0" encoding="UTF-8" standalone="no"?>
<!DOCTYPE svg PUBLIC "-//W3C//DTD SVG 1.1//EN"
 "http://www.w3.org/Graphics/SVG/1.1/DTD/svg11.dtd">
<!-- Generated by graphviz version 2.38.0 (20140413.2041)
 -->
<!-- Title: LittleWeebLibrary.Controllers.SubControllers.DataBaseWebSocketController Pages: 1 -->
<svg width="609pt" height="259pt"
 viewBox="0.00 0.00 609.00 259.00" xmlns="http://www.w3.org/2000/svg" xmlns:xlink="http://www.w3.org/1999/xlink">
<g id="graph0" class="graph" transform="scale(1 1) rotate(0) translate(4 255)">
<title>LittleWeebLibrary.Controllers.SubControllers.DataBaseWebSocketController</title>
<polygon fill="white" stroke="none" points="-4,4 -4,-255 605,-255 605,4 -4,4"/>
<!-- Node2 -->
<g id="node1" class="node"><title>Node2</title>
<polygon fill="#bfbfbf" stroke="black" points="203.5,-0.5 203.5,-90.5 380.5,-90.5 380.5,-0.5 203.5,-0.5"/>
<text text-anchor="start" x="211.5" y="-78.5" font-family="Helvetica,sans-Serif" font-size="10.00">LittleWeebLibrary.Controllers.</text>
<text text-anchor="start" x="211.5" y="-67.5" font-family="Helvetica,sans-Serif" font-size="10.00">SubControllers.DataBaseWebSocket</text>
<text text-anchor="middle" x="292" y="-56.5" font-family="Helvetica,sans-Serif" font-size="10.00">Controller</text>
<polyline fill="none" stroke="black" points="203.5,-49.5 380.5,-49.5 "/>
<text text-anchor="middle" x="292" y="-37.5" font-family="Helvetica,sans-Serif" font-size="10.00"> </text>
<polyline fill="none" stroke="black" points="203.5,-30.5 380.5,-30.5 "/>
<text text-anchor="start" x="211.5" y="-18.5" font-family="Helvetica,sans-Serif" font-size="10.00">+ DataBaseWebSocketController()</text>
<text text-anchor="start" x="211.5" y="-7.5" font-family="Helvetica,sans-Serif" font-size="10.00">+ OnWebSocketEvent()</text>
</g>
<!-- Node3 -->
<g id="node2" class="node"><title>Node3</title>
<g id="a_node2"><a xlink:href="interface_little_weeb_library_1_1_controllers_1_1_i_sub_web_socket_controller.html" target="_top" xlink:title="{ISubWebSocketController\n||+ OnWebSocketEvent()\l}">
<polygon fill="white" stroke="black" points="0,-166 0,-223 128,-223 128,-166 0,-166"/>
<text text-anchor="middle" x="64" y="-211" font-family="Helvetica,sans-Serif" font-size="10.00">ISubWebSocketController</text>
<polyline fill="none" stroke="black" points="0,-204 128,-204 "/>
<text text-anchor="middle" x="64" y="-192" font-family="Helvetica,sans-Serif" font-size="10.00"> </text>
<polyline fill="none" stroke="black" points="0,-185 128,-185 "/>
<text text-anchor="start" x="8" y="-173" font-family="Helvetica,sans-Serif" font-size="10.00">+ OnWebSocketEvent()</text>
</a>
</g>
</g>
<!-- Node3&#45;&gt;Node2 -->
<g id="edge1" class="edge"><title>Node3&#45;&gt;Node2</title>
<path fill="none" stroke="midnightblue" d="M106.708,-159.715C116.504,-152.337 126.986,-144.729 137,-138 161.251,-121.704 188.464,-105.106 213.24,-90.6007"/>
<polygon fill="none" stroke="midnightblue" points="104.506,-156.993 98.6668,-165.834 108.744,-162.564 104.506,-156.993"/>
</g>
<!-- Node4 -->
<g id="node3" class="node"><title>Node4</title>
<g id="a_node3"><a xlink:href="interface_little_weeb_library_1_1_handlers_1_1_i_debug_handler.html" target="_top" xlink:title="{LittleWeebLibrary.Handlers.\lIDebugHandler\n||+ SetSettings()\l+ StopDebugger()\l+ TraceMessage()\l}">
<polygon fill="white" stroke="black" points="146.5,-149.5 146.5,-239.5 283.5,-239.5 283.5,-149.5 146.5,-149.5"/>
<text text-anchor="start" x="154.5" y="-227.5" font-family="Helvetica,sans-Serif" font-size="10.00">LittleWeebLibrary.Handlers.</text>
<text text-anchor="middle" x="215" y="-216.5" font-family="Helvetica,sans-Serif" font-size="10.00">IDebugHandler</text>
<polyline fill="none" stroke="black" points="146.5,-209.5 283.5,-209.5 "/>
<text text-anchor="middle" x="215" y="-197.5" font-family="Helvetica,sans-Serif" font-size="10.00"> </text>
<polyline fill="none" stroke="black" points="146.5,-190.5 283.5,-190.5 "/>
<text text-anchor="start" x="154.5" y="-178.5" font-family="Helvetica,sans-Serif" font-size="10.00">+ SetSettings()</text>
<text text-anchor="start" x="154.5" y="-167.5" font-family="Helvetica,sans-Serif" font-size="10.00">+ StopDebugger()</text>
<text text-anchor="start" x="154.5" y="-156.5" font-family="Helvetica,sans-Serif" font-size="10.00">+ TraceMessage()</text>
</a>
</g>
</g>
<!-- Node4&#45;&gt;Node2 -->
<g id="edge2" class="edge"><title>Node4&#45;&gt;Node2</title>
<path fill="none" stroke="#404040" d="M238.103,-149.395C246.021,-134.278 254.98,-117.175 263.287,-101.315"/>
<polygon fill="none" stroke="#404040" points="263.346,-101.204 262.586,-94.0327 268.914,-90.5737 269.673,-97.7448 263.346,-101.204"/>
<text text-anchor="middle" x="292.5" y="-112" font-family="Helvetica,sans-Serif" font-size="10.00"> &#45;DebugHandler</text>
</g>
<!-- Node5 -->
<g id="node4" class="node"><title>Node5</title>
<g id="a_node4"><a xlink:href="interface_little_weeb_library_1_1_handlers_1_1_i_web_socket_handler.html" target="_top" xlink:title="{LittleWeebLibrary.Handlers.\lIWebSocketHandler\n||+ SendMessage()\l+ StartServer()\l+ StopServer()\l}">
<polygon fill="white" stroke="black" points="301.5,-149.5 301.5,-239.5 438.5,-239.5 438.5,-149.5 301.5,-149.5"/>
<text text-anchor="start" x="309.5" y="-227.5" font-family="Helvetica,sans-Serif" font-size="10.00">LittleWeebLibrary.Handlers.</text>
<text text-anchor="middle" x="370" y="-216.5" font-family="Helvetica,sans-Serif" font-size="10.00">IWebSocketHandler</text>
<polyline fill="none" stroke="black" points="301.5,-209.5 438.5,-209.5 "/>
<text text-anchor="middle" x="370" y="-197.5" font-family="Helvetica,sans-Serif" font-size="10.00"> </text>
<polyline fill="none" stroke="black" points="301.5,-190.5 438.5,-190.5 "/>
<text text-anchor="start" x="309.5" y="-178.5" font-family="Helvetica,sans-Serif" font-size="10.00">+ SendMessage()</text>
<text text-anchor="start" x="309.5" y="-167.5" font-family="Helvetica,sans-Serif" font-size="10.00">+ StartServer()</text>
<text text-anchor="start" x="309.5" y="-156.5" font-family="Helvetica,sans-Serif" font-size="10.00">+ StopServer()</text>
</a>
</g>
</g>
<!-- Node5&#45;&gt;Node2 -->
<g id="edge3" class="edge"><title>Node5&#45;&gt;Node2</title>
<path fill="none" stroke="#404040" d="M350.096,-149.21C343.93,-136.122 336.929,-121.86 330,-109 328.577,-106.359 327.093,-103.673 325.571,-100.973"/>
<polygon fill="none" stroke="#404040" points="325.559,-100.951 319.097,-97.7503 319.565,-90.5544 326.027,-93.7548 325.559,-100.951"/>
<text text-anchor="middle" x="380.5" y="-112" font-family="Helvetica,sans-Serif" font-size="10.00"> &#45;WebSocketHandler</text>
</g>
<!-- Node6 -->
<g id="node5" class="node"><title>Node6</title>
<g id="a_node5"><a xlink:href="interface_little_weeb_library_1_1_services_1_1_i_data_base_web_socket_service.html" target="_top" xlink:title="{LittleWeebLibrary.Services.\lIDataBaseWebSocketService\n||+ DeleteDocument()\l+ GetCollection()\l+ GetDocument()\l+ StoreDocument()\l+ UpdateDocument()\l}">
<polygon fill="white" stroke="black" points="457,-138.5 457,-250.5 601,-250.5 601,-138.5 457,-138.5"/>
<text text-anchor="start" x="465" y="-238.5" font-family="Helvetica,sans-Serif" font-size="10.00">LittleWeebLibrary.Services.</text>
<text text-anchor="middle" x="529" y="-227.5" font-family="Helvetica,sans-Serif" font-size="10.00">IDataBaseWebSocketService</text>
<polyline fill="none" stroke="black" points="457,-220.5 601,-220.5 "/>
<text text-anchor="middle" x="529" y="-208.5" font-family="Helvetica,sans-Serif" font-size="10.00"> </text>
<polyline fill="none" stroke="black" points="457,-201.5 601,-201.5 "/>
<text text-anchor="start" x="465" y="-189.5" font-family="Helvetica,sans-Serif" font-size="10.00">+ DeleteDocument()</text>
<text text-anchor="start" x="465" y="-178.5" font-family="Helvetica,sans-Serif" font-size="10.00">+ GetCollection()</text>
<text text-anchor="start" x="465" y="-167.5" font-family="Helvetica,sans-Serif" font-size="10.00">+ GetDocument()</text>
<text text-anchor="start" x="465" y="-156.5" font-family="Helvetica,sans-Serif" font-size="10.00">+ StoreDocument()</text>
<text text-anchor="start" x="465" y="-145.5" font-family="Helvetica,sans-Serif" font-size="10.00">+ UpdateDocument()</text>
</a>
</g>
</g>
<!-- Node6&#45;&gt;Node2 -->
<g id="edge4" class="edge"><title>Node6&#45;&gt;Node2</title>
<path fill="none" stroke="#404040" d="M469.838,-138.371C457.188,-127.933 443.543,-117.602 430,-109 418.032,-101.398 404.986,-94.2265 391.846,-87.6409"/>
<polygon fill="none" stroke="#404040" points="391.59,-87.5162 384.443,-88.4776 380.807,-82.2503 387.954,-81.289 391.59,-87.5162"/>
<text text-anchor="middle" x="511" y="-112" font-family="Helvetica,sans-Serif" font-size="10.00"> &#45;DataBaseWebSocketService</text>
</g>
</g>
</svg>
