<?xml version="1.0" encoding="UTF-8" standalone="no"?>
<!DOCTYPE svg PUBLIC "-//W3C//DTD SVG 1.1//EN"
 "http://www.w3.org/Graphics/SVG/1.1/DTD/svg11.dtd">
<!-- Generated by graphviz version 2.38.0 (20140413.2041)
 -->
<!-- Title: LittleWeebLibrary.Services.DownloadWebSocketService.AddDownloads Pages: 1 -->
<svg width="610pt" height="376pt"
 viewBox="0.00 0.00 610.00 376.00" xmlns="http://www.w3.org/2000/svg" xmlns:xlink="http://www.w3.org/1999/xlink">
<g id="graph0" class="graph" transform="scale(1 1) rotate(0) translate(4 372)">
<title>LittleWeebLibrary.Services.DownloadWebSocketService.AddDownloads</title>
<polygon fill="white" stroke="none" points="-4,4 -4,-372 606,-372 606,4 -4,4"/>
<!-- Node71 -->
<g id="node1" class="node"><title>Node71</title>
<polygon fill="#bfbfbf" stroke="black" points="0,-88.5 0,-118.5 209,-118.5 209,-88.5 0,-88.5"/>
<text text-anchor="start" x="8" y="-106.5" font-family="Helvetica,sans-Serif" font-size="10.00">LittleWeebLibrary.Services.</text>
<text text-anchor="middle" x="104.5" y="-95.5" font-family="Helvetica,sans-Serif" font-size="10.00">DownloadWebSocketService.AddDownloads</text>
</g>
<!-- Node72 -->
<g id="node2" class="node"><title>Node72</title>
<g id="a_node2"><a xlink:href="class_little_weeb_library_1_1_handlers_1_1_download_handler.html#ac03f2dc024c0884bb7bd1c68ee03142e" target="_top" xlink:title="LittleWeebLibrary.Handlers.\lDownloadHandler.AddDownloads">
<polygon fill="white" stroke="black" points="248.5,-178.5 248.5,-208.5 407.5,-208.5 407.5,-178.5 248.5,-178.5"/>
<text text-anchor="start" x="256.5" y="-196.5" font-family="Helvetica,sans-Serif" font-size="10.00">LittleWeebLibrary.Handlers.</text>
<text text-anchor="middle" x="328" y="-185.5" font-family="Helvetica,sans-Serif" font-size="10.00">DownloadHandler.AddDownloads</text>
</a>
</g>
</g>
<!-- Node71&#45;&gt;Node72 -->
<g id="edge1" class="edge"><title>Node71&#45;&gt;Node72</title>
<path fill="none" stroke="midnightblue" d="M141.25,-118.617C169.379,-130.451 209.603,-147.237 245,-161.5 255.744,-165.829 267.314,-170.4 278.279,-174.69"/>
<polygon fill="midnightblue" stroke="midnightblue" points="277.135,-178.001 287.724,-178.374 279.68,-171.479 277.135,-178.001"/>
</g>
<!-- Node76 -->
<g id="node6" class="node"><title>Node76</title>
<g id="a_node6"><a xlink:href="class_little_weeb_library_1_1_models_1_1_json_error.html#ad7d5522c90119111d2e929f39e7f6d3c" target="_top" xlink:title="LittleWeebLibrary.Models.\lJsonError.ToString">
<polygon fill="white" stroke="black" points="459.5,-129.5 459.5,-159.5 589.5,-159.5 589.5,-129.5 459.5,-129.5"/>
<text text-anchor="start" x="467.5" y="-147.5" font-family="Helvetica,sans-Serif" font-size="10.00">LittleWeebLibrary.Models.</text>
<text text-anchor="middle" x="524.5" y="-136.5" font-family="Helvetica,sans-Serif" font-size="10.00">JsonError.ToString</text>
</a>
</g>
</g>
<!-- Node71&#45;&gt;Node76 -->
<g id="edge11" class="edge"><title>Node71&#45;&gt;Node76</title>
<path fill="none" stroke="midnightblue" d="M183.855,-118.529C203.74,-121.916 225.106,-125.188 245,-127.5 313.966,-135.513 393.006,-139.882 449.222,-142.176"/>
<polygon fill="midnightblue" stroke="midnightblue" points="449.315,-145.682 459.446,-142.581 449.592,-138.688 449.315,-145.682"/>
</g>
<!-- Node78 -->
<g id="node8" class="node"><title>Node78</title>
<g id="a_node8"><a xlink:href="class_little_weeb_library_1_1_handlers_1_1_debug_handler.html#afccb37dfd6b2114af72000c2f4fe4607" target="_top" xlink:title="LittleWeebLibrary.Handlers.\lDebugHandler.TraceMessage">
<polygon fill="white" stroke="black" points="452.5,-80.5 452.5,-110.5 596.5,-110.5 596.5,-80.5 452.5,-80.5"/>
<text text-anchor="start" x="460.5" y="-98.5" font-family="Helvetica,sans-Serif" font-size="10.00">LittleWeebLibrary.Handlers.</text>
<text text-anchor="middle" x="524.5" y="-87.5" font-family="Helvetica,sans-Serif" font-size="10.00">DebugHandler.TraceMessage</text>
</a>
</g>
</g>
<!-- Node71&#45;&gt;Node78 -->
<g id="edge12" class="edge"><title>Node71&#45;&gt;Node78</title>
<path fill="none" stroke="midnightblue" d="M175.425,-88.4651C197.565,-84.3796 222.208,-80.5262 245,-78.5 318.488,-71.9671 337.43,-72.9727 411,-78.5 421.15,-79.2626 431.773,-80.407 442.266,-81.7486"/>
<polygon fill="midnightblue" stroke="midnightblue" points="441.89,-85.2295 452.267,-83.0893 442.821,-78.2916 441.89,-85.2295"/>
</g>
<!-- Node79 -->
<g id="node9" class="node"><title>Node79</title>
<g id="a_node9"><a xlink:href="class_little_weeb_library_1_1_handlers_1_1_web_socket_handler.html#a1de289d54d665a32c93478c68d3e6ad0" target="_top" xlink:title="LittleWeebLibrary.Handlers.\lWebSocketHandler.SendMessage">
<polygon fill="white" stroke="black" points="245,-88.5 245,-118.5 411,-118.5 411,-88.5 245,-88.5"/>
<text text-anchor="start" x="253" y="-106.5" font-family="Helvetica,sans-Serif" font-size="10.00">LittleWeebLibrary.Handlers.</text>
<text text-anchor="middle" x="328" y="-95.5" font-family="Helvetica,sans-Serif" font-size="10.00">WebSocketHandler.SendMessage</text>
</a>
</g>
</g>
<!-- Node71&#45;&gt;Node79 -->
<g id="edge8" class="edge"><title>Node71&#45;&gt;Node79</title>
<path fill="none" stroke="midnightblue" d="M209.116,-103.5C217.601,-103.5 226.142,-103.5 234.539,-103.5"/>
<polygon fill="midnightblue" stroke="midnightblue" points="234.696,-107 244.696,-103.5 234.696,-100 234.696,-107"/>
</g>
<!-- Node80 -->
<g id="node10" class="node"><title>Node80</title>
<g id="a_node10"><a xlink:href="class_little_weeb_library_1_1_models_1_1_json_error.html#a0e3e7dd2e2990404b7f0461742b23440" target="_top" xlink:title="LittleWeebLibrary.Models.\lJsonError.ToJson">
<polygon fill="white" stroke="black" points="263,-0.5 263,-30.5 393,-30.5 393,-0.5 263,-0.5"/>
<text text-anchor="start" x="271" y="-18.5" font-family="Helvetica,sans-Serif" font-size="10.00">LittleWeebLibrary.Models.</text>
<text text-anchor="middle" x="328" y="-7.5" font-family="Helvetica,sans-Serif" font-size="10.00">JsonError.ToJson</text>
</a>
</g>
</g>
<!-- Node71&#45;&gt;Node80 -->
<g id="edge10" class="edge"><title>Node71&#45;&gt;Node80</title>
<path fill="none" stroke="midnightblue" d="M140.589,-88.4166C168.697,-76.4539 209.209,-59.4802 245,-45.5 254.737,-41.6966 265.179,-37.7654 275.239,-34.0512"/>
<polygon fill="midnightblue" stroke="midnightblue" points="276.549,-37.2986 284.731,-30.5679 274.138,-30.727 276.549,-37.2986"/>
</g>
<!-- Node73 -->
<g id="node3" class="node"><title>Node73</title>
<g id="a_node3"><a xlink:href="class_little_weeb_library_1_1_static_classes_1_1_utility_methods.html#a76fa2aea99ce4b1ad4130cc18b1d5969" target="_top" xlink:title="LittleWeebLibrary.Static\lClasses.UtilityMethods.GetFree\lSpaceKbits">
<polygon fill="white" stroke="black" points="447,-228 447,-269 602,-269 602,-228 447,-228"/>
<text text-anchor="start" x="455" y="-257" font-family="Helvetica,sans-Serif" font-size="10.00">LittleWeebLibrary.Static</text>
<text text-anchor="start" x="455" y="-246" font-family="Helvetica,sans-Serif" font-size="10.00">Classes.UtilityMethods.GetFree</text>
<text text-anchor="middle" x="524.5" y="-235" font-family="Helvetica,sans-Serif" font-size="10.00">SpaceKbits</text>
</a>
</g>
</g>
<!-- Node72&#45;&gt;Node73 -->
<g id="edge2" class="edge"><title>Node72&#45;&gt;Node73</title>
<path fill="none" stroke="midnightblue" d="M382.148,-208.529C400.32,-213.668 421.098,-219.543 441.029,-225.179"/>
<polygon fill="midnightblue" stroke="midnightblue" points="440.155,-228.569 450.73,-227.922 442.059,-221.833 440.155,-228.569"/>
</g>
<!-- Node74 -->
<g id="node4" class="node"><title>Node74</title>
<g id="a_node4"><a xlink:href="class_little_weeb_library_1_1_models_1_1_json_download_queue.html#a1d77053fc493aa88857bcafd6fea4bf7" target="_top" xlink:title="LittleWeebLibrary.Models.\lJsonDownloadQueue.ToJObject">
<polygon fill="white" stroke="black" points="447.5,-178.5 447.5,-208.5 601.5,-208.5 601.5,-178.5 447.5,-178.5"/>
<text text-anchor="start" x="455.5" y="-196.5" font-family="Helvetica,sans-Serif" font-size="10.00">LittleWeebLibrary.Models.</text>
<text text-anchor="middle" x="524.5" y="-185.5" font-family="Helvetica,sans-Serif" font-size="10.00">JsonDownloadQueue.ToJObject</text>
</a>
</g>
</g>
<!-- Node72&#45;&gt;Node74 -->
<g id="edge3" class="edge"><title>Node72&#45;&gt;Node74</title>
<path fill="none" stroke="midnightblue" d="M407.55,-193.5C417.331,-193.5 427.375,-193.5 437.264,-193.5"/>
<polygon fill="midnightblue" stroke="midnightblue" points="437.497,-197 447.497,-193.5 437.497,-190 437.497,-197"/>
</g>
<!-- Node75 -->
<g id="node5" class="node"><title>Node75</title>
<g id="a_node5"><a xlink:href="class_little_weeb_library_1_1_models_1_1_json_error.html#a0623b835bb68d5d5e1f591df6a09dd81" target="_top" xlink:title="LittleWeebLibrary.Models.\lJsonError.ToJObject">
<polygon fill="white" stroke="black" points="459.5,-337.5 459.5,-367.5 589.5,-367.5 589.5,-337.5 459.5,-337.5"/>
<text text-anchor="start" x="467.5" y="-355.5" font-family="Helvetica,sans-Serif" font-size="10.00">LittleWeebLibrary.Models.</text>
<text text-anchor="middle" x="524.5" y="-344.5" font-family="Helvetica,sans-Serif" font-size="10.00">JsonError.ToJObject</text>
</a>
</g>
</g>
<!-- Node72&#45;&gt;Node75 -->
<g id="edge4" class="edge"><title>Node72&#45;&gt;Node75</title>
<path fill="none" stroke="midnightblue" d="M338.329,-208.905C356.031,-236.85 397.21,-296.004 447,-328.5 449.459,-330.105 452.032,-331.608 454.683,-333.016"/>
<polygon fill="midnightblue" stroke="midnightblue" points="453.418,-336.29 463.951,-337.441 456.435,-329.973 453.418,-336.29"/>
</g>
<!-- Node72&#45;&gt;Node76 -->
<g id="edge5" class="edge"><title>Node72&#45;&gt;Node76</title>
<path fill="none" stroke="midnightblue" d="M388.678,-178.465C409.308,-173.268 432.603,-167.399 453.955,-162.02"/>
<polygon fill="midnightblue" stroke="midnightblue" points="455.093,-165.343 463.935,-159.506 453.383,-158.555 455.093,-165.343"/>
</g>
<!-- Node77 -->
<g id="node7" class="node"><title>Node77</title>
<g id="a_node7"><a xlink:href="class_little_weeb_library_1_1_models_1_1_json_download_info.html#af36cbb3251b0efcd80a45f1fef89f5c9" target="_top" xlink:title="LittleWeebLibrary.Models.\lJsonDownloadInfo.ToString">
<polygon fill="white" stroke="black" points="458,-288.5 458,-318.5 591,-318.5 591,-288.5 458,-288.5"/>
<text text-anchor="start" x="466" y="-306.5" font-family="Helvetica,sans-Serif" font-size="10.00">LittleWeebLibrary.Models.</text>
<text text-anchor="middle" x="524.5" y="-295.5" font-family="Helvetica,sans-Serif" font-size="10.00">JsonDownloadInfo.ToString</text>
</a>
</g>
</g>
<!-- Node72&#45;&gt;Node77 -->
<g id="edge6" class="edge"><title>Node72&#45;&gt;Node77</title>
<path fill="none" stroke="midnightblue" d="M346.271,-208.596C368.325,-227.222 408.284,-258.831 447,-278.5 451.29,-280.679 455.81,-282.725 460.421,-284.633"/>
<polygon fill="midnightblue" stroke="midnightblue" points="459.379,-287.983 469.967,-288.356 461.922,-281.462 459.379,-287.983"/>
</g>
<!-- Node72&#45;&gt;Node78 -->
<g id="edge7" class="edge"><title>Node72&#45;&gt;Node78</title>
<path fill="none" stroke="midnightblue" d="M349.396,-178.429C372.221,-162.119 410.768,-136.207 447,-119.5 451.092,-117.613 455.373,-115.819 459.729,-114.126"/>
<polygon fill="midnightblue" stroke="midnightblue" points="461.171,-117.325 469.342,-110.58 458.748,-110.757 461.171,-117.325"/>
</g>
<!-- Node79&#45;&gt;Node78 -->
<g id="edge9" class="edge"><title>Node79&#45;&gt;Node78</title>
<path fill="none" stroke="midnightblue" d="M411.204,-100.119C421.468,-99.6967 431.961,-99.2651 442.211,-98.8435"/>
<polygon fill="midnightblue" stroke="midnightblue" points="442.515,-102.334 452.363,-98.4259 442.227,-95.34 442.515,-102.334"/>
</g>
</g>
</svg>
