<?xml version="1.0" encoding="UTF-8" standalone="no"?>
<!DOCTYPE svg PUBLIC "-//W3C//DTD SVG 1.1//EN"
 "http://www.w3.org/Graphics/SVG/1.1/DTD/svg11.dtd">
<!-- Generated by graphviz version 2.38.0 (20140413.2041)
 -->
<!-- Title: LittleWeebLibrary.Controllers.SubControllers.DataBaseWebSocketController.OnWebSocketEvent Pages: 1 -->
<!--zoomable 740 -->
<svg id="main" version="1.1" xmlns="http://www.w3.org/2000/svg" xmlns:xlink="http://www.w3.org/1999/xlink" xml:space="preserve" onload="init(evt)">
<style type="text/css"><![CDATA[
.edge:hover path { stroke: red; }
.edge:hover polygon { stroke: red; fill: red; }
]]></style>
<script type="text/javascript"><![CDATA[
var edges = document.getElementsByTagName('g');
if (edges && edges.length) {
  for (var i=0;i<edges.length;i++) {
    if (edges[i].id.substr(0,4)=='edge') {
      edges[i].setAttribute('class','edge');
    }
  }
}
]]></script>
        <defs>
                <circle id="rim" cx="0" cy="0" r="7"/>
                <circle id="rim2" cx="0" cy="0" r="3.5"/>
                <g id="zoomPlus">
                        <use xlink:href="#rim" fill="#404040">
                                <set attributeName="fill" to="#808080" begin="zoomplus.mouseover" end="zoomplus.mouseout"/>
                        </use>
                        <path d="M-4,0h8M0,-4v8" fill="none" stroke="white" stroke-width="1.5" pointer-events="none"/>
                </g>
                <g id="zoomMin">
                        <use xlink:href="#rim" fill="#404040">
                                <set attributeName="fill" to="#808080" begin="zoomminus.mouseover" end="zoomminus.mouseout"/>
                        </use>
                        <path d="M-4,0h8" fill="none" stroke="white" stroke-width="1.5" pointer-events="none"/>
                </g>
                <g id="dirArrow">
                        <path fill="none" stroke="white" stroke-width="1.5" d="M0,-3.0v7 M-2.5,-0.5L0,-3.0L2.5,-0.5"/>
                </g>
               <g id="resetDef">
                       <use xlink:href="#rim2" fill="#404040">
                               <set attributeName="fill" to="#808080" begin="reset.mouseover" end="reset.mouseout"/>
                       </use>
               </g>
        </defs>

<script type="text/javascript">
var viewWidth = 857;
var viewHeight = 740;
var sectionId = 'dynsection-3';
</script>
<script xlink:href="svgpan.js"/>
<svg id="graph" class="graph">
<g id="viewport">
<title>LittleWeebLibrary.Controllers.SubControllers.DataBaseWebSocketController.OnWebSocketEvent</title>
<polygon fill="white" stroke="none" points="-4,4 -4,-736 853,-736 853,4 -4,4"/>
<!-- Node3 -->
<g id="node1" class="node"><title>Node3</title>
<polygon fill="#bfbfbf" stroke="black" points="0,-287 0,-328 177,-328 177,-287 0,-287"/>
<text text-anchor="start" x="8" y="-316" font-family="Helvetica,sans-Serif" font-size="10.00">LittleWeebLibrary.Controllers.</text>
<text text-anchor="start" x="8" y="-305" font-family="Helvetica,sans-Serif" font-size="10.00">SubControllers.DataBaseWebSocket</text>
<text text-anchor="middle" x="88.5" y="-294" font-family="Helvetica,sans-Serif" font-size="10.00">Controller.OnWebSocketEvent</text>
</g>
<!-- Node4 -->
<g id="node2" class="node"><title>Node4</title>
<g id="a_node2"><a xlink:href="class_little_weeb_library_1_1_services_1_1_data_base_web_socket_service.html#a5d9baf510f46f6a3fac9fe84325bb017" target="_top" xlink:title="LittleWeebLibrary.Services.\lDataBaseWebSocketService.Delete\lDocument">
<polygon fill="white" stroke="black" points="232.5,-263 232.5,-304 405.5,-304 405.5,-263 232.5,-263"/>
<text text-anchor="start" x="240.5" y="-292" font-family="Helvetica,sans-Serif" font-size="10.00">LittleWeebLibrary.Services.</text>
<text text-anchor="start" x="240.5" y="-281" font-family="Helvetica,sans-Serif" font-size="10.00">DataBaseWebSocketService.Delete</text>
<text text-anchor="middle" x="319" y="-270" font-family="Helvetica,sans-Serif" font-size="10.00">Document</text>
</a>
</g>
</g>
<!-- Node3&#45;&gt;Node4 -->
<g id="edge1" class="edge"><title>Node3&#45;&gt;Node4</title>
<path fill="none" stroke="midnightblue" d="M177.191,-298.29C191.916,-296.743 207.264,-295.131 222.182,-293.564"/>
<polygon fill="midnightblue" stroke="midnightblue" points="222.848,-297.013 232.428,-292.488 222.117,-290.052 222.848,-297.013"/>
</g>
<!-- Node5 -->
<g id="node3" class="node"><title>Node5</title>
<g id="a_node3"><a xlink:href="class_little_weeb_library_1_1_handlers_1_1_debug_handler.html#afccb37dfd6b2114af72000c2f4fe4607" target="_top" xlink:title="LittleWeebLibrary.Handlers.\lDebugHandler.TraceMessage">
<polygon fill="white" stroke="black" points="684,-361.5 684,-391.5 828,-391.5 828,-361.5 684,-361.5"/>
<text text-anchor="start" x="692" y="-379.5" font-family="Helvetica,sans-Serif" font-size="10.00">LittleWeebLibrary.Handlers.</text>
<text text-anchor="middle" x="756" y="-368.5" font-family="Helvetica,sans-Serif" font-size="10.00">DebugHandler.TraceMessage</text>
</a>
</g>
</g>
<!-- Node3&#45;&gt;Node5 -->
<g id="edge40" class="edge"><title>Node3&#45;&gt;Node5</title>
<path fill="none" stroke="midnightblue" d="M94.8069,-286.896C107.132,-243.874 142.19,-145.203 213,-105.5 293.258,-60.4991 549.883,-62.3064 627,-112.5 711.87,-167.74 742.117,-296.395 751.396,-351.126"/>
<polygon fill="midnightblue" stroke="midnightblue" points="747.994,-352.014 753.027,-361.337 754.906,-350.91 747.994,-352.014"/>
</g>
<!-- Node7 -->
<g id="node5" class="node"><title>Node7</title>
<g id="a_node5"><a xlink:href="class_little_weeb_library_1_1_handlers_1_1_web_socket_handler.html#a1de289d54d665a32c93478c68d3e6ad0" target="_top" xlink:title="LittleWeebLibrary.Handlers.\lWebSocketHandler.SendMessage">
<polygon fill="white" stroke="black" points="461,-427.5 461,-457.5 627,-457.5 627,-427.5 461,-427.5"/>
<text text-anchor="start" x="469" y="-445.5" font-family="Helvetica,sans-Serif" font-size="10.00">LittleWeebLibrary.Handlers.</text>
<text text-anchor="middle" x="544" y="-434.5" font-family="Helvetica,sans-Serif" font-size="10.00">WebSocketHandler.SendMessage</text>
</a>
</g>
</g>
<!-- Node3&#45;&gt;Node7 -->
<g id="edge27" class="edge"><title>Node3&#45;&gt;Node7</title>
<path fill="none" stroke="midnightblue" d="M106.683,-328.156C128.539,-352.796 168.791,-392.977 213,-411.5 288.597,-443.175 382.231,-449.199 450.427,-448.311"/>
<polygon fill="midnightblue" stroke="midnightblue" points="450.789,-451.805 460.723,-448.122 450.66,-444.806 450.789,-451.805"/>
</g>
<!-- Node8 -->
<g id="node6" class="node"><title>Node8</title>
<g id="a_node6"><a xlink:href="class_little_weeb_library_1_1_models_1_1_json_error.html#a0e3e7dd2e2990404b7f0461742b23440" target="_top" xlink:title="LittleWeebLibrary.Models.\lJsonError.ToJson">
<polygon fill="white" stroke="black" points="479,-290.5 479,-320.5 609,-320.5 609,-290.5 479,-290.5"/>
<text text-anchor="start" x="487" y="-308.5" font-family="Helvetica,sans-Serif" font-size="10.00">LittleWeebLibrary.Models.</text>
<text text-anchor="middle" x="544" y="-297.5" font-family="Helvetica,sans-Serif" font-size="10.00">JsonError.ToJson</text>
</a>
</g>
</g>
<!-- Node3&#45;&gt;Node8 -->
<g id="edge37" class="edge"><title>Node3&#45;&gt;Node8</title>
<path fill="none" stroke="midnightblue" d="M177.188,-312.286C189.217,-312.789 201.412,-313.219 213,-313.5 307.194,-315.787 330.832,-316.688 425,-313.5 439.036,-313.025 453.996,-312.232 468.383,-311.326"/>
<polygon fill="midnightblue" stroke="midnightblue" points="468.986,-314.794 478.736,-310.649 468.529,-307.809 468.986,-314.794"/>
</g>
<!-- Node10 -->
<g id="node8" class="node"><title>Node10</title>
<g id="a_node8"><a xlink:href="class_little_weeb_library_1_1_services_1_1_data_base_web_socket_service.html#aef8bdd650778c72d639f1e89c1d6dcad" target="_top" xlink:title="LittleWeebLibrary.Services.\lDataBaseWebSocketService.GetCollection">
<polygon fill="white" stroke="black" points="217.5,-538.5 217.5,-568.5 420.5,-568.5 420.5,-538.5 217.5,-538.5"/>
<text text-anchor="start" x="225.5" y="-556.5" font-family="Helvetica,sans-Serif" font-size="10.00">LittleWeebLibrary.Services.</text>
<text text-anchor="middle" x="319" y="-545.5" font-family="Helvetica,sans-Serif" font-size="10.00">DataBaseWebSocketService.GetCollection</text>
</a>
</g>
</g>
<!-- Node3&#45;&gt;Node10 -->
<g id="edge9" class="edge"><title>Node3&#45;&gt;Node10</title>
<path fill="none" stroke="midnightblue" d="M97.3297,-328.182C113.334,-367.949 153.388,-455.714 213,-507.5 225.94,-518.741 242.057,-527.625 257.749,-534.465"/>
<polygon fill="midnightblue" stroke="midnightblue" points="256.854,-537.882 267.433,-538.463 259.525,-531.412 256.854,-537.882"/>
</g>
<!-- Node15 -->
<g id="node13" class="node"><title>Node15</title>
<g id="a_node13"><a xlink:href="class_little_weeb_library_1_1_services_1_1_data_base_web_socket_service.html#aa51350396b2aa1634a680c94bebdc64c" target="_top" xlink:title="LittleWeebLibrary.Services.\lDataBaseWebSocketService.GetDocument">
<polygon fill="white" stroke="black" points="216.5,-468.5 216.5,-498.5 421.5,-498.5 421.5,-468.5 216.5,-468.5"/>
<text text-anchor="start" x="224.5" y="-486.5" font-family="Helvetica,sans-Serif" font-size="10.00">LittleWeebLibrary.Services.</text>
<text text-anchor="middle" x="319" y="-475.5" font-family="Helvetica,sans-Serif" font-size="10.00">DataBaseWebSocketService.GetDocument</text>
</a>
</g>
</g>
<!-- Node3&#45;&gt;Node15 -->
<g id="edge18" class="edge"><title>Node3&#45;&gt;Node15</title>
<path fill="none" stroke="midnightblue" d="M101.986,-328.218C121.736,-359.265 163.11,-417.708 213,-450.5 221.652,-456.187 231.345,-460.945 241.251,-464.912"/>
<polygon fill="midnightblue" stroke="midnightblue" points="240.195,-468.254 250.787,-468.478 242.647,-461.697 240.195,-468.254"/>
</g>
<!-- Node18 -->
<g id="node16" class="node"><title>Node18</title>
<g id="a_node16"><a xlink:href="class_little_weeb_library_1_1_services_1_1_data_base_web_socket_service.html#af85671a494e85f8418f60606566521f0" target="_top" xlink:title="LittleWeebLibrary.Services.\lDataBaseWebSocketService.StoreDocument">
<polygon fill="white" stroke="black" points="213,-213.5 213,-243.5 425,-243.5 425,-213.5 213,-213.5"/>
<text text-anchor="start" x="221" y="-231.5" font-family="Helvetica,sans-Serif" font-size="10.00">LittleWeebLibrary.Services.</text>
<text text-anchor="middle" x="319" y="-220.5" font-family="Helvetica,sans-Serif" font-size="10.00">DataBaseWebSocketService.StoreDocument</text>
</a>
</g>
</g>
<!-- Node3&#45;&gt;Node18 -->
<g id="edge28" class="edge"><title>Node3&#45;&gt;Node18</title>
<path fill="none" stroke="midnightblue" d="M131.348,-286.976C154.926,-275.981 185.15,-262.821 213,-253.5 220.855,-250.871 229.128,-248.405 237.44,-246.123"/>
<polygon fill="midnightblue" stroke="midnightblue" points="238.428,-249.482 247.193,-243.531 236.63,-242.717 238.428,-249.482"/>
</g>
<!-- Node22 -->
<g id="node20" class="node"><title>Node22</title>
<g id="a_node20"><a xlink:href="class_little_weeb_library_1_1_event_arguments_1_1_web_socket_event_args.html#acf402c2f7fd4ddbf175fea7f921ea879" target="_top" xlink:title="LittleWeebLibrary.EventArguments.\lWebSocketEventArgs.ToString">
<polygon fill="white" stroke="black" points="234,-164.5 234,-194.5 404,-194.5 404,-164.5 234,-164.5"/>
<text text-anchor="start" x="242" y="-182.5" font-family="Helvetica,sans-Serif" font-size="10.00">LittleWeebLibrary.EventArguments.</text>
<text text-anchor="middle" x="319" y="-171.5" font-family="Helvetica,sans-Serif" font-size="10.00">WebSocketEventArgs.ToString</text>
</a>
</g>
</g>
<!-- Node3&#45;&gt;Node22 -->
<g id="edge38" class="edge"><title>Node3&#45;&gt;Node22</title>
<path fill="none" stroke="midnightblue" d="M107.905,-286.95C130.36,-263.184 170.601,-224.628 213,-203.5 217.015,-201.499 221.2,-199.662 225.488,-197.977"/>
<polygon fill="midnightblue" stroke="midnightblue" points="226.805,-201.222 235.012,-194.523 224.418,-194.642 226.805,-201.222"/>
</g>
<!-- Node23 -->
<g id="node21" class="node"><title>Node23</title>
<g id="a_node21"><a xlink:href="class_little_weeb_library_1_1_models_1_1_json_error.html#ad7d5522c90119111d2e929f39e7f6d3c" target="_top" xlink:title="LittleWeebLibrary.Models.\lJsonError.ToString">
<polygon fill="white" stroke="black" points="254,-115.5 254,-145.5 384,-145.5 384,-115.5 254,-115.5"/>
<text text-anchor="start" x="262" y="-133.5" font-family="Helvetica,sans-Serif" font-size="10.00">LittleWeebLibrary.Models.</text>
<text text-anchor="middle" x="319" y="-122.5" font-family="Helvetica,sans-Serif" font-size="10.00">JsonError.ToString</text>
</a>
</g>
</g>
<!-- Node3&#45;&gt;Node23 -->
<g id="edge39" class="edge"><title>Node3&#45;&gt;Node23</title>
<path fill="none" stroke="midnightblue" d="M100.072,-286.981C118.353,-253.659 159.144,-188.13 213,-154.5 222.507,-148.563 233.319,-144.091 244.303,-140.723"/>
<polygon fill="midnightblue" stroke="midnightblue" points="245.272,-144.086 253.971,-138.038 243.399,-137.341 245.272,-144.086"/>
</g>
<!-- Node24 -->
<g id="node22" class="node"><title>Node24</title>
<g id="a_node22"><a xlink:href="class_little_weeb_library_1_1_services_1_1_data_base_web_socket_service.html#a3771a51f4d0aab2cd4f65676427d0902" target="_top" xlink:title="LittleWeebLibrary.Services.\lDataBaseWebSocketService.Update\lDocument">
<polygon fill="white" stroke="black" points="231,-361 231,-402 407,-402 407,-361 231,-361"/>
<text text-anchor="start" x="239" y="-390" font-family="Helvetica,sans-Serif" font-size="10.00">LittleWeebLibrary.Services.</text>
<text text-anchor="start" x="239" y="-379" font-family="Helvetica,sans-Serif" font-size="10.00">DataBaseWebSocketService.Update</text>
<text text-anchor="middle" x="319" y="-368" font-family="Helvetica,sans-Serif" font-size="10.00">Document</text>
</a>
</g>
</g>
<!-- Node3&#45;&gt;Node24 -->
<g id="edge41" class="edge"><title>Node3&#45;&gt;Node24</title>
<path fill="none" stroke="midnightblue" d="M152.847,-328.015C181.326,-337.238 215.109,-348.179 244.678,-357.755"/>
<polygon fill="midnightblue" stroke="midnightblue" points="243.938,-361.194 254.53,-360.945 246.095,-354.534 243.938,-361.194"/>
</g>
<!-- Node4&#45;&gt;Node5 -->
<g id="edge2" class="edge"><title>Node4&#45;&gt;Node5</title>
<path fill="none" stroke="midnightblue" d="M405.7,-268.006C468.593,-260.106 555.196,-256.565 627,-280.5 670.327,-294.942 710.798,-330.431 734.21,-353.976"/>
<polygon fill="midnightblue" stroke="midnightblue" points="731.997,-356.721 741.475,-361.455 737.018,-351.843 731.997,-356.721"/>
</g>
<!-- Node6 -->
<g id="node4" class="node"><title>Node6</title>
<g id="a_node4"><a xlink:href="class_little_weeb_library_1_1_handlers_1_1_data_base_handler.html#a7821535a003c7675c09ba846bd9502ca" target="_top" xlink:title="LittleWeebLibrary.Handlers.\lDataBaseHandler.RemoveJObject">
<polygon fill="white" stroke="black" points="462.5,-202.5 462.5,-232.5 625.5,-232.5 625.5,-202.5 462.5,-202.5"/>
<text text-anchor="start" x="470.5" y="-220.5" font-family="Helvetica,sans-Serif" font-size="10.00">LittleWeebLibrary.Handlers.</text>
<text text-anchor="middle" x="544" y="-209.5" font-family="Helvetica,sans-Serif" font-size="10.00">DataBaseHandler.RemoveJObject</text>
</a>
</g>
</g>
<!-- Node4&#45;&gt;Node6 -->
<g id="edge3" class="edge"><title>Node4&#45;&gt;Node6</title>
<path fill="none" stroke="midnightblue" d="M389.756,-262.919C401.521,-259.444 413.609,-255.871 425,-252.5 443.758,-246.949 464.19,-240.892 482.7,-235.402"/>
<polygon fill="midnightblue" stroke="midnightblue" points="483.882,-238.702 492.473,-232.502 481.89,-231.991 483.882,-238.702"/>
</g>
<!-- Node4&#45;&gt;Node7 -->
<g id="edge5" class="edge"><title>Node4&#45;&gt;Node7</title>
<path fill="none" stroke="midnightblue" d="M353.568,-304.251C374.413,-317.379 401.598,-334.941 425,-351.5 442.491,-363.877 486.752,-398.337 515.816,-421.12"/>
<polygon fill="midnightblue" stroke="midnightblue" points="513.91,-424.074 523.938,-427.494 518.231,-418.567 513.91,-424.074"/>
</g>
<!-- Node4&#45;&gt;Node8 -->
<g id="edge7" class="edge"><title>Node4&#45;&gt;Node8</title>
<path fill="none" stroke="midnightblue" d="M405.58,-291.943C426.385,-293.995 448.464,-296.174 468.697,-298.17"/>
<polygon fill="midnightblue" stroke="midnightblue" points="468.484,-301.666 478.78,-299.164 469.172,-294.699 468.484,-301.666"/>
</g>
<!-- Node9 -->
<g id="node7" class="node"><title>Node9</title>
<g id="a_node7"><a xlink:href="class_little_weeb_library_1_1_models_1_1_json_success.html#a407103dc37a77aaf47a782296bab7518" target="_top" xlink:title="LittleWeebLibrary.Models.\lJsonSuccess.ToJson">
<polygon fill="white" stroke="black" points="479,-153.5 479,-183.5 609,-183.5 609,-153.5 479,-153.5"/>
<text text-anchor="start" x="487" y="-171.5" font-family="Helvetica,sans-Serif" font-size="10.00">LittleWeebLibrary.Models.</text>
<text text-anchor="middle" x="544" y="-160.5" font-family="Helvetica,sans-Serif" font-size="10.00">JsonSuccess.ToJson</text>
</a>
</g>
</g>
<!-- Node4&#45;&gt;Node9 -->
<g id="edge8" class="edge"><title>Node4&#45;&gt;Node9</title>
<path fill="none" stroke="midnightblue" d="M405.534,-264.347C412.458,-261.011 419.063,-257.096 425,-252.5 449.592,-233.464 436.386,-211.507 461,-192.5 463.785,-190.35 466.757,-188.392 469.859,-186.609"/>
<polygon fill="midnightblue" stroke="midnightblue" points="471.553,-189.675 478.894,-182.035 468.391,-183.429 471.553,-189.675"/>
</g>
<!-- Node6&#45;&gt;Node5 -->
<g id="edge4" class="edge"><title>Node6&#45;&gt;Node5</title>
<path fill="none" stroke="midnightblue" d="M596.949,-232.588C607.305,-236.66 617.811,-241.61 627,-247.5 672.495,-276.662 714.411,-324.548 737.171,-353.049"/>
<polygon fill="midnightblue" stroke="midnightblue" points="734.671,-355.531 743.603,-361.229 740.174,-351.205 734.671,-355.531"/>
</g>
<!-- Node7&#45;&gt;Node5 -->
<g id="edge6" class="edge"><title>Node7&#45;&gt;Node5</title>
<path fill="none" stroke="midnightblue" d="M592.915,-427.441C623.852,-417.718 664.288,-405.01 697.032,-394.719"/>
<polygon fill="midnightblue" stroke="midnightblue" points="698.437,-397.946 706.928,-391.608 696.338,-391.268 698.437,-397.946"/>
</g>
<!-- Node10&#45;&gt;Node5 -->
<g id="edge10" class="edge"><title>Node10&#45;&gt;Node5</title>
<path fill="none" stroke="midnightblue" d="M375.374,-568.5C439.721,-582.753 547.251,-596.513 627,-555.5 690.737,-522.721 729.798,-441.857 746.12,-400.986"/>
<polygon fill="midnightblue" stroke="midnightblue" points="749.442,-402.1 749.781,-391.511 742.912,-399.577 749.442,-402.1"/>
</g>
<!-- Node10&#45;&gt;Node7 -->
<g id="edge15" class="edge"><title>Node10&#45;&gt;Node7</title>
<path fill="none" stroke="midnightblue" d="M356.818,-538.336C377.132,-529.729 402.689,-518.504 425,-507.5 453.518,-493.435 485.025,-475.977 508.305,-462.696"/>
<polygon fill="midnightblue" stroke="midnightblue" points="510.179,-465.656 517.114,-457.646 506.698,-459.583 510.179,-465.656"/>
</g>
<!-- Node10&#45;&gt;Node8 -->
<g id="edge17" class="edge"><title>Node10&#45;&gt;Node8</title>
<path fill="none" stroke="midnightblue" d="M380.186,-538.487C396.894,-531.593 413.568,-521.674 425,-507.5 475.671,-444.675 406.409,-388.951 461,-329.5 463.743,-326.512 466.836,-323.889 470.172,-321.587"/>
<polygon fill="midnightblue" stroke="midnightblue" points="472.028,-324.557 478.907,-316.499 468.504,-318.508 472.028,-324.557"/>
</g>
<!-- Node11 -->
<g id="node9" class="node"><title>Node11</title>
<g id="a_node9"><a xlink:href="class_little_weeb_library_1_1_handlers_1_1_data_base_handler.html#ae04312874502a18b241c1123ef963b90" target="_top" xlink:title="LittleWeebLibrary.Handlers.\lDataBaseHandler.GetCollection">
<polygon fill="white" stroke="black" points="467,-701.5 467,-731.5 621,-731.5 621,-701.5 467,-701.5"/>
<text text-anchor="start" x="475" y="-719.5" font-family="Helvetica,sans-Serif" font-size="10.00">LittleWeebLibrary.Handlers.</text>
<text text-anchor="middle" x="544" y="-708.5" font-family="Helvetica,sans-Serif" font-size="10.00">DataBaseHandler.GetCollection</text>
</a>
</g>
</g>
<!-- Node10&#45;&gt;Node11 -->
<g id="edge11" class="edge"><title>Node10&#45;&gt;Node11</title>
<path fill="none" stroke="midnightblue" d="M331.024,-568.502C352.711,-596.947 403.81,-658.876 461,-692.5 463.967,-694.244 467.07,-695.87 470.259,-697.383"/>
<polygon fill="midnightblue" stroke="midnightblue" points="468.87,-700.596 479.438,-701.359 471.652,-694.172 468.87,-700.596"/>
</g>
<!-- Node14 -->
<g id="node12" class="node"><title>Node14</title>
<g id="a_node12"><a xlink:href="class_little_weeb_library_1_1_models_1_1_json_data_base_collection.html#a2df5ba56e4691271213328b9bc2dbb1f" target="_top" xlink:title="LittleWeebLibrary.Models.\lJsonDataBaseCollection.ToJson">
<polygon fill="white" stroke="black" points="466,-652.5 466,-682.5 622,-682.5 622,-652.5 466,-652.5"/>
<text text-anchor="start" x="474" y="-670.5" font-family="Helvetica,sans-Serif" font-size="10.00">LittleWeebLibrary.Models.</text>
<text text-anchor="middle" x="544" y="-659.5" font-family="Helvetica,sans-Serif" font-size="10.00">JsonDataBaseCollection.ToJson</text>
</a>
</g>
</g>
<!-- Node10&#45;&gt;Node14 -->
<g id="edge16" class="edge"><title>Node10&#45;&gt;Node14</title>
<path fill="none" stroke="midnightblue" d="M339.518,-568.516C365.83,-588.141 414.729,-622.48 461,-643.5 465.33,-645.467 469.862,-647.318 474.477,-649.051"/>
<polygon fill="midnightblue" stroke="midnightblue" points="473.434,-652.394 484.028,-652.441 475.775,-645.798 473.434,-652.394"/>
</g>
<!-- Node11&#45;&gt;Node5 -->
<g id="edge12" class="edge"><title>Node11&#45;&gt;Node5</title>
<path fill="none" stroke="midnightblue" d="M614.607,-701.29C619.067,-698.791 623.26,-695.883 627,-692.5 629.909,-689.869 715.803,-474.83 745.225,-401.034"/>
<polygon fill="midnightblue" stroke="midnightblue" points="748.536,-402.181 748.987,-391.596 742.033,-399.589 748.536,-402.181"/>
</g>
<!-- Node12 -->
<g id="node10" class="node"><title>Node12</title>
<g id="a_node10"><a xlink:href="class_little_weeb_library_1_1_static_classes_1_1_utility_methods.html#a7b5de7a3ecc749b655fc3ed2af55360b" target="_top" xlink:title="LittleWeebLibrary.Static\lClasses.UtilityMethods.ReadBinaryFile">
<polygon fill="white" stroke="black" points="663,-615.5 663,-645.5 849,-645.5 849,-615.5 663,-615.5"/>
<text text-anchor="start" x="671" y="-633.5" font-family="Helvetica,sans-Serif" font-size="10.00">LittleWeebLibrary.Static</text>
<text text-anchor="middle" x="756" y="-622.5" font-family="Helvetica,sans-Serif" font-size="10.00">Classes.UtilityMethods.ReadBinaryFile</text>
</a>
</g>
</g>
<!-- Node11&#45;&gt;Node12 -->
<g id="edge13" class="edge"><title>Node11&#45;&gt;Node12</title>
<path fill="none" stroke="midnightblue" d="M600.994,-701.466C609.779,-698.72 618.696,-695.701 627,-692.5 658.462,-680.373 692.779,-663.543 717.954,-650.477"/>
<polygon fill="midnightblue" stroke="midnightblue" points="719.895,-653.411 727.13,-645.671 716.647,-647.21 719.895,-653.411"/>
</g>
<!-- Node13 -->
<g id="node11" class="node"><title>Node13</title>
<g id="a_node11"><a xlink:href="class_little_weeb_library_1_1_static_classes_1_1_utility_methods.html#a0a86ee01a3bf201bd9cc9b2552e54976" target="_top" xlink:title="LittleWeebLibrary.Static\lClasses.UtilityMethods.Unzip">
<polygon fill="white" stroke="black" points="683.5,-688.5 683.5,-718.5 828.5,-718.5 828.5,-688.5 683.5,-688.5"/>
<text text-anchor="start" x="691.5" y="-706.5" font-family="Helvetica,sans-Serif" font-size="10.00">LittleWeebLibrary.Static</text>
<text text-anchor="middle" x="756" y="-695.5" font-family="Helvetica,sans-Serif" font-size="10.00">Classes.UtilityMethods.Unzip</text>
</a>
</g>
</g>
<!-- Node11&#45;&gt;Node13 -->
<g id="edge14" class="edge"><title>Node11&#45;&gt;Node13</title>
<path fill="none" stroke="midnightblue" d="M621.112,-711.788C638.087,-710.737 656.154,-709.619 673.343,-708.555"/>
<polygon fill="midnightblue" stroke="midnightblue" points="673.582,-712.047 683.346,-707.936 673.149,-705.06 673.582,-712.047"/>
</g>
<!-- Node15&#45;&gt;Node5 -->
<g id="edge19" class="edge"><title>Node15&#45;&gt;Node5</title>
<path fill="none" stroke="midnightblue" d="M421.555,-491.717C482.698,-493.313 561.19,-489.341 627,-466.5 668.273,-452.175 708.204,-420.331 732.191,-398.631"/>
<polygon fill="midnightblue" stroke="midnightblue" points="734.723,-401.058 739.694,-391.701 729.973,-395.916 734.723,-401.058"/>
</g>
<!-- Node15&#45;&gt;Node7 -->
<g id="edge24" class="edge"><title>Node15&#45;&gt;Node7</title>
<path fill="none" stroke="midnightblue" d="M401.771,-468.466C417.829,-465.513 434.776,-462.398 451.139,-459.389"/>
<polygon fill="midnightblue" stroke="midnightblue" points="452.037,-462.783 461.239,-457.532 450.771,-455.898 452.037,-462.783"/>
</g>
<!-- Node15&#45;&gt;Node8 -->
<g id="edge25" class="edge"><title>Node15&#45;&gt;Node8</title>
<path fill="none" stroke="midnightblue" d="M351.05,-468.291C374.013,-455.73 404.698,-436.013 425,-411.5 450.388,-380.846 431.101,-355.772 461,-329.5 463.7,-327.127 466.624,-324.989 469.705,-323.061"/>
<polygon fill="midnightblue" stroke="midnightblue" points="471.619,-326.005 478.749,-318.169 468.288,-319.848 471.619,-326.005"/>
</g>
<!-- Node16 -->
<g id="node14" class="node"><title>Node16</title>
<g id="a_node14"><a xlink:href="class_little_weeb_library_1_1_handlers_1_1_data_base_handler.html#a7f61583807f99b7838a33d2db0f7ca68" target="_top" xlink:title="LittleWeebLibrary.Handlers.\lDataBaseHandler.GetJObject">
<polygon fill="white" stroke="black" points="472,-603.5 472,-633.5 616,-633.5 616,-603.5 472,-603.5"/>
<text text-anchor="start" x="480" y="-621.5" font-family="Helvetica,sans-Serif" font-size="10.00">LittleWeebLibrary.Handlers.</text>
<text text-anchor="middle" x="544" y="-610.5" font-family="Helvetica,sans-Serif" font-size="10.00">DataBaseHandler.GetJObject</text>
</a>
</g>
</g>
<!-- Node15&#45;&gt;Node16 -->
<g id="edge20" class="edge"><title>Node15&#45;&gt;Node16</title>
<path fill="none" stroke="midnightblue" d="M360.216,-498.541C380.232,-506.665 404.475,-517.486 425,-529.5 434.402,-535.003 483.258,-572.371 515.085,-596.905"/>
<polygon fill="midnightblue" stroke="midnightblue" points="513.113,-599.805 523.169,-603.143 517.39,-594.263 513.113,-599.805"/>
</g>
<!-- Node17 -->
<g id="node15" class="node"><title>Node17</title>
<g id="a_node15"><a xlink:href="class_little_weeb_library_1_1_models_1_1_json_data_base_document.html#a0a84a997c39ac76d99382cdabf9227bf" target="_top" xlink:title="LittleWeebLibrary.Models.\lJsonDataBaseDocument.ToString">
<polygon fill="white" stroke="black" points="462.5,-515.5 462.5,-545.5 625.5,-545.5 625.5,-515.5 462.5,-515.5"/>
<text text-anchor="start" x="470.5" y="-533.5" font-family="Helvetica,sans-Serif" font-size="10.00">LittleWeebLibrary.Models.</text>
<text text-anchor="middle" x="544" y="-522.5" font-family="Helvetica,sans-Serif" font-size="10.00">JsonDataBaseDocument.ToString</text>
</a>
</g>
</g>
<!-- Node15&#45;&gt;Node17 -->
<g id="edge26" class="edge"><title>Node15&#45;&gt;Node17</title>
<path fill="none" stroke="midnightblue" d="M391.172,-498.5C413.701,-503.249 438.77,-508.532 461.939,-513.415"/>
<polygon fill="midnightblue" stroke="midnightblue" points="461.233,-516.843 471.74,-515.481 462.676,-509.994 461.233,-516.843"/>
</g>
<!-- Node16&#45;&gt;Node5 -->
<g id="edge21" class="edge"><title>Node16&#45;&gt;Node5</title>
<path fill="none" stroke="midnightblue" d="M601.978,-603.411C610.92,-599.474 619.629,-594.573 627,-588.5 689.974,-536.613 729.925,-445.144 746.379,-401.298"/>
<polygon fill="midnightblue" stroke="midnightblue" points="749.736,-402.31 749.883,-391.716 743.161,-399.906 749.736,-402.31"/>
</g>
<!-- Node16&#45;&gt;Node12 -->
<g id="edge22" class="edge"><title>Node16&#45;&gt;Node12</title>
<path fill="none" stroke="midnightblue" d="M616.096,-622.563C627.809,-623.232 640.153,-623.937 652.452,-624.64"/>
<polygon fill="midnightblue" stroke="midnightblue" points="652.574,-628.153 662.757,-625.229 652.973,-621.164 652.574,-628.153"/>
</g>
<!-- Node16&#45;&gt;Node13 -->
<g id="edge23" class="edge"><title>Node16&#45;&gt;Node13</title>
<path fill="none" stroke="midnightblue" d="M598.309,-633.545C607.941,-636.605 617.832,-639.974 627,-643.5 657.874,-655.373 691.719,-671.376 716.848,-683.868"/>
<polygon fill="midnightblue" stroke="midnightblue" points="715.52,-687.117 726.028,-688.468 718.656,-680.859 715.52,-687.117"/>
</g>
<!-- Node18&#45;&gt;Node5 -->
<g id="edge29" class="edge"><title>Node18&#45;&gt;Node5</title>
<path fill="none" stroke="midnightblue" d="M407.818,-213.437C413.901,-210.657 419.708,-207.375 425,-203.5 450.091,-185.127 433.938,-158.822 461,-143.5 525.201,-107.15 563.502,-105.934 627,-143.5 704.715,-189.477 738.404,-301.265 749.97,-351.42"/>
<polygon fill="midnightblue" stroke="midnightblue" points="746.601,-352.399 752.167,-361.415 753.438,-350.896 746.601,-352.399"/>
</g>
<!-- Node18&#45;&gt;Node7 -->
<g id="edge34" class="edge"><title>Node18&#45;&gt;Node7</title>
<path fill="none" stroke="midnightblue" d="M411.99,-243.76C416.681,-246.525 421.069,-249.748 425,-253.5 466.823,-293.415 428.631,-330.597 461,-378.5 472.773,-395.923 490.8,-410.736 506.956,-421.71"/>
<polygon fill="midnightblue" stroke="midnightblue" points="505.4,-424.874 515.688,-427.404 509.223,-419.01 505.4,-424.874"/>
</g>
<!-- Node18&#45;&gt;Node8 -->
<g id="edge36" class="edge"><title>Node18&#45;&gt;Node8</title>
<path fill="none" stroke="midnightblue" d="M390.816,-243.504C402.342,-246.475 414.077,-249.827 425,-253.5 451.922,-262.554 481.142,-275.406 503.77,-286.067"/>
<polygon fill="midnightblue" stroke="midnightblue" points="502.505,-289.342 513.038,-290.485 505.517,-283.023 502.505,-289.342"/>
</g>
<!-- Node18&#45;&gt;Node9 -->
<g id="edge35" class="edge"><title>Node18&#45;&gt;Node9</title>
<path fill="none" stroke="midnightblue" d="M385.974,-213.461C398.949,-210.315 412.432,-206.913 425,-203.5 441.146,-199.116 444.971,-197.294 461,-192.5 467.588,-190.529 474.479,-188.485 481.348,-186.459"/>
<polygon fill="midnightblue" stroke="midnightblue" points="482.751,-189.695 491.357,-183.514 480.775,-182.98 482.751,-189.695"/>
</g>
<!-- Node19 -->
<g id="node17" class="node"><title>Node19</title>
<g id="a_node17"><a xlink:href="class_little_weeb_library_1_1_handlers_1_1_data_base_handler.html#a5e6a70ef81b049da46b6ae3a15b09cd3" target="_top" xlink:title="LittleWeebLibrary.Handlers.\lDataBaseHandler.StoreJObject">
<polygon fill="white" stroke="black" points="468,-27.5 468,-57.5 620,-57.5 620,-27.5 468,-27.5"/>
<text text-anchor="start" x="476" y="-45.5" font-family="Helvetica,sans-Serif" font-size="10.00">LittleWeebLibrary.Handlers.</text>
<text text-anchor="middle" x="544" y="-34.5" font-family="Helvetica,sans-Serif" font-size="10.00">DataBaseHandler.StoreJObject</text>
</a>
</g>
</g>
<!-- Node18&#45;&gt;Node19 -->
<g id="edge30" class="edge"><title>Node18&#45;&gt;Node19</title>
<path fill="none" stroke="midnightblue" d="M410.612,-213.363C415.767,-210.581 420.624,-207.32 425,-203.5 458.392,-174.355 435.107,-146.472 461,-110.5 474.249,-92.0939 493.62,-75.7187 510.208,-63.652"/>
<polygon fill="midnightblue" stroke="midnightblue" points="512.426,-66.3703 518.581,-57.7467 508.392,-60.6498 512.426,-66.3703"/>
</g>
<!-- Node19&#45;&gt;Node5 -->
<g id="edge31" class="edge"><title>Node19&#45;&gt;Node5</title>
<path fill="none" stroke="midnightblue" d="M604.859,-57.6906C612.947,-61.5757 620.636,-66.4333 627,-72.5 710.33,-151.939 741.72,-294.095 751.357,-351.468"/>
<polygon fill="midnightblue" stroke="midnightblue" points="747.92,-352.144 752.957,-361.465 754.832,-351.038 747.92,-352.144"/>
</g>
<!-- Node20 -->
<g id="node18" class="node"><title>Node20</title>
<g id="a_node18"><a xlink:href="class_little_weeb_library_1_1_static_classes_1_1_utility_methods.html#a16933213071d531063b29979e7b55fe8" target="_top" xlink:title="LittleWeebLibrary.Static\lClasses.UtilityMethods.Zip">
<polygon fill="white" stroke="black" points="689.5,-0.5 689.5,-30.5 822.5,-30.5 822.5,-0.5 689.5,-0.5"/>
<text text-anchor="start" x="697.5" y="-18.5" font-family="Helvetica,sans-Serif" font-size="10.00">LittleWeebLibrary.Static</text>
<text text-anchor="middle" x="756" y="-7.5" font-family="Helvetica,sans-Serif" font-size="10.00">Classes.UtilityMethods.Zip</text>
</a>
</g>
</g>
<!-- Node19&#45;&gt;Node20 -->
<g id="edge32" class="edge"><title>Node19&#45;&gt;Node20</title>
<path fill="none" stroke="midnightblue" d="M620.222,-32.8286C639.464,-30.3546 660.161,-27.6936 679.421,-25.2173"/>
<polygon fill="midnightblue" stroke="midnightblue" points="679.875,-28.6879 689.347,-23.9411 678.982,-21.745 679.875,-28.6879"/>
</g>
<!-- Node21 -->
<g id="node19" class="node"><title>Node21</title>
<g id="a_node19"><a xlink:href="class_little_weeb_library_1_1_static_classes_1_1_utility_methods.html#a6542a3a6ea0aed6b4d78bb44a4a7d9d7" target="_top" xlink:title="LittleWeebLibrary.Static\lClasses.UtilityMethods.Write\lBinaryFile">
<polygon fill="white" stroke="black" points="684.5,-50 684.5,-91 827.5,-91 827.5,-50 684.5,-50"/>
<text text-anchor="start" x="692.5" y="-79" font-family="Helvetica,sans-Serif" font-size="10.00">LittleWeebLibrary.Static</text>
<text text-anchor="start" x="692.5" y="-68" font-family="Helvetica,sans-Serif" font-size="10.00">Classes.UtilityMethods.Write</text>
<text text-anchor="middle" x="756" y="-57" font-family="Helvetica,sans-Serif" font-size="10.00">BinaryFile</text>
</a>
</g>
</g>
<!-- Node19&#45;&gt;Node21 -->
<g id="edge33" class="edge"><title>Node19&#45;&gt;Node21</title>
<path fill="none" stroke="midnightblue" d="M620.222,-52.5296C637.635,-54.8514 656.24,-57.332 673.893,-59.6857"/>
<polygon fill="midnightblue" stroke="midnightblue" points="673.786,-63.2024 684.161,-61.0548 674.711,-56.2638 673.786,-63.2024"/>
</g>
<!-- Node24&#45;&gt;Node5 -->
<g id="edge42" class="edge"><title>Node24&#45;&gt;Node5</title>
<path fill="none" stroke="midnightblue" d="M407.008,-380.785C468.473,-380.247 552.784,-379.442 627,-378.5 642.131,-378.308 658.267,-378.076 673.804,-377.84"/>
<polygon fill="midnightblue" stroke="midnightblue" points="673.966,-381.338 683.911,-377.685 673.858,-374.339 673.966,-381.338"/>
</g>
<!-- Node24&#45;&gt;Node7 -->
<g id="edge45" class="edge"><title>Node24&#45;&gt;Node7</title>
<path fill="none" stroke="midnightblue" d="M395.187,-402.067C422.096,-409.427 452.172,-417.655 478.134,-424.756"/>
<polygon fill="midnightblue" stroke="midnightblue" points="477.298,-428.156 487.867,-427.419 479.145,-421.404 477.298,-428.156"/>
</g>
<!-- Node24&#45;&gt;Node8 -->
<g id="edge47" class="edge"><title>Node24&#45;&gt;Node8</title>
<path fill="none" stroke="midnightblue" d="M385.692,-360.945C398.816,-356.463 412.427,-351.543 425,-346.5 441.422,-339.913 444.459,-335.782 461,-329.5 466.2,-327.525 471.636,-325.614 477.128,-323.79"/>
<polygon fill="midnightblue" stroke="midnightblue" points="478.584,-326.998 487.033,-320.606 476.442,-320.334 478.584,-326.998"/>
</g>
<!-- Node24&#45;&gt;Node9 -->
<g id="edge46" class="edge"><title>Node24&#45;&gt;Node9</title>
<path fill="none" stroke="midnightblue" d="M366.048,-360.973C386.729,-349.657 409.837,-333.754 425,-313.5 458.626,-268.585 421.238,-232.086 461,-192.5 463.736,-189.776 466.764,-187.357 469.996,-185.211"/>
<polygon fill="midnightblue" stroke="midnightblue" points="471.983,-188.108 478.966,-180.14 468.538,-182.014 471.983,-188.108"/>
</g>
<!-- Node25 -->
<g id="node23" class="node"><title>Node25</title>
<g id="a_node23"><a xlink:href="class_little_weeb_library_1_1_handlers_1_1_data_base_handler.html#a9b2223ff71f688234f95d247ea3b5739" target="_top" xlink:title="LittleWeebLibrary.Handlers.\lDataBaseHandler.UpdateJObject">
<polygon fill="white" stroke="black" points="464.5,-339.5 464.5,-369.5 623.5,-369.5 623.5,-339.5 464.5,-339.5"/>
<text text-anchor="start" x="472.5" y="-357.5" font-family="Helvetica,sans-Serif" font-size="10.00">LittleWeebLibrary.Handlers.</text>
<text text-anchor="middle" x="544" y="-346.5" font-family="Helvetica,sans-Serif" font-size="10.00">DataBaseHandler.UpdateJObject</text>
</a>
</g>
</g>
<!-- Node24&#45;&gt;Node25 -->
<g id="edge43" class="edge"><title>Node24&#45;&gt;Node25</title>
<path fill="none" stroke="midnightblue" d="M407.176,-370.945C422.608,-369.077 438.693,-367.129 454.17,-365.255"/>
<polygon fill="midnightblue" stroke="midnightblue" points="454.733,-368.713 464.24,-364.036 453.892,-361.763 454.733,-368.713"/>
</g>
<!-- Node25&#45;&gt;Node5 -->
<g id="edge44" class="edge"><title>Node25&#45;&gt;Node5</title>
<path fill="none" stroke="midnightblue" d="M623.794,-362.755C640.082,-364.461 657.269,-366.262 673.646,-367.977"/>
<polygon fill="midnightblue" stroke="midnightblue" points="673.414,-371.472 683.724,-369.033 674.143,-364.51 673.414,-371.472"/>
</g>
</g>
</svg>
        <g id="navigator" transform="translate(0 0)" fill="#404254">
                <rect fill="#f2f5e9" fill-opacity="0.5" stroke="#606060" stroke-width=".5" x="0" y="0" width="60" height="60"/>
                <use id="zoomplus" xlink:href="#zoomPlus" x="17" y="9" onmousedown="handleZoom(evt,'in')"/>
                <use id="zoomminus" xlink:href="#zoomMin" x="42" y="9" onmousedown="handleZoom(evt,'out')"/>
                <use id="reset" xlink:href="#resetDef" x="30" y="36" onmousedown="handleReset()"/>
                <g id="arrowUp" xlink:href="#dirArrow" transform="translate(30 24)" onmousedown="handlePan(0,-1)">
                  <use xlink:href="#rim" fill="#404040">
                        <set attributeName="fill" to="#808080" begin="arrowUp.mouseover" end="arrowUp.mouseout"/>
                  </use>
                  <path fill="none" stroke="white" stroke-width="1.5" d="M0,-3.0v7 M-2.5,-0.5L0,-3.0L2.5,-0.5"/>
                </g>
                <g id="arrowRight" xlink:href="#dirArrow" transform="rotate(90) translate(36 -43)" onmousedown="handlePan(1,0)">
                  <use xlink:href="#rim" fill="#404040">
                        <set attributeName="fill" to="#808080" begin="arrowRight.mouseover" end="arrowRight.mouseout"/>
                  </use>
                  <path fill="none" stroke="white" stroke-width="1.5" d="M0,-3.0v7 M-2.5,-0.5L0,-3.0L2.5,-0.5"/>
                </g>
                <g id="arrowDown" xlink:href="#dirArrow" transform="rotate(180) translate(-30 -48)" onmousedown="handlePan(0,1)">
                  <use xlink:href="#rim" fill="#404040">
                        <set attributeName="fill" to="#808080" begin="arrowDown.mouseover" end="arrowDown.mouseout"/>
                  </use>
                  <path fill="none" stroke="white" stroke-width="1.5" d="M0,-3.0v7 M-2.5,-0.5L0,-3.0L2.5,-0.5"/>
                </g>
                <g id="arrowLeft" xlink:href="#dirArrow" transform="rotate(270) translate(-36 17)" onmousedown="handlePan(-1,0)">
                  <use xlink:href="#rim" fill="#404040">
                        <set attributeName="fill" to="#808080" begin="arrowLeft.mouseover" end="arrowLeft.mouseout"/>
                  </use>
                  <path fill="none" stroke="white" stroke-width="1.5" d="M0,-3.0v7 M-2.5,-0.5L0,-3.0L2.5,-0.5"/>
                </g>
        </g>
        <svg viewBox="0 0 15 15" width="100%" height="30px" preserveAspectRatio="xMaxYMin meet">
         <g id="arrow_out" transform="scale(0.3 0.3)">
          <a xlink:href="class_little_weeb_library_1_1_controllers_1_1_sub_controllers_1_1_data_base_web_socket_controller_a655abc0c42c54c9ff3572e4b4271fa3b_cgraph_org.svg" target="_base">
           <rect id="button" ry="5" rx="5" y="6" x="6" height="38" width="38"
                fill="#f2f5e9" fill-opacity="0.5" stroke="#606060" stroke-width="1.0"/>
           <path id="arrow"
             d="M 11.500037,31.436501 C 11.940474,20.09759 22.043105,11.32322 32.158766,21.979434 L 37.068811,17.246167 C 37.068811,17.246167 37.088388,32 37.088388,32 L 22.160133,31.978069 C 22.160133,31.978069 26.997745,27.140456 26.997745,27.140456 C 18.528582,18.264221 13.291696,25.230495 11.500037,31.436501 z"
             style="fill:#404040;"/>
          </a>
         </g>
        </svg>
</svg>
