<?xml version="1.0" encoding="UTF-8" standalone="no"?>
<!DOCTYPE svg PUBLIC "-//W3C//DTD SVG 1.1//EN"
 "http://www.w3.org/Graphics/SVG/1.1/DTD/svg11.dtd">
<!-- Generated by graphviz version 2.38.0 (20140413.2041)
 -->
<!-- Title: LittleWeebLibrary.Controllers.IrcWebSocketController Pages: 1 -->
<!--zoomable 259 -->
<svg id="main" version="1.1" xmlns="http://www.w3.org/2000/svg" xmlns:xlink="http://www.w3.org/1999/xlink" xml:space="preserve" onload="init(evt)">
<style type="text/css"><![CDATA[
.edge:hover path { stroke: red; }
.edge:hover polygon { stroke: red; fill: red; }
]]></style>
<script type="text/javascript"><![CDATA[
var edges = document.getElementsByTagName('g');
if (edges && edges.length) {
  for (var i=0;i<edges.length;i++) {
    if (edges[i].id.substr(0,4)=='edge') {
      edges[i].setAttribute('class','edge');
    }
  }
}
]]></script>
        <defs>
                <circle id="rim" cx="0" cy="0" r="7"/>
                <circle id="rim2" cx="0" cy="0" r="3.5"/>
                <g id="zoomPlus">
                        <use xlink:href="#rim" fill="#404040">
                                <set attributeName="fill" to="#808080" begin="zoomplus.mouseover" end="zoomplus.mouseout"/>
                        </use>
                        <path d="M-4,0h8M0,-4v8" fill="none" stroke="white" stroke-width="1.5" pointer-events="none"/>
                </g>
                <g id="zoomMin">
                        <use xlink:href="#rim" fill="#404040">
                                <set attributeName="fill" to="#808080" begin="zoomminus.mouseover" end="zoomminus.mouseout"/>
                        </use>
                        <path d="M-4,0h8" fill="none" stroke="white" stroke-width="1.5" pointer-events="none"/>
                </g>
                <g id="dirArrow">
                        <path fill="none" stroke="white" stroke-width="1.5" d="M0,-3.0v7 M-2.5,-0.5L0,-3.0L2.5,-0.5"/>
                </g>
               <g id="resetDef">
                       <use xlink:href="#rim2" fill="#404040">
                               <set attributeName="fill" to="#808080" begin="reset.mouseover" end="reset.mouseout"/>
                       </use>
               </g>
        </defs>

<script type="text/javascript">
var viewWidth = 600;
var viewHeight = 259;
var sectionId = 'dynsection-1';
</script>
<script xlink:href="svgpan.js"/>
<svg id="graph" class="graph">
<g id="viewport">
<title>LittleWeebLibrary.Controllers.IrcWebSocketController</title>
<polygon fill="white" stroke="none" points="-4,4 -4,-255 595.5,-255 595.5,4 -4,4"/>
<!-- Node2 -->
<g id="node1" class="node"><title>Node2</title>
<polygon fill="#bfbfbf" stroke="black" points="219.5,-0.5 219.5,-79.5 364.5,-79.5 364.5,-0.5 219.5,-0.5"/>
<text text-anchor="start" x="227.5" y="-67.5" font-family="Helvetica,sans-Serif" font-size="10.00">LittleWeebLibrary.Controllers.</text>
<text text-anchor="middle" x="292" y="-56.5" font-family="Helvetica,sans-Serif" font-size="10.00">IrcWebSocketController</text>
<polyline fill="none" stroke="black" points="219.5,-49.5 364.5,-49.5 "/>
<text text-anchor="middle" x="292" y="-37.5" font-family="Helvetica,sans-Serif" font-size="10.00"> </text>
<polyline fill="none" stroke="black" points="219.5,-30.5 364.5,-30.5 "/>
<text text-anchor="start" x="227.5" y="-18.5" font-family="Helvetica,sans-Serif" font-size="10.00">+ IrcWebSocketController()</text>
<text text-anchor="start" x="227.5" y="-7.5" font-family="Helvetica,sans-Serif" font-size="10.00">+ OnWebSocketEvent()</text>
</g>
<!-- Node3 -->
<g id="node2" class="node"><title>Node3</title>
<g id="a_node2"><a xlink:href="interface_little_weeb_library_1_1_controllers_1_1_i_sub_web_socket_controller.html" target="_top" xlink:title="{ISubWebSocketController\n||+ OnWebSocketEvent()\l}">
<polygon fill="white" stroke="black" points="0,-160.5 0,-217.5 128,-217.5 128,-160.5 0,-160.5"/>
<text text-anchor="middle" x="64" y="-205.5" font-family="Helvetica,sans-Serif" font-size="10.00">ISubWebSocketController</text>
<polyline fill="none" stroke="black" points="0,-198.5 128,-198.5 "/>
<text text-anchor="middle" x="64" y="-186.5" font-family="Helvetica,sans-Serif" font-size="10.00"> </text>
<polyline fill="none" stroke="black" points="0,-179.5 128,-179.5 "/>
<text text-anchor="start" x="8" y="-167.5" font-family="Helvetica,sans-Serif" font-size="10.00">+ OnWebSocketEvent()</text>
</a>
</g>
</g>
<!-- Node3&#45;&gt;Node2 -->
<g id="edge1" class="edge"><title>Node3&#45;&gt;Node2</title>
<path fill="none" stroke="midnightblue" d="M102.287,-153.69C113.178,-144.579 125.274,-135.045 137,-127 162.884,-109.242 192.748,-91.9821 219.312,-77.6426"/>
<polygon fill="none" stroke="midnightblue" points="99.9507,-151.082 94.5924,-160.222 104.481,-156.418 99.9507,-151.082"/>
</g>
<!-- Node4 -->
<g id="node3" class="node"><title>Node4</title>
<g id="a_node3"><a xlink:href="interface_little_weeb_library_1_1_handlers_1_1_i_debug_handler.html" target="_top" xlink:title="{LittleWeebLibrary.Handlers.\lIDebugHandler\n||+ SetSettings()\l+ StopDebugger()\l+ TraceMessage()\l}">
<polygon fill="white" stroke="black" points="146.5,-144 146.5,-234 283.5,-234 283.5,-144 146.5,-144"/>
<text text-anchor="start" x="154.5" y="-222" font-family="Helvetica,sans-Serif" font-size="10.00">LittleWeebLibrary.Handlers.</text>
<text text-anchor="middle" x="215" y="-211" font-family="Helvetica,sans-Serif" font-size="10.00">IDebugHandler</text>
<polyline fill="none" stroke="black" points="146.5,-204 283.5,-204 "/>
<text text-anchor="middle" x="215" y="-192" font-family="Helvetica,sans-Serif" font-size="10.00"> </text>
<polyline fill="none" stroke="black" points="146.5,-185 283.5,-185 "/>
<text text-anchor="start" x="154.5" y="-173" font-family="Helvetica,sans-Serif" font-size="10.00">+ SetSettings()</text>
<text text-anchor="start" x="154.5" y="-162" font-family="Helvetica,sans-Serif" font-size="10.00">+ StopDebugger()</text>
<text text-anchor="start" x="154.5" y="-151" font-family="Helvetica,sans-Serif" font-size="10.00">+ TraceMessage()</text>
</a>
</g>
</g>
<!-- Node4&#45;&gt;Node2 -->
<g id="edge2" class="edge"><title>Node4&#45;&gt;Node2</title>
<path fill="none" stroke="#404040" d="M238.103,-143.895C246.896,-127.107 256.974,-107.869 266.017,-90.6041"/>
<polygon fill="none" stroke="#404040" points="266.218,-90.2195 265.459,-83.0484 271.786,-79.5895 272.546,-86.7605 266.218,-90.2195"/>
<text text-anchor="middle" x="294.5" y="-101" font-family="Helvetica,sans-Serif" font-size="10.00"> &#45;DebugHandler</text>
</g>
<!-- Node5 -->
<g id="node4" class="node"><title>Node5</title>
<g id="a_node4"><a xlink:href="interface_little_weeb_library_1_1_handlers_1_1_i_web_socket_handler.html" target="_top" xlink:title="{LittleWeebLibrary.Handlers.\lIWebSocketHandler\n||+ SendMessage()\l+ StartServer()\l+ StopServer()\l}">
<polygon fill="white" stroke="black" points="301.5,-144 301.5,-234 438.5,-234 438.5,-144 301.5,-144"/>
<text text-anchor="start" x="309.5" y="-222" font-family="Helvetica,sans-Serif" font-size="10.00">LittleWeebLibrary.Handlers.</text>
<text text-anchor="middle" x="370" y="-211" font-family="Helvetica,sans-Serif" font-size="10.00">IWebSocketHandler</text>
<polyline fill="none" stroke="black" points="301.5,-204 438.5,-204 "/>
<text text-anchor="middle" x="370" y="-192" font-family="Helvetica,sans-Serif" font-size="10.00"> </text>
<polyline fill="none" stroke="black" points="301.5,-185 438.5,-185 "/>
<text text-anchor="start" x="309.5" y="-173" font-family="Helvetica,sans-Serif" font-size="10.00">+ SendMessage()</text>
<text text-anchor="start" x="309.5" y="-162" font-family="Helvetica,sans-Serif" font-size="10.00">+ StartServer()</text>
<text text-anchor="start" x="309.5" y="-151" font-family="Helvetica,sans-Serif" font-size="10.00">+ StopServer()</text>
</a>
</g>
</g>
<!-- Node5&#45;&gt;Node2 -->
<g id="edge3" class="edge"><title>Node5&#45;&gt;Node2</title>
<path fill="none" stroke="#404040" d="M353.456,-143.628C347.356,-128.8 339.97,-112.393 332,-98 330.514,-95.3163 328.929,-92.6046 327.281,-89.8968"/>
<polygon fill="none" stroke="#404040" points="327.128,-89.6571 320.529,-86.7494 320.675,-79.5398 327.274,-82.4474 327.128,-89.6571"/>
<text text-anchor="middle" x="382.5" y="-101" font-family="Helvetica,sans-Serif" font-size="10.00"> &#45;WebSocketHandler</text>
</g>
<!-- Node6 -->
<g id="node5" class="node"><title>Node6</title>
<g id="a_node5"><a xlink:href="interface_little_weeb_library_1_1_services_1_1_i_irc_web_socket_service.html" target="_top" xlink:title="{LittleWeebLibrary.Services.\lIIrcWebSocketService\n||+ Connect()\l+ DisableSendMessage()\l+ Disconnect()\l+ EnableSendMessage()\l+ GetCurrentIrcSettings()\l+ SendMessage()\l}">
<polygon fill="white" stroke="black" points="456.5,-127.5 456.5,-250.5 591.5,-250.5 591.5,-127.5 456.5,-127.5"/>
<text text-anchor="start" x="464.5" y="-238.5" font-family="Helvetica,sans-Serif" font-size="10.00">LittleWeebLibrary.Services.</text>
<text text-anchor="middle" x="524" y="-227.5" font-family="Helvetica,sans-Serif" font-size="10.00">IIrcWebSocketService</text>
<polyline fill="none" stroke="black" points="456.5,-220.5 591.5,-220.5 "/>
<text text-anchor="middle" x="524" y="-208.5" font-family="Helvetica,sans-Serif" font-size="10.00"> </text>
<polyline fill="none" stroke="black" points="456.5,-201.5 591.5,-201.5 "/>
<text text-anchor="start" x="464.5" y="-189.5" font-family="Helvetica,sans-Serif" font-size="10.00">+ Connect()</text>
<text text-anchor="start" x="464.5" y="-178.5" font-family="Helvetica,sans-Serif" font-size="10.00">+ DisableSendMessage()</text>
<text text-anchor="start" x="464.5" y="-167.5" font-family="Helvetica,sans-Serif" font-size="10.00">+ Disconnect()</text>
<text text-anchor="start" x="464.5" y="-156.5" font-family="Helvetica,sans-Serif" font-size="10.00">+ EnableSendMessage()</text>
<text text-anchor="start" x="464.5" y="-145.5" font-family="Helvetica,sans-Serif" font-size="10.00">+ GetCurrentIrcSettings()</text>
<text text-anchor="start" x="464.5" y="-134.5" font-family="Helvetica,sans-Serif" font-size="10.00">+ SendMessage()</text>
</a>
</g>
</g>
<!-- Node6&#45;&gt;Node2 -->
<g id="edge4" class="edge"><title>Node6&#45;&gt;Node2</title>
<path fill="none" stroke="#404040" d="M468.832,-127.393C457.334,-116.741 444.798,-106.395 432,-98 414.849,-86.7502 395.12,-77.0564 375.987,-69.0173"/>
<polygon fill="none" stroke="#404040" points="375.931,-68.9947 368.867,-70.4409 364.815,-64.4759 371.879,-63.0297 375.931,-68.9947"/>
<text text-anchor="middle" x="497" y="-101" font-family="Helvetica,sans-Serif" font-size="10.00"> &#45;IrcWebSocketService</text>
</g>
</g>
</svg>
        <g id="navigator" transform="translate(0 0)" fill="#404254">
                <rect fill="#f2f5e9" fill-opacity="0.5" stroke="#606060" stroke-width=".5" x="0" y="0" width="60" height="60"/>
                <use id="zoomplus" xlink:href="#zoomPlus" x="17" y="9" onmousedown="handleZoom(evt,'in')"/>
                <use id="zoomminus" xlink:href="#zoomMin" x="42" y="9" onmousedown="handleZoom(evt,'out')"/>
                <use id="reset" xlink:href="#resetDef" x="30" y="36" onmousedown="handleReset()"/>
                <g id="arrowUp" xlink:href="#dirArrow" transform="translate(30 24)" onmousedown="handlePan(0,-1)">
                  <use xlink:href="#rim" fill="#404040">
                        <set attributeName="fill" to="#808080" begin="arrowUp.mouseover" end="arrowUp.mouseout"/>
                  </use>
                  <path fill="none" stroke="white" stroke-width="1.5" d="M0,-3.0v7 M-2.5,-0.5L0,-3.0L2.5,-0.5"/>
                </g>
                <g id="arrowRight" xlink:href="#dirArrow" transform="rotate(90) translate(36 -43)" onmousedown="handlePan(1,0)">
                  <use xlink:href="#rim" fill="#404040">
                        <set attributeName="fill" to="#808080" begin="arrowRight.mouseover" end="arrowRight.mouseout"/>
                  </use>
                  <path fill="none" stroke="white" stroke-width="1.5" d="M0,-3.0v7 M-2.5,-0.5L0,-3.0L2.5,-0.5"/>
                </g>
                <g id="arrowDown" xlink:href="#dirArrow" transform="rotate(180) translate(-30 -48)" onmousedown="handlePan(0,1)">
                  <use xlink:href="#rim" fill="#404040">
                        <set attributeName="fill" to="#808080" begin="arrowDown.mouseover" end="arrowDown.mouseout"/>
                  </use>
                  <path fill="none" stroke="white" stroke-width="1.5" d="M0,-3.0v7 M-2.5,-0.5L0,-3.0L2.5,-0.5"/>
                </g>
                <g id="arrowLeft" xlink:href="#dirArrow" transform="rotate(270) translate(-36 17)" onmousedown="handlePan(-1,0)">
                  <use xlink:href="#rim" fill="#404040">
                        <set attributeName="fill" to="#808080" begin="arrowLeft.mouseover" end="arrowLeft.mouseout"/>
                  </use>
                  <path fill="none" stroke="white" stroke-width="1.5" d="M0,-3.0v7 M-2.5,-0.5L0,-3.0L2.5,-0.5"/>
                </g>
        </g>
        <svg viewBox="0 0 15 15" width="100%" height="30px" preserveAspectRatio="xMaxYMin meet">
         <g id="arrow_out" transform="scale(0.3 0.3)">
          <a xlink:href="class_little_weeb_library_1_1_controllers_1_1_irc_web_socket_controller__coll__graph_org.svg" target="_base">
           <rect id="button" ry="5" rx="5" y="6" x="6" height="38" width="38"
                fill="#f2f5e9" fill-opacity="0.5" stroke="#606060" stroke-width="1.0"/>
           <path id="arrow"
             d="M 11.500037,31.436501 C 11.940474,20.09759 22.043105,11.32322 32.158766,21.979434 L 37.068811,17.246167 C 37.068811,17.246167 37.088388,32 37.088388,32 L 22.160133,31.978069 C 22.160133,31.978069 26.997745,27.140456 26.997745,27.140456 C 18.528582,18.264221 13.291696,25.230495 11.500037,31.436501 z"
             style="fill:#404040;"/>
          </a>
         </g>
        </svg>
</svg>
