<?xml version="1.0" encoding="UTF-8" standalone="no"?>
<!DOCTYPE svg PUBLIC "-//W3C//DTD SVG 1.1//EN"
 "http://www.w3.org/Graphics/SVG/1.1/DTD/svg11.dtd">
<!-- Generated by graphviz version 2.38.0 (20140413.2041)
 -->
<!-- Title: LittleWeebLibrary.Handlers.AnimeProfileHandler.GetAnimeEpisodes Pages: 1 -->
<svg width="826pt" height="311pt"
 viewBox="0.00 0.00 826.00 311.32" xmlns="http://www.w3.org/2000/svg" xmlns:xlink="http://www.w3.org/1999/xlink">
<g id="graph0" class="graph" transform="scale(1 1) rotate(0) translate(4 307.321)">
<title>LittleWeebLibrary.Handlers.AnimeProfileHandler.GetAnimeEpisodes</title>
<polygon fill="white" stroke="none" points="-4,4 -4,-307.321 822,-307.321 822,4 -4,4"/>
<!-- Node18 -->
<g id="node1" class="node"><title>Node18</title>
<polygon fill="#bfbfbf" stroke="black" points="0,-92.8206 0,-122.821 191,-122.821 191,-92.8206 0,-92.8206"/>
<text text-anchor="start" x="8" y="-110.821" font-family="Helvetica,sans-Serif" font-size="10.00">LittleWeebLibrary.Handlers.</text>
<text text-anchor="middle" x="95.5" y="-99.8206" font-family="Helvetica,sans-Serif" font-size="10.00">AnimeProfileHandler.GetAnimeEpisodes</text>
</g>
<!-- Node19 -->
<g id="node2" class="node"><title>Node19</title>
<g id="a_node2"><a xlink:href="class_little_weeb_library_1_1_handlers_1_1_anime_rule_handler.html#a503fb2839489e1df8b80c9a461c0fd2b" target="_top" xlink:title="LittleWeebLibrary.Handlers.\lAnimeRuleHandler.FilterAnimeRules">
<polygon fill="white" stroke="black" points="227,-202.821 227,-232.821 401,-232.821 401,-202.821 227,-202.821"/>
<text text-anchor="start" x="235" y="-220.821" font-family="Helvetica,sans-Serif" font-size="10.00">LittleWeebLibrary.Handlers.</text>
<text text-anchor="middle" x="314" y="-209.821" font-family="Helvetica,sans-Serif" font-size="10.00">AnimeRuleHandler.FilterAnimeRules</text>
</a>
</g>
</g>
<!-- Node18&#45;&gt;Node19 -->
<g id="edge1" class="edge"><title>Node18&#45;&gt;Node19</title>
<path fill="none" stroke="midnightblue" d="M117.86,-122.9C143.065,-140.216 186.66,-168.692 227,-187.821 235.696,-191.944 245.117,-195.802 254.428,-199.289"/>
<polygon fill="midnightblue" stroke="midnightblue" points="253.462,-202.661 264.056,-202.783 255.85,-196.081 253.462,-202.661"/>
</g>
<!-- Node20 -->
<g id="node3" class="node"><title>Node20</title>
<g id="a_node3"><a xlink:href="class_little_weeb_library_1_1_handlers_1_1_debug_handler.html#afccb37dfd6b2114af72000c2f4fe4607" target="_top" xlink:title="LittleWeebLibrary.Handlers.\lDebugHandler.TraceMessage">
<polygon fill="white" stroke="black" points="653,-158.821 653,-188.821 797,-188.821 797,-158.821 653,-158.821"/>
<text text-anchor="start" x="661" y="-176.821" font-family="Helvetica,sans-Serif" font-size="10.00">LittleWeebLibrary.Handlers.</text>
<text text-anchor="middle" x="725" y="-165.821" font-family="Helvetica,sans-Serif" font-size="10.00">DebugHandler.TraceMessage</text>
</a>
</g>
</g>
<!-- Node18&#45;&gt;Node20 -->
<g id="edge11" class="edge"><title>Node18&#45;&gt;Node20</title>
<path fill="none" stroke="midnightblue" d="M130.342,-122.9C156.24,-133.658 193.145,-147.325 227,-153.821 371.365,-181.518 543.49,-181.224 642.626,-177.918"/>
<polygon fill="midnightblue" stroke="midnightblue" points="643.002,-181.407 652.872,-177.556 642.755,-174.411 643.002,-181.407"/>
</g>
<!-- Node24 -->
<g id="node7" class="node"><title>Node24</title>
<g id="a_node7"><a xlink:href="class_little_weeb_library_1_1_static_classes_1_1_utility_methods.html#a12336d9e64983ddabaad8950486fafb2" target="_top" xlink:title="LittleWeebLibrary.Static\lClasses.UtilityMethods.GetEpoch">
<polygon fill="white" stroke="black" points="232,-114.821 232,-144.821 396,-144.821 396,-114.821 232,-114.821"/>
<text text-anchor="start" x="240" y="-132.821" font-family="Helvetica,sans-Serif" font-size="10.00">LittleWeebLibrary.Static</text>
<text text-anchor="middle" x="314" y="-121.821" font-family="Helvetica,sans-Serif" font-size="10.00">Classes.UtilityMethods.GetEpoch</text>
</a>
</g>
</g>
<!-- Node18&#45;&gt;Node24 -->
<g id="edge7" class="edge"><title>Node18&#45;&gt;Node24</title>
<path fill="none" stroke="midnightblue" d="M191.145,-117.438C201.3,-118.47 211.618,-119.519 221.732,-120.546"/>
<polygon fill="midnightblue" stroke="midnightblue" points="221.463,-124.037 231.766,-121.566 222.171,-117.073 221.463,-124.037"/>
</g>
<!-- Node25 -->
<g id="node8" class="node"><title>Node25</title>
<g id="a_node8"><a xlink:href="class_little_weeb_library_1_1_handlers_1_1_nibl_handler.html#aa5fcae94d3322123b784078727a3db67" target="_top" xlink:title="LittleWeebLibrary.Handlers.\lNiblHandler.SearchNibl">
<polygon fill="white" stroke="black" points="448,-93.8206 448,-123.821 585,-123.821 585,-93.8206 448,-93.8206"/>
<text text-anchor="start" x="456" y="-111.821" font-family="Helvetica,sans-Serif" font-size="10.00">LittleWeebLibrary.Handlers.</text>
<text text-anchor="middle" x="516.5" y="-100.821" font-family="Helvetica,sans-Serif" font-size="10.00">NiblHandler.SearchNibl</text>
</a>
</g>
</g>
<!-- Node18&#45;&gt;Node25 -->
<g id="edge8" class="edge"><title>Node18&#45;&gt;Node25</title>
<path fill="none" stroke="midnightblue" d="M191.293,-105.386C203.311,-105.152 215.443,-104.953 227,-104.821 304.328,-103.932 323.678,-103.47 401,-104.821 412.808,-105.027 425.298,-105.353 437.519,-105.731"/>
<polygon fill="midnightblue" stroke="midnightblue" points="437.592,-109.235 447.7,-106.06 437.818,-102.239 437.592,-109.235"/>
</g>
<!-- Node26 -->
<g id="node9" class="node"><title>Node26</title>
<g id="a_node9"><a xlink:href="class_little_weeb_library_1_1_models_1_1_json_kitsu_anime_info.html#a2c92ffb7d523c4f75497988156b64b7b" target="_top" xlink:title="LittleWeebLibrary.Models.\lJsonKitsuAnimeInfo.ToJObject">
<polygon fill="white" stroke="black" points="239.5,-26.8206 239.5,-56.8206 388.5,-56.8206 388.5,-26.8206 239.5,-26.8206"/>
<text text-anchor="start" x="247.5" y="-44.8206" font-family="Helvetica,sans-Serif" font-size="10.00">LittleWeebLibrary.Models.</text>
<text text-anchor="middle" x="314" y="-33.8206" font-family="Helvetica,sans-Serif" font-size="10.00">JsonKitsuAnimeInfo.ToJObject</text>
</a>
</g>
</g>
<!-- Node18&#45;&gt;Node26 -->
<g id="edge10" class="edge"><title>Node18&#45;&gt;Node26</title>
<path fill="none" stroke="midnightblue" d="M145.898,-92.7616C177.93,-82.9967 219.839,-70.2207 253.674,-59.9063"/>
<polygon fill="midnightblue" stroke="midnightblue" points="254.895,-63.193 263.44,-56.9291 252.854,-56.4973 254.895,-63.193"/>
</g>
<!-- Node27 -->
<g id="node10" class="node"><title>Node27</title>
<g id="a_node10"><a xlink:href="class_little_weeb_library_1_1_handlers_1_1_data_base_handler.html#a9b2223ff71f688234f95d247ea3b5739" target="_top" xlink:title="LittleWeebLibrary.Handlers.\lDataBaseHandler.UpdateJObject">
<polygon fill="white" stroke="black" points="437,-3.82064 437,-33.8206 596,-33.8206 596,-3.82064 437,-3.82064"/>
<text text-anchor="start" x="445" y="-21.8206" font-family="Helvetica,sans-Serif" font-size="10.00">LittleWeebLibrary.Handlers.</text>
<text text-anchor="middle" x="516.5" y="-10.8206" font-family="Helvetica,sans-Serif" font-size="10.00">DataBaseHandler.UpdateJObject</text>
</a>
</g>
</g>
<!-- Node18&#45;&gt;Node27 -->
<g id="edge12" class="edge"><title>Node18&#45;&gt;Node27</title>
<path fill="none" stroke="midnightblue" d="M111.635,-92.4626C134.321,-70.659 179.569,-31.7249 227,-16.8206 291.574,3.47057 368.365,1.78199 426.482,-4.33538"/>
<polygon fill="midnightblue" stroke="midnightblue" points="426.414,-7.84955 436.741,-5.48136 427.192,-0.892817 426.414,-7.84955"/>
</g>
<!-- Node19&#45;&gt;Node20 -->
<g id="edge2" class="edge"><title>Node19&#45;&gt;Node20</title>
<path fill="none" stroke="midnightblue" d="M401.095,-208.687C456.711,-202.773 530.638,-194.884 596,-187.821 611.132,-186.185 627.27,-184.43 642.807,-182.733"/>
<polygon fill="midnightblue" stroke="midnightblue" points="643.353,-186.194 652.914,-181.629 642.593,-179.236 643.353,-186.194"/>
</g>
<!-- Node21 -->
<g id="node4" class="node"><title>Node21</title>
<g id="a_node4"><a xlink:href="class_little_weeb_library_1_1_handlers_1_1_data_base_handler.html#a7f61583807f99b7838a33d2db0f7ca68" target="_top" xlink:title="LittleWeebLibrary.Handlers.\lDataBaseHandler.GetJObject">
<polygon fill="white" stroke="black" points="444.5,-240.821 444.5,-270.821 588.5,-270.821 588.5,-240.821 444.5,-240.821"/>
<text text-anchor="start" x="452.5" y="-258.821" font-family="Helvetica,sans-Serif" font-size="10.00">LittleWeebLibrary.Handlers.</text>
<text text-anchor="middle" x="516.5" y="-247.821" font-family="Helvetica,sans-Serif" font-size="10.00">DataBaseHandler.GetJObject</text>
</a>
</g>
</g>
<!-- Node19&#45;&gt;Node21 -->
<g id="edge3" class="edge"><title>Node19&#45;&gt;Node21</title>
<path fill="none" stroke="midnightblue" d="M394.243,-232.839C407.414,-235.336 421.092,-237.928 434.31,-240.433"/>
<polygon fill="midnightblue" stroke="midnightblue" points="433.836,-243.905 444.313,-242.329 435.14,-237.028 433.836,-243.905"/>
</g>
<!-- Node21&#45;&gt;Node20 -->
<g id="edge4" class="edge"><title>Node21&#45;&gt;Node20</title>
<path fill="none" stroke="midnightblue" d="M557.497,-240.719C569.862,-236.002 583.512,-230.743 596,-225.821 623.285,-215.066 653.705,-202.723 678.042,-192.761"/>
<polygon fill="midnightblue" stroke="midnightblue" points="679.465,-195.961 687.39,-188.93 676.81,-189.484 679.465,-195.961"/>
</g>
<!-- Node22 -->
<g id="node5" class="node"><title>Node22</title>
<g id="a_node5"><a xlink:href="class_little_weeb_library_1_1_static_classes_1_1_utility_methods.html#a7b5de7a3ecc749b655fc3ed2af55360b" target="_top" xlink:title="LittleWeebLibrary.Static\lClasses.UtilityMethods.ReadBinaryFile">
<polygon fill="white" stroke="black" points="632,-223.821 632,-253.821 818,-253.821 818,-223.821 632,-223.821"/>
<text text-anchor="start" x="640" y="-241.821" font-family="Helvetica,sans-Serif" font-size="10.00">LittleWeebLibrary.Static</text>
<text text-anchor="middle" x="725" y="-230.821" font-family="Helvetica,sans-Serif" font-size="10.00">Classes.UtilityMethods.ReadBinaryFile</text>
</a>
</g>
</g>
<!-- Node21&#45;&gt;Node22 -->
<g id="edge5" class="edge"><title>Node21&#45;&gt;Node22</title>
<path fill="none" stroke="midnightblue" d="M588.566,-249.97C599.195,-249.095 610.33,-248.178 621.454,-247.263"/>
<polygon fill="midnightblue" stroke="midnightblue" points="621.973,-250.732 631.652,-246.423 621.399,-243.755 621.973,-250.732"/>
</g>
<!-- Node23 -->
<g id="node6" class="node"><title>Node23</title>
<g id="a_node6"><a xlink:href="class_little_weeb_library_1_1_static_classes_1_1_utility_methods.html#a0a86ee01a3bf201bd9cc9b2552e54976" target="_top" xlink:title="LittleWeebLibrary.Static\lClasses.UtilityMethods.Unzip">
<polygon fill="white" stroke="black" points="652.5,-272.821 652.5,-302.821 797.5,-302.821 797.5,-272.821 652.5,-272.821"/>
<text text-anchor="start" x="660.5" y="-290.821" font-family="Helvetica,sans-Serif" font-size="10.00">LittleWeebLibrary.Static</text>
<text text-anchor="middle" x="725" y="-279.821" font-family="Helvetica,sans-Serif" font-size="10.00">Classes.UtilityMethods.Unzip</text>
</a>
</g>
</g>
<!-- Node21&#45;&gt;Node23 -->
<g id="edge6" class="edge"><title>Node21&#45;&gt;Node23</title>
<path fill="none" stroke="midnightblue" d="M588.566,-266.833C605.828,-269.508 624.423,-272.39 642.14,-275.135"/>
<polygon fill="midnightblue" stroke="midnightblue" points="642.035,-278.661 652.453,-276.733 643.107,-271.743 642.035,-278.661"/>
</g>
<!-- Node25&#45;&gt;Node20 -->
<g id="edge9" class="edge"><title>Node25&#45;&gt;Node20</title>
<path fill="none" stroke="midnightblue" d="M565.394,-123.896C595.519,-133.379 634.57,-145.671 666.385,-155.685"/>
<polygon fill="midnightblue" stroke="midnightblue" points="665.419,-159.05 676.008,-158.714 667.52,-152.373 665.419,-159.05"/>
</g>
<!-- Node27&#45;&gt;Node20 -->
<g id="edge13" class="edge"><title>Node27&#45;&gt;Node20</title>
<path fill="none" stroke="midnightblue" d="M537.676,-33.9649C574.61,-61.6874 653.175,-120.659 695.529,-152.45"/>
<polygon fill="midnightblue" stroke="midnightblue" points="693.643,-155.411 703.742,-158.615 697.845,-149.813 693.643,-155.411"/>
</g>
</g>
</svg>
