<?xml version="1.0" encoding="UTF-8" standalone="no"?>
<!DOCTYPE svg PUBLIC "-//W3C//DTD SVG 1.1//EN"
 "http://www.w3.org/Graphics/SVG/1.1/DTD/svg11.dtd">
<!-- Generated by graphviz version 2.38.0 (20140413.2041)
 -->
<!-- Title: LittleWeebLibrary.Handlers.IrcClientHandler.StopConnection Pages: 1 -->
<svg width="608pt" height="88pt"
 viewBox="0.00 0.00 608.00 88.00" xmlns="http://www.w3.org/2000/svg" xmlns:xlink="http://www.w3.org/1999/xlink">
<g id="graph0" class="graph" transform="scale(1 1) rotate(0) translate(4 84)">
<title>LittleWeebLibrary.Handlers.IrcClientHandler.StopConnection</title>
<polygon fill="white" stroke="none" points="-4,4 -4,-84 604,-84 604,4 -4,4"/>
<!-- Node34 -->
<g id="node1" class="node"><title>Node34</title>
<polygon fill="#bfbfbf" stroke="black" points="0,-24.5 0,-54.5 157,-54.5 157,-24.5 0,-24.5"/>
<text text-anchor="start" x="8" y="-42.5" font-family="Helvetica,sans-Serif" font-size="10.00">LittleWeebLibrary.Handlers.</text>
<text text-anchor="middle" x="78.5" y="-31.5" font-family="Helvetica,sans-Serif" font-size="10.00">IrcClientHandler.StopConnection</text>
</g>
<!-- Node35 -->
<g id="node2" class="node"><title>Node35</title>
<g id="a_node2"><a xlink:href="class_little_weeb_library_1_1_services_1_1_irc_web_socket_service.html#a637703e827e16a5d99055119bfe62972" target="_top" xlink:title="LittleWeebLibrary.Services.\lIrcWebSocketService.Disconnect">
<polygon fill="white" stroke="black" points="193,-47.5 193,-77.5 354,-77.5 354,-47.5 193,-47.5"/>
<text text-anchor="start" x="201" y="-65.5" font-family="Helvetica,sans-Serif" font-size="10.00">LittleWeebLibrary.Services.</text>
<text text-anchor="middle" x="273.5" y="-54.5" font-family="Helvetica,sans-Serif" font-size="10.00">IrcWebSocketService.Disconnect</text>
</a>
</g>
</g>
<!-- Node34&#45;&gt;Node35 -->
<g id="edge1" class="edge"><title>Node34&#45;&gt;Node35</title>
<path fill="none" stroke="midnightblue" d="M167.14,-49.9442C175.687,-50.9627 184.327,-51.9923 192.789,-53.0008"/>
<polygon fill="midnightblue" stroke="midnightblue" points="167.51,-46.4636 157.166,-48.7556 166.682,-53.4144 167.51,-46.4636"/>
</g>
<!-- Node37 -->
<g id="node4" class="node"><title>Node37</title>
<g id="a_node4"><a xlink:href="class_little_weeb_library_1_1_start_up.html#aaa6147f0dd162c1962e575689dcb22c5" target="_top" xlink:title="LittleWeebLibrary.StartUp.Stop">
<polygon fill="white" stroke="black" points="197.5,-8 197.5,-27 349.5,-27 349.5,-8 197.5,-8"/>
<text text-anchor="middle" x="273.5" y="-15" font-family="Helvetica,sans-Serif" font-size="10.00">LittleWeebLibrary.StartUp.Stop</text>
</a>
</g>
</g>
<!-- Node34&#45;&gt;Node37 -->
<g id="edge3" class="edge"><title>Node34&#45;&gt;Node37</title>
<path fill="none" stroke="midnightblue" d="M167.22,-29.5009C177.333,-28.348 187.576,-27.1804 197.5,-26.0493"/>
<polygon fill="midnightblue" stroke="midnightblue" points="166.705,-26.0367 157.166,-30.6469 167.498,-32.9917 166.705,-26.0367"/>
</g>
<!-- Node36 -->
<g id="node3" class="node"><title>Node36</title>
<g id="a_node3"><a xlink:href="class_little_weeb_library_1_1_controllers_1_1_irc_web_socket_controller.html#a5ea966dddf1e0a082dd5ec28f6ace3ab" target="_top" xlink:title="LittleWeebLibrary.Controllers.\lIrcWebSocketController.OnWebSocketEvent">
<polygon fill="white" stroke="black" points="390,-49.5 390,-79.5 600,-79.5 600,-49.5 390,-49.5"/>
<text text-anchor="start" x="398" y="-67.5" font-family="Helvetica,sans-Serif" font-size="10.00">LittleWeebLibrary.Controllers.</text>
<text text-anchor="middle" x="495" y="-56.5" font-family="Helvetica,sans-Serif" font-size="10.00">IrcWebSocketController.OnWebSocketEvent</text>
</a>
</g>
</g>
<!-- Node35&#45;&gt;Node36 -->
<g id="edge2" class="edge"><title>Node35&#45;&gt;Node36</title>
<path fill="none" stroke="midnightblue" d="M364.272,-63.318C372.726,-63.395 381.344,-63.4735 389.915,-63.5516"/>
<polygon fill="midnightblue" stroke="midnightblue" points="364.086,-59.8162 354.055,-63.2249 364.023,-66.8159 364.086,-59.8162"/>
</g>
<!-- Node38 -->
<g id="node5" class="node"><title>Node38</title>
<g id="a_node5"><a xlink:href="class_little_weeb_library_1_1_little_weeb.html#abdb53c29265dddd9fa0a27c8bf4d50f2" target="_top" xlink:title="LittleWeebLibrary.Little\lWeeb.Stop">
<polygon fill="white" stroke="black" points="437,-0.5 437,-30.5 553,-30.5 553,-0.5 437,-0.5"/>
<text text-anchor="start" x="445" y="-18.5" font-family="Helvetica,sans-Serif" font-size="10.00">LittleWeebLibrary.Little</text>
<text text-anchor="middle" x="495" y="-7.5" font-family="Helvetica,sans-Serif" font-size="10.00">Weeb.Stop</text>
</a>
</g>
</g>
<!-- Node37&#45;&gt;Node38 -->
<g id="edge4" class="edge"><title>Node37&#45;&gt;Node38</title>
<path fill="none" stroke="midnightblue" d="M359.896,-16.7219C385.705,-16.4867 413.406,-16.2343 436.892,-16.0203"/>
<polygon fill="midnightblue" stroke="midnightblue" points="359.7,-13.2234 349.732,-16.8145 359.764,-20.2232 359.7,-13.2234"/>
</g>
</g>
</svg>
