<?xml version="1.0" encoding="UTF-8" standalone="no"?>
<!DOCTYPE svg PUBLIC "-//W3C//DTD SVG 1.1//EN"
 "http://www.w3.org/Graphics/SVG/1.1/DTD/svg11.dtd">
<!-- Generated by graphviz version 2.38.0 (20140413.2041)
 -->
<!-- Title: LittleWeebLibrary.Models.JsonNiblBotList.ToJson Pages: 1 -->
<svg width="596pt" height="50pt"
 viewBox="0.00 0.00 596.00 50.00" xmlns="http://www.w3.org/2000/svg" xmlns:xlink="http://www.w3.org/1999/xlink">
<g id="graph0" class="graph" transform="scale(1 1) rotate(0) translate(4 46)">
<title>LittleWeebLibrary.Models.JsonNiblBotList.ToJson</title>
<polygon fill="white" stroke="none" points="-4,4 -4,-46 592,-46 592,4 -4,4"/>
<!-- Node1 -->
<g id="node1" class="node"><title>Node1</title>
<polygon fill="#bfbfbf" stroke="black" points="0,-6 0,-36 130,-36 130,-6 0,-6"/>
<text text-anchor="start" x="8" y="-24" font-family="Helvetica,sans-Serif" font-size="10.00">LittleWeebLibrary.Models.</text>
<text text-anchor="middle" x="65" y="-13" font-family="Helvetica,sans-Serif" font-size="10.00">JsonNiblBotList.ToJson</text>
</g>
<!-- Node2 -->
<g id="node2" class="node"><title>Node2</title>
<g id="a_node2"><a xlink:href="class_little_weeb_library_1_1_services_1_1_info_api_web_socket_service.html#a5f91364bc403db5d521f15881a385143" target="_top" xlink:title="LittleWeebLibrary.Services.\lInfoApiWebSocketService.GetBotList">
<polygon fill="white" stroke="black" points="166,-6 166,-36 344,-36 344,-6 166,-6"/>
<text text-anchor="start" x="174" y="-24" font-family="Helvetica,sans-Serif" font-size="10.00">LittleWeebLibrary.Services.</text>
<text text-anchor="middle" x="255" y="-13" font-family="Helvetica,sans-Serif" font-size="10.00">InfoApiWebSocketService.GetBotList</text>
</a>
</g>
</g>
<!-- Node1&#45;&gt;Node2 -->
<g id="edge1" class="edge"><title>Node1&#45;&gt;Node2</title>
<path fill="none" stroke="midnightblue" d="M140.283,-21C148.675,-21 157.288,-21 165.836,-21"/>
<polygon fill="midnightblue" stroke="midnightblue" points="140.173,-17.5001 130.173,-21 140.173,-24.5001 140.173,-17.5001"/>
</g>
<!-- Node3 -->
<g id="node3" class="node"><title>Node3</title>
<g id="a_node3"><a xlink:href="class_little_weeb_library_1_1_controllers_1_1_sub_controllers_1_1_info_api_web_socket_controller.html#ad620537574b819085ff8eb394add2912" target="_top" xlink:title="LittleWeebLibrary.Controllers.\lSubControllers.InfoApiWebSocketController.\lOnWebSocketEvent">
<polygon fill="white" stroke="black" points="380,-0.5 380,-41.5 588,-41.5 588,-0.5 380,-0.5"/>
<text text-anchor="start" x="388" y="-29.5" font-family="Helvetica,sans-Serif" font-size="10.00">LittleWeebLibrary.Controllers.</text>
<text text-anchor="start" x="388" y="-18.5" font-family="Helvetica,sans-Serif" font-size="10.00">SubControllers.InfoApiWebSocketController.</text>
<text text-anchor="middle" x="484" y="-7.5" font-family="Helvetica,sans-Serif" font-size="10.00">OnWebSocketEvent</text>
</a>
</g>
</g>
<!-- Node2&#45;&gt;Node3 -->
<g id="edge2" class="edge"><title>Node2&#45;&gt;Node3</title>
<path fill="none" stroke="midnightblue" d="M354.33,-21C362.784,-21 371.351,-21 379.841,-21"/>
<polygon fill="midnightblue" stroke="midnightblue" points="354.089,-17.5001 344.089,-21 354.089,-24.5001 354.089,-17.5001"/>
</g>
</g>
</svg>
