<?xml version="1.0" encoding="UTF-8" standalone="no"?>
<!DOCTYPE svg PUBLIC "-//W3C//DTD SVG 1.1//EN"
 "http://www.w3.org/Graphics/SVG/1.1/DTD/svg11.dtd">
<!-- Generated by graphviz version 2.38.0 (20140413.2041)
 -->
<!-- Title: LittleWeebLibrary.Handlers.IrcClientHandler.SendMessage Pages: 1 -->
<svg width="615pt" height="39pt"
 viewBox="0.00 0.00 615.00 39.00" xmlns="http://www.w3.org/2000/svg" xmlns:xlink="http://www.w3.org/1999/xlink">
<g id="graph0" class="graph" transform="scale(1 1) rotate(0) translate(4 35)">
<title>LittleWeebLibrary.Handlers.IrcClientHandler.SendMessage</title>
<polygon fill="white" stroke="none" points="-4,4 -4,-35 611,-35 611,4 -4,4"/>
<!-- Node19 -->
<g id="node1" class="node"><title>Node19</title>
<polygon fill="#bfbfbf" stroke="black" points="0,-0.5 0,-30.5 150,-30.5 150,-0.5 0,-0.5"/>
<text text-anchor="start" x="8" y="-18.5" font-family="Helvetica,sans-Serif" font-size="10.00">LittleWeebLibrary.Handlers.</text>
<text text-anchor="middle" x="75" y="-7.5" font-family="Helvetica,sans-Serif" font-size="10.00">IrcClientHandler.SendMessage</text>
</g>
<!-- Node20 -->
<g id="node2" class="node"><title>Node20</title>
<g id="a_node2"><a xlink:href="class_little_weeb_library_1_1_services_1_1_irc_web_socket_service.html#aa9fcd18dc123e1356049b4b95bbaf2ff" target="_top" xlink:title="LittleWeebLibrary.Services.\lIrcWebSocketService.SendMessage">
<polygon fill="white" stroke="black" points="186,-0.5 186,-30.5 361,-30.5 361,-0.5 186,-0.5"/>
<text text-anchor="start" x="194" y="-18.5" font-family="Helvetica,sans-Serif" font-size="10.00">LittleWeebLibrary.Services.</text>
<text text-anchor="middle" x="273.5" y="-7.5" font-family="Helvetica,sans-Serif" font-size="10.00">IrcWebSocketService.SendMessage</text>
</a>
</g>
</g>
<!-- Node19&#45;&gt;Node20 -->
<g id="edge1" class="edge"><title>Node19&#45;&gt;Node20</title>
<path fill="none" stroke="midnightblue" d="M160.207,-15.5C168.64,-15.5 177.214,-15.5 185.673,-15.5"/>
<polygon fill="midnightblue" stroke="midnightblue" points="160.008,-12.0001 150.008,-15.5 160.008,-19.0001 160.008,-12.0001"/>
</g>
<!-- Node21 -->
<g id="node3" class="node"><title>Node21</title>
<g id="a_node3"><a xlink:href="class_little_weeb_library_1_1_controllers_1_1_irc_web_socket_controller.html#a5ea966dddf1e0a082dd5ec28f6ace3ab" target="_top" xlink:title="LittleWeebLibrary.Controllers.\lIrcWebSocketController.OnWebSocketEvent">
<polygon fill="white" stroke="black" points="397,-0.5 397,-30.5 607,-30.5 607,-0.5 397,-0.5"/>
<text text-anchor="start" x="405" y="-18.5" font-family="Helvetica,sans-Serif" font-size="10.00">LittleWeebLibrary.Controllers.</text>
<text text-anchor="middle" x="502" y="-7.5" font-family="Helvetica,sans-Serif" font-size="10.00">IrcWebSocketController.OnWebSocketEvent</text>
</a>
</g>
</g>
<!-- Node20&#45;&gt;Node21 -->
<g id="edge2" class="edge"><title>Node20&#45;&gt;Node21</title>
<path fill="none" stroke="midnightblue" d="M371.368,-15.5C379.848,-15.5 388.453,-15.5 396.988,-15.5"/>
<polygon fill="midnightblue" stroke="midnightblue" points="371.099,-12.0001 361.099,-15.5 371.099,-19.0001 371.099,-12.0001"/>
</g>
</g>
</svg>
