<?xml version="1.0" encoding="UTF-8" standalone="no"?>
<!DOCTYPE svg PUBLIC "-//W3C//DTD SVG 1.1//EN"
 "http://www.w3.org/Graphics/SVG/1.1/DTD/svg11.dtd">
<!-- Generated by graphviz version 2.38.0 (20140413.2041)
 -->
<!-- Title: LittleWeebLibrary.Services.IrcWebSocketService.DisableSendMessage Pages: 1 -->
<svg width="557pt" height="127pt"
 viewBox="0.00 0.00 557.00 127.00" xmlns="http://www.w3.org/2000/svg" xmlns:xlink="http://www.w3.org/1999/xlink">
<g id="graph0" class="graph" transform="scale(1 1) rotate(0) translate(4 123)">
<title>LittleWeebLibrary.Services.IrcWebSocketService.DisableSendMessage</title>
<polygon fill="white" stroke="none" points="-4,4 -4,-123 553,-123 553,4 -4,4"/>
<!-- Node30 -->
<g id="node1" class="node"><title>Node30</title>
<polygon fill="#bfbfbf" stroke="black" points="0,-39 0,-80 167,-80 167,-39 0,-39"/>
<text text-anchor="start" x="8" y="-68" font-family="Helvetica,sans-Serif" font-size="10.00">LittleWeebLibrary.Services.</text>
<text text-anchor="start" x="8" y="-57" font-family="Helvetica,sans-Serif" font-size="10.00">IrcWebSocketService.DisableSend</text>
<text text-anchor="middle" x="83.5" y="-46" font-family="Helvetica,sans-Serif" font-size="10.00">Message</text>
</g>
<!-- Node31 -->
<g id="node2" class="node"><title>Node31</title>
<g id="a_node2"><a xlink:href="class_little_weeb_library_1_1_handlers_1_1_web_socket_handler.html#a1de289d54d665a32c93478c68d3e6ad0" target="_top" xlink:title="LittleWeebLibrary.Handlers.\lWebSocketHandler.SendMessage">
<polygon fill="white" stroke="black" points="203,-88.5 203,-118.5 369,-118.5 369,-88.5 203,-88.5"/>
<text text-anchor="start" x="211" y="-106.5" font-family="Helvetica,sans-Serif" font-size="10.00">LittleWeebLibrary.Handlers.</text>
<text text-anchor="middle" x="286" y="-95.5" font-family="Helvetica,sans-Serif" font-size="10.00">WebSocketHandler.SendMessage</text>
</a>
</g>
</g>
<!-- Node30&#45;&gt;Node31 -->
<g id="edge1" class="edge"><title>Node30&#45;&gt;Node31</title>
<path fill="none" stroke="midnightblue" d="M167.209,-77.6505C180.274,-80.5178 193.751,-83.4752 206.712,-86.3195"/>
<polygon fill="midnightblue" stroke="midnightblue" points="205.99,-89.7443 216.508,-88.4692 207.49,-82.907 205.99,-89.7443"/>
</g>
<!-- Node32 -->
<g id="node3" class="node"><title>Node32</title>
<g id="a_node3"><a xlink:href="class_little_weeb_library_1_1_handlers_1_1_debug_handler.html#afccb37dfd6b2114af72000c2f4fe4607" target="_top" xlink:title="LittleWeebLibrary.Handlers.\lDebugHandler.TraceMessage">
<polygon fill="white" stroke="black" points="405,-66.5 405,-96.5 549,-96.5 549,-66.5 405,-66.5"/>
<text text-anchor="start" x="413" y="-84.5" font-family="Helvetica,sans-Serif" font-size="10.00">LittleWeebLibrary.Handlers.</text>
<text text-anchor="middle" x="477" y="-73.5" font-family="Helvetica,sans-Serif" font-size="10.00">DebugHandler.TraceMessage</text>
</a>
</g>
</g>
<!-- Node30&#45;&gt;Node32 -->
<g id="edge4" class="edge"><title>Node30&#45;&gt;Node32</title>
<path fill="none" stroke="midnightblue" d="M167.049,-64.1388C234.052,-67.9039 328.014,-73.1841 394.684,-76.9305"/>
<polygon fill="midnightblue" stroke="midnightblue" points="394.547,-80.4283 404.728,-77.4949 394.94,-73.4393 394.547,-80.4283"/>
</g>
<!-- Node33 -->
<g id="node4" class="node"><title>Node33</title>
<g id="a_node4"><a xlink:href="class_little_weeb_library_1_1_models_1_1_json_success.html#a407103dc37a77aaf47a782296bab7518" target="_top" xlink:title="LittleWeebLibrary.Models.\lJsonSuccess.ToJson">
<polygon fill="white" stroke="black" points="221,-0.5 221,-30.5 351,-30.5 351,-0.5 221,-0.5"/>
<text text-anchor="start" x="229" y="-18.5" font-family="Helvetica,sans-Serif" font-size="10.00">LittleWeebLibrary.Models.</text>
<text text-anchor="middle" x="286" y="-7.5" font-family="Helvetica,sans-Serif" font-size="10.00">JsonSuccess.ToJson</text>
</a>
</g>
</g>
<!-- Node30&#45;&gt;Node33 -->
<g id="edge3" class="edge"><title>Node30&#45;&gt;Node33</title>
<path fill="none" stroke="midnightblue" d="M167.209,-41.3495C181.618,-38.1874 196.526,-34.9157 210.692,-31.807"/>
<polygon fill="midnightblue" stroke="midnightblue" points="211.841,-35.1382 220.858,-29.576 210.341,-28.3009 211.841,-35.1382"/>
</g>
<!-- Node31&#45;&gt;Node32 -->
<g id="edge2" class="edge"><title>Node31&#45;&gt;Node32</title>
<path fill="none" stroke="midnightblue" d="M369.074,-93.9465C377.666,-92.9463 386.398,-91.9299 394.978,-90.9311"/>
<polygon fill="midnightblue" stroke="midnightblue" points="395.435,-94.4016 404.964,-89.7688 394.626,-87.4485 395.435,-94.4016"/>
</g>
</g>
</svg>
