<?xml version="1.0" encoding="UTF-8" standalone="no"?>
<!DOCTYPE svg PUBLIC "-//W3C//DTD SVG 1.1//EN"
 "http://www.w3.org/Graphics/SVG/1.1/DTD/svg11.dtd">
<!-- Generated by graphviz version 2.38.0 (20140413.2041)
 -->
<!-- Title: LittleWeebLibrary.Services.DownloadWebSocketService.SetLittleWeebSettings Pages: 1 -->
<svg width="368pt" height="88pt"
 viewBox="0.00 0.00 368.00 88.00" xmlns="http://www.w3.org/2000/svg" xmlns:xlink="http://www.w3.org/1999/xlink">
<g id="graph0" class="graph" transform="scale(1 1) rotate(0) translate(4 84)">
<title>LittleWeebLibrary.Services.DownloadWebSocketService.SetLittleWeebSettings</title>
<polygon fill="white" stroke="none" points="-4,4 -4,-84 364,-84 364,4 -4,4"/>
<!-- Node56 -->
<g id="node1" class="node"><title>Node56</title>
<polygon fill="#bfbfbf" stroke="black" points="0,-19 0,-60 180,-60 180,-19 0,-19"/>
<text text-anchor="start" x="8" y="-48" font-family="Helvetica,sans-Serif" font-size="10.00">LittleWeebLibrary.Services.</text>
<text text-anchor="start" x="8" y="-37" font-family="Helvetica,sans-Serif" font-size="10.00">DownloadWebSocketService.SetLittle</text>
<text text-anchor="middle" x="90" y="-26" font-family="Helvetica,sans-Serif" font-size="10.00">WeebSettings</text>
</g>
<!-- Node57 -->
<g id="node2" class="node"><title>Node57</title>
<g id="a_node2"><a xlink:href="class_little_weeb_library_1_1_settings_1_1_little_weeb_settings.html#a5a5b722dd8e117be810022882795b6ae" target="_top" xlink:title="LittleWeebLibrary.Settings.\lLittleWeebSettings.ToString">
<polygon fill="white" stroke="black" points="219,-49.5 219,-79.5 357,-79.5 357,-49.5 219,-49.5"/>
<text text-anchor="start" x="227" y="-67.5" font-family="Helvetica,sans-Serif" font-size="10.00">LittleWeebLibrary.Settings.</text>
<text text-anchor="middle" x="288" y="-56.5" font-family="Helvetica,sans-Serif" font-size="10.00">LittleWeebSettings.ToString</text>
</a>
</g>
</g>
<!-- Node56&#45;&gt;Node57 -->
<g id="edge1" class="edge"><title>Node56&#45;&gt;Node57</title>
<path fill="none" stroke="midnightblue" d="M180.11,-50.8661C189.691,-52.0881 199.385,-53.3246 208.823,-54.5285"/>
<polygon fill="midnightblue" stroke="midnightblue" points="208.584,-58.0263 218.947,-55.8197 209.47,-51.0825 208.584,-58.0263"/>
</g>
<!-- Node58 -->
<g id="node3" class="node"><title>Node58</title>
<g id="a_node3"><a xlink:href="class_little_weeb_library_1_1_handlers_1_1_debug_handler.html#afccb37dfd6b2114af72000c2f4fe4607" target="_top" xlink:title="LittleWeebLibrary.Handlers.\lDebugHandler.TraceMessage">
<polygon fill="white" stroke="black" points="216,-0.5 216,-30.5 360,-30.5 360,-0.5 216,-0.5"/>
<text text-anchor="start" x="224" y="-18.5" font-family="Helvetica,sans-Serif" font-size="10.00">LittleWeebLibrary.Handlers.</text>
<text text-anchor="middle" x="288" y="-7.5" font-family="Helvetica,sans-Serif" font-size="10.00">DebugHandler.TraceMessage</text>
</a>
</g>
</g>
<!-- Node56&#45;&gt;Node58 -->
<g id="edge2" class="edge"><title>Node56&#45;&gt;Node58</title>
<path fill="none" stroke="midnightblue" d="M180.11,-28.5885C188.594,-27.5497 197.167,-26.5 205.573,-25.4707"/>
<polygon fill="midnightblue" stroke="midnightblue" points="206.225,-28.9171 215.725,-24.2275 205.374,-21.969 206.225,-28.9171"/>
</g>
</g>
</svg>
