<?xml version="1.0" encoding="UTF-8" standalone="no"?>
<!DOCTYPE svg PUBLIC "-//W3C//DTD SVG 1.1//EN"
 "http://www.w3.org/Graphics/SVG/1.1/DTD/svg11.dtd">
<!-- Generated by graphviz version 2.38.0 (20140413.2041)
 -->
<!-- Title: LittleWeebLibrary.StaticClasses.UtilityMethods.CheckOperatingSystems Pages: 1 -->
<svg width="852pt" height="251pt"
 viewBox="0.00 0.00 852.00 251.00" xmlns="http://www.w3.org/2000/svg" xmlns:xlink="http://www.w3.org/1999/xlink">
<g id="graph0" class="graph" transform="scale(1 1) rotate(0) translate(4 247)">
<title>LittleWeebLibrary.StaticClasses.UtilityMethods.CheckOperatingSystems</title>
<polygon fill="white" stroke="none" points="-4,4 -4,-247 848,-247 848,4 -4,4"/>
<!-- Node119 -->
<g id="node1" class="node"><title>Node119</title>
<polygon fill="#bfbfbf" stroke="black" points="0,-77 0,-118 148,-118 148,-77 0,-77"/>
<text text-anchor="start" x="8" y="-106" font-family="Helvetica,sans-Serif" font-size="10.00">LittleWeebLibrary.Static</text>
<text text-anchor="start" x="8" y="-95" font-family="Helvetica,sans-Serif" font-size="10.00">Classes.UtilityMethods.Check</text>
<text text-anchor="middle" x="74" y="-84" font-family="Helvetica,sans-Serif" font-size="10.00">OperatingSystems</text>
</g>
<!-- Node120 -->
<g id="node2" class="node"><title>Node120</title>
<g id="a_node2"><a xlink:href="class_little_weeb_library_1_1_static_classes_1_1_utility_methods.html#a9fe4cf5d219f0453436fe9c85ad261bf" target="_top" xlink:title="LittleWeebLibrary.Static\lClasses.UtilityMethods.BasePath">
<polygon fill="white" stroke="black" points="184,-165.5 184,-195.5 347,-195.5 347,-165.5 184,-165.5"/>
<text text-anchor="start" x="192" y="-183.5" font-family="Helvetica,sans-Serif" font-size="10.00">LittleWeebLibrary.Static</text>
<text text-anchor="middle" x="265.5" y="-172.5" font-family="Helvetica,sans-Serif" font-size="10.00">Classes.UtilityMethods.BasePath</text>
</a>
</g>
</g>
<!-- Node119&#45;&gt;Node120 -->
<g id="edge1" class="edge"><title>Node119&#45;&gt;Node120</title>
<path fill="none" stroke="midnightblue" d="M118.513,-123.073C138.112,-133.954 161.796,-146.241 184,-155.5 192.644,-159.105 201.998,-162.469 211.166,-165.489"/>
<polygon fill="midnightblue" stroke="midnightblue" points="119.963,-119.873 109.531,-118.026 116.535,-125.976 119.963,-119.873"/>
</g>
<!-- Node123 -->
<g id="node5" class="node"><title>Node123</title>
<g id="a_node5"><a xlink:href="class_little_weeb_library_1_1_handlers_1_1_version_handler.html#ad4dc752be10a1b3cc2d546dc1d4d6bff" target="_top" xlink:title="LittleWeebLibrary.Handlers.\lVersionHandler.GetLatestVersion\lDesktop">
<polygon fill="white" stroke="black" points="185,-105 185,-146 346,-146 346,-105 185,-105"/>
<text text-anchor="start" x="193" y="-134" font-family="Helvetica,sans-Serif" font-size="10.00">LittleWeebLibrary.Handlers.</text>
<text text-anchor="start" x="193" y="-123" font-family="Helvetica,sans-Serif" font-size="10.00">VersionHandler.GetLatestVersion</text>
<text text-anchor="middle" x="265.5" y="-112" font-family="Helvetica,sans-Serif" font-size="10.00">Desktop</text>
</a>
</g>
</g>
<!-- Node119&#45;&gt;Node123 -->
<g id="edge4" class="edge"><title>Node119&#45;&gt;Node123</title>
<path fill="none" stroke="midnightblue" d="M158.182,-109.791C167.032,-111.098 176.019,-112.426 184.827,-113.728"/>
<polygon fill="midnightblue" stroke="midnightblue" points="158.67,-106.325 148.266,-108.326 157.647,-113.25 158.67,-106.325"/>
</g>
<!-- Node126 -->
<g id="node8" class="node"><title>Node126</title>
<g id="a_node8"><a xlink:href="class_little_weeb_library_1_1_handlers_1_1_directory_handler.html#a4f3f5841ead561873cc5130efc6294aa" target="_top" xlink:title="LittleWeebLibrary.Handlers.\lDirectoryHandler.OpenDirectory">
<polygon fill="white" stroke="black" points="188.5,-55.5 188.5,-85.5 342.5,-85.5 342.5,-55.5 188.5,-55.5"/>
<text text-anchor="start" x="196.5" y="-73.5" font-family="Helvetica,sans-Serif" font-size="10.00">LittleWeebLibrary.Handlers.</text>
<text text-anchor="middle" x="265.5" y="-62.5" font-family="Helvetica,sans-Serif" font-size="10.00">DirectoryHandler.OpenDirectory</text>
</a>
</g>
</g>
<!-- Node119&#45;&gt;Node126 -->
<g id="edge7" class="edge"><title>Node119&#45;&gt;Node126</title>
<path fill="none" stroke="midnightblue" d="M158.2,-85.6457C168.209,-84.2195 178.393,-82.7686 188.296,-81.3576"/>
<polygon fill="midnightblue" stroke="midnightblue" points="157.672,-82.1854 148.266,-87.0611 158.659,-89.1155 157.672,-82.1854"/>
</g>
<!-- Node129 -->
<g id="node11" class="node"><title>Node129</title>
<g id="a_node11"><a xlink:href="class_little_weeb_library_1_1_handlers_1_1_file_handler.html#a08cbef4974d973035a7ddeedb9f8ff4a" target="_top" xlink:title="LittleWeebLibrary.Handlers.\lFileHandler.OpenFile">
<polygon fill="white" stroke="black" points="197,-3.5 197,-33.5 334,-33.5 334,-3.5 197,-3.5"/>
<text text-anchor="start" x="205" y="-21.5" font-family="Helvetica,sans-Serif" font-size="10.00">LittleWeebLibrary.Handlers.</text>
<text text-anchor="middle" x="265.5" y="-10.5" font-family="Helvetica,sans-Serif" font-size="10.00">FileHandler.OpenFile</text>
</a>
</g>
</g>
<!-- Node119&#45;&gt;Node129 -->
<g id="edge10" class="edge"><title>Node119&#45;&gt;Node129</title>
<path fill="none" stroke="midnightblue" d="M124.23,-72.4535C142.748,-63.4476 164.13,-53.5372 184,-45.5 194.386,-41.2991 205.7,-37.2129 216.475,-33.5434"/>
<polygon fill="midnightblue" stroke="midnightblue" points="122.546,-69.3807 115.11,-76.9272 125.629,-75.6652 122.546,-69.3807"/>
</g>
<!-- Node121 -->
<g id="node3" class="node"><title>Node121</title>
<g id="a_node3"><a xlink:href="class_little_weeb_library_1_1_handlers_1_1_data_base_handler.html#af3623e6075f8aaf6f5082994cd1448df" target="_top" xlink:title="LittleWeebLibrary.Handlers.\lDataBaseHandler.DataBaseHandler">
<polygon fill="white" stroke="black" points="402.5,-212.5 402.5,-242.5 573.5,-242.5 573.5,-212.5 402.5,-212.5"/>
<text text-anchor="start" x="410.5" y="-230.5" font-family="Helvetica,sans-Serif" font-size="10.00">LittleWeebLibrary.Handlers.</text>
<text text-anchor="middle" x="488" y="-219.5" font-family="Helvetica,sans-Serif" font-size="10.00">DataBaseHandler.DataBaseHandler</text>
</a>
</g>
</g>
<!-- Node120&#45;&gt;Node121 -->
<g id="edge2" class="edge"><title>Node120&#45;&gt;Node121</title>
<path fill="none" stroke="midnightblue" d="M346.869,-197.631C369.688,-202.495 394.354,-207.752 416.538,-212.481"/>
<polygon fill="midnightblue" stroke="midnightblue" points="347.384,-194.162 336.874,-195.5 345.924,-201.008 347.384,-194.162"/>
</g>
<!-- Node122 -->
<g id="node4" class="node"><title>Node122</title>
<g id="a_node4"><a xlink:href="class_little_weeb_library_1_1_handlers_1_1_settings_handler.html#a6b11494ae34a6ff54b825941ef06cdb2" target="_top" xlink:title="LittleWeebLibrary.Handlers.\lSettingsHandler.SettingsHandler">
<polygon fill="white" stroke="black" points="409,-163.5 409,-193.5 567,-193.5 567,-163.5 409,-163.5"/>
<text text-anchor="start" x="417" y="-181.5" font-family="Helvetica,sans-Serif" font-size="10.00">LittleWeebLibrary.Handlers.</text>
<text text-anchor="middle" x="488" y="-170.5" font-family="Helvetica,sans-Serif" font-size="10.00">SettingsHandler.SettingsHandler</text>
</a>
</g>
</g>
<!-- Node120&#45;&gt;Node122 -->
<g id="edge3" class="edge"><title>Node120&#45;&gt;Node122</title>
<path fill="none" stroke="midnightblue" d="M357.075,-179.678C374.267,-179.523 392.119,-179.361 408.884,-179.209"/>
<polygon fill="midnightblue" stroke="midnightblue" points="357.009,-176.179 347.042,-179.769 357.073,-183.179 357.009,-176.179"/>
</g>
<!-- Node124 -->
<g id="node6" class="node"><title>Node124</title>
<g id="a_node6"><a xlink:href="class_little_weeb_library_1_1_services_1_1_version_web_socket_service.html#af1a64a24e2d1b2299b82ba81b3c4a537" target="_top" xlink:title="LittleWeebLibrary.Services.\lVersionWebSocketService.CheckVersion">
<polygon fill="white" stroke="black" points="390,-111.5 390,-141.5 586,-141.5 586,-111.5 390,-111.5"/>
<text text-anchor="start" x="398" y="-129.5" font-family="Helvetica,sans-Serif" font-size="10.00">LittleWeebLibrary.Services.</text>
<text text-anchor="middle" x="488" y="-118.5" font-family="Helvetica,sans-Serif" font-size="10.00">VersionWebSocketService.CheckVersion</text>
</a>
</g>
</g>
<!-- Node123&#45;&gt;Node124 -->
<g id="edge5" class="edge"><title>Node123&#45;&gt;Node124</title>
<path fill="none" stroke="midnightblue" d="M356.188,-125.907C367.269,-125.957 378.638,-126.009 389.824,-126.059"/>
<polygon fill="midnightblue" stroke="midnightblue" points="356.121,-122.407 346.106,-125.861 356.09,-129.406 356.121,-122.407"/>
</g>
<!-- Node125 -->
<g id="node7" class="node"><title>Node125</title>
<g id="a_node7"><a xlink:href="class_little_weeb_library_1_1_controllers_1_1_sub_controllers_1_1_version_web_socket_controller.html#aecbfb94508db51693b11ea8dba9cf7e9" target="_top" xlink:title="LittleWeebLibrary.Controllers.\lSubControllers.VersionWebSocketController.\lOnWebSocketEvent">
<polygon fill="white" stroke="black" points="630.5,-110 630.5,-151 842.5,-151 842.5,-110 630.5,-110"/>
<text text-anchor="start" x="638.5" y="-139" font-family="Helvetica,sans-Serif" font-size="10.00">LittleWeebLibrary.Controllers.</text>
<text text-anchor="start" x="638.5" y="-128" font-family="Helvetica,sans-Serif" font-size="10.00">SubControllers.VersionWebSocketController.</text>
<text text-anchor="middle" x="736.5" y="-117" font-family="Helvetica,sans-Serif" font-size="10.00">OnWebSocketEvent</text>
</a>
</g>
</g>
<!-- Node124&#45;&gt;Node125 -->
<g id="edge6" class="edge"><title>Node124&#45;&gt;Node125</title>
<path fill="none" stroke="midnightblue" d="M596.373,-128.242C607.66,-128.426 619.128,-128.612 630.389,-128.794"/>
<polygon fill="midnightblue" stroke="midnightblue" points="596.125,-124.738 586.069,-128.075 596.011,-131.737 596.125,-124.738"/>
</g>
<!-- Node127 -->
<g id="node9" class="node"><title>Node127</title>
<g id="a_node9"><a xlink:href="class_little_weeb_library_1_1_services_1_1_download_web_socket_service.html#a6f2201dd7b86f142c2e901262ea53fbe" target="_top" xlink:title="LittleWeebLibrary.Services.\lDownloadWebSocketService.Openfullfilepath">
<polygon fill="white" stroke="black" points="383,-55.5 383,-85.5 593,-85.5 593,-55.5 383,-55.5"/>
<text text-anchor="start" x="391" y="-73.5" font-family="Helvetica,sans-Serif" font-size="10.00">LittleWeebLibrary.Services.</text>
<text text-anchor="middle" x="488" y="-62.5" font-family="Helvetica,sans-Serif" font-size="10.00">DownloadWebSocketService.Openfullfilepath</text>
</a>
</g>
</g>
<!-- Node126&#45;&gt;Node127 -->
<g id="edge8" class="edge"><title>Node126&#45;&gt;Node127</title>
<path fill="none" stroke="midnightblue" d="M352.83,-70.5C362.664,-70.5 372.765,-70.5 382.798,-70.5"/>
<polygon fill="midnightblue" stroke="midnightblue" points="352.692,-67.0001 342.692,-70.5 352.692,-74.0001 352.692,-67.0001"/>
</g>
<!-- Node128 -->
<g id="node10" class="node"><title>Node128</title>
<g id="a_node10"><a xlink:href="class_little_weeb_library_1_1_controllers_1_1_download_web_socket_controller.html#a9e5e421ed57b8b2a294e17d93d027c53" target="_top" xlink:title="LittleWeebLibrary.Controllers.\lDownloadWebSocketController.OnWeb\lSocketEvent">
<polygon fill="white" stroke="black" points="643,-50 643,-91 830,-91 830,-50 643,-50"/>
<text text-anchor="start" x="651" y="-79" font-family="Helvetica,sans-Serif" font-size="10.00">LittleWeebLibrary.Controllers.</text>
<text text-anchor="start" x="651" y="-68" font-family="Helvetica,sans-Serif" font-size="10.00">DownloadWebSocketController.OnWeb</text>
<text text-anchor="middle" x="736.5" y="-57" font-family="Helvetica,sans-Serif" font-size="10.00">SocketEvent</text>
</a>
</g>
</g>
<!-- Node127&#45;&gt;Node128 -->
<g id="edge9" class="edge"><title>Node127&#45;&gt;Node128</title>
<path fill="none" stroke="midnightblue" d="M603.237,-70.5C616.436,-70.5 629.773,-70.5 642.639,-70.5"/>
<polygon fill="midnightblue" stroke="midnightblue" points="603.181,-67.0001 593.181,-70.5 603.181,-74.0001 603.181,-67.0001"/>
</g>
<!-- Node130 -->
<g id="node12" class="node"><title>Node130</title>
<g id="a_node12"><a xlink:href="class_little_weeb_library_1_1_services_1_1_file_web_socket_service.html#ae140d076e6f64585e7b71bb51545e1bb" target="_top" xlink:title="LittleWeebLibrary.Services.\lFileWebSocketService.OpenFile">
<polygon fill="white" stroke="black" points="409.5,-2.5 409.5,-32.5 566.5,-32.5 566.5,-2.5 409.5,-2.5"/>
<text text-anchor="start" x="417.5" y="-20.5" font-family="Helvetica,sans-Serif" font-size="10.00">LittleWeebLibrary.Services.</text>
<text text-anchor="middle" x="488" y="-9.5" font-family="Helvetica,sans-Serif" font-size="10.00">FileWebSocketService.OpenFile</text>
</a>
</g>
</g>
<!-- Node129&#45;&gt;Node130 -->
<g id="edge11" class="edge"><title>Node129&#45;&gt;Node130</title>
<path fill="none" stroke="midnightblue" d="M344.367,-18.1469C365.483,-18.0511 388.338,-17.9474 409.437,-17.8518"/>
<polygon fill="midnightblue" stroke="midnightblue" points="344.14,-14.6478 334.156,-18.1932 344.172,-21.6477 344.14,-14.6478"/>
</g>
<!-- Node131 -->
<g id="node13" class="node"><title>Node131</title>
<g id="a_node13"><a xlink:href="class_little_weeb_library_1_1_controllers_1_1_file_web_socket_controller.html#a9ecdec41f15ac23a56c402ff2c554a08" target="_top" xlink:title="LittleWeebLibrary.Controllers.\lFileWebSocketController.OnWebSocketEvent">
<polygon fill="white" stroke="black" points="629,-0.5 629,-30.5 844,-30.5 844,-0.5 629,-0.5"/>
<text text-anchor="start" x="637" y="-18.5" font-family="Helvetica,sans-Serif" font-size="10.00">LittleWeebLibrary.Controllers.</text>
<text text-anchor="middle" x="736.5" y="-7.5" font-family="Helvetica,sans-Serif" font-size="10.00">FileWebSocketController.OnWebSocketEvent</text>
</a>
</g>
</g>
<!-- Node130&#45;&gt;Node131 -->
<g id="edge12" class="edge"><title>Node130&#45;&gt;Node131</title>
<path fill="none" stroke="midnightblue" d="M576.992,-16.7861C593.81,-16.6496 611.586,-16.5054 628.913,-16.3648"/>
<polygon fill="midnightblue" stroke="midnightblue" points="576.627,-13.2888 566.656,-16.8699 576.684,-20.2886 576.627,-13.2888"/>
</g>
</g>
</svg>
