<?xml version="1.0" encoding="UTF-8" standalone="no"?>
<!DOCTYPE svg PUBLIC "-//W3C//DTD SVG 1.1//EN"
 "http://www.w3.org/Graphics/SVG/1.1/DTD/svg11.dtd">
<!-- Generated by graphviz version 2.38.0 (20140413.2041)
 -->
<!-- Title: LittleWeebLibrary.Handlers.DownloadHandler.AddDownload Pages: 1 -->
<svg width="353pt" height="296pt"
 viewBox="0.00 0.00 353.00 295.50" xmlns="http://www.w3.org/2000/svg" xmlns:xlink="http://www.w3.org/1999/xlink">
<g id="graph0" class="graph" transform="scale(1 1) rotate(0) translate(4 291.5)">
<title>LittleWeebLibrary.Handlers.DownloadHandler.AddDownload</title>
<polygon fill="white" stroke="none" points="-4,4 -4,-291.5 349,-291.5 349,4 -4,4"/>
<!-- Node4 -->
<g id="node1" class="node"><title>Node4</title>
<polygon fill="#bfbfbf" stroke="black" points="0,-122.5 0,-152.5 154,-152.5 154,-122.5 0,-122.5"/>
<text text-anchor="start" x="8" y="-140.5" font-family="Helvetica,sans-Serif" font-size="10.00">LittleWeebLibrary.Handlers.</text>
<text text-anchor="middle" x="77" y="-129.5" font-family="Helvetica,sans-Serif" font-size="10.00">DownloadHandler.AddDownload</text>
</g>
<!-- Node5 -->
<g id="node2" class="node"><title>Node5</title>
<g id="a_node2"><a xlink:href="class_little_weeb_library_1_1_static_classes_1_1_utility_methods.html#a76fa2aea99ce4b1ad4130cc18b1d5969" target="_top" xlink:title="LittleWeebLibrary.Static\lClasses.UtilityMethods.GetFree\lSpaceKbits">
<polygon fill="white" stroke="black" points="190,-246 190,-287 345,-287 345,-246 190,-246"/>
<text text-anchor="start" x="198" y="-275" font-family="Helvetica,sans-Serif" font-size="10.00">LittleWeebLibrary.Static</text>
<text text-anchor="start" x="198" y="-264" font-family="Helvetica,sans-Serif" font-size="10.00">Classes.UtilityMethods.GetFree</text>
<text text-anchor="middle" x="267.5" y="-253" font-family="Helvetica,sans-Serif" font-size="10.00">SpaceKbits</text>
</a>
</g>
</g>
<!-- Node4&#45;&gt;Node5 -->
<g id="edge1" class="edge"><title>Node4&#45;&gt;Node5</title>
<path fill="none" stroke="midnightblue" d="M91.8804,-152.76C111.837,-173.953 150.589,-212.402 190,-236.5 192.799,-238.212 195.713,-239.858 198.698,-241.437"/>
<polygon fill="midnightblue" stroke="midnightblue" points="197.311,-244.656 207.825,-245.969 200.425,-238.386 197.311,-244.656"/>
</g>
<!-- Node6 -->
<g id="node3" class="node"><title>Node6</title>
<g id="a_node3"><a xlink:href="class_little_weeb_library_1_1_models_1_1_json_download_queue.html#a1d77053fc493aa88857bcafd6fea4bf7" target="_top" xlink:title="LittleWeebLibrary.Models.\lJsonDownloadQueue.ToJObject">
<polygon fill="white" stroke="black" points="190.5,-196.5 190.5,-226.5 344.5,-226.5 344.5,-196.5 190.5,-196.5"/>
<text text-anchor="start" x="198.5" y="-214.5" font-family="Helvetica,sans-Serif" font-size="10.00">LittleWeebLibrary.Models.</text>
<text text-anchor="middle" x="267.5" y="-203.5" font-family="Helvetica,sans-Serif" font-size="10.00">JsonDownloadQueue.ToJObject</text>
</a>
</g>
</g>
<!-- Node4&#45;&gt;Node6 -->
<g id="edge2" class="edge"><title>Node4&#45;&gt;Node6</title>
<path fill="none" stroke="midnightblue" d="M109.453,-152.718C131.678,-163.179 162.319,-177.019 190,-187.5 195.126,-189.441 200.484,-191.352 205.883,-193.198"/>
<polygon fill="midnightblue" stroke="midnightblue" points="205.009,-196.595 215.603,-196.44 207.224,-189.955 205.009,-196.595"/>
</g>
<!-- Node7 -->
<g id="node4" class="node"><title>Node7</title>
<g id="a_node4"><a xlink:href="class_little_weeb_library_1_1_models_1_1_json_error.html#a0623b835bb68d5d5e1f591df6a09dd81" target="_top" xlink:title="LittleWeebLibrary.Models.\lJsonError.ToJObject">
<polygon fill="white" stroke="black" points="202.5,-147.5 202.5,-177.5 332.5,-177.5 332.5,-147.5 202.5,-147.5"/>
<text text-anchor="start" x="210.5" y="-165.5" font-family="Helvetica,sans-Serif" font-size="10.00">LittleWeebLibrary.Models.</text>
<text text-anchor="middle" x="267.5" y="-154.5" font-family="Helvetica,sans-Serif" font-size="10.00">JsonError.ToJObject</text>
</a>
</g>
</g>
<!-- Node4&#45;&gt;Node7 -->
<g id="edge3" class="edge"><title>Node4&#45;&gt;Node7</title>
<path fill="none" stroke="midnightblue" d="M154.127,-147.596C166.785,-149.275 179.897,-151.014 192.501,-152.686"/>
<polygon fill="midnightblue" stroke="midnightblue" points="192.109,-156.164 202.482,-154.01 193.029,-149.225 192.109,-156.164"/>
</g>
<!-- Node8 -->
<g id="node5" class="node"><title>Node8</title>
<g id="a_node5"><a xlink:href="class_little_weeb_library_1_1_models_1_1_json_error.html#ad7d5522c90119111d2e929f39e7f6d3c" target="_top" xlink:title="LittleWeebLibrary.Models.\lJsonError.ToString">
<polygon fill="white" stroke="black" points="202.5,-98.5 202.5,-128.5 332.5,-128.5 332.5,-98.5 202.5,-98.5"/>
<text text-anchor="start" x="210.5" y="-116.5" font-family="Helvetica,sans-Serif" font-size="10.00">LittleWeebLibrary.Models.</text>
<text text-anchor="middle" x="267.5" y="-105.5" font-family="Helvetica,sans-Serif" font-size="10.00">JsonError.ToString</text>
</a>
</g>
</g>
<!-- Node4&#45;&gt;Node8 -->
<g id="edge4" class="edge"><title>Node4&#45;&gt;Node8</title>
<path fill="none" stroke="midnightblue" d="M154.127,-127.807C166.785,-126.196 179.897,-124.526 192.501,-122.922"/>
<polygon fill="midnightblue" stroke="midnightblue" points="193.004,-126.386 202.482,-121.651 192.12,-119.442 193.004,-126.386"/>
</g>
<!-- Node9 -->
<g id="node6" class="node"><title>Node9</title>
<g id="a_node6"><a xlink:href="class_little_weeb_library_1_1_models_1_1_json_download_info.html#af36cbb3251b0efcd80a45f1fef89f5c9" target="_top" xlink:title="LittleWeebLibrary.Models.\lJsonDownloadInfo.ToString">
<polygon fill="white" stroke="black" points="201,-49.5 201,-79.5 334,-79.5 334,-49.5 201,-49.5"/>
<text text-anchor="start" x="209" y="-67.5" font-family="Helvetica,sans-Serif" font-size="10.00">LittleWeebLibrary.Models.</text>
<text text-anchor="middle" x="267.5" y="-56.5" font-family="Helvetica,sans-Serif" font-size="10.00">JsonDownloadInfo.ToString</text>
</a>
</g>
</g>
<!-- Node4&#45;&gt;Node9 -->
<g id="edge5" class="edge"><title>Node4&#45;&gt;Node9</title>
<path fill="none" stroke="midnightblue" d="M111.01,-122.435C133.151,-112.558 163.077,-99.6453 190,-89.5 195.92,-87.269 202.14,-85.045 208.367,-82.8955"/>
<polygon fill="midnightblue" stroke="midnightblue" points="209.772,-86.1149 218.118,-79.5885 207.524,-79.4858 209.772,-86.1149"/>
</g>
<!-- Node10 -->
<g id="node7" class="node"><title>Node10</title>
<g id="a_node7"><a xlink:href="class_little_weeb_library_1_1_handlers_1_1_debug_handler.html#afccb37dfd6b2114af72000c2f4fe4607" target="_top" xlink:title="LittleWeebLibrary.Handlers.\lDebugHandler.TraceMessage">
<polygon fill="white" stroke="black" points="195.5,-0.5 195.5,-30.5 339.5,-30.5 339.5,-0.5 195.5,-0.5"/>
<text text-anchor="start" x="203.5" y="-18.5" font-family="Helvetica,sans-Serif" font-size="10.00">LittleWeebLibrary.Handlers.</text>
<text text-anchor="middle" x="267.5" y="-7.5" font-family="Helvetica,sans-Serif" font-size="10.00">DebugHandler.TraceMessage</text>
</a>
</g>
</g>
<!-- Node4&#45;&gt;Node10 -->
<g id="edge6" class="edge"><title>Node4&#45;&gt;Node10</title>
<path fill="none" stroke="midnightblue" d="M91.7573,-122.251C111.567,-101.133 150.147,-63.044 190,-40.5 193.867,-38.3125 197.954,-36.2828 202.145,-34.4053"/>
<polygon fill="midnightblue" stroke="midnightblue" points="203.558,-37.6087 211.446,-30.5363 200.869,-31.1456 203.558,-37.6087"/>
</g>
</g>
</svg>
