<?xml version="1.0" encoding="UTF-8" standalone="no"?>
<!DOCTYPE svg PUBLIC "-//W3C//DTD SVG 1.1//EN"
 "http://www.w3.org/Graphics/SVG/1.1/DTD/svg11.dtd">
<!-- Generated by graphviz version 2.38.0 (20140413.2041)
 -->
<!-- Title: LittleWeebLibrary.Handlers.KitsuHandler.GetAllGenres Pages: 1 -->
<svg width="615pt" height="50pt"
 viewBox="0.00 0.00 615.00 50.00" xmlns="http://www.w3.org/2000/svg" xmlns:xlink="http://www.w3.org/1999/xlink">
<g id="graph0" class="graph" transform="scale(1 1) rotate(0) translate(4 46)">
<title>LittleWeebLibrary.Handlers.KitsuHandler.GetAllGenres</title>
<polygon fill="white" stroke="none" points="-4,4 -4,-46 611,-46 611,4 -4,4"/>
<!-- Node41 -->
<g id="node1" class="node"><title>Node41</title>
<polygon fill="#bfbfbf" stroke="black" points="0,-6 0,-36 137,-36 137,-6 0,-6"/>
<text text-anchor="start" x="8" y="-24" font-family="Helvetica,sans-Serif" font-size="10.00">LittleWeebLibrary.Handlers.</text>
<text text-anchor="middle" x="68.5" y="-13" font-family="Helvetica,sans-Serif" font-size="10.00">KitsuHandler.GetAllGenres</text>
</g>
<!-- Node42 -->
<g id="node2" class="node"><title>Node42</title>
<g id="a_node2"><a xlink:href="class_little_weeb_library_1_1_services_1_1_info_api_web_socket_service.html#a2882975741be27c69b461509d48e2636" target="_top" xlink:title="LittleWeebLibrary.Services.\lInfoApiWebSocketService.GetAllGenres">
<polygon fill="white" stroke="black" points="173,-6 173,-36 363,-36 363,-6 173,-6"/>
<text text-anchor="start" x="181" y="-24" font-family="Helvetica,sans-Serif" font-size="10.00">LittleWeebLibrary.Services.</text>
<text text-anchor="middle" x="268" y="-13" font-family="Helvetica,sans-Serif" font-size="10.00">InfoApiWebSocketService.GetAllGenres</text>
</a>
</g>
</g>
<!-- Node41&#45;&gt;Node42 -->
<g id="edge1" class="edge"><title>Node41&#45;&gt;Node42</title>
<path fill="none" stroke="midnightblue" d="M147.305,-21C155.697,-21 164.3,-21 172.857,-21"/>
<polygon fill="midnightblue" stroke="midnightblue" points="147.192,-17.5001 137.192,-21 147.192,-24.5001 147.192,-17.5001"/>
</g>
<!-- Node43 -->
<g id="node3" class="node"><title>Node43</title>
<g id="a_node3"><a xlink:href="class_little_weeb_library_1_1_controllers_1_1_sub_controllers_1_1_info_api_web_socket_controller.html#ad620537574b819085ff8eb394add2912" target="_top" xlink:title="LittleWeebLibrary.Controllers.\lSubControllers.InfoApiWebSocketController.\lOnWebSocketEvent">
<polygon fill="white" stroke="black" points="399,-0.5 399,-41.5 607,-41.5 607,-0.5 399,-0.5"/>
<text text-anchor="start" x="407" y="-29.5" font-family="Helvetica,sans-Serif" font-size="10.00">LittleWeebLibrary.Controllers.</text>
<text text-anchor="start" x="407" y="-18.5" font-family="Helvetica,sans-Serif" font-size="10.00">SubControllers.InfoApiWebSocketController.</text>
<text text-anchor="middle" x="503" y="-7.5" font-family="Helvetica,sans-Serif" font-size="10.00">OnWebSocketEvent</text>
</a>
</g>
</g>
<!-- Node42&#45;&gt;Node43 -->
<g id="edge2" class="edge"><title>Node42&#45;&gt;Node43</title>
<path fill="none" stroke="midnightblue" d="M373.351,-21C381.802,-21 390.339,-21 398.781,-21"/>
<polygon fill="midnightblue" stroke="midnightblue" points="373.098,-17.5001 363.098,-21 373.098,-24.5001 373.098,-17.5001"/>
</g>
</g>
</svg>
