<?xml version="1.0" encoding="UTF-8" standalone="no"?>
<!DOCTYPE svg PUBLIC "-//W3C//DTD SVG 1.1//EN"
 "http://www.w3.org/Graphics/SVG/1.1/DTD/svg11.dtd">
<!-- Generated by graphviz version 2.38.0 (20140413.2041)
 -->
<!-- Title: LittleWeebLibrary.Handlers.AnimeProfileHandler.AnimeLatestEpisode Pages: 1 -->
<!--zoomable 176 -->
<svg id="main" version="1.1" xmlns="http://www.w3.org/2000/svg" xmlns:xlink="http://www.w3.org/1999/xlink" xml:space="preserve" onload="init(evt)">
<style type="text/css"><![CDATA[
.edge:hover path { stroke: red; }
.edge:hover polygon { stroke: red; fill: red; }
]]></style>
<script type="text/javascript"><![CDATA[
var edges = document.getElementsByTagName('g');
if (edges && edges.length) {
  for (var i=0;i<edges.length;i++) {
    if (edges[i].id.substr(0,4)=='edge') {
      edges[i].setAttribute('class','edge');
    }
  }
}
]]></script>
        <defs>
                <circle id="rim" cx="0" cy="0" r="7"/>
                <circle id="rim2" cx="0" cy="0" r="3.5"/>
                <g id="zoomPlus">
                        <use xlink:href="#rim" fill="#404040">
                                <set attributeName="fill" to="#808080" begin="zoomplus.mouseover" end="zoomplus.mouseout"/>
                        </use>
                        <path d="M-4,0h8M0,-4v8" fill="none" stroke="white" stroke-width="1.5" pointer-events="none"/>
                </g>
                <g id="zoomMin">
                        <use xlink:href="#rim" fill="#404040">
                                <set attributeName="fill" to="#808080" begin="zoomminus.mouseover" end="zoomminus.mouseout"/>
                        </use>
                        <path d="M-4,0h8" fill="none" stroke="white" stroke-width="1.5" pointer-events="none"/>
                </g>
                <g id="dirArrow">
                        <path fill="none" stroke="white" stroke-width="1.5" d="M0,-3.0v7 M-2.5,-0.5L0,-3.0L2.5,-0.5"/>
                </g>
               <g id="resetDef">
                       <use xlink:href="#rim2" fill="#404040">
                               <set attributeName="fill" to="#808080" begin="reset.mouseover" end="reset.mouseout"/>
                       </use>
               </g>
        </defs>

<script type="text/javascript">
var viewWidth = 533;
var viewHeight = 176;
var sectionId = 'dynsection-14';
</script>
<script xlink:href="svgpan.js"/>
<svg id="graph" class="graph">
<g id="viewport">
<title>LittleWeebLibrary.Handlers.AnimeProfileHandler.AnimeLatestEpisode</title>
<polygon fill="white" stroke="none" points="-4,4 -4,-172 529,-172 529,4 -4,4"/>
<!-- Node65 -->
<g id="node1" class="node"><title>Node65</title>
<polygon fill="#bfbfbf" stroke="black" points="0,-61 0,-102 162,-102 162,-61 0,-61"/>
<text text-anchor="start" x="8" y="-90" font-family="Helvetica,sans-Serif" font-size="10.00">LittleWeebLibrary.Handlers.</text>
<text text-anchor="start" x="8" y="-79" font-family="Helvetica,sans-Serif" font-size="10.00">AnimeProfileHandler.AnimeLatest</text>
<text text-anchor="middle" x="81" y="-68" font-family="Helvetica,sans-Serif" font-size="10.00">Episode</text>
</g>
<!-- Node66 -->
<g id="node2" class="node"><title>Node66</title>
<g id="a_node2"><a xlink:href="class_little_weeb_library_1_1_handlers_1_1_kitsu_handler.html#a3129d77267b0fb879e3f8f1a8e83494a" target="_top" xlink:title="LittleWeebLibrary.Handlers.\lKitsuHandler.GetEpisode">
<polygon fill="white" stroke="black" points="203,-137.5 203,-167.5 340,-167.5 340,-137.5 203,-137.5"/>
<text text-anchor="start" x="211" y="-155.5" font-family="Helvetica,sans-Serif" font-size="10.00">LittleWeebLibrary.Handlers.</text>
<text text-anchor="middle" x="271.5" y="-144.5" font-family="Helvetica,sans-Serif" font-size="10.00">KitsuHandler.GetEpisode</text>
</a>
</g>
</g>
<!-- Node65&#45;&gt;Node66 -->
<g id="edge1" class="edge"><title>Node65&#45;&gt;Node66</title>
<path fill="none" stroke="midnightblue" d="M130.83,-102.109C151.441,-110.593 175.77,-120.327 198,-128.5 203.133,-130.387 208.495,-132.289 213.877,-134.153"/>
<polygon fill="midnightblue" stroke="midnightblue" points="212.95,-137.534 223.544,-137.453 215.211,-130.91 212.95,-137.534"/>
</g>
<!-- Node67 -->
<g id="node3" class="node"><title>Node67</title>
<g id="a_node3"><a xlink:href="class_little_weeb_library_1_1_handlers_1_1_nibl_handler.html#a149bf3305de6348eaddee4afb92d5095" target="_top" xlink:title="LittleWeebLibrary.Handlers.\lNiblHandler.GetLatestEpisode">
<polygon fill="white" stroke="black" points="198,-88.5 198,-118.5 345,-118.5 345,-88.5 198,-88.5"/>
<text text-anchor="start" x="206" y="-106.5" font-family="Helvetica,sans-Serif" font-size="10.00">LittleWeebLibrary.Handlers.</text>
<text text-anchor="middle" x="271.5" y="-95.5" font-family="Helvetica,sans-Serif" font-size="10.00">NiblHandler.GetLatestEpisode</text>
</a>
</g>
</g>
<!-- Node65&#45;&gt;Node67 -->
<g id="edge2" class="edge"><title>Node65&#45;&gt;Node67</title>
<path fill="none" stroke="midnightblue" d="M162.214,-90.8619C170.621,-91.843 179.179,-92.8419 187.615,-93.8264"/>
<polygon fill="midnightblue" stroke="midnightblue" points="187.486,-97.335 197.824,-95.018 188.297,-90.3822 187.486,-97.335"/>
</g>
<!-- Node68 -->
<g id="node4" class="node"><title>Node68</title>
<g id="a_node4"><a xlink:href="class_little_weeb_library_1_1_handlers_1_1_debug_handler.html#afccb37dfd6b2114af72000c2f4fe4607" target="_top" xlink:title="LittleWeebLibrary.Handlers.\lDebugHandler.TraceMessage">
<polygon fill="white" stroke="black" points="381,-44.5 381,-74.5 525,-74.5 525,-44.5 381,-44.5"/>
<text text-anchor="start" x="389" y="-62.5" font-family="Helvetica,sans-Serif" font-size="10.00">LittleWeebLibrary.Handlers.</text>
<text text-anchor="middle" x="453" y="-51.5" font-family="Helvetica,sans-Serif" font-size="10.00">DebugHandler.TraceMessage</text>
</a>
</g>
</g>
<!-- Node65&#45;&gt;Node68 -->
<g id="edge6" class="edge"><title>Node65&#45;&gt;Node68</title>
<path fill="none" stroke="midnightblue" d="M162.284,-76.7263C223.992,-73.0572 308.877,-68.01 370.81,-64.3275"/>
<polygon fill="midnightblue" stroke="midnightblue" points="371.158,-67.8131 380.932,-63.7256 370.742,-60.8255 371.158,-67.8131"/>
</g>
<!-- Node69 -->
<g id="node5" class="node"><title>Node69</title>
<g id="a_node5"><a xlink:href="class_little_weeb_library_1_1_handlers_1_1_nibl_handler.html#aa5fcae94d3322123b784078727a3db67" target="_top" xlink:title="LittleWeebLibrary.Handlers.\lNiblHandler.SearchNibl">
<polygon fill="white" stroke="black" points="203,-0.5 203,-30.5 340,-30.5 340,-0.5 203,-0.5"/>
<text text-anchor="start" x="211" y="-18.5" font-family="Helvetica,sans-Serif" font-size="10.00">LittleWeebLibrary.Handlers.</text>
<text text-anchor="middle" x="271.5" y="-7.5" font-family="Helvetica,sans-Serif" font-size="10.00">NiblHandler.SearchNibl</text>
</a>
</g>
</g>
<!-- Node65&#45;&gt;Node69 -->
<g id="edge4" class="edge"><title>Node65&#45;&gt;Node69</title>
<path fill="none" stroke="midnightblue" d="M140.609,-60.979C165.306,-52.3318 193.832,-42.3439 217.849,-33.9347"/>
<polygon fill="midnightblue" stroke="midnightblue" points="219.216,-37.1645 227.498,-30.5564 216.903,-30.5577 219.216,-37.1645"/>
</g>
<!-- Node67&#45;&gt;Node68 -->
<g id="edge3" class="edge"><title>Node67&#45;&gt;Node68</title>
<path fill="none" stroke="midnightblue" d="M333.772,-88.4808C348.851,-84.7844 365.127,-80.7947 380.638,-76.9926"/>
<polygon fill="midnightblue" stroke="midnightblue" points="381.821,-80.3064 390.7,-74.5262 380.154,-73.5077 381.821,-80.3064"/>
</g>
<!-- Node69&#45;&gt;Node68 -->
<g id="edge5" class="edge"><title>Node69&#45;&gt;Node68</title>
<path fill="none" stroke="midnightblue" d="M333.772,-30.5192C348.851,-34.2156 365.127,-38.2053 380.638,-42.0074"/>
<polygon fill="midnightblue" stroke="midnightblue" points="380.154,-45.4923 390.7,-44.4738 381.821,-38.6936 380.154,-45.4923"/>
</g>
</g>
</svg>
        <g id="navigator" transform="translate(0 0)" fill="#404254">
                <rect fill="#f2f5e9" fill-opacity="0.5" stroke="#606060" stroke-width=".5" x="0" y="0" width="60" height="60"/>
                <use id="zoomplus" xlink:href="#zoomPlus" x="17" y="9" onmousedown="handleZoom(evt,'in')"/>
                <use id="zoomminus" xlink:href="#zoomMin" x="42" y="9" onmousedown="handleZoom(evt,'out')"/>
                <use id="reset" xlink:href="#resetDef" x="30" y="36" onmousedown="handleReset()"/>
                <g id="arrowUp" xlink:href="#dirArrow" transform="translate(30 24)" onmousedown="handlePan(0,-1)">
                  <use xlink:href="#rim" fill="#404040">
                        <set attributeName="fill" to="#808080" begin="arrowUp.mouseover" end="arrowUp.mouseout"/>
                  </use>
                  <path fill="none" stroke="white" stroke-width="1.5" d="M0,-3.0v7 M-2.5,-0.5L0,-3.0L2.5,-0.5"/>
                </g>
                <g id="arrowRight" xlink:href="#dirArrow" transform="rotate(90) translate(36 -43)" onmousedown="handlePan(1,0)">
                  <use xlink:href="#rim" fill="#404040">
                        <set attributeName="fill" to="#808080" begin="arrowRight.mouseover" end="arrowRight.mouseout"/>
                  </use>
                  <path fill="none" stroke="white" stroke-width="1.5" d="M0,-3.0v7 M-2.5,-0.5L0,-3.0L2.5,-0.5"/>
                </g>
                <g id="arrowDown" xlink:href="#dirArrow" transform="rotate(180) translate(-30 -48)" onmousedown="handlePan(0,1)">
                  <use xlink:href="#rim" fill="#404040">
                        <set attributeName="fill" to="#808080" begin="arrowDown.mouseover" end="arrowDown.mouseout"/>
                  </use>
                  <path fill="none" stroke="white" stroke-width="1.5" d="M0,-3.0v7 M-2.5,-0.5L0,-3.0L2.5,-0.5"/>
                </g>
                <g id="arrowLeft" xlink:href="#dirArrow" transform="rotate(270) translate(-36 17)" onmousedown="handlePan(-1,0)">
                  <use xlink:href="#rim" fill="#404040">
                        <set attributeName="fill" to="#808080" begin="arrowLeft.mouseover" end="arrowLeft.mouseout"/>
                  </use>
                  <path fill="none" stroke="white" stroke-width="1.5" d="M0,-3.0v7 M-2.5,-0.5L0,-3.0L2.5,-0.5"/>
                </g>
        </g>
        <svg viewBox="0 0 15 15" width="100%" height="30px" preserveAspectRatio="xMaxYMin meet">
         <g id="arrow_out" transform="scale(0.3 0.3)">
          <a xlink:href="class_little_weeb_library_1_1_handlers_1_1_anime_profile_handler_a2f28ad03d4dfe8d90c0392da8af39651_cgraph_org.svg" target="_base">
           <rect id="button" ry="5" rx="5" y="6" x="6" height="38" width="38"
                fill="#f2f5e9" fill-opacity="0.5" stroke="#606060" stroke-width="1.0"/>
           <path id="arrow"
             d="M 11.500037,31.436501 C 11.940474,20.09759 22.043105,11.32322 32.158766,21.979434 L 37.068811,17.246167 C 37.068811,17.246167 37.088388,32 37.088388,32 L 22.160133,31.978069 C 22.160133,31.978069 26.997745,27.140456 26.997745,27.140456 C 18.528582,18.264221 13.291696,25.230495 11.500037,31.436501 z"
             style="fill:#404040;"/>
          </a>
         </g>
        </svg>
</svg>
