<?xml version="1.0" encoding="UTF-8" standalone="no"?>
<!DOCTYPE svg PUBLIC "-//W3C//DTD SVG 1.1//EN"
 "http://www.w3.org/Graphics/SVG/1.1/DTD/svg11.dtd">
<!-- Generated by graphviz version 2.38.0 (20140413.2041)
 -->
<!-- Title: LittleWeebLibrary.Services.IrcWebSocketService.SetLittleWeebSettings Pages: 1 -->
<svg width="362pt" height="88pt"
 viewBox="0.00 0.00 362.00 88.00" xmlns="http://www.w3.org/2000/svg" xmlns:xlink="http://www.w3.org/1999/xlink">
<g id="graph0" class="graph" transform="scale(1 1) rotate(0) translate(4 84)">
<title>LittleWeebLibrary.Services.IrcWebSocketService.SetLittleWeebSettings</title>
<polygon fill="white" stroke="none" points="-4,4 -4,-84 358,-84 358,4 -4,4"/>
<!-- Node73 -->
<g id="node1" class="node"><title>Node73</title>
<polygon fill="#bfbfbf" stroke="black" points="0,-19 0,-60 174,-60 174,-19 0,-19"/>
<text text-anchor="start" x="8" y="-48" font-family="Helvetica,sans-Serif" font-size="10.00">LittleWeebLibrary.Services.</text>
<text text-anchor="start" x="8" y="-37" font-family="Helvetica,sans-Serif" font-size="10.00">IrcWebSocketService.SetLittleWeeb</text>
<text text-anchor="middle" x="87" y="-26" font-family="Helvetica,sans-Serif" font-size="10.00">Settings</text>
</g>
<!-- Node74 -->
<g id="node2" class="node"><title>Node74</title>
<g id="a_node2"><a xlink:href="class_little_weeb_library_1_1_settings_1_1_little_weeb_settings.html#a5a5b722dd8e117be810022882795b6ae" target="_top" xlink:title="LittleWeebLibrary.Settings.\lLittleWeebSettings.ToString">
<polygon fill="white" stroke="black" points="213,-49.5 213,-79.5 351,-79.5 351,-49.5 213,-49.5"/>
<text text-anchor="start" x="221" y="-67.5" font-family="Helvetica,sans-Serif" font-size="10.00">LittleWeebLibrary.Settings.</text>
<text text-anchor="middle" x="282" y="-56.5" font-family="Helvetica,sans-Serif" font-size="10.00">LittleWeebSettings.ToString</text>
</a>
</g>
</g>
<!-- Node73&#45;&gt;Node74 -->
<g id="edge1" class="edge"><title>Node73&#45;&gt;Node74</title>
<path fill="none" stroke="midnightblue" d="M174.058,-50.6474C183.581,-51.8809 193.241,-53.1322 202.661,-54.3525"/>
<polygon fill="midnightblue" stroke="midnightblue" points="202.405,-57.8484 212.771,-55.6621 203.304,-50.9064 202.405,-57.8484"/>
</g>
<!-- Node75 -->
<g id="node3" class="node"><title>Node75</title>
<g id="a_node3"><a xlink:href="class_little_weeb_library_1_1_handlers_1_1_debug_handler.html#afccb37dfd6b2114af72000c2f4fe4607" target="_top" xlink:title="LittleWeebLibrary.Handlers.\lDebugHandler.TraceMessage">
<polygon fill="white" stroke="black" points="210,-0.5 210,-30.5 354,-30.5 354,-0.5 210,-0.5"/>
<text text-anchor="start" x="218" y="-18.5" font-family="Helvetica,sans-Serif" font-size="10.00">LittleWeebLibrary.Handlers.</text>
<text text-anchor="middle" x="282" y="-7.5" font-family="Helvetica,sans-Serif" font-size="10.00">DebugHandler.TraceMessage</text>
</a>
</g>
</g>
<!-- Node73&#45;&gt;Node75 -->
<g id="edge2" class="edge"><title>Node73&#45;&gt;Node75</title>
<path fill="none" stroke="midnightblue" d="M174.058,-28.7985C182.655,-27.7294 191.365,-26.6463 199.909,-25.5838"/>
<polygon fill="midnightblue" stroke="midnightblue" points="200.355,-29.0555 209.847,-24.3481 199.491,-22.109 200.355,-29.0555"/>
</g>
</g>
</svg>
