<?xml version="1.0" encoding="UTF-8" standalone="no"?>
<!DOCTYPE svg PUBLIC "-//W3C//DTD SVG 1.1//EN"
 "http://www.w3.org/Graphics/SVG/1.1/DTD/svg11.dtd">
<!-- Generated by graphviz version 2.38.0 (20140413.2041)
 -->
<!-- Title: LittleWeebLibrary.Controllers.FileWebSocketController.OnWebSocketEvent Pages: 1 -->
<!--zoomable 828 -->
<svg id="main" version="1.1" xmlns="http://www.w3.org/2000/svg" xmlns:xlink="http://www.w3.org/1999/xlink" xml:space="preserve" onload="init(evt)">
<style type="text/css"><![CDATA[
.edge:hover path { stroke: red; }
.edge:hover polygon { stroke: red; fill: red; }
]]></style>
<script type="text/javascript"><![CDATA[
var edges = document.getElementsByTagName('g');
if (edges && edges.length) {
  for (var i=0;i<edges.length;i++) {
    if (edges[i].id.substr(0,4)=='edge') {
      edges[i].setAttribute('class','edge');
    }
  }
}
]]></script>
        <defs>
                <circle id="rim" cx="0" cy="0" r="7"/>
                <circle id="rim2" cx="0" cy="0" r="3.5"/>
                <g id="zoomPlus">
                        <use xlink:href="#rim" fill="#404040">
                                <set attributeName="fill" to="#808080" begin="zoomplus.mouseover" end="zoomplus.mouseout"/>
                        </use>
                        <path d="M-4,0h8M0,-4v8" fill="none" stroke="white" stroke-width="1.5" pointer-events="none"/>
                </g>
                <g id="zoomMin">
                        <use xlink:href="#rim" fill="#404040">
                                <set attributeName="fill" to="#808080" begin="zoomminus.mouseover" end="zoomminus.mouseout"/>
                        </use>
                        <path d="M-4,0h8" fill="none" stroke="white" stroke-width="1.5" pointer-events="none"/>
                </g>
                <g id="dirArrow">
                        <path fill="none" stroke="white" stroke-width="1.5" d="M0,-3.0v7 M-2.5,-0.5L0,-3.0L2.5,-0.5"/>
                </g>
               <g id="resetDef">
                       <use xlink:href="#rim2" fill="#404040">
                               <set attributeName="fill" to="#808080" begin="reset.mouseover" end="reset.mouseout"/>
                       </use>
               </g>
        </defs>

<script type="text/javascript">
var viewWidth = 1058;
var viewHeight = 828;
var sectionId = 'dynsection-3';
</script>
<script xlink:href="svgpan.js"/>
<svg id="graph" class="graph">
<g id="viewport">
<title>LittleWeebLibrary.Controllers.FileWebSocketController.OnWebSocketEvent</title>
<polygon fill="white" stroke="none" points="-4,4 -4,-824.439 1054,-824.439 1054,4 -4,4"/>
<!-- Node3 -->
<g id="node1" class="node"><title>Node3</title>
<polygon fill="#bfbfbf" stroke="black" points="0,-296.939 0,-326.939 215,-326.939 215,-296.939 0,-296.939"/>
<text text-anchor="start" x="8" y="-314.939" font-family="Helvetica,sans-Serif" font-size="10.00">LittleWeebLibrary.Controllers.</text>
<text text-anchor="middle" x="107.5" y="-303.939" font-family="Helvetica,sans-Serif" font-size="10.00">FileWebSocketController.OnWebSocketEvent</text>
</g>
<!-- Node4 -->
<g id="node2" class="node"><title>Node4</title>
<g id="a_node2"><a xlink:href="class_little_weeb_library_1_1_services_1_1_file_web_socket_service.html#ab1375e8e82a50dfa06d91bebe988d133" target="_top" xlink:title="LittleWeebLibrary.Services.\lFileWebSocketService.DeleteFile">
<polygon fill="white" stroke="black" points="255.5,-410.939 255.5,-440.939 416.5,-440.939 416.5,-410.939 255.5,-410.939"/>
<text text-anchor="start" x="263.5" y="-428.939" font-family="Helvetica,sans-Serif" font-size="10.00">LittleWeebLibrary.Services.</text>
<text text-anchor="middle" x="336" y="-417.939" font-family="Helvetica,sans-Serif" font-size="10.00">FileWebSocketService.DeleteFile</text>
</a>
</g>
</g>
<!-- Node3&#45;&gt;Node4 -->
<g id="edge1" class="edge"><title>Node3&#45;&gt;Node4</title>
<path fill="none" stroke="midnightblue" d="M130.971,-327.001C158.453,-344.99 206.785,-375.24 251,-395.939 259.639,-399.984 268.985,-403.819 278.196,-407.311"/>
<polygon fill="midnightblue" stroke="midnightblue" points="277.119,-410.644 287.712,-410.821 279.541,-404.076 277.119,-410.644"/>
</g>
<!-- Node5 -->
<g id="node3" class="node"><title>Node5</title>
<g id="a_node3"><a xlink:href="class_little_weeb_library_1_1_handlers_1_1_debug_handler.html#afccb37dfd6b2114af72000c2f4fe4607" target="_top" xlink:title="LittleWeebLibrary.Handlers.\lDebugHandler.TraceMessage">
<polygon fill="white" stroke="black" points="885,-448.939 885,-478.939 1029,-478.939 1029,-448.939 885,-448.939"/>
<text text-anchor="start" x="893" y="-466.939" font-family="Helvetica,sans-Serif" font-size="10.00">LittleWeebLibrary.Handlers.</text>
<text text-anchor="middle" x="957" y="-455.939" font-family="Helvetica,sans-Serif" font-size="10.00">DebugHandler.TraceMessage</text>
</a>
</g>
</g>
<!-- Node3&#45;&gt;Node5 -->
<g id="edge41" class="edge"><title>Node3&#45;&gt;Node5</title>
<path fill="none" stroke="midnightblue" d="M192.47,-326.999C355.622,-356.261 713.533,-420.453 874.609,-449.342"/>
<polygon fill="midnightblue" stroke="midnightblue" points="874.469,-452.872 884.93,-451.193 875.705,-445.982 874.469,-452.872"/>
</g>
<!-- Node17 -->
<g id="node15" class="node"><title>Node17</title>
<g id="a_node15"><a xlink:href="class_little_weeb_library_1_1_models_1_1_json_error.html#ad7d5522c90119111d2e929f39e7f6d3c" target="_top" xlink:title="LittleWeebLibrary.Models.\lJsonError.ToString">
<polygon fill="white" stroke="black" points="681.5,-302.939 681.5,-332.939 811.5,-332.939 811.5,-302.939 681.5,-302.939"/>
<text text-anchor="start" x="689.5" y="-320.939" font-family="Helvetica,sans-Serif" font-size="10.00">LittleWeebLibrary.Models.</text>
<text text-anchor="middle" x="746.5" y="-309.939" font-family="Helvetica,sans-Serif" font-size="10.00">JsonError.ToString</text>
</a>
</g>
</g>
<!-- Node3&#45;&gt;Node17 -->
<g id="edge40" class="edge"><title>Node3&#45;&gt;Node17</title>
<path fill="none" stroke="midnightblue" d="M215.119,-312.943C344.258,-314.16 558.448,-316.177 671.059,-317.238"/>
<polygon fill="midnightblue" stroke="midnightblue" points="671.27,-320.74 681.303,-317.334 671.336,-313.74 671.27,-320.74"/>
</g>
<!-- Node18 -->
<g id="node16" class="node"><title>Node18</title>
<g id="a_node16"><a xlink:href="class_little_weeb_library_1_1_models_1_1_json_error.html#a0e3e7dd2e2990404b7f0461742b23440" target="_top" xlink:title="LittleWeebLibrary.Models.\lJsonError.ToJson">
<polygon fill="white" stroke="black" points="681.5,-66.9391 681.5,-96.9391 811.5,-96.9391 811.5,-66.9391 681.5,-66.9391"/>
<text text-anchor="start" x="689.5" y="-84.9391" font-family="Helvetica,sans-Serif" font-size="10.00">LittleWeebLibrary.Models.</text>
<text text-anchor="middle" x="746.5" y="-73.9391" font-family="Helvetica,sans-Serif" font-size="10.00">JsonError.ToJson</text>
</a>
</g>
</g>
<!-- Node3&#45;&gt;Node18 -->
<g id="edge38" class="edge"><title>Node3&#45;&gt;Node18</title>
<path fill="none" stroke="midnightblue" d="M123.306,-296.712C168.242,-251.808 309.063,-120.598 457,-80.9391 527.886,-61.9361 612.139,-65.0137 671.235,-71.1212"/>
<polygon fill="midnightblue" stroke="midnightblue" points="670.911,-74.6066 681.231,-72.2079 671.668,-67.6476 670.911,-74.6066"/>
</g>
<!-- Node19 -->
<g id="node17" class="node"><title>Node19</title>
<g id="a_node17"><a xlink:href="class_little_weeb_library_1_1_handlers_1_1_web_socket_handler.html#a1de289d54d665a32c93478c68d3e6ad0" target="_top" xlink:title="LittleWeebLibrary.Handlers.\lWebSocketHandler.SendMessage">
<polygon fill="white" stroke="black" points="460,-454.939 460,-484.939 626,-484.939 626,-454.939 460,-454.939"/>
<text text-anchor="start" x="468" y="-472.939" font-family="Helvetica,sans-Serif" font-size="10.00">LittleWeebLibrary.Handlers.</text>
<text text-anchor="middle" x="543" y="-461.939" font-family="Helvetica,sans-Serif" font-size="10.00">WebSocketHandler.SendMessage</text>
</a>
</g>
</g>
<!-- Node3&#45;&gt;Node19 -->
<g id="edge37" class="edge"><title>Node3&#45;&gt;Node19</title>
<path fill="none" stroke="midnightblue" d="M118.431,-327.183C138.982,-357.22 189.44,-423.516 251,-450.939 313.298,-478.691 390.608,-482.498 449.881,-479.875"/>
<polygon fill="midnightblue" stroke="midnightblue" points="450.172,-483.365 459.981,-479.359 449.815,-476.374 450.172,-483.365"/>
</g>
<!-- Node20 -->
<g id="node18" class="node"><title>Node20</title>
<g id="a_node18"><a xlink:href="class_little_weeb_library_1_1_services_1_1_file_web_socket_service.html#ae140d076e6f64585e7b71bb51545e1bb" target="_top" xlink:title="LittleWeebLibrary.Services.\lFileWebSocketService.OpenFile">
<polygon fill="white" stroke="black" points="257.5,-209.939 257.5,-239.939 414.5,-239.939 414.5,-209.939 257.5,-209.939"/>
<text text-anchor="start" x="265.5" y="-227.939" font-family="Helvetica,sans-Serif" font-size="10.00">LittleWeebLibrary.Services.</text>
<text text-anchor="middle" x="336" y="-216.939" font-family="Helvetica,sans-Serif" font-size="10.00">FileWebSocketService.OpenFile</text>
</a>
</g>
</g>
<!-- Node3&#45;&gt;Node20 -->
<g id="edge26" class="edge"><title>Node3&#45;&gt;Node20</title>
<path fill="none" stroke="midnightblue" d="M147.695,-296.884C186.223,-282.085 245.116,-259.464 286.557,-243.546"/>
<polygon fill="midnightblue" stroke="midnightblue" points="287.826,-246.808 295.906,-239.955 285.316,-240.274 287.826,-246.808"/>
</g>
<!-- Node23 -->
<g id="node21" class="node"><title>Node23</title>
<g id="a_node21"><a xlink:href="class_little_weeb_library_1_1_event_arguments_1_1_web_socket_event_args.html#acf402c2f7fd4ddbf175fea7f921ea879" target="_top" xlink:title="LittleWeebLibrary.EventArguments.\lWebSocketEventArgs.ToString">
<polygon fill="white" stroke="black" points="251,-1.93914 251,-31.9391 421,-31.9391 421,-1.93914 251,-1.93914"/>
<text text-anchor="start" x="259" y="-19.9391" font-family="Helvetica,sans-Serif" font-size="10.00">LittleWeebLibrary.EventArguments.</text>
<text text-anchor="middle" x="336" y="-8.93914" font-family="Helvetica,sans-Serif" font-size="10.00">WebSocketEventArgs.ToString</text>
</a>
</g>
</g>
<!-- Node3&#45;&gt;Node23 -->
<g id="edge39" class="edge"><title>Node3&#45;&gt;Node23</title>
<path fill="none" stroke="midnightblue" d="M112.415,-296.915C124.814,-252.228 167.429,-118.803 251,-46.9391 255.513,-43.0583 260.565,-39.6665 265.891,-36.7044"/>
<polygon fill="midnightblue" stroke="midnightblue" points="267.69,-39.718 275.068,-32.1146 264.559,-33.4573 267.69,-39.718"/>
</g>
<!-- Node4&#45;&gt;Node5 -->
<g id="edge2" class="edge"><title>Node4&#45;&gt;Node5</title>
<path fill="none" stroke="midnightblue" d="M416.656,-430.829C534.843,-438.085 755.47,-451.629 874.635,-458.944"/>
<polygon fill="midnightblue" stroke="midnightblue" points="874.595,-462.448 884.791,-459.568 875.024,-455.461 874.595,-462.448"/>
</g>
<!-- Node6 -->
<g id="node4" class="node"><title>Node6</title>
<g id="a_node4"><a xlink:href="class_little_weeb_library_1_1_handlers_1_1_download_handler.html#aac22841386d098daef366cbe05262187" target="_top" xlink:title="LittleWeebLibrary.Handlers.\lDownloadHandler.RemoveDownload">
<polygon fill="white" stroke="black" points="457.5,-517.939 457.5,-547.939 628.5,-547.939 628.5,-517.939 457.5,-517.939"/>
<text text-anchor="start" x="465.5" y="-535.939" font-family="Helvetica,sans-Serif" font-size="10.00">LittleWeebLibrary.Handlers.</text>
<text text-anchor="middle" x="543" y="-524.939" font-family="Helvetica,sans-Serif" font-size="10.00">DownloadHandler.RemoveDownload</text>
</a>
</g>
</g>
<!-- Node4&#45;&gt;Node6 -->
<g id="edge3" class="edge"><title>Node4&#45;&gt;Node6</title>
<path fill="none" stroke="midnightblue" d="M361.418,-440.956C385.386,-455.461 423.166,-477.705 457,-494.939 469.749,-501.433 483.844,-507.98 496.83,-513.766"/>
<polygon fill="midnightblue" stroke="midnightblue" points="495.492,-517.001 506.054,-517.833 498.316,-510.596 495.492,-517.001"/>
</g>
<!-- Node9 -->
<g id="node7" class="node"><title>Node9</title>
<g id="a_node7"><a xlink:href="class_little_weeb_library_1_1_handlers_1_1_file_history_handler.html#a3b3f0cdedee405d607feff81c2de085d" target="_top" xlink:title="LittleWeebLibrary.Handlers.\lFileHistoryHandler.RemoveFileFrom\lFileHistory">
<polygon fill="white" stroke="black" points="457,-667.439 457,-708.439 629,-708.439 629,-667.439 457,-667.439"/>
<text text-anchor="start" x="465" y="-696.439" font-family="Helvetica,sans-Serif" font-size="10.00">LittleWeebLibrary.Handlers.</text>
<text text-anchor="start" x="465" y="-685.439" font-family="Helvetica,sans-Serif" font-size="10.00">FileHistoryHandler.RemoveFileFrom</text>
<text text-anchor="middle" x="543" y="-674.439" font-family="Helvetica,sans-Serif" font-size="10.00">FileHistory</text>
</a>
</g>
</g>
<!-- Node4&#45;&gt;Node9 -->
<g id="edge7" class="edge"><title>Node4&#45;&gt;Node9</title>
<path fill="none" stroke="midnightblue" d="M348.908,-441.158C382.152,-483.645 476.355,-604.041 519.688,-659.423"/>
<polygon fill="midnightblue" stroke="midnightblue" points="517.025,-661.7 525.944,-667.419 522.538,-657.386 517.025,-661.7"/>
</g>
<!-- Node15 -->
<g id="node13" class="node"><title>Node15</title>
<g id="a_node13"><a xlink:href="class_little_weeb_library_1_1_handlers_1_1_file_handler.html#ae1b342c4d821543a0a3400e4e0c95903" target="_top" xlink:title="LittleWeebLibrary.Handlers.\lFileHandler.DeleteFile">
<polygon fill="white" stroke="black" points="474.5,-214.939 474.5,-244.939 611.5,-244.939 611.5,-214.939 474.5,-214.939"/>
<text text-anchor="start" x="482.5" y="-232.939" font-family="Helvetica,sans-Serif" font-size="10.00">LittleWeebLibrary.Handlers.</text>
<text text-anchor="middle" x="543" y="-221.939" font-family="Helvetica,sans-Serif" font-size="10.00">FileHandler.DeleteFile</text>
</a>
</g>
</g>
<!-- Node4&#45;&gt;Node15 -->
<g id="edge17" class="edge"><title>Node4&#45;&gt;Node15</title>
<path fill="none" stroke="midnightblue" d="M352.746,-410.885C388.669,-376.539 476.812,-292.265 518.901,-252.024"/>
<polygon fill="midnightblue" stroke="midnightblue" points="521.391,-254.485 526.201,-245.045 516.554,-249.426 521.391,-254.485"/>
</g>
<!-- Node4&#45;&gt;Node17 -->
<g id="edge24" class="edge"><title>Node4&#45;&gt;Node17</title>
<path fill="none" stroke="midnightblue" d="M393.8,-410.922C468.434,-391.19 599.31,-356.589 678.638,-335.616"/>
<polygon fill="midnightblue" stroke="midnightblue" points="679.752,-338.942 688.525,-333.002 677.963,-332.175 679.752,-338.942"/>
</g>
<!-- Node4&#45;&gt;Node18 -->
<g id="edge25" class="edge"><title>Node4&#45;&gt;Node18</title>
<path fill="none" stroke="midnightblue" d="M344.806,-410.489C360.131,-379.948 394.926,-309.556 421,-248.939 438.513,-208.224 423.372,-184.811 457,-155.939 516.399,-104.941 553.315,-137.957 629,-117.939 632.181,-117.098 659.755,-108.581 687.276,-100.043"/>
<polygon fill="midnightblue" stroke="midnightblue" points="688.455,-103.342 696.969,-97.0352 686.38,-96.6568 688.455,-103.342"/>
</g>
<!-- Node4&#45;&gt;Node19 -->
<g id="edge22" class="edge"><title>Node4&#45;&gt;Node19</title>
<path fill="none" stroke="midnightblue" d="M406.976,-440.958C424.69,-444.76 443.85,-448.873 462.016,-452.772"/>
<polygon fill="midnightblue" stroke="midnightblue" points="461.48,-456.236 471.992,-454.913 462.949,-449.392 461.48,-456.236"/>
</g>
<!-- Node6&#45;&gt;Node5 -->
<g id="edge4" class="edge"><title>Node6&#45;&gt;Node5</title>
<path fill="none" stroke="midnightblue" d="M628.867,-518.726C700.938,-506.656 803.689,-489.448 874.717,-477.552"/>
<polygon fill="midnightblue" stroke="midnightblue" points="875.675,-480.94 884.959,-475.837 874.519,-474.037 875.675,-480.94"/>
</g>
<!-- Node7 -->
<g id="node5" class="node"><title>Node7</title>
<g id="a_node5"><a xlink:href="class_little_weeb_library_1_1_models_1_1_json_error.html#a0623b835bb68d5d5e1f591df6a09dd81" target="_top" xlink:title="LittleWeebLibrary.Models.\lJsonError.ToJObject">
<polygon fill="white" stroke="black" points="681.5,-530.939 681.5,-560.939 811.5,-560.939 811.5,-530.939 681.5,-530.939"/>
<text text-anchor="start" x="689.5" y="-548.939" font-family="Helvetica,sans-Serif" font-size="10.00">LittleWeebLibrary.Models.</text>
<text text-anchor="middle" x="746.5" y="-537.939" font-family="Helvetica,sans-Serif" font-size="10.00">JsonError.ToJObject</text>
</a>
</g>
</g>
<!-- Node6&#45;&gt;Node7 -->
<g id="edge5" class="edge"><title>Node6&#45;&gt;Node7</title>
<path fill="none" stroke="midnightblue" d="M628.578,-538.396C642.791,-539.313 657.445,-540.258 671.369,-541.156"/>
<polygon fill="midnightblue" stroke="midnightblue" points="671.157,-544.65 681.361,-541.801 671.607,-537.665 671.157,-544.65"/>
</g>
<!-- Node8 -->
<g id="node6" class="node"><title>Node8</title>
<g id="a_node6"><a xlink:href="class_little_weeb_library_1_1_models_1_1_json_download_queue.html#a1d77053fc493aa88857bcafd6fea4bf7" target="_top" xlink:title="LittleWeebLibrary.Models.\lJsonDownloadQueue.ToJObject">
<polygon fill="white" stroke="black" points="669.5,-579.939 669.5,-609.939 823.5,-609.939 823.5,-579.939 669.5,-579.939"/>
<text text-anchor="start" x="677.5" y="-597.939" font-family="Helvetica,sans-Serif" font-size="10.00">LittleWeebLibrary.Models.</text>
<text text-anchor="middle" x="746.5" y="-586.939" font-family="Helvetica,sans-Serif" font-size="10.00">JsonDownloadQueue.ToJObject</text>
</a>
</g>
</g>
<!-- Node6&#45;&gt;Node8 -->
<g id="edge6" class="edge"><title>Node6&#45;&gt;Node8</title>
<path fill="none" stroke="midnightblue" d="M591.36,-547.988C613.677,-555.034 640.682,-563.496 665,-570.939 671.371,-572.889 678.032,-574.908 684.677,-576.908"/>
<polygon fill="midnightblue" stroke="midnightblue" points="683.78,-580.293 694.364,-579.815 685.792,-573.588 683.78,-580.293"/>
</g>
<!-- Node9&#45;&gt;Node5 -->
<g id="edge8" class="edge"><title>Node9&#45;&gt;Node5</title>
<path fill="none" stroke="midnightblue" d="M629.213,-701.642C688.996,-706.849 768.546,-704.555 828,-668.939 896.811,-627.718 934.231,-533.74 948.771,-488.788"/>
<polygon fill="midnightblue" stroke="midnightblue" points="952.195,-489.563 951.831,-478.974 945.512,-487.479 952.195,-489.563"/>
</g>
<!-- Node10 -->
<g id="node8" class="node"><title>Node10</title>
<g id="a_node8"><a xlink:href="class_little_weeb_library_1_1_handlers_1_1_data_base_handler.html#a7f61583807f99b7838a33d2db0f7ca68" target="_top" xlink:title="LittleWeebLibrary.Handlers.\lDataBaseHandler.GetJObject">
<polygon fill="white" stroke="black" points="674.5,-765.939 674.5,-795.939 818.5,-795.939 818.5,-765.939 674.5,-765.939"/>
<text text-anchor="start" x="682.5" y="-783.939" font-family="Helvetica,sans-Serif" font-size="10.00">LittleWeebLibrary.Handlers.</text>
<text text-anchor="middle" x="746.5" y="-772.939" font-family="Helvetica,sans-Serif" font-size="10.00">DataBaseHandler.GetJObject</text>
</a>
</g>
</g>
<!-- Node9&#45;&gt;Node10 -->
<g id="edge9" class="edge"><title>Node9&#45;&gt;Node10</title>
<path fill="none" stroke="midnightblue" d="M575.328,-708.457C599.174,-723.409 633.203,-743.345 665,-756.939 669.658,-758.93 674.533,-760.823 679.482,-762.607"/>
<polygon fill="midnightblue" stroke="midnightblue" points="678.457,-765.956 689.051,-765.902 680.736,-759.337 678.457,-765.956"/>
</g>
<!-- Node13 -->
<g id="node11" class="node"><title>Node13</title>
<g id="a_node11"><a xlink:href="class_little_weeb_library_1_1_handlers_1_1_data_base_handler.html#a9b2223ff71f688234f95d247ea3b5739" target="_top" xlink:title="LittleWeebLibrary.Handlers.\lDataBaseHandler.UpdateJObject">
<polygon fill="white" stroke="black" points="667,-628.939 667,-658.939 826,-658.939 826,-628.939 667,-628.939"/>
<text text-anchor="start" x="675" y="-646.939" font-family="Helvetica,sans-Serif" font-size="10.00">LittleWeebLibrary.Handlers.</text>
<text text-anchor="middle" x="746.5" y="-635.939" font-family="Helvetica,sans-Serif" font-size="10.00">DataBaseHandler.UpdateJObject</text>
</a>
</g>
</g>
<!-- Node9&#45;&gt;Node13 -->
<g id="edge13" class="edge"><title>Node9&#45;&gt;Node13</title>
<path fill="none" stroke="midnightblue" d="M629.162,-669.343C641.497,-666.649 654.152,-663.886 666.363,-661.22"/>
<polygon fill="midnightblue" stroke="midnightblue" points="667.475,-664.559 676.498,-659.007 665.982,-657.721 667.475,-664.559"/>
</g>
<!-- Node14 -->
<g id="node12" class="node"><title>Node14</title>
<g id="a_node12"><a xlink:href="class_little_weeb_library_1_1_handlers_1_1_data_base_handler.html#a7821535a003c7675c09ba846bd9502ca" target="_top" xlink:title="LittleWeebLibrary.Handlers.\lDataBaseHandler.RemoveJObject">
<polygon fill="white" stroke="black" points="665,-716.939 665,-746.939 828,-746.939 828,-716.939 665,-716.939"/>
<text text-anchor="start" x="673" y="-734.939" font-family="Helvetica,sans-Serif" font-size="10.00">LittleWeebLibrary.Handlers.</text>
<text text-anchor="middle" x="746.5" y="-723.939" font-family="Helvetica,sans-Serif" font-size="10.00">DataBaseHandler.RemoveJObject</text>
</a>
</g>
</g>
<!-- Node9&#45;&gt;Node14 -->
<g id="edge15" class="edge"><title>Node9&#45;&gt;Node14</title>
<path fill="none" stroke="midnightblue" d="M629.162,-706.535C641.497,-709.229 654.152,-711.992 666.363,-714.659"/>
<polygon fill="midnightblue" stroke="midnightblue" points="665.982,-718.158 676.498,-716.872 667.475,-711.319 665.982,-718.158"/>
</g>
<!-- Node10&#45;&gt;Node5 -->
<g id="edge10" class="edge"><title>Node10&#45;&gt;Node5</title>
<path fill="none" stroke="midnightblue" d="M814.96,-765.937C819.65,-763.393 824.068,-760.418 828,-756.939 911.213,-683.315 942.551,-545.706 952.264,-489.173"/>
<polygon fill="midnightblue" stroke="midnightblue" points="955.769,-489.424 953.927,-478.991 948.861,-488.296 955.769,-489.424"/>
</g>
<!-- Node11 -->
<g id="node9" class="node"><title>Node11</title>
<g id="a_node9"><a xlink:href="class_little_weeb_library_1_1_static_classes_1_1_utility_methods.html#a7b5de7a3ecc749b655fc3ed2af55360b" target="_top" xlink:title="LittleWeebLibrary.Static\lClasses.UtilityMethods.ReadBinaryFile">
<polygon fill="white" stroke="black" points="864,-789.939 864,-819.939 1050,-819.939 1050,-789.939 864,-789.939"/>
<text text-anchor="start" x="872" y="-807.939" font-family="Helvetica,sans-Serif" font-size="10.00">LittleWeebLibrary.Static</text>
<text text-anchor="middle" x="957" y="-796.939" font-family="Helvetica,sans-Serif" font-size="10.00">Classes.UtilityMethods.ReadBinaryFile</text>
</a>
</g>
</g>
<!-- Node10&#45;&gt;Node11 -->
<g id="edge11" class="edge"><title>Node10&#45;&gt;Node11</title>
<path fill="none" stroke="midnightblue" d="M818.671,-789.131C830.007,-790.436 841.925,-791.808 853.808,-793.176"/>
<polygon fill="midnightblue" stroke="midnightblue" points="853.433,-796.656 863.768,-794.322 854.233,-789.702 853.433,-796.656"/>
</g>
<!-- Node12 -->
<g id="node10" class="node"><title>Node12</title>
<g id="a_node10"><a xlink:href="class_little_weeb_library_1_1_static_classes_1_1_utility_methods.html#a0a86ee01a3bf201bd9cc9b2552e54976" target="_top" xlink:title="LittleWeebLibrary.Static\lClasses.UtilityMethods.Unzip">
<polygon fill="white" stroke="black" points="884.5,-740.939 884.5,-770.939 1029.5,-770.939 1029.5,-740.939 884.5,-740.939"/>
<text text-anchor="start" x="892.5" y="-758.939" font-family="Helvetica,sans-Serif" font-size="10.00">LittleWeebLibrary.Static</text>
<text text-anchor="middle" x="957" y="-747.939" font-family="Helvetica,sans-Serif" font-size="10.00">Classes.UtilityMethods.Unzip</text>
</a>
</g>
</g>
<!-- Node10&#45;&gt;Node12 -->
<g id="edge12" class="edge"><title>Node10&#45;&gt;Node12</title>
<path fill="none" stroke="midnightblue" d="M818.671,-772.405C836.587,-770.257 855.958,-767.935 874.345,-765.73"/>
<polygon fill="midnightblue" stroke="midnightblue" points="874.93,-769.185 884.442,-764.519 874.097,-762.235 874.93,-769.185"/>
</g>
<!-- Node13&#45;&gt;Node5 -->
<g id="edge14" class="edge"><title>Node13&#45;&gt;Node5</title>
<path fill="none" stroke="midnightblue" d="M811.517,-628.774C817.305,-626.254 822.899,-623.33 828,-619.939 880.268,-585.191 922.068,-522.676 942.453,-488.276"/>
<polygon fill="midnightblue" stroke="midnightblue" points="945.632,-489.771 947.625,-479.366 939.578,-486.257 945.632,-489.771"/>
</g>
<!-- Node14&#45;&gt;Node5 -->
<g id="edge16" class="edge"><title>Node14&#45;&gt;Node5</title>
<path fill="none" stroke="midnightblue" d="M804.114,-716.835C812.714,-712.909 821.03,-708.016 828,-701.939 896.384,-642.319 934.492,-536.97 949.045,-488.995"/>
<polygon fill="midnightblue" stroke="midnightblue" points="952.48,-489.721 951.945,-479.139 945.764,-487.744 952.48,-489.721"/>
</g>
<!-- Node15&#45;&gt;Node5 -->
<g id="edge18" class="edge"><title>Node15&#45;&gt;Node5</title>
<path fill="none" stroke="midnightblue" d="M611.66,-243.717C692.718,-260.404 818.838,-287.024 828,-292.939 885.199,-329.866 926.189,-401.777 944.801,-439.501"/>
<polygon fill="midnightblue" stroke="midnightblue" points="941.759,-441.253 949.25,-448.746 948.067,-438.217 941.759,-441.253"/>
</g>
<!-- Node16 -->
<g id="node14" class="node"><title>Node16</title>
<g id="a_node14"><a xlink:href="class_little_weeb_library_1_1_models_1_1_json_success.html#a407103dc37a77aaf47a782296bab7518" target="_top" xlink:title="LittleWeebLibrary.Models.\lJsonSuccess.ToJson">
<polygon fill="white" stroke="black" points="681.5,-214.939 681.5,-244.939 811.5,-244.939 811.5,-214.939 681.5,-214.939"/>
<text text-anchor="start" x="689.5" y="-232.939" font-family="Helvetica,sans-Serif" font-size="10.00">LittleWeebLibrary.Models.</text>
<text text-anchor="middle" x="746.5" y="-221.939" font-family="Helvetica,sans-Serif" font-size="10.00">JsonSuccess.ToJson</text>
</a>
</g>
</g>
<!-- Node15&#45;&gt;Node16 -->
<g id="edge19" class="edge"><title>Node15&#45;&gt;Node16</title>
<path fill="none" stroke="midnightblue" d="M611.657,-229.939C630.837,-229.939 651.817,-229.939 671.359,-229.939"/>
<polygon fill="midnightblue" stroke="midnightblue" points="671.429,-233.439 681.429,-229.939 671.429,-226.439 671.429,-233.439"/>
</g>
<!-- Node15&#45;&gt;Node17 -->
<g id="edge20" class="edge"><title>Node15&#45;&gt;Node17</title>
<path fill="none" stroke="midnightblue" d="M595.048,-244.954C606.523,-249.144 618.426,-254.16 629,-259.939 646.787,-269.66 647.299,-278.064 665,-287.939 672.302,-292.013 680.266,-295.741 688.253,-299.08"/>
<polygon fill="midnightblue" stroke="midnightblue" points="687.016,-302.354 697.6,-302.818 689.615,-295.855 687.016,-302.354"/>
</g>
<!-- Node15&#45;&gt;Node18 -->
<g id="edge21" class="edge"><title>Node15&#45;&gt;Node18</title>
<path fill="none" stroke="midnightblue" d="M611.745,-216.626C618.043,-213.509 623.947,-209.67 629,-204.939 662.875,-173.229 631.365,-138.904 665,-106.939 667.312,-104.742 669.814,-102.737 672.457,-100.909"/>
<polygon fill="midnightblue" stroke="midnightblue" points="674.505,-103.763 681.316,-95.6479 670.931,-97.7446 674.505,-103.763"/>
</g>
<!-- Node19&#45;&gt;Node5 -->
<g id="edge23" class="edge"><title>Node19&#45;&gt;Node5</title>
<path fill="none" stroke="midnightblue" d="M626.384,-468.739C698.454,-467.69 802.558,-466.174 874.396,-465.128"/>
<polygon fill="midnightblue" stroke="midnightblue" points="874.805,-468.622 884.753,-464.977 874.703,-461.623 874.805,-468.622"/>
</g>
<!-- Node20&#45;&gt;Node5 -->
<g id="edge27" class="edge"><title>Node20&#45;&gt;Node5</title>
<path fill="none" stroke="midnightblue" d="M344.438,-209.914C360.355,-179.564 400.887,-111.265 457,-80.9391 602.364,-2.38004 694.784,40.8137 828,-56.9391 891.88,-103.814 938.385,-356.585 951.943,-438.383"/>
<polygon fill="midnightblue" stroke="midnightblue" points="948.57,-439.446 953.635,-448.751 955.478,-438.318 948.57,-439.446"/>
</g>
<!-- Node20&#45;&gt;Node17 -->
<g id="edge36" class="edge"><title>Node20&#45;&gt;Node17</title>
<path fill="none" stroke="midnightblue" d="M398.303,-239.989C417.117,-244.545 437.895,-249.512 457,-253.939 529.76,-270.8 613.063,-289.181 671.389,-301.9"/>
<polygon fill="midnightblue" stroke="midnightblue" points="670.738,-305.341 681.254,-304.05 672.228,-298.501 670.738,-305.341"/>
</g>
<!-- Node20&#45;&gt;Node18 -->
<g id="edge35" class="edge"><title>Node20&#45;&gt;Node18</title>
<path fill="none" stroke="midnightblue" d="M349.577,-209.796C369.656,-186.771 411.37,-143.471 457,-122.939 525.252,-92.2275 610.968,-83.3196 671.169,-81.2714"/>
<polygon fill="midnightblue" stroke="midnightblue" points="671.456,-84.7648 681.352,-80.982 671.257,-77.7676 671.456,-84.7648"/>
</g>
<!-- Node20&#45;&gt;Node19 -->
<g id="edge34" class="edge"><title>Node20&#45;&gt;Node19</title>
<path fill="none" stroke="midnightblue" d="M349.824,-240.265C384.708,-281.957 481.473,-397.602 522.842,-447.043"/>
<polygon fill="midnightblue" stroke="midnightblue" points="520.341,-449.509 529.443,-454.932 525.71,-445.016 520.341,-449.509"/>
</g>
<!-- Node21 -->
<g id="node19" class="node"><title>Node21</title>
<g id="a_node19"><a xlink:href="class_little_weeb_library_1_1_handlers_1_1_file_handler.html#a08cbef4974d973035a7ddeedb9f8ff4a" target="_top" xlink:title="LittleWeebLibrary.Handlers.\lFileHandler.OpenFile">
<polygon fill="white" stroke="black" points="474.5,-165.939 474.5,-195.939 611.5,-195.939 611.5,-165.939 474.5,-165.939"/>
<text text-anchor="start" x="482.5" y="-183.939" font-family="Helvetica,sans-Serif" font-size="10.00">LittleWeebLibrary.Handlers.</text>
<text text-anchor="middle" x="543" y="-172.939" font-family="Helvetica,sans-Serif" font-size="10.00">FileHandler.OpenFile</text>
</a>
</g>
</g>
<!-- Node20&#45;&gt;Node21 -->
<g id="edge28" class="edge"><title>Node20&#45;&gt;Node21</title>
<path fill="none" stroke="midnightblue" d="M406.976,-209.92C425.46,-205.953 445.518,-201.647 464.38,-197.599"/>
<polygon fill="midnightblue" stroke="midnightblue" points="465.375,-200.965 474.418,-195.444 463.906,-194.121 465.375,-200.965"/>
</g>
<!-- Node21&#45;&gt;Node5 -->
<g id="edge29" class="edge"><title>Node21&#45;&gt;Node5</title>
<path fill="none" stroke="midnightblue" d="M611.71,-179.181C684.392,-178.58 794.008,-181.781 828,-204.939 910.213,-260.949 941.867,-385.633 951.956,-438.961"/>
<polygon fill="midnightblue" stroke="midnightblue" points="948.532,-439.697 953.744,-448.922 955.422,-438.461 948.532,-439.697"/>
</g>
<!-- Node21&#45;&gt;Node16 -->
<g id="edge31" class="edge"><title>Node21&#45;&gt;Node16</title>
<path fill="none" stroke="midnightblue" d="M605.826,-195.974C627.392,-201.218 651.769,-207.146 674.052,-212.565"/>
<polygon fill="midnightblue" stroke="midnightblue" points="673.247,-215.971 683.791,-214.933 674.901,-209.169 673.247,-215.971"/>
</g>
<!-- Node21&#45;&gt;Node17 -->
<g id="edge33" class="edge"><title>Node21&#45;&gt;Node17</title>
<path fill="none" stroke="midnightblue" d="M611.791,-195.521C617.863,-198.159 623.707,-201.27 629,-204.939 651.209,-220.335 646.259,-234.47 665,-253.939 680.149,-269.676 699.204,-284.989 714.972,-296.688"/>
<polygon fill="midnightblue" stroke="midnightblue" points="713.206,-299.732 723.348,-302.796 717.33,-294.076 713.206,-299.732"/>
</g>
<!-- Node21&#45;&gt;Node18 -->
<g id="edge32" class="edge"><title>Node21&#45;&gt;Node18</title>
<path fill="none" stroke="midnightblue" d="M600.55,-165.88C610.508,-161.891 620.419,-156.964 629,-150.939 649.678,-136.419 644.048,-121.062 665,-106.939 667.941,-104.957 671.046,-103.126 674.259,-101.435"/>
<polygon fill="midnightblue" stroke="midnightblue" points="676.01,-104.479 683.548,-97.0336 673.013,-98.1529 676.01,-104.479"/>
</g>
<!-- Node22 -->
<g id="node20" class="node"><title>Node22</title>
<g id="a_node20"><a xlink:href="class_little_weeb_library_1_1_static_classes_1_1_utility_methods.html#afc8c716f32bc35d59afdb287be06c3ca" target="_top" xlink:title="LittleWeebLibrary.Static\lClasses.UtilityMethods.Check\lOperatingSystems">
<polygon fill="white" stroke="black" points="672.5,-116.439 672.5,-157.439 820.5,-157.439 820.5,-116.439 672.5,-116.439"/>
<text text-anchor="start" x="680.5" y="-145.439" font-family="Helvetica,sans-Serif" font-size="10.00">LittleWeebLibrary.Static</text>
<text text-anchor="start" x="680.5" y="-134.439" font-family="Helvetica,sans-Serif" font-size="10.00">Classes.UtilityMethods.Check</text>
<text text-anchor="middle" x="746.5" y="-123.439" font-family="Helvetica,sans-Serif" font-size="10.00">OperatingSystems</text>
</a>
</g>
</g>
<!-- Node21&#45;&gt;Node22 -->
<g id="edge30" class="edge"><title>Node21&#45;&gt;Node22</title>
<path fill="none" stroke="midnightblue" d="M611.657,-166.165C628,-162.597 645.65,-158.743 662.604,-155.041"/>
<polygon fill="midnightblue" stroke="midnightblue" points="663.467,-158.435 672.49,-152.882 661.974,-151.596 663.467,-158.435"/>
</g>
</g>
</svg>
        <g id="navigator" transform="translate(0 0)" fill="#404254">
                <rect fill="#f2f5e9" fill-opacity="0.5" stroke="#606060" stroke-width=".5" x="0" y="0" width="60" height="60"/>
                <use id="zoomplus" xlink:href="#zoomPlus" x="17" y="9" onmousedown="handleZoom(evt,'in')"/>
                <use id="zoomminus" xlink:href="#zoomMin" x="42" y="9" onmousedown="handleZoom(evt,'out')"/>
                <use id="reset" xlink:href="#resetDef" x="30" y="36" onmousedown="handleReset()"/>
                <g id="arrowUp" xlink:href="#dirArrow" transform="translate(30 24)" onmousedown="handlePan(0,-1)">
                  <use xlink:href="#rim" fill="#404040">
                        <set attributeName="fill" to="#808080" begin="arrowUp.mouseover" end="arrowUp.mouseout"/>
                  </use>
                  <path fill="none" stroke="white" stroke-width="1.5" d="M0,-3.0v7 M-2.5,-0.5L0,-3.0L2.5,-0.5"/>
                </g>
                <g id="arrowRight" xlink:href="#dirArrow" transform="rotate(90) translate(36 -43)" onmousedown="handlePan(1,0)">
                  <use xlink:href="#rim" fill="#404040">
                        <set attributeName="fill" to="#808080" begin="arrowRight.mouseover" end="arrowRight.mouseout"/>
                  </use>
                  <path fill="none" stroke="white" stroke-width="1.5" d="M0,-3.0v7 M-2.5,-0.5L0,-3.0L2.5,-0.5"/>
                </g>
                <g id="arrowDown" xlink:href="#dirArrow" transform="rotate(180) translate(-30 -48)" onmousedown="handlePan(0,1)">
                  <use xlink:href="#rim" fill="#404040">
                        <set attributeName="fill" to="#808080" begin="arrowDown.mouseover" end="arrowDown.mouseout"/>
                  </use>
                  <path fill="none" stroke="white" stroke-width="1.5" d="M0,-3.0v7 M-2.5,-0.5L0,-3.0L2.5,-0.5"/>
                </g>
                <g id="arrowLeft" xlink:href="#dirArrow" transform="rotate(270) translate(-36 17)" onmousedown="handlePan(-1,0)">
                  <use xlink:href="#rim" fill="#404040">
                        <set attributeName="fill" to="#808080" begin="arrowLeft.mouseover" end="arrowLeft.mouseout"/>
                  </use>
                  <path fill="none" stroke="white" stroke-width="1.5" d="M0,-3.0v7 M-2.5,-0.5L0,-3.0L2.5,-0.5"/>
                </g>
        </g>
        <svg viewBox="0 0 15 15" width="100%" height="30px" preserveAspectRatio="xMaxYMin meet">
         <g id="arrow_out" transform="scale(0.3 0.3)">
          <a xlink:href="class_little_weeb_library_1_1_controllers_1_1_file_web_socket_controller_a9ecdec41f15ac23a56c402ff2c554a08_cgraph_org.svg" target="_base">
           <rect id="button" ry="5" rx="5" y="6" x="6" height="38" width="38"
                fill="#f2f5e9" fill-opacity="0.5" stroke="#606060" stroke-width="1.0"/>
           <path id="arrow"
             d="M 11.500037,31.436501 C 11.940474,20.09759 22.043105,11.32322 32.158766,21.979434 L 37.068811,17.246167 C 37.068811,17.246167 37.088388,32 37.088388,32 L 22.160133,31.978069 C 22.160133,31.978069 26.997745,27.140456 26.997745,27.140456 C 18.528582,18.264221 13.291696,25.230495 11.500037,31.436501 z"
             style="fill:#404040;"/>
          </a>
         </g>
        </svg>
</svg>
