<?xml version="1.0" encoding="UTF-8" standalone="no"?>
<!DOCTYPE svg PUBLIC "-//W3C//DTD SVG 1.1//EN"
 "http://www.w3.org/Graphics/SVG/1.1/DTD/svg11.dtd">
<!-- Generated by graphviz version 2.38.0 (20140413.2041)
 -->
<!-- Title: LittleWeebLibrary.Services.DownloadWebSocketService Pages: 1 -->
<svg width="1856pt" height="490pt"
 viewBox="0.00 0.00 1855.50 490.00" xmlns="http://www.w3.org/2000/svg" xmlns:xlink="http://www.w3.org/1999/xlink">
<g id="graph0" class="graph" transform="scale(1 1) rotate(0) translate(4 486)">
<title>LittleWeebLibrary.Services.DownloadWebSocketService</title>
<polygon fill="white" stroke="none" points="-4,4 -4,-486 1851.5,-486 1851.5,4 -4,4"/>
<!-- Node3 -->
<g id="node1" class="node"><title>Node3</title>
<polygon fill="#bfbfbf" stroke="black" points="857.5,-0.5 857.5,-167.5 1013.5,-167.5 1013.5,-0.5 857.5,-0.5"/>
<text text-anchor="start" x="865.5" y="-155.5" font-family="Helvetica,sans-Serif" font-size="10.00">LittleWeebLibrary.Services.</text>
<text text-anchor="middle" x="935.5" y="-144.5" font-family="Helvetica,sans-Serif" font-size="10.00">DownloadWebSocketService</text>
<polyline fill="none" stroke="black" points="857.5,-137.5 1013.5,-137.5 "/>
<text text-anchor="middle" x="935.5" y="-125.5" font-family="Helvetica,sans-Serif" font-size="10.00"> </text>
<polyline fill="none" stroke="black" points="857.5,-118.5 1013.5,-118.5 "/>
<text text-anchor="start" x="865.5" y="-106.5" font-family="Helvetica,sans-Serif" font-size="10.00">+ DownloadWebSocketService()</text>
<text text-anchor="start" x="865.5" y="-95.5" font-family="Helvetica,sans-Serif" font-size="10.00">+ AbortDownload()</text>
<text text-anchor="start" x="865.5" y="-84.5" font-family="Helvetica,sans-Serif" font-size="10.00">+ AddDownload()</text>
<text text-anchor="start" x="865.5" y="-73.5" font-family="Helvetica,sans-Serif" font-size="10.00">+ AddDownloads()</text>
<text text-anchor="start" x="865.5" y="-62.5" font-family="Helvetica,sans-Serif" font-size="10.00">+ GetCurrentFileHistory()</text>
<text text-anchor="start" x="865.5" y="-51.5" font-family="Helvetica,sans-Serif" font-size="10.00">+ Openfullfilepath()</text>
<text text-anchor="start" x="865.5" y="-40.5" font-family="Helvetica,sans-Serif" font-size="10.00">+ RemoveDownload()</text>
<text text-anchor="start" x="865.5" y="-29.5" font-family="Helvetica,sans-Serif" font-size="10.00">+ SetIrcSettings()</text>
<text text-anchor="start" x="865.5" y="-18.5" font-family="Helvetica,sans-Serif" font-size="10.00">+ SetLittleWeebSettings()</text>
<text text-anchor="start" x="865.5" y="-7.5" font-family="Helvetica,sans-Serif" font-size="10.00">&#45; OnDownloadUpdateEvent()</text>
</g>
<!-- Node4 -->
<g id="node2" class="node"><title>Node4</title>
<g id="a_node2"><a xlink:href="interface_little_weeb_library_1_1_services_1_1_i_download_web_socket_service.html" target="_top" xlink:title="{IDownloadWebSocketService\n||+ AbortDownload()\l+ AddDownload()\l+ AddDownloads()\l+ GetCurrentFileHistory()\l+ Openfullfilepath()\l+ RemoveDownload()\l}">
<polygon fill="white" stroke="black" points="0,-292.5 0,-404.5 143,-404.5 143,-292.5 0,-292.5"/>
<text text-anchor="middle" x="71.5" y="-392.5" font-family="Helvetica,sans-Serif" font-size="10.00">IDownloadWebSocketService</text>
<polyline fill="none" stroke="black" points="0,-385.5 143,-385.5 "/>
<text text-anchor="middle" x="71.5" y="-373.5" font-family="Helvetica,sans-Serif" font-size="10.00"> </text>
<polyline fill="none" stroke="black" points="0,-366.5 143,-366.5 "/>
<text text-anchor="start" x="8" y="-354.5" font-family="Helvetica,sans-Serif" font-size="10.00">+ AbortDownload()</text>
<text text-anchor="start" x="8" y="-343.5" font-family="Helvetica,sans-Serif" font-size="10.00">+ AddDownload()</text>
<text text-anchor="start" x="8" y="-332.5" font-family="Helvetica,sans-Serif" font-size="10.00">+ AddDownloads()</text>
<text text-anchor="start" x="8" y="-321.5" font-family="Helvetica,sans-Serif" font-size="10.00">+ GetCurrentFileHistory()</text>
<text text-anchor="start" x="8" y="-310.5" font-family="Helvetica,sans-Serif" font-size="10.00">+ Openfullfilepath()</text>
<text text-anchor="start" x="8" y="-299.5" font-family="Helvetica,sans-Serif" font-size="10.00">+ RemoveDownload()</text>
</a>
</g>
</g>
<!-- Node4&#45;&gt;Node3 -->
<g id="edge1" class="edge"><title>Node4&#45;&gt;Node3</title>
<path fill="none" stroke="midnightblue" d="M96.1706,-283.246C108.977,-258.167 127.138,-231.523 151.5,-215 266.042,-137.315 682.564,-101.55 857.399,-89.7119"/>
<polygon fill="none" stroke="midnightblue" points="92.9462,-281.872 91.6932,-292.392 99.2334,-284.95 92.9462,-281.872"/>
</g>
<!-- Node5 -->
<g id="node3" class="node"><title>Node5</title>
<g id="a_node3"><a xlink:href="interface_little_weeb_library_1_1_global_interfaces_1_1_i_settings_interface.html" target="_top" xlink:title="{ISettingsInterface\n||+ SetIrcSettings()\l+ SetLittleWeebSettings()\l}">
<polygon fill="white" stroke="black" points="161,-314.5 161,-382.5 290,-382.5 290,-314.5 161,-314.5"/>
<text text-anchor="middle" x="225.5" y="-370.5" font-family="Helvetica,sans-Serif" font-size="10.00">ISettingsInterface</text>
<polyline fill="none" stroke="black" points="161,-363.5 290,-363.5 "/>
<text text-anchor="middle" x="225.5" y="-351.5" font-family="Helvetica,sans-Serif" font-size="10.00"> </text>
<polyline fill="none" stroke="black" points="161,-344.5 290,-344.5 "/>
<text text-anchor="start" x="169" y="-332.5" font-family="Helvetica,sans-Serif" font-size="10.00">+ SetIrcSettings()</text>
<text text-anchor="start" x="169" y="-321.5" font-family="Helvetica,sans-Serif" font-size="10.00">+ SetLittleWeebSettings()</text>
</a>
</g>
</g>
<!-- Node5&#45;&gt;Node3 -->
<g id="edge2" class="edge"><title>Node5&#45;&gt;Node3</title>
<path fill="none" stroke="midnightblue" d="M238.387,-304.628C249.54,-274.941 268.659,-236.953 298.5,-215 386.746,-150.079 707.446,-108.865 857.316,-92.7343"/>
<polygon fill="none" stroke="midnightblue" points="234.985,-303.748 234.906,-314.342 241.574,-306.109 234.985,-303.748"/>
</g>
<!-- Node6 -->
<g id="node4" class="node"><title>Node6</title>
<g id="a_node4"><a xlink:href="interface_little_weeb_library_1_1_handlers_1_1_i_debug_handler.html" target="_top" xlink:title="{LittleWeebLibrary.Handlers.\lIDebugHandler\n||+ SetSettings()\l+ StopDebugger()\l+ TraceMessage()\l}">
<polygon fill="white" stroke="black" points="308,-303.5 308,-393.5 445,-393.5 445,-303.5 308,-303.5"/>
<text text-anchor="start" x="316" y="-381.5" font-family="Helvetica,sans-Serif" font-size="10.00">LittleWeebLibrary.Handlers.</text>
<text text-anchor="middle" x="376.5" y="-370.5" font-family="Helvetica,sans-Serif" font-size="10.00">IDebugHandler</text>
<polyline fill="none" stroke="black" points="308,-363.5 445,-363.5 "/>
<text text-anchor="middle" x="376.5" y="-351.5" font-family="Helvetica,sans-Serif" font-size="10.00"> </text>
<polyline fill="none" stroke="black" points="308,-344.5 445,-344.5 "/>
<text text-anchor="start" x="316" y="-332.5" font-family="Helvetica,sans-Serif" font-size="10.00">+ SetSettings()</text>
<text text-anchor="start" x="316" y="-321.5" font-family="Helvetica,sans-Serif" font-size="10.00">+ StopDebugger()</text>
<text text-anchor="start" x="316" y="-310.5" font-family="Helvetica,sans-Serif" font-size="10.00">+ TraceMessage()</text>
</a>
</g>
</g>
<!-- Node6&#45;&gt;Node3 -->
<g id="edge3" class="edge"><title>Node6&#45;&gt;Node3</title>
<path fill="none" stroke="#404040" d="M391.923,-303.233C404.259,-274.092 424.358,-237.334 453.5,-215 569.301,-126.252 741.219,-98.0084 845.383,-89.0717"/>
<polygon fill="none" stroke="#404040" points="845.468,-89.0649 851.127,-84.5947 857.429,-88.0985 851.771,-92.5687 845.468,-89.0649"/>
<text text-anchor="middle" x="521" y="-189" font-family="Helvetica,sans-Serif" font-size="10.00"> &#45;DebugHandler</text>
</g>
<!-- Node7 -->
<g id="node5" class="node"><title>Node7</title>
<g id="a_node5"><a xlink:href="interface_little_weeb_library_1_1_handlers_1_1_i_web_socket_handler.html" target="_top" xlink:title="{LittleWeebLibrary.Handlers.\lIWebSocketHandler\n||+ SendMessage()\l+ StartServer()\l+ StopServer()\l}">
<polygon fill="white" stroke="black" points="463,-303.5 463,-393.5 600,-393.5 600,-303.5 463,-303.5"/>
<text text-anchor="start" x="471" y="-381.5" font-family="Helvetica,sans-Serif" font-size="10.00">LittleWeebLibrary.Handlers.</text>
<text text-anchor="middle" x="531.5" y="-370.5" font-family="Helvetica,sans-Serif" font-size="10.00">IWebSocketHandler</text>
<polyline fill="none" stroke="black" points="463,-363.5 600,-363.5 "/>
<text text-anchor="middle" x="531.5" y="-351.5" font-family="Helvetica,sans-Serif" font-size="10.00"> </text>
<polyline fill="none" stroke="black" points="463,-344.5 600,-344.5 "/>
<text text-anchor="start" x="471" y="-332.5" font-family="Helvetica,sans-Serif" font-size="10.00">+ SendMessage()</text>
<text text-anchor="start" x="471" y="-321.5" font-family="Helvetica,sans-Serif" font-size="10.00">+ StartServer()</text>
<text text-anchor="start" x="471" y="-310.5" font-family="Helvetica,sans-Serif" font-size="10.00">+ StopServer()</text>
</a>
</g>
</g>
<!-- Node7&#45;&gt;Node3 -->
<g id="edge4" class="edge"><title>Node7&#45;&gt;Node3</title>
<path fill="none" stroke="#404040" d="M548.188,-303.339C560.927,-274.806 580.991,-238.711 608.5,-215 676.632,-156.275 774.557,-122.098 845.469,-103.658"/>
<polygon fill="none" stroke="#404040" points="845.861,-103.559 850.696,-98.2084 857.494,-100.614 852.659,-105.964 845.861,-103.559"/>
<text text-anchor="middle" x="692" y="-189" font-family="Helvetica,sans-Serif" font-size="10.00"> &#45;WebSocketHandler</text>
</g>
<!-- Node8 -->
<g id="node6" class="node"><title>Node8</title>
<g id="a_node6"><a xlink:href="interface_little_weeb_library_1_1_handlers_1_1_i_file_history_handler.html" target="_top" xlink:title="{LittleWeebLibrary.Handlers.\lIFileHistoryHandler\n||+ AddFileToFileHistory()\l+ GetCurrentFileHistory()\l+ RemoveFileFromFileHistory()\l}">
<polygon fill="white" stroke="black" points="618,-303.5 618,-393.5 769,-393.5 769,-303.5 618,-303.5"/>
<text text-anchor="start" x="626" y="-381.5" font-family="Helvetica,sans-Serif" font-size="10.00">LittleWeebLibrary.Handlers.</text>
<text text-anchor="middle" x="693.5" y="-370.5" font-family="Helvetica,sans-Serif" font-size="10.00">IFileHistoryHandler</text>
<polyline fill="none" stroke="black" points="618,-363.5 769,-363.5 "/>
<text text-anchor="middle" x="693.5" y="-351.5" font-family="Helvetica,sans-Serif" font-size="10.00"> </text>
<polyline fill="none" stroke="black" points="618,-344.5 769,-344.5 "/>
<text text-anchor="start" x="626" y="-332.5" font-family="Helvetica,sans-Serif" font-size="10.00">+ AddFileToFileHistory()</text>
<text text-anchor="start" x="626" y="-321.5" font-family="Helvetica,sans-Serif" font-size="10.00">+ GetCurrentFileHistory()</text>
<text text-anchor="start" x="626" y="-310.5" font-family="Helvetica,sans-Serif" font-size="10.00">+ RemoveFileFromFileHistory()</text>
</a>
</g>
</g>
<!-- Node8&#45;&gt;Node3 -->
<g id="edge5" class="edge"><title>Node8&#45;&gt;Node3</title>
<path fill="none" stroke="#404040" d="M716.776,-303.318C732.106,-276.328 753.695,-241.942 777.5,-215 798.264,-191.5 823.497,-168.748 847.647,-149.023"/>
<polygon fill="none" stroke="#404040" points="847.848,-148.861 850.012,-141.982 857.194,-141.333 855.03,-148.212 847.848,-148.861"/>
<text text-anchor="middle" x="848.5" y="-189" font-family="Helvetica,sans-Serif" font-size="10.00"> &#45;FileHistoryHandler</text>
</g>
<!-- Node9 -->
<g id="node7" class="node"><title>Node9</title>
<g id="a_node7"><a xlink:href="interface_little_weeb_library_1_1_handlers_1_1_i_download_handler.html" target="_top" xlink:title="{LittleWeebLibrary.Handlers.\lIDownloadHandler\n||+ AbortDownload()\l+ AddDownload()\l+ AddDownloads()\l+ GetCurrentlyDownloading()\l+ RemoveDownload()\l+ StopQueue()\l}">
<polygon fill="white" stroke="black" points="787,-287 787,-410 928,-410 928,-287 787,-287"/>
<text text-anchor="start" x="795" y="-398" font-family="Helvetica,sans-Serif" font-size="10.00">LittleWeebLibrary.Handlers.</text>
<text text-anchor="middle" x="857.5" y="-387" font-family="Helvetica,sans-Serif" font-size="10.00">IDownloadHandler</text>
<polyline fill="none" stroke="black" points="787,-380 928,-380 "/>
<text text-anchor="middle" x="857.5" y="-368" font-family="Helvetica,sans-Serif" font-size="10.00"> </text>
<polyline fill="none" stroke="black" points="787,-361 928,-361 "/>
<text text-anchor="start" x="795" y="-349" font-family="Helvetica,sans-Serif" font-size="10.00">+ AbortDownload()</text>
<text text-anchor="start" x="795" y="-338" font-family="Helvetica,sans-Serif" font-size="10.00">+ AddDownload()</text>
<text text-anchor="start" x="795" y="-327" font-family="Helvetica,sans-Serif" font-size="10.00">+ AddDownloads()</text>
<text text-anchor="start" x="795" y="-316" font-family="Helvetica,sans-Serif" font-size="10.00">+ GetCurrentlyDownloading()</text>
<text text-anchor="start" x="795" y="-305" font-family="Helvetica,sans-Serif" font-size="10.00">+ RemoveDownload()</text>
<text text-anchor="start" x="795" y="-294" font-family="Helvetica,sans-Serif" font-size="10.00">+ StopQueue()</text>
</a>
</g>
</g>
<!-- Node9&#45;&gt;Node3 -->
<g id="edge6" class="edge"><title>Node9&#45;&gt;Node3</title>
<path fill="none" stroke="#404040" d="M875.493,-286.948C884.951,-255.116 896.76,-215.376 907.393,-179.589"/>
<polygon fill="none" stroke="#404040" points="907.531,-179.125 905.406,-172.234 910.95,-167.622 913.075,-174.513 907.531,-179.125"/>
<text text-anchor="middle" x="944.5" y="-189" font-family="Helvetica,sans-Serif" font-size="10.00"> &#45;DownloadHandler</text>
</g>
<!-- Node10 -->
<g id="node8" class="node"><title>Node10</title>
<g id="a_node8"><a xlink:href="class_little_weeb_library_1_1_settings_1_1_little_weeb_settings.html" target="_top" xlink:title="{LittleWeebLibrary.Settings.\lLittleWeebSettings\n|+ CurrentlyAiringBot\l+ DebugLevel\l+ DebugType\l+ Local\l+ MaxDebugLogSize\l+ Port\l+ RandomUsernameLength\l|+ ToString()\l}">
<polygon fill="white" stroke="black" points="946,-281.5 946,-415.5 1081,-415.5 1081,-281.5 946,-281.5"/>
<text text-anchor="start" x="954" y="-403.5" font-family="Helvetica,sans-Serif" font-size="10.00">LittleWeebLibrary.Settings.</text>
<text text-anchor="middle" x="1013.5" y="-392.5" font-family="Helvetica,sans-Serif" font-size="10.00">LittleWeebSettings</text>
<polyline fill="none" stroke="black" points="946,-385.5 1081,-385.5 "/>
<text text-anchor="start" x="954" y="-373.5" font-family="Helvetica,sans-Serif" font-size="10.00">+ CurrentlyAiringBot</text>
<text text-anchor="start" x="954" y="-362.5" font-family="Helvetica,sans-Serif" font-size="10.00">+ DebugLevel</text>
<text text-anchor="start" x="954" y="-351.5" font-family="Helvetica,sans-Serif" font-size="10.00">+ DebugType</text>
<text text-anchor="start" x="954" y="-340.5" font-family="Helvetica,sans-Serif" font-size="10.00">+ Local</text>
<text text-anchor="start" x="954" y="-329.5" font-family="Helvetica,sans-Serif" font-size="10.00">+ MaxDebugLogSize</text>
<text text-anchor="start" x="954" y="-318.5" font-family="Helvetica,sans-Serif" font-size="10.00">+ Port</text>
<text text-anchor="start" x="954" y="-307.5" font-family="Helvetica,sans-Serif" font-size="10.00">+ RandomUsernameLength</text>
<polyline fill="none" stroke="black" points="946,-300.5 1081,-300.5 "/>
<text text-anchor="start" x="954" y="-288.5" font-family="Helvetica,sans-Serif" font-size="10.00">+ ToString()</text>
</a>
</g>
</g>
<!-- Node10&#45;&gt;Node3 -->
<g id="edge7" class="edge"><title>Node10&#45;&gt;Node3</title>
<path fill="none" stroke="#404040" d="M1008.86,-281.482C1005.46,-251.753 999.598,-216.547 989.5,-186 988.751,-183.735 987.954,-181.46 987.114,-179.181"/>
<polygon fill="none" stroke="#404040" points="987.018,-178.938 981.087,-174.836 982.593,-167.784 988.524,-171.886 987.018,-178.938"/>
<text text-anchor="middle" x="1037" y="-189" font-family="Helvetica,sans-Serif" font-size="10.00"> &#45;LittleWeebSettings</text>
</g>
<!-- Node11 -->
<g id="node9" class="node"><title>Node11</title>
<g id="a_node9"><a xlink:href="class_little_weeb_library_1_1_models_1_1_json_download_info.html" target="_top" xlink:title="{LittleWeebLibrary.Models.\lJsonDownloadInfo\n|+ type\l+ anime_id\l+ anime_name\l+ bot\l+ downloadDirectory\l+ downloadIndex\l+ episodeNumber\l+ filename\l+ filesize\l+ fullfilepath\l+ id\l+ pack\l+ progress\l+ season\l+ speed\l+ status\l+ updated\l|+ ToJObject()\l+ ToJson()\l+ ToString()\l}">
<polygon fill="white" stroke="black" points="1099.5,-215.5 1099.5,-481.5 1229.5,-481.5 1229.5,-215.5 1099.5,-215.5"/>
<text text-anchor="start" x="1107.5" y="-469.5" font-family="Helvetica,sans-Serif" font-size="10.00">LittleWeebLibrary.Models.</text>
<text text-anchor="middle" x="1164.5" y="-458.5" font-family="Helvetica,sans-Serif" font-size="10.00">JsonDownloadInfo</text>
<polyline fill="none" stroke="black" points="1099.5,-451.5 1229.5,-451.5 "/>
<text text-anchor="start" x="1107.5" y="-439.5" font-family="Helvetica,sans-Serif" font-size="10.00">+ type</text>
<text text-anchor="start" x="1107.5" y="-428.5" font-family="Helvetica,sans-Serif" font-size="10.00">+ anime_id</text>
<text text-anchor="start" x="1107.5" y="-417.5" font-family="Helvetica,sans-Serif" font-size="10.00">+ anime_name</text>
<text text-anchor="start" x="1107.5" y="-406.5" font-family="Helvetica,sans-Serif" font-size="10.00">+ bot</text>
<text text-anchor="start" x="1107.5" y="-395.5" font-family="Helvetica,sans-Serif" font-size="10.00">+ downloadDirectory</text>
<text text-anchor="start" x="1107.5" y="-384.5" font-family="Helvetica,sans-Serif" font-size="10.00">+ downloadIndex</text>
<text text-anchor="start" x="1107.5" y="-373.5" font-family="Helvetica,sans-Serif" font-size="10.00">+ episodeNumber</text>
<text text-anchor="start" x="1107.5" y="-362.5" font-family="Helvetica,sans-Serif" font-size="10.00">+ filename</text>
<text text-anchor="start" x="1107.5" y="-351.5" font-family="Helvetica,sans-Serif" font-size="10.00">+ filesize</text>
<text text-anchor="start" x="1107.5" y="-340.5" font-family="Helvetica,sans-Serif" font-size="10.00">+ fullfilepath</text>
<text text-anchor="start" x="1107.5" y="-329.5" font-family="Helvetica,sans-Serif" font-size="10.00">+ id</text>
<text text-anchor="start" x="1107.5" y="-318.5" font-family="Helvetica,sans-Serif" font-size="10.00">+ pack</text>
<text text-anchor="start" x="1107.5" y="-307.5" font-family="Helvetica,sans-Serif" font-size="10.00">+ progress</text>
<text text-anchor="start" x="1107.5" y="-296.5" font-family="Helvetica,sans-Serif" font-size="10.00">+ season</text>
<text text-anchor="start" x="1107.5" y="-285.5" font-family="Helvetica,sans-Serif" font-size="10.00">+ speed</text>
<text text-anchor="start" x="1107.5" y="-274.5" font-family="Helvetica,sans-Serif" font-size="10.00">+ status</text>
<text text-anchor="start" x="1107.5" y="-263.5" font-family="Helvetica,sans-Serif" font-size="10.00">+ updated</text>
<polyline fill="none" stroke="black" points="1099.5,-256.5 1229.5,-256.5 "/>
<text text-anchor="start" x="1107.5" y="-244.5" font-family="Helvetica,sans-Serif" font-size="10.00">+ ToJObject()</text>
<text text-anchor="start" x="1107.5" y="-233.5" font-family="Helvetica,sans-Serif" font-size="10.00">+ ToJson()</text>
<text text-anchor="start" x="1107.5" y="-222.5" font-family="Helvetica,sans-Serif" font-size="10.00">+ ToString()</text>
</a>
</g>
</g>
<!-- Node11&#45;&gt;Node3 -->
<g id="edge8" class="edge"><title>Node11&#45;&gt;Node3</title>
<path fill="none" stroke="#404040" d="M1107.41,-215.482C1100.7,-205.05 1093.39,-195.062 1085.5,-186 1068.07,-165.984 1045.79,-148.172 1023.76,-133.292"/>
<polygon fill="none" stroke="#404040" points="1023.71,-133.256 1016.5,-133.302 1013.68,-126.664 1020.89,-126.617 1023.71,-133.256"/>
<text text-anchor="middle" x="1139" y="-189" font-family="Helvetica,sans-Serif" font-size="10.00"> &#45;LastDownloadedInfo</text>
</g>
<!-- Node12 -->
<g id="node10" class="node"><title>Node12</title>
<g id="a_node10"><a xlink:href="interface_little_weeb_library_1_1_handlers_1_1_i_settings_handler.html" target="_top" xlink:title="{LittleWeebLibrary.Handlers.\lISettingsHandler\n||+ GetIrcSettings()\l+ GetLittleWeebSettings()\l+ WriteIrcSettings()\l+ WriteLittleWeebSettings()\l}">
<polygon fill="white" stroke="black" points="1248,-298 1248,-399 1385,-399 1385,-298 1248,-298"/>
<text text-anchor="start" x="1256" y="-387" font-family="Helvetica,sans-Serif" font-size="10.00">LittleWeebLibrary.Handlers.</text>
<text text-anchor="middle" x="1316.5" y="-376" font-family="Helvetica,sans-Serif" font-size="10.00">ISettingsHandler</text>
<polyline fill="none" stroke="black" points="1248,-369 1385,-369 "/>
<text text-anchor="middle" x="1316.5" y="-357" font-family="Helvetica,sans-Serif" font-size="10.00"> </text>
<polyline fill="none" stroke="black" points="1248,-350 1385,-350 "/>
<text text-anchor="start" x="1256" y="-338" font-family="Helvetica,sans-Serif" font-size="10.00">+ GetIrcSettings()</text>
<text text-anchor="start" x="1256" y="-327" font-family="Helvetica,sans-Serif" font-size="10.00">+ GetLittleWeebSettings()</text>
<text text-anchor="start" x="1256" y="-316" font-family="Helvetica,sans-Serif" font-size="10.00">+ WriteIrcSettings()</text>
<text text-anchor="start" x="1256" y="-305" font-family="Helvetica,sans-Serif" font-size="10.00">+ WriteLittleWeebSettings()</text>
</a>
</g>
</g>
<!-- Node12&#45;&gt;Node3 -->
<g id="edge9" class="edge"><title>Node12&#45;&gt;Node3</title>
<path fill="none" stroke="#404040" d="M1294.8,-297.798C1281.37,-271.023 1262.16,-238.716 1238.5,-215 1180.34,-156.702 1091.86,-122.873 1025.5,-104.421"/>
<polygon fill="none" stroke="#404040" points="1025.39,-104.39 1018.55,-106.688 1013.8,-101.262 1020.64,-98.9643 1025.39,-104.39"/>
<text text-anchor="middle" x="1250.5" y="-189" font-family="Helvetica,sans-Serif" font-size="10.00"> &#45;SettingsHandler</text>
</g>
<!-- Node13 -->
<g id="node11" class="node"><title>Node13</title>
<g id="a_node11"><a xlink:href="interface_little_weeb_library_1_1_handlers_1_1_i_directory_handler.html" target="_top" xlink:title="{LittleWeebLibrary.Handlers.\lIDirectoryHandler\n||+ CreateDirectory()\l+ DeleteDirectory()\l+ GetDirectories()\l+ GetDrives()\l+ GetFreeSpace()\l+ OpenDirectory()\l}">
<polygon fill="white" stroke="black" points="1403,-287 1403,-410 1540,-410 1540,-287 1403,-287"/>
<text text-anchor="start" x="1411" y="-398" font-family="Helvetica,sans-Serif" font-size="10.00">LittleWeebLibrary.Handlers.</text>
<text text-anchor="middle" x="1471.5" y="-387" font-family="Helvetica,sans-Serif" font-size="10.00">IDirectoryHandler</text>
<polyline fill="none" stroke="black" points="1403,-380 1540,-380 "/>
<text text-anchor="middle" x="1471.5" y="-368" font-family="Helvetica,sans-Serif" font-size="10.00"> </text>
<polyline fill="none" stroke="black" points="1403,-361 1540,-361 "/>
<text text-anchor="start" x="1411" y="-349" font-family="Helvetica,sans-Serif" font-size="10.00">+ CreateDirectory()</text>
<text text-anchor="start" x="1411" y="-338" font-family="Helvetica,sans-Serif" font-size="10.00">+ DeleteDirectory()</text>
<text text-anchor="start" x="1411" y="-327" font-family="Helvetica,sans-Serif" font-size="10.00">+ GetDirectories()</text>
<text text-anchor="start" x="1411" y="-316" font-family="Helvetica,sans-Serif" font-size="10.00">+ GetDrives()</text>
<text text-anchor="start" x="1411" y="-305" font-family="Helvetica,sans-Serif" font-size="10.00">+ GetFreeSpace()</text>
<text text-anchor="start" x="1411" y="-294" font-family="Helvetica,sans-Serif" font-size="10.00">+ OpenDirectory()</text>
</a>
</g>
</g>
<!-- Node13&#45;&gt;Node3 -->
<g id="edge10" class="edge"><title>Node13&#45;&gt;Node3</title>
<path fill="none" stroke="#404040" d="M1448,-286.951C1435.34,-261.455 1417.34,-233.474 1393.5,-215 1285.3,-131.171 1125.45,-101.398 1026.03,-90.8236"/>
<polygon fill="none" stroke="#404040" points="1025.86,-90.8058 1019.49,-94.1816 1013.92,-89.5981 1020.29,-86.2223 1025.86,-90.8058"/>
<text text-anchor="middle" x="1402" y="-189" font-family="Helvetica,sans-Serif" font-size="10.00"> &#45;DirectoryHandler</text>
</g>
<!-- Node14 -->
<g id="node12" class="node"><title>Node14</title>
<g id="a_node12"><a xlink:href="interface_little_weeb_library_1_1_handlers_1_1_i_file_handler.html" target="_top" xlink:title="{LittleWeebLibrary.Handlers.\lIFileHandler\n||+ DeleteFile()\l+ OpenFile()\l}">
<polygon fill="white" stroke="black" points="1558,-309 1558,-388 1695,-388 1695,-309 1558,-309"/>
<text text-anchor="start" x="1566" y="-376" font-family="Helvetica,sans-Serif" font-size="10.00">LittleWeebLibrary.Handlers.</text>
<text text-anchor="middle" x="1626.5" y="-365" font-family="Helvetica,sans-Serif" font-size="10.00">IFileHandler</text>
<polyline fill="none" stroke="black" points="1558,-358 1695,-358 "/>
<text text-anchor="middle" x="1626.5" y="-346" font-family="Helvetica,sans-Serif" font-size="10.00"> </text>
<polyline fill="none" stroke="black" points="1558,-339 1695,-339 "/>
<text text-anchor="start" x="1566" y="-327" font-family="Helvetica,sans-Serif" font-size="10.00">+ DeleteFile()</text>
<text text-anchor="start" x="1566" y="-316" font-family="Helvetica,sans-Serif" font-size="10.00">+ OpenFile()</text>
</a>
</g>
</g>
<!-- Node14&#45;&gt;Node3 -->
<g id="edge11" class="edge"><title>Node14&#45;&gt;Node3</title>
<path fill="none" stroke="#404040" d="M1613.02,-308.92C1600.69,-279.086 1579.58,-238.953 1548.5,-215 1467.67,-152.709 1176.11,-111.901 1026.09,-94.5415"/>
<polygon fill="none" stroke="#404040" points="1025.7,-94.4972 1019.28,-97.7892 1013.78,-93.133 1020.19,-89.8411 1025.7,-94.4972"/>
<text text-anchor="middle" x="1543" y="-189" font-family="Helvetica,sans-Serif" font-size="10.00"> &#45;FileHandler</text>
</g>
<!-- Node15 -->
<g id="node13" class="node"><title>Node15</title>
<g id="a_node13"><a xlink:href="class_little_weeb_library_1_1_settings_1_1_irc_settings.html" target="_top" xlink:title="{LittleWeebLibrary.Settings.\lIrcSettings\n|+ Channels\l+ fullfilepath\l+ Port\l+ Secure\l+ ServerAddress\l+ UserName\l|+ ToString()\l}">
<polygon fill="white" stroke="black" points="1713.5,-287 1713.5,-410 1847.5,-410 1847.5,-287 1713.5,-287"/>
<text text-anchor="start" x="1721.5" y="-398" font-family="Helvetica,sans-Serif" font-size="10.00">LittleWeebLibrary.Settings.</text>
<text text-anchor="middle" x="1780.5" y="-387" font-family="Helvetica,sans-Serif" font-size="10.00">IrcSettings</text>
<polyline fill="none" stroke="black" points="1713.5,-380 1847.5,-380 "/>
<text text-anchor="start" x="1721.5" y="-368" font-family="Helvetica,sans-Serif" font-size="10.00">+ Channels</text>
<text text-anchor="start" x="1721.5" y="-357" font-family="Helvetica,sans-Serif" font-size="10.00">+ fullfilepath</text>
<text text-anchor="start" x="1721.5" y="-346" font-family="Helvetica,sans-Serif" font-size="10.00">+ Port</text>
<text text-anchor="start" x="1721.5" y="-335" font-family="Helvetica,sans-Serif" font-size="10.00">+ Secure</text>
<text text-anchor="start" x="1721.5" y="-324" font-family="Helvetica,sans-Serif" font-size="10.00">+ ServerAddress</text>
<text text-anchor="start" x="1721.5" y="-313" font-family="Helvetica,sans-Serif" font-size="10.00">+ UserName</text>
<polyline fill="none" stroke="black" points="1713.5,-306 1847.5,-306 "/>
<text text-anchor="start" x="1721.5" y="-294" font-family="Helvetica,sans-Serif" font-size="10.00">+ ToString()</text>
</a>
</g>
</g>
<!-- Node15&#45;&gt;Node3 -->
<g id="edge12" class="edge"><title>Node15&#45;&gt;Node3</title>
<path fill="none" stroke="#404040" d="M1758.29,-286.98C1745.9,-261.173 1727.96,-232.936 1703.5,-215 1596.83,-136.777 1204.7,-102.191 1025.69,-90.2285"/>
<polygon fill="none" stroke="#404040" points="1025.67,-90.2272 1019.42,-93.8247 1013.69,-89.4395 1019.94,-85.8419 1025.67,-90.2272"/>
<text text-anchor="middle" x="1688" y="-189" font-family="Helvetica,sans-Serif" font-size="10.00"> &#45;IrcSettings</text>
</g>
</g>
</svg>
