<?xml version="1.0" encoding="UTF-8" standalone="no"?>
<!DOCTYPE svg PUBLIC "-//W3C//DTD SVG 1.1//EN"
 "http://www.w3.org/Graphics/SVG/1.1/DTD/svg11.dtd">
<!-- Generated by graphviz version 2.38.0 (20140413.2041)
 -->
<!-- Title: LittleWeebLibrary.Services.DirectoryWebSocketService.GetFreeSpace Pages: 1 -->
<svg width="605pt" height="188pt"
 viewBox="0.00 0.00 605.00 187.50" xmlns="http://www.w3.org/2000/svg" xmlns:xlink="http://www.w3.org/1999/xlink">
<g id="graph0" class="graph" transform="scale(1 1) rotate(0) translate(4 183.5)">
<title>LittleWeebLibrary.Services.DirectoryWebSocketService.GetFreeSpace</title>
<polygon fill="white" stroke="none" points="-4,4 -4,-183.5 601,-183.5 601,4 -4,4"/>
<!-- Node39 -->
<g id="node1" class="node"><title>Node39</title>
<polygon fill="#bfbfbf" stroke="black" points="0,-44.5 0,-74.5 204,-74.5 204,-44.5 0,-44.5"/>
<text text-anchor="start" x="8" y="-62.5" font-family="Helvetica,sans-Serif" font-size="10.00">LittleWeebLibrary.Services.</text>
<text text-anchor="middle" x="102" y="-51.5" font-family="Helvetica,sans-Serif" font-size="10.00">DirectoryWebSocketService.GetFreeSpace</text>
</g>
<!-- Node40 -->
<g id="node2" class="node"><title>Node40</title>
<g id="a_node2"><a xlink:href="class_little_weeb_library_1_1_handlers_1_1_directory_handler.html#aa439a303572de6bf09438d38a7fa4698" target="_top" xlink:title="LittleWeebLibrary.Handlers.\lDirectoryHandler.GetFreeSpace">
<polygon fill="white" stroke="black" points="245.5,-88.5 245.5,-118.5 400.5,-118.5 400.5,-88.5 245.5,-88.5"/>
<text text-anchor="start" x="253.5" y="-106.5" font-family="Helvetica,sans-Serif" font-size="10.00">LittleWeebLibrary.Handlers.</text>
<text text-anchor="middle" x="323" y="-95.5" font-family="Helvetica,sans-Serif" font-size="10.00">DirectoryHandler.GetFreeSpace</text>
</a>
</g>
</g>
<!-- Node39&#45;&gt;Node40 -->
<g id="edge1" class="edge"><title>Node39&#45;&gt;Node40</title>
<path fill="none" stroke="midnightblue" d="M177.755,-74.5192C196.941,-78.374 217.715,-82.5478 237.362,-86.4951"/>
<polygon fill="midnightblue" stroke="midnightblue" points="236.717,-89.9354 247.21,-88.4738 238.096,-83.0725 236.717,-89.9354"/>
</g>
<!-- Node43 -->
<g id="node5" class="node"><title>Node43</title>
<g id="a_node5"><a xlink:href="class_little_weeb_library_1_1_handlers_1_1_debug_handler.html#afccb37dfd6b2114af72000c2f4fe4607" target="_top" xlink:title="LittleWeebLibrary.Handlers.\lDebugHandler.TraceMessage">
<polygon fill="white" stroke="black" points="447.5,-39.5 447.5,-69.5 591.5,-69.5 591.5,-39.5 447.5,-39.5"/>
<text text-anchor="start" x="455.5" y="-57.5" font-family="Helvetica,sans-Serif" font-size="10.00">LittleWeebLibrary.Handlers.</text>
<text text-anchor="middle" x="519.5" y="-46.5" font-family="Helvetica,sans-Serif" font-size="10.00">DebugHandler.TraceMessage</text>
</a>
</g>
</g>
<!-- Node39&#45;&gt;Node43 -->
<g id="edge7" class="edge"><title>Node39&#45;&gt;Node43</title>
<path fill="none" stroke="midnightblue" d="M204.111,-58.2833C275.741,-57.4213 370.576,-56.2801 437.289,-55.4773"/>
<polygon fill="midnightblue" stroke="midnightblue" points="437.377,-58.9766 447.334,-55.3564 437.292,-51.9771 437.377,-58.9766"/>
</g>
<!-- Node44 -->
<g id="node6" class="node"><title>Node44</title>
<g id="a_node6"><a xlink:href="class_little_weeb_library_1_1_handlers_1_1_web_socket_handler.html#a1de289d54d665a32c93478c68d3e6ad0" target="_top" xlink:title="LittleWeebLibrary.Handlers.\lWebSocketHandler.SendMessage">
<polygon fill="white" stroke="black" points="240,-0.5 240,-30.5 406,-30.5 406,-0.5 240,-0.5"/>
<text text-anchor="start" x="248" y="-18.5" font-family="Helvetica,sans-Serif" font-size="10.00">LittleWeebLibrary.Handlers.</text>
<text text-anchor="middle" x="323" y="-7.5" font-family="Helvetica,sans-Serif" font-size="10.00">WebSocketHandler.SendMessage</text>
</a>
</g>
</g>
<!-- Node39&#45;&gt;Node44 -->
<g id="edge5" class="edge"><title>Node39&#45;&gt;Node44</title>
<path fill="none" stroke="midnightblue" d="M177.755,-44.4808C196.941,-40.626 217.715,-36.4522 237.362,-32.5049"/>
<polygon fill="midnightblue" stroke="midnightblue" points="238.096,-35.9275 247.21,-30.5262 236.717,-29.0646 238.096,-35.9275"/>
</g>
<!-- Node41 -->
<g id="node3" class="node"><title>Node41</title>
<g id="a_node3"><a xlink:href="class_little_weeb_library_1_1_static_classes_1_1_utility_methods.html#a76fa2aea99ce4b1ad4130cc18b1d5969" target="_top" xlink:title="LittleWeebLibrary.Static\lClasses.UtilityMethods.GetFree\lSpaceKbits">
<polygon fill="white" stroke="black" points="442,-138 442,-179 597,-179 597,-138 442,-138"/>
<text text-anchor="start" x="450" y="-167" font-family="Helvetica,sans-Serif" font-size="10.00">LittleWeebLibrary.Static</text>
<text text-anchor="start" x="450" y="-156" font-family="Helvetica,sans-Serif" font-size="10.00">Classes.UtilityMethods.GetFree</text>
<text text-anchor="middle" x="519.5" y="-145" font-family="Helvetica,sans-Serif" font-size="10.00">SpaceKbits</text>
</a>
</g>
</g>
<!-- Node40&#45;&gt;Node41 -->
<g id="edge2" class="edge"><title>Node40&#45;&gt;Node41</title>
<path fill="none" stroke="midnightblue" d="M377.148,-118.529C395.32,-123.668 416.098,-129.543 436.029,-135.179"/>
<polygon fill="midnightblue" stroke="midnightblue" points="435.155,-138.569 445.73,-137.922 437.059,-131.833 435.155,-138.569"/>
</g>
<!-- Node42 -->
<g id="node4" class="node"><title>Node42</title>
<g id="a_node4"><a xlink:href="class_little_weeb_library_1_1_models_1_1_json_free_space.html#a3ab3c947402838a29e33684edaf16a54" target="_top" xlink:title="LittleWeebLibrary.Models.\lJsonFreeSpace.ToJson">
<polygon fill="white" stroke="black" points="454.5,-88.5 454.5,-118.5 584.5,-118.5 584.5,-88.5 454.5,-88.5"/>
<text text-anchor="start" x="462.5" y="-106.5" font-family="Helvetica,sans-Serif" font-size="10.00">LittleWeebLibrary.Models.</text>
<text text-anchor="middle" x="519.5" y="-95.5" font-family="Helvetica,sans-Serif" font-size="10.00">JsonFreeSpace.ToJson</text>
</a>
</g>
</g>
<!-- Node40&#45;&gt;Node42 -->
<g id="edge3" class="edge"><title>Node40&#45;&gt;Node42</title>
<path fill="none" stroke="midnightblue" d="M400.592,-103.5C414.878,-103.5 429.787,-103.5 444.008,-103.5"/>
<polygon fill="midnightblue" stroke="midnightblue" points="444.223,-107 454.223,-103.5 444.223,-100 444.223,-107"/>
</g>
<!-- Node40&#45;&gt;Node43 -->
<g id="edge4" class="edge"><title>Node40&#45;&gt;Node43</title>
<path fill="none" stroke="midnightblue" d="M383.678,-88.4654C404.308,-83.2682 427.603,-77.3994 448.955,-72.0204"/>
<polygon fill="midnightblue" stroke="midnightblue" points="450.093,-75.3432 458.935,-69.5062 448.383,-68.5553 450.093,-75.3432"/>
</g>
<!-- Node44&#45;&gt;Node43 -->
<g id="edge6" class="edge"><title>Node44&#45;&gt;Node43</title>
<path fill="none" stroke="midnightblue" d="M398.921,-30.5226C411.502,-33.0454 424.611,-35.674 437.342,-38.2266"/>
<polygon fill="midnightblue" stroke="midnightblue" points="436.96,-41.7196 447.453,-40.254 438.336,-34.8562 436.96,-41.7196"/>
</g>
</g>
</svg>
