<?xml version="1.0" encoding="UTF-8" standalone="no"?>
<!DOCTYPE svg PUBLIC "-//W3C//DTD SVG 1.1//EN"
 "http://www.w3.org/Graphics/SVG/1.1/DTD/svg11.dtd">
<!-- Generated by graphviz version 2.38.0 (20140413.2041)
 -->
<!-- Title: LittleWeebLibrary.Services.IrcWebSocketService.Connect Pages: 1 -->
<svg width="539pt" height="413pt"
 viewBox="0.00 0.00 539.00 413.43" xmlns="http://www.w3.org/2000/svg" xmlns:xlink="http://www.w3.org/1999/xlink">
<g id="graph0" class="graph" transform="scale(1 1) rotate(0) translate(4 409.43)">
<title>LittleWeebLibrary.Services.IrcWebSocketService.Connect</title>
<polygon fill="white" stroke="none" points="-4,4 -4,-409.43 535,-409.43 535,4 -4,4"/>
<!-- Node6 -->
<g id="node1" class="node"><title>Node6</title>
<polygon fill="#bfbfbf" stroke="black" points="0,-177.43 0,-207.43 149,-207.43 149,-177.43 0,-177.43"/>
<text text-anchor="start" x="8" y="-195.43" font-family="Helvetica,sans-Serif" font-size="10.00">LittleWeebLibrary.Services.</text>
<text text-anchor="middle" x="74.5" y="-184.43" font-family="Helvetica,sans-Serif" font-size="10.00">IrcWebSocketService.Connect</text>
</g>
<!-- Node7 -->
<g id="node2" class="node"><title>Node7</title>
<g id="a_node2"><a xlink:href="class_little_weeb_library_1_1_static_classes_1_1_utility_methods.html#a9304b6462a585dd9afa13818452638a7" target="_top" xlink:title="LittleWeebLibrary.Static\lClasses.UtilityMethods.Generate\lUsername">
<polygon fill="white" stroke="black" points="188,-363.93 188,-404.93 348,-404.93 348,-363.93 188,-363.93"/>
<text text-anchor="start" x="196" y="-392.93" font-family="Helvetica,sans-Serif" font-size="10.00">LittleWeebLibrary.Static</text>
<text text-anchor="start" x="196" y="-381.93" font-family="Helvetica,sans-Serif" font-size="10.00">Classes.UtilityMethods.Generate</text>
<text text-anchor="middle" x="268" y="-370.93" font-family="Helvetica,sans-Serif" font-size="10.00">Username</text>
</a>
</g>
</g>
<!-- Node6&#45;&gt;Node7 -->
<g id="edge1" class="edge"><title>Node6&#45;&gt;Node7</title>
<path fill="none" stroke="midnightblue" d="M81.8725,-207.714C95.8721,-239.51 132.315,-313.239 185,-354.43 186.795,-355.833 188.662,-357.175 190.586,-358.458"/>
<polygon fill="midnightblue" stroke="midnightblue" points="188.969,-361.569 199.345,-363.713 192.57,-355.567 188.969,-361.569"/>
</g>
<!-- Node8 -->
<g id="node3" class="node"><title>Node8</title>
<g id="a_node3"><a xlink:href="class_little_weeb_library_1_1_handlers_1_1_web_socket_handler.html#a1de289d54d665a32c93478c68d3e6ad0" target="_top" xlink:title="LittleWeebLibrary.Handlers.\lWebSocketHandler.SendMessage">
<polygon fill="white" stroke="black" points="185,-314.43 185,-344.43 351,-344.43 351,-314.43 185,-314.43"/>
<text text-anchor="start" x="193" y="-332.43" font-family="Helvetica,sans-Serif" font-size="10.00">LittleWeebLibrary.Handlers.</text>
<text text-anchor="middle" x="268" y="-321.43" font-family="Helvetica,sans-Serif" font-size="10.00">WebSocketHandler.SendMessage</text>
</a>
</g>
</g>
<!-- Node6&#45;&gt;Node8 -->
<g id="edge2" class="edge"><title>Node6&#45;&gt;Node8</title>
<path fill="none" stroke="midnightblue" d="M87.3997,-207.618C105.994,-230.439 144.073,-273.64 185,-299.43 191.583,-303.578 198.822,-307.269 206.191,-310.519"/>
<polygon fill="midnightblue" stroke="midnightblue" points="204.975,-313.803 215.553,-314.401 207.656,-307.337 204.975,-313.803"/>
</g>
<!-- Node9 -->
<g id="node4" class="node"><title>Node9</title>
<g id="a_node4"><a xlink:href="class_little_weeb_library_1_1_handlers_1_1_debug_handler.html#afccb37dfd6b2114af72000c2f4fe4607" target="_top" xlink:title="LittleWeebLibrary.Handlers.\lDebugHandler.TraceMessage">
<polygon fill="white" stroke="black" points="387,-248.43 387,-278.43 531,-278.43 531,-248.43 387,-248.43"/>
<text text-anchor="start" x="395" y="-266.43" font-family="Helvetica,sans-Serif" font-size="10.00">LittleWeebLibrary.Handlers.</text>
<text text-anchor="middle" x="459" y="-255.43" font-family="Helvetica,sans-Serif" font-size="10.00">DebugHandler.TraceMessage</text>
</a>
</g>
</g>
<!-- Node6&#45;&gt;Node9 -->
<g id="edge10" class="edge"><title>Node6&#45;&gt;Node9</title>
<path fill="none" stroke="midnightblue" d="M91.2913,-207.687C111.23,-225.784 147.484,-254.942 185,-266.43 247.292,-285.505 321.39,-283.232 376.66,-277.037"/>
<polygon fill="midnightblue" stroke="midnightblue" points="377.236,-280.493 386.754,-275.838 376.411,-273.542 377.236,-280.493"/>
</g>
<!-- Node10 -->
<g id="node5" class="node"><title>Node10</title>
<g id="a_node5"><a xlink:href="class_little_weeb_library_1_1_handlers_1_1_irc_client_handler.html#ae463832b8e9aea73f26ed6188a14d92e" target="_top" xlink:title="LittleWeebLibrary.Handlers.\lIrcClientHandler.StartConnection">
<polygon fill="white" stroke="black" points="189,-226.43 189,-256.43 347,-256.43 347,-226.43 189,-226.43"/>
<text text-anchor="start" x="197" y="-244.43" font-family="Helvetica,sans-Serif" font-size="10.00">LittleWeebLibrary.Handlers.</text>
<text text-anchor="middle" x="268" y="-233.43" font-family="Helvetica,sans-Serif" font-size="10.00">IrcClientHandler.StartConnection</text>
</a>
</g>
</g>
<!-- Node6&#45;&gt;Node10 -->
<g id="edge4" class="edge"><title>Node6&#45;&gt;Node10</title>
<path fill="none" stroke="midnightblue" d="M134.258,-207.464C154.569,-212.662 177.505,-218.53 198.528,-223.909"/>
<polygon fill="midnightblue" stroke="midnightblue" points="197.798,-227.335 208.353,-226.423 199.533,-220.554 197.798,-227.335"/>
</g>
<!-- Node11 -->
<g id="node6" class="node"><title>Node11</title>
<g id="a_node6"><a xlink:href="class_little_weeb_library_1_1_models_1_1_json_error.html#a0e3e7dd2e2990404b7f0461742b23440" target="_top" xlink:title="LittleWeebLibrary.Models.\lJsonError.ToJson">
<polygon fill="white" stroke="black" points="203,-177.43 203,-207.43 333,-207.43 333,-177.43 203,-177.43"/>
<text text-anchor="start" x="211" y="-195.43" font-family="Helvetica,sans-Serif" font-size="10.00">LittleWeebLibrary.Models.</text>
<text text-anchor="middle" x="268" y="-184.43" font-family="Helvetica,sans-Serif" font-size="10.00">JsonError.ToJson</text>
</a>
</g>
</g>
<!-- Node6&#45;&gt;Node11 -->
<g id="edge6" class="edge"><title>Node6&#45;&gt;Node11</title>
<path fill="none" stroke="midnightblue" d="M149.265,-192.43C163.509,-192.43 178.439,-192.43 192.7,-192.43"/>
<polygon fill="midnightblue" stroke="midnightblue" points="192.946,-195.93 202.946,-192.43 192.946,-188.93 192.946,-195.93"/>
</g>
<!-- Node12 -->
<g id="node7" class="node"><title>Node12</title>
<g id="a_node7"><a xlink:href="class_little_weeb_library_1_1_models_1_1_json_irc_info.html#af7d4dd885c7289ca28b0147d4feb2b84" target="_top" xlink:title="LittleWeebLibrary.Models.\lJsonIrcInfo.ToJson">
<polygon fill="white" stroke="black" points="203,-128.43 203,-158.43 333,-158.43 333,-128.43 203,-128.43"/>
<text text-anchor="start" x="211" y="-146.43" font-family="Helvetica,sans-Serif" font-size="10.00">LittleWeebLibrary.Models.</text>
<text text-anchor="middle" x="268" y="-135.43" font-family="Helvetica,sans-Serif" font-size="10.00">JsonIrcInfo.ToJson</text>
</a>
</g>
</g>
<!-- Node6&#45;&gt;Node12 -->
<g id="edge7" class="edge"><title>Node6&#45;&gt;Node12</title>
<path fill="none" stroke="midnightblue" d="M134.258,-177.395C154.569,-172.198 177.505,-166.329 198.528,-160.95"/>
<polygon fill="midnightblue" stroke="midnightblue" points="199.533,-164.306 208.353,-158.436 197.798,-157.524 199.533,-164.306"/>
</g>
<!-- Node13 -->
<g id="node8" class="node"><title>Node13</title>
<g id="a_node8"><a xlink:href="class_little_weeb_library_1_1_settings_1_1_irc_settings.html#a2e1d7f26d7d3083d19c3a9e6c6c2d0b2" target="_top" xlink:title="LittleWeebLibrary.Settings.\lIrcSettings.ToString">
<polygon fill="white" stroke="black" points="392,-33.4297 392,-63.4297 526,-63.4297 526,-33.4297 392,-33.4297"/>
<text text-anchor="start" x="400" y="-51.4297" font-family="Helvetica,sans-Serif" font-size="10.00">LittleWeebLibrary.Settings.</text>
<text text-anchor="middle" x="459" y="-40.4297" font-family="Helvetica,sans-Serif" font-size="10.00">IrcSettings.ToString</text>
</a>
</g>
</g>
<!-- Node6&#45;&gt;Node13 -->
<g id="edge8" class="edge"><title>Node6&#45;&gt;Node13</title>
<path fill="none" stroke="midnightblue" d="M79.6935,-177.291C90.3777,-142.034 122.314,-54.833 185,-20.4297 258.044,19.6588 358.692,-8.0914 415.142,-29.7025"/>
<polygon fill="midnightblue" stroke="midnightblue" points="413.894,-32.9726 424.482,-33.3772 416.457,-26.4587 413.894,-32.9726"/>
</g>
<!-- Node14 -->
<g id="node9" class="node"><title>Node14</title>
<g id="a_node9"><a xlink:href="class_little_weeb_library_1_1_models_1_1_json_error.html#ad7d5522c90119111d2e929f39e7f6d3c" target="_top" xlink:title="LittleWeebLibrary.Models.\lJsonError.ToString">
<polygon fill="white" stroke="black" points="203,-30.4297 203,-60.4297 333,-60.4297 333,-30.4297 203,-30.4297"/>
<text text-anchor="start" x="211" y="-48.4297" font-family="Helvetica,sans-Serif" font-size="10.00">LittleWeebLibrary.Models.</text>
<text text-anchor="middle" x="268" y="-37.4297" font-family="Helvetica,sans-Serif" font-size="10.00">JsonError.ToString</text>
</a>
</g>
</g>
<!-- Node6&#45;&gt;Node14 -->
<g id="edge9" class="edge"><title>Node6&#45;&gt;Node14</title>
<path fill="none" stroke="midnightblue" d="M85.0239,-177.268C101.979,-151.508 139.885,-99.1966 185,-70.4297 188.294,-68.3292 191.775,-66.3967 195.369,-64.6197"/>
<polygon fill="midnightblue" stroke="midnightblue" points="196.811,-67.8088 204.497,-60.5159 193.941,-61.4244 196.811,-67.8088"/>
</g>
<!-- Node15 -->
<g id="node10" class="node"><title>Node15</title>
<g id="a_node10"><a xlink:href="class_little_weeb_library_1_1_handlers_1_1_settings_handler.html#ad42462e9e851301c5f5b91663dc3fe24" target="_top" xlink:title="LittleWeebLibrary.Handlers.\lSettingsHandler.WriteIrcSettings">
<polygon fill="white" stroke="black" points="189,-79.4297 189,-109.43 347,-109.43 347,-79.4297 189,-79.4297"/>
<text text-anchor="start" x="197" y="-97.4297" font-family="Helvetica,sans-Serif" font-size="10.00">LittleWeebLibrary.Handlers.</text>
<text text-anchor="middle" x="268" y="-86.4297" font-family="Helvetica,sans-Serif" font-size="10.00">SettingsHandler.WriteIrcSettings</text>
</a>
</g>
</g>
<!-- Node6&#45;&gt;Node15 -->
<g id="edge11" class="edge"><title>Node6&#45;&gt;Node15</title>
<path fill="none" stroke="midnightblue" d="M94.2545,-177.427C115.285,-161.219 150.924,-135.554 185,-119.43 189.877,-117.122 195.016,-114.967 200.247,-112.967"/>
<polygon fill="midnightblue" stroke="midnightblue" points="201.512,-116.231 209.723,-109.535 199.129,-109.649 201.512,-116.231"/>
</g>
<!-- Node8&#45;&gt;Node9 -->
<g id="edge3" class="edge"><title>Node8&#45;&gt;Node9</title>
<path fill="none" stroke="midnightblue" d="M312.36,-314.288C339.972,-304.646 375.92,-292.093 405.192,-281.871"/>
<polygon fill="midnightblue" stroke="midnightblue" points="406.554,-285.102 414.841,-278.501 404.247,-278.494 406.554,-285.102"/>
</g>
<!-- Node10&#45;&gt;Node9 -->
<g id="edge5" class="edge"><title>Node10&#45;&gt;Node9</title>
<path fill="none" stroke="midnightblue" d="M347.238,-250.537C356.961,-251.668 366.92,-252.828 376.688,-253.965"/>
<polygon fill="midnightblue" stroke="midnightblue" points="376.443,-257.46 386.78,-255.14 377.252,-250.507 376.443,-257.46"/>
</g>
<!-- Node15&#45;&gt;Node9 -->
<g id="edge13" class="edge"><title>Node15&#45;&gt;Node9</title>
<path fill="none" stroke="midnightblue" d="M333.132,-109.522C339.442,-112.298 345.525,-115.572 351,-119.43 395.762,-150.971 429.508,-207.107 446.257,-239.179"/>
<polygon fill="midnightblue" stroke="midnightblue" points="443.248,-240.982 450.903,-248.306 449.486,-237.807 443.248,-240.982"/>
</g>
<!-- Node15&#45;&gt;Node13 -->
<g id="edge12" class="edge"><title>Node15&#45;&gt;Node13</title>
<path fill="none" stroke="midnightblue" d="M330.886,-79.3676C348.681,-75.0365 368.234,-70.2774 386.556,-65.8181"/>
<polygon fill="midnightblue" stroke="midnightblue" points="387.41,-69.2127 396.298,-63.447 385.754,-62.4112 387.41,-69.2127"/>
</g>
</g>
</svg>
