<?xml version="1.0" encoding="UTF-8" standalone="no"?>
<!DOCTYPE svg PUBLIC "-//W3C//DTD SVG 1.1//EN"
 "http://www.w3.org/Graphics/SVG/1.1/DTD/svg11.dtd">
<!-- Generated by graphviz version 2.38.0 (20140413.2041)
 -->
<!-- Title: LittleWeebLibrary.Handlers.FileHistoryHandler Pages: 1 -->
<svg width="159pt" height="237pt"
 viewBox="0.00 0.00 159.00 237.00" xmlns="http://www.w3.org/2000/svg" xmlns:xlink="http://www.w3.org/1999/xlink">
<g id="graph0" class="graph" transform="scale(1 1) rotate(0) translate(4 233)">
<title>LittleWeebLibrary.Handlers.FileHistoryHandler</title>
<polygon fill="white" stroke="none" points="-4,4 -4,-233 155,-233 155,4 -4,4"/>
<!-- Node0 -->
<g id="node1" class="node"><title>Node0</title>
<polygon fill="#bfbfbf" stroke="black" points="0,-0.5 0,-112.5 151,-112.5 151,-0.5 0,-0.5"/>
<text text-anchor="start" x="8" y="-100.5" font-family="Helvetica,sans-Serif" font-size="10.00">LittleWeebLibrary.Handlers.</text>
<text text-anchor="middle" x="75.5" y="-89.5" font-family="Helvetica,sans-Serif" font-size="10.00">FileHistoryHandler</text>
<polyline fill="none" stroke="black" points="0,-82.5 151,-82.5 "/>
<text text-anchor="start" x="8" y="-70.5" font-family="Helvetica,sans-Serif" font-size="10.00">&#45; DataBaseHandler</text>
<text text-anchor="start" x="8" y="-59.5" font-family="Helvetica,sans-Serif" font-size="10.00">&#45; DebugHandler</text>
<polyline fill="none" stroke="black" points="0,-52.5 151,-52.5 "/>
<text text-anchor="start" x="8" y="-40.5" font-family="Helvetica,sans-Serif" font-size="10.00">+ FileHistoryHandler()</text>
<text text-anchor="start" x="8" y="-29.5" font-family="Helvetica,sans-Serif" font-size="10.00">+ AddFileToFileHistory()</text>
<text text-anchor="start" x="8" y="-18.5" font-family="Helvetica,sans-Serif" font-size="10.00">+ GetCurrentFileHistory()</text>
<text text-anchor="start" x="8" y="-7.5" font-family="Helvetica,sans-Serif" font-size="10.00">+ RemoveFileFromFileHistory()</text>
</g>
<!-- Node1 -->
<g id="node2" class="node"><title>Node1</title>
<g id="a_node2"><a xlink:href="interface_little_weeb_library_1_1_handlers_1_1_i_file_history_handler.html" target="_top" xlink:title="{IFileHistoryHandler\n||+ AddFileToFileHistory()\l+ GetCurrentFileHistory()\l+ RemoveFileFromFileHistory()\l}">
<polygon fill="white" stroke="black" points="0,-149.5 0,-228.5 151,-228.5 151,-149.5 0,-149.5"/>
<text text-anchor="middle" x="75.5" y="-216.5" font-family="Helvetica,sans-Serif" font-size="10.00">IFileHistoryHandler</text>
<polyline fill="none" stroke="black" points="0,-209.5 151,-209.5 "/>
<text text-anchor="middle" x="75.5" y="-197.5" font-family="Helvetica,sans-Serif" font-size="10.00"> </text>
<polyline fill="none" stroke="black" points="0,-190.5 151,-190.5 "/>
<text text-anchor="start" x="8" y="-178.5" font-family="Helvetica,sans-Serif" font-size="10.00">+ AddFileToFileHistory()</text>
<text text-anchor="start" x="8" y="-167.5" font-family="Helvetica,sans-Serif" font-size="10.00">+ GetCurrentFileHistory()</text>
<text text-anchor="start" x="8" y="-156.5" font-family="Helvetica,sans-Serif" font-size="10.00">+ RemoveFileFromFileHistory()</text>
</a>
</g>
</g>
<!-- Node1&#45;&gt;Node0 -->
<g id="edge1" class="edge"><title>Node1&#45;&gt;Node0</title>
<path fill="none" stroke="midnightblue" d="M75.5,-139.012C75.5,-130.464 75.5,-121.518 75.5,-112.814"/>
<polygon fill="none" stroke="midnightblue" points="72.0001,-139.199 75.5,-149.199 79.0001,-139.199 72.0001,-139.199"/>
</g>
</g>
</svg>
