<?xml version="1.0" encoding="UTF-8" standalone="no"?>
<!DOCTYPE svg PUBLIC "-//W3C//DTD SVG 1.1//EN"
 "http://www.w3.org/Graphics/SVG/1.1/DTD/svg11.dtd">
<!-- Generated by graphviz version 2.38.0 (20140413.2041)
 -->
<!-- Title: LittleWeebLibrary.Handlers.DirectoryHandler.GetDirectories Pages: 1 -->
<svg width="610pt" height="50pt"
 viewBox="0.00 0.00 610.00 50.00" xmlns="http://www.w3.org/2000/svg" xmlns:xlink="http://www.w3.org/1999/xlink">
<g id="graph0" class="graph" transform="scale(1 1) rotate(0) translate(4 46)">
<title>LittleWeebLibrary.Handlers.DirectoryHandler.GetDirectories</title>
<polygon fill="white" stroke="none" points="-4,4 -4,-46 606,-46 606,4 -4,4"/>
<!-- Node17 -->
<g id="node1" class="node"><title>Node17</title>
<polygon fill="#bfbfbf" stroke="black" points="0,-6 0,-36 154,-36 154,-6 0,-6"/>
<text text-anchor="start" x="8" y="-24" font-family="Helvetica,sans-Serif" font-size="10.00">LittleWeebLibrary.Handlers.</text>
<text text-anchor="middle" x="77" y="-13" font-family="Helvetica,sans-Serif" font-size="10.00">DirectoryHandler.GetDirectories</text>
</g>
<!-- Node18 -->
<g id="node2" class="node"><title>Node18</title>
<g id="a_node2"><a xlink:href="class_little_weeb_library_1_1_services_1_1_directory_web_socket_service.html#a1fee74b9f658b29f4c2bb643a48425e0" target="_top" xlink:title="LittleWeebLibrary.Services.\lDirectoryWebSocketService.GetDirectories">
<polygon fill="white" stroke="black" points="190,-6 190,-36 393,-36 393,-6 190,-6"/>
<text text-anchor="start" x="198" y="-24" font-family="Helvetica,sans-Serif" font-size="10.00">LittleWeebLibrary.Services.</text>
<text text-anchor="middle" x="291.5" y="-13" font-family="Helvetica,sans-Serif" font-size="10.00">DirectoryWebSocketService.GetDirectories</text>
</a>
</g>
</g>
<!-- Node17&#45;&gt;Node18 -->
<g id="edge1" class="edge"><title>Node17&#45;&gt;Node18</title>
<path fill="none" stroke="midnightblue" d="M164.25,-21C172.639,-21 181.201,-21 189.716,-21"/>
<polygon fill="midnightblue" stroke="midnightblue" points="164.117,-17.5001 154.117,-21 164.117,-24.5001 164.117,-17.5001"/>
</g>
<!-- Node19 -->
<g id="node3" class="node"><title>Node19</title>
<g id="a_node3"><a xlink:href="class_little_weeb_library_1_1_controllers_1_1_sub_controllers_1_1_directory_web_socket_controller.html#a2db42c05c620f5658a5b6e473581f84c" target="_top" xlink:title="LittleWeebLibrary.Controllers.\lSubControllers.DirectoryWebSocket\lController.OnWebSocketEvent">
<polygon fill="white" stroke="black" points="429,-0.5 429,-41.5 602,-41.5 602,-0.5 429,-0.5"/>
<text text-anchor="start" x="437" y="-29.5" font-family="Helvetica,sans-Serif" font-size="10.00">LittleWeebLibrary.Controllers.</text>
<text text-anchor="start" x="437" y="-18.5" font-family="Helvetica,sans-Serif" font-size="10.00">SubControllers.DirectoryWebSocket</text>
<text text-anchor="middle" x="515.5" y="-7.5" font-family="Helvetica,sans-Serif" font-size="10.00">Controller.OnWebSocketEvent</text>
</a>
</g>
</g>
<!-- Node18&#45;&gt;Node19 -->
<g id="edge2" class="edge"><title>Node18&#45;&gt;Node19</title>
<path fill="none" stroke="midnightblue" d="M403.2,-21C411.809,-21 420.421,-21 428.828,-21"/>
<polygon fill="midnightblue" stroke="midnightblue" points="403.107,-17.5001 393.107,-21 403.107,-24.5001 403.107,-17.5001"/>
</g>
</g>
</svg>
