<?xml version="1.0" encoding="UTF-8" standalone="no"?>
<!DOCTYPE svg PUBLIC "-//W3C//DTD SVG 1.1//EN"
 "http://www.w3.org/Graphics/SVG/1.1/DTD/svg11.dtd">
<!-- Generated by graphviz version 2.38.0 (20140413.2041)
 -->
<!-- Title: LittleWeebLibrary.Handlers.DirectoryHandler.OpenDirectory Pages: 1 -->
<svg width="346pt" height="198pt"
 viewBox="0.00 0.00 346.00 197.50" xmlns="http://www.w3.org/2000/svg" xmlns:xlink="http://www.w3.org/1999/xlink">
<g id="graph0" class="graph" transform="scale(1 1) rotate(0) translate(4 193.5)">
<title>LittleWeebLibrary.Handlers.DirectoryHandler.OpenDirectory</title>
<polygon fill="white" stroke="none" points="-4,4 -4,-193.5 342,-193.5 342,4 -4,4"/>
<!-- Node35 -->
<g id="node1" class="node"><title>Node35</title>
<polygon fill="#bfbfbf" stroke="black" points="0,-73.5 0,-103.5 154,-103.5 154,-73.5 0,-73.5"/>
<text text-anchor="start" x="8" y="-91.5" font-family="Helvetica,sans-Serif" font-size="10.00">LittleWeebLibrary.Handlers.</text>
<text text-anchor="middle" x="77" y="-80.5" font-family="Helvetica,sans-Serif" font-size="10.00">DirectoryHandler.OpenDirectory</text>
</g>
<!-- Node36 -->
<g id="node2" class="node"><title>Node36</title>
<g id="a_node2"><a xlink:href="class_little_weeb_library_1_1_static_classes_1_1_utility_methods.html#afc8c716f32bc35d59afdb287be06c3ca" target="_top" xlink:title="LittleWeebLibrary.Static\lClasses.UtilityMethods.Check\lOperatingSystems">
<polygon fill="white" stroke="black" points="190,-148 190,-189 338,-189 338,-148 190,-148"/>
<text text-anchor="start" x="198" y="-177" font-family="Helvetica,sans-Serif" font-size="10.00">LittleWeebLibrary.Static</text>
<text text-anchor="start" x="198" y="-166" font-family="Helvetica,sans-Serif" font-size="10.00">Classes.UtilityMethods.Check</text>
<text text-anchor="middle" x="264" y="-155" font-family="Helvetica,sans-Serif" font-size="10.00">OperatingSystems</text>
</a>
</g>
</g>
<!-- Node35&#45;&gt;Node36 -->
<g id="edge1" class="edge"><title>Node35&#45;&gt;Node36</title>
<path fill="none" stroke="midnightblue" d="M111.211,-103.639C133.436,-113.694 163.382,-127.092 190,-138.5 194.15,-140.279 198.441,-142.097 202.769,-143.914"/>
<polygon fill="midnightblue" stroke="midnightblue" points="201.682,-147.253 212.259,-147.877 204.38,-140.794 201.682,-147.253"/>
</g>
<!-- Node37 -->
<g id="node3" class="node"><title>Node37</title>
<g id="a_node3"><a xlink:href="class_little_weeb_library_1_1_models_1_1_json_success.html#a407103dc37a77aaf47a782296bab7518" target="_top" xlink:title="LittleWeebLibrary.Models.\lJsonSuccess.ToJson">
<polygon fill="white" stroke="black" points="199,-98.5 199,-128.5 329,-128.5 329,-98.5 199,-98.5"/>
<text text-anchor="start" x="207" y="-116.5" font-family="Helvetica,sans-Serif" font-size="10.00">LittleWeebLibrary.Models.</text>
<text text-anchor="middle" x="264" y="-105.5" font-family="Helvetica,sans-Serif" font-size="10.00">JsonSuccess.ToJson</text>
</a>
</g>
</g>
<!-- Node35&#45;&gt;Node37 -->
<g id="edge2" class="edge"><title>Node35&#45;&gt;Node37</title>
<path fill="none" stroke="midnightblue" d="M154.047,-98.7767C165.532,-100.329 177.367,-101.928 188.812,-103.475"/>
<polygon fill="midnightblue" stroke="midnightblue" points="188.372,-106.947 198.751,-104.818 189.31,-100.01 188.372,-106.947"/>
</g>
<!-- Node38 -->
<g id="node4" class="node"><title>Node38</title>
<g id="a_node4"><a xlink:href="class_little_weeb_library_1_1_models_1_1_json_error.html#a0e3e7dd2e2990404b7f0461742b23440" target="_top" xlink:title="LittleWeebLibrary.Models.\lJsonError.ToJson">
<polygon fill="white" stroke="black" points="199,-49.5 199,-79.5 329,-79.5 329,-49.5 199,-49.5"/>
<text text-anchor="start" x="207" y="-67.5" font-family="Helvetica,sans-Serif" font-size="10.00">LittleWeebLibrary.Models.</text>
<text text-anchor="middle" x="264" y="-56.5" font-family="Helvetica,sans-Serif" font-size="10.00">JsonError.ToJson</text>
</a>
</g>
</g>
<!-- Node35&#45;&gt;Node38 -->
<g id="edge3" class="edge"><title>Node35&#45;&gt;Node38</title>
<path fill="none" stroke="midnightblue" d="M154.047,-78.6344C165.532,-77.1444 177.367,-75.6091 188.812,-74.1244"/>
<polygon fill="midnightblue" stroke="midnightblue" points="189.284,-77.5925 198.751,-72.835 188.384,-70.6507 189.284,-77.5925"/>
</g>
<!-- Node39 -->
<g id="node5" class="node"><title>Node39</title>
<g id="a_node5"><a xlink:href="class_little_weeb_library_1_1_handlers_1_1_debug_handler.html#afccb37dfd6b2114af72000c2f4fe4607" target="_top" xlink:title="LittleWeebLibrary.Handlers.\lDebugHandler.TraceMessage">
<polygon fill="white" stroke="black" points="192,-0.5 192,-30.5 336,-30.5 336,-0.5 192,-0.5"/>
<text text-anchor="start" x="200" y="-18.5" font-family="Helvetica,sans-Serif" font-size="10.00">LittleWeebLibrary.Handlers.</text>
<text text-anchor="middle" x="264" y="-7.5" font-family="Helvetica,sans-Serif" font-size="10.00">DebugHandler.TraceMessage</text>
</a>
</g>
</g>
<!-- Node35&#45;&gt;Node39 -->
<g id="edge4" class="edge"><title>Node35&#45;&gt;Node39</title>
<path fill="none" stroke="midnightblue" d="M111.548,-73.3423C133.658,-63.5461 163.347,-50.7587 190,-40.5 195.743,-38.2895 201.776,-36.0673 207.809,-33.9088"/>
<polygon fill="midnightblue" stroke="midnightblue" points="208.982,-37.2065 217.249,-30.5801 206.654,-30.6049 208.982,-37.2065"/>
</g>
</g>
</svg>
