<?xml version="1.0" encoding="UTF-8" standalone="no"?>
<!DOCTYPE svg PUBLIC "-//W3C//DTD SVG 1.1//EN"
 "http://www.w3.org/Graphics/SVG/1.1/DTD/svg11.dtd">
<!-- Generated by graphviz version 2.38.0 (20140413.2041)
 -->
<!-- Title: LittleWeebLibrary.Handlers.FileHistoryHandler.RemoveFileFromFileHistory Pages: 1 -->
<svg width="601pt" height="215pt"
 viewBox="0.00 0.00 601.00 215.00" xmlns="http://www.w3.org/2000/svg" xmlns:xlink="http://www.w3.org/1999/xlink">
<g id="graph0" class="graph" transform="scale(1 1) rotate(0) translate(4 211)">
<title>LittleWeebLibrary.Handlers.FileHistoryHandler.RemoveFileFromFileHistory</title>
<polygon fill="white" stroke="none" points="-4,4 -4,-211 597,-211 597,4 -4,4"/>
<!-- Node15 -->
<g id="node1" class="node"><title>Node15</title>
<polygon fill="#bfbfbf" stroke="black" points="0,-66 0,-107 172,-107 172,-66 0,-66"/>
<text text-anchor="start" x="8" y="-95" font-family="Helvetica,sans-Serif" font-size="10.00">LittleWeebLibrary.Handlers.</text>
<text text-anchor="start" x="8" y="-84" font-family="Helvetica,sans-Serif" font-size="10.00">FileHistoryHandler.RemoveFileFrom</text>
<text text-anchor="middle" x="86" y="-73" font-family="Helvetica,sans-Serif" font-size="10.00">FileHistory</text>
</g>
<!-- Node16 -->
<g id="node2" class="node"><title>Node16</title>
<g id="a_node2"><a xlink:href="class_little_weeb_library_1_1_handlers_1_1_data_base_handler.html#a7f61583807f99b7838a33d2db0f7ca68" target="_top" xlink:title="LittleWeebLibrary.Handlers.\lDataBaseHandler.GetJObject">
<polygon fill="white" stroke="black" points="217.5,-137.5 217.5,-167.5 361.5,-167.5 361.5,-137.5 217.5,-137.5"/>
<text text-anchor="start" x="225.5" y="-155.5" font-family="Helvetica,sans-Serif" font-size="10.00">LittleWeebLibrary.Handlers.</text>
<text text-anchor="middle" x="289.5" y="-144.5" font-family="Helvetica,sans-Serif" font-size="10.00">DataBaseHandler.GetJObject</text>
</a>
</g>
</g>
<!-- Node15&#45;&gt;Node16 -->
<g id="edge1" class="edge"><title>Node15&#45;&gt;Node16</title>
<path fill="none" stroke="midnightblue" d="M149.651,-107.021C176.286,-115.745 207.087,-125.834 232.902,-134.289"/>
<polygon fill="midnightblue" stroke="midnightblue" points="231.94,-137.657 242.532,-137.444 234.119,-131.005 231.94,-137.657"/>
</g>
<!-- Node18 -->
<g id="node4" class="node"><title>Node18</title>
<g id="a_node4"><a xlink:href="class_little_weeb_library_1_1_handlers_1_1_debug_handler.html#afccb37dfd6b2114af72000c2f4fe4607" target="_top" xlink:title="LittleWeebLibrary.Handlers.\lDebugHandler.TraceMessage">
<polygon fill="white" stroke="black" points="428,-59.5 428,-89.5 572,-89.5 572,-59.5 428,-59.5"/>
<text text-anchor="start" x="436" y="-77.5" font-family="Helvetica,sans-Serif" font-size="10.00">LittleWeebLibrary.Handlers.</text>
<text text-anchor="middle" x="500" y="-66.5" font-family="Helvetica,sans-Serif" font-size="10.00">DebugHandler.TraceMessage</text>
</a>
</g>
</g>
<!-- Node15&#45;&gt;Node18 -->
<g id="edge7" class="edge"><title>Node15&#45;&gt;Node18</title>
<path fill="none" stroke="midnightblue" d="M172.275,-88.0861C184.27,-88.2577 196.445,-88.4045 208,-88.5 280.442,-89.0987 298.663,-92.4442 371,-88.5 386.106,-87.6763 402.171,-86.3098 417.632,-84.7449"/>
<polygon fill="midnightblue" stroke="midnightblue" points="418.107,-88.2143 427.688,-83.6916 417.378,-81.2524 418.107,-88.2143"/>
</g>
<!-- Node20 -->
<g id="node6" class="node"><title>Node20</title>
<g id="a_node6"><a xlink:href="class_little_weeb_library_1_1_handlers_1_1_data_base_handler.html#a7821535a003c7675c09ba846bd9502ca" target="_top" xlink:title="LittleWeebLibrary.Handlers.\lDataBaseHandler.RemoveJObject">
<polygon fill="white" stroke="black" points="208,-49.5 208,-79.5 371,-79.5 371,-49.5 208,-49.5"/>
<text text-anchor="start" x="216" y="-67.5" font-family="Helvetica,sans-Serif" font-size="10.00">LittleWeebLibrary.Handlers.</text>
<text text-anchor="middle" x="289.5" y="-56.5" font-family="Helvetica,sans-Serif" font-size="10.00">DataBaseHandler.RemoveJObject</text>
</a>
</g>
</g>
<!-- Node15&#45;&gt;Node20 -->
<g id="edge5" class="edge"><title>Node15&#45;&gt;Node20</title>
<path fill="none" stroke="midnightblue" d="M172.162,-77.2019C180.654,-76.2747 189.298,-75.331 197.843,-74.398"/>
<polygon fill="midnightblue" stroke="midnightblue" points="198.254,-77.874 207.815,-73.3092 197.495,-70.9154 198.254,-77.874"/>
</g>
<!-- Node21 -->
<g id="node7" class="node"><title>Node21</title>
<g id="a_node7"><a xlink:href="class_little_weeb_library_1_1_handlers_1_1_data_base_handler.html#a9b2223ff71f688234f95d247ea3b5739" target="_top" xlink:title="LittleWeebLibrary.Handlers.\lDataBaseHandler.UpdateJObject">
<polygon fill="white" stroke="black" points="210,-0.5 210,-30.5 369,-30.5 369,-0.5 210,-0.5"/>
<text text-anchor="start" x="218" y="-18.5" font-family="Helvetica,sans-Serif" font-size="10.00">LittleWeebLibrary.Handlers.</text>
<text text-anchor="middle" x="289.5" y="-7.5" font-family="Helvetica,sans-Serif" font-size="10.00">DataBaseHandler.UpdateJObject</text>
</a>
</g>
</g>
<!-- Node15&#45;&gt;Node21 -->
<g id="edge8" class="edge"><title>Node15&#45;&gt;Node21</title>
<path fill="none" stroke="midnightblue" d="M137.295,-65.9166C158.911,-57.3434 184.549,-47.5357 208,-39.5 213.885,-37.4835 220.044,-35.4726 226.222,-33.5216"/>
<polygon fill="midnightblue" stroke="midnightblue" points="227.397,-36.8214 235.909,-30.5125 225.321,-30.1364 227.397,-36.8214"/>
</g>
<!-- Node17 -->
<g id="node3" class="node"><title>Node17</title>
<g id="a_node3"><a xlink:href="class_little_weeb_library_1_1_static_classes_1_1_utility_methods.html#a7b5de7a3ecc749b655fc3ed2af55360b" target="_top" xlink:title="LittleWeebLibrary.Static\lClasses.UtilityMethods.ReadBinaryFile">
<polygon fill="white" stroke="black" points="407,-176.5 407,-206.5 593,-206.5 593,-176.5 407,-176.5"/>
<text text-anchor="start" x="415" y="-194.5" font-family="Helvetica,sans-Serif" font-size="10.00">LittleWeebLibrary.Static</text>
<text text-anchor="middle" x="500" y="-183.5" font-family="Helvetica,sans-Serif" font-size="10.00">Classes.UtilityMethods.ReadBinaryFile</text>
</a>
</g>
</g>
<!-- Node16&#45;&gt;Node17 -->
<g id="edge2" class="edge"><title>Node16&#45;&gt;Node17</title>
<path fill="none" stroke="midnightblue" d="M361.671,-165.813C376.67,-168.618 392.689,-171.615 408.297,-174.534"/>
<polygon fill="midnightblue" stroke="midnightblue" points="408.005,-178.04 418.478,-176.438 409.292,-171.159 408.005,-178.04"/>
</g>
<!-- Node16&#45;&gt;Node18 -->
<g id="edge3" class="edge"><title>Node16&#45;&gt;Node18</title>
<path fill="none" stroke="midnightblue" d="M331.046,-137.408C343.831,-132.644 358.008,-127.357 371,-122.5 396.889,-112.822 425.712,-102.016 449.442,-93.1112"/>
<polygon fill="midnightblue" stroke="midnightblue" points="450.807,-96.3373 458.939,-89.5467 448.347,-89.7837 450.807,-96.3373"/>
</g>
<!-- Node19 -->
<g id="node5" class="node"><title>Node19</title>
<g id="a_node5"><a xlink:href="class_little_weeb_library_1_1_static_classes_1_1_utility_methods.html#a0a86ee01a3bf201bd9cc9b2552e54976" target="_top" xlink:title="LittleWeebLibrary.Static\lClasses.UtilityMethods.Unzip">
<polygon fill="white" stroke="black" points="427.5,-127.5 427.5,-157.5 572.5,-157.5 572.5,-127.5 427.5,-127.5"/>
<text text-anchor="start" x="435.5" y="-145.5" font-family="Helvetica,sans-Serif" font-size="10.00">LittleWeebLibrary.Static</text>
<text text-anchor="middle" x="500" y="-134.5" font-family="Helvetica,sans-Serif" font-size="10.00">Classes.UtilityMethods.Unzip</text>
</a>
</g>
</g>
<!-- Node16&#45;&gt;Node19 -->
<g id="edge4" class="edge"><title>Node16&#45;&gt;Node19</title>
<path fill="none" stroke="midnightblue" d="M361.671,-149.087C379.587,-148.227 398.958,-147.298 417.345,-146.416"/>
<polygon fill="midnightblue" stroke="midnightblue" points="417.621,-149.907 427.442,-145.932 417.286,-142.915 417.621,-149.907"/>
</g>
<!-- Node20&#45;&gt;Node18 -->
<g id="edge6" class="edge"><title>Node20&#45;&gt;Node18</title>
<path fill="none" stroke="midnightblue" d="M371.112,-68.3663C386.288,-69.0941 402.17,-69.8559 417.377,-70.5852"/>
<polygon fill="midnightblue" stroke="midnightblue" points="417.624,-74.101 427.78,-71.0842 417.96,-67.1091 417.624,-74.101"/>
</g>
<!-- Node21&#45;&gt;Node18 -->
<g id="edge9" class="edge"><title>Node21&#45;&gt;Node18</title>
<path fill="none" stroke="midnightblue" d="M343.653,-30.5408C371.836,-38.516 406.639,-48.3642 436.154,-56.7164"/>
<polygon fill="midnightblue" stroke="midnightblue" points="435.369,-60.1315 445.944,-59.4866 437.275,-53.396 435.369,-60.1315"/>
</g>
</g>
</svg>
