<?xml version="1.0" encoding="UTF-8" standalone="no"?>
<!DOCTYPE svg PUBLIC "-//W3C//DTD SVG 1.1//EN"
 "http://www.w3.org/Graphics/SVG/1.1/DTD/svg11.dtd">
<!-- Generated by graphviz version 2.38.0 (20140413.2041)
 -->
<!-- Title: LittleWeebLibrary.Handlers.DownloadHandler.AddDownload Pages: 1 -->
<svg width="624pt" height="50pt"
 viewBox="0.00 0.00 624.00 50.00" xmlns="http://www.w3.org/2000/svg" xmlns:xlink="http://www.w3.org/1999/xlink">
<g id="graph0" class="graph" transform="scale(1 1) rotate(0) translate(4 46)">
<title>LittleWeebLibrary.Handlers.DownloadHandler.AddDownload</title>
<polygon fill="white" stroke="none" points="-4,4 -4,-46 620,-46 620,4 -4,4"/>
<!-- Node11 -->
<g id="node1" class="node"><title>Node11</title>
<polygon fill="#bfbfbf" stroke="black" points="0,-6 0,-36 154,-36 154,-6 0,-6"/>
<text text-anchor="start" x="8" y="-24" font-family="Helvetica,sans-Serif" font-size="10.00">LittleWeebLibrary.Handlers.</text>
<text text-anchor="middle" x="77" y="-13" font-family="Helvetica,sans-Serif" font-size="10.00">DownloadHandler.AddDownload</text>
</g>
<!-- Node12 -->
<g id="node2" class="node"><title>Node12</title>
<g id="a_node2"><a xlink:href="class_little_weeb_library_1_1_services_1_1_download_web_socket_service.html#a7aaa1db63ee81a2e5246e45ef8643087" target="_top" xlink:title="LittleWeebLibrary.Services.\lDownloadWebSocketService.AddDownload">
<polygon fill="white" stroke="black" points="190,-6 190,-36 393,-36 393,-6 190,-6"/>
<text text-anchor="start" x="198" y="-24" font-family="Helvetica,sans-Serif" font-size="10.00">LittleWeebLibrary.Services.</text>
<text text-anchor="middle" x="291.5" y="-13" font-family="Helvetica,sans-Serif" font-size="10.00">DownloadWebSocketService.AddDownload</text>
</a>
</g>
</g>
<!-- Node11&#45;&gt;Node12 -->
<g id="edge1" class="edge"><title>Node11&#45;&gt;Node12</title>
<path fill="none" stroke="midnightblue" d="M164.25,-21C172.639,-21 181.201,-21 189.716,-21"/>
<polygon fill="midnightblue" stroke="midnightblue" points="164.117,-17.5001 154.117,-21 164.117,-24.5001 164.117,-17.5001"/>
</g>
<!-- Node13 -->
<g id="node3" class="node"><title>Node13</title>
<g id="a_node3"><a xlink:href="class_little_weeb_library_1_1_controllers_1_1_download_web_socket_controller.html#a9e5e421ed57b8b2a294e17d93d027c53" target="_top" xlink:title="LittleWeebLibrary.Controllers.\lDownloadWebSocketController.OnWeb\lSocketEvent">
<polygon fill="white" stroke="black" points="429,-0.5 429,-41.5 616,-41.5 616,-0.5 429,-0.5"/>
<text text-anchor="start" x="437" y="-29.5" font-family="Helvetica,sans-Serif" font-size="10.00">LittleWeebLibrary.Controllers.</text>
<text text-anchor="start" x="437" y="-18.5" font-family="Helvetica,sans-Serif" font-size="10.00">DownloadWebSocketController.OnWeb</text>
<text text-anchor="middle" x="522.5" y="-7.5" font-family="Helvetica,sans-Serif" font-size="10.00">SocketEvent</text>
</a>
</g>
</g>
<!-- Node12&#45;&gt;Node13 -->
<g id="edge2" class="edge"><title>Node12&#45;&gt;Node13</title>
<path fill="none" stroke="midnightblue" d="M403.335,-21C411.925,-21 420.542,-21 428.993,-21"/>
<polygon fill="midnightblue" stroke="midnightblue" points="403.276,-17.5001 393.276,-21 403.276,-24.5001 403.276,-17.5001"/>
</g>
</g>
</svg>
