<?xml version="1.0" encoding="UTF-8" standalone="no"?>
<!DOCTYPE svg PUBLIC "-//W3C//DTD SVG 1.1//EN"
 "http://www.w3.org/Graphics/SVG/1.1/DTD/svg11.dtd">
<!-- Generated by graphviz version 2.38.0 (20140413.2041)
 -->
<!-- Title: LittleWeebLibrary.StaticClasses.UtilityMethods.Unzip Pages: 1 -->
<svg width="1333pt" height="598pt"
 viewBox="0.00 0.00 1333.00 598.25" xmlns="http://www.w3.org/2000/svg" xmlns:xlink="http://www.w3.org/1999/xlink">
<g id="graph0" class="graph" transform="scale(1 1) rotate(0) translate(4 594.247)">
<title>LittleWeebLibrary.StaticClasses.UtilityMethods.Unzip</title>
<polygon fill="white" stroke="none" points="-4,4 -4,-594.247 1329,-594.247 1329,4 -4,4"/>
<!-- Node46 -->
<g id="node1" class="node"><title>Node46</title>
<polygon fill="#bfbfbf" stroke="black" points="0,-242.247 0,-272.247 145,-272.247 145,-242.247 0,-242.247"/>
<text text-anchor="start" x="8" y="-260.247" font-family="Helvetica,sans-Serif" font-size="10.00">LittleWeebLibrary.Static</text>
<text text-anchor="middle" x="72.5" y="-249.247" font-family="Helvetica,sans-Serif" font-size="10.00">Classes.UtilityMethods.Unzip</text>
</g>
<!-- Node47 -->
<g id="node2" class="node"><title>Node47</title>
<g id="a_node2"><a xlink:href="class_little_weeb_library_1_1_handlers_1_1_data_base_handler.html#ae04312874502a18b241c1123ef963b90" target="_top" xlink:title="LittleWeebLibrary.Handlers.\lDataBaseHandler.GetCollection">
<polygon fill="white" stroke="black" points="185.5,-499.247 185.5,-529.247 339.5,-529.247 339.5,-499.247 185.5,-499.247"/>
<text text-anchor="start" x="193.5" y="-517.247" font-family="Helvetica,sans-Serif" font-size="10.00">LittleWeebLibrary.Handlers.</text>
<text text-anchor="middle" x="262.5" y="-506.247" font-family="Helvetica,sans-Serif" font-size="10.00">DataBaseHandler.GetCollection</text>
</a>
</g>
</g>
<!-- Node46&#45;&gt;Node47 -->
<g id="edge1" class="edge"><title>Node46&#45;&gt;Node47</title>
<path fill="none" stroke="midnightblue" d="M90.7487,-280.827C128.752,-332.779 218.825,-455.91 250.361,-499.021"/>
<polygon fill="midnightblue" stroke="midnightblue" points="93.4263,-278.559 84.6972,-272.554 87.7765,-282.692 93.4263,-278.559"/>
</g>
<!-- Node53 -->
<g id="node8" class="node"><title>Node53</title>
<g id="a_node8"><a xlink:href="class_little_weeb_library_1_1_handlers_1_1_data_base_handler.html#a7f61583807f99b7838a33d2db0f7ca68" target="_top" xlink:title="LittleWeebLibrary.Handlers.\lDataBaseHandler.GetJObject">
<polygon fill="white" stroke="black" points="190.5,-242.247 190.5,-272.247 334.5,-272.247 334.5,-242.247 190.5,-242.247"/>
<text text-anchor="start" x="198.5" y="-260.247" font-family="Helvetica,sans-Serif" font-size="10.00">LittleWeebLibrary.Handlers.</text>
<text text-anchor="middle" x="262.5" y="-249.247" font-family="Helvetica,sans-Serif" font-size="10.00">DataBaseHandler.GetJObject</text>
</a>
</g>
</g>
<!-- Node46&#45;&gt;Node53 -->
<g id="edge7" class="edge"><title>Node46&#45;&gt;Node53</title>
<path fill="none" stroke="midnightblue" d="M155.3,-257.247C166.99,-257.247 178.936,-257.247 190.399,-257.247"/>
<polygon fill="midnightblue" stroke="midnightblue" points="155.111,-253.748 145.111,-257.247 155.111,-260.748 155.111,-253.748"/>
</g>
<!-- Node73 -->
<g id="node28" class="node"><title>Node73</title>
<g id="a_node28"><a xlink:href="class_little_weeb_library_1_1_handlers_1_1_data_base_handler.html#ac9938b8d47b353d15c8e77e94849896e" target="_top" xlink:title="LittleWeebLibrary.Handlers.\lDataBaseHandler.RemoveJObject">
<polygon fill="white" stroke="black" points="181,-193.247 181,-223.247 344,-223.247 344,-193.247 181,-193.247"/>
<text text-anchor="start" x="189" y="-211.247" font-family="Helvetica,sans-Serif" font-size="10.00">LittleWeebLibrary.Handlers.</text>
<text text-anchor="middle" x="262.5" y="-200.247" font-family="Helvetica,sans-Serif" font-size="10.00">DataBaseHandler.RemoveJObject</text>
</a>
</g>
</g>
<!-- Node46&#45;&gt;Node73 -->
<g id="edge34" class="edge"><title>Node46&#45;&gt;Node73</title>
<path fill="none" stroke="midnightblue" d="M141.114,-239.625C161.682,-234.264 184.084,-228.425 203.925,-223.254"/>
<polygon fill="midnightblue" stroke="midnightblue" points="139.978,-236.304 131.184,-242.213 141.743,-243.077 139.978,-236.304"/>
</g>
<!-- Node48 -->
<g id="node3" class="node"><title>Node48</title>
<g id="a_node3"><a xlink:href="class_little_weeb_library_1_1_services_1_1_data_base_web_socket_service.html#aef8bdd650778c72d639f1e89c1d6dcad" target="_top" xlink:title="LittleWeebLibrary.Services.\lDataBaseWebSocketService.GetCollection">
<polygon fill="white" stroke="black" points="381,-499.247 381,-529.247 584,-529.247 584,-499.247 381,-499.247"/>
<text text-anchor="start" x="389" y="-517.247" font-family="Helvetica,sans-Serif" font-size="10.00">LittleWeebLibrary.Services.</text>
<text text-anchor="middle" x="482.5" y="-506.247" font-family="Helvetica,sans-Serif" font-size="10.00">DataBaseWebSocketService.GetCollection</text>
</a>
</g>
</g>
<!-- Node47&#45;&gt;Node48 -->
<g id="edge2" class="edge"><title>Node47&#45;&gt;Node48</title>
<path fill="none" stroke="midnightblue" d="M349.811,-514.247C359.982,-514.247 370.429,-514.247 380.776,-514.247"/>
<polygon fill="midnightblue" stroke="midnightblue" points="349.746,-510.748 339.746,-514.247 349.746,-517.748 349.746,-510.748"/>
</g>
<!-- Node50 -->
<g id="node5" class="node"><title>Node50</title>
<g id="a_node5"><a xlink:href="class_little_weeb_library_1_1_handlers_1_1_file_history_handler.html#a7e5a72e2cfdc3dfe97066cc7504b4445" target="_top" xlink:title="LittleWeebLibrary.Handlers.\lFileHistoryHandler.GetCurrentFile\lHistory">
<polygon fill="white" stroke="black" points="401.5,-548.747 401.5,-589.747 563.5,-589.747 563.5,-548.747 401.5,-548.747"/>
<text text-anchor="start" x="409.5" y="-577.747" font-family="Helvetica,sans-Serif" font-size="10.00">LittleWeebLibrary.Handlers.</text>
<text text-anchor="start" x="409.5" y="-566.747" font-family="Helvetica,sans-Serif" font-size="10.00">FileHistoryHandler.GetCurrentFile</text>
<text text-anchor="middle" x="482.5" y="-555.747" font-family="Helvetica,sans-Serif" font-size="10.00">History</text>
</a>
</g>
</g>
<!-- Node47&#45;&gt;Node50 -->
<g id="edge4" class="edge"><title>Node47&#45;&gt;Node50</title>
<path fill="none" stroke="midnightblue" d="M332.864,-531.748C354.588,-537.228 378.742,-543.322 401.157,-548.977"/>
<polygon fill="midnightblue" stroke="midnightblue" points="333.622,-528.329 323.069,-529.276 331.909,-535.116 333.622,-528.329"/>
</g>
<!-- Node49 -->
<g id="node4" class="node"><title>Node49</title>
<g id="a_node4"><a xlink:href="class_little_weeb_library_1_1_controllers_1_1_sub_controllers_1_1_data_base_web_socket_controller.html#a655abc0c42c54c9ff3572e4b4271fa3b" target="_top" xlink:title="LittleWeebLibrary.Controllers.\lSubControllers.DataBaseWebSocket\lController.OnWebSocketEvent">
<polygon fill="white" stroke="black" points="637,-474.747 637,-515.747 814,-515.747 814,-474.747 637,-474.747"/>
<text text-anchor="start" x="645" y="-503.747" font-family="Helvetica,sans-Serif" font-size="10.00">LittleWeebLibrary.Controllers.</text>
<text text-anchor="start" x="645" y="-492.747" font-family="Helvetica,sans-Serif" font-size="10.00">SubControllers.DataBaseWebSocket</text>
<text text-anchor="middle" x="725.5" y="-481.747" font-family="Helvetica,sans-Serif" font-size="10.00">Controller.OnWebSocketEvent</text>
</a>
</g>
</g>
<!-- Node48&#45;&gt;Node49 -->
<g id="edge3" class="edge"><title>Node48&#45;&gt;Node49</title>
<path fill="none" stroke="midnightblue" d="M594.565,-505.491C608.708,-504.376 623.026,-503.247 636.732,-502.167"/>
<polygon fill="midnightblue" stroke="midnightblue" points="594.003,-502.025 584.309,-506.3 594.553,-509.003 594.003,-502.025"/>
</g>
<!-- Node51 -->
<g id="node6" class="node"><title>Node51</title>
<g id="a_node6"><a xlink:href="class_little_weeb_library_1_1_services_1_1_download_web_socket_service.html#adb3b1a3aadf9ad491388890e432f6c91" target="_top" xlink:title="LittleWeebLibrary.Services.\lDownloadWebSocketService.GetCurrent\lFileHistory">
<polygon fill="white" stroke="black" points="630,-548.747 630,-589.747 821,-589.747 821,-548.747 630,-548.747"/>
<text text-anchor="start" x="638" y="-577.747" font-family="Helvetica,sans-Serif" font-size="10.00">LittleWeebLibrary.Services.</text>
<text text-anchor="start" x="638" y="-566.747" font-family="Helvetica,sans-Serif" font-size="10.00">DownloadWebSocketService.GetCurrent</text>
<text text-anchor="middle" x="725.5" y="-555.747" font-family="Helvetica,sans-Serif" font-size="10.00">FileHistory</text>
</a>
</g>
</g>
<!-- Node50&#45;&gt;Node51 -->
<g id="edge5" class="edge"><title>Node50&#45;&gt;Node51</title>
<path fill="none" stroke="midnightblue" d="M573.824,-569.247C592.165,-569.247 611.502,-569.247 629.983,-569.247"/>
<polygon fill="midnightblue" stroke="midnightblue" points="573.75,-565.748 563.75,-569.247 573.749,-572.748 573.75,-565.748"/>
</g>
<!-- Node52 -->
<g id="node7" class="node"><title>Node52</title>
<g id="a_node7"><a xlink:href="class_little_weeb_library_1_1_controllers_1_1_download_web_socket_controller.html#a9e5e421ed57b8b2a294e17d93d027c53" target="_top" xlink:title="LittleWeebLibrary.Controllers.\lDownloadWebSocketController.OnWeb\lSocketEvent">
<polygon fill="white" stroke="black" points="880,-548.747 880,-589.747 1067,-589.747 1067,-548.747 880,-548.747"/>
<text text-anchor="start" x="888" y="-577.747" font-family="Helvetica,sans-Serif" font-size="10.00">LittleWeebLibrary.Controllers.</text>
<text text-anchor="start" x="888" y="-566.747" font-family="Helvetica,sans-Serif" font-size="10.00">DownloadWebSocketController.OnWeb</text>
<text text-anchor="middle" x="973.5" y="-555.747" font-family="Helvetica,sans-Serif" font-size="10.00">SocketEvent</text>
</a>
</g>
</g>
<!-- Node51&#45;&gt;Node52 -->
<g id="edge6" class="edge"><title>Node51&#45;&gt;Node52</title>
<path fill="none" stroke="midnightblue" d="M831.701,-569.247C847.701,-569.247 864.111,-569.247 879.817,-569.247"/>
<polygon fill="midnightblue" stroke="midnightblue" points="831.258,-565.748 821.258,-569.247 831.258,-572.748 831.258,-565.748"/>
</g>
<!-- Node54 -->
<g id="node9" class="node"><title>Node54</title>
<g id="a_node9"><a xlink:href="class_little_weeb_library_1_1_handlers_1_1_file_history_handler.html#a615bf14eae35f656b211f0500abe4d29" target="_top" xlink:title="LittleWeebLibrary.Handlers.\lFileHistoryHandler.AddFileToFile\lHistory">
<polygon fill="white" stroke="black" points="403.5,-291.747 403.5,-332.747 561.5,-332.747 561.5,-291.747 403.5,-291.747"/>
<text text-anchor="start" x="411.5" y="-320.747" font-family="Helvetica,sans-Serif" font-size="10.00">LittleWeebLibrary.Handlers.</text>
<text text-anchor="start" x="411.5" y="-309.747" font-family="Helvetica,sans-Serif" font-size="10.00">FileHistoryHandler.AddFileToFile</text>
<text text-anchor="middle" x="482.5" y="-298.747" font-family="Helvetica,sans-Serif" font-size="10.00">History</text>
</a>
</g>
</g>
<!-- Node53&#45;&gt;Node54 -->
<g id="edge8" class="edge"><title>Node53&#45;&gt;Node54</title>
<path fill="none" stroke="midnightblue" d="M332.824,-274.738C355.214,-280.386 380.189,-286.687 403.182,-292.488"/>
<polygon fill="midnightblue" stroke="midnightblue" points="333.622,-271.329 323.069,-272.276 331.909,-278.116 333.622,-271.329"/>
</g>
<!-- Node56 -->
<g id="node11" class="node"><title>Node56</title>
<g id="a_node11"><a xlink:href="class_little_weeb_library_1_1_handlers_1_1_anime_rule_handler.html#a469232c6b73d0ceff935c4ef2d78d039" target="_top" xlink:title="LittleWeebLibrary.Handlers.\lAnimeRuleHandler.AddRules">
<polygon fill="white" stroke="black" points="411.5,-242.247 411.5,-272.247 553.5,-272.247 553.5,-242.247 411.5,-242.247"/>
<text text-anchor="start" x="419.5" y="-260.247" font-family="Helvetica,sans-Serif" font-size="10.00">LittleWeebLibrary.Handlers.</text>
<text text-anchor="middle" x="482.5" y="-249.247" font-family="Helvetica,sans-Serif" font-size="10.00">AnimeRuleHandler.AddRules</text>
</a>
</g>
</g>
<!-- Node53&#45;&gt;Node56 -->
<g id="edge10" class="edge"><title>Node53&#45;&gt;Node56</title>
<path fill="none" stroke="midnightblue" d="M344.82,-257.247C366.657,-257.247 390.082,-257.247 411.261,-257.247"/>
<polygon fill="midnightblue" stroke="midnightblue" points="344.58,-253.748 334.58,-257.247 344.58,-260.748 344.58,-253.748"/>
</g>
<!-- Node59 -->
<g id="node14" class="node"><title>Node59</title>
<g id="a_node14"><a xlink:href="class_little_weeb_library_1_1_handlers_1_1_anime_rule_handler.html#a503fb2839489e1df8b80c9a461c0fd2b" target="_top" xlink:title="LittleWeebLibrary.Handlers.\lAnimeRuleHandler.FilterAnimeRules">
<polygon fill="white" stroke="black" points="395.5,-193.247 395.5,-223.247 569.5,-223.247 569.5,-193.247 395.5,-193.247"/>
<text text-anchor="start" x="403.5" y="-211.247" font-family="Helvetica,sans-Serif" font-size="10.00">LittleWeebLibrary.Handlers.</text>
<text text-anchor="middle" x="482.5" y="-200.247" font-family="Helvetica,sans-Serif" font-size="10.00">AnimeRuleHandler.FilterAnimeRules</text>
</a>
</g>
</g>
<!-- Node53&#45;&gt;Node59 -->
<g id="edge13" class="edge"><title>Node53&#45;&gt;Node59</title>
<path fill="none" stroke="midnightblue" d="M340.281,-239.989C364.572,-234.529 391.208,-228.542 414.738,-223.254"/>
<polygon fill="midnightblue" stroke="midnightblue" points="339.378,-236.605 330.389,-242.213 340.913,-243.435 339.378,-236.605"/>
</g>
<!-- Node62 -->
<g id="node17" class="node"><title>Node62</title>
<g id="a_node17"><a xlink:href="class_little_weeb_library_1_1_services_1_1_info_api_web_socket_service.html#a310f91aba5d17d8202aea81442da2545" target="_top" xlink:title="LittleWeebLibrary.Services.\lInfoApiWebSocketService.GetAllCategories">
<polygon fill="white" stroke="black" points="871,-160.247 871,-190.247 1076,-190.247 1076,-160.247 871,-160.247"/>
<text text-anchor="start" x="879" y="-178.247" font-family="Helvetica,sans-Serif" font-size="10.00">LittleWeebLibrary.Services.</text>
<text text-anchor="middle" x="973.5" y="-167.247" font-family="Helvetica,sans-Serif" font-size="10.00">InfoApiWebSocketService.GetAllCategories</text>
</a>
</g>
</g>
<!-- Node53&#45;&gt;Node62 -->
<g id="edge17" class="edge"><title>Node53&#45;&gt;Node62</title>
<path fill="none" stroke="midnightblue" d="M335.551,-237.562C338.487,-235.926 341.319,-234.158 344,-232.247 366.007,-216.565 355.972,-195.614 380,-183.247 462.723,-140.671 724.329,-154.265 870.745,-165.91"/>
<polygon fill="midnightblue" stroke="midnightblue" points="333.871,-234.489 326.483,-242.082 336.994,-240.754 333.871,-234.489"/>
</g>
<!-- Node63 -->
<g id="node18" class="node"><title>Node63</title>
<g id="a_node18"><a xlink:href="class_little_weeb_library_1_1_services_1_1_info_api_web_socket_service.html#a2882975741be27c69b461509d48e2636" target="_top" xlink:title="LittleWeebLibrary.Services.\lInfoApiWebSocketService.GetAllGenres">
<polygon fill="white" stroke="black" points="878.5,-111.247 878.5,-141.247 1068.5,-141.247 1068.5,-111.247 878.5,-111.247"/>
<text text-anchor="start" x="886.5" y="-129.247" font-family="Helvetica,sans-Serif" font-size="10.00">LittleWeebLibrary.Services.</text>
<text text-anchor="middle" x="973.5" y="-118.247" font-family="Helvetica,sans-Serif" font-size="10.00">InfoApiWebSocketService.GetAllGenres</text>
</a>
</g>
</g>
<!-- Node53&#45;&gt;Node63 -->
<g id="edge19" class="edge"><title>Node53&#45;&gt;Node63</title>
<path fill="none" stroke="midnightblue" d="M337.94,-237.013C340.058,-235.535 342.086,-233.949 344,-232.247 373.439,-206.069 347.427,-173.406 380,-151.247 458.582,-97.7895 731.988,-108.435 878.335,-118.527"/>
<polygon fill="midnightblue" stroke="midnightblue" points="336.119,-234.024 329.376,-242.195 339.743,-240.013 336.119,-234.024"/>
</g>
<!-- Node64 -->
<g id="node19" class="node"><title>Node64</title>
<g id="a_node19"><a xlink:href="class_little_weeb_library_1_1_handlers_1_1_anime_profile_handler.html#aaa89fba506cfcdad18a5aa3f9b860061" target="_top" xlink:title="LittleWeebLibrary.Handlers.\lAnimeProfileHandler.GetAnimeProfile">
<polygon fill="white" stroke="black" points="636.5,-61.2474 636.5,-91.2474 814.5,-91.2474 814.5,-61.2474 636.5,-61.2474"/>
<text text-anchor="start" x="644.5" y="-79.2474" font-family="Helvetica,sans-Serif" font-size="10.00">LittleWeebLibrary.Handlers.</text>
<text text-anchor="middle" x="725.5" y="-68.2474" font-family="Helvetica,sans-Serif" font-size="10.00">AnimeProfileHandler.GetAnimeProfile</text>
</a>
</g>
</g>
<!-- Node53&#45;&gt;Node64 -->
<g id="edge21" class="edge"><title>Node53&#45;&gt;Node64</title>
<path fill="none" stroke="midnightblue" d="M339.482,-236.331C341.061,-235.05 342.571,-233.69 344,-232.247 383.182,-192.685 337.117,-147.765 380,-112.247 452.71,-52.0251 565.808,-52.1291 642.408,-61.2159"/>
<polygon fill="midnightblue" stroke="midnightblue" points="337.334,-233.56 331.076,-242.11 341.3,-239.329 337.334,-233.56"/>
</g>
<!-- Node66 -->
<g id="node21" class="node"><title>Node66</title>
<g id="a_node21"><a xlink:href="class_little_weeb_library_1_1_services_1_1_info_api_web_socket_service.html#a5f91364bc403db5d521f15881a385143" target="_top" xlink:title="LittleWeebLibrary.Services.\lInfoApiWebSocketService.GetBotList">
<polygon fill="white" stroke="black" points="636.5,-12.2474 636.5,-42.2474 814.5,-42.2474 814.5,-12.2474 636.5,-12.2474"/>
<text text-anchor="start" x="644.5" y="-30.2474" font-family="Helvetica,sans-Serif" font-size="10.00">LittleWeebLibrary.Services.</text>
<text text-anchor="middle" x="725.5" y="-19.2474" font-family="Helvetica,sans-Serif" font-size="10.00">InfoApiWebSocketService.GetBotList</text>
</a>
</g>
</g>
<!-- Node53&#45;&gt;Node66 -->
<g id="edge24" class="edge"><title>Node53&#45;&gt;Node66</title>
<path fill="none" stroke="midnightblue" d="M340.27,-235.97C341.574,-234.794 342.821,-233.555 344,-232.247 398.361,-171.999 319.197,-106.989 380,-53.2474 458.085,15.7689 588.869,3.0778 664.848,-12.2015"/>
<polygon fill="midnightblue" stroke="midnightblue" points="338.111,-233.214 332.226,-242.024 342.321,-238.807 338.111,-233.214"/>
</g>
<!-- Node67 -->
<g id="node22" class="node"><title>Node67</title>
<g id="a_node22"><a xlink:href="class_little_weeb_library_1_1_handlers_1_1_anime_profile_handler.html#a7469a40799e1067d871ba87679f54c37" target="_top" xlink:title="LittleWeebLibrary.Handlers.\lAnimeProfileHandler.GetCurrently\lAiring">
<polygon fill="white" stroke="black" points="644.5,-400.747 644.5,-441.747 806.5,-441.747 806.5,-400.747 644.5,-400.747"/>
<text text-anchor="start" x="652.5" y="-429.747" font-family="Helvetica,sans-Serif" font-size="10.00">LittleWeebLibrary.Handlers.</text>
<text text-anchor="start" x="652.5" y="-418.747" font-family="Helvetica,sans-Serif" font-size="10.00">AnimeProfileHandler.GetCurrently</text>
<text text-anchor="middle" x="725.5" y="-407.747" font-family="Helvetica,sans-Serif" font-size="10.00">Airing</text>
</a>
</g>
</g>
<!-- Node53&#45;&gt;Node67 -->
<g id="edge26" class="edge"><title>Node53&#45;&gt;Node67</title>
<path fill="none" stroke="midnightblue" d="M275.001,-281.889C292.361,-315.879 328.759,-375.926 380,-402.247 462.453,-444.601 571.106,-442.693 644.154,-434.558"/>
<polygon fill="midnightblue" stroke="midnightblue" points="277.996,-280.05 270.421,-272.643 271.724,-283.158 277.996,-280.05"/>
</g>
<!-- Node69 -->
<g id="node24" class="node"><title>Node69</title>
<g id="a_node24"><a xlink:href="class_little_weeb_library_1_1_services_1_1_data_base_web_socket_service.html#aa51350396b2aa1634a680c94bebdc64c" target="_top" xlink:title="LittleWeebLibrary.Services.\lDataBaseWebSocketService.GetDocument">
<polygon fill="white" stroke="black" points="380,-450.247 380,-480.247 585,-480.247 585,-450.247 380,-450.247"/>
<text text-anchor="start" x="388" y="-468.247" font-family="Helvetica,sans-Serif" font-size="10.00">LittleWeebLibrary.Services.</text>
<text text-anchor="middle" x="482.5" y="-457.247" font-family="Helvetica,sans-Serif" font-size="10.00">DataBaseWebSocketService.GetDocument</text>
</a>
</g>
</g>
<!-- Node53&#45;&gt;Node69 -->
<g id="edge29" class="edge"><title>Node53&#45;&gt;Node69</title>
<path fill="none" stroke="midnightblue" d="M273.007,-281.913C289.119,-320.442 325.449,-394.689 380,-435.247 388.258,-441.387 397.76,-446.276 407.566,-450.168"/>
<polygon fill="midnightblue" stroke="midnightblue" points="276.184,-280.433 269.173,-272.488 269.7,-283.07 276.184,-280.433"/>
</g>
<!-- Node70 -->
<g id="node25" class="node"><title>Node70</title>
<g id="a_node25"><a xlink:href="class_little_weeb_library_1_1_handlers_1_1_file_history_handler.html#a3b3f0cdedee405d607feff81c2de085d" target="_top" xlink:title="LittleWeebLibrary.Handlers.\lFileHistoryHandler.RemoveFileFrom\lFileHistory">
<polygon fill="white" stroke="black" points="396.5,-351.747 396.5,-392.747 568.5,-392.747 568.5,-351.747 396.5,-351.747"/>
<text text-anchor="start" x="404.5" y="-380.747" font-family="Helvetica,sans-Serif" font-size="10.00">LittleWeebLibrary.Handlers.</text>
<text text-anchor="start" x="404.5" y="-369.747" font-family="Helvetica,sans-Serif" font-size="10.00">FileHistoryHandler.RemoveFileFrom</text>
<text text-anchor="middle" x="482.5" y="-358.747" font-family="Helvetica,sans-Serif" font-size="10.00">FileHistory</text>
</a>
</g>
</g>
<!-- Node53&#45;&gt;Node70 -->
<g id="edge31" class="edge"><title>Node53&#45;&gt;Node70</title>
<path fill="none" stroke="midnightblue" d="M288.14,-279.145C310.665,-298.167 345.614,-325.26 380,-342.247 387.002,-345.706 394.476,-348.844 402.073,-351.671"/>
<polygon fill="midnightblue" stroke="midnightblue" points="290.298,-276.385 280.427,-272.536 285.743,-281.7 290.298,-276.385"/>
</g>
<!-- Node55 -->
<g id="node10" class="node"><title>Node55</title>
<g id="a_node10"><a xlink:href="class_little_weeb_library_1_1_handlers_1_1_download_handler.html#a8e40df55d254c0b95bb0a72becde5039" target="_top" xlink:title="LittleWeebLibrary.Handlers.\lDownloadHandler.OnIrcClientDownloadEvent">
<polygon fill="white" stroke="black" points="621,-297.247 621,-327.247 830,-327.247 830,-297.247 621,-297.247"/>
<text text-anchor="start" x="629" y="-315.247" font-family="Helvetica,sans-Serif" font-size="10.00">LittleWeebLibrary.Handlers.</text>
<text text-anchor="middle" x="725.5" y="-304.247" font-family="Helvetica,sans-Serif" font-size="10.00">DownloadHandler.OnIrcClientDownloadEvent</text>
</a>
</g>
</g>
<!-- Node54&#45;&gt;Node55 -->
<g id="edge9" class="edge"><title>Node54&#45;&gt;Node55</title>
<path fill="none" stroke="midnightblue" d="M572.036,-312.247C587.889,-312.247 604.537,-312.247 620.771,-312.247"/>
<polygon fill="midnightblue" stroke="midnightblue" points="571.746,-308.748 561.746,-312.247 571.746,-315.748 571.746,-308.748"/>
</g>
<!-- Node57 -->
<g id="node12" class="node"><title>Node57</title>
<g id="a_node12"><a xlink:href="class_little_weeb_library_1_1_services_1_1_info_api_web_socket_service.html#a0ed7b2a1d1fe30b43d06232719570435" target="_top" xlink:title="LittleWeebLibrary.Services.\lInfoApiWebSocketService.AddRule">
<polygon fill="white" stroke="black" points="889.5,-270.247 889.5,-300.247 1057.5,-300.247 1057.5,-270.247 889.5,-270.247"/>
<text text-anchor="start" x="897.5" y="-288.247" font-family="Helvetica,sans-Serif" font-size="10.00">LittleWeebLibrary.Services.</text>
<text text-anchor="middle" x="973.5" y="-277.247" font-family="Helvetica,sans-Serif" font-size="10.00">InfoApiWebSocketService.AddRule</text>
</a>
</g>
</g>
<!-- Node56&#45;&gt;Node57 -->
<g id="edge11" class="edge"><title>Node56&#45;&gt;Node57</title>
<path fill="none" stroke="midnightblue" d="M563.698,-261.84C653.548,-266.984 798.494,-275.284 889.479,-280.494"/>
<polygon fill="midnightblue" stroke="midnightblue" points="563.746,-258.337 553.562,-261.259 563.345,-265.325 563.746,-258.337"/>
</g>
<!-- Node58 -->
<g id="node13" class="node"><title>Node58</title>
<g id="a_node13"><a xlink:href="class_little_weeb_library_1_1_controllers_1_1_sub_controllers_1_1_info_api_web_socket_controller.html#ad620537574b819085ff8eb394add2912" target="_top" xlink:title="LittleWeebLibrary.Controllers.\lSubControllers.InfoApiWebSocketController.\lOnWebSocketEvent">
<polygon fill="white" stroke="black" points="1117,-154.747 1117,-195.747 1325,-195.747 1325,-154.747 1117,-154.747"/>
<text text-anchor="start" x="1125" y="-183.747" font-family="Helvetica,sans-Serif" font-size="10.00">LittleWeebLibrary.Controllers.</text>
<text text-anchor="start" x="1125" y="-172.747" font-family="Helvetica,sans-Serif" font-size="10.00">SubControllers.InfoApiWebSocketController.</text>
<text text-anchor="middle" x="1221" y="-161.747" font-family="Helvetica,sans-Serif" font-size="10.00">OnWebSocketEvent</text>
</a>
</g>
</g>
<!-- Node57&#45;&gt;Node58 -->
<g id="edge12" class="edge"><title>Node57&#45;&gt;Node58</title>
<path fill="none" stroke="midnightblue" d="M1061.48,-267.277C1068.17,-265.155 1074.74,-262.817 1081,-260.247 1122.21,-243.322 1165.33,-215.049 1192.4,-195.798"/>
<polygon fill="midnightblue" stroke="midnightblue" points="1060.2,-264.006 1051.63,-270.232 1062.22,-270.711 1060.2,-264.006"/>
</g>
<!-- Node60 -->
<g id="node15" class="node"><title>Node60</title>
<g id="a_node15"><a xlink:href="class_little_weeb_library_1_1_handlers_1_1_anime_profile_handler.html#a5b163eb7e68b1e40904fa55454d8ba54" target="_top" xlink:title="LittleWeebLibrary.Handlers.\lAnimeProfileHandler.GetAnimeEpisodes">
<polygon fill="white" stroke="black" points="630,-197.247 630,-227.247 821,-227.247 821,-197.247 630,-197.247"/>
<text text-anchor="start" x="638" y="-215.247" font-family="Helvetica,sans-Serif" font-size="10.00">LittleWeebLibrary.Handlers.</text>
<text text-anchor="middle" x="725.5" y="-204.247" font-family="Helvetica,sans-Serif" font-size="10.00">AnimeProfileHandler.GetAnimeEpisodes</text>
</a>
</g>
</g>
<!-- Node59&#45;&gt;Node60 -->
<g id="edge14" class="edge"><title>Node59&#45;&gt;Node60</title>
<path fill="none" stroke="midnightblue" d="M579.958,-209.848C596.377,-210.121 613.417,-210.404 629.791,-210.676"/>
<polygon fill="midnightblue" stroke="midnightblue" points="579.883,-206.347 569.826,-209.68 579.766,-213.346 579.883,-206.347"/>
</g>
<!-- Node61 -->
<g id="node16" class="node"><title>Node61</title>
<g id="a_node16"><a xlink:href="class_little_weeb_library_1_1_services_1_1_info_api_web_socket_service.html#a754f738fba586cc927d64251329c736a" target="_top" xlink:title="LittleWeebLibrary.Services.\lInfoApiWebSocketService.GetAnime\lEpisodes">
<polygon fill="white" stroke="black" points="886,-209.747 886,-250.747 1061,-250.747 1061,-209.747 886,-209.747"/>
<text text-anchor="start" x="894" y="-238.747" font-family="Helvetica,sans-Serif" font-size="10.00">LittleWeebLibrary.Services.</text>
<text text-anchor="start" x="894" y="-227.747" font-family="Helvetica,sans-Serif" font-size="10.00">InfoApiWebSocketService.GetAnime</text>
<text text-anchor="middle" x="973.5" y="-216.747" font-family="Helvetica,sans-Serif" font-size="10.00">Episodes</text>
</a>
</g>
</g>
<!-- Node60&#45;&gt;Node61 -->
<g id="edge15" class="edge"><title>Node60&#45;&gt;Node61</title>
<path fill="none" stroke="midnightblue" d="M831.296,-219.915C849.483,-221.246 868.213,-222.617 885.847,-223.907"/>
<polygon fill="midnightblue" stroke="midnightblue" points="831.487,-216.42 821.258,-219.181 830.976,-223.401 831.487,-216.42"/>
</g>
<!-- Node61&#45;&gt;Node58 -->
<g id="edge16" class="edge"><title>Node61&#45;&gt;Node58</title>
<path fill="none" stroke="midnightblue" d="M1070.87,-208.658C1089.81,-204.415 1109.63,-199.975 1128.4,-195.768"/>
<polygon fill="midnightblue" stroke="midnightblue" points="1070.05,-205.255 1061.05,-210.857 1071.58,-212.086 1070.05,-205.255"/>
</g>
<!-- Node62&#45;&gt;Node58 -->
<g id="edge18" class="edge"><title>Node62&#45;&gt;Node58</title>
<path fill="none" stroke="midnightblue" d="M1086.27,-175.247C1096.46,-175.247 1106.76,-175.247 1116.87,-175.247"/>
<polygon fill="midnightblue" stroke="midnightblue" points="1086.13,-171.748 1076.13,-175.247 1086.13,-178.748 1086.13,-171.748"/>
</g>
<!-- Node63&#45;&gt;Node58 -->
<g id="edge20" class="edge"><title>Node63&#45;&gt;Node58</title>
<path fill="none" stroke="midnightblue" d="M1059.7,-143.253C1078.26,-146.957 1098.08,-150.914 1117.24,-154.738"/>
<polygon fill="midnightblue" stroke="midnightblue" points="1060.32,-139.807 1049.83,-141.282 1058.95,-146.672 1060.32,-139.807"/>
</g>
<!-- Node65 -->
<g id="node20" class="node"><title>Node65</title>
<g id="a_node20"><a xlink:href="class_little_weeb_library_1_1_services_1_1_info_api_web_socket_service.html#a12f4d83332b28988ce0e2bc5ff3ed369" target="_top" xlink:title="LittleWeebLibrary.Services.\lInfoApiWebSocketService.GetAnime\lProfile">
<polygon fill="white" stroke="black" points="886,-50.7474 886,-91.7474 1061,-91.7474 1061,-50.7474 886,-50.7474"/>
<text text-anchor="start" x="894" y="-79.7474" font-family="Helvetica,sans-Serif" font-size="10.00">LittleWeebLibrary.Services.</text>
<text text-anchor="start" x="894" y="-68.7474" font-family="Helvetica,sans-Serif" font-size="10.00">InfoApiWebSocketService.GetAnime</text>
<text text-anchor="middle" x="973.5" y="-57.7474" font-family="Helvetica,sans-Serif" font-size="10.00">Profile</text>
</a>
</g>
</g>
<!-- Node64&#45;&gt;Node65 -->
<g id="edge22" class="edge"><title>Node64&#45;&gt;Node65</title>
<path fill="none" stroke="midnightblue" d="M824.761,-74.2503C844.954,-73.8398 866.075,-73.4106 885.824,-73.0092"/>
<polygon fill="midnightblue" stroke="midnightblue" points="824.544,-70.7539 814.617,-74.4565 824.686,-77.7524 824.544,-70.7539"/>
</g>
<!-- Node65&#45;&gt;Node58 -->
<g id="edge23" class="edge"><title>Node65&#45;&gt;Node58</title>
<path fill="none" stroke="midnightblue" d="M1064.21,-95.0027C1069.94,-96.9846 1075.58,-99.069 1081,-101.247 1118.42,-116.275 1158.86,-138.552 1186.42,-154.736"/>
<polygon fill="midnightblue" stroke="midnightblue" points="1065.11,-91.6119 1054.51,-91.7654 1062.89,-98.2517 1065.11,-91.6119"/>
</g>
<!-- Node66&#45;&gt;Node58 -->
<g id="edge25" class="edge"><title>Node66&#45;&gt;Node58</title>
<path fill="none" stroke="midnightblue" d="M824.979,-12.8542C898.497,-6.36358 999.839,-6.61915 1081,-41.2474 1137.42,-65.3198 1184.21,-123.45 1206.3,-154.646"/>
<polygon fill="midnightblue" stroke="midnightblue" points="824.423,-9.39095 814.795,-13.812 825.079,-16.3602 824.423,-9.39095"/>
</g>
<!-- Node68 -->
<g id="node23" class="node"><title>Node68</title>
<g id="a_node23"><a xlink:href="class_little_weeb_library_1_1_services_1_1_info_api_web_socket_service.html#aec42147d67551cb17c458453ef40f3bc" target="_top" xlink:title="LittleWeebLibrary.Services.\lInfoApiWebSocketService.GetCurrently\lAiring">
<polygon fill="white" stroke="black" points="880.5,-400.747 880.5,-441.747 1066.5,-441.747 1066.5,-400.747 880.5,-400.747"/>
<text text-anchor="start" x="888.5" y="-429.747" font-family="Helvetica,sans-Serif" font-size="10.00">LittleWeebLibrary.Services.</text>
<text text-anchor="start" x="888.5" y="-418.747" font-family="Helvetica,sans-Serif" font-size="10.00">InfoApiWebSocketService.GetCurrently</text>
<text text-anchor="middle" x="973.5" y="-407.747" font-family="Helvetica,sans-Serif" font-size="10.00">Airing</text>
</a>
</g>
</g>
<!-- Node67&#45;&gt;Node68 -->
<g id="edge27" class="edge"><title>Node67&#45;&gt;Node68</title>
<path fill="none" stroke="midnightblue" d="M816.777,-421.247C837.528,-421.247 859.619,-421.247 880.445,-421.247"/>
<polygon fill="midnightblue" stroke="midnightblue" points="816.709,-417.748 806.709,-421.247 816.709,-424.748 816.709,-417.748"/>
</g>
<!-- Node68&#45;&gt;Node58 -->
<g id="edge28" class="edge"><title>Node68&#45;&gt;Node58</title>
<path fill="none" stroke="midnightblue" d="M1072.66,-395.828C1075.55,-394.089 1078.34,-392.231 1081,-390.247 1151.23,-337.951 1195.68,-238.824 1212.44,-195.91"/>
<polygon fill="midnightblue" stroke="midnightblue" points="1070.85,-392.83 1063.75,-400.696 1074.21,-398.973 1070.85,-392.83"/>
</g>
<!-- Node69&#45;&gt;Node49 -->
<g id="edge30" class="edge"><title>Node69&#45;&gt;Node49</title>
<path fill="none" stroke="midnightblue" d="M595.157,-479.147C609.151,-480.889 623.304,-482.65 636.857,-484.338"/>
<polygon fill="midnightblue" stroke="midnightblue" points="595.363,-475.645 585.007,-477.883 594.498,-482.592 595.363,-475.645"/>
</g>
<!-- Node71 -->
<g id="node26" class="node"><title>Node71</title>
<g id="a_node26"><a xlink:href="class_little_weeb_library_1_1_services_1_1_file_web_socket_service.html#ab1375e8e82a50dfa06d91bebe988d133" target="_top" xlink:title="LittleWeebLibrary.Services.\lFileWebSocketService.DeleteFile">
<polygon fill="white" stroke="black" points="645,-351.247 645,-381.247 806,-381.247 806,-351.247 645,-351.247"/>
<text text-anchor="start" x="653" y="-369.247" font-family="Helvetica,sans-Serif" font-size="10.00">LittleWeebLibrary.Services.</text>
<text text-anchor="middle" x="725.5" y="-358.247" font-family="Helvetica,sans-Serif" font-size="10.00">FileWebSocketService.DeleteFile</text>
</a>
</g>
</g>
<!-- Node70&#45;&gt;Node71 -->
<g id="edge32" class="edge"><title>Node70&#45;&gt;Node71</title>
<path fill="none" stroke="midnightblue" d="M579.08,-369.868C600.909,-369.324 623.879,-368.753 644.953,-368.228"/>
<polygon fill="midnightblue" stroke="midnightblue" points="578.716,-366.376 568.807,-370.124 578.891,-373.374 578.716,-366.376"/>
</g>
<!-- Node72 -->
<g id="node27" class="node"><title>Node72</title>
<g id="a_node27"><a xlink:href="class_little_weeb_library_1_1_controllers_1_1_file_web_socket_controller.html#a9ecdec41f15ac23a56c402ff2c554a08" target="_top" xlink:title="LittleWeebLibrary.Controllers.\lFileWebSocketController.OnWebSocketEvent">
<polygon fill="white" stroke="black" points="866,-351.247 866,-381.247 1081,-381.247 1081,-351.247 866,-351.247"/>
<text text-anchor="start" x="874" y="-369.247" font-family="Helvetica,sans-Serif" font-size="10.00">LittleWeebLibrary.Controllers.</text>
<text text-anchor="middle" x="973.5" y="-358.247" font-family="Helvetica,sans-Serif" font-size="10.00">FileWebSocketController.OnWebSocketEvent</text>
</a>
</g>
</g>
<!-- Node71&#45;&gt;Node72 -->
<g id="edge33" class="edge"><title>Node71&#45;&gt;Node72</title>
<path fill="none" stroke="midnightblue" d="M816.463,-366.247C832.538,-366.247 849.427,-366.247 865.914,-366.247"/>
<polygon fill="midnightblue" stroke="midnightblue" points="816.029,-362.748 806.029,-366.247 816.029,-369.748 816.029,-362.748"/>
</g>
</g>
</svg>
