<?xml version="1.0" encoding="UTF-8" standalone="no"?>
<!DOCTYPE svg PUBLIC "-//W3C//DTD SVG 1.1//EN"
 "http://www.w3.org/Graphics/SVG/1.1/DTD/svg11.dtd">
<!-- Generated by graphviz version 2.38.0 (20140413.2041)
 -->
<!-- Title: LittleWeebLibrary.Services.SettingsWebSocketService.SetLittleWeebSettings Pages: 1 -->
<svg width="388pt" height="50pt"
 viewBox="0.00 0.00 388.00 50.00" xmlns="http://www.w3.org/2000/svg" xmlns:xlink="http://www.w3.org/1999/xlink">
<g id="graph0" class="graph" transform="scale(1 1) rotate(0) translate(4 46)">
<title>LittleWeebLibrary.Services.SettingsWebSocketService.SetLittleWeebSettings</title>
<polygon fill="white" stroke="none" points="-4,4 -4,-46 384,-46 384,4 -4,4"/>
<!-- Node41 -->
<g id="node1" class="node"><title>Node41</title>
<polygon fill="#bfbfbf" stroke="black" points="0,-0.5 0,-41.5 174,-41.5 174,-0.5 0,-0.5"/>
<text text-anchor="start" x="8" y="-29.5" font-family="Helvetica,sans-Serif" font-size="10.00">LittleWeebLibrary.Services.</text>
<text text-anchor="start" x="8" y="-18.5" font-family="Helvetica,sans-Serif" font-size="10.00">SettingsWebSocketService.SetLittle</text>
<text text-anchor="middle" x="87" y="-7.5" font-family="Helvetica,sans-Serif" font-size="10.00">WeebSettings</text>
</g>
<!-- Node42 -->
<g id="node2" class="node"><title>Node42</title>
<g id="a_node2"><a xlink:href="class_little_weeb_library_1_1_controllers_1_1_sub_controllers_1_1_settings_web_socket_controller.html#a39b333aee248388fd295a8511486c76e" target="_top" xlink:title="LittleWeebLibrary.Controllers.\lSubControllers.SettingsWebSocket\lController.OnWebSocketEvent">
<polygon fill="white" stroke="black" points="210,-0.5 210,-41.5 380,-41.5 380,-0.5 210,-0.5"/>
<text text-anchor="start" x="218" y="-29.5" font-family="Helvetica,sans-Serif" font-size="10.00">LittleWeebLibrary.Controllers.</text>
<text text-anchor="start" x="218" y="-18.5" font-family="Helvetica,sans-Serif" font-size="10.00">SubControllers.SettingsWebSocket</text>
<text text-anchor="middle" x="295" y="-7.5" font-family="Helvetica,sans-Serif" font-size="10.00">Controller.OnWebSocketEvent</text>
</a>
</g>
</g>
<!-- Node41&#45;&gt;Node42 -->
<g id="edge1" class="edge"><title>Node41&#45;&gt;Node42</title>
<path fill="none" stroke="midnightblue" d="M184.18,-21C192.745,-21 201.373,-21 209.827,-21"/>
<polygon fill="midnightblue" stroke="midnightblue" points="184.169,-17.5001 174.169,-21 184.169,-24.5001 184.169,-17.5001"/>
</g>
</g>
</svg>
