<?xml version="1.0" encoding="UTF-8" standalone="no"?>
<!DOCTYPE svg PUBLIC "-//W3C//DTD SVG 1.1//EN"
 "http://www.w3.org/Graphics/SVG/1.1/DTD/svg11.dtd">
<!-- Generated by graphviz version 2.38.0 (20140413.2041)
 -->
<!-- Title: LittleWeebLibrary.Services.VersionWebSocketService.CheckVersion Pages: 1 -->
<svg width="452pt" height="50pt"
 viewBox="0.00 0.00 452.00 50.00" xmlns="http://www.w3.org/2000/svg" xmlns:xlink="http://www.w3.org/1999/xlink">
<g id="graph0" class="graph" transform="scale(1 1) rotate(0) translate(4 46)">
<title>LittleWeebLibrary.Services.VersionWebSocketService.CheckVersion</title>
<polygon fill="white" stroke="none" points="-4,4 -4,-46 448,-46 448,4 -4,4"/>
<!-- Node11 -->
<g id="node1" class="node"><title>Node11</title>
<polygon fill="#bfbfbf" stroke="black" points="0,-6 0,-36 196,-36 196,-6 0,-6"/>
<text text-anchor="start" x="8" y="-24" font-family="Helvetica,sans-Serif" font-size="10.00">LittleWeebLibrary.Services.</text>
<text text-anchor="middle" x="98" y="-13" font-family="Helvetica,sans-Serif" font-size="10.00">VersionWebSocketService.CheckVersion</text>
</g>
<!-- Node12 -->
<g id="node2" class="node"><title>Node12</title>
<g id="a_node2"><a xlink:href="class_little_weeb_library_1_1_controllers_1_1_sub_controllers_1_1_version_web_socket_controller.html#aecbfb94508db51693b11ea8dba9cf7e9" target="_top" xlink:title="LittleWeebLibrary.Controllers.\lSubControllers.VersionWebSocketController.\lOnWebSocketEvent">
<polygon fill="white" stroke="black" points="232,-0.5 232,-41.5 444,-41.5 444,-0.5 232,-0.5"/>
<text text-anchor="start" x="240" y="-29.5" font-family="Helvetica,sans-Serif" font-size="10.00">LittleWeebLibrary.Controllers.</text>
<text text-anchor="start" x="240" y="-18.5" font-family="Helvetica,sans-Serif" font-size="10.00">SubControllers.VersionWebSocketController.</text>
<text text-anchor="middle" x="338" y="-7.5" font-family="Helvetica,sans-Serif" font-size="10.00">OnWebSocketEvent</text>
</a>
</g>
</g>
<!-- Node11&#45;&gt;Node12 -->
<g id="edge1" class="edge"><title>Node11&#45;&gt;Node12</title>
<path fill="none" stroke="midnightblue" d="M206.352,-21C214.759,-21 223.245,-21 231.639,-21"/>
<polygon fill="midnightblue" stroke="midnightblue" points="206.147,-17.5001 196.147,-21 206.147,-24.5001 206.147,-17.5001"/>
</g>
</g>
</svg>
