<?xml version="1.0" encoding="UTF-8" standalone="no"?>
<!DOCTYPE svg PUBLIC "-//W3C//DTD SVG 1.1//EN"
 "http://www.w3.org/Graphics/SVG/1.1/DTD/svg11.dtd">
<!-- Generated by graphviz version 2.38.0 (20140413.2041)
 -->
<!-- Title: LittleWeebLibrary.Services.DataBaseWebSocketService Pages: 1 -->
<svg width="618pt" height="325pt"
 viewBox="0.00 0.00 617.50 325.00" xmlns="http://www.w3.org/2000/svg" xmlns:xlink="http://www.w3.org/1999/xlink">
<g id="graph0" class="graph" transform="scale(1 1) rotate(0) translate(4 321)">
<title>LittleWeebLibrary.Services.DataBaseWebSocketService</title>
<polygon fill="white" stroke="none" points="-4,4 -4,-321 613.5,-321 613.5,4 -4,4"/>
<!-- Node2 -->
<g id="node1" class="node"><title>Node2</title>
<polygon fill="#bfbfbf" stroke="black" points="229.5,-0.5 229.5,-123.5 386.5,-123.5 386.5,-0.5 229.5,-0.5"/>
<text text-anchor="start" x="237.5" y="-111.5" font-family="Helvetica,sans-Serif" font-size="10.00">LittleWeebLibrary.Services.</text>
<text text-anchor="middle" x="308" y="-100.5" font-family="Helvetica,sans-Serif" font-size="10.00">DataBaseWebSocketService</text>
<polyline fill="none" stroke="black" points="229.5,-93.5 386.5,-93.5 "/>
<text text-anchor="middle" x="308" y="-81.5" font-family="Helvetica,sans-Serif" font-size="10.00"> </text>
<polyline fill="none" stroke="black" points="229.5,-74.5 386.5,-74.5 "/>
<text text-anchor="start" x="237.5" y="-62.5" font-family="Helvetica,sans-Serif" font-size="10.00">+ DataBaseWebSocketService()</text>
<text text-anchor="start" x="237.5" y="-51.5" font-family="Helvetica,sans-Serif" font-size="10.00">+ DeleteDocument()</text>
<text text-anchor="start" x="237.5" y="-40.5" font-family="Helvetica,sans-Serif" font-size="10.00">+ GetCollection()</text>
<text text-anchor="start" x="237.5" y="-29.5" font-family="Helvetica,sans-Serif" font-size="10.00">+ GetDocument()</text>
<text text-anchor="start" x="237.5" y="-18.5" font-family="Helvetica,sans-Serif" font-size="10.00">+ StoreDocument()</text>
<text text-anchor="start" x="237.5" y="-7.5" font-family="Helvetica,sans-Serif" font-size="10.00">+ UpdateDocument()</text>
</g>
<!-- Node3 -->
<g id="node2" class="node"><title>Node3</title>
<g id="a_node2"><a xlink:href="interface_little_weeb_library_1_1_services_1_1_i_data_base_web_socket_service.html" target="_top" xlink:title="{IDataBaseWebSocketService\n||+ DeleteDocument()\l+ GetCollection()\l+ GetDocument()\l+ StoreDocument()\l+ UpdateDocument()\l}">
<polygon fill="white" stroke="black" points="0,-193.5 0,-294.5 144,-294.5 144,-193.5 0,-193.5"/>
<text text-anchor="middle" x="72" y="-282.5" font-family="Helvetica,sans-Serif" font-size="10.00">IDataBaseWebSocketService</text>
<polyline fill="none" stroke="black" points="0,-275.5 144,-275.5 "/>
<text text-anchor="middle" x="72" y="-263.5" font-family="Helvetica,sans-Serif" font-size="10.00"> </text>
<polyline fill="none" stroke="black" points="0,-256.5 144,-256.5 "/>
<text text-anchor="start" x="8" y="-244.5" font-family="Helvetica,sans-Serif" font-size="10.00">+ DeleteDocument()</text>
<text text-anchor="start" x="8" y="-233.5" font-family="Helvetica,sans-Serif" font-size="10.00">+ GetCollection()</text>
<text text-anchor="start" x="8" y="-222.5" font-family="Helvetica,sans-Serif" font-size="10.00">+ GetDocument()</text>
<text text-anchor="start" x="8" y="-211.5" font-family="Helvetica,sans-Serif" font-size="10.00">+ StoreDocument()</text>
<text text-anchor="start" x="8" y="-200.5" font-family="Helvetica,sans-Serif" font-size="10.00">+ UpdateDocument()</text>
</a>
</g>
</g>
<!-- Node3&#45;&gt;Node2 -->
<g id="edge1" class="edge"><title>Node3&#45;&gt;Node2</title>
<path fill="none" stroke="midnightblue" d="M134.081,-186.505C140.388,-181.164 146.767,-175.914 153,-171 177.211,-151.913 204.54,-132.282 229.433,-115.079"/>
<polygon fill="none" stroke="midnightblue" points="131.465,-184.138 126.147,-193.302 136.019,-189.454 131.465,-184.138"/>
</g>
<!-- Node4 -->
<g id="node3" class="node"><title>Node4</title>
<g id="a_node3"><a xlink:href="interface_little_weeb_library_1_1_handlers_1_1_i_debug_handler.html" target="_top" xlink:title="{LittleWeebLibrary.Handlers.\lIDebugHandler\n||+ SetSettings()\l+ StopDebugger()\l+ TraceMessage()\l}">
<polygon fill="white" stroke="black" points="162.5,-199 162.5,-289 299.5,-289 299.5,-199 162.5,-199"/>
<text text-anchor="start" x="170.5" y="-277" font-family="Helvetica,sans-Serif" font-size="10.00">LittleWeebLibrary.Handlers.</text>
<text text-anchor="middle" x="231" y="-266" font-family="Helvetica,sans-Serif" font-size="10.00">IDebugHandler</text>
<polyline fill="none" stroke="black" points="162.5,-259 299.5,-259 "/>
<text text-anchor="middle" x="231" y="-247" font-family="Helvetica,sans-Serif" font-size="10.00"> </text>
<polyline fill="none" stroke="black" points="162.5,-240 299.5,-240 "/>
<text text-anchor="start" x="170.5" y="-228" font-family="Helvetica,sans-Serif" font-size="10.00">+ SetSettings()</text>
<text text-anchor="start" x="170.5" y="-217" font-family="Helvetica,sans-Serif" font-size="10.00">+ StopDebugger()</text>
<text text-anchor="start" x="170.5" y="-206" font-family="Helvetica,sans-Serif" font-size="10.00">+ TraceMessage()</text>
</a>
</g>
</g>
<!-- Node4&#45;&gt;Node2 -->
<g id="edge2" class="edge"><title>Node4&#45;&gt;Node2</title>
<path fill="none" stroke="#404040" d="M249.836,-198.967C258.102,-179.646 268.02,-156.461 277.305,-134.754"/>
<polygon fill="none" stroke="#404040" points="277.372,-134.598 276.054,-127.509 282.091,-123.565 283.409,-130.655 277.372,-134.598"/>
<text text-anchor="middle" x="308.5" y="-145" font-family="Helvetica,sans-Serif" font-size="10.00"> &#45;DebugHandler</text>
</g>
<!-- Node5 -->
<g id="node4" class="node"><title>Node5</title>
<g id="a_node4"><a xlink:href="interface_little_weeb_library_1_1_handlers_1_1_i_web_socket_handler.html" target="_top" xlink:title="{LittleWeebLibrary.Handlers.\lIWebSocketHandler\n||+ SendMessage()\l+ StartServer()\l+ StopServer()\l}">
<polygon fill="white" stroke="black" points="317.5,-199 317.5,-289 454.5,-289 454.5,-199 317.5,-199"/>
<text text-anchor="start" x="325.5" y="-277" font-family="Helvetica,sans-Serif" font-size="10.00">LittleWeebLibrary.Handlers.</text>
<text text-anchor="middle" x="386" y="-266" font-family="Helvetica,sans-Serif" font-size="10.00">IWebSocketHandler</text>
<polyline fill="none" stroke="black" points="317.5,-259 454.5,-259 "/>
<text text-anchor="middle" x="386" y="-247" font-family="Helvetica,sans-Serif" font-size="10.00"> </text>
<polyline fill="none" stroke="black" points="317.5,-240 454.5,-240 "/>
<text text-anchor="start" x="325.5" y="-228" font-family="Helvetica,sans-Serif" font-size="10.00">+ SendMessage()</text>
<text text-anchor="start" x="325.5" y="-217" font-family="Helvetica,sans-Serif" font-size="10.00">+ StartServer()</text>
<text text-anchor="start" x="325.5" y="-206" font-family="Helvetica,sans-Serif" font-size="10.00">+ StopServer()</text>
</a>
</g>
</g>
<!-- Node5&#45;&gt;Node2 -->
<g id="edge3" class="edge"><title>Node5&#45;&gt;Node2</title>
<path fill="none" stroke="#404040" d="M369.348,-198.97C362.41,-181.163 354.094,-160.486 346,-142 344.934,-139.565 343.836,-137.094 342.716,-134.603"/>
<polygon fill="none" stroke="#404040" points="342.681,-134.526 336.548,-130.732 337.692,-123.612 343.824,-127.406 342.681,-134.526"/>
<text text-anchor="middle" x="396.5" y="-145" font-family="Helvetica,sans-Serif" font-size="10.00"> &#45;WebSocketHandler</text>
</g>
<!-- Node6 -->
<g id="node5" class="node"><title>Node6</title>
<g id="a_node5"><a xlink:href="interface_little_weeb_library_1_1_handlers_1_1_i_data_base_handler.html" target="_top" xlink:title="{LittleWeebLibrary.Handlers.\lIDataBaseHandler\n||+ GetCollection()\l+ GetJObject()\l+ GetJObject()\l+ RemoveJObject()\l+ RemoveJObject()\l+ StoreJObject()\l+ UpdateJObject()\l+ UpdateJObject()\l}">
<polygon fill="white" stroke="black" points="472.5,-171.5 472.5,-316.5 609.5,-316.5 609.5,-171.5 472.5,-171.5"/>
<text text-anchor="start" x="480.5" y="-304.5" font-family="Helvetica,sans-Serif" font-size="10.00">LittleWeebLibrary.Handlers.</text>
<text text-anchor="middle" x="541" y="-293.5" font-family="Helvetica,sans-Serif" font-size="10.00">IDataBaseHandler</text>
<polyline fill="none" stroke="black" points="472.5,-286.5 609.5,-286.5 "/>
<text text-anchor="middle" x="541" y="-274.5" font-family="Helvetica,sans-Serif" font-size="10.00"> </text>
<polyline fill="none" stroke="black" points="472.5,-267.5 609.5,-267.5 "/>
<text text-anchor="start" x="480.5" y="-255.5" font-family="Helvetica,sans-Serif" font-size="10.00">+ GetCollection()</text>
<text text-anchor="start" x="480.5" y="-244.5" font-family="Helvetica,sans-Serif" font-size="10.00">+ GetJObject()</text>
<text text-anchor="start" x="480.5" y="-233.5" font-family="Helvetica,sans-Serif" font-size="10.00">+ GetJObject()</text>
<text text-anchor="start" x="480.5" y="-222.5" font-family="Helvetica,sans-Serif" font-size="10.00">+ RemoveJObject()</text>
<text text-anchor="start" x="480.5" y="-211.5" font-family="Helvetica,sans-Serif" font-size="10.00">+ RemoveJObject()</text>
<text text-anchor="start" x="480.5" y="-200.5" font-family="Helvetica,sans-Serif" font-size="10.00">+ StoreJObject()</text>
<text text-anchor="start" x="480.5" y="-189.5" font-family="Helvetica,sans-Serif" font-size="10.00">+ UpdateJObject()</text>
<text text-anchor="start" x="480.5" y="-178.5" font-family="Helvetica,sans-Serif" font-size="10.00">+ UpdateJObject()</text>
</a>
</g>
</g>
<!-- Node6&#45;&gt;Node2 -->
<g id="edge4" class="edge"><title>Node6&#45;&gt;Node2</title>
<path fill="none" stroke="#404040" d="M478.621,-171.25C468.207,-160.904 457.15,-150.797 446,-142 430.923,-130.105 413.851,-118.842 396.98,-108.745"/>
<polygon fill="none" stroke="#404040" points="396.874,-108.683 389.675,-109.099 386.522,-102.614 393.721,-102.197 396.874,-108.683"/>
<text text-anchor="middle" x="499" y="-145" font-family="Helvetica,sans-Serif" font-size="10.00"> &#45;DataBaseHandler</text>
</g>
</g>
</svg>
