<?xml version="1.0" encoding="UTF-8" standalone="no"?>
<!DOCTYPE svg PUBLIC "-//W3C//DTD SVG 1.1//EN"
 "http://www.w3.org/Graphics/SVG/1.1/DTD/svg11.dtd">
<!-- Generated by graphviz version 2.38.0 (20140413.2041)
 -->
<!-- Title: LittleWeebLibrary.Services.DownloadWebSocketService.AddDownload Pages: 1 -->
<svg width="604pt" height="376pt"
 viewBox="0.00 0.00 604.00 376.00" xmlns="http://www.w3.org/2000/svg" xmlns:xlink="http://www.w3.org/1999/xlink">
<g id="graph0" class="graph" transform="scale(1 1) rotate(0) translate(4 372)">
<title>LittleWeebLibrary.Services.DownloadWebSocketService.AddDownload</title>
<polygon fill="white" stroke="none" points="-4,4 -4,-372 600,-372 600,4 -4,4"/>
<!-- Node6 -->
<g id="node1" class="node"><title>Node6</title>
<polygon fill="#bfbfbf" stroke="black" points="0,-88.5 0,-118.5 203,-118.5 203,-88.5 0,-88.5"/>
<text text-anchor="start" x="8" y="-106.5" font-family="Helvetica,sans-Serif" font-size="10.00">LittleWeebLibrary.Services.</text>
<text text-anchor="middle" x="101.5" y="-95.5" font-family="Helvetica,sans-Serif" font-size="10.00">DownloadWebSocketService.AddDownload</text>
</g>
<!-- Node7 -->
<g id="node2" class="node"><title>Node7</title>
<g id="a_node2"><a xlink:href="class_little_weeb_library_1_1_handlers_1_1_download_handler.html#ad28cb47c19cac5e761ceff86ea021a02" target="_top" xlink:title="LittleWeebLibrary.Handlers.\lDownloadHandler.AddDownload">
<polygon fill="white" stroke="black" points="245,-178.5 245,-208.5 399,-208.5 399,-178.5 245,-178.5"/>
<text text-anchor="start" x="253" y="-196.5" font-family="Helvetica,sans-Serif" font-size="10.00">LittleWeebLibrary.Handlers.</text>
<text text-anchor="middle" x="322" y="-185.5" font-family="Helvetica,sans-Serif" font-size="10.00">DownloadHandler.AddDownload</text>
</a>
</g>
</g>
<!-- Node6&#45;&gt;Node7 -->
<g id="edge1" class="edge"><title>Node6&#45;&gt;Node7</title>
<path fill="none" stroke="midnightblue" d="M137.165,-118.566C164.685,-130.444 204.186,-147.314 239,-161.5 249.727,-165.871 261.29,-170.459 272.254,-174.752"/>
<polygon fill="midnightblue" stroke="midnightblue" points="271.11,-178.063 281.699,-178.436 273.654,-171.541 271.11,-178.063"/>
</g>
<!-- Node11 -->
<g id="node6" class="node"><title>Node11</title>
<g id="a_node6"><a xlink:href="class_little_weeb_library_1_1_models_1_1_json_error.html#ad7d5522c90119111d2e929f39e7f6d3c" target="_top" xlink:title="LittleWeebLibrary.Models.\lJsonError.ToString">
<polygon fill="white" stroke="black" points="453.5,-129.5 453.5,-159.5 583.5,-159.5 583.5,-129.5 453.5,-129.5"/>
<text text-anchor="start" x="461.5" y="-147.5" font-family="Helvetica,sans-Serif" font-size="10.00">LittleWeebLibrary.Models.</text>
<text text-anchor="middle" x="518.5" y="-136.5" font-family="Helvetica,sans-Serif" font-size="10.00">JsonError.ToString</text>
</a>
</g>
</g>
<!-- Node6&#45;&gt;Node11 -->
<g id="edge11" class="edge"><title>Node6&#45;&gt;Node11</title>
<path fill="none" stroke="midnightblue" d="M179.159,-118.547C198.616,-121.933 219.525,-125.201 239,-127.5 307.951,-135.64 386.993,-139.994 443.214,-142.25"/>
<polygon fill="midnightblue" stroke="midnightblue" points="443.31,-145.756 453.438,-142.647 443.581,-138.761 443.31,-145.756"/>
</g>
<!-- Node13 -->
<g id="node8" class="node"><title>Node13</title>
<g id="a_node8"><a xlink:href="class_little_weeb_library_1_1_handlers_1_1_debug_handler.html#afccb37dfd6b2114af72000c2f4fe4607" target="_top" xlink:title="LittleWeebLibrary.Handlers.\lDebugHandler.TraceMessage">
<polygon fill="white" stroke="black" points="446.5,-80.5 446.5,-110.5 590.5,-110.5 590.5,-80.5 446.5,-80.5"/>
<text text-anchor="start" x="454.5" y="-98.5" font-family="Helvetica,sans-Serif" font-size="10.00">LittleWeebLibrary.Handlers.</text>
<text text-anchor="middle" x="518.5" y="-87.5" font-family="Helvetica,sans-Serif" font-size="10.00">DebugHandler.TraceMessage</text>
</a>
</g>
</g>
<!-- Node6&#45;&gt;Node13 -->
<g id="edge12" class="edge"><title>Node6&#45;&gt;Node13</title>
<path fill="none" stroke="midnightblue" d="M170.907,-88.4656C192.57,-84.38 216.686,-80.5265 239,-78.5 312.475,-71.827 331.43,-72.9727 405,-78.5 415.15,-79.2626 425.773,-80.407 436.266,-81.7486"/>
<polygon fill="midnightblue" stroke="midnightblue" points="435.89,-85.2295 446.267,-83.0893 436.821,-78.2916 435.89,-85.2295"/>
</g>
<!-- Node14 -->
<g id="node9" class="node"><title>Node14</title>
<g id="a_node9"><a xlink:href="class_little_weeb_library_1_1_handlers_1_1_web_socket_handler.html#a1de289d54d665a32c93478c68d3e6ad0" target="_top" xlink:title="LittleWeebLibrary.Handlers.\lWebSocketHandler.SendMessage">
<polygon fill="white" stroke="black" points="239,-88.5 239,-118.5 405,-118.5 405,-88.5 239,-88.5"/>
<text text-anchor="start" x="247" y="-106.5" font-family="Helvetica,sans-Serif" font-size="10.00">LittleWeebLibrary.Handlers.</text>
<text text-anchor="middle" x="322" y="-95.5" font-family="Helvetica,sans-Serif" font-size="10.00">WebSocketHandler.SendMessage</text>
</a>
</g>
</g>
<!-- Node6&#45;&gt;Node14 -->
<g id="edge8" class="edge"><title>Node6&#45;&gt;Node14</title>
<path fill="none" stroke="midnightblue" d="M203.116,-103.5C211.636,-103.5 220.227,-103.5 228.679,-103.5"/>
<polygon fill="midnightblue" stroke="midnightblue" points="228.906,-107 238.906,-103.5 228.906,-100 228.906,-107"/>
</g>
<!-- Node15 -->
<g id="node10" class="node"><title>Node15</title>
<g id="a_node10"><a xlink:href="class_little_weeb_library_1_1_models_1_1_json_error.html#a0e3e7dd2e2990404b7f0461742b23440" target="_top" xlink:title="LittleWeebLibrary.Models.\lJsonError.ToJson">
<polygon fill="white" stroke="black" points="257,-0.5 257,-30.5 387,-30.5 387,-0.5 257,-0.5"/>
<text text-anchor="start" x="265" y="-18.5" font-family="Helvetica,sans-Serif" font-size="10.00">LittleWeebLibrary.Models.</text>
<text text-anchor="middle" x="322" y="-7.5" font-family="Helvetica,sans-Serif" font-size="10.00">JsonError.ToJson</text>
</a>
</g>
</g>
<!-- Node6&#45;&gt;Node15 -->
<g id="edge10" class="edge"><title>Node6&#45;&gt;Node15</title>
<path fill="none" stroke="midnightblue" d="M136.52,-88.4737C164.015,-76.4676 203.798,-59.4079 239,-45.5 248.722,-41.6588 259.157,-37.7102 269.215,-33.9907"/>
<polygon fill="midnightblue" stroke="midnightblue" points="270.526,-37.2379 278.707,-30.5057 268.113,-30.6667 270.526,-37.2379"/>
</g>
<!-- Node8 -->
<g id="node3" class="node"><title>Node8</title>
<g id="a_node3"><a xlink:href="class_little_weeb_library_1_1_static_classes_1_1_utility_methods.html#a76fa2aea99ce4b1ad4130cc18b1d5969" target="_top" xlink:title="LittleWeebLibrary.Static\lClasses.UtilityMethods.GetFree\lSpaceKbits">
<polygon fill="white" stroke="black" points="441,-228 441,-269 596,-269 596,-228 441,-228"/>
<text text-anchor="start" x="449" y="-257" font-family="Helvetica,sans-Serif" font-size="10.00">LittleWeebLibrary.Static</text>
<text text-anchor="start" x="449" y="-246" font-family="Helvetica,sans-Serif" font-size="10.00">Classes.UtilityMethods.GetFree</text>
<text text-anchor="middle" x="518.5" y="-235" font-family="Helvetica,sans-Serif" font-size="10.00">SpaceKbits</text>
</a>
</g>
</g>
<!-- Node7&#45;&gt;Node8 -->
<g id="edge2" class="edge"><title>Node7&#45;&gt;Node8</title>
<path fill="none" stroke="midnightblue" d="M376.148,-208.529C394.32,-213.668 415.098,-219.543 435.029,-225.179"/>
<polygon fill="midnightblue" stroke="midnightblue" points="434.155,-228.569 444.73,-227.922 436.059,-221.833 434.155,-228.569"/>
</g>
<!-- Node9 -->
<g id="node4" class="node"><title>Node9</title>
<g id="a_node4"><a xlink:href="class_little_weeb_library_1_1_models_1_1_json_download_queue.html#a1d77053fc493aa88857bcafd6fea4bf7" target="_top" xlink:title="LittleWeebLibrary.Models.\lJsonDownloadQueue.ToJObject">
<polygon fill="white" stroke="black" points="441.5,-178.5 441.5,-208.5 595.5,-208.5 595.5,-178.5 441.5,-178.5"/>
<text text-anchor="start" x="449.5" y="-196.5" font-family="Helvetica,sans-Serif" font-size="10.00">LittleWeebLibrary.Models.</text>
<text text-anchor="middle" x="518.5" y="-185.5" font-family="Helvetica,sans-Serif" font-size="10.00">JsonDownloadQueue.ToJObject</text>
</a>
</g>
</g>
<!-- Node7&#45;&gt;Node9 -->
<g id="edge3" class="edge"><title>Node7&#45;&gt;Node9</title>
<path fill="none" stroke="midnightblue" d="M399.034,-193.5C409.531,-193.5 420.374,-193.5 431.042,-193.5"/>
<polygon fill="midnightblue" stroke="midnightblue" points="431.199,-197 441.199,-193.5 431.199,-190 431.199,-197"/>
</g>
<!-- Node10 -->
<g id="node5" class="node"><title>Node10</title>
<g id="a_node5"><a xlink:href="class_little_weeb_library_1_1_models_1_1_json_error.html#a0623b835bb68d5d5e1f591df6a09dd81" target="_top" xlink:title="LittleWeebLibrary.Models.\lJsonError.ToJObject">
<polygon fill="white" stroke="black" points="453.5,-337.5 453.5,-367.5 583.5,-367.5 583.5,-337.5 453.5,-337.5"/>
<text text-anchor="start" x="461.5" y="-355.5" font-family="Helvetica,sans-Serif" font-size="10.00">LittleWeebLibrary.Models.</text>
<text text-anchor="middle" x="518.5" y="-344.5" font-family="Helvetica,sans-Serif" font-size="10.00">JsonError.ToJObject</text>
</a>
</g>
</g>
<!-- Node7&#45;&gt;Node10 -->
<g id="edge4" class="edge"><title>Node7&#45;&gt;Node10</title>
<path fill="none" stroke="midnightblue" d="M332.329,-208.905C350.031,-236.85 391.21,-296.004 441,-328.5 443.459,-330.105 446.032,-331.608 448.683,-333.016"/>
<polygon fill="midnightblue" stroke="midnightblue" points="447.418,-336.29 457.951,-337.441 450.435,-329.973 447.418,-336.29"/>
</g>
<!-- Node7&#45;&gt;Node11 -->
<g id="edge5" class="edge"><title>Node7&#45;&gt;Node11</title>
<path fill="none" stroke="midnightblue" d="M382.678,-178.465C403.308,-173.268 426.603,-167.399 447.955,-162.02"/>
<polygon fill="midnightblue" stroke="midnightblue" points="449.093,-165.343 457.935,-159.506 447.383,-158.555 449.093,-165.343"/>
</g>
<!-- Node12 -->
<g id="node7" class="node"><title>Node12</title>
<g id="a_node7"><a xlink:href="class_little_weeb_library_1_1_models_1_1_json_download_info.html#af36cbb3251b0efcd80a45f1fef89f5c9" target="_top" xlink:title="LittleWeebLibrary.Models.\lJsonDownloadInfo.ToString">
<polygon fill="white" stroke="black" points="452,-288.5 452,-318.5 585,-318.5 585,-288.5 452,-288.5"/>
<text text-anchor="start" x="460" y="-306.5" font-family="Helvetica,sans-Serif" font-size="10.00">LittleWeebLibrary.Models.</text>
<text text-anchor="middle" x="518.5" y="-295.5" font-family="Helvetica,sans-Serif" font-size="10.00">JsonDownloadInfo.ToString</text>
</a>
</g>
</g>
<!-- Node7&#45;&gt;Node12 -->
<g id="edge6" class="edge"><title>Node7&#45;&gt;Node12</title>
<path fill="none" stroke="midnightblue" d="M340.271,-208.596C362.325,-227.222 402.284,-258.831 441,-278.5 445.29,-280.679 449.81,-282.725 454.421,-284.633"/>
<polygon fill="midnightblue" stroke="midnightblue" points="453.379,-287.983 463.967,-288.356 455.922,-281.462 453.379,-287.983"/>
</g>
<!-- Node7&#45;&gt;Node13 -->
<g id="edge7" class="edge"><title>Node7&#45;&gt;Node13</title>
<path fill="none" stroke="midnightblue" d="M343.396,-178.429C366.221,-162.119 404.768,-136.207 441,-119.5 445.092,-117.613 449.373,-115.819 453.729,-114.126"/>
<polygon fill="midnightblue" stroke="midnightblue" points="455.171,-117.325 463.342,-110.58 452.748,-110.757 455.171,-117.325"/>
</g>
<!-- Node14&#45;&gt;Node13 -->
<g id="edge9" class="edge"><title>Node14&#45;&gt;Node13</title>
<path fill="none" stroke="midnightblue" d="M405.204,-100.119C415.468,-99.6967 425.961,-99.2651 436.211,-98.8435"/>
<polygon fill="midnightblue" stroke="midnightblue" points="436.515,-102.334 446.363,-98.4259 436.227,-95.34 436.515,-102.334"/>
</g>
</g>
</svg>
