<?xml version="1.0" encoding="UTF-8" standalone="no"?>
<!DOCTYPE svg PUBLIC "-//W3C//DTD SVG 1.1//EN"
 "http://www.w3.org/Graphics/SVG/1.1/DTD/svg11.dtd">
<!-- Generated by graphviz version 2.38.0 (20140413.2041)
 -->
<!-- Title: LittleWeebLibrary.Handlers.FileHandler.OpenFile Pages: 1 -->
<svg width="589pt" height="39pt"
 viewBox="0.00 0.00 589.00 39.00" xmlns="http://www.w3.org/2000/svg" xmlns:xlink="http://www.w3.org/1999/xlink">
<g id="graph0" class="graph" transform="scale(1 1) rotate(0) translate(4 35)">
<title>LittleWeebLibrary.Handlers.FileHandler.OpenFile</title>
<polygon fill="white" stroke="none" points="-4,4 -4,-35 585,-35 585,4 -4,4"/>
<!-- Node9 -->
<g id="node1" class="node"><title>Node9</title>
<polygon fill="#bfbfbf" stroke="black" points="0,-0.5 0,-30.5 137,-30.5 137,-0.5 0,-0.5"/>
<text text-anchor="start" x="8" y="-18.5" font-family="Helvetica,sans-Serif" font-size="10.00">LittleWeebLibrary.Handlers.</text>
<text text-anchor="middle" x="68.5" y="-7.5" font-family="Helvetica,sans-Serif" font-size="10.00">FileHandler.OpenFile</text>
</g>
<!-- Node10 -->
<g id="node2" class="node"><title>Node10</title>
<g id="a_node2"><a xlink:href="class_little_weeb_library_1_1_services_1_1_file_web_socket_service.html#ae140d076e6f64585e7b71bb51545e1bb" target="_top" xlink:title="LittleWeebLibrary.Services.\lFileWebSocketService.OpenFile">
<polygon fill="white" stroke="black" points="173,-0.5 173,-30.5 330,-30.5 330,-0.5 173,-0.5"/>
<text text-anchor="start" x="181" y="-18.5" font-family="Helvetica,sans-Serif" font-size="10.00">LittleWeebLibrary.Services.</text>
<text text-anchor="middle" x="251.5" y="-7.5" font-family="Helvetica,sans-Serif" font-size="10.00">FileWebSocketService.OpenFile</text>
</a>
</g>
</g>
<!-- Node9&#45;&gt;Node10 -->
<g id="edge1" class="edge"><title>Node9&#45;&gt;Node10</title>
<path fill="none" stroke="midnightblue" d="M147.371,-15.5C155.824,-15.5 164.426,-15.5 172.876,-15.5"/>
<polygon fill="midnightblue" stroke="midnightblue" points="147.155,-12.0001 137.155,-15.5 147.155,-19.0001 147.155,-12.0001"/>
</g>
<!-- Node11 -->
<g id="node3" class="node"><title>Node11</title>
<g id="a_node3"><a xlink:href="class_little_weeb_library_1_1_controllers_1_1_file_web_socket_controller.html#a9ecdec41f15ac23a56c402ff2c554a08" target="_top" xlink:title="LittleWeebLibrary.Controllers.\lFileWebSocketController.OnWebSocketEvent">
<polygon fill="white" stroke="black" points="366,-0.5 366,-30.5 581,-30.5 581,-0.5 366,-0.5"/>
<text text-anchor="start" x="374" y="-18.5" font-family="Helvetica,sans-Serif" font-size="10.00">LittleWeebLibrary.Controllers.</text>
<text text-anchor="middle" x="473.5" y="-7.5" font-family="Helvetica,sans-Serif" font-size="10.00">FileWebSocketController.OnWebSocketEvent</text>
</a>
</g>
</g>
<!-- Node10&#45;&gt;Node11 -->
<g id="edge2" class="edge"><title>Node10&#45;&gt;Node11</title>
<path fill="none" stroke="midnightblue" d="M340.267,-15.5C348.718,-15.5 357.351,-15.5 365.956,-15.5"/>
<polygon fill="midnightblue" stroke="midnightblue" points="340.064,-12.0001 330.064,-15.5 340.064,-19.0001 340.064,-12.0001"/>
</g>
</g>
</svg>
