<?xml version="1.0" encoding="UTF-8" standalone="no"?>
<!DOCTYPE svg PUBLIC "-//W3C//DTD SVG 1.1//EN"
 "http://www.w3.org/Graphics/SVG/1.1/DTD/svg11.dtd">
<!-- Generated by graphviz version 2.38.0 (20140413.2041)
 -->
<!-- Title: LittleWeebLibrary.Models.JsonDownloadedInfo.ToString Pages: 1 -->
<svg width="590pt" height="50pt"
 viewBox="0.00 0.00 590.00 50.00" xmlns="http://www.w3.org/2000/svg" xmlns:xlink="http://www.w3.org/1999/xlink">
<g id="graph0" class="graph" transform="scale(1 1) rotate(0) translate(4 46)">
<title>LittleWeebLibrary.Models.JsonDownloadedInfo.ToString</title>
<polygon fill="white" stroke="none" points="-4,4 -4,-46 586,-46 586,4 -4,4"/>
<!-- Node3 -->
<g id="node1" class="node"><title>Node3</title>
<polygon fill="#bfbfbf" stroke="black" points="0,-6 0,-36 143,-36 143,-6 0,-6"/>
<text text-anchor="start" x="8" y="-24" font-family="Helvetica,sans-Serif" font-size="10.00">LittleWeebLibrary.Models.</text>
<text text-anchor="middle" x="71.5" y="-13" font-family="Helvetica,sans-Serif" font-size="10.00">JsonDownloadedInfo.ToString</text>
</g>
<!-- Node4 -->
<g id="node2" class="node"><title>Node4</title>
<g id="a_node2"><a xlink:href="class_little_weeb_library_1_1_handlers_1_1_file_history_handler.html#a615bf14eae35f656b211f0500abe4d29" target="_top" xlink:title="LittleWeebLibrary.Handlers.\lFileHistoryHandler.AddFileToFile\lHistory">
<polygon fill="white" stroke="black" points="179,-0.5 179,-41.5 337,-41.5 337,-0.5 179,-0.5"/>
<text text-anchor="start" x="187" y="-29.5" font-family="Helvetica,sans-Serif" font-size="10.00">LittleWeebLibrary.Handlers.</text>
<text text-anchor="start" x="187" y="-18.5" font-family="Helvetica,sans-Serif" font-size="10.00">FileHistoryHandler.AddFileToFile</text>
<text text-anchor="middle" x="258" y="-7.5" font-family="Helvetica,sans-Serif" font-size="10.00">History</text>
</a>
</g>
</g>
<!-- Node3&#45;&gt;Node4 -->
<g id="edge1" class="edge"><title>Node3&#45;&gt;Node4</title>
<path fill="none" stroke="midnightblue" d="M153.29,-21C161.762,-21 170.365,-21 178.807,-21"/>
<polygon fill="midnightblue" stroke="midnightblue" points="153.041,-17.5001 143.041,-21 153.041,-24.5001 153.041,-17.5001"/>
</g>
<!-- Node5 -->
<g id="node3" class="node"><title>Node5</title>
<g id="a_node3"><a xlink:href="class_little_weeb_library_1_1_handlers_1_1_download_handler.html#a8e40df55d254c0b95bb0a72becde5039" target="_top" xlink:title="LittleWeebLibrary.Handlers.\lDownloadHandler.OnIrcClientDownloadEvent">
<polygon fill="white" stroke="black" points="373,-6 373,-36 582,-36 582,-6 373,-6"/>
<text text-anchor="start" x="381" y="-24" font-family="Helvetica,sans-Serif" font-size="10.00">LittleWeebLibrary.Handlers.</text>
<text text-anchor="middle" x="477.5" y="-13" font-family="Helvetica,sans-Serif" font-size="10.00">DownloadHandler.OnIrcClientDownloadEvent</text>
</a>
</g>
</g>
<!-- Node4&#45;&gt;Node5 -->
<g id="edge2" class="edge"><title>Node4&#45;&gt;Node5</title>
<path fill="none" stroke="midnightblue" d="M347.36,-21C355.757,-21 364.322,-21 372.845,-21"/>
<polygon fill="midnightblue" stroke="midnightblue" points="347.215,-17.5001 337.215,-21 347.215,-24.5001 347.215,-17.5001"/>
</g>
</g>
</svg>
