<?xml version="1.0" encoding="UTF-8" standalone="no"?>
<!DOCTYPE svg PUBLIC "-//W3C//DTD SVG 1.1//EN"
 "http://www.w3.org/Graphics/SVG/1.1/DTD/svg11.dtd">
<!-- Generated by graphviz version 2.38.0 (20140413.2041)
 -->
<!-- Title: LittleWeebLibrary.Handlers.DirectoryHandler.DirectoryHandler Pages: 1 -->
<svg width="354pt" height="39pt"
 viewBox="0.00 0.00 354.00 39.00" xmlns="http://www.w3.org/2000/svg" xmlns:xlink="http://www.w3.org/1999/xlink">
<g id="graph0" class="graph" transform="scale(1 1) rotate(0) translate(4 35)">
<title>LittleWeebLibrary.Handlers.DirectoryHandler.DirectoryHandler</title>
<polygon fill="white" stroke="none" points="-4,4 -4,-35 350,-35 350,4 -4,4"/>
<!-- Node0 -->
<g id="node1" class="node"><title>Node0</title>
<polygon fill="#bfbfbf" stroke="black" points="0,-0.5 0,-30.5 164,-30.5 164,-0.5 0,-0.5"/>
<text text-anchor="start" x="8" y="-18.5" font-family="Helvetica,sans-Serif" font-size="10.00">LittleWeebLibrary.Handlers.</text>
<text text-anchor="middle" x="82" y="-7.5" font-family="Helvetica,sans-Serif" font-size="10.00">DirectoryHandler.DirectoryHandler</text>
</g>
<!-- Node1 -->
<g id="node2" class="node"><title>Node1</title>
<g id="a_node2"><a xlink:href="interface_little_weeb_library_1_1_handlers_1_1_i_debug_handler.html#a2e405bc3492e683cd3702fae125221bc" target="_top" xlink:title="LittleWeebLibrary.Handlers.\lIDebugHandler.TraceMessage">
<polygon fill="white" stroke="black" points="200,-0.5 200,-30.5 346,-30.5 346,-0.5 200,-0.5"/>
<text text-anchor="start" x="208" y="-18.5" font-family="Helvetica,sans-Serif" font-size="10.00">LittleWeebLibrary.Handlers.</text>
<text text-anchor="middle" x="273" y="-7.5" font-family="Helvetica,sans-Serif" font-size="10.00">IDebugHandler.TraceMessage</text>
</a>
</g>
</g>
<!-- Node0&#45;&gt;Node1 -->
<g id="edge1" class="edge"><title>Node0&#45;&gt;Node1</title>
<path fill="none" stroke="midnightblue" d="M164.25,-15.5C172.643,-15.5 181.179,-15.5 189.584,-15.5"/>
<polygon fill="midnightblue" stroke="midnightblue" points="189.755,-19.0001 199.755,-15.5 189.755,-12.0001 189.755,-19.0001"/>
</g>
</g>
</svg>
