<?xml version="1.0" encoding="UTF-8" standalone="no"?>
<!DOCTYPE svg PUBLIC "-//W3C//DTD SVG 1.1//EN"
 "http://www.w3.org/Graphics/SVG/1.1/DTD/svg11.dtd">
<!-- Generated by graphviz version 2.38.0 (20140413.2041)
 -->
<!-- Title: LittleWeebLibrary.Controllers.SubControllers.VersionWebSocketController Pages: 1 -->
<svg width="217pt" height="204pt"
 viewBox="0.00 0.00 217.00 204.00" xmlns="http://www.w3.org/2000/svg" xmlns:xlink="http://www.w3.org/1999/xlink">
<g id="graph0" class="graph" transform="scale(1 1) rotate(0) translate(4 200)">
<title>LittleWeebLibrary.Controllers.SubControllers.VersionWebSocketController</title>
<polygon fill="white" stroke="none" points="-4,4 -4,-200 213,-200 213,4 -4,4"/>
<!-- Node0 -->
<g id="node1" class="node"><title>Node0</title>
<polygon fill="#bfbfbf" stroke="black" points="0,-0.5 0,-101.5 209,-101.5 209,-0.5 0,-0.5"/>
<text text-anchor="start" x="8" y="-89.5" font-family="Helvetica,sans-Serif" font-size="10.00">LittleWeebLibrary.Controllers.</text>
<text text-anchor="middle" x="104.5" y="-78.5" font-family="Helvetica,sans-Serif" font-size="10.00">SubControllers.VersionWebSocketController</text>
<polyline fill="none" stroke="black" points="0,-71.5 209,-71.5 "/>
<text text-anchor="start" x="8" y="-59.5" font-family="Helvetica,sans-Serif" font-size="10.00">&#45; DebugHandler</text>
<text text-anchor="start" x="8" y="-48.5" font-family="Helvetica,sans-Serif" font-size="10.00">&#45; VersionWebSocketService</text>
<text text-anchor="start" x="8" y="-37.5" font-family="Helvetica,sans-Serif" font-size="10.00">&#45; WebSocketHandler</text>
<polyline fill="none" stroke="black" points="0,-30.5 209,-30.5 "/>
<text text-anchor="start" x="8" y="-18.5" font-family="Helvetica,sans-Serif" font-size="10.00">+ VersionWebSocketController()</text>
<text text-anchor="start" x="8" y="-7.5" font-family="Helvetica,sans-Serif" font-size="10.00">+ OnWebSocketEvent()</text>
</g>
<!-- Node1 -->
<g id="node2" class="node"><title>Node1</title>
<g id="a_node2"><a xlink:href="interface_little_weeb_library_1_1_controllers_1_1_i_sub_web_socket_controller.html" target="_top" xlink:title="{ISubWebSocketController\n||+ OnWebSocketEvent()\l}">
<polygon fill="white" stroke="black" points="40.5,-138.5 40.5,-195.5 168.5,-195.5 168.5,-138.5 40.5,-138.5"/>
<text text-anchor="middle" x="104.5" y="-183.5" font-family="Helvetica,sans-Serif" font-size="10.00">ISubWebSocketController</text>
<polyline fill="none" stroke="black" points="40.5,-176.5 168.5,-176.5 "/>
<text text-anchor="middle" x="104.5" y="-164.5" font-family="Helvetica,sans-Serif" font-size="10.00"> </text>
<polyline fill="none" stroke="black" points="40.5,-157.5 168.5,-157.5 "/>
<text text-anchor="start" x="48.5" y="-145.5" font-family="Helvetica,sans-Serif" font-size="10.00">+ OnWebSocketEvent()</text>
</a>
</g>
</g>
<!-- Node1&#45;&gt;Node0 -->
<g id="edge1" class="edge"><title>Node1&#45;&gt;Node0</title>
<path fill="none" stroke="midnightblue" d="M104.5,-128.354C104.5,-119.796 104.5,-110.578 104.5,-101.608"/>
<polygon fill="none" stroke="midnightblue" points="101,-128.404 104.5,-138.404 108,-128.404 101,-128.404"/>
</g>
</g>
</svg>
