<?xml version="1.0" encoding="UTF-8" standalone="no"?>
<!DOCTYPE svg PUBLIC "-//W3C//DTD SVG 1.1//EN"
 "http://www.w3.org/Graphics/SVG/1.1/DTD/svg11.dtd">
<!-- Generated by graphviz version 2.38.0 (20140413.2041)
 -->
<!-- Title: LittleWeebLibrary.Handlers.DebugHandler Pages: 1 -->
<svg width="411pt" height="402pt"
 viewBox="0.00 0.00 411.00 402.00" xmlns="http://www.w3.org/2000/svg" xmlns:xlink="http://www.w3.org/1999/xlink">
<g id="graph0" class="graph" transform="scale(1 1) rotate(0) translate(4 398)">
<title>LittleWeebLibrary.Handlers.DebugHandler</title>
<polygon fill="white" stroke="none" points="-4,4 -4,-398 407,-398 407,4 -4,4"/>
<!-- Node2 -->
<g id="node1" class="node"><title>Node2</title>
<polygon fill="#bfbfbf" stroke="black" points="112,-0.5 112,-211.5 249,-211.5 249,-0.5 112,-0.5"/>
<text text-anchor="start" x="120" y="-199.5" font-family="Helvetica,sans-Serif" font-size="10.00">LittleWeebLibrary.Handlers.</text>
<text text-anchor="middle" x="180.5" y="-188.5" font-family="Helvetica,sans-Serif" font-size="10.00">DebugHandler</text>
<polyline fill="none" stroke="black" points="112,-181.5 249,-181.5 "/>
<text text-anchor="start" x="120" y="-169.5" font-family="Helvetica,sans-Serif" font-size="10.00">&#45; DebugFileName</text>
<text text-anchor="start" x="120" y="-158.5" font-family="Helvetica,sans-Serif" font-size="10.00">&#45; DebugPath</text>
<text text-anchor="start" x="120" y="-147.5" font-family="Helvetica,sans-Serif" font-size="10.00">&#45; DebugSourceTypes</text>
<text text-anchor="start" x="120" y="-136.5" font-family="Helvetica,sans-Serif" font-size="10.00">&#45; DebugTypes</text>
<text text-anchor="start" x="120" y="-125.5" font-family="Helvetica,sans-Serif" font-size="10.00">&#45; DebugWriteAble</text>
<text text-anchor="start" x="120" y="-114.5" font-family="Helvetica,sans-Serif" font-size="10.00">&#45; MessageQueue</text>
<text text-anchor="start" x="120" y="-103.5" font-family="Helvetica,sans-Serif" font-size="10.00">&#45; stop</text>
<polyline fill="none" stroke="black" points="112,-96.5 249,-96.5 "/>
<text text-anchor="start" x="120" y="-84.5" font-family="Helvetica,sans-Serif" font-size="10.00">+ DebugHandler()</text>
<text text-anchor="start" x="120" y="-73.5" font-family="Helvetica,sans-Serif" font-size="10.00">+ SetSettings()</text>
<text text-anchor="start" x="120" y="-62.5" font-family="Helvetica,sans-Serif" font-size="10.00">+ StopDebugger()</text>
<text text-anchor="start" x="120" y="-51.5" font-family="Helvetica,sans-Serif" font-size="10.00">+ TraceMessage()</text>
<text text-anchor="start" x="120" y="-40.5" font-family="Helvetica,sans-Serif" font-size="10.00">&#45; CreateFile()</text>
<text text-anchor="start" x="120" y="-29.5" font-family="Helvetica,sans-Serif" font-size="10.00">&#45; DebugFileWriter()</text>
<text text-anchor="start" x="120" y="-18.5" font-family="Helvetica,sans-Serif" font-size="10.00">&#45; TraceWriter()</text>
<text text-anchor="start" x="120" y="-7.5" font-family="Helvetica,sans-Serif" font-size="10.00">&#45; WriteTrace()</text>
</g>
<!-- Node3 -->
<g id="node2" class="node"><title>Node3</title>
<g id="a_node2"><a xlink:href="interface_little_weeb_library_1_1_handlers_1_1_i_debug_handler.html" target="_top" xlink:title="{IDebugHandler\n||+ SetSettings()\l+ StopDebugger()\l+ TraceMessage()\l}">
<polygon fill="white" stroke="black" points="0,-287 0,-366 95,-366 95,-287 0,-287"/>
<text text-anchor="middle" x="47.5" y="-354" font-family="Helvetica,sans-Serif" font-size="10.00">IDebugHandler</text>
<polyline fill="none" stroke="black" points="0,-347 95,-347 "/>
<text text-anchor="middle" x="47.5" y="-335" font-family="Helvetica,sans-Serif" font-size="10.00"> </text>
<polyline fill="none" stroke="black" points="0,-328 95,-328 "/>
<text text-anchor="start" x="8" y="-316" font-family="Helvetica,sans-Serif" font-size="10.00">+ SetSettings()</text>
<text text-anchor="start" x="8" y="-305" font-family="Helvetica,sans-Serif" font-size="10.00">+ StopDebugger()</text>
<text text-anchor="start" x="8" y="-294" font-family="Helvetica,sans-Serif" font-size="10.00">+ TraceMessage()</text>
</a>
</g>
</g>
<!-- Node3&#45;&gt;Node2 -->
<g id="edge1" class="edge"><title>Node3&#45;&gt;Node2</title>
<path fill="none" stroke="midnightblue" d="M76.271,-278.233C88.1956,-258.643 102.539,-235.078 116.718,-211.785"/>
<polygon fill="none" stroke="midnightblue" points="73.1814,-276.578 70.9716,-286.94 79.1608,-280.217 73.1814,-276.578"/>
</g>
<!-- Node4 -->
<g id="node3" class="node"><title>Node4</title>
<g id="a_node3"><a xlink:href="class_little_weeb_library_1_1_settings_1_1_little_weeb_settings.html" target="_top" xlink:title="{LittleWeebLibrary.Settings.\lLittleWeebSettings\n|+ CurrentlyAiringBot\l+ DebugLevel\l+ DebugType\l+ Local\l+ MaxDebugLogSize\l+ Port\l+ RandomUsernameLength\l|+ ToString()\l}">
<polygon fill="white" stroke="black" points="113,-259.5 113,-393.5 248,-393.5 248,-259.5 113,-259.5"/>
<text text-anchor="start" x="121" y="-381.5" font-family="Helvetica,sans-Serif" font-size="10.00">LittleWeebLibrary.Settings.</text>
<text text-anchor="middle" x="180.5" y="-370.5" font-family="Helvetica,sans-Serif" font-size="10.00">LittleWeebSettings</text>
<polyline fill="none" stroke="black" points="113,-363.5 248,-363.5 "/>
<text text-anchor="start" x="121" y="-351.5" font-family="Helvetica,sans-Serif" font-size="10.00">+ CurrentlyAiringBot</text>
<text text-anchor="start" x="121" y="-340.5" font-family="Helvetica,sans-Serif" font-size="10.00">+ DebugLevel</text>
<text text-anchor="start" x="121" y="-329.5" font-family="Helvetica,sans-Serif" font-size="10.00">+ DebugType</text>
<text text-anchor="start" x="121" y="-318.5" font-family="Helvetica,sans-Serif" font-size="10.00">+ Local</text>
<text text-anchor="start" x="121" y="-307.5" font-family="Helvetica,sans-Serif" font-size="10.00">+ MaxDebugLogSize</text>
<text text-anchor="start" x="121" y="-296.5" font-family="Helvetica,sans-Serif" font-size="10.00">+ Port</text>
<text text-anchor="start" x="121" y="-285.5" font-family="Helvetica,sans-Serif" font-size="10.00">+ RandomUsernameLength</text>
<polyline fill="none" stroke="black" points="113,-278.5 248,-278.5 "/>
<text text-anchor="start" x="121" y="-266.5" font-family="Helvetica,sans-Serif" font-size="10.00">+ ToString()</text>
</a>
</g>
</g>
<!-- Node4&#45;&gt;Node2 -->
<g id="edge2" class="edge"><title>Node4&#45;&gt;Node2</title>
<path fill="none" stroke="#404040" d="M180.5,-259.35C180.5,-248.045 180.5,-236.008 180.5,-223.844"/>
<polygon fill="none" stroke="#404040" points="180.5,-223.66 176.5,-217.66 180.5,-211.66 184.5,-217.66 180.5,-223.66"/>
<text text-anchor="middle" x="225" y="-233" font-family="Helvetica,sans-Serif" font-size="10.00"> &#45;LittleWeebSettings</text>
</g>
<!-- Node5 -->
<g id="node4" class="node"><title>Node5</title>
<g id="a_node4"><a xlink:href="interface_little_weeb_library_1_1_handlers_1_1_i_settings_handler.html" target="_top" xlink:title="{LittleWeebLibrary.Handlers.\lISettingsHandler\n||+ GetIrcSettings()\l+ GetLittleWeebSettings()\l+ WriteIrcSettings()\l+ WriteLittleWeebSettings()\l}">
<polygon fill="white" stroke="black" points="266,-276 266,-377 403,-377 403,-276 266,-276"/>
<text text-anchor="start" x="274" y="-365" font-family="Helvetica,sans-Serif" font-size="10.00">LittleWeebLibrary.Handlers.</text>
<text text-anchor="middle" x="334.5" y="-354" font-family="Helvetica,sans-Serif" font-size="10.00">ISettingsHandler</text>
<polyline fill="none" stroke="black" points="266,-347 403,-347 "/>
<text text-anchor="middle" x="334.5" y="-335" font-family="Helvetica,sans-Serif" font-size="10.00"> </text>
<polyline fill="none" stroke="black" points="266,-328 403,-328 "/>
<text text-anchor="start" x="274" y="-316" font-family="Helvetica,sans-Serif" font-size="10.00">+ GetIrcSettings()</text>
<text text-anchor="start" x="274" y="-305" font-family="Helvetica,sans-Serif" font-size="10.00">+ GetLittleWeebSettings()</text>
<text text-anchor="start" x="274" y="-294" font-family="Helvetica,sans-Serif" font-size="10.00">+ WriteIrcSettings()</text>
<text text-anchor="start" x="274" y="-283" font-family="Helvetica,sans-Serif" font-size="10.00">+ WriteLittleWeebSettings()</text>
</a>
</g>
</g>
<!-- Node5&#45;&gt;Node2 -->
<g id="edge3" class="edge"><title>Node5&#45;&gt;Node2</title>
<path fill="none" stroke="#404040" d="M303.887,-275.937C294.389,-261.011 283.725,-244.695 273.5,-230 268.01,-222.111 262.231,-214.015 256.352,-205.926"/>
<polygon fill="none" stroke="#404040" points="256.231,-205.76 249.46,-203.281 249.144,-196.076 255.915,-198.556 256.231,-205.76"/>
<text text-anchor="middle" x="317.5" y="-233" font-family="Helvetica,sans-Serif" font-size="10.00"> &#45;SettingsHandler</text>
</g>
</g>
</svg>
