<?xml version="1.0" encoding="UTF-8" standalone="no"?>
<!DOCTYPE svg PUBLIC "-//W3C//DTD SVG 1.1//EN"
 "http://www.w3.org/Graphics/SVG/1.1/DTD/svg11.dtd">
<!-- Generated by graphviz version 2.38.0 (20140413.2041)
 -->
<!-- Title: LittleWeebLibrary.StaticClasses.UtilityMethods.GetFreeSpaceKbits Pages: 1 -->
<!--zoomable 137 -->
<svg id="main" version="1.1" xmlns="http://www.w3.org/2000/svg" xmlns:xlink="http://www.w3.org/1999/xlink" xml:space="preserve" onload="init(evt)">
<style type="text/css"><![CDATA[
.edge:hover path { stroke: red; }
.edge:hover polygon { stroke: red; fill: red; }
]]></style>
<script type="text/javascript"><![CDATA[
var edges = document.getElementsByTagName('g');
if (edges && edges.length) {
  for (var i=0;i<edges.length;i++) {
    if (edges[i].id.substr(0,4)=='edge') {
      edges[i].setAttribute('class','edge');
    }
  }
}
]]></script>
        <defs>
                <circle id="rim" cx="0" cy="0" r="7"/>
                <circle id="rim2" cx="0" cy="0" r="3.5"/>
                <g id="zoomPlus">
                        <use xlink:href="#rim" fill="#404040">
                                <set attributeName="fill" to="#808080" begin="zoomplus.mouseover" end="zoomplus.mouseout"/>
                        </use>
                        <path d="M-4,0h8M0,-4v8" fill="none" stroke="white" stroke-width="1.5" pointer-events="none"/>
                </g>
                <g id="zoomMin">
                        <use xlink:href="#rim" fill="#404040">
                                <set attributeName="fill" to="#808080" begin="zoomminus.mouseover" end="zoomminus.mouseout"/>
                        </use>
                        <path d="M-4,0h8" fill="none" stroke="white" stroke-width="1.5" pointer-events="none"/>
                </g>
                <g id="dirArrow">
                        <path fill="none" stroke="white" stroke-width="1.5" d="M0,-3.0v7 M-2.5,-0.5L0,-3.0L2.5,-0.5"/>
                </g>
               <g id="resetDef">
                       <use xlink:href="#rim2" fill="#404040">
                               <set attributeName="fill" to="#808080" begin="reset.mouseover" end="reset.mouseout"/>
                       </use>
               </g>
        </defs>

<script type="text/javascript">
var viewWidth = 826;
var viewHeight = 137;
var sectionId = 'dynsection-5';
</script>
<script xlink:href="svgpan.js"/>
<svg id="graph" class="graph">
<g id="viewport">
<title>LittleWeebLibrary.StaticClasses.UtilityMethods.GetFreeSpaceKbits</title>
<polygon fill="white" stroke="none" points="-4,4 -4,-133 822,-133 822,4 -4,4"/>
<!-- Node20 -->
<g id="node1" class="node"><title>Node20</title>
<polygon fill="#bfbfbf" stroke="black" points="0,-44 0,-85 155,-85 155,-44 0,-44"/>
<text text-anchor="start" x="8" y="-73" font-family="Helvetica,sans-Serif" font-size="10.00">LittleWeebLibrary.Static</text>
<text text-anchor="start" x="8" y="-62" font-family="Helvetica,sans-Serif" font-size="10.00">Classes.UtilityMethods.GetFree</text>
<text text-anchor="middle" x="77.5" y="-51" font-family="Helvetica,sans-Serif" font-size="10.00">SpaceKbits</text>
</g>
<!-- Node21 -->
<g id="node2" class="node"><title>Node21</title>
<g id="a_node2"><a xlink:href="class_little_weeb_library_1_1_handlers_1_1_download_handler.html#ad28cb47c19cac5e761ceff86ea021a02" target="_top" xlink:title="LittleWeebLibrary.Handlers.\lDownloadHandler.AddDownload">
<polygon fill="white" stroke="black" points="193.5,-98.5 193.5,-128.5 347.5,-128.5 347.5,-98.5 193.5,-98.5"/>
<text text-anchor="start" x="201.5" y="-116.5" font-family="Helvetica,sans-Serif" font-size="10.00">LittleWeebLibrary.Handlers.</text>
<text text-anchor="middle" x="270.5" y="-105.5" font-family="Helvetica,sans-Serif" font-size="10.00">DownloadHandler.AddDownload</text>
</a>
</g>
</g>
<!-- Node20&#45;&gt;Node21 -->
<g id="edge1" class="edge"><title>Node20&#45;&gt;Node21</title>
<path fill="none" stroke="midnightblue" d="M165.18,-86.7373C180.634,-90.7019 196.399,-94.7463 210.837,-98.4503"/>
<polygon fill="midnightblue" stroke="midnightblue" points="165.643,-83.2427 155.086,-84.1478 163.903,-90.0231 165.643,-83.2427"/>
</g>
<!-- Node24 -->
<g id="node5" class="node"><title>Node24</title>
<g id="a_node5"><a xlink:href="class_little_weeb_library_1_1_handlers_1_1_download_handler.html#ac03f2dc024c0884bb7bd1c68ee03142e" target="_top" xlink:title="LittleWeebLibrary.Handlers.\lDownloadHandler.AddDownloads">
<polygon fill="white" stroke="black" points="191,-49.5 191,-79.5 350,-79.5 350,-49.5 191,-49.5"/>
<text text-anchor="start" x="199" y="-67.5" font-family="Helvetica,sans-Serif" font-size="10.00">LittleWeebLibrary.Handlers.</text>
<text text-anchor="middle" x="270.5" y="-56.5" font-family="Helvetica,sans-Serif" font-size="10.00">DownloadHandler.AddDownloads</text>
</a>
</g>
</g>
<!-- Node20&#45;&gt;Node24 -->
<g id="edge4" class="edge"><title>Node20&#45;&gt;Node24</title>
<path fill="none" stroke="midnightblue" d="M165.338,-64.5C173.794,-64.5 182.342,-64.5 190.712,-64.5"/>
<polygon fill="midnightblue" stroke="midnightblue" points="165.087,-61.0001 155.086,-64.5 165.086,-68.0001 165.087,-61.0001"/>
</g>
<!-- Node26 -->
<g id="node7" class="node"><title>Node26</title>
<g id="a_node7"><a xlink:href="class_little_weeb_library_1_1_handlers_1_1_directory_handler.html#aa439a303572de6bf09438d38a7fa4698" target="_top" xlink:title="LittleWeebLibrary.Handlers.\lDirectoryHandler.GetFreeSpace">
<polygon fill="white" stroke="black" points="193,-0.5 193,-30.5 348,-30.5 348,-0.5 193,-0.5"/>
<text text-anchor="start" x="201" y="-18.5" font-family="Helvetica,sans-Serif" font-size="10.00">LittleWeebLibrary.Handlers.</text>
<text text-anchor="middle" x="270.5" y="-7.5" font-family="Helvetica,sans-Serif" font-size="10.00">DirectoryHandler.GetFreeSpace</text>
</a>
</g>
</g>
<!-- Node20&#45;&gt;Node26 -->
<g id="edge7" class="edge"><title>Node20&#45;&gt;Node26</title>
<path fill="none" stroke="midnightblue" d="M165.18,-42.2627C180.634,-38.2981 196.399,-34.2537 210.837,-30.5497"/>
<polygon fill="midnightblue" stroke="midnightblue" points="163.903,-38.9769 155.086,-44.8522 165.643,-45.7573 163.903,-38.9769"/>
</g>
<!-- Node22 -->
<g id="node3" class="node"><title>Node22</title>
<g id="a_node3"><a xlink:href="class_little_weeb_library_1_1_services_1_1_download_web_socket_service.html#a7aaa1db63ee81a2e5246e45ef8643087" target="_top" xlink:title="LittleWeebLibrary.Services.\lDownloadWebSocketService.AddDownload">
<polygon fill="white" stroke="black" points="389,-98.5 389,-128.5 592,-128.5 592,-98.5 389,-98.5"/>
<text text-anchor="start" x="397" y="-116.5" font-family="Helvetica,sans-Serif" font-size="10.00">LittleWeebLibrary.Services.</text>
<text text-anchor="middle" x="490.5" y="-105.5" font-family="Helvetica,sans-Serif" font-size="10.00">DownloadWebSocketService.AddDownload</text>
</a>
</g>
</g>
<!-- Node21&#45;&gt;Node22 -->
<g id="edge2" class="edge"><title>Node21&#45;&gt;Node22</title>
<path fill="none" stroke="midnightblue" d="M357.811,-113.5C367.982,-113.5 378.429,-113.5 388.776,-113.5"/>
<polygon fill="midnightblue" stroke="midnightblue" points="357.746,-110 347.746,-113.5 357.746,-117 357.746,-110"/>
</g>
<!-- Node23 -->
<g id="node4" class="node"><title>Node23</title>
<g id="a_node4"><a xlink:href="class_little_weeb_library_1_1_controllers_1_1_download_web_socket_controller.html#a9e5e421ed57b8b2a294e17d93d027c53" target="_top" xlink:title="LittleWeebLibrary.Controllers.\lDownloadWebSocketController.OnWeb\lSocketEvent">
<polygon fill="white" stroke="black" points="631,-44 631,-85 818,-85 818,-44 631,-44"/>
<text text-anchor="start" x="639" y="-73" font-family="Helvetica,sans-Serif" font-size="10.00">LittleWeebLibrary.Controllers.</text>
<text text-anchor="start" x="639" y="-62" font-family="Helvetica,sans-Serif" font-size="10.00">DownloadWebSocketController.OnWeb</text>
<text text-anchor="middle" x="724.5" y="-51" font-family="Helvetica,sans-Serif" font-size="10.00">SocketEvent</text>
</a>
</g>
</g>
<!-- Node22&#45;&gt;Node23 -->
<g id="edge3" class="edge"><title>Node22&#45;&gt;Node23</title>
<path fill="none" stroke="midnightblue" d="M572.641,-96.3626C591.371,-92.4067 611.437,-88.1684 630.624,-84.116"/>
<polygon fill="midnightblue" stroke="midnightblue" points="571.745,-92.9744 562.684,-98.4654 573.192,-99.8233 571.745,-92.9744"/>
</g>
<!-- Node25 -->
<g id="node6" class="node"><title>Node25</title>
<g id="a_node6"><a xlink:href="class_little_weeb_library_1_1_services_1_1_download_web_socket_service.html#ad6afd5ee42650d16c67790c6d2ac80c1" target="_top" xlink:title="LittleWeebLibrary.Services.\lDownloadWebSocketService.AddDownloads">
<polygon fill="white" stroke="black" points="386,-49.5 386,-79.5 595,-79.5 595,-49.5 386,-49.5"/>
<text text-anchor="start" x="394" y="-67.5" font-family="Helvetica,sans-Serif" font-size="10.00">LittleWeebLibrary.Services.</text>
<text text-anchor="middle" x="490.5" y="-56.5" font-family="Helvetica,sans-Serif" font-size="10.00">DownloadWebSocketService.AddDownloads</text>
</a>
</g>
</g>
<!-- Node24&#45;&gt;Node25 -->
<g id="edge5" class="edge"><title>Node24&#45;&gt;Node25</title>
<path fill="none" stroke="midnightblue" d="M360.361,-64.5C368.767,-64.5 377.339,-64.5 385.867,-64.5"/>
<polygon fill="midnightblue" stroke="midnightblue" points="360.203,-61.0001 350.203,-64.5 360.203,-68.0001 360.203,-61.0001"/>
</g>
<!-- Node25&#45;&gt;Node23 -->
<g id="edge6" class="edge"><title>Node25&#45;&gt;Node23</title>
<path fill="none" stroke="midnightblue" d="M605.291,-64.5C613.83,-64.5 622.385,-64.5 630.771,-64.5"/>
<polygon fill="midnightblue" stroke="midnightblue" points="605.286,-61.0001 595.286,-64.5 605.286,-68.0001 605.286,-61.0001"/>
</g>
<!-- Node27 -->
<g id="node8" class="node"><title>Node27</title>
<g id="a_node8"><a xlink:href="class_little_weeb_library_1_1_services_1_1_directory_web_socket_service.html#a37c3c5de12db8083e8e6d22ce1fe6776" target="_top" xlink:title="LittleWeebLibrary.Services.\lDirectoryWebSocketService.GetFreeSpace">
<polygon fill="white" stroke="black" points="388.5,-0.5 388.5,-30.5 592.5,-30.5 592.5,-0.5 388.5,-0.5"/>
<text text-anchor="start" x="396.5" y="-18.5" font-family="Helvetica,sans-Serif" font-size="10.00">LittleWeebLibrary.Services.</text>
<text text-anchor="middle" x="490.5" y="-7.5" font-family="Helvetica,sans-Serif" font-size="10.00">DirectoryWebSocketService.GetFreeSpace</text>
</a>
</g>
</g>
<!-- Node26&#45;&gt;Node27 -->
<g id="edge8" class="edge"><title>Node26&#45;&gt;Node27</title>
<path fill="none" stroke="midnightblue" d="M358.231,-15.5C368.101,-15.5 378.226,-15.5 388.262,-15.5"/>
<polygon fill="midnightblue" stroke="midnightblue" points="358.052,-12.0001 348.052,-15.5 358.052,-19.0001 358.052,-12.0001"/>
</g>
<!-- Node27&#45;&gt;Node23 -->
<g id="edge9" class="edge"><title>Node27&#45;&gt;Node23</title>
<path fill="none" stroke="midnightblue" d="M572.641,-32.6374C591.371,-36.5933 611.437,-40.8316 630.624,-44.884"/>
<polygon fill="midnightblue" stroke="midnightblue" points="573.192,-29.1767 562.684,-30.5346 571.745,-36.0256 573.192,-29.1767"/>
</g>
</g>
</svg>
        <g id="navigator" transform="translate(0 0)" fill="#404254">
                <rect fill="#f2f5e9" fill-opacity="0.5" stroke="#606060" stroke-width=".5" x="0" y="0" width="60" height="60"/>
                <use id="zoomplus" xlink:href="#zoomPlus" x="17" y="9" onmousedown="handleZoom(evt,'in')"/>
                <use id="zoomminus" xlink:href="#zoomMin" x="42" y="9" onmousedown="handleZoom(evt,'out')"/>
                <use id="reset" xlink:href="#resetDef" x="30" y="36" onmousedown="handleReset()"/>
                <g id="arrowUp" xlink:href="#dirArrow" transform="translate(30 24)" onmousedown="handlePan(0,-1)">
                  <use xlink:href="#rim" fill="#404040">
                        <set attributeName="fill" to="#808080" begin="arrowUp.mouseover" end="arrowUp.mouseout"/>
                  </use>
                  <path fill="none" stroke="white" stroke-width="1.5" d="M0,-3.0v7 M-2.5,-0.5L0,-3.0L2.5,-0.5"/>
                </g>
                <g id="arrowRight" xlink:href="#dirArrow" transform="rotate(90) translate(36 -43)" onmousedown="handlePan(1,0)">
                  <use xlink:href="#rim" fill="#404040">
                        <set attributeName="fill" to="#808080" begin="arrowRight.mouseover" end="arrowRight.mouseout"/>
                  </use>
                  <path fill="none" stroke="white" stroke-width="1.5" d="M0,-3.0v7 M-2.5,-0.5L0,-3.0L2.5,-0.5"/>
                </g>
                <g id="arrowDown" xlink:href="#dirArrow" transform="rotate(180) translate(-30 -48)" onmousedown="handlePan(0,1)">
                  <use xlink:href="#rim" fill="#404040">
                        <set attributeName="fill" to="#808080" begin="arrowDown.mouseover" end="arrowDown.mouseout"/>
                  </use>
                  <path fill="none" stroke="white" stroke-width="1.5" d="M0,-3.0v7 M-2.5,-0.5L0,-3.0L2.5,-0.5"/>
                </g>
                <g id="arrowLeft" xlink:href="#dirArrow" transform="rotate(270) translate(-36 17)" onmousedown="handlePan(-1,0)">
                  <use xlink:href="#rim" fill="#404040">
                        <set attributeName="fill" to="#808080" begin="arrowLeft.mouseover" end="arrowLeft.mouseout"/>
                  </use>
                  <path fill="none" stroke="white" stroke-width="1.5" d="M0,-3.0v7 M-2.5,-0.5L0,-3.0L2.5,-0.5"/>
                </g>
        </g>
        <svg viewBox="0 0 15 15" width="100%" height="30px" preserveAspectRatio="xMaxYMin meet">
         <g id="arrow_out" transform="scale(0.3 0.3)">
          <a xlink:href="class_little_weeb_library_1_1_static_classes_1_1_utility_methods_a76fa2aea99ce4b1ad4130cc18b1d5969_icgraph_org.svg" target="_base">
           <rect id="button" ry="5" rx="5" y="6" x="6" height="38" width="38"
                fill="#f2f5e9" fill-opacity="0.5" stroke="#606060" stroke-width="1.0"/>
           <path id="arrow"
             d="M 11.500037,31.436501 C 11.940474,20.09759 22.043105,11.32322 32.158766,21.979434 L 37.068811,17.246167 C 37.068811,17.246167 37.088388,32 37.088388,32 L 22.160133,31.978069 C 22.160133,31.978069 26.997745,27.140456 26.997745,27.140456 C 18.528582,18.264221 13.291696,25.230495 11.500037,31.436501 z"
             style="fill:#404040;"/>
          </a>
         </g>
        </svg>
</svg>
