<?xml version="1.0" encoding="UTF-8" standalone="no"?>
<!DOCTYPE svg PUBLIC "-//W3C//DTD SVG 1.1//EN"
 "http://www.w3.org/Graphics/SVG/1.1/DTD/svg11.dtd">
<!-- Generated by graphviz version 2.38.0 (20140413.2041)
 -->
<!-- Title: LittleWeebLibrary.Models.JsonDirectories.ToJson Pages: 1 -->
<svg width="739pt" height="50pt"
 viewBox="0.00 0.00 739.00 50.00" xmlns="http://www.w3.org/2000/svg" xmlns:xlink="http://www.w3.org/1999/xlink">
<g id="graph0" class="graph" transform="scale(1 1) rotate(0) translate(4 46)">
<title>LittleWeebLibrary.Models.JsonDirectories.ToJson</title>
<polygon fill="white" stroke="none" points="-4,4 -4,-46 735,-46 735,4 -4,4"/>
<!-- Node1 -->
<g id="node1" class="node"><title>Node1</title>
<polygon fill="#bfbfbf" stroke="black" points="0,-6 0,-36 130,-36 130,-6 0,-6"/>
<text text-anchor="start" x="8" y="-24" font-family="Helvetica,sans-Serif" font-size="10.00">LittleWeebLibrary.Models.</text>
<text text-anchor="middle" x="65" y="-13" font-family="Helvetica,sans-Serif" font-size="10.00">JsonDirectories.ToJson</text>
</g>
<!-- Node2 -->
<g id="node2" class="node"><title>Node2</title>
<g id="a_node2"><a xlink:href="class_little_weeb_library_1_1_handlers_1_1_directory_handler.html#a6ab9fa9b838eeca3f918429af0a3564d" target="_top" xlink:title="LittleWeebLibrary.Handlers.\lDirectoryHandler.GetDrives">
<polygon fill="white" stroke="black" points="166,-6 166,-36 303,-36 303,-6 166,-6"/>
<text text-anchor="start" x="174" y="-24" font-family="Helvetica,sans-Serif" font-size="10.00">LittleWeebLibrary.Handlers.</text>
<text text-anchor="middle" x="234.5" y="-13" font-family="Helvetica,sans-Serif" font-size="10.00">DirectoryHandler.GetDrives</text>
</a>
</g>
</g>
<!-- Node1&#45;&gt;Node2 -->
<g id="edge1" class="edge"><title>Node1&#45;&gt;Node2</title>
<path fill="none" stroke="midnightblue" d="M140.471,-21C148.896,-21 157.447,-21 165.779,-21"/>
<polygon fill="midnightblue" stroke="midnightblue" points="140.281,-17.5001 130.281,-21 140.281,-24.5001 140.281,-17.5001"/>
</g>
<!-- Node3 -->
<g id="node3" class="node"><title>Node3</title>
<g id="a_node3"><a xlink:href="class_little_weeb_library_1_1_services_1_1_directory_web_socket_service.html#a368f502e063381bccfed714d8350dc69" target="_top" xlink:title="LittleWeebLibrary.Services.\lDirectoryWebSocketService.GetDrives">
<polygon fill="white" stroke="black" points="339,-6 339,-36 522,-36 522,-6 339,-6"/>
<text text-anchor="start" x="347" y="-24" font-family="Helvetica,sans-Serif" font-size="10.00">LittleWeebLibrary.Services.</text>
<text text-anchor="middle" x="430.5" y="-13" font-family="Helvetica,sans-Serif" font-size="10.00">DirectoryWebSocketService.GetDrives</text>
</a>
</g>
</g>
<!-- Node2&#45;&gt;Node3 -->
<g id="edge2" class="edge"><title>Node2&#45;&gt;Node3</title>
<path fill="none" stroke="midnightblue" d="M313.268,-21C321.719,-21 330.372,-21 338.958,-21"/>
<polygon fill="midnightblue" stroke="midnightblue" points="313.079,-17.5001 303.079,-21 313.079,-24.5001 313.079,-17.5001"/>
</g>
<!-- Node4 -->
<g id="node4" class="node"><title>Node4</title>
<g id="a_node4"><a xlink:href="class_little_weeb_library_1_1_controllers_1_1_sub_controllers_1_1_directory_web_socket_controller.html#a2db42c05c620f5658a5b6e473581f84c" target="_top" xlink:title="LittleWeebLibrary.Controllers.\lSubControllers.DirectoryWebSocket\lController.OnWebSocketEvent">
<polygon fill="white" stroke="black" points="558,-0.5 558,-41.5 731,-41.5 731,-0.5 558,-0.5"/>
<text text-anchor="start" x="566" y="-29.5" font-family="Helvetica,sans-Serif" font-size="10.00">LittleWeebLibrary.Controllers.</text>
<text text-anchor="start" x="566" y="-18.5" font-family="Helvetica,sans-Serif" font-size="10.00">SubControllers.DirectoryWebSocket</text>
<text text-anchor="middle" x="644.5" y="-7.5" font-family="Helvetica,sans-Serif" font-size="10.00">Controller.OnWebSocketEvent</text>
</a>
</g>
</g>
<!-- Node3&#45;&gt;Node4 -->
<g id="edge3" class="edge"><title>Node3&#45;&gt;Node4</title>
<path fill="none" stroke="midnightblue" d="M532.137,-21C540.784,-21 549.479,-21 557.99,-21"/>
<polygon fill="midnightblue" stroke="midnightblue" points="532.022,-17.5001 522.022,-21 532.022,-24.5001 532.022,-17.5001"/>
</g>
</g>
</svg>
