<?xml version="1.0" encoding="UTF-8" standalone="no"?>
<!DOCTYPE svg PUBLIC "-//W3C//DTD SVG 1.1//EN"
 "http://www.w3.org/Graphics/SVG/1.1/DTD/svg11.dtd">
<!-- Generated by graphviz version 2.38.0 (20140413.2041)
 -->
<!-- Title: LittleWeebLibrary.Controllers.SubControllers.SettingsWebSocketController.OnWebSocketEvent Pages: 1 -->
<svg width="813pt" height="875pt"
 viewBox="0.00 0.00 813.00 874.86" xmlns="http://www.w3.org/2000/svg" xmlns:xlink="http://www.w3.org/1999/xlink">
<g id="graph0" class="graph" transform="scale(1 1) rotate(0) translate(4 870.858)">
<title>LittleWeebLibrary.Controllers.SubControllers.SettingsWebSocketController.OnWebSocketEvent</title>
<polygon fill="white" stroke="none" points="-4,4 -4,-870.858 809,-870.858 809,4 -4,4"/>
<!-- Node3 -->
<g id="node1" class="node"><title>Node3</title>
<polygon fill="#bfbfbf" stroke="black" points="0,-402 0,-443 170,-443 170,-402 0,-402"/>
<text text-anchor="start" x="8" y="-431" font-family="Helvetica,sans-Serif" font-size="10.00">LittleWeebLibrary.Controllers.</text>
<text text-anchor="start" x="8" y="-420" font-family="Helvetica,sans-Serif" font-size="10.00">SubControllers.SettingsWebSocket</text>
<text text-anchor="middle" x="85" y="-409" font-family="Helvetica,sans-Serif" font-size="10.00">Controller.OnWebSocketEvent</text>
</g>
<!-- Node4 -->
<g id="node2" class="node"><title>Node4</title>
<g id="a_node2"><a xlink:href="class_little_weeb_library_1_1_services_1_1_settings_web_socket_service.html#aaa29fbcae1268174d436730a58afadca" target="_top" xlink:title="LittleWeebLibrary.Services.\lSettingsWebSocketService.GetCurrent\lIrcSettings">
<polygon fill="white" stroke="black" points="211.5,-657 211.5,-698 396.5,-698 396.5,-657 211.5,-657"/>
<text text-anchor="start" x="219.5" y="-686" font-family="Helvetica,sans-Serif" font-size="10.00">LittleWeebLibrary.Services.</text>
<text text-anchor="start" x="219.5" y="-675" font-family="Helvetica,sans-Serif" font-size="10.00">SettingsWebSocketService.GetCurrent</text>
<text text-anchor="middle" x="304" y="-664" font-family="Helvetica,sans-Serif" font-size="10.00">IrcSettings</text>
</a>
</g>
</g>
<!-- Node3&#45;&gt;Node4 -->
<g id="edge1" class="edge"><title>Node3&#45;&gt;Node4</title>
<path fill="none" stroke="midnightblue" d="M94.5139,-443.129C111.204,-481.614 151.408,-565.354 206,-619.5 218.694,-632.09 234.64,-643.065 249.915,-651.98"/>
<polygon fill="midnightblue" stroke="midnightblue" points="248.371,-655.128 258.801,-656.988 251.807,-649.03 248.371,-655.128"/>
</g>
<!-- Node5 -->
<g id="node3" class="node"><title>Node5</title>
<g id="a_node3"><a xlink:href="class_little_weeb_library_1_1_handlers_1_1_debug_handler.html#afccb37dfd6b2114af72000c2f4fe4607" target="_top" xlink:title="LittleWeebLibrary.Handlers.\lDebugHandler.TraceMessage">
<polygon fill="white" stroke="black" points="661,-503.5 661,-533.5 805,-533.5 805,-503.5 661,-503.5"/>
<text text-anchor="start" x="669" y="-521.5" font-family="Helvetica,sans-Serif" font-size="10.00">LittleWeebLibrary.Handlers.</text>
<text text-anchor="middle" x="733" y="-510.5" font-family="Helvetica,sans-Serif" font-size="10.00">DebugHandler.TraceMessage</text>
</a>
</g>
</g>
<!-- Node3&#45;&gt;Node5 -->
<g id="edge45" class="edge"><title>Node3&#45;&gt;Node5</title>
<path fill="none" stroke="midnightblue" d="M89.9191,-443.234C100.423,-493.898 133.468,-625.799 206,-707.5 284.76,-796.216 323.313,-809.157 438,-839.5 518.347,-860.757 557.577,-888.096 625,-839.5 722.33,-769.348 732.464,-606.818 732.583,-543.96"/>
<polygon fill="midnightblue" stroke="midnightblue" points="736.082,-543.733 732.513,-533.757 729.082,-543.781 736.082,-543.733"/>
</g>
<!-- Node7 -->
<g id="node5" class="node"><title>Node7</title>
<g id="a_node5"><a xlink:href="class_little_weeb_library_1_1_handlers_1_1_web_socket_handler.html#a1de289d54d665a32c93478c68d3e6ad0" target="_top" xlink:title="LittleWeebLibrary.Handlers.\lWebSocketHandler.SendMessage">
<polygon fill="white" stroke="black" points="448.5,-525.5 448.5,-555.5 614.5,-555.5 614.5,-525.5 448.5,-525.5"/>
<text text-anchor="start" x="456.5" y="-543.5" font-family="Helvetica,sans-Serif" font-size="10.00">LittleWeebLibrary.Handlers.</text>
<text text-anchor="middle" x="531.5" y="-532.5" font-family="Helvetica,sans-Serif" font-size="10.00">WebSocketHandler.SendMessage</text>
</a>
</g>
</g>
<!-- Node3&#45;&gt;Node7 -->
<g id="edge14" class="edge"><title>Node3&#45;&gt;Node7</title>
<path fill="none" stroke="midnightblue" d="M120.563,-443.118C143.945,-456.217 175.933,-472.528 206,-482.5 282.209,-507.777 372.35,-522.768 438.262,-531.156"/>
<polygon fill="midnightblue" stroke="midnightblue" points="437.861,-534.633 448.217,-532.396 438.726,-527.687 437.861,-534.633"/>
</g>
<!-- Node9 -->
<g id="node7" class="node"><title>Node9</title>
<g id="a_node7"><a xlink:href="class_little_weeb_library_1_1_services_1_1_settings_web_socket_service.html#a50cbfe4ba270c9e84b6b7b427a1b9ce0" target="_top" xlink:title="LittleWeebLibrary.Services.\lSettingsWebSocketService.GetCurrent\lLittleWeebSettings">
<polygon fill="white" stroke="black" points="211.5,-569 211.5,-610 396.5,-610 396.5,-569 211.5,-569"/>
<text text-anchor="start" x="219.5" y="-598" font-family="Helvetica,sans-Serif" font-size="10.00">LittleWeebLibrary.Services.</text>
<text text-anchor="start" x="219.5" y="-587" font-family="Helvetica,sans-Serif" font-size="10.00">SettingsWebSocketService.GetCurrent</text>
<text text-anchor="middle" x="304" y="-576" font-family="Helvetica,sans-Serif" font-size="10.00">LittleWeebSettings</text>
</a>
</g>
</g>
<!-- Node3&#45;&gt;Node9 -->
<g id="edge8" class="edge"><title>Node3&#45;&gt;Node9</title>
<path fill="none" stroke="midnightblue" d="M106.078,-443.386C129.018,-466.638 168.275,-504.61 206,-532.5 221.24,-543.767 238.863,-554.682 254.872,-563.892"/>
<polygon fill="midnightblue" stroke="midnightblue" points="253.149,-566.939 263.575,-568.826 256.601,-560.849 253.149,-566.939"/>
</g>
<!-- Node12 -->
<g id="node10" class="node"><title>Node12</title>
<g id="a_node10"><a xlink:href="class_little_weeb_library_1_1_services_1_1_settings_web_socket_service.html#aef49a5d18d17b206d2807bba6c28f793" target="_top" xlink:title="LittleWeebLibrary.Services.\lSettingsWebSocketService.Setfullfilepath">
<polygon fill="white" stroke="black" points="206,-219.5 206,-249.5 402,-249.5 402,-219.5 206,-219.5"/>
<text text-anchor="start" x="214" y="-237.5" font-family="Helvetica,sans-Serif" font-size="10.00">LittleWeebLibrary.Services.</text>
<text text-anchor="middle" x="304" y="-226.5" font-family="Helvetica,sans-Serif" font-size="10.00">SettingsWebSocketService.Setfullfilepath</text>
</a>
</g>
</g>
<!-- Node3&#45;&gt;Node12 -->
<g id="edge15" class="edge"><title>Node3&#45;&gt;Node12</title>
<path fill="none" stroke="midnightblue" d="M102.423,-401.846C124.285,-375.136 164.981,-328.065 206,-294.5 224.306,-279.52 246.648,-265.456 265.274,-254.715"/>
<polygon fill="midnightblue" stroke="midnightblue" points="267.112,-257.696 274.085,-249.72 263.659,-251.607 267.112,-257.696"/>
</g>
<!-- Node14 -->
<g id="node12" class="node"><title>Node14</title>
<g id="a_node12"><a xlink:href="class_little_weeb_library_1_1_models_1_1_json_error.html#a0e3e7dd2e2990404b7f0461742b23440" target="_top" xlink:title="LittleWeebLibrary.Models.\lJsonError.ToJson">
<polygon fill="white" stroke="black" points="668,-126.5 668,-156.5 798,-156.5 798,-126.5 668,-126.5"/>
<text text-anchor="start" x="676" y="-144.5" font-family="Helvetica,sans-Serif" font-size="10.00">LittleWeebLibrary.Models.</text>
<text text-anchor="middle" x="733" y="-133.5" font-family="Helvetica,sans-Serif" font-size="10.00">JsonError.ToJson</text>
</a>
</g>
</g>
<!-- Node3&#45;&gt;Node14 -->
<g id="edge42" class="edge"><title>Node3&#45;&gt;Node14</title>
<path fill="none" stroke="midnightblue" d="M92.8013,-401.949C107.42,-360.562 145.498,-266.288 206,-209.5 289.484,-131.14 326.385,-123.032 438,-97.5 519.018,-78.9671 543.465,-81.3903 625,-97.5 649.155,-102.273 674.712,-112.564 694.789,-121.994"/>
<polygon fill="midnightblue" stroke="midnightblue" points="693.361,-125.191 703.888,-126.384 696.403,-118.886 693.361,-125.191"/>
</g>
<!-- Node17 -->
<g id="node15" class="node"><title>Node17</title>
<g id="a_node15"><a xlink:href="class_little_weeb_library_1_1_models_1_1_json_error.html#ad7d5522c90119111d2e929f39e7f6d3c" target="_top" xlink:title="LittleWeebLibrary.Models.\lJsonError.ToString">
<polygon fill="white" stroke="black" points="466.5,-263.5 466.5,-293.5 596.5,-293.5 596.5,-263.5 466.5,-263.5"/>
<text text-anchor="start" x="474.5" y="-281.5" font-family="Helvetica,sans-Serif" font-size="10.00">LittleWeebLibrary.Models.</text>
<text text-anchor="middle" x="531.5" y="-270.5" font-family="Helvetica,sans-Serif" font-size="10.00">JsonError.ToString</text>
</a>
</g>
</g>
<!-- Node3&#45;&gt;Node17 -->
<g id="edge44" class="edge"><title>Node3&#45;&gt;Node17</title>
<path fill="none" stroke="midnightblue" d="M122.133,-401.927C145.499,-389.258 176.881,-373.41 206,-362.5 289.711,-331.137 389.801,-307.167 456.472,-293.011"/>
<polygon fill="midnightblue" stroke="midnightblue" points="457.403,-296.392 466.469,-290.909 455.963,-289.542 457.403,-296.392"/>
</g>
<!-- Node18 -->
<g id="node16" class="node"><title>Node18</title>
<g id="a_node16"><a xlink:href="class_little_weeb_library_1_1_services_1_1_settings_web_socket_service.html#a898cb4543b5abd273844405770687442" target="_top" xlink:title="LittleWeebLibrary.Services.\lSettingsWebSocketService.SetIrc\lSettings">
<polygon fill="white" stroke="black" points="222,-372 222,-413 386,-413 386,-372 222,-372"/>
<text text-anchor="start" x="230" y="-401" font-family="Helvetica,sans-Serif" font-size="10.00">LittleWeebLibrary.Services.</text>
<text text-anchor="start" x="230" y="-390" font-family="Helvetica,sans-Serif" font-size="10.00">SettingsWebSocketService.SetIrc</text>
<text text-anchor="middle" x="304" y="-379" font-family="Helvetica,sans-Serif" font-size="10.00">Settings</text>
</a>
</g>
</g>
<!-- Node3&#45;&gt;Node18 -->
<g id="edge26" class="edge"><title>Node3&#45;&gt;Node18</title>
<path fill="none" stroke="midnightblue" d="M170.208,-410.858C183.822,-408.976 197.972,-407.02 211.743,-405.116"/>
<polygon fill="midnightblue" stroke="midnightblue" points="212.263,-408.578 221.69,-403.741 211.304,-401.644 212.263,-408.578"/>
</g>
<!-- Node19 -->
<g id="node17" class="node"><title>Node19</title>
<g id="a_node17"><a xlink:href="class_little_weeb_library_1_1_services_1_1_settings_web_socket_service.html#aa53e9a1723c0b2d607d2aa9db1991c3c" target="_top" xlink:title="LittleWeebLibrary.Services.\lSettingsWebSocketService.SetLittle\lWeebSettings">
<polygon fill="white" stroke="black" points="217,-432 217,-473 391,-473 391,-432 217,-432"/>
<text text-anchor="start" x="225" y="-461" font-family="Helvetica,sans-Serif" font-size="10.00">LittleWeebLibrary.Services.</text>
<text text-anchor="start" x="225" y="-450" font-family="Helvetica,sans-Serif" font-size="10.00">SettingsWebSocketService.SetLittle</text>
<text text-anchor="middle" x="304" y="-439" font-family="Helvetica,sans-Serif" font-size="10.00">WeebSettings</text>
</a>
</g>
</g>
<!-- Node3&#45;&gt;Node19 -->
<g id="edge33" class="edge"><title>Node3&#45;&gt;Node19</title>
<path fill="none" stroke="midnightblue" d="M170.208,-434.142C182.122,-435.789 194.447,-437.493 206.569,-439.169"/>
<polygon fill="midnightblue" stroke="midnightblue" points="206.305,-442.665 216.69,-440.568 207.264,-435.731 206.305,-442.665"/>
</g>
<!-- Node22 -->
<g id="node20" class="node"><title>Node22</title>
<g id="a_node20"><a xlink:href="class_little_weeb_library_1_1_event_arguments_1_1_web_socket_event_args.html#acf402c2f7fd4ddbf175fea7f921ea879" target="_top" xlink:title="LittleWeebLibrary.EventArguments.\lWebSocketEventArgs.ToString">
<polygon fill="white" stroke="black" points="219,-0.5 219,-30.5 389,-30.5 389,-0.5 219,-0.5"/>
<text text-anchor="start" x="227" y="-18.5" font-family="Helvetica,sans-Serif" font-size="10.00">LittleWeebLibrary.EventArguments.</text>
<text text-anchor="middle" x="304" y="-7.5" font-family="Helvetica,sans-Serif" font-size="10.00">WebSocketEventArgs.ToString</text>
</a>
</g>
</g>
<!-- Node3&#45;&gt;Node22 -->
<g id="edge43" class="edge"><title>Node3&#45;&gt;Node22</title>
<path fill="none" stroke="midnightblue" d="M86.2673,-401.559C88.2339,-338.391 102.855,-147.801 206,-45.5 209.737,-41.7935 213.922,-38.5436 218.399,-35.694"/>
<polygon fill="midnightblue" stroke="midnightblue" points="220.315,-38.6329 227.33,-30.693 216.894,-32.5254 220.315,-38.6329"/>
</g>
<!-- Node4&#45;&gt;Node5 -->
<g id="edge2" class="edge"><title>Node4&#45;&gt;Node5</title>
<path fill="none" stroke="midnightblue" d="M334.907,-698.162C394.73,-736.69 531.411,-810.399 625,-750.5 697.916,-703.832 721.844,-593.468 729.098,-543.661"/>
<polygon fill="midnightblue" stroke="midnightblue" points="732.57,-544.103 730.438,-533.724 725.633,-543.167 732.57,-544.103"/>
</g>
<!-- Node6 -->
<g id="node4" class="node"><title>Node6</title>
<g id="a_node4"><a xlink:href="class_little_weeb_library_1_1_handlers_1_1_settings_handler.html#a22195b5d1df129295e0e30298611bdba" target="_top" xlink:title="LittleWeebLibrary.Handlers.\lSettingsHandler.GetIrcSettings">
<polygon fill="white" stroke="black" points="456,-662.5 456,-692.5 607,-692.5 607,-662.5 456,-662.5"/>
<text text-anchor="start" x="464" y="-680.5" font-family="Helvetica,sans-Serif" font-size="10.00">LittleWeebLibrary.Handlers.</text>
<text text-anchor="middle" x="531.5" y="-669.5" font-family="Helvetica,sans-Serif" font-size="10.00">SettingsHandler.GetIrcSettings</text>
</a>
</g>
</g>
<!-- Node4&#45;&gt;Node6 -->
<g id="edge3" class="edge"><title>Node4&#45;&gt;Node6</title>
<path fill="none" stroke="midnightblue" d="M396.719,-677.5C412.824,-677.5 429.521,-677.5 445.434,-677.5"/>
<polygon fill="midnightblue" stroke="midnightblue" points="445.764,-681 455.764,-677.5 445.764,-674 445.764,-681"/>
</g>
<!-- Node4&#45;&gt;Node7 -->
<g id="edge5" class="edge"><title>Node4&#45;&gt;Node7</title>
<path fill="none" stroke="midnightblue" d="M348.959,-656.742C366.698,-647.026 386.573,-634.312 402,-619.5 423.074,-599.266 414.266,-581.536 438,-564.5 439.916,-563.124 441.905,-561.828 443.953,-560.605"/>
<polygon fill="midnightblue" stroke="midnightblue" points="446.042,-563.461 453.261,-555.707 442.782,-557.266 446.042,-563.461"/>
</g>
<!-- Node8 -->
<g id="node6" class="node"><title>Node8</title>
<g id="a_node6"><a xlink:href="class_little_weeb_library_1_1_models_1_1_json_irc_info.html#af7d4dd885c7289ca28b0147d4feb2b84" target="_top" xlink:title="LittleWeebLibrary.Models.\lJsonIrcInfo.ToJson">
<polygon fill="white" stroke="black" points="466.5,-799.5 466.5,-829.5 596.5,-829.5 596.5,-799.5 466.5,-799.5"/>
<text text-anchor="start" x="474.5" y="-817.5" font-family="Helvetica,sans-Serif" font-size="10.00">LittleWeebLibrary.Models.</text>
<text text-anchor="middle" x="531.5" y="-806.5" font-family="Helvetica,sans-Serif" font-size="10.00">JsonIrcInfo.ToJson</text>
</a>
</g>
</g>
<!-- Node4&#45;&gt;Node8 -->
<g id="edge7" class="edge"><title>Node4&#45;&gt;Node8</title>
<path fill="none" stroke="midnightblue" d="M325.817,-698.346C350.611,-722.143 394.202,-760.825 438,-784.5 445.962,-788.804 454.646,-792.621 463.4,-795.966"/>
<polygon fill="midnightblue" stroke="midnightblue" points="462.301,-799.29 472.895,-799.411 464.689,-792.71 462.301,-799.29"/>
</g>
<!-- Node6&#45;&gt;Node5 -->
<g id="edge4" class="edge"><title>Node6&#45;&gt;Node5</title>
<path fill="none" stroke="midnightblue" d="M595.457,-662.422C605.806,-658.473 616.058,-653.565 625,-647.5 666.285,-619.498 700.263,-571.144 718.204,-542.258"/>
<polygon fill="midnightblue" stroke="midnightblue" points="721.255,-543.978 723.454,-533.614 715.272,-540.344 721.255,-543.978"/>
</g>
<!-- Node7&#45;&gt;Node5 -->
<g id="edge6" class="edge"><title>Node7&#45;&gt;Node5</title>
<path fill="none" stroke="midnightblue" d="M614.508,-531.457C626.514,-530.132 638.875,-528.769 650.864,-527.447"/>
<polygon fill="midnightblue" stroke="midnightblue" points="651.275,-530.923 660.831,-526.348 650.508,-523.965 651.275,-530.923"/>
</g>
<!-- Node9&#45;&gt;Node5 -->
<g id="edge9" class="edge"><title>Node9&#45;&gt;Node5</title>
<path fill="none" stroke="midnightblue" d="M369.546,-610.04C435.874,-627.592 541.02,-645.401 625,-613.5 662.642,-599.201 695.514,-564.923 714.565,-541.699"/>
<polygon fill="midnightblue" stroke="midnightblue" points="717.445,-543.701 720.942,-533.7 711.971,-539.338 717.445,-543.701"/>
</g>
<!-- Node9&#45;&gt;Node7 -->
<g id="edge12" class="edge"><title>Node9&#45;&gt;Node7</title>
<path fill="none" stroke="midnightblue" d="M396.719,-569.57C414.761,-565.649 433.548,-561.567 451.142,-557.744"/>
<polygon fill="midnightblue" stroke="midnightblue" points="452.32,-561.07 461.349,-555.526 450.833,-554.23 452.32,-561.07"/>
</g>
<!-- Node10 -->
<g id="node8" class="node"><title>Node10</title>
<g id="a_node8"><a xlink:href="class_little_weeb_library_1_1_handlers_1_1_settings_handler.html#a53a5c5206eb6d2c58fa9d970c9b97463" target="_top" xlink:title="LittleWeebLibrary.Handlers.\lSettingsHandler.GetLittleWeebSettings">
<polygon fill="white" stroke="black" points="438,-574.5 438,-604.5 625,-604.5 625,-574.5 438,-574.5"/>
<text text-anchor="start" x="446" y="-592.5" font-family="Helvetica,sans-Serif" font-size="10.00">LittleWeebLibrary.Handlers.</text>
<text text-anchor="middle" x="531.5" y="-581.5" font-family="Helvetica,sans-Serif" font-size="10.00">SettingsHandler.GetLittleWeebSettings</text>
</a>
</g>
</g>
<!-- Node9&#45;&gt;Node10 -->
<g id="edge10" class="edge"><title>Node9&#45;&gt;Node10</title>
<path fill="none" stroke="midnightblue" d="M396.719,-589.5C406.871,-589.5 417.258,-589.5 427.535,-589.5"/>
<polygon fill="midnightblue" stroke="midnightblue" points="427.764,-593 437.764,-589.5 427.764,-586 427.764,-593"/>
</g>
<!-- Node11 -->
<g id="node9" class="node"><title>Node11</title>
<g id="a_node9"><a xlink:href="class_little_weeb_library_1_1_models_1_1_json_little_weeb_settings.html#afb2de66338da820dca2c6c6703008a82" target="_top" xlink:title="LittleWeebLibrary.Models.\lJsonLittleWeebSettings.ToJson">
<polygon fill="white" stroke="black" points="455,-711.5 455,-741.5 608,-741.5 608,-711.5 455,-711.5"/>
<text text-anchor="start" x="463" y="-729.5" font-family="Helvetica,sans-Serif" font-size="10.00">LittleWeebLibrary.Models.</text>
<text text-anchor="middle" x="531.5" y="-718.5" font-family="Helvetica,sans-Serif" font-size="10.00">JsonLittleWeebSettings.ToJson</text>
</a>
</g>
</g>
<!-- Node9&#45;&gt;Node11 -->
<g id="edge13" class="edge"><title>Node9&#45;&gt;Node11</title>
<path fill="none" stroke="midnightblue" d="M348.41,-610.055C366.261,-619.816 386.368,-632.618 402,-647.5 422.891,-667.389 414.581,-684.661 438,-701.5 440.701,-703.442 443.545,-705.234 446.493,-706.886"/>
<polygon fill="midnightblue" stroke="midnightblue" points="445.097,-710.101 455.608,-711.437 448.224,-703.838 445.097,-710.101"/>
</g>
<!-- Node10&#45;&gt;Node5 -->
<g id="edge11" class="edge"><title>Node10&#45;&gt;Node5</title>
<path fill="none" stroke="midnightblue" d="M593.085,-574.453C603.799,-571.416 614.788,-568.055 625,-564.5 647.155,-556.788 671.204,-546.618 690.881,-537.803"/>
<polygon fill="midnightblue" stroke="midnightblue" points="692.496,-540.914 700.162,-533.6 689.609,-534.537 692.496,-540.914"/>
</g>
<!-- Node12&#45;&gt;Node5 -->
<g id="edge16" class="edge"><title>Node12&#45;&gt;Node5</title>
<path fill="none" stroke="midnightblue" d="M402.156,-227.468C484.181,-223.773 593.211,-224.866 625,-253.5 697.966,-319.223 607.607,-389.083 661,-471.5 667.976,-482.268 678.384,-491.138 689.094,-498.158"/>
<polygon fill="midnightblue" stroke="midnightblue" points="687.327,-501.18 697.688,-503.392 690.968,-495.201 687.327,-501.18"/>
</g>
<!-- Node12&#45;&gt;Node7 -->
<g id="edge24" class="edge"><title>Node12&#45;&gt;Node7</title>
<path fill="none" stroke="midnightblue" d="M319.491,-249.85C340.392,-272.731 379.005,-317.889 402,-362.5 426.538,-410.105 406.096,-434.482 438,-477.5 451.207,-495.308 471.019,-509.758 488.923,-520.305"/>
<polygon fill="midnightblue" stroke="midnightblue" points="487.637,-523.598 498.067,-525.462 491.076,-517.501 487.637,-523.598"/>
</g>
<!-- Node13 -->
<g id="node11" class="node"><title>Node13</title>
<g id="a_node11"><a xlink:href="class_little_weeb_library_1_1_handlers_1_1_directory_handler.html#a6be1b158ee280e8a74a49917a90484e2" target="_top" xlink:title="LittleWeebLibrary.Handlers.\lDirectoryHandler.CreateDirectory">
<polygon fill="white" stroke="black" points="452,-126.5 452,-156.5 611,-156.5 611,-126.5 452,-126.5"/>
<text text-anchor="start" x="460" y="-144.5" font-family="Helvetica,sans-Serif" font-size="10.00">LittleWeebLibrary.Handlers.</text>
<text text-anchor="middle" x="531.5" y="-133.5" font-family="Helvetica,sans-Serif" font-size="10.00">DirectoryHandler.CreateDirectory</text>
</a>
</g>
</g>
<!-- Node12&#45;&gt;Node13 -->
<g id="edge17" class="edge"><title>Node12&#45;&gt;Node13</title>
<path fill="none" stroke="midnightblue" d="M330.198,-219.242C356.373,-203.922 398.897,-180.497 438,-165.5 443.458,-163.407 449.166,-161.435 454.951,-159.591"/>
<polygon fill="midnightblue" stroke="midnightblue" points="456.186,-162.874 464.731,-156.61 454.145,-156.178 456.186,-162.874"/>
</g>
<!-- Node12&#45;&gt;Node14 -->
<g id="edge25" class="edge"><title>Node12&#45;&gt;Node14</title>
<path fill="none" stroke="midnightblue" d="M316.029,-219.166C336.466,-192.233 383.169,-137.317 438,-116.5 518.069,-86.1006 618.954,-106.072 679.312,-123.587"/>
<polygon fill="midnightblue" stroke="midnightblue" points="678.422,-126.973 689.006,-126.48 680.424,-120.266 678.422,-126.973"/>
</g>
<!-- Node15 -->
<g id="node13" class="node"><title>Node15</title>
<g id="a_node13"><a xlink:href="class_little_weeb_library_1_1_handlers_1_1_settings_handler.html#ad42462e9e851301c5f5b91663dc3fe24" target="_top" xlink:title="LittleWeebLibrary.Handlers.\lSettingsHandler.WriteIrcSettings">
<polygon fill="white" stroke="black" points="452.5,-175.5 452.5,-205.5 610.5,-205.5 610.5,-175.5 452.5,-175.5"/>
<text text-anchor="start" x="460.5" y="-193.5" font-family="Helvetica,sans-Serif" font-size="10.00">LittleWeebLibrary.Handlers.</text>
<text text-anchor="middle" x="531.5" y="-182.5" font-family="Helvetica,sans-Serif" font-size="10.00">SettingsHandler.WriteIrcSettings</text>
</a>
</g>
</g>
<!-- Node12&#45;&gt;Node15 -->
<g id="edge20" class="edge"><title>Node12&#45;&gt;Node15</title>
<path fill="none" stroke="midnightblue" d="M381.974,-219.481C401.82,-215.608 423.316,-211.414 443.627,-207.451"/>
<polygon fill="midnightblue" stroke="midnightblue" points="444.346,-210.877 453.491,-205.526 443.005,-204.006 444.346,-210.877"/>
</g>
<!-- Node12&#45;&gt;Node17 -->
<g id="edge23" class="edge"><title>Node12&#45;&gt;Node17</title>
<path fill="none" stroke="midnightblue" d="M381.974,-249.519C405.976,-254.203 432.392,-259.357 456.208,-264.004"/>
<polygon fill="midnightblue" stroke="midnightblue" points="455.755,-267.482 466.24,-265.962 457.096,-260.611 455.755,-267.482"/>
</g>
<!-- Node13&#45;&gt;Node5 -->
<g id="edge18" class="edge"><title>Node13&#45;&gt;Node5</title>
<path fill="none" stroke="midnightblue" d="M611.331,-154.235C616.425,-157.288 621.075,-160.998 625,-165.5 714.988,-268.719 589.24,-354.87 661,-471.5 667.597,-482.221 677.661,-491.011 688.156,-497.967"/>
<polygon fill="midnightblue" stroke="midnightblue" points="686.649,-501.148 697.006,-503.381 690.302,-495.177 686.649,-501.148"/>
</g>
<!-- Node13&#45;&gt;Node14 -->
<g id="edge19" class="edge"><title>Node13&#45;&gt;Node14</title>
<path fill="none" stroke="midnightblue" d="M611.061,-141.5C626.388,-141.5 642.414,-141.5 657.601,-141.5"/>
<polygon fill="midnightblue" stroke="midnightblue" points="657.962,-145 667.962,-141.5 657.962,-138 657.962,-145"/>
</g>
<!-- Node15&#45;&gt;Node5 -->
<g id="edge21" class="edge"><title>Node15&#45;&gt;Node5</title>
<path fill="none" stroke="midnightblue" d="M606.572,-205.701C613.537,-209.578 619.889,-214.43 625,-220.5 697.586,-306.709 600.731,-376.272 661,-471.5 667.862,-482.342 678.232,-491.235 688.944,-498.254"/>
<polygon fill="midnightblue" stroke="midnightblue" points="687.183,-501.28 697.546,-503.483 690.819,-495.298 687.183,-501.28"/>
</g>
<!-- Node16 -->
<g id="node14" class="node"><title>Node16</title>
<g id="a_node14"><a xlink:href="class_little_weeb_library_1_1_settings_1_1_irc_settings.html#a2e1d7f26d7d3083d19c3a9e6c6c2d0b2" target="_top" xlink:title="LittleWeebLibrary.Settings.\lIrcSettings.ToString">
<polygon fill="white" stroke="black" points="666,-175.5 666,-205.5 800,-205.5 800,-175.5 666,-175.5"/>
<text text-anchor="start" x="674" y="-193.5" font-family="Helvetica,sans-Serif" font-size="10.00">LittleWeebLibrary.Settings.</text>
<text text-anchor="middle" x="733" y="-182.5" font-family="Helvetica,sans-Serif" font-size="10.00">IrcSettings.ToString</text>
</a>
</g>
</g>
<!-- Node15&#45;&gt;Node16 -->
<g id="edge22" class="edge"><title>Node15&#45;&gt;Node16</title>
<path fill="none" stroke="midnightblue" d="M610.775,-190.5C625.587,-190.5 641.062,-190.5 655.809,-190.5"/>
<polygon fill="midnightblue" stroke="midnightblue" points="655.884,-194 665.884,-190.5 655.884,-187 655.884,-194"/>
</g>
<!-- Node18&#45;&gt;Node5 -->
<g id="edge27" class="edge"><title>Node18&#45;&gt;Node5</title>
<path fill="none" stroke="midnightblue" d="M386.047,-380.154C454.451,-373.889 552.536,-375.005 625,-417.5 649.882,-432.091 640.571,-451.137 661,-471.5 671.012,-481.479 683.451,-490.561 695.106,-498.024"/>
<polygon fill="midnightblue" stroke="midnightblue" points="693.467,-501.125 703.814,-503.403 697.146,-495.169 693.467,-501.125"/>
</g>
<!-- Node18&#45;&gt;Node6 -->
<g id="edge28" class="edge"><title>Node18&#45;&gt;Node6</title>
<path fill="none" stroke="midnightblue" d="M386.066,-409.567C391.989,-413.108 397.423,-417.371 402,-422.5 459.515,-486.953 390.955,-541.051 438,-613.5 450.045,-632.05 469.537,-646.713 487.53,-657.297"/>
<polygon fill="midnightblue" stroke="midnightblue" points="486.319,-660.631 496.754,-662.46 489.737,-654.522 486.319,-660.631"/>
</g>
<!-- Node18&#45;&gt;Node7 -->
<g id="edge31" class="edge"><title>Node18&#45;&gt;Node7</title>
<path fill="none" stroke="midnightblue" d="M386.039,-412.672C391.679,-415.53 397.072,-418.788 402,-422.5 425.336,-440.078 417.532,-456.653 438,-477.5 454.377,-494.181 475.792,-509.098 493.891,-520.224"/>
<polygon fill="midnightblue" stroke="midnightblue" points="492.098,-523.23 502.474,-525.373 495.699,-517.227 492.098,-523.23"/>
</g>
<!-- Node18&#45;&gt;Node14 -->
<g id="edge32" class="edge"><title>Node18&#45;&gt;Node14</title>
<path fill="none" stroke="midnightblue" d="M360.247,-371.979C384,-363.525 412.186,-353.98 438,-346.5 520.007,-322.737 563.851,-362.087 625,-302.5 670.089,-258.563 618.046,-211.526 661,-165.5 661.899,-164.537 662.838,-163.612 663.812,-162.725"/>
<polygon fill="midnightblue" stroke="midnightblue" points="666.025,-165.44 671.898,-156.622 661.808,-159.853 666.025,-165.44"/>
</g>
<!-- Node18&#45;&gt;Node15 -->
<g id="edge29" class="edge"><title>Node18&#45;&gt;Node15</title>
<path fill="none" stroke="midnightblue" d="M322.292,-371.874C346.577,-343.528 392.887,-291.705 438,-253.5 456.349,-237.961 478.573,-222.723 496.638,-211.127"/>
<polygon fill="midnightblue" stroke="midnightblue" points="498.563,-214.051 505.137,-205.741 494.817,-208.138 498.563,-214.051"/>
</g>
<!-- Node18&#45;&gt;Node17 -->
<g id="edge30" class="edge"><title>Node18&#45;&gt;Node17</title>
<path fill="none" stroke="midnightblue" d="M332.874,-371.984C359.002,-353.474 399.674,-326.472 438,-308.5 447.057,-304.253 456.876,-300.365 466.62,-296.897"/>
<polygon fill="midnightblue" stroke="midnightblue" points="467.986,-300.129 476.308,-293.572 465.713,-293.508 467.986,-300.129"/>
</g>
<!-- Node19&#45;&gt;Node5 -->
<g id="edge34" class="edge"><title>Node19&#45;&gt;Node5</title>
<path fill="none" stroke="midnightblue" d="M391.106,-469.3C406.691,-472.165 422.813,-475.015 438,-477.5 509.756,-489.241 591.718,-500.493 650.842,-508.23"/>
<polygon fill="midnightblue" stroke="midnightblue" points="650.499,-511.715 660.867,-509.537 651.403,-504.774 650.499,-511.715"/>
</g>
<!-- Node19&#45;&gt;Node7 -->
<g id="edge40" class="edge"><title>Node19&#45;&gt;Node7</title>
<path fill="none" stroke="midnightblue" d="M349.19,-473.063C374.861,-484.682 407.969,-499.113 438,-510.5 448.622,-514.528 460.051,-518.511 471.129,-522.194"/>
<polygon fill="midnightblue" stroke="midnightblue" points="470.151,-525.557 480.744,-525.348 472.333,-518.906 470.151,-525.557"/>
</g>
<!-- Node19&#45;&gt;Node10 -->
<g id="edge35" class="edge"><title>Node19&#45;&gt;Node10</title>
<path fill="none" stroke="midnightblue" d="M324.123,-473.43C348.283,-498.64 392.26,-540.575 438,-564.5 442.491,-566.849 447.224,-568.993 452.076,-570.948"/>
<polygon fill="midnightblue" stroke="midnightblue" points="450.932,-574.257 461.525,-574.477 453.382,-567.699 450.932,-574.257"/>
</g>
<!-- Node19&#45;&gt;Node14 -->
<g id="edge41" class="edge"><title>Node19&#45;&gt;Node14</title>
<path fill="none" stroke="midnightblue" d="M373.897,-431.951C462.793,-404.837 608.104,-358.243 625,-338.5 676.065,-278.832 608.92,-224.284 661,-165.5 661.755,-164.648 662.541,-163.826 663.356,-163.033"/>
<polygon fill="midnightblue" stroke="midnightblue" points="665.725,-165.621 671.37,-156.656 661.366,-160.144 665.725,-165.621"/>
</g>
<!-- Node19&#45;&gt;Node17 -->
<g id="edge39" class="edge"><title>Node19&#45;&gt;Node17</title>
<path fill="none" stroke="midnightblue" d="M388.973,-431.738C393.613,-429.028 398.004,-425.964 402,-422.5 430.242,-398.019 414.22,-375.335 438,-346.5 453.655,-327.517 475.722,-311.03 494.376,-299.045"/>
<polygon fill="midnightblue" stroke="midnightblue" points="496.313,-301.962 502.943,-293.698 492.606,-296.024 496.313,-301.962"/>
</g>
<!-- Node20 -->
<g id="node18" class="node"><title>Node20</title>
<g id="a_node18"><a xlink:href="class_little_weeb_library_1_1_handlers_1_1_settings_handler.html#af5a1ea4a3605d938b363e83268774d6f" target="_top" xlink:title="LittleWeebLibrary.Handlers.\lSettingsHandler.WriteLittleWeeb\lSettings">
<polygon fill="white" stroke="black" points="452.5,-427 452.5,-468 610.5,-468 610.5,-427 452.5,-427"/>
<text text-anchor="start" x="460.5" y="-456" font-family="Helvetica,sans-Serif" font-size="10.00">LittleWeebLibrary.Handlers.</text>
<text text-anchor="start" x="460.5" y="-445" font-family="Helvetica,sans-Serif" font-size="10.00">SettingsHandler.WriteLittleWeeb</text>
<text text-anchor="middle" x="531.5" y="-434" font-family="Helvetica,sans-Serif" font-size="10.00">Settings</text>
</a>
</g>
</g>
<!-- Node19&#45;&gt;Node20 -->
<g id="edge36" class="edge"><title>Node19&#45;&gt;Node20</title>
<path fill="none" stroke="midnightblue" d="M391.217,-450.588C407.897,-450.218 425.399,-449.83 442.147,-449.459"/>
<polygon fill="midnightblue" stroke="midnightblue" points="442.543,-452.951 452.463,-449.23 442.388,-445.953 442.543,-452.951"/>
</g>
<!-- Node20&#45;&gt;Node5 -->
<g id="edge37" class="edge"><title>Node20&#45;&gt;Node5</title>
<path fill="none" stroke="midnightblue" d="M590.204,-468.036C618.615,-478.148 652.597,-490.241 680.171,-500.055"/>
<polygon fill="midnightblue" stroke="midnightblue" points="679.043,-503.368 689.638,-503.424 681.39,-496.773 679.043,-503.368"/>
</g>
<!-- Node21 -->
<g id="node19" class="node"><title>Node21</title>
<g id="a_node19"><a xlink:href="class_little_weeb_library_1_1_settings_1_1_little_weeb_settings.html#a5a5b722dd8e117be810022882795b6ae" target="_top" xlink:title="LittleWeebLibrary.Settings.\lLittleWeebSettings.ToString">
<polygon fill="white" stroke="black" points="664,-432.5 664,-462.5 802,-462.5 802,-432.5 664,-432.5"/>
<text text-anchor="start" x="672" y="-450.5" font-family="Helvetica,sans-Serif" font-size="10.00">LittleWeebLibrary.Settings.</text>
<text text-anchor="middle" x="733" y="-439.5" font-family="Helvetica,sans-Serif" font-size="10.00">LittleWeebSettings.ToString</text>
</a>
</g>
</g>
<!-- Node20&#45;&gt;Node21 -->
<g id="edge38" class="edge"><title>Node20&#45;&gt;Node21</title>
<path fill="none" stroke="midnightblue" d="M610.775,-447.5C624.918,-447.5 639.665,-447.5 653.805,-447.5"/>
<polygon fill="midnightblue" stroke="midnightblue" points="653.977,-451 663.977,-447.5 653.976,-444 653.977,-451"/>
</g>
</g>
</svg>
