<?xml version="1.0" encoding="UTF-8" standalone="no"?>
<!DOCTYPE svg PUBLIC "-//W3C//DTD SVG 1.1//EN"
 "http://www.w3.org/Graphics/SVG/1.1/DTD/svg11.dtd">
<!-- Generated by graphviz version 2.38.0 (20140413.2041)
 -->
<!-- Title: LittleWeebLibrary.Handlers.FileHandler Pages: 1 -->
<svg width="230pt" height="237pt"
 viewBox="0.00 0.00 230.00 237.00" xmlns="http://www.w3.org/2000/svg" xmlns:xlink="http://www.w3.org/1999/xlink">
<g id="graph0" class="graph" transform="scale(1 1) rotate(0) translate(4 233)">
<title>LittleWeebLibrary.Handlers.FileHandler</title>
<polygon fill="white" stroke="none" points="-4,4 -4,-233 226,-233 226,4 -4,4"/>
<!-- Node0 -->
<g id="node1" class="node"><title>Node0</title>
<polygon fill="#bfbfbf" stroke="black" points="29,-0.5 29,-123.5 166,-123.5 166,-0.5 29,-0.5"/>
<text text-anchor="start" x="37" y="-111.5" font-family="Helvetica,sans-Serif" font-size="10.00">LittleWeebLibrary.Handlers.</text>
<text text-anchor="middle" x="97.5" y="-100.5" font-family="Helvetica,sans-Serif" font-size="10.00">FileHandler</text>
<polyline fill="none" stroke="black" points="29,-93.5 166,-93.5 "/>
<text text-anchor="start" x="37" y="-81.5" font-family="Helvetica,sans-Serif" font-size="10.00">&#45; DebugHandler</text>
<text text-anchor="start" x="37" y="-70.5" font-family="Helvetica,sans-Serif" font-size="10.00">&#45; LittleWeebSettings</text>
<polyline fill="none" stroke="black" points="29,-63.5 166,-63.5 "/>
<text text-anchor="start" x="37" y="-51.5" font-family="Helvetica,sans-Serif" font-size="10.00">+ FileHandler()</text>
<text text-anchor="start" x="37" y="-40.5" font-family="Helvetica,sans-Serif" font-size="10.00">+ DeleteFile()</text>
<text text-anchor="start" x="37" y="-29.5" font-family="Helvetica,sans-Serif" font-size="10.00">+ OpenFile()</text>
<text text-anchor="start" x="37" y="-18.5" font-family="Helvetica,sans-Serif" font-size="10.00">+ SetIrcSettings()</text>
<text text-anchor="start" x="37" y="-7.5" font-family="Helvetica,sans-Serif" font-size="10.00">+ SetLittleWeebSettings()</text>
</g>
<!-- Node1 -->
<g id="node2" class="node"><title>Node1</title>
<g id="a_node2"><a xlink:href="interface_little_weeb_library_1_1_handlers_1_1_i_file_handler.html" target="_top" xlink:title="{IFileHandler\n||+ DeleteFile()\l+ OpenFile()\l}">
<polygon fill="white" stroke="black" points="0,-160.5 0,-228.5 75,-228.5 75,-160.5 0,-160.5"/>
<text text-anchor="middle" x="37.5" y="-216.5" font-family="Helvetica,sans-Serif" font-size="10.00">IFileHandler</text>
<polyline fill="none" stroke="black" points="0,-209.5 75,-209.5 "/>
<text text-anchor="middle" x="37.5" y="-197.5" font-family="Helvetica,sans-Serif" font-size="10.00"> </text>
<polyline fill="none" stroke="black" points="0,-190.5 75,-190.5 "/>
<text text-anchor="start" x="8" y="-178.5" font-family="Helvetica,sans-Serif" font-size="10.00">+ DeleteFile()</text>
<text text-anchor="start" x="8" y="-167.5" font-family="Helvetica,sans-Serif" font-size="10.00">+ OpenFile()</text>
</a>
</g>
</g>
<!-- Node1&#45;&gt;Node0 -->
<g id="edge1" class="edge"><title>Node1&#45;&gt;Node0</title>
<path fill="none" stroke="midnightblue" d="M57.0361,-151.009C61.0628,-142.251 65.3771,-132.867 69.6339,-123.609"/>
<polygon fill="none" stroke="midnightblue" points="53.7932,-149.684 52.7958,-160.232 60.1532,-152.608 53.7932,-149.684"/>
</g>
<!-- Node2 -->
<g id="node3" class="node"><title>Node2</title>
<g id="a_node3"><a xlink:href="interface_little_weeb_library_1_1_global_interfaces_1_1_i_settings_interface.html" target="_top" xlink:title="{ISettingsInterface\n||+ SetIrcSettings()\l+ SetLittleWeebSettings()\l}">
<polygon fill="white" stroke="black" points="93,-160.5 93,-228.5 222,-228.5 222,-160.5 93,-160.5"/>
<text text-anchor="middle" x="157.5" y="-216.5" font-family="Helvetica,sans-Serif" font-size="10.00">ISettingsInterface</text>
<polyline fill="none" stroke="black" points="93,-209.5 222,-209.5 "/>
<text text-anchor="middle" x="157.5" y="-197.5" font-family="Helvetica,sans-Serif" font-size="10.00"> </text>
<polyline fill="none" stroke="black" points="93,-190.5 222,-190.5 "/>
<text text-anchor="start" x="101" y="-178.5" font-family="Helvetica,sans-Serif" font-size="10.00">+ SetIrcSettings()</text>
<text text-anchor="start" x="101" y="-167.5" font-family="Helvetica,sans-Serif" font-size="10.00">+ SetLittleWeebSettings()</text>
</a>
</g>
</g>
<!-- Node2&#45;&gt;Node0 -->
<g id="edge2" class="edge"><title>Node2&#45;&gt;Node0</title>
<path fill="none" stroke="midnightblue" d="M137.964,-151.009C133.937,-142.251 129.623,-132.867 125.366,-123.609"/>
<polygon fill="none" stroke="midnightblue" points="134.847,-152.608 142.204,-160.232 141.207,-149.684 134.847,-152.608"/>
</g>
</g>
</svg>
