<?xml version="1.0" encoding="UTF-8" standalone="no"?>
<!DOCTYPE svg PUBLIC "-//W3C//DTD SVG 1.1//EN"
 "http://www.w3.org/Graphics/SVG/1.1/DTD/svg11.dtd">
<!-- Generated by graphviz version 2.38.0 (20140413.2041)
 -->
<!-- Title: LittleWeebLibrary.Models.JsonFreeSpace.ToJson Pages: 1 -->
<svg width="792pt" height="50pt"
 viewBox="0.00 0.00 792.00 50.00" xmlns="http://www.w3.org/2000/svg" xmlns:xlink="http://www.w3.org/1999/xlink">
<g id="graph0" class="graph" transform="scale(1 1) rotate(0) translate(4 46)">
<title>LittleWeebLibrary.Models.JsonFreeSpace.ToJson</title>
<polygon fill="white" stroke="none" points="-4,4 -4,-46 788,-46 788,4 -4,4"/>
<!-- Node1 -->
<g id="node1" class="node"><title>Node1</title>
<polygon fill="#bfbfbf" stroke="black" points="0,-6 0,-36 130,-36 130,-6 0,-6"/>
<text text-anchor="start" x="8" y="-24" font-family="Helvetica,sans-Serif" font-size="10.00">LittleWeebLibrary.Models.</text>
<text text-anchor="middle" x="65" y="-13" font-family="Helvetica,sans-Serif" font-size="10.00">JsonFreeSpace.ToJson</text>
</g>
<!-- Node2 -->
<g id="node2" class="node"><title>Node2</title>
<g id="a_node2"><a xlink:href="class_little_weeb_library_1_1_handlers_1_1_directory_handler.html#aa439a303572de6bf09438d38a7fa4698" target="_top" xlink:title="LittleWeebLibrary.Handlers.\lDirectoryHandler.GetFreeSpace">
<polygon fill="white" stroke="black" points="166,-6 166,-36 321,-36 321,-6 166,-6"/>
<text text-anchor="start" x="174" y="-24" font-family="Helvetica,sans-Serif" font-size="10.00">LittleWeebLibrary.Handlers.</text>
<text text-anchor="middle" x="243.5" y="-13" font-family="Helvetica,sans-Serif" font-size="10.00">DirectoryHandler.GetFreeSpace</text>
</a>
</g>
</g>
<!-- Node1&#45;&gt;Node2 -->
<g id="edge1" class="edge"><title>Node1&#45;&gt;Node2</title>
<path fill="none" stroke="midnightblue" d="M140.348,-21C148.738,-21 157.301,-21 165.721,-21"/>
<polygon fill="midnightblue" stroke="midnightblue" points="140.22,-17.5001 130.22,-21 140.22,-24.5001 140.22,-17.5001"/>
</g>
<!-- Node3 -->
<g id="node3" class="node"><title>Node3</title>
<g id="a_node3"><a xlink:href="class_little_weeb_library_1_1_services_1_1_directory_web_socket_service.html#a37c3c5de12db8083e8e6d22ce1fe6776" target="_top" xlink:title="LittleWeebLibrary.Services.\lDirectoryWebSocketService.GetFreeSpace">
<polygon fill="white" stroke="black" points="357,-6 357,-36 561,-36 561,-6 357,-6"/>
<text text-anchor="start" x="365" y="-24" font-family="Helvetica,sans-Serif" font-size="10.00">LittleWeebLibrary.Services.</text>
<text text-anchor="middle" x="459" y="-13" font-family="Helvetica,sans-Serif" font-size="10.00">DirectoryWebSocketService.GetFreeSpace</text>
</a>
</g>
</g>
<!-- Node2&#45;&gt;Node3 -->
<g id="edge2" class="edge"><title>Node2&#45;&gt;Node3</title>
<path fill="none" stroke="midnightblue" d="M331.447,-21C339.866,-21 348.455,-21 356.995,-21"/>
<polygon fill="midnightblue" stroke="midnightblue" points="331.277,-17.5001 321.277,-21 331.277,-24.5001 331.277,-17.5001"/>
</g>
<!-- Node4 -->
<g id="node4" class="node"><title>Node4</title>
<g id="a_node4"><a xlink:href="class_little_weeb_library_1_1_controllers_1_1_download_web_socket_controller.html#a9e5e421ed57b8b2a294e17d93d027c53" target="_top" xlink:title="LittleWeebLibrary.Controllers.\lDownloadWebSocketController.OnWeb\lSocketEvent">
<polygon fill="white" stroke="black" points="597,-0.5 597,-41.5 784,-41.5 784,-0.5 597,-0.5"/>
<text text-anchor="start" x="605" y="-29.5" font-family="Helvetica,sans-Serif" font-size="10.00">LittleWeebLibrary.Controllers.</text>
<text text-anchor="start" x="605" y="-18.5" font-family="Helvetica,sans-Serif" font-size="10.00">DownloadWebSocketController.OnWeb</text>
<text text-anchor="middle" x="690.5" y="-7.5" font-family="Helvetica,sans-Serif" font-size="10.00">SocketEvent</text>
</a>
</g>
</g>
<!-- Node3&#45;&gt;Node4 -->
<g id="edge3" class="edge"><title>Node3&#45;&gt;Node4</title>
<path fill="none" stroke="midnightblue" d="M571.571,-21C579.985,-21 588.422,-21 596.701,-21"/>
<polygon fill="midnightblue" stroke="midnightblue" points="571.33,-17.5001 561.33,-21 571.33,-24.5001 571.33,-17.5001"/>
</g>
</g>
</svg>
