<?xml version="1.0" encoding="UTF-8" standalone="no"?>
<!DOCTYPE svg PUBLIC "-//W3C//DTD SVG 1.1//EN"
 "http://www.w3.org/Graphics/SVG/1.1/DTD/svg11.dtd">
<!-- Generated by graphviz version 2.38.0 (20140413.2041)
 -->
<!-- Title: LittleWeebLibrary.Services.SettingsWebSocketService Pages: 1 -->
<svg width="1877pt" height="446pt"
 viewBox="0.00 0.00 1876.50 446.00" xmlns="http://www.w3.org/2000/svg" xmlns:xlink="http://www.w3.org/1999/xlink">
<g id="graph0" class="graph" transform="scale(1 1) rotate(0) translate(4 442)">
<title>LittleWeebLibrary.Services.SettingsWebSocketService</title>
<polygon fill="white" stroke="none" points="-4,4 -4,-442 1872.5,-442 1872.5,4 -4,4"/>
<!-- Node2 -->
<g id="node1" class="node"><title>Node2</title>
<polygon fill="#bfbfbf" stroke="black" points="868,-0.5 868,-156.5 1029,-156.5 1029,-0.5 868,-0.5"/>
<text text-anchor="start" x="876" y="-144.5" font-family="Helvetica,sans-Serif" font-size="10.00">LittleWeebLibrary.Services.</text>
<text text-anchor="middle" x="948.5" y="-133.5" font-family="Helvetica,sans-Serif" font-size="10.00">SettingsWebSocketService</text>
<polyline fill="none" stroke="black" points="868,-126.5 1029,-126.5 "/>
<text text-anchor="middle" x="948.5" y="-114.5" font-family="Helvetica,sans-Serif" font-size="10.00"> </text>
<polyline fill="none" stroke="black" points="868,-107.5 1029,-107.5 "/>
<text text-anchor="start" x="876" y="-95.5" font-family="Helvetica,sans-Serif" font-size="10.00">+ SettingsWebSocketService()</text>
<text text-anchor="start" x="876" y="-84.5" font-family="Helvetica,sans-Serif" font-size="10.00">+ GetCurrentIrcSettings()</text>
<text text-anchor="start" x="876" y="-73.5" font-family="Helvetica,sans-Serif" font-size="10.00">+ GetCurrentLittleWeebSettings()</text>
<text text-anchor="start" x="876" y="-62.5" font-family="Helvetica,sans-Serif" font-size="10.00">+ Setfullfilepath()</text>
<text text-anchor="start" x="876" y="-51.5" font-family="Helvetica,sans-Serif" font-size="10.00">+ SetIrcSettings()</text>
<text text-anchor="start" x="876" y="-40.5" font-family="Helvetica,sans-Serif" font-size="10.00">+ SetLittleWeebSettings()</text>
<text text-anchor="start" x="876" y="-29.5" font-family="Helvetica,sans-Serif" font-size="10.00">+ SetSettingsClasses()</text>
<text text-anchor="start" x="876" y="-18.5" font-family="Helvetica,sans-Serif" font-size="10.00">&#45; SetAllIrcSettings()</text>
<text text-anchor="start" x="876" y="-7.5" font-family="Helvetica,sans-Serif" font-size="10.00">&#45; SetAllLittleWeebSettings()</text>
</g>
<!-- Node3 -->
<g id="node2" class="node"><title>Node3</title>
<g id="a_node2"><a xlink:href="interface_little_weeb_library_1_1_services_1_1_i_settings_web_socket_service.html" target="_top" xlink:title="{ISettingsWebSocketService\n||+ GetCurrentIrcSettings()\l+ GetCurrentLittleWeebSettings()\l+ Setfullfilepath()\l+ SetIrcSettings()\l+ SetLittleWeebSettings()\l+ SetSettingsClasses()\l}">
<polygon fill="white" stroke="black" points="0,-303.5 0,-415.5 161,-415.5 161,-303.5 0,-303.5"/>
<text text-anchor="middle" x="80.5" y="-403.5" font-family="Helvetica,sans-Serif" font-size="10.00">ISettingsWebSocketService</text>
<polyline fill="none" stroke="black" points="0,-396.5 161,-396.5 "/>
<text text-anchor="middle" x="80.5" y="-384.5" font-family="Helvetica,sans-Serif" font-size="10.00"> </text>
<polyline fill="none" stroke="black" points="0,-377.5 161,-377.5 "/>
<text text-anchor="start" x="8" y="-365.5" font-family="Helvetica,sans-Serif" font-size="10.00">+ GetCurrentIrcSettings()</text>
<text text-anchor="start" x="8" y="-354.5" font-family="Helvetica,sans-Serif" font-size="10.00">+ GetCurrentLittleWeebSettings()</text>
<text text-anchor="start" x="8" y="-343.5" font-family="Helvetica,sans-Serif" font-size="10.00">+ Setfullfilepath()</text>
<text text-anchor="start" x="8" y="-332.5" font-family="Helvetica,sans-Serif" font-size="10.00">+ SetIrcSettings()</text>
<text text-anchor="start" x="8" y="-321.5" font-family="Helvetica,sans-Serif" font-size="10.00">+ SetLittleWeebSettings()</text>
<text text-anchor="start" x="8" y="-310.5" font-family="Helvetica,sans-Serif" font-size="10.00">+ SetSettingsClasses()</text>
</a>
</g>
</g>
<!-- Node3&#45;&gt;Node2 -->
<g id="edge1" class="edge"><title>Node3&#45;&gt;Node2</title>
<path fill="none" stroke="midnightblue" d="M133.571,-295.611C172.144,-254.332 228.018,-202.98 288.5,-175 390.162,-127.969 715.213,-97.4742 867.87,-85.3875"/>
<polygon fill="none" stroke="midnightblue" points="130.783,-293.471 126.572,-303.193 135.927,-298.219 130.783,-293.471"/>
</g>
<!-- Node4 -->
<g id="node3" class="node"><title>Node4</title>
<g id="a_node3"><a xlink:href="interface_little_weeb_library_1_1_handlers_1_1_i_irc_client_handler.html" target="_top" xlink:title="{LittleWeebLibrary.Handlers.\lIIrcClientHandler\n||+ CurrentSettings()\l+ IsConnected()\l+ IsDownloading()\l+ SendMessage()\l+ Setfullfilepath()\l+ StartConnection()\l+ StartDownload()\l+ StopConnection()\l+ StopDownload()\l}">
<polygon fill="white" stroke="black" points="179,-281.5 179,-437.5 316,-437.5 316,-281.5 179,-281.5"/>
<text text-anchor="start" x="187" y="-425.5" font-family="Helvetica,sans-Serif" font-size="10.00">LittleWeebLibrary.Handlers.</text>
<text text-anchor="middle" x="247.5" y="-414.5" font-family="Helvetica,sans-Serif" font-size="10.00">IIrcClientHandler</text>
<polyline fill="none" stroke="black" points="179,-407.5 316,-407.5 "/>
<text text-anchor="middle" x="247.5" y="-395.5" font-family="Helvetica,sans-Serif" font-size="10.00"> </text>
<polyline fill="none" stroke="black" points="179,-388.5 316,-388.5 "/>
<text text-anchor="start" x="187" y="-376.5" font-family="Helvetica,sans-Serif" font-size="10.00">+ CurrentSettings()</text>
<text text-anchor="start" x="187" y="-365.5" font-family="Helvetica,sans-Serif" font-size="10.00">+ IsConnected()</text>
<text text-anchor="start" x="187" y="-354.5" font-family="Helvetica,sans-Serif" font-size="10.00">+ IsDownloading()</text>
<text text-anchor="start" x="187" y="-343.5" font-family="Helvetica,sans-Serif" font-size="10.00">+ SendMessage()</text>
<text text-anchor="start" x="187" y="-332.5" font-family="Helvetica,sans-Serif" font-size="10.00">+ Setfullfilepath()</text>
<text text-anchor="start" x="187" y="-321.5" font-family="Helvetica,sans-Serif" font-size="10.00">+ StartConnection()</text>
<text text-anchor="start" x="187" y="-310.5" font-family="Helvetica,sans-Serif" font-size="10.00">+ StartDownload()</text>
<text text-anchor="start" x="187" y="-299.5" font-family="Helvetica,sans-Serif" font-size="10.00">+ StopConnection()</text>
<text text-anchor="start" x="187" y="-288.5" font-family="Helvetica,sans-Serif" font-size="10.00">+ StopDownload()</text>
</a>
</g>
</g>
<!-- Node4&#45;&gt;Node2 -->
<g id="edge2" class="edge"><title>Node4&#45;&gt;Node2</title>
<path fill="none" stroke="#404040" d="M280.984,-281.123C301.38,-243.191 331.158,-200.329 370.5,-175 449.181,-124.344 713.385,-97.169 855.753,-85.8911"/>
<polygon fill="none" stroke="#404040" points="855.92,-85.8782 861.591,-81.4239 867.884,-84.9453 862.213,-89.3997 855.92,-85.8782"/>
<text text-anchor="middle" x="408" y="-216.5" font-family="Helvetica,sans-Serif" font-size="10.00"> &#45;IrcClientHandler</text>
</g>
<!-- Node5 -->
<g id="node4" class="node"><title>Node5</title>
<g id="a_node4"><a xlink:href="interface_little_weeb_library_1_1_handlers_1_1_i_debug_handler.html" target="_top" xlink:title="{LittleWeebLibrary.Handlers.\lIDebugHandler\n||+ SetSettings()\l+ StopDebugger()\l+ TraceMessage()\l}">
<polygon fill="white" stroke="black" points="334,-314.5 334,-404.5 471,-404.5 471,-314.5 334,-314.5"/>
<text text-anchor="start" x="342" y="-392.5" font-family="Helvetica,sans-Serif" font-size="10.00">LittleWeebLibrary.Handlers.</text>
<text text-anchor="middle" x="402.5" y="-381.5" font-family="Helvetica,sans-Serif" font-size="10.00">IDebugHandler</text>
<polyline fill="none" stroke="black" points="334,-374.5 471,-374.5 "/>
<text text-anchor="middle" x="402.5" y="-362.5" font-family="Helvetica,sans-Serif" font-size="10.00"> </text>
<polyline fill="none" stroke="black" points="334,-355.5 471,-355.5 "/>
<text text-anchor="start" x="342" y="-343.5" font-family="Helvetica,sans-Serif" font-size="10.00">+ SetSettings()</text>
<text text-anchor="start" x="342" y="-332.5" font-family="Helvetica,sans-Serif" font-size="10.00">+ StopDebugger()</text>
<text text-anchor="start" x="342" y="-321.5" font-family="Helvetica,sans-Serif" font-size="10.00">+ TraceMessage()</text>
</a>
</g>
</g>
<!-- Node5&#45;&gt;Node2 -->
<g id="edge3" class="edge"><title>Node5&#45;&gt;Node2</title>
<path fill="none" stroke="#404040" d="M419.948,-314.281C438.99,-271.917 473.576,-209.481 523.5,-175 622.951,-106.312 763.876,-86.1667 855.727,-80.7249"/>
<polygon fill="none" stroke="#404040" points="855.811,-80.7205 861.588,-76.4049 867.793,-80.0778 862.016,-84.3934 855.811,-80.7205"/>
<text text-anchor="middle" x="557" y="-216.5" font-family="Helvetica,sans-Serif" font-size="10.00"> &#45;DebugHandler</text>
</g>
<!-- Node6 -->
<g id="node5" class="node"><title>Node6</title>
<g id="a_node5"><a xlink:href="interface_little_weeb_library_1_1_handlers_1_1_i_web_socket_handler.html" target="_top" xlink:title="{LittleWeebLibrary.Handlers.\lIWebSocketHandler\n||+ SendMessage()\l+ StartServer()\l+ StopServer()\l}">
<polygon fill="white" stroke="black" points="489,-314.5 489,-404.5 626,-404.5 626,-314.5 489,-314.5"/>
<text text-anchor="start" x="497" y="-392.5" font-family="Helvetica,sans-Serif" font-size="10.00">LittleWeebLibrary.Handlers.</text>
<text text-anchor="middle" x="557.5" y="-381.5" font-family="Helvetica,sans-Serif" font-size="10.00">IWebSocketHandler</text>
<polyline fill="none" stroke="black" points="489,-374.5 626,-374.5 "/>
<text text-anchor="middle" x="557.5" y="-362.5" font-family="Helvetica,sans-Serif" font-size="10.00"> </text>
<polyline fill="none" stroke="black" points="489,-355.5 626,-355.5 "/>
<text text-anchor="start" x="497" y="-343.5" font-family="Helvetica,sans-Serif" font-size="10.00">+ SendMessage()</text>
<text text-anchor="start" x="497" y="-332.5" font-family="Helvetica,sans-Serif" font-size="10.00">+ StartServer()</text>
<text text-anchor="start" x="497" y="-321.5" font-family="Helvetica,sans-Serif" font-size="10.00">+ StopServer()</text>
</a>
</g>
</g>
<!-- Node6&#45;&gt;Node2 -->
<g id="edge4" class="edge"><title>Node6&#45;&gt;Node2</title>
<path fill="none" stroke="#404040" d="M571.279,-314.155C586.359,-272.61 614.433,-211.584 658.5,-175 714.61,-128.418 794.167,-104.322 855.765,-91.9968"/>
<polygon fill="none" stroke="#404040" points="856.047,-91.9428 861.187,-86.8856 867.833,-89.6855 862.692,-94.7428 856.047,-91.9428"/>
<text text-anchor="middle" x="704" y="-216.5" font-family="Helvetica,sans-Serif" font-size="10.00"> &#45;WebSocketHandler</text>
</g>
<!-- Node7 -->
<g id="node6" class="node"><title>Node7</title>
<g id="a_node6"><a xlink:href="interface_little_weeb_library_1_1_handlers_1_1_i_download_handler.html" target="_top" xlink:title="{LittleWeebLibrary.Handlers.\lIDownloadHandler\n||+ AbortDownload()\l+ AddDownload()\l+ AddDownloads()\l+ GetCurrentlyDownloading()\l+ RemoveDownload()\l+ StopQueue()\l}">
<polygon fill="white" stroke="black" points="644,-298 644,-421 785,-421 785,-298 644,-298"/>
<text text-anchor="start" x="652" y="-409" font-family="Helvetica,sans-Serif" font-size="10.00">LittleWeebLibrary.Handlers.</text>
<text text-anchor="middle" x="714.5" y="-398" font-family="Helvetica,sans-Serif" font-size="10.00">IDownloadHandler</text>
<polyline fill="none" stroke="black" points="644,-391 785,-391 "/>
<text text-anchor="middle" x="714.5" y="-379" font-family="Helvetica,sans-Serif" font-size="10.00"> </text>
<polyline fill="none" stroke="black" points="644,-372 785,-372 "/>
<text text-anchor="start" x="652" y="-360" font-family="Helvetica,sans-Serif" font-size="10.00">+ AbortDownload()</text>
<text text-anchor="start" x="652" y="-349" font-family="Helvetica,sans-Serif" font-size="10.00">+ AddDownload()</text>
<text text-anchor="start" x="652" y="-338" font-family="Helvetica,sans-Serif" font-size="10.00">+ AddDownloads()</text>
<text text-anchor="start" x="652" y="-327" font-family="Helvetica,sans-Serif" font-size="10.00">+ GetCurrentlyDownloading()</text>
<text text-anchor="start" x="652" y="-316" font-family="Helvetica,sans-Serif" font-size="10.00">+ RemoveDownload()</text>
<text text-anchor="start" x="652" y="-305" font-family="Helvetica,sans-Serif" font-size="10.00">+ StopQueue()</text>
</a>
</g>
</g>
<!-- Node7&#45;&gt;Node2 -->
<g id="edge5" class="edge"><title>Node7&#45;&gt;Node2</title>
<path fill="none" stroke="#404040" d="M736.176,-297.662C751.863,-259.502 775.861,-210.909 807.5,-175 821.93,-158.623 839.764,-143.749 857.838,-130.873"/>
<polygon fill="none" stroke="#404040" points="858.013,-130.752 860.674,-124.05 867.884,-123.929 865.223,-130.631 858.013,-130.752"/>
<text text-anchor="middle" x="848.5" y="-216.5" font-family="Helvetica,sans-Serif" font-size="10.00"> &#45;DownloadHandler</text>
</g>
<!-- Node8 -->
<g id="node7" class="node"><title>Node8</title>
<g id="a_node7"><a xlink:href="class_little_weeb_library_1_1_settings_1_1_little_weeb_settings.html" target="_top" xlink:title="{LittleWeebLibrary.Settings.\lLittleWeebSettings\n|+ CurrentlyAiringBot\l+ DebugLevel\l+ DebugType\l+ Local\l+ MaxDebugLogSize\l+ Port\l+ RandomUsernameLength\l|+ ToString()\l}">
<polygon fill="white" stroke="black" points="803,-292.5 803,-426.5 938,-426.5 938,-292.5 803,-292.5"/>
<text text-anchor="start" x="811" y="-414.5" font-family="Helvetica,sans-Serif" font-size="10.00">LittleWeebLibrary.Settings.</text>
<text text-anchor="middle" x="870.5" y="-403.5" font-family="Helvetica,sans-Serif" font-size="10.00">LittleWeebSettings</text>
<polyline fill="none" stroke="black" points="803,-396.5 938,-396.5 "/>
<text text-anchor="start" x="811" y="-384.5" font-family="Helvetica,sans-Serif" font-size="10.00">+ CurrentlyAiringBot</text>
<text text-anchor="start" x="811" y="-373.5" font-family="Helvetica,sans-Serif" font-size="10.00">+ DebugLevel</text>
<text text-anchor="start" x="811" y="-362.5" font-family="Helvetica,sans-Serif" font-size="10.00">+ DebugType</text>
<text text-anchor="start" x="811" y="-351.5" font-family="Helvetica,sans-Serif" font-size="10.00">+ Local</text>
<text text-anchor="start" x="811" y="-340.5" font-family="Helvetica,sans-Serif" font-size="10.00">+ MaxDebugLogSize</text>
<text text-anchor="start" x="811" y="-329.5" font-family="Helvetica,sans-Serif" font-size="10.00">+ Port</text>
<text text-anchor="start" x="811" y="-318.5" font-family="Helvetica,sans-Serif" font-size="10.00">+ RandomUsernameLength</text>
<polyline fill="none" stroke="black" points="803,-311.5 938,-311.5 "/>
<text text-anchor="start" x="811" y="-299.5" font-family="Helvetica,sans-Serif" font-size="10.00">+ ToString()</text>
</a>
</g>
</g>
<!-- Node8&#45;&gt;Node2 -->
<g id="edge6" class="edge"><title>Node8&#45;&gt;Node2</title>
<path fill="none" stroke="#404040" d="M885.182,-292.285C893.349,-257.216 904.141,-213.543 915.5,-175 916.16,-172.76 916.841,-170.495 917.538,-168.213"/>
<polygon fill="none" stroke="#404040" points="917.556,-168.156 915.534,-161.234 921.146,-156.705 923.168,-163.627 917.556,-168.156"/>
<text text-anchor="middle" x="960" y="-216.5" font-family="Helvetica,sans-Serif" font-size="10.00"> &#45;LittleWeebSettings</text>
</g>
<!-- Node9 -->
<g id="node8" class="node"><title>Node9</title>
<g id="a_node8"><a xlink:href="interface_little_weeb_library_1_1_services_1_1_i_directory_web_socket_service.html" target="_top" xlink:title="{LittleWeebLibrary.Services.\lIDirectoryWebSocketService\n||+ CreateDirectory()\l+ DeleteDirectory()\l+ GetDirectories()\l+ GetDrives()\l+ GetFreeSpace()\l}">
<polygon fill="white" stroke="black" points="956.5,-303.5 956.5,-415.5 1096.5,-415.5 1096.5,-303.5 956.5,-303.5"/>
<text text-anchor="start" x="964.5" y="-403.5" font-family="Helvetica,sans-Serif" font-size="10.00">LittleWeebLibrary.Services.</text>
<text text-anchor="middle" x="1026.5" y="-392.5" font-family="Helvetica,sans-Serif" font-size="10.00">IDirectoryWebSocketService</text>
<polyline fill="none" stroke="black" points="956.5,-385.5 1096.5,-385.5 "/>
<text text-anchor="middle" x="1026.5" y="-373.5" font-family="Helvetica,sans-Serif" font-size="10.00"> </text>
<polyline fill="none" stroke="black" points="956.5,-366.5 1096.5,-366.5 "/>
<text text-anchor="start" x="964.5" y="-354.5" font-family="Helvetica,sans-Serif" font-size="10.00">+ CreateDirectory()</text>
<text text-anchor="start" x="964.5" y="-343.5" font-family="Helvetica,sans-Serif" font-size="10.00">+ DeleteDirectory()</text>
<text text-anchor="start" x="964.5" y="-332.5" font-family="Helvetica,sans-Serif" font-size="10.00">+ GetDirectories()</text>
<text text-anchor="start" x="964.5" y="-321.5" font-family="Helvetica,sans-Serif" font-size="10.00">+ GetDrives()</text>
<text text-anchor="start" x="964.5" y="-310.5" font-family="Helvetica,sans-Serif" font-size="10.00">+ GetFreeSpace()</text>
</a>
</g>
</g>
<!-- Node9&#45;&gt;Node2 -->
<g id="edge7" class="edge"><title>Node9&#45;&gt;Node2</title>
<path fill="none" stroke="#404040" d="M1025.75,-303.416C1023.84,-266.283 1018.53,-216.659 1004.5,-175 1003.7,-172.616 1002.83,-170.227 1001.91,-167.838"/>
<polygon fill="none" stroke="#404040" points="1001.87,-167.754 995.858,-163.775 997.217,-156.693 1003.23,-160.672 1001.87,-167.754"/>
<text text-anchor="middle" x="1086.5" y="-216.5" font-family="Helvetica,sans-Serif" font-size="10.00"> &#45;DirectoryWebSocketService</text>
</g>
<!-- Node10 -->
<g id="node9" class="node"><title>Node10</title>
<g id="a_node9"><a xlink:href="interface_little_weeb_library_1_1_handlers_1_1_i_settings_handler.html" target="_top" xlink:title="{LittleWeebLibrary.Handlers.\lISettingsHandler\n||+ GetIrcSettings()\l+ GetLittleWeebSettings()\l+ WriteIrcSettings()\l+ WriteLittleWeebSettings()\l}">
<polygon fill="white" stroke="black" points="1115,-309 1115,-410 1252,-410 1252,-309 1115,-309"/>
<text text-anchor="start" x="1123" y="-398" font-family="Helvetica,sans-Serif" font-size="10.00">LittleWeebLibrary.Handlers.</text>
<text text-anchor="middle" x="1183.5" y="-387" font-family="Helvetica,sans-Serif" font-size="10.00">ISettingsHandler</text>
<polyline fill="none" stroke="black" points="1115,-380 1252,-380 "/>
<text text-anchor="middle" x="1183.5" y="-368" font-family="Helvetica,sans-Serif" font-size="10.00"> </text>
<polyline fill="none" stroke="black" points="1115,-361 1252,-361 "/>
<text text-anchor="start" x="1123" y="-349" font-family="Helvetica,sans-Serif" font-size="10.00">+ GetIrcSettings()</text>
<text text-anchor="start" x="1123" y="-338" font-family="Helvetica,sans-Serif" font-size="10.00">+ GetLittleWeebSettings()</text>
<text text-anchor="start" x="1123" y="-327" font-family="Helvetica,sans-Serif" font-size="10.00">+ WriteIrcSettings()</text>
<text text-anchor="start" x="1123" y="-316" font-family="Helvetica,sans-Serif" font-size="10.00">+ WriteLittleWeebSettings()</text>
</a>
</g>
</g>
<!-- Node10&#45;&gt;Node2 -->
<g id="edge8" class="edge"><title>Node10&#45;&gt;Node2</title>
<path fill="none" stroke="#404040" d="M1187.72,-308.824C1188.5,-268.848 1183.36,-213.224 1154.5,-175 1126.82,-138.336 1081.65,-115.262 1040.65,-101.003"/>
<polygon fill="none" stroke="#404040" points="1040.6,-100.988 1033.65,-102.896 1029.21,-97.2108 1036.17,-95.3027 1040.6,-100.988"/>
<text text-anchor="middle" x="1223.5" y="-216.5" font-family="Helvetica,sans-Serif" font-size="10.00"> &#45;SettingsHandler</text>
</g>
<!-- Node11 -->
<g id="node10" class="node"><title>Node11</title>
<g id="a_node10"><a xlink:href="interface_little_weeb_library_1_1_handlers_1_1_i_directory_handler.html" target="_top" xlink:title="{LittleWeebLibrary.Handlers.\lIDirectoryHandler\n||+ CreateDirectory()\l+ DeleteDirectory()\l+ GetDirectories()\l+ GetDrives()\l+ GetFreeSpace()\l+ OpenDirectory()\l}">
<polygon fill="white" stroke="black" points="1270,-298 1270,-421 1407,-421 1407,-298 1270,-298"/>
<text text-anchor="start" x="1278" y="-409" font-family="Helvetica,sans-Serif" font-size="10.00">LittleWeebLibrary.Handlers.</text>
<text text-anchor="middle" x="1338.5" y="-398" font-family="Helvetica,sans-Serif" font-size="10.00">IDirectoryHandler</text>
<polyline fill="none" stroke="black" points="1270,-391 1407,-391 "/>
<text text-anchor="middle" x="1338.5" y="-379" font-family="Helvetica,sans-Serif" font-size="10.00"> </text>
<polyline fill="none" stroke="black" points="1270,-372 1407,-372 "/>
<text text-anchor="start" x="1278" y="-360" font-family="Helvetica,sans-Serif" font-size="10.00">+ CreateDirectory()</text>
<text text-anchor="start" x="1278" y="-349" font-family="Helvetica,sans-Serif" font-size="10.00">+ DeleteDirectory()</text>
<text text-anchor="start" x="1278" y="-338" font-family="Helvetica,sans-Serif" font-size="10.00">+ GetDirectories()</text>
<text text-anchor="start" x="1278" y="-327" font-family="Helvetica,sans-Serif" font-size="10.00">+ GetDrives()</text>
<text text-anchor="start" x="1278" y="-316" font-family="Helvetica,sans-Serif" font-size="10.00">+ GetFreeSpace()</text>
<text text-anchor="start" x="1278" y="-305" font-family="Helvetica,sans-Serif" font-size="10.00">+ OpenDirectory()</text>
</a>
</g>
</g>
<!-- Node11&#45;&gt;Node2 -->
<g id="edge9" class="edge"><title>Node11&#45;&gt;Node2</title>
<path fill="none" stroke="#404040" d="M1328.49,-297.868C1318.85,-257.811 1300.36,-206.987 1265.5,-175 1204.27,-118.823 1111.1,-95.6387 1041.59,-86.0993"/>
<polygon fill="none" stroke="#404040" points="1041.24,-86.0544 1034.78,-89.2567 1029.34,-84.5244 1035.8,-81.322 1041.24,-86.0544"/>
<text text-anchor="middle" x="1357" y="-216.5" font-family="Helvetica,sans-Serif" font-size="10.00"> &#45;DirectoryHandler</text>
</g>
<!-- Node12 -->
<g id="node11" class="node"><title>Node12</title>
<g id="a_node11"><a xlink:href="interface_little_weeb_library_1_1_services_1_1_i_irc_web_socket_service.html" target="_top" xlink:title="{LittleWeebLibrary.Services.\lIIrcWebSocketService\n||+ Connect()\l+ DisableSendMessage()\l+ Disconnect()\l+ EnableSendMessage()\l+ GetCurrentIrcSettings()\l+ SendMessage()\l}">
<polygon fill="white" stroke="black" points="1425,-298 1425,-421 1560,-421 1560,-298 1425,-298"/>
<text text-anchor="start" x="1433" y="-409" font-family="Helvetica,sans-Serif" font-size="10.00">LittleWeebLibrary.Services.</text>
<text text-anchor="middle" x="1492.5" y="-398" font-family="Helvetica,sans-Serif" font-size="10.00">IIrcWebSocketService</text>
<polyline fill="none" stroke="black" points="1425,-391 1560,-391 "/>
<text text-anchor="middle" x="1492.5" y="-379" font-family="Helvetica,sans-Serif" font-size="10.00"> </text>
<polyline fill="none" stroke="black" points="1425,-372 1560,-372 "/>
<text text-anchor="start" x="1433" y="-360" font-family="Helvetica,sans-Serif" font-size="10.00">+ Connect()</text>
<text text-anchor="start" x="1433" y="-349" font-family="Helvetica,sans-Serif" font-size="10.00">+ DisableSendMessage()</text>
<text text-anchor="start" x="1433" y="-338" font-family="Helvetica,sans-Serif" font-size="10.00">+ Disconnect()</text>
<text text-anchor="start" x="1433" y="-327" font-family="Helvetica,sans-Serif" font-size="10.00">+ EnableSendMessage()</text>
<text text-anchor="start" x="1433" y="-316" font-family="Helvetica,sans-Serif" font-size="10.00">+ GetCurrentIrcSettings()</text>
<text text-anchor="start" x="1433" y="-305" font-family="Helvetica,sans-Serif" font-size="10.00">+ SendMessage()</text>
</a>
</g>
</g>
<!-- Node12&#45;&gt;Node2 -->
<g id="edge10" class="edge"><title>Node12&#45;&gt;Node2</title>
<path fill="none" stroke="#404040" d="M1477.14,-297.949C1463.64,-257.128 1439.86,-205.368 1400.5,-175 1345.3,-132.413 1156.63,-103.626 1041.22,-89.5351"/>
<polygon fill="none" stroke="#404040" points="1041.16,-89.5287 1034.73,-92.7829 1029.25,-88.0944 1035.68,-84.8402 1041.16,-89.5287"/>
<text text-anchor="middle" x="1512.5" y="-216.5" font-family="Helvetica,sans-Serif" font-size="10.00"> &#45;IrcWebSocketService</text>
</g>
<!-- Node13 -->
<g id="node12" class="node"><title>Node13</title>
<g id="a_node12"><a xlink:href="interface_little_weeb_library_1_1_global_interfaces_1_1_i_settings_interface.html" target="_top" xlink:title="{LittleWeebLibrary.Global\lInterfaces.ISettingsInterface\n||+ SetIrcSettings()\l+ SetLittleWeebSettings()\l}">
<polygon fill="white" stroke="black" points="1578,-320 1578,-399 1715,-399 1715,-320 1578,-320"/>
<text text-anchor="start" x="1586" y="-387" font-family="Helvetica,sans-Serif" font-size="10.00">LittleWeebLibrary.Global</text>
<text text-anchor="middle" x="1646.5" y="-376" font-family="Helvetica,sans-Serif" font-size="10.00">Interfaces.ISettingsInterface</text>
<polyline fill="none" stroke="black" points="1578,-369 1715,-369 "/>
<text text-anchor="middle" x="1646.5" y="-357" font-family="Helvetica,sans-Serif" font-size="10.00"> </text>
<polyline fill="none" stroke="black" points="1578,-350 1715,-350 "/>
<text text-anchor="start" x="1586" y="-338" font-family="Helvetica,sans-Serif" font-size="10.00">+ SetIrcSettings()</text>
<text text-anchor="start" x="1586" y="-327" font-family="Helvetica,sans-Serif" font-size="10.00">+ SetLittleWeebSettings()</text>
</a>
</g>
</g>
<!-- Node13&#45;&gt;Node2 -->
<g id="edge11" class="edge"><title>Node13&#45;&gt;Node2</title>
<path fill="none" stroke="#404040" d="M1640.81,-319.847C1632.39,-277.317 1612.34,-210.317 1566.5,-175 1486.01,-112.985 1192.83,-90.6017 1041.02,-83.049"/>
<polygon fill="none" stroke="#404040" points="1040.99,-83.0476 1034.81,-86.7529 1029.01,-82.4675 1035.19,-78.7622 1040.99,-83.0476"/>
<text text-anchor="middle" x="1690" y="-255" font-family="Helvetica,sans-Serif" font-size="10.00"> &#45;DebugHandlerSettings</text>
<text text-anchor="middle" x="1690" y="-244" font-family="Helvetica,sans-Serif" font-size="10.00">&#45;FileHandlerSettings</text>
<text text-anchor="start" x="1623.5" y="-233" font-family="Helvetica,sans-Serif" font-size="10.00">&#45;DirectoryWebSocketService</text>
<text text-anchor="middle" x="1690" y="-222" font-family="Helvetica,sans-Serif" font-size="10.00">Settings</text>
<text text-anchor="middle" x="1690" y="-211" font-family="Helvetica,sans-Serif" font-size="10.00">&#45;IrcClientHandlerSettings</text>
<text text-anchor="middle" x="1690" y="-200" font-family="Helvetica,sans-Serif" font-size="10.00">&#45;IrcWebSocketServiceSettings</text>
<text text-anchor="middle" x="1690" y="-189" font-family="Helvetica,sans-Serif" font-size="10.00">&#45;DownloadHandlerSettings</text>
<text text-anchor="middle" x="1690" y="-178" font-family="Helvetica,sans-Serif" font-size="10.00">&#45;WebSocketHandlerSettings</text>
</g>
<!-- Node14 -->
<g id="node13" class="node"><title>Node14</title>
<g id="a_node13"><a xlink:href="class_little_weeb_library_1_1_settings_1_1_irc_settings.html" target="_top" xlink:title="{LittleWeebLibrary.Settings.\lIrcSettings\n|+ Channels\l+ fullfilepath\l+ Port\l+ Secure\l+ ServerAddress\l+ UserName\l|+ ToString()\l}">
<polygon fill="white" stroke="black" points="1734.5,-298 1734.5,-421 1868.5,-421 1868.5,-298 1734.5,-298"/>
<text text-anchor="start" x="1742.5" y="-409" font-family="Helvetica,sans-Serif" font-size="10.00">LittleWeebLibrary.Settings.</text>
<text text-anchor="middle" x="1801.5" y="-398" font-family="Helvetica,sans-Serif" font-size="10.00">IrcSettings</text>
<polyline fill="none" stroke="black" points="1734.5,-391 1868.5,-391 "/>
<text text-anchor="start" x="1742.5" y="-379" font-family="Helvetica,sans-Serif" font-size="10.00">+ Channels</text>
<text text-anchor="start" x="1742.5" y="-368" font-family="Helvetica,sans-Serif" font-size="10.00">+ fullfilepath</text>
<text text-anchor="start" x="1742.5" y="-357" font-family="Helvetica,sans-Serif" font-size="10.00">+ Port</text>
<text text-anchor="start" x="1742.5" y="-346" font-family="Helvetica,sans-Serif" font-size="10.00">+ Secure</text>
<text text-anchor="start" x="1742.5" y="-335" font-family="Helvetica,sans-Serif" font-size="10.00">+ ServerAddress</text>
<text text-anchor="start" x="1742.5" y="-324" font-family="Helvetica,sans-Serif" font-size="10.00">+ UserName</text>
<polyline fill="none" stroke="black" points="1734.5,-317 1868.5,-317 "/>
<text text-anchor="start" x="1742.5" y="-305" font-family="Helvetica,sans-Serif" font-size="10.00">+ ToString()</text>
</a>
</g>
</g>
<!-- Node14&#45;&gt;Node2 -->
<g id="edge12" class="edge"><title>Node14&#45;&gt;Node2</title>
<path fill="none" stroke="#404040" d="M1804.75,-297.594C1803.38,-256.881 1794.19,-205.394 1760.5,-175 1707.86,-127.508 1242.8,-95.9772 1041.13,-84.4211"/>
<polygon fill="none" stroke="#404040" points="1041.08,-84.4188 1034.87,-88.0719 1029.1,-83.738 1035.32,-80.0848 1041.08,-84.4188"/>
<text text-anchor="middle" x="1827" y="-216.5" font-family="Helvetica,sans-Serif" font-size="10.00"> &#45;IrcSettings</text>
</g>
</g>
</svg>
