<?xml version="1.0" encoding="UTF-8" standalone="no"?>
<!DOCTYPE svg PUBLIC "-//W3C//DTD SVG 1.1//EN"
 "http://www.w3.org/Graphics/SVG/1.1/DTD/svg11.dtd">
<!-- Generated by graphviz version 2.38.0 (20140413.2041)
 -->
<!-- Title: LittleWeebLibrary.LittleWeeb.LittleWeeb Pages: 1 -->
<svg width="659pt" height="39pt"
 viewBox="0.00 0.00 659.00 39.00" xmlns="http://www.w3.org/2000/svg" xmlns:xlink="http://www.w3.org/1999/xlink">
<g id="graph0" class="graph" transform="scale(1 1) rotate(0) translate(4 35)">
<title>LittleWeebLibrary.LittleWeeb.LittleWeeb</title>
<polygon fill="white" stroke="none" points="-4,4 -4,-35 655,-35 655,4 -4,4"/>
<!-- Node0 -->
<g id="node1" class="node"><title>Node0</title>
<polygon fill="#bfbfbf" stroke="black" points="0,-0.5 0,-30.5 116,-30.5 116,-0.5 0,-0.5"/>
<text text-anchor="start" x="8" y="-18.5" font-family="Helvetica,sans-Serif" font-size="10.00">LittleWeebLibrary.Little</text>
<text text-anchor="middle" x="58" y="-7.5" font-family="Helvetica,sans-Serif" font-size="10.00">Weeb.LittleWeeb</text>
</g>
<!-- Node1 -->
<g id="node2" class="node"><title>Node1</title>
<g id="a_node2"><a xlink:href="class_little_weeb_library_1_1_start_up.html#a2ea98092dfdb92bfc6decfdc373d6e78" target="_top" xlink:title="LittleWeebLibrary.StartUp.\lStart">
<polygon fill="white" stroke="black" points="152,-0.5 152,-30.5 283,-30.5 283,-0.5 152,-0.5"/>
<text text-anchor="start" x="160" y="-18.5" font-family="Helvetica,sans-Serif" font-size="10.00">LittleWeebLibrary.StartUp.</text>
<text text-anchor="middle" x="217.5" y="-7.5" font-family="Helvetica,sans-Serif" font-size="10.00">Start</text>
</a>
</g>
</g>
<!-- Node0&#45;&gt;Node1 -->
<g id="edge1" class="edge"><title>Node0&#45;&gt;Node1</title>
<path fill="none" stroke="midnightblue" d="M116.307,-15.5C124.498,-15.5 133.025,-15.5 141.494,-15.5"/>
<polygon fill="midnightblue" stroke="midnightblue" points="141.768,-19.0001 151.768,-15.5 141.768,-12.0001 141.768,-19.0001"/>
</g>
<!-- Node2 -->
<g id="node3" class="node"><title>Node2</title>
<g id="a_node3"><a xlink:href="class_little_weeb_library_1_1_handlers_1_1_web_socket_handler.html#a23d4ffbabdb67c97ea843d4e7dc5cbdd" target="_top" xlink:title="LittleWeebLibrary.Handlers.\lWebSocketHandler.StartServer">
<polygon fill="white" stroke="black" points="319,-0.5 319,-30.5 471,-30.5 471,-0.5 319,-0.5"/>
<text text-anchor="start" x="327" y="-18.5" font-family="Helvetica,sans-Serif" font-size="10.00">LittleWeebLibrary.Handlers.</text>
<text text-anchor="middle" x="395" y="-7.5" font-family="Helvetica,sans-Serif" font-size="10.00">WebSocketHandler.StartServer</text>
</a>
</g>
</g>
<!-- Node1&#45;&gt;Node2 -->
<g id="edge2" class="edge"><title>Node1&#45;&gt;Node2</title>
<path fill="none" stroke="midnightblue" d="M283.351,-15.5C291.542,-15.5 300.02,-15.5 308.47,-15.5"/>
<polygon fill="midnightblue" stroke="midnightblue" points="308.743,-19.0001 318.743,-15.5 308.743,-12.0001 308.743,-19.0001"/>
</g>
<!-- Node3 -->
<g id="node4" class="node"><title>Node3</title>
<g id="a_node4"><a xlink:href="class_little_weeb_library_1_1_handlers_1_1_debug_handler.html#afccb37dfd6b2114af72000c2f4fe4607" target="_top" xlink:title="LittleWeebLibrary.Handlers.\lDebugHandler.TraceMessage">
<polygon fill="white" stroke="black" points="507,-0.5 507,-30.5 651,-30.5 651,-0.5 507,-0.5"/>
<text text-anchor="start" x="515" y="-18.5" font-family="Helvetica,sans-Serif" font-size="10.00">LittleWeebLibrary.Handlers.</text>
<text text-anchor="middle" x="579" y="-7.5" font-family="Helvetica,sans-Serif" font-size="10.00">DebugHandler.TraceMessage</text>
</a>
</g>
</g>
<!-- Node2&#45;&gt;Node3 -->
<g id="edge3" class="edge"><title>Node2&#45;&gt;Node3</title>
<path fill="none" stroke="midnightblue" d="M471.077,-15.5C479.593,-15.5 488.301,-15.5 496.89,-15.5"/>
<polygon fill="midnightblue" stroke="midnightblue" points="496.899,-19.0001 506.899,-15.5 496.899,-12.0001 496.899,-19.0001"/>
</g>
</g>
</svg>
