<?xml version="1.0" encoding="UTF-8" standalone="no"?>
<!DOCTYPE svg PUBLIC "-//W3C//DTD SVG 1.1//EN"
 "http://www.w3.org/Graphics/SVG/1.1/DTD/svg11.dtd">
<!-- Generated by graphviz version 2.38.0 (20140413.2041)
 -->
<!-- Title: LittleWeebLibrary.Services.IrcWebSocketService.GetCurrentIrcSettings Pages: 1 -->
<svg width="560pt" height="127pt"
 viewBox="0.00 0.00 560.00 127.00" xmlns="http://www.w3.org/2000/svg" xmlns:xlink="http://www.w3.org/1999/xlink">
<g id="graph0" class="graph" transform="scale(1 1) rotate(0) translate(4 123)">
<title>LittleWeebLibrary.Services.IrcWebSocketService.GetCurrentIrcSettings</title>
<polygon fill="white" stroke="none" points="-4,4 -4,-123 556,-123 556,4 -4,4"/>
<!-- Node18 -->
<g id="node1" class="node"><title>Node18</title>
<polygon fill="#bfbfbf" stroke="black" points="0,-39 0,-80 170,-80 170,-39 0,-39"/>
<text text-anchor="start" x="8" y="-68" font-family="Helvetica,sans-Serif" font-size="10.00">LittleWeebLibrary.Services.</text>
<text text-anchor="start" x="8" y="-57" font-family="Helvetica,sans-Serif" font-size="10.00">IrcWebSocketService.GetCurrentIrc</text>
<text text-anchor="middle" x="85" y="-46" font-family="Helvetica,sans-Serif" font-size="10.00">Settings</text>
</g>
<!-- Node19 -->
<g id="node2" class="node"><title>Node19</title>
<g id="a_node2"><a xlink:href="class_little_weeb_library_1_1_handlers_1_1_web_socket_handler.html#a1de289d54d665a32c93478c68d3e6ad0" target="_top" xlink:title="LittleWeebLibrary.Handlers.\lWebSocketHandler.SendMessage">
<polygon fill="white" stroke="black" points="206,-88.5 206,-118.5 372,-118.5 372,-88.5 206,-88.5"/>
<text text-anchor="start" x="214" y="-106.5" font-family="Helvetica,sans-Serif" font-size="10.00">LittleWeebLibrary.Handlers.</text>
<text text-anchor="middle" x="289" y="-95.5" font-family="Helvetica,sans-Serif" font-size="10.00">WebSocketHandler.SendMessage</text>
</a>
</g>
</g>
<!-- Node18&#45;&gt;Node19 -->
<g id="edge1" class="edge"><title>Node18&#45;&gt;Node19</title>
<path fill="none" stroke="midnightblue" d="M170.203,-77.8413C183.016,-80.6323 196.2,-83.5041 208.899,-86.2701"/>
<polygon fill="midnightblue" stroke="midnightblue" points="208.447,-89.7537 218.963,-88.4623 209.937,-82.9141 208.447,-89.7537"/>
</g>
<!-- Node20 -->
<g id="node3" class="node"><title>Node20</title>
<g id="a_node3"><a xlink:href="class_little_weeb_library_1_1_handlers_1_1_debug_handler.html#afccb37dfd6b2114af72000c2f4fe4607" target="_top" xlink:title="LittleWeebLibrary.Handlers.\lDebugHandler.TraceMessage">
<polygon fill="white" stroke="black" points="408,-66.5 408,-96.5 552,-96.5 552,-66.5 408,-66.5"/>
<text text-anchor="start" x="416" y="-84.5" font-family="Helvetica,sans-Serif" font-size="10.00">LittleWeebLibrary.Handlers.</text>
<text text-anchor="middle" x="480" y="-73.5" font-family="Helvetica,sans-Serif" font-size="10.00">DebugHandler.TraceMessage</text>
</a>
</g>
</g>
<!-- Node18&#45;&gt;Node20 -->
<g id="edge4" class="edge"><title>Node18&#45;&gt;Node20</title>
<path fill="none" stroke="midnightblue" d="M170.308,-64.2196C237.67,-67.9904 331.484,-73.2421 397.968,-76.9639"/>
<polygon fill="midnightblue" stroke="midnightblue" points="397.804,-80.46 407.984,-77.5245 398.195,-73.471 397.804,-80.46"/>
</g>
<!-- Node21 -->
<g id="node4" class="node"><title>Node21</title>
<g id="a_node4"><a xlink:href="class_little_weeb_library_1_1_models_1_1_json_irc_info.html#af7d4dd885c7289ca28b0147d4feb2b84" target="_top" xlink:title="LittleWeebLibrary.Models.\lJsonIrcInfo.ToJson">
<polygon fill="white" stroke="black" points="224,-0.5 224,-30.5 354,-30.5 354,-0.5 224,-0.5"/>
<text text-anchor="start" x="232" y="-18.5" font-family="Helvetica,sans-Serif" font-size="10.00">LittleWeebLibrary.Models.</text>
<text text-anchor="middle" x="289" y="-7.5" font-family="Helvetica,sans-Serif" font-size="10.00">JsonIrcInfo.ToJson</text>
</a>
</g>
</g>
<!-- Node18&#45;&gt;Node21 -->
<g id="edge3" class="edge"><title>Node18&#45;&gt;Node21</title>
<path fill="none" stroke="midnightblue" d="M170.203,-41.1587C184.664,-38.0088 199.597,-34.7561 213.772,-31.6685"/>
<polygon fill="midnightblue" stroke="midnightblue" points="214.916,-35.0015 223.942,-29.4533 213.426,-28.1619 214.916,-35.0015"/>
</g>
<!-- Node19&#45;&gt;Node20 -->
<g id="edge2" class="edge"><title>Node19&#45;&gt;Node20</title>
<path fill="none" stroke="midnightblue" d="M372.074,-93.9465C380.666,-92.9463 389.398,-91.9299 397.978,-90.9311"/>
<polygon fill="midnightblue" stroke="midnightblue" points="398.435,-94.4016 407.964,-89.7688 397.626,-87.4485 398.435,-94.4016"/>
</g>
</g>
</svg>
