<?xml version="1.0" encoding="UTF-8" standalone="no"?>
<!DOCTYPE svg PUBLIC "-//W3C//DTD SVG 1.1//EN"
 "http://www.w3.org/Graphics/SVG/1.1/DTD/svg11.dtd">
<!-- Generated by graphviz version 2.38.0 (20140413.2041)
 -->
<!-- Title: LittleWeebLibrary.Handlers.WebSocketHandler.StartServer Pages: 1 -->
<svg width="340pt" height="39pt"
 viewBox="0.00 0.00 340.00 39.00" xmlns="http://www.w3.org/2000/svg" xmlns:xlink="http://www.w3.org/1999/xlink">
<g id="graph0" class="graph" transform="scale(1 1) rotate(0) translate(4 35)">
<title>LittleWeebLibrary.Handlers.WebSocketHandler.StartServer</title>
<polygon fill="white" stroke="none" points="-4,4 -4,-35 336,-35 336,4 -4,4"/>
<!-- Node8 -->
<g id="node1" class="node"><title>Node8</title>
<polygon fill="#bfbfbf" stroke="black" points="0,-0.5 0,-30.5 152,-30.5 152,-0.5 0,-0.5"/>
<text text-anchor="start" x="8" y="-18.5" font-family="Helvetica,sans-Serif" font-size="10.00">LittleWeebLibrary.Handlers.</text>
<text text-anchor="middle" x="76" y="-7.5" font-family="Helvetica,sans-Serif" font-size="10.00">WebSocketHandler.StartServer</text>
</g>
<!-- Node9 -->
<g id="node2" class="node"><title>Node9</title>
<g id="a_node2"><a xlink:href="class_little_weeb_library_1_1_handlers_1_1_debug_handler.html#afccb37dfd6b2114af72000c2f4fe4607" target="_top" xlink:title="LittleWeebLibrary.Handlers.\lDebugHandler.TraceMessage">
<polygon fill="white" stroke="black" points="188,-0.5 188,-30.5 332,-30.5 332,-0.5 188,-0.5"/>
<text text-anchor="start" x="196" y="-18.5" font-family="Helvetica,sans-Serif" font-size="10.00">LittleWeebLibrary.Handlers.</text>
<text text-anchor="middle" x="260" y="-7.5" font-family="Helvetica,sans-Serif" font-size="10.00">DebugHandler.TraceMessage</text>
</a>
</g>
</g>
<!-- Node8&#45;&gt;Node9 -->
<g id="edge1" class="edge"><title>Node8&#45;&gt;Node9</title>
<path fill="none" stroke="midnightblue" d="M152.077,-15.5C160.593,-15.5 169.301,-15.5 177.89,-15.5"/>
<polygon fill="midnightblue" stroke="midnightblue" points="177.899,-19.0001 187.899,-15.5 177.899,-12.0001 177.899,-19.0001"/>
</g>
</g>
</svg>
