<?xml version="1.0" encoding="UTF-8" standalone="no"?>
<!DOCTYPE svg PUBLIC "-//W3C//DTD SVG 1.1//EN"
 "http://www.w3.org/Graphics/SVG/1.1/DTD/svg11.dtd">
<!-- Generated by graphviz version 2.38.0 (20140413.2041)
 -->
<!-- Title: Graphical Class Hierarchy Pages: 1 -->
<svg width="328pt" height="382pt"
 viewBox="0.00 0.00 328.00 382.00" xmlns="http://www.w3.org/2000/svg" xmlns:xlink="http://www.w3.org/1999/xlink">
<g id="graph0" class="graph" transform="scale(1 1) rotate(0) translate(4 378)">
<title>Graphical Class Hierarchy</title>
<polygon fill="white" stroke="none" points="-4,4 -4,-378 324,-378 324,4 -4,4"/>
<!-- Node76 -->
<g id="node1" class="node"><title>Node76</title>
<g id="a_node1"><a xlink:href="interface_little_weeb_library_1_1_global_interfaces_1_1_i_settings_interface.html" target="_top" xlink:title="LittleWeebLibrary.Global\lInterfaces.ISettingsInterface">
<polygon fill="white" stroke="black" points="3,-196.5 3,-226.5 140,-226.5 140,-196.5 3,-196.5"/>
<text text-anchor="start" x="11" y="-214.5" font-family="Helvetica,sans-Serif" font-size="10.00">LittleWeebLibrary.Global</text>
<text text-anchor="middle" x="71.5" y="-203.5" font-family="Helvetica,sans-Serif" font-size="10.00">Interfaces.ISettingsInterface</text>
</a>
</g>
</g>
<!-- Node65 -->
<g id="node2" class="node"><title>Node65</title>
<g id="a_node2"><a xlink:href="class_little_weeb_library_1_1_handlers_1_1_download_handler.html" target="_top" xlink:title="LittleWeebLibrary.Handlers.\lDownloadHandler">
<polygon fill="white" stroke="black" points="181,-341.5 181,-371.5 318,-371.5 318,-341.5 181,-341.5"/>
<text text-anchor="start" x="189" y="-359.5" font-family="Helvetica,sans-Serif" font-size="10.00">LittleWeebLibrary.Handlers.</text>
<text text-anchor="middle" x="249.5" y="-348.5" font-family="Helvetica,sans-Serif" font-size="10.00">DownloadHandler</text>
</a>
</g>
</g>
<!-- Node76&#45;&gt;Node65 -->
<g id="edge1" class="edge"><title>Node76&#45;&gt;Node65</title>
<path fill="none" stroke="midnightblue" d="M137.75,-232.125C139.588,-233.492 141.345,-234.948 143,-236.5 172.627,-264.286 151.347,-290.75 179,-320.5 187.049,-329.159 197.654,-336.091 208.148,-341.468"/>
<polygon fill="midnightblue" stroke="midnightblue" points="139.553,-229.123 129.242,-226.687 135.784,-235.022 139.553,-229.123"/>
</g>
<!-- Node63 -->
<g id="node3" class="node"><title>Node63</title>
<g id="a_node3"><a xlink:href="class_little_weeb_library_1_1_handlers_1_1_file_handler.html" target="_top" xlink:title="LittleWeebLibrary.Handlers.\lFileHandler">
<polygon fill="white" stroke="black" points="181,-280.5 181,-310.5 318,-310.5 318,-280.5 181,-280.5"/>
<text text-anchor="start" x="189" y="-298.5" font-family="Helvetica,sans-Serif" font-size="10.00">LittleWeebLibrary.Handlers.</text>
<text text-anchor="middle" x="249.5" y="-287.5" font-family="Helvetica,sans-Serif" font-size="10.00">FileHandler</text>
</a>
</g>
</g>
<!-- Node76&#45;&gt;Node63 -->
<g id="edge2" class="edge"><title>Node76&#45;&gt;Node63</title>
<path fill="none" stroke="midnightblue" d="M128.186,-230.249C133.24,-232.25 138.242,-234.345 143,-236.5 171.865,-249.576 203.383,-267.753 224.382,-280.465"/>
<polygon fill="midnightblue" stroke="midnightblue" points="129.047,-226.831 118.457,-226.527 126.546,-233.369 129.047,-226.831"/>
</g>
<!-- Node59 -->
<g id="node4" class="node"><title>Node59</title>
<g id="a_node4"><a xlink:href="class_little_weeb_library_1_1_handlers_1_1_irc_client_handler.html" target="_top" xlink:title="LittleWeebLibrary.Handlers.\lIrcClientHandler">
<polygon fill="white" stroke="black" points="181,-207.5 181,-237.5 318,-237.5 318,-207.5 181,-207.5"/>
<text text-anchor="start" x="189" y="-225.5" font-family="Helvetica,sans-Serif" font-size="10.00">LittleWeebLibrary.Handlers.</text>
<text text-anchor="middle" x="249.5" y="-214.5" font-family="Helvetica,sans-Serif" font-size="10.00">IrcClientHandler</text>
</a>
</g>
</g>
<!-- Node76&#45;&gt;Node59 -->
<g id="edge3" class="edge"><title>Node76&#45;&gt;Node59</title>
<path fill="none" stroke="midnightblue" d="M150.18,-216.355C160.402,-216.994 170.811,-217.644 180.847,-218.272"/>
<polygon fill="midnightblue" stroke="midnightblue" points="150.242,-212.852 140.043,-215.721 149.805,-219.838 150.242,-212.852"/>
</g>
<!-- Node49 -->
<g id="node5" class="node"><title>Node49</title>
<g id="a_node5"><a xlink:href="class_little_weeb_library_1_1_handlers_1_1_web_socket_handler.html" target="_top" xlink:title="LittleWeebLibrary.Handlers.\lWebSocketHandler">
<polygon fill="white" stroke="black" points="181,-152.5 181,-182.5 318,-182.5 318,-152.5 181,-152.5"/>
<text text-anchor="start" x="189" y="-170.5" font-family="Helvetica,sans-Serif" font-size="10.00">LittleWeebLibrary.Handlers.</text>
<text text-anchor="middle" x="249.5" y="-159.5" font-family="Helvetica,sans-Serif" font-size="10.00">WebSocketHandler</text>
</a>
</g>
</g>
<!-- Node76&#45;&gt;Node49 -->
<g id="edge4" class="edge"><title>Node76&#45;&gt;Node49</title>
<path fill="none" stroke="midnightblue" d="M142.442,-194.015C157.649,-190.213 173.608,-186.223 188.395,-182.526"/>
<polygon fill="midnightblue" stroke="midnightblue" points="141.429,-190.66 132.577,-196.481 143.127,-197.451 141.429,-190.66"/>
</g>
<!-- Node19 -->
<g id="node6" class="node"><title>Node19</title>
<g id="a_node6"><a xlink:href="class_little_weeb_library_1_1_services_1_1_directory_web_socket_service.html" target="_top" xlink:title="LittleWeebLibrary.Services.\lDirectoryWebSocketService">
<polygon fill="white" stroke="black" points="180.5,-100.5 180.5,-130.5 318.5,-130.5 318.5,-100.5 180.5,-100.5"/>
<text text-anchor="start" x="188.5" y="-118.5" font-family="Helvetica,sans-Serif" font-size="10.00">LittleWeebLibrary.Services.</text>
<text text-anchor="middle" x="249.5" y="-107.5" font-family="Helvetica,sans-Serif" font-size="10.00">DirectoryWebSocketService</text>
</a>
</g>
</g>
<!-- Node76&#45;&gt;Node19 -->
<g id="edge5" class="edge"><title>Node76&#45;&gt;Node19</title>
<path fill="none" stroke="midnightblue" d="M136.317,-191.7C138.625,-190.382 140.862,-188.983 143,-187.5 163.759,-173.096 158.644,-158.468 179,-143.5 185.812,-138.491 193.646,-134.221 201.542,-130.637"/>
<polygon fill="midnightblue" stroke="midnightblue" points="134.441,-188.727 127.125,-196.391 137.623,-194.962 134.441,-188.727"/>
</g>
<!-- Node17 -->
<g id="node7" class="node"><title>Node17</title>
<g id="a_node7"><a xlink:href="class_little_weeb_library_1_1_services_1_1_download_web_socket_service.html" target="_top" xlink:title="LittleWeebLibrary.Services.\lDownloadWebSocketService">
<polygon fill="white" stroke="black" points="179,-49.5 179,-79.5 320,-79.5 320,-49.5 179,-49.5"/>
<text text-anchor="start" x="187" y="-67.5" font-family="Helvetica,sans-Serif" font-size="10.00">LittleWeebLibrary.Services.</text>
<text text-anchor="middle" x="249.5" y="-56.5" font-family="Helvetica,sans-Serif" font-size="10.00">DownloadWebSocketService</text>
</a>
</g>
</g>
<!-- Node76&#45;&gt;Node17 -->
<g id="edge6" class="edge"><title>Node76&#45;&gt;Node17</title>
<path fill="none" stroke="midnightblue" d="M139.552,-190.566C140.746,-189.59 141.898,-188.569 143,-187.5 175.711,-155.776 146.969,-123.911 179,-91.5 183.641,-86.8045 189.19,-82.9083 195.103,-79.6792"/>
<polygon fill="midnightblue" stroke="midnightblue" points="137.377,-187.815 131.128,-196.371 141.349,-193.579 137.377,-187.815"/>
</g>
<!-- Node1 -->
<g id="node8" class="node"><title>Node1</title>
<g id="a_node8"><a xlink:href="class_little_weeb_library_1_1_services_1_1_irc_web_socket_service.html" target="_top" xlink:title="LittleWeebLibrary.Services.\lIrcWebSocketService">
<polygon fill="white" stroke="black" points="182,-0.5 182,-30.5 317,-30.5 317,-0.5 182,-0.5"/>
<text text-anchor="start" x="190" y="-18.5" font-family="Helvetica,sans-Serif" font-size="10.00">LittleWeebLibrary.Services.</text>
<text text-anchor="middle" x="249.5" y="-7.5" font-family="Helvetica,sans-Serif" font-size="10.00">IrcWebSocketService</text>
</a>
</g>
</g>
<!-- Node76&#45;&gt;Node1 -->
<g id="edge7" class="edge"><title>Node76&#45;&gt;Node1</title>
<path fill="none" stroke="midnightblue" d="M140.231,-190.281C141.191,-189.392 142.116,-188.465 143,-187.5 188.426,-137.892 134.002,-90.4961 179,-40.5 182.517,-36.5923 186.69,-33.295 191.219,-30.5129"/>
<polygon fill="midnightblue" stroke="midnightblue" points="138.057,-187.538 132.245,-196.396 142.313,-193.096 138.057,-187.538"/>
</g>
<!-- Node64 -->
<g id="node9" class="node"><title>Node64</title>
<g id="a_node9"><a xlink:href="interface_little_weeb_library_1_1_handlers_1_1_i_download_handler.html" target="_top" xlink:title="LittleWeebLibrary.Handlers.\lIDownloadHandler">
<polygon fill="white" stroke="black" points="3,-343.5 3,-373.5 140,-373.5 140,-343.5 3,-343.5"/>
<text text-anchor="start" x="11" y="-361.5" font-family="Helvetica,sans-Serif" font-size="10.00">LittleWeebLibrary.Handlers.</text>
<text text-anchor="middle" x="71.5" y="-350.5" font-family="Helvetica,sans-Serif" font-size="10.00">IDownloadHandler</text>
</a>
</g>
</g>
<!-- Node64&#45;&gt;Node65 -->
<g id="edge8" class="edge"><title>Node64&#45;&gt;Node65</title>
<path fill="none" stroke="midnightblue" d="M150.18,-357.617C160.402,-357.501 170.811,-357.383 180.847,-357.269"/>
<polygon fill="midnightblue" stroke="midnightblue" points="150.002,-354.119 140.043,-357.732 150.082,-361.119 150.002,-354.119"/>
</g>
<!-- Node62 -->
<g id="node10" class="node"><title>Node62</title>
<g id="a_node10"><a xlink:href="interface_little_weeb_library_1_1_handlers_1_1_i_file_handler.html" target="_top" xlink:title="LittleWeebLibrary.Handlers.\lIFileHandler">
<polygon fill="white" stroke="black" points="3,-294.5 3,-324.5 140,-324.5 140,-294.5 3,-294.5"/>
<text text-anchor="start" x="11" y="-312.5" font-family="Helvetica,sans-Serif" font-size="10.00">LittleWeebLibrary.Handlers.</text>
<text text-anchor="middle" x="71.5" y="-301.5" font-family="Helvetica,sans-Serif" font-size="10.00">IFileHandler</text>
</a>
</g>
</g>
<!-- Node62&#45;&gt;Node63 -->
<g id="edge9" class="edge"><title>Node62&#45;&gt;Node63</title>
<path fill="none" stroke="midnightblue" d="M150.18,-303.321C160.402,-302.508 170.811,-301.68 180.847,-300.881"/>
<polygon fill="midnightblue" stroke="midnightblue" points="149.734,-299.845 140.043,-304.127 150.289,-306.823 149.734,-299.845"/>
</g>
<!-- Node58 -->
<g id="node11" class="node"><title>Node58</title>
<g id="a_node11"><a xlink:href="interface_little_weeb_library_1_1_handlers_1_1_i_irc_client_handler.html" target="_top" xlink:title="LittleWeebLibrary.Handlers.\lIIrcClientHandler">
<polygon fill="white" stroke="black" points="3,-245.5 3,-275.5 140,-275.5 140,-245.5 3,-245.5"/>
<text text-anchor="start" x="11" y="-263.5" font-family="Helvetica,sans-Serif" font-size="10.00">LittleWeebLibrary.Handlers.</text>
<text text-anchor="middle" x="71.5" y="-252.5" font-family="Helvetica,sans-Serif" font-size="10.00">IIrcClientHandler</text>
</a>
</g>
</g>
<!-- Node58&#45;&gt;Node59 -->
<g id="edge10" class="edge"><title>Node58&#45;&gt;Node59</title>
<path fill="none" stroke="midnightblue" d="M149.861,-243.797C160.185,-241.568 170.707,-239.296 180.847,-237.107"/>
<polygon fill="midnightblue" stroke="midnightblue" points="149.079,-240.385 140.043,-245.917 150.556,-247.228 149.079,-240.385"/>
</g>
<!-- Node48 -->
<g id="node12" class="node"><title>Node48</title>
<g id="a_node12"><a xlink:href="interface_little_weeb_library_1_1_handlers_1_1_i_web_socket_handler.html" target="_top" xlink:title="LittleWeebLibrary.Handlers.\lIWebSocketHandler">
<polygon fill="white" stroke="black" points="3,-147.5 3,-177.5 140,-177.5 140,-147.5 3,-147.5"/>
<text text-anchor="start" x="11" y="-165.5" font-family="Helvetica,sans-Serif" font-size="10.00">LittleWeebLibrary.Handlers.</text>
<text text-anchor="middle" x="71.5" y="-154.5" font-family="Helvetica,sans-Serif" font-size="10.00">IWebSocketHandler</text>
</a>
</g>
</g>
<!-- Node48&#45;&gt;Node49 -->
<g id="edge11" class="edge"><title>Node48&#45;&gt;Node49</title>
<path fill="none" stroke="midnightblue" d="M150.18,-164.707C160.402,-164.997 170.811,-165.293 180.847,-165.578"/>
<polygon fill="midnightblue" stroke="midnightblue" points="150.138,-161.204 140.043,-164.419 149.939,-168.201 150.138,-161.204"/>
</g>
<!-- Node18 -->
<g id="node13" class="node"><title>Node18</title>
<g id="a_node13"><a xlink:href="interface_little_weeb_library_1_1_services_1_1_i_directory_web_socket_service.html" target="_top" xlink:title="LittleWeebLibrary.Services.\lIDirectoryWebSocketService">
<polygon fill="white" stroke="black" points="1.5,-98.5 1.5,-128.5 141.5,-128.5 141.5,-98.5 1.5,-98.5"/>
<text text-anchor="start" x="9.5" y="-116.5" font-family="Helvetica,sans-Serif" font-size="10.00">LittleWeebLibrary.Services.</text>
<text text-anchor="middle" x="71.5" y="-105.5" font-family="Helvetica,sans-Serif" font-size="10.00">IDirectoryWebSocketService</text>
</a>
</g>
</g>
<!-- Node18&#45;&gt;Node19 -->
<g id="edge12" class="edge"><title>Node18&#45;&gt;Node19</title>
<path fill="none" stroke="midnightblue" d="M151.781,-114.401C161.274,-114.509 170.903,-114.618 180.222,-114.724"/>
<polygon fill="midnightblue" stroke="midnightblue" points="151.594,-110.899 141.555,-114.285 151.514,-117.898 151.594,-110.899"/>
</g>
<!-- Node16 -->
<g id="node14" class="node"><title>Node16</title>
<g id="a_node14"><a xlink:href="interface_little_weeb_library_1_1_services_1_1_i_download_web_socket_service.html" target="_top" xlink:title="LittleWeebLibrary.Services.\lIDownloadWebSocketService">
<polygon fill="white" stroke="black" points="0,-49.5 0,-79.5 143,-79.5 143,-49.5 0,-49.5"/>
<text text-anchor="start" x="8" y="-67.5" font-family="Helvetica,sans-Serif" font-size="10.00">LittleWeebLibrary.Services.</text>
<text text-anchor="middle" x="71.5" y="-56.5" font-family="Helvetica,sans-Serif" font-size="10.00">IDownloadWebSocketService</text>
</a>
</g>
</g>
<!-- Node16&#45;&gt;Node17 -->
<g id="edge13" class="edge"><title>Node16&#45;&gt;Node17</title>
<path fill="none" stroke="midnightblue" d="M153.08,-64.5C161.659,-64.5 170.333,-64.5 178.772,-64.5"/>
<polygon fill="midnightblue" stroke="midnightblue" points="153.072,-61.0001 143.072,-64.5 153.072,-68.0001 153.072,-61.0001"/>
</g>
<!-- Node0 -->
<g id="node15" class="node"><title>Node0</title>
<g id="a_node15"><a xlink:href="interface_little_weeb_library_1_1_services_1_1_i_irc_web_socket_service.html" target="_top" xlink:title="LittleWeebLibrary.Services.\lIIrcWebSocketService">
<polygon fill="white" stroke="black" points="4,-0.5 4,-30.5 139,-30.5 139,-0.5 4,-0.5"/>
<text text-anchor="start" x="12" y="-18.5" font-family="Helvetica,sans-Serif" font-size="10.00">LittleWeebLibrary.Services.</text>
<text text-anchor="middle" x="71.5" y="-7.5" font-family="Helvetica,sans-Serif" font-size="10.00">IIrcWebSocketService</text>
</a>
</g>
</g>
<!-- Node0&#45;&gt;Node1 -->
<g id="edge14" class="edge"><title>Node0&#45;&gt;Node1</title>
<path fill="none" stroke="midnightblue" d="M149.337,-15.5C160.175,-15.5 171.243,-15.5 181.868,-15.5"/>
<polygon fill="midnightblue" stroke="midnightblue" points="149.038,-12.0001 139.038,-15.5 149.038,-19.0001 149.038,-12.0001"/>
</g>
</g>
</svg>
