<?xml version="1.0" encoding="UTF-8" standalone="no"?>
<!DOCTYPE svg PUBLIC "-//W3C//DTD SVG 1.1//EN"
 "http://www.w3.org/Graphics/SVG/1.1/DTD/svg11.dtd">
<!-- Generated by graphviz version 2.38.0 (20140413.2041)
 -->
<!-- Title: Graphical Class Hierarchy Pages: 1 -->
<svg width="398pt" height="417pt"
 viewBox="0.00 0.00 398.00 417.00" xmlns="http://www.w3.org/2000/svg" xmlns:xlink="http://www.w3.org/1999/xlink">
<g id="graph0" class="graph" transform="scale(1 1) rotate(0) translate(4 413)">
<title>Graphical Class Hierarchy</title>
<polygon fill="white" stroke="none" points="-4,4 -4,-413 394,-413 394,4 -4,4"/>
<!-- Node0 -->
<g id="node1" class="node"><title>Node0</title>
<g id="a_node1"><a xlink:href="interface_little_weeb_library_1_1_controllers_1_1_i_sub_web_socket_controller.html" target="_top" xlink:title="LittleWeebLibrary.Controllers.\lISubWebSocketController">
<polygon fill="white" stroke="black" points="0,-195.5 0,-225.5 145,-225.5 145,-195.5 0,-195.5"/>
<text text-anchor="start" x="8" y="-213.5" font-family="Helvetica,sans-Serif" font-size="10.00">LittleWeebLibrary.Controllers.</text>
<text text-anchor="middle" x="72.5" y="-202.5" font-family="Helvetica,sans-Serif" font-size="10.00">ISubWebSocketController</text>
</a>
</g>
</g>
<!-- Node1 -->
<g id="node2" class="node"><title>Node1</title>
<g id="a_node2"><a xlink:href="class_little_weeb_library_1_1_controllers_1_1_download_web_socket_controller.html" target="_top" xlink:title="LittleWeebLibrary.Controllers.\lDownloadWebSocketController">
<polygon fill="white" stroke="black" points="210,-378.5 210,-408.5 361,-408.5 361,-378.5 210,-378.5"/>
<text text-anchor="start" x="218" y="-396.5" font-family="Helvetica,sans-Serif" font-size="10.00">LittleWeebLibrary.Controllers.</text>
<text text-anchor="middle" x="285.5" y="-385.5" font-family="Helvetica,sans-Serif" font-size="10.00">DownloadWebSocketController</text>
</a>
</g>
</g>
<!-- Node0&#45;&gt;Node1 -->
<g id="edge1" class="edge"><title>Node0&#45;&gt;Node1</title>
<path fill="none" stroke="midnightblue" d="M83.1744,-235.114C98.426,-270.572 131.51,-335.491 181,-369.5 189.665,-375.455 199.603,-379.947 209.817,-383.334"/>
<polygon fill="midnightblue" stroke="midnightblue" points="86.2587,-233.416 79.1804,-225.532 79.7975,-236.109 86.2587,-233.416"/>
</g>
<!-- Node2 -->
<g id="node3" class="node"><title>Node2</title>
<g id="a_node3"><a xlink:href="class_little_weeb_library_1_1_controllers_1_1_file_web_socket_controller.html" target="_top" xlink:title="LittleWeebLibrary.Controllers.\lFileWebSocketController">
<polygon fill="white" stroke="black" points="213,-329.5 213,-359.5 358,-359.5 358,-329.5 213,-329.5"/>
<text text-anchor="start" x="221" y="-347.5" font-family="Helvetica,sans-Serif" font-size="10.00">LittleWeebLibrary.Controllers.</text>
<text text-anchor="middle" x="285.5" y="-336.5" font-family="Helvetica,sans-Serif" font-size="10.00">FileWebSocketController</text>
</a>
</g>
</g>
<!-- Node0&#45;&gt;Node2 -->
<g id="edge2" class="edge"><title>Node0&#45;&gt;Node2</title>
<path fill="none" stroke="midnightblue" d="M89.8683,-233.904C108.843,-259.214 142.485,-298.836 181,-320.5 190.807,-326.016 201.817,-330.266 212.899,-333.54"/>
<polygon fill="midnightblue" stroke="midnightblue" points="92.5183,-231.599 83.7844,-225.602 86.8719,-235.737 92.5183,-231.599"/>
</g>
<!-- Node3 -->
<g id="node4" class="node"><title>Node3</title>
<g id="a_node4"><a xlink:href="class_little_weeb_library_1_1_controllers_1_1_irc_web_socket_controller.html" target="_top" xlink:title="LittleWeebLibrary.Controllers.\lIrcWebSocketController">
<polygon fill="white" stroke="black" points="213,-280.5 213,-310.5 358,-310.5 358,-280.5 213,-280.5"/>
<text text-anchor="start" x="221" y="-298.5" font-family="Helvetica,sans-Serif" font-size="10.00">LittleWeebLibrary.Controllers.</text>
<text text-anchor="middle" x="285.5" y="-287.5" font-family="Helvetica,sans-Serif" font-size="10.00">IrcWebSocketController</text>
</a>
</g>
</g>
<!-- Node0&#45;&gt;Node3 -->
<g id="edge3" class="edge"><title>Node0&#45;&gt;Node3</title>
<path fill="none" stroke="midnightblue" d="M104.828,-230.988C125.697,-243.869 154.126,-259.983 181,-270.5 191.07,-274.441 201.943,-277.887 212.725,-280.857"/>
<polygon fill="midnightblue" stroke="midnightblue" points="106.421,-227.856 96.0894,-225.511 102.704,-233.787 106.421,-227.856"/>
</g>
<!-- Node4 -->
<g id="node5" class="node"><title>Node4</title>
<g id="a_node5"><a xlink:href="class_little_weeb_library_1_1_controllers_1_1_sub_controllers_1_1_data_base_web_socket_controller.html" target="_top" xlink:title="LittleWeebLibrary.Controllers.\lSubControllers.DataBaseWebSocket\lController">
<polygon fill="white" stroke="black" points="197,-220 197,-261 374,-261 374,-220 197,-220"/>
<text text-anchor="start" x="205" y="-249" font-family="Helvetica,sans-Serif" font-size="10.00">LittleWeebLibrary.Controllers.</text>
<text text-anchor="start" x="205" y="-238" font-family="Helvetica,sans-Serif" font-size="10.00">SubControllers.DataBaseWebSocket</text>
<text text-anchor="middle" x="285.5" y="-227" font-family="Helvetica,sans-Serif" font-size="10.00">Controller</text>
</a>
</g>
</g>
<!-- Node0&#45;&gt;Node4 -->
<g id="edge4" class="edge"><title>Node0&#45;&gt;Node4</title>
<path fill="none" stroke="midnightblue" d="M155.488,-222.157C169.062,-224.087 183.184,-226.095 196.891,-228.044"/>
<polygon fill="midnightblue" stroke="midnightblue" points="155.623,-218.641 145.229,-220.698 154.637,-225.571 155.623,-218.641"/>
</g>
<!-- Node5 -->
<g id="node6" class="node"><title>Node5</title>
<g id="a_node6"><a xlink:href="class_little_weeb_library_1_1_controllers_1_1_sub_controllers_1_1_directory_web_socket_controller.html" target="_top" xlink:title="LittleWeebLibrary.Controllers.\lSubControllers.DirectoryWebSocket\lController">
<polygon fill="white" stroke="black" points="199,-160 199,-201 372,-201 372,-160 199,-160"/>
<text text-anchor="start" x="207" y="-189" font-family="Helvetica,sans-Serif" font-size="10.00">LittleWeebLibrary.Controllers.</text>
<text text-anchor="start" x="207" y="-178" font-family="Helvetica,sans-Serif" font-size="10.00">SubControllers.DirectoryWebSocket</text>
<text text-anchor="middle" x="285.5" y="-167" font-family="Helvetica,sans-Serif" font-size="10.00">Controller</text>
</a>
</g>
</g>
<!-- Node0&#45;&gt;Node5 -->
<g id="edge5" class="edge"><title>Node0&#45;&gt;Node5</title>
<path fill="none" stroke="midnightblue" d="M155.447,-198.849C169.647,-196.83 184.447,-194.726 198.745,-192.693"/>
<polygon fill="midnightblue" stroke="midnightblue" points="154.637,-195.429 145.229,-200.302 155.623,-202.359 154.637,-195.429"/>
</g>
<!-- Node6 -->
<g id="node7" class="node"><title>Node6</title>
<g id="a_node7"><a xlink:href="class_little_weeb_library_1_1_controllers_1_1_sub_controllers_1_1_info_api_web_socket_controller.html" target="_top" xlink:title="LittleWeebLibrary.Controllers.\lSubControllers.InfoApiWebSocketController">
<polygon fill="white" stroke="black" points="183,-110.5 183,-140.5 388,-140.5 388,-110.5 183,-110.5"/>
<text text-anchor="start" x="191" y="-128.5" font-family="Helvetica,sans-Serif" font-size="10.00">LittleWeebLibrary.Controllers.</text>
<text text-anchor="middle" x="285.5" y="-117.5" font-family="Helvetica,sans-Serif" font-size="10.00">SubControllers.InfoApiWebSocketController</text>
</a>
</g>
</g>
<!-- Node0&#45;&gt;Node6 -->
<g id="edge6" class="edge"><title>Node0&#45;&gt;Node6</title>
<path fill="none" stroke="midnightblue" d="M104.828,-190.012C125.697,-177.131 154.126,-161.017 181,-150.5 190.64,-146.727 201.015,-143.409 211.342,-140.526"/>
<polygon fill="midnightblue" stroke="midnightblue" points="102.704,-187.213 96.0894,-195.489 106.421,-193.144 102.704,-187.213"/>
</g>
<!-- Node7 -->
<g id="node8" class="node"><title>Node7</title>
<g id="a_node8"><a xlink:href="class_little_weeb_library_1_1_controllers_1_1_sub_controllers_1_1_settings_web_socket_controller.html" target="_top" xlink:title="LittleWeebLibrary.Controllers.\lSubControllers.SettingsWebSocket\lController">
<polygon fill="white" stroke="black" points="200.5,-50 200.5,-91 370.5,-91 370.5,-50 200.5,-50"/>
<text text-anchor="start" x="208.5" y="-79" font-family="Helvetica,sans-Serif" font-size="10.00">LittleWeebLibrary.Controllers.</text>
<text text-anchor="start" x="208.5" y="-68" font-family="Helvetica,sans-Serif" font-size="10.00">SubControllers.SettingsWebSocket</text>
<text text-anchor="middle" x="285.5" y="-57" font-family="Helvetica,sans-Serif" font-size="10.00">Controller</text>
</a>
</g>
</g>
<!-- Node0&#45;&gt;Node7 -->
<g id="edge7" class="edge"><title>Node0&#45;&gt;Node7</title>
<path fill="none" stroke="midnightblue" d="M90.4917,-187.361C109.794,-162.664 143.516,-124.054 181,-101.5 187.509,-97.5834 194.549,-94.1301 201.789,-91.0916"/>
<polygon fill="midnightblue" stroke="midnightblue" points="87.5851,-185.4 84.2831,-195.467 93.1424,-189.656 87.5851,-185.4"/>
</g>
<!-- Node8 -->
<g id="node9" class="node"><title>Node8</title>
<g id="a_node9"><a xlink:href="class_little_weeb_library_1_1_controllers_1_1_sub_controllers_1_1_version_web_socket_controller.html" target="_top" xlink:title="LittleWeebLibrary.Controllers.\lSubControllers.VersionWebSocketController">
<polygon fill="white" stroke="black" points="181,-0.5 181,-30.5 390,-30.5 390,-0.5 181,-0.5"/>
<text text-anchor="start" x="189" y="-18.5" font-family="Helvetica,sans-Serif" font-size="10.00">LittleWeebLibrary.Controllers.</text>
<text text-anchor="middle" x="285.5" y="-7.5" font-family="Helvetica,sans-Serif" font-size="10.00">SubControllers.VersionWebSocketController</text>
</a>
</g>
</g>
<!-- Node0&#45;&gt;Node8 -->
<g id="edge8" class="edge"><title>Node0&#45;&gt;Node8</title>
<path fill="none" stroke="midnightblue" d="M82.1134,-185.881C96.5143,-148.459 129.117,-77.694 181,-40.5 186.409,-36.6227 192.343,-33.3415 198.548,-30.5654"/>
<polygon fill="midnightblue" stroke="midnightblue" points="78.7427,-184.903 78.5333,-195.496 85.3027,-187.346 78.7427,-184.903"/>
</g>
</g>
</svg>
