<?xml version="1.0" encoding="UTF-8" standalone="no"?>
<!DOCTYPE svg PUBLIC "-//W3C//DTD SVG 1.1//EN"
 "http://www.w3.org/Graphics/SVG/1.1/DTD/svg11.dtd">
<!-- Generated by graphviz version 2.38.0 (20140413.2041)
 -->
<!-- Title: LittleWeebLibrary.Handlers.ISettingsHandler.GetLittleWeebSettings Pages: 1 -->
<!--zoomable 149 -->
<svg id="main" version="1.1" xmlns="http://www.w3.org/2000/svg" xmlns:xlink="http://www.w3.org/1999/xlink" xml:space="preserve" onload="init(evt)">
<style type="text/css"><![CDATA[
.edge:hover path { stroke: red; }
.edge:hover polygon { stroke: red; fill: red; }
]]></style>
<script type="text/javascript"><![CDATA[
var edges = document.getElementsByTagName('g');
if (edges && edges.length) {
  for (var i=0;i<edges.length;i++) {
    if (edges[i].id.substr(0,4)=='edge') {
      edges[i].setAttribute('class','edge');
    }
  }
}
]]></script>
        <defs>
                <circle id="rim" cx="0" cy="0" r="7"/>
                <circle id="rim2" cx="0" cy="0" r="3.5"/>
                <g id="zoomPlus">
                        <use xlink:href="#rim" fill="#404040">
                                <set attributeName="fill" to="#808080" begin="zoomplus.mouseover" end="zoomplus.mouseout"/>
                        </use>
                        <path d="M-4,0h8M0,-4v8" fill="none" stroke="white" stroke-width="1.5" pointer-events="none"/>
                </g>
                <g id="zoomMin">
                        <use xlink:href="#rim" fill="#404040">
                                <set attributeName="fill" to="#808080" begin="zoomminus.mouseover" end="zoomminus.mouseout"/>
                        </use>
                        <path d="M-4,0h8" fill="none" stroke="white" stroke-width="1.5" pointer-events="none"/>
                </g>
                <g id="dirArrow">
                        <path fill="none" stroke="white" stroke-width="1.5" d="M0,-3.0v7 M-2.5,-0.5L0,-3.0L2.5,-0.5"/>
                </g>
               <g id="resetDef">
                       <use xlink:href="#rim2" fill="#404040">
                               <set attributeName="fill" to="#808080" begin="reset.mouseover" end="reset.mouseout"/>
                       </use>
               </g>
        </defs>

<script type="text/javascript">
var viewWidth = 589;
var viewHeight = 149;
var sectionId = 'dynsection-3';
</script>
<script xlink:href="svgpan.js"/>
<svg id="graph" class="graph">
<g id="viewport">
<title>LittleWeebLibrary.Handlers.ISettingsHandler.GetLittleWeebSettings</title>
<polygon fill="white" stroke="none" points="-4,4 -4,-145 585,-145 585,4 -4,4"/>
<!-- Node5 -->
<g id="node1" class="node"><title>Node5</title>
<polygon fill="#bfbfbf" stroke="black" points="0,-55.5 0,-85.5 189,-85.5 189,-55.5 0,-55.5"/>
<text text-anchor="start" x="8" y="-73.5" font-family="Helvetica,sans-Serif" font-size="10.00">LittleWeebLibrary.Handlers.</text>
<text text-anchor="middle" x="94.5" y="-62.5" font-family="Helvetica,sans-Serif" font-size="10.00">ISettingsHandler.GetLittleWeebSettings</text>
</g>
<!-- Node6 -->
<g id="node2" class="node"><title>Node6</title>
<g id="a_node2"><a xlink:href="class_little_weeb_library_1_1_handlers_1_1_debug_handler.html#ac253016968e2d0141b49ab227a715242" target="_top" xlink:title="LittleWeebLibrary.Handlers.\lDebugHandler.SetSettings">
<polygon fill="white" stroke="black" points="251,-110.5 251,-140.5 388,-140.5 388,-110.5 251,-110.5"/>
<text text-anchor="start" x="259" y="-128.5" font-family="Helvetica,sans-Serif" font-size="10.00">LittleWeebLibrary.Handlers.</text>
<text text-anchor="middle" x="319.5" y="-117.5" font-family="Helvetica,sans-Serif" font-size="10.00">DebugHandler.SetSettings</text>
</a>
</g>
</g>
<!-- Node5&#45;&gt;Node6 -->
<g id="edge1" class="edge"><title>Node5&#45;&gt;Node6</title>
<path fill="none" stroke="midnightblue" d="M166.22,-87.942C195.607,-95.19 229.378,-103.519 257.638,-110.489"/>
<polygon fill="midnightblue" stroke="midnightblue" points="166.983,-84.5255 156.436,-85.529 165.307,-91.3219 166.983,-84.5255"/>
</g>
<!-- Node8 -->
<g id="node4" class="node"><title>Node8</title>
<g id="a_node4"><a xlink:href="class_little_weeb_library_1_1_services_1_1_settings_web_socket_service.html#af799e00c29f6eec4ca8874cda559c225" target="_top" xlink:title="LittleWeebLibrary.Services.\lSettingsWebSocketService.SetSettings\lClasses">
<polygon fill="white" stroke="black" points="225,-50 225,-91 414,-91 414,-50 225,-50"/>
<text text-anchor="start" x="233" y="-79" font-family="Helvetica,sans-Serif" font-size="10.00">LittleWeebLibrary.Services.</text>
<text text-anchor="start" x="233" y="-68" font-family="Helvetica,sans-Serif" font-size="10.00">SettingsWebSocketService.SetSettings</text>
<text text-anchor="middle" x="319.5" y="-57" font-family="Helvetica,sans-Serif" font-size="10.00">Classes</text>
</a>
</g>
</g>
<!-- Node5&#45;&gt;Node8 -->
<g id="edge3" class="edge"><title>Node5&#45;&gt;Node8</title>
<path fill="none" stroke="midnightblue" d="M199.112,-70.5C207.673,-70.5 216.297,-70.5 224.779,-70.5"/>
<polygon fill="midnightblue" stroke="midnightblue" points="199.103,-67.0001 189.103,-70.5 199.103,-74.0001 199.103,-67.0001"/>
</g>
<!-- Node9 -->
<g id="node5" class="node"><title>Node9</title>
<g id="a_node5"><a xlink:href="class_little_weeb_library_1_1_handlers_1_1_web_socket_handler.html#aa420f7ed35d16df6ef6f18bd0ab8fa3a" target="_top" xlink:title="LittleWeebLibrary.Handlers.\lWebSocketHandler.WebSocketHandler">
<polygon fill="white" stroke="black" points="225.5,-0.5 225.5,-30.5 413.5,-30.5 413.5,-0.5 225.5,-0.5"/>
<text text-anchor="start" x="233.5" y="-18.5" font-family="Helvetica,sans-Serif" font-size="10.00">LittleWeebLibrary.Handlers.</text>
<text text-anchor="middle" x="319.5" y="-7.5" font-family="Helvetica,sans-Serif" font-size="10.00">WebSocketHandler.WebSocketHandler</text>
</a>
</g>
</g>
<!-- Node5&#45;&gt;Node9 -->
<g id="edge5" class="edge"><title>Node5&#45;&gt;Node9</title>
<path fill="none" stroke="midnightblue" d="M166.22,-53.058C195.607,-45.81 229.378,-37.4809 257.638,-30.5108"/>
<polygon fill="midnightblue" stroke="midnightblue" points="165.307,-49.6781 156.436,-55.471 166.983,-56.4745 165.307,-49.6781"/>
</g>
<!-- Node7 -->
<g id="node3" class="node"><title>Node7</title>
<g id="a_node3"><a xlink:href="class_little_weeb_library_1_1_start_up.html#a7f35b9dfb45fb003a9653d1f531044c9" target="_top" xlink:title="LittleWeebLibrary.StartUp.\lStartUp">
<polygon fill="white" stroke="black" points="450,-82.5 450,-112.5 581,-112.5 581,-82.5 450,-82.5"/>
<text text-anchor="start" x="458" y="-100.5" font-family="Helvetica,sans-Serif" font-size="10.00">LittleWeebLibrary.StartUp.</text>
<text text-anchor="middle" x="515.5" y="-89.5" font-family="Helvetica,sans-Serif" font-size="10.00">StartUp</text>
</a>
</g>
</g>
<!-- Node6&#45;&gt;Node7 -->
<g id="edge2" class="edge"><title>Node6&#45;&gt;Node7</title>
<path fill="none" stroke="midnightblue" d="M398.061,-114.306C415.208,-111.831 433.2,-109.234 449.774,-106.842"/>
<polygon fill="midnightblue" stroke="midnightblue" points="397.477,-110.854 388.079,-115.746 398.477,-117.782 397.477,-110.854"/>
</g>
<!-- Node8&#45;&gt;Node7 -->
<g id="edge4" class="edge"><title>Node8&#45;&gt;Node7</title>
<path fill="none" stroke="midnightblue" d="M424.026,-84.9083C432.813,-86.1312 441.529,-87.3442 449.882,-88.5068"/>
<polygon fill="midnightblue" stroke="midnightblue" points="424.477,-81.4374 414.09,-83.5255 423.513,-88.3706 424.477,-81.4374"/>
</g>
</g>
</svg>
        <g id="navigator" transform="translate(0 0)" fill="#404254">
                <rect fill="#f2f5e9" fill-opacity="0.5" stroke="#606060" stroke-width=".5" x="0" y="0" width="60" height="60"/>
                <use id="zoomplus" xlink:href="#zoomPlus" x="17" y="9" onmousedown="handleZoom(evt,'in')"/>
                <use id="zoomminus" xlink:href="#zoomMin" x="42" y="9" onmousedown="handleZoom(evt,'out')"/>
                <use id="reset" xlink:href="#resetDef" x="30" y="36" onmousedown="handleReset()"/>
                <g id="arrowUp" xlink:href="#dirArrow" transform="translate(30 24)" onmousedown="handlePan(0,-1)">
                  <use xlink:href="#rim" fill="#404040">
                        <set attributeName="fill" to="#808080" begin="arrowUp.mouseover" end="arrowUp.mouseout"/>
                  </use>
                  <path fill="none" stroke="white" stroke-width="1.5" d="M0,-3.0v7 M-2.5,-0.5L0,-3.0L2.5,-0.5"/>
                </g>
                <g id="arrowRight" xlink:href="#dirArrow" transform="rotate(90) translate(36 -43)" onmousedown="handlePan(1,0)">
                  <use xlink:href="#rim" fill="#404040">
                        <set attributeName="fill" to="#808080" begin="arrowRight.mouseover" end="arrowRight.mouseout"/>
                  </use>
                  <path fill="none" stroke="white" stroke-width="1.5" d="M0,-3.0v7 M-2.5,-0.5L0,-3.0L2.5,-0.5"/>
                </g>
                <g id="arrowDown" xlink:href="#dirArrow" transform="rotate(180) translate(-30 -48)" onmousedown="handlePan(0,1)">
                  <use xlink:href="#rim" fill="#404040">
                        <set attributeName="fill" to="#808080" begin="arrowDown.mouseover" end="arrowDown.mouseout"/>
                  </use>
                  <path fill="none" stroke="white" stroke-width="1.5" d="M0,-3.0v7 M-2.5,-0.5L0,-3.0L2.5,-0.5"/>
                </g>
                <g id="arrowLeft" xlink:href="#dirArrow" transform="rotate(270) translate(-36 17)" onmousedown="handlePan(-1,0)">
                  <use xlink:href="#rim" fill="#404040">
                        <set attributeName="fill" to="#808080" begin="arrowLeft.mouseover" end="arrowLeft.mouseout"/>
                  </use>
                  <path fill="none" stroke="white" stroke-width="1.5" d="M0,-3.0v7 M-2.5,-0.5L0,-3.0L2.5,-0.5"/>
                </g>
        </g>
        <svg viewBox="0 0 15 15" width="100%" height="30px" preserveAspectRatio="xMaxYMin meet">
         <g id="arrow_out" transform="scale(0.3 0.3)">
          <a xlink:href="interface_little_weeb_library_1_1_handlers_1_1_i_settings_handler_a493bc8df18211fa8c3874371b809e006_icgraph_org.svg" target="_base">
           <rect id="button" ry="5" rx="5" y="6" x="6" height="38" width="38"
                fill="#f2f5e9" fill-opacity="0.5" stroke="#606060" stroke-width="1.0"/>
           <path id="arrow"
             d="M 11.500037,31.436501 C 11.940474,20.09759 22.043105,11.32322 32.158766,21.979434 L 37.068811,17.246167 C 37.068811,17.246167 37.088388,32 37.088388,32 L 22.160133,31.978069 C 22.160133,31.978069 26.997745,27.140456 26.997745,27.140456 C 18.528582,18.264221 13.291696,25.230495 11.500037,31.436501 z"
             style="fill:#404040;"/>
          </a>
         </g>
        </svg>
</svg>
