<?xml version="1.0" encoding="UTF-8" standalone="no"?>
<!DOCTYPE svg PUBLIC "-//W3C//DTD SVG 1.1//EN"
 "http://www.w3.org/Graphics/SVG/1.1/DTD/svg11.dtd">
<!-- Generated by graphviz version 2.38.0 (20140413.2041)
 -->
<!-- Title: LittleWeebLibrary.Services.IVersionWebSocketService Pages: 1 -->
<svg width="155pt" height="215pt"
 viewBox="0.00 0.00 155.00 215.00" xmlns="http://www.w3.org/2000/svg" xmlns:xlink="http://www.w3.org/1999/xlink">
<g id="graph0" class="graph" transform="scale(1 1) rotate(0) translate(4 211)">
<title>LittleWeebLibrary.Services.IVersionWebSocketService</title>
<polygon fill="white" stroke="none" points="-4,4 -4,-211 151,-211 151,4 -4,4"/>
<!-- Node0 -->
<g id="node1" class="node"><title>Node0</title>
<polygon fill="#bfbfbf" stroke="black" points="6,-138.5 6,-206.5 141,-206.5 141,-138.5 6,-138.5"/>
<text text-anchor="start" x="14" y="-194.5" font-family="Helvetica,sans-Serif" font-size="10.00">LittleWeebLibrary.Services.</text>
<text text-anchor="middle" x="73.5" y="-183.5" font-family="Helvetica,sans-Serif" font-size="10.00">IVersionWebSocketService</text>
<polyline fill="none" stroke="black" points="6,-176.5 141,-176.5 "/>
<text text-anchor="middle" x="73.5" y="-164.5" font-family="Helvetica,sans-Serif" font-size="10.00"> </text>
<polyline fill="none" stroke="black" points="6,-157.5 141,-157.5 "/>
<text text-anchor="start" x="14" y="-145.5" font-family="Helvetica,sans-Serif" font-size="10.00">+ CheckVersion()</text>
</g>
<!-- Node1 -->
<g id="node2" class="node"><title>Node1</title>
<g id="a_node2"><a xlink:href="class_little_weeb_library_1_1_services_1_1_version_web_socket_service.html" target="_top" xlink:title="{LittleWeebLibrary.Services.\lVersionWebSocketService\n|&#45; DebugHandler\l&#45; VersionHandler\l&#45; WebSocketHandler\l|+ VersionWebSocketService()\l+ CheckVersion()\l}">
<polygon fill="white" stroke="black" points="0,-0.5 0,-101.5 147,-101.5 147,-0.5 0,-0.5"/>
<text text-anchor="start" x="8" y="-89.5" font-family="Helvetica,sans-Serif" font-size="10.00">LittleWeebLibrary.Services.</text>
<text text-anchor="middle" x="73.5" y="-78.5" font-family="Helvetica,sans-Serif" font-size="10.00">VersionWebSocketService</text>
<polyline fill="none" stroke="black" points="0,-71.5 147,-71.5 "/>
<text text-anchor="start" x="8" y="-59.5" font-family="Helvetica,sans-Serif" font-size="10.00">&#45; DebugHandler</text>
<text text-anchor="start" x="8" y="-48.5" font-family="Helvetica,sans-Serif" font-size="10.00">&#45; VersionHandler</text>
<text text-anchor="start" x="8" y="-37.5" font-family="Helvetica,sans-Serif" font-size="10.00">&#45; WebSocketHandler</text>
<polyline fill="none" stroke="black" points="0,-30.5 147,-30.5 "/>
<text text-anchor="start" x="8" y="-18.5" font-family="Helvetica,sans-Serif" font-size="10.00">+ VersionWebSocketService()</text>
<text text-anchor="start" x="8" y="-7.5" font-family="Helvetica,sans-Serif" font-size="10.00">+ CheckVersion()</text>
</a>
</g>
</g>
<!-- Node0&#45;&gt;Node1 -->
<g id="edge1" class="edge"><title>Node0&#45;&gt;Node1</title>
<path fill="none" stroke="midnightblue" d="M73.5,-128.045C73.5,-119.469 73.5,-110.408 73.5,-101.646"/>
<polygon fill="none" stroke="midnightblue" points="70.0001,-128.213 73.5,-138.213 77.0001,-128.213 70.0001,-128.213"/>
</g>
</g>
</svg>
