<?xml version="1.0" encoding="UTF-8" standalone="no"?>
<!DOCTYPE svg PUBLIC "-//W3C//DTD SVG 1.1//EN"
 "http://www.w3.org/Graphics/SVG/1.1/DTD/svg11.dtd">
<!-- Generated by graphviz version 2.38.0 (20140413.2041)
 -->
<!-- Title: LittleWeebLibrary.Handlers.ISettingsHandler.GetLittleWeebSettings Pages: 1 -->
<svg width="589pt" height="149pt"
 viewBox="0.00 0.00 589.00 149.00" xmlns="http://www.w3.org/2000/svg" xmlns:xlink="http://www.w3.org/1999/xlink">
<g id="graph0" class="graph" transform="scale(1 1) rotate(0) translate(4 145)">
<title>LittleWeebLibrary.Handlers.ISettingsHandler.GetLittleWeebSettings</title>
<polygon fill="white" stroke="none" points="-4,4 -4,-145 585,-145 585,4 -4,4"/>
<!-- Node5 -->
<g id="node1" class="node"><title>Node5</title>
<polygon fill="#bfbfbf" stroke="black" points="0,-55.5 0,-85.5 189,-85.5 189,-55.5 0,-55.5"/>
<text text-anchor="start" x="8" y="-73.5" font-family="Helvetica,sans-Serif" font-size="10.00">LittleWeebLibrary.Handlers.</text>
<text text-anchor="middle" x="94.5" y="-62.5" font-family="Helvetica,sans-Serif" font-size="10.00">ISettingsHandler.GetLittleWeebSettings</text>
</g>
<!-- Node6 -->
<g id="node2" class="node"><title>Node6</title>
<g id="a_node2"><a xlink:href="class_little_weeb_library_1_1_handlers_1_1_debug_handler.html#ac253016968e2d0141b49ab227a715242" target="_top" xlink:title="LittleWeebLibrary.Handlers.\lDebugHandler.SetSettings">
<polygon fill="white" stroke="black" points="251,-110.5 251,-140.5 388,-140.5 388,-110.5 251,-110.5"/>
<text text-anchor="start" x="259" y="-128.5" font-family="Helvetica,sans-Serif" font-size="10.00">LittleWeebLibrary.Handlers.</text>
<text text-anchor="middle" x="319.5" y="-117.5" font-family="Helvetica,sans-Serif" font-size="10.00">DebugHandler.SetSettings</text>
</a>
</g>
</g>
<!-- Node5&#45;&gt;Node6 -->
<g id="edge1" class="edge"><title>Node5&#45;&gt;Node6</title>
<path fill="none" stroke="midnightblue" d="M166.22,-87.942C195.607,-95.19 229.378,-103.519 257.638,-110.489"/>
<polygon fill="midnightblue" stroke="midnightblue" points="166.983,-84.5255 156.436,-85.529 165.307,-91.3219 166.983,-84.5255"/>
</g>
<!-- Node8 -->
<g id="node4" class="node"><title>Node8</title>
<g id="a_node4"><a xlink:href="class_little_weeb_library_1_1_services_1_1_settings_web_socket_service.html#af799e00c29f6eec4ca8874cda559c225" target="_top" xlink:title="LittleWeebLibrary.Services.\lSettingsWebSocketService.SetSettings\lClasses">
<polygon fill="white" stroke="black" points="225,-50 225,-91 414,-91 414,-50 225,-50"/>
<text text-anchor="start" x="233" y="-79" font-family="Helvetica,sans-Serif" font-size="10.00">LittleWeebLibrary.Services.</text>
<text text-anchor="start" x="233" y="-68" font-family="Helvetica,sans-Serif" font-size="10.00">SettingsWebSocketService.SetSettings</text>
<text text-anchor="middle" x="319.5" y="-57" font-family="Helvetica,sans-Serif" font-size="10.00">Classes</text>
</a>
</g>
</g>
<!-- Node5&#45;&gt;Node8 -->
<g id="edge3" class="edge"><title>Node5&#45;&gt;Node8</title>
<path fill="none" stroke="midnightblue" d="M199.112,-70.5C207.673,-70.5 216.297,-70.5 224.779,-70.5"/>
<polygon fill="midnightblue" stroke="midnightblue" points="199.103,-67.0001 189.103,-70.5 199.103,-74.0001 199.103,-67.0001"/>
</g>
<!-- Node9 -->
<g id="node5" class="node"><title>Node9</title>
<g id="a_node5"><a xlink:href="class_little_weeb_library_1_1_handlers_1_1_web_socket_handler.html#aa420f7ed35d16df6ef6f18bd0ab8fa3a" target="_top" xlink:title="LittleWeebLibrary.Handlers.\lWebSocketHandler.WebSocketHandler">
<polygon fill="white" stroke="black" points="225.5,-0.5 225.5,-30.5 413.5,-30.5 413.5,-0.5 225.5,-0.5"/>
<text text-anchor="start" x="233.5" y="-18.5" font-family="Helvetica,sans-Serif" font-size="10.00">LittleWeebLibrary.Handlers.</text>
<text text-anchor="middle" x="319.5" y="-7.5" font-family="Helvetica,sans-Serif" font-size="10.00">WebSocketHandler.WebSocketHandler</text>
</a>
</g>
</g>
<!-- Node5&#45;&gt;Node9 -->
<g id="edge5" class="edge"><title>Node5&#45;&gt;Node9</title>
<path fill="none" stroke="midnightblue" d="M166.22,-53.058C195.607,-45.81 229.378,-37.4809 257.638,-30.5108"/>
<polygon fill="midnightblue" stroke="midnightblue" points="165.307,-49.6781 156.436,-55.471 166.983,-56.4745 165.307,-49.6781"/>
</g>
<!-- Node7 -->
<g id="node3" class="node"><title>Node7</title>
<g id="a_node3"><a xlink:href="class_little_weeb_library_1_1_start_up.html#a7f35b9dfb45fb003a9653d1f531044c9" target="_top" xlink:title="LittleWeebLibrary.StartUp.\lStartUp">
<polygon fill="white" stroke="black" points="450,-82.5 450,-112.5 581,-112.5 581,-82.5 450,-82.5"/>
<text text-anchor="start" x="458" y="-100.5" font-family="Helvetica,sans-Serif" font-size="10.00">LittleWeebLibrary.StartUp.</text>
<text text-anchor="middle" x="515.5" y="-89.5" font-family="Helvetica,sans-Serif" font-size="10.00">StartUp</text>
</a>
</g>
</g>
<!-- Node6&#45;&gt;Node7 -->
<g id="edge2" class="edge"><title>Node6&#45;&gt;Node7</title>
<path fill="none" stroke="midnightblue" d="M398.061,-114.306C415.208,-111.831 433.2,-109.234 449.774,-106.842"/>
<polygon fill="midnightblue" stroke="midnightblue" points="397.477,-110.854 388.079,-115.746 398.477,-117.782 397.477,-110.854"/>
</g>
<!-- Node8&#45;&gt;Node7 -->
<g id="edge4" class="edge"><title>Node8&#45;&gt;Node7</title>
<path fill="none" stroke="midnightblue" d="M424.026,-84.9083C432.813,-86.1312 441.529,-87.3442 449.882,-88.5068"/>
<polygon fill="midnightblue" stroke="midnightblue" points="424.477,-81.4374 414.09,-83.5255 423.513,-88.3706 424.477,-81.4374"/>
</g>
</g>
</svg>
