<?xml version="1.0" encoding="UTF-8" standalone="no"?>
<!DOCTYPE svg PUBLIC "-//W3C//DTD SVG 1.1//EN"
 "http://www.w3.org/Graphics/SVG/1.1/DTD/svg11.dtd">
<!-- Generated by graphviz version 2.38.0 (20140413.2041)
 -->
<!-- Title: LittleWeebLibrary.Services.IFileWebSocketService Pages: 1 -->
<svg width="143pt" height="259pt"
 viewBox="0.00 0.00 143.00 259.00" xmlns="http://www.w3.org/2000/svg" xmlns:xlink="http://www.w3.org/1999/xlink">
<g id="graph0" class="graph" transform="scale(1 1) rotate(0) translate(4 255)">
<title>LittleWeebLibrary.Services.IFileWebSocketService</title>
<polygon fill="white" stroke="none" points="-4,4 -4,-255 139,-255 139,4 -4,4"/>
<!-- Node0 -->
<g id="node1" class="node"><title>Node0</title>
<polygon fill="#bfbfbf" stroke="black" points="0,-171.5 0,-250.5 135,-250.5 135,-171.5 0,-171.5"/>
<text text-anchor="start" x="8" y="-238.5" font-family="Helvetica,sans-Serif" font-size="10.00">LittleWeebLibrary.Services.</text>
<text text-anchor="middle" x="67.5" y="-227.5" font-family="Helvetica,sans-Serif" font-size="10.00">IFileWebSocketService</text>
<polyline fill="none" stroke="black" points="0,-220.5 135,-220.5 "/>
<text text-anchor="middle" x="67.5" y="-208.5" font-family="Helvetica,sans-Serif" font-size="10.00"> </text>
<polyline fill="none" stroke="black" points="0,-201.5 135,-201.5 "/>
<text text-anchor="start" x="8" y="-189.5" font-family="Helvetica,sans-Serif" font-size="10.00">+ DeleteFile()</text>
<text text-anchor="start" x="8" y="-178.5" font-family="Helvetica,sans-Serif" font-size="10.00">+ OpenFile()</text>
</g>
<!-- Node1 -->
<g id="node2" class="node"><title>Node1</title>
<g id="a_node2"><a xlink:href="class_little_weeb_library_1_1_services_1_1_file_web_socket_service.html" target="_top" xlink:title="{LittleWeebLibrary.Services.\lFileWebSocketService\n|&#45; DebugHandler\l&#45; DownloadHandler\l&#45; FileHandler\l&#45; FileHistoryHandler\l&#45; WebSocketHandler\l|+ FileWebSocketService()\l+ DeleteFile()\l+ OpenFile()\l}">
<polygon fill="white" stroke="black" points="0,-0.5 0,-134.5 135,-134.5 135,-0.5 0,-0.5"/>
<text text-anchor="start" x="8" y="-122.5" font-family="Helvetica,sans-Serif" font-size="10.00">LittleWeebLibrary.Services.</text>
<text text-anchor="middle" x="67.5" y="-111.5" font-family="Helvetica,sans-Serif" font-size="10.00">FileWebSocketService</text>
<polyline fill="none" stroke="black" points="0,-104.5 135,-104.5 "/>
<text text-anchor="start" x="8" y="-92.5" font-family="Helvetica,sans-Serif" font-size="10.00">&#45; DebugHandler</text>
<text text-anchor="start" x="8" y="-81.5" font-family="Helvetica,sans-Serif" font-size="10.00">&#45; DownloadHandler</text>
<text text-anchor="start" x="8" y="-70.5" font-family="Helvetica,sans-Serif" font-size="10.00">&#45; FileHandler</text>
<text text-anchor="start" x="8" y="-59.5" font-family="Helvetica,sans-Serif" font-size="10.00">&#45; FileHistoryHandler</text>
<text text-anchor="start" x="8" y="-48.5" font-family="Helvetica,sans-Serif" font-size="10.00">&#45; WebSocketHandler</text>
<polyline fill="none" stroke="black" points="0,-41.5 135,-41.5 "/>
<text text-anchor="start" x="8" y="-29.5" font-family="Helvetica,sans-Serif" font-size="10.00">+ FileWebSocketService()</text>
<text text-anchor="start" x="8" y="-18.5" font-family="Helvetica,sans-Serif" font-size="10.00">+ DeleteFile()</text>
<text text-anchor="start" x="8" y="-7.5" font-family="Helvetica,sans-Serif" font-size="10.00">+ OpenFile()</text>
</a>
</g>
</g>
<!-- Node0&#45;&gt;Node1 -->
<g id="edge1" class="edge"><title>Node0&#45;&gt;Node1</title>
<path fill="none" stroke="midnightblue" d="M67.5,-161.158C67.5,-152.59 67.5,-143.546 67.5,-134.602"/>
<polygon fill="none" stroke="midnightblue" points="64.0001,-161.334 67.5,-171.335 71.0001,-161.335 64.0001,-161.334"/>
</g>
</g>
</svg>
