<?xml version="1.0" encoding="UTF-8" standalone="no"?>
<!DOCTYPE svg PUBLIC "-//W3C//DTD SVG 1.1//EN"
 "http://www.w3.org/Graphics/SVG/1.1/DTD/svg11.dtd">
<!-- Generated by graphviz version 2.38.0 (20140413.2041)
 -->
<!-- Title: LittleWeebLibrary.Handlers.IDebugHandler.TraceMessage Pages: 1 -->
<!--zoomable 1667 -->
<svg id="main" version="1.1" xmlns="http://www.w3.org/2000/svg" xmlns:xlink="http://www.w3.org/1999/xlink" xml:space="preserve" onload="init(evt)">
<style type="text/css"><![CDATA[
.edge:hover path { stroke: red; }
.edge:hover polygon { stroke: red; fill: red; }
]]></style>
<script type="text/javascript"><![CDATA[
var edges = document.getElementsByTagName('g');
if (edges && edges.length) {
  for (var i=0;i<edges.length;i++) {
    if (edges[i].id.substr(0,4)=='edge') {
      edges[i].setAttribute('class','edge');
    }
  }
}
]]></script>
        <defs>
                <circle id="rim" cx="0" cy="0" r="7"/>
                <circle id="rim2" cx="0" cy="0" r="3.5"/>
                <g id="zoomPlus">
                        <use xlink:href="#rim" fill="#404040">
                                <set attributeName="fill" to="#808080" begin="zoomplus.mouseover" end="zoomplus.mouseout"/>
                        </use>
                        <path d="M-4,0h8M0,-4v8" fill="none" stroke="white" stroke-width="1.5" pointer-events="none"/>
                </g>
                <g id="zoomMin">
                        <use xlink:href="#rim" fill="#404040">
                                <set attributeName="fill" to="#808080" begin="zoomminus.mouseover" end="zoomminus.mouseout"/>
                        </use>
                        <path d="M-4,0h8" fill="none" stroke="white" stroke-width="1.5" pointer-events="none"/>
                </g>
                <g id="dirArrow">
                        <path fill="none" stroke="white" stroke-width="1.5" d="M0,-3.0v7 M-2.5,-0.5L0,-3.0L2.5,-0.5"/>
                </g>
               <g id="resetDef">
                       <use xlink:href="#rim2" fill="#404040">
                               <set attributeName="fill" to="#808080" begin="reset.mouseover" end="reset.mouseout"/>
                       </use>
               </g>
        </defs>

<script type="text/javascript">
var viewWidth = 402;
var viewHeight = 1667;
var sectionId = 'dynsection-2';
</script>
<script xlink:href="svgpan.js"/>
<svg id="graph" class="graph">
<g id="viewport">
<title>LittleWeebLibrary.Handlers.IDebugHandler.TraceMessage</title>
<polygon fill="white" stroke="none" points="-4,4 -4,-1662.5 398,-1662.5 398,4 -4,4"/>
<!-- Node5 -->
<g id="node1" class="node"><title>Node5</title>
<polygon fill="#bfbfbf" stroke="black" points="0,-813.5 0,-843.5 146,-843.5 146,-813.5 0,-813.5"/>
<text text-anchor="start" x="8" y="-831.5" font-family="Helvetica,sans-Serif" font-size="10.00">LittleWeebLibrary.Handlers.</text>
<text text-anchor="middle" x="73" y="-820.5" font-family="Helvetica,sans-Serif" font-size="10.00">IDebugHandler.TraceMessage</text>
</g>
<!-- Node6 -->
<g id="node2" class="node"><title>Node6</title>
<g id="a_node2"><a xlink:href="class_little_weeb_library_1_1_handlers_1_1_anime_profile_handler.html#ac2f5e6adc1c0a36ff24797a437bf490d" target="_top" xlink:title="LittleWeebLibrary.Handlers.\lAnimeProfileHandler.AnimeProfile\lHandler">
<polygon fill="white" stroke="black" points="207,-1617 207,-1658 369,-1658 369,-1617 207,-1617"/>
<text text-anchor="start" x="215" y="-1646" font-family="Helvetica,sans-Serif" font-size="10.00">LittleWeebLibrary.Handlers.</text>
<text text-anchor="start" x="215" y="-1635" font-family="Helvetica,sans-Serif" font-size="10.00">AnimeProfileHandler.AnimeProfile</text>
<text text-anchor="middle" x="288" y="-1624" font-family="Helvetica,sans-Serif" font-size="10.00">Handler</text>
</a>
</g>
</g>
<!-- Node5&#45;&gt;Node6 -->
<g id="edge1" class="edge"><title>Node5&#45;&gt;Node6</title>
<path fill="none" stroke="midnightblue" d="M73.9346,-853.76C74.1359,-974.435 80.9647,-1491.17 182,-1607.5 188.775,-1615.3 197.424,-1621.14 206.843,-1625.5"/>
<polygon fill="midnightblue" stroke="midnightblue" points="77.4347,-853.64 73.9325,-843.641 70.4347,-853.641 77.4347,-853.64"/>
</g>
<!-- Node7 -->
<g id="node3" class="node"><title>Node7</title>
<g id="a_node3"><a xlink:href="class_little_weeb_library_1_1_handlers_1_1_anime_rule_handler.html#a71cb7aa9d7e5df35ae28ac4fcb11a51f" target="_top" xlink:title="LittleWeebLibrary.Handlers.\lAnimeRuleHandler.AnimeRuleHandler">
<polygon fill="white" stroke="black" points="198,-1567.5 198,-1597.5 378,-1597.5 378,-1567.5 198,-1567.5"/>
<text text-anchor="start" x="206" y="-1585.5" font-family="Helvetica,sans-Serif" font-size="10.00">LittleWeebLibrary.Handlers.</text>
<text text-anchor="middle" x="288" y="-1574.5" font-family="Helvetica,sans-Serif" font-size="10.00">AnimeRuleHandler.AnimeRuleHandler</text>
</a>
</g>
</g>
<!-- Node5&#45;&gt;Node7 -->
<g id="edge2" class="edge"><title>Node5&#45;&gt;Node7</title>
<path fill="none" stroke="midnightblue" d="M74.0914,-853.699C75.0357,-969.743 84.8338,-1451.53 182,-1557.5 186.559,-1562.47 191.912,-1566.54 197.746,-1569.86"/>
<polygon fill="midnightblue" stroke="midnightblue" points="77.591,-853.613 74.025,-843.636 70.5912,-853.659 77.591,-853.613"/>
</g>
<!-- Node8 -->
<g id="node4" class="node"><title>Node8</title>
<g id="a_node4"><a xlink:href="class_little_weeb_library_1_1_controllers_1_1_base_web_socket_controller.html#a0e9c1d617d9de0f8b1aec72078a81b18" target="_top" xlink:title="LittleWeebLibrary.Controllers.\lBaseWebSocketController.BaseWebSocket\lController">
<polygon fill="white" stroke="black" points="184,-1507 184,-1548 392,-1548 392,-1507 184,-1507"/>
<text text-anchor="start" x="192" y="-1536" font-family="Helvetica,sans-Serif" font-size="10.00">LittleWeebLibrary.Controllers.</text>
<text text-anchor="start" x="192" y="-1525" font-family="Helvetica,sans-Serif" font-size="10.00">BaseWebSocketController.BaseWebSocket</text>
<text text-anchor="middle" x="288" y="-1514" font-family="Helvetica,sans-Serif" font-size="10.00">Controller</text>
</a>
</g>
</g>
<!-- Node5&#45;&gt;Node8 -->
<g id="edge3" class="edge"><title>Node5&#45;&gt;Node8</title>
<path fill="none" stroke="midnightblue" d="M74.5749,-853.964C77.5762,-964.23 94.8507,-1399.38 182,-1497.5 185.148,-1501.04 188.682,-1504.18 192.497,-1506.96"/>
<polygon fill="midnightblue" stroke="midnightblue" points="78.069,-853.686 74.3139,-843.779 71.0713,-853.866 78.069,-853.686"/>
</g>
<!-- Node9 -->
<g id="node5" class="node"><title>Node9</title>
<g id="a_node5"><a xlink:href="class_little_weeb_library_1_1_handlers_1_1_data_base_handler.html#af3623e6075f8aaf6f5082994cd1448df" target="_top" xlink:title="LittleWeebLibrary.Handlers.\lDataBaseHandler.DataBaseHandler">
<polygon fill="white" stroke="black" points="202.5,-1457.5 202.5,-1487.5 373.5,-1487.5 373.5,-1457.5 202.5,-1457.5"/>
<text text-anchor="start" x="210.5" y="-1475.5" font-family="Helvetica,sans-Serif" font-size="10.00">LittleWeebLibrary.Handlers.</text>
<text text-anchor="middle" x="288" y="-1464.5" font-family="Helvetica,sans-Serif" font-size="10.00">DataBaseHandler.DataBaseHandler</text>
</a>
</g>
</g>
<!-- Node5&#45;&gt;Node9 -->
<g id="edge4" class="edge"><title>Node5&#45;&gt;Node9</title>
<path fill="none" stroke="midnightblue" d="M74.823,-853.811C78.7589,-958.887 99.0608,-1359.34 182,-1447.5 187.778,-1453.64 194.769,-1458.4 202.368,-1462.06"/>
<polygon fill="midnightblue" stroke="midnightblue" points="78.3106,-853.399 74.4557,-843.53 71.3151,-853.649 78.3106,-853.399"/>
</g>
<!-- Node10 -->
<g id="node6" class="node"><title>Node10</title>
<g id="a_node6"><a xlink:href="class_little_weeb_library_1_1_controllers_1_1_sub_controllers_1_1_data_base_web_socket_controller.html#ac8f85473ad0ccabfa985d704343a49a7" target="_top" xlink:title="LittleWeebLibrary.Controllers.\lSubControllers.DataBaseWebSocket\lController.DataBaseWebSocketController">
<polygon fill="white" stroke="black" points="190,-1397 190,-1438 386,-1438 386,-1397 190,-1397"/>
<text text-anchor="start" x="198" y="-1426" font-family="Helvetica,sans-Serif" font-size="10.00">LittleWeebLibrary.Controllers.</text>
<text text-anchor="start" x="198" y="-1415" font-family="Helvetica,sans-Serif" font-size="10.00">SubControllers.DataBaseWebSocket</text>
<text text-anchor="middle" x="288" y="-1404" font-family="Helvetica,sans-Serif" font-size="10.00">Controller.DataBaseWebSocketController</text>
</a>
</g>
</g>
<!-- Node5&#45;&gt;Node10 -->
<g id="edge5" class="edge"><title>Node5&#45;&gt;Node10</title>
<path fill="none" stroke="midnightblue" d="M75.4474,-853.771C81.577,-952.051 108.545,-1307.32 182,-1387.5 185.202,-1390.99 188.78,-1394.09 192.629,-1396.84"/>
<polygon fill="midnightblue" stroke="midnightblue" points="78.9287,-853.353 74.8301,-843.583 71.9415,-853.777 78.9287,-853.353"/>
</g>
<!-- Node11 -->
<g id="node7" class="node"><title>Node11</title>
<g id="a_node7"><a xlink:href="class_little_weeb_library_1_1_services_1_1_data_base_web_socket_service.html#a052238e0026967e104db0c6723923c7b" target="_top" xlink:title="LittleWeebLibrary.Services.\lDataBaseWebSocketService.DataBase\lWebSocketService">
<polygon fill="white" stroke="black" points="194,-1337 194,-1378 382,-1378 382,-1337 194,-1337"/>
<text text-anchor="start" x="202" y="-1366" font-family="Helvetica,sans-Serif" font-size="10.00">LittleWeebLibrary.Services.</text>
<text text-anchor="start" x="202" y="-1355" font-family="Helvetica,sans-Serif" font-size="10.00">DataBaseWebSocketService.DataBase</text>
<text text-anchor="middle" x="288" y="-1344" font-family="Helvetica,sans-Serif" font-size="10.00">WebSocketService</text>
</a>
</g>
</g>
<!-- Node5&#45;&gt;Node11 -->
<g id="edge6" class="edge"><title>Node5&#45;&gt;Node11</title>
<path fill="none" stroke="midnightblue" d="M76.1046,-853.998C84.1743,-945.71 116.05,-1257.11 182,-1327.5 185.5,-1331.24 189.429,-1334.52 193.659,-1337.4"/>
<polygon fill="midnightblue" stroke="midnightblue" points="79.583,-853.596 75.2378,-843.933 72.6089,-854.197 79.583,-853.596"/>
</g>
<!-- Node12 -->
<g id="node8" class="node"><title>Node12</title>
<g id="a_node8"><a xlink:href="class_little_weeb_library_1_1_handlers_1_1_directory_handler.html#a347ba4ee0182625434973769c90d06e1" target="_top" xlink:title="LittleWeebLibrary.Handlers.\lDirectoryHandler.DirectoryHandler">
<polygon fill="white" stroke="black" points="206,-1287.5 206,-1317.5 370,-1317.5 370,-1287.5 206,-1287.5"/>
<text text-anchor="start" x="214" y="-1305.5" font-family="Helvetica,sans-Serif" font-size="10.00">LittleWeebLibrary.Handlers.</text>
<text text-anchor="middle" x="288" y="-1294.5" font-family="Helvetica,sans-Serif" font-size="10.00">DirectoryHandler.DirectoryHandler</text>
</a>
</g>
</g>
<!-- Node5&#45;&gt;Node12 -->
<g id="edge7" class="edge"><title>Node5&#45;&gt;Node12</title>
<path fill="none" stroke="midnightblue" d="M76.6552,-854.014C86.102,-939.89 120.829,-1216.47 182,-1277.5 188.765,-1284.25 197.003,-1289.3 205.856,-1293.07"/>
<polygon fill="midnightblue" stroke="midnightblue" points="80.1116,-853.422 75.5586,-843.855 73.1521,-854.173 80.1116,-853.422"/>
</g>
<!-- Node13 -->
<g id="node9" class="node"><title>Node13</title>
<g id="a_node9"><a xlink:href="class_little_weeb_library_1_1_controllers_1_1_sub_controllers_1_1_directory_web_socket_controller.html#a46e3ddc55aed91ecf9ecf4e8b6849aa8" target="_top" xlink:title="LittleWeebLibrary.Controllers.\lSubControllers.DirectoryWebSocket\lController.DirectoryWebSocketController">
<polygon fill="white" stroke="black" points="192,-1227 192,-1268 384,-1268 384,-1227 192,-1227"/>
<text text-anchor="start" x="200" y="-1256" font-family="Helvetica,sans-Serif" font-size="10.00">LittleWeebLibrary.Controllers.</text>
<text text-anchor="start" x="200" y="-1245" font-family="Helvetica,sans-Serif" font-size="10.00">SubControllers.DirectoryWebSocket</text>
<text text-anchor="middle" x="288" y="-1234" font-family="Helvetica,sans-Serif" font-size="10.00">Controller.DirectoryWebSocketController</text>
</a>
</g>
</g>
<!-- Node5&#45;&gt;Node13 -->
<g id="edge8" class="edge"><title>Node5&#45;&gt;Node13</title>
<path fill="none" stroke="midnightblue" d="M73.1279,-854.03C72.229,-922.911 79.5715,-1114.3 182,-1217.5 185.472,-1221 189.323,-1224.1 193.438,-1226.84"/>
<polygon fill="midnightblue" stroke="midnightblue" points="76.6339,-853.771 73.3397,-843.702 69.6353,-853.628 76.6339,-853.771"/>
</g>
<!-- Node14 -->
<g id="node10" class="node"><title>Node14</title>
<g id="a_node10"><a xlink:href="class_little_weeb_library_1_1_services_1_1_directory_web_socket_service.html#ac0842064ce4231990ed07bcbacb7a71f" target="_top" xlink:title="LittleWeebLibrary.Services.\lDirectoryWebSocketService.Directory\lWebSocketService">
<polygon fill="white" stroke="black" points="198,-1167 198,-1208 378,-1208 378,-1167 198,-1167"/>
<text text-anchor="start" x="206" y="-1196" font-family="Helvetica,sans-Serif" font-size="10.00">LittleWeebLibrary.Services.</text>
<text text-anchor="start" x="206" y="-1185" font-family="Helvetica,sans-Serif" font-size="10.00">DirectoryWebSocketService.Directory</text>
<text text-anchor="middle" x="288" y="-1174" font-family="Helvetica,sans-Serif" font-size="10.00">WebSocketService</text>
</a>
</g>
</g>
<!-- Node5&#45;&gt;Node14 -->
<g id="edge9" class="edge"><title>Node5&#45;&gt;Node14</title>
<path fill="none" stroke="midnightblue" d="M74.6665,-854.203C77.6914,-915.792 94.1003,-1072.95 182,-1157.5 186.646,-1161.97 191.91,-1165.78 197.545,-1169.03"/>
<polygon fill="midnightblue" stroke="midnightblue" points="78.149,-853.703 74.2432,-843.854 71.1549,-853.989 78.149,-853.703"/>
</g>
<!-- Node15 -->
<g id="node11" class="node"><title>Node15</title>
<g id="a_node11"><a xlink:href="class_little_weeb_library_1_1_handlers_1_1_download_handler.html#ae98f5b136d09bb9f619bfad68f8d8bf7" target="_top" xlink:title="LittleWeebLibrary.Handlers.\lDownloadHandler.DownloadHandler">
<polygon fill="white" stroke="black" points="203,-1117.5 203,-1147.5 373,-1147.5 373,-1117.5 203,-1117.5"/>
<text text-anchor="start" x="211" y="-1135.5" font-family="Helvetica,sans-Serif" font-size="10.00">LittleWeebLibrary.Handlers.</text>
<text text-anchor="middle" x="288" y="-1124.5" font-family="Helvetica,sans-Serif" font-size="10.00">DownloadHandler.DownloadHandler</text>
</a>
</g>
</g>
<!-- Node5&#45;&gt;Node15 -->
<g id="edge10" class="edge"><title>Node5&#45;&gt;Node15</title>
<path fill="none" stroke="midnightblue" d="M76.1146,-853.89C82.1066,-908.902 104.207,-1039.6 182,-1107.5 188.141,-1112.86 195.227,-1117.12 202.759,-1120.5"/>
<polygon fill="midnightblue" stroke="midnightblue" points="79.5678,-853.246 75.0925,-843.643 72.6024,-853.941 79.5678,-853.246"/>
</g>
<!-- Node16 -->
<g id="node12" class="node"><title>Node16</title>
<g id="a_node12"><a xlink:href="class_little_weeb_library_1_1_controllers_1_1_download_web_socket_controller.html#adb8f6706c45d35e72ffb9cca7e768605" target="_top" xlink:title="LittleWeebLibrary.Controllers.\lDownloadWebSocketController.Download\lWebSocketController">
<polygon fill="white" stroke="black" points="190,-1057 190,-1098 386,-1098 386,-1057 190,-1057"/>
<text text-anchor="start" x="198" y="-1086" font-family="Helvetica,sans-Serif" font-size="10.00">LittleWeebLibrary.Controllers.</text>
<text text-anchor="start" x="198" y="-1075" font-family="Helvetica,sans-Serif" font-size="10.00">DownloadWebSocketController.Download</text>
<text text-anchor="middle" x="288" y="-1064" font-family="Helvetica,sans-Serif" font-size="10.00">WebSocketController</text>
</a>
</g>
</g>
<!-- Node5&#45;&gt;Node16 -->
<g id="edge11" class="edge"><title>Node5&#45;&gt;Node16</title>
<path fill="none" stroke="midnightblue" d="M79.2991,-853.528C90.2593,-899.071 119.778,-995.571 182,-1047.5 186.221,-1051.02 190.833,-1054.13 195.694,-1056.88"/>
<polygon fill="midnightblue" stroke="midnightblue" points="82.6691,-852.565 77.0136,-843.606 75.8477,-854.136 82.6691,-852.565"/>
</g>
<!-- Node17 -->
<g id="node13" class="node"><title>Node17</title>
<g id="a_node13"><a xlink:href="class_little_weeb_library_1_1_services_1_1_download_web_socket_service.html#a33a4c5640800b885662c686013c02971" target="_top" xlink:title="LittleWeebLibrary.Services.\lDownloadWebSocketService.Download\lWebSocketService">
<polygon fill="white" stroke="black" points="195,-997 195,-1038 381,-1038 381,-997 195,-997"/>
<text text-anchor="start" x="203" y="-1026" font-family="Helvetica,sans-Serif" font-size="10.00">LittleWeebLibrary.Services.</text>
<text text-anchor="start" x="203" y="-1015" font-family="Helvetica,sans-Serif" font-size="10.00">DownloadWebSocketService.Download</text>
<text text-anchor="middle" x="288" y="-1004" font-family="Helvetica,sans-Serif" font-size="10.00">WebSocketService</text>
</a>
</g>
</g>
<!-- Node5&#45;&gt;Node17 -->
<g id="edge12" class="edge"><title>Node5&#45;&gt;Node17</title>
<path fill="none" stroke="midnightblue" d="M84.2194,-853.322C99.971,-888.49 133.521,-952.433 182,-987.5 186.916,-991.056 192.243,-994.191 197.802,-996.956"/>
<polygon fill="midnightblue" stroke="midnightblue" points="87.2771,-851.577 80.0777,-843.804 80.8585,-854.37 87.2771,-851.577"/>
</g>
<!-- Node18 -->
<g id="node14" class="node"><title>Node18</title>
<g id="a_node14"><a xlink:href="class_little_weeb_library_1_1_handlers_1_1_file_handler.html#a2cc256d20ab33e0838e50279ee9f6fc0" target="_top" xlink:title="LittleWeebLibrary.Handlers.\lFileHandler.FileHandler">
<polygon fill="white" stroke="black" points="219.5,-947.5 219.5,-977.5 356.5,-977.5 356.5,-947.5 219.5,-947.5"/>
<text text-anchor="start" x="227.5" y="-965.5" font-family="Helvetica,sans-Serif" font-size="10.00">LittleWeebLibrary.Handlers.</text>
<text text-anchor="middle" x="288" y="-954.5" font-family="Helvetica,sans-Serif" font-size="10.00">FileHandler.FileHandler</text>
</a>
</g>
</g>
<!-- Node5&#45;&gt;Node18 -->
<g id="edge13" class="edge"><title>Node5&#45;&gt;Node18</title>
<path fill="none" stroke="midnightblue" d="M90.4565,-851.925C109.53,-877.254 143.339,-916.893 182,-938.5 193.426,-944.886 206.454,-949.574 219.354,-953.015"/>
<polygon fill="midnightblue" stroke="midnightblue" points="93.0873,-849.595 84.3406,-843.616 87.4497,-853.745 93.0873,-849.595"/>
</g>
<!-- Node19 -->
<g id="node15" class="node"><title>Node19</title>
<g id="a_node15"><a xlink:href="class_little_weeb_library_1_1_handlers_1_1_file_history_handler.html#ab8aa730a5d9db1b2624723394bd06191" target="_top" xlink:title="LittleWeebLibrary.Handlers.\lFileHistoryHandler.FileHistoryHandler">
<polygon fill="white" stroke="black" points="198.5,-898.5 198.5,-928.5 377.5,-928.5 377.5,-898.5 198.5,-898.5"/>
<text text-anchor="start" x="206.5" y="-916.5" font-family="Helvetica,sans-Serif" font-size="10.00">LittleWeebLibrary.Handlers.</text>
<text text-anchor="middle" x="288" y="-905.5" font-family="Helvetica,sans-Serif" font-size="10.00">FileHistoryHandler.FileHistoryHandler</text>
</a>
</g>
</g>
<!-- Node5&#45;&gt;Node19 -->
<g id="edge14" class="edge"><title>Node5&#45;&gt;Node19</title>
<path fill="none" stroke="midnightblue" d="M105.193,-848.837C126.185,-861.756 154.883,-877.969 182,-888.5 191.695,-892.265 202.121,-895.572 212.506,-898.444"/>
<polygon fill="midnightblue" stroke="midnightblue" points="107.031,-845.858 96.6956,-843.528 103.322,-851.795 107.031,-845.858"/>
</g>
<!-- Node20 -->
<g id="node16" class="node"><title>Node20</title>
<g id="a_node16"><a xlink:href="class_little_weeb_library_1_1_controllers_1_1_file_web_socket_controller.html#a6e297614bf4d98314e6d3583ccdf6dae" target="_top" xlink:title="LittleWeebLibrary.Controllers.\lFileWebSocketController.FileWebSocket\lController">
<polygon fill="white" stroke="black" points="191,-838 191,-879 385,-879 385,-838 191,-838"/>
<text text-anchor="start" x="199" y="-867" font-family="Helvetica,sans-Serif" font-size="10.00">LittleWeebLibrary.Controllers.</text>
<text text-anchor="start" x="199" y="-856" font-family="Helvetica,sans-Serif" font-size="10.00">FileWebSocketController.FileWebSocket</text>
<text text-anchor="middle" x="288" y="-845" font-family="Helvetica,sans-Serif" font-size="10.00">Controller</text>
</a>
</g>
</g>
<!-- Node5&#45;&gt;Node20 -->
<g id="edge15" class="edge"><title>Node5&#45;&gt;Node20</title>
<path fill="none" stroke="midnightblue" d="M156.349,-840.098C167.629,-841.687 179.291,-843.33 190.792,-844.95"/>
<polygon fill="midnightblue" stroke="midnightblue" points="156.503,-836.586 146.112,-838.657 155.526,-843.517 156.503,-836.586"/>
</g>
<!-- Node21 -->
<g id="node17" class="node"><title>Node21</title>
<g id="a_node17"><a xlink:href="class_little_weeb_library_1_1_services_1_1_file_web_socket_service.html#a06fb16d6cce4fdc44878a384ad85efc4" target="_top" xlink:title="LittleWeebLibrary.Services.\lFileWebSocketService.FileWebSocket\lService">
<polygon fill="white" stroke="black" points="195.5,-778 195.5,-819 380.5,-819 380.5,-778 195.5,-778"/>
<text text-anchor="start" x="203.5" y="-807" font-family="Helvetica,sans-Serif" font-size="10.00">LittleWeebLibrary.Services.</text>
<text text-anchor="start" x="203.5" y="-796" font-family="Helvetica,sans-Serif" font-size="10.00">FileWebSocketService.FileWebSocket</text>
<text text-anchor="middle" x="288" y="-785" font-family="Helvetica,sans-Serif" font-size="10.00">Service</text>
</a>
</g>
</g>
<!-- Node5&#45;&gt;Node21 -->
<g id="edge16" class="edge"><title>Node5&#45;&gt;Node21</title>
<path fill="none" stroke="midnightblue" d="M156.253,-816.915C169.049,-815.113 182.338,-813.241 195.326,-811.412"/>
<polygon fill="midnightblue" stroke="midnightblue" points="155.526,-813.483 146.112,-818.343 156.503,-820.414 155.526,-813.483"/>
</g>
<!-- Node22 -->
<g id="node18" class="node"><title>Node22</title>
<g id="a_node18"><a xlink:href="class_little_weeb_library_1_1_controllers_1_1_sub_controllers_1_1_info_api_web_socket_controller.html#a7c884b59b148f11761492b39619acf32" target="_top" xlink:title="LittleWeebLibrary.Controllers.\lSubControllers.InfoApiWebSocketController.\lInfoApiWebSocketController">
<polygon fill="white" stroke="black" points="184,-718 184,-759 392,-759 392,-718 184,-718"/>
<text text-anchor="start" x="192" y="-747" font-family="Helvetica,sans-Serif" font-size="10.00">LittleWeebLibrary.Controllers.</text>
<text text-anchor="start" x="192" y="-736" font-family="Helvetica,sans-Serif" font-size="10.00">SubControllers.InfoApiWebSocketController.</text>
<text text-anchor="middle" x="288" y="-725" font-family="Helvetica,sans-Serif" font-size="10.00">InfoApiWebSocketController</text>
</a>
</g>
</g>
<!-- Node5&#45;&gt;Node22 -->
<g id="edge17" class="edge"><title>Node5&#45;&gt;Node22</title>
<path fill="none" stroke="midnightblue" d="M106.454,-807.896C127.406,-795.251 155.589,-779.44 182,-768.5 190.232,-765.09 198.981,-761.921 207.779,-759.019"/>
<polygon fill="midnightblue" stroke="midnightblue" points="104.362,-805.073 97.6566,-813.276 108.014,-811.045 104.362,-805.073"/>
</g>
<!-- Node23 -->
<g id="node19" class="node"><title>Node23</title>
<g id="a_node19"><a xlink:href="class_little_weeb_library_1_1_services_1_1_info_api_web_socket_service.html#accba84b6333a0472f3acae2469ce5da3" target="_top" xlink:title="LittleWeebLibrary.Services.\lInfoApiWebSocketService.InfoApi\lWebSocketService">
<polygon fill="white" stroke="black" points="207.5,-658 207.5,-699 368.5,-699 368.5,-658 207.5,-658"/>
<text text-anchor="start" x="215.5" y="-687" font-family="Helvetica,sans-Serif" font-size="10.00">LittleWeebLibrary.Services.</text>
<text text-anchor="start" x="215.5" y="-676" font-family="Helvetica,sans-Serif" font-size="10.00">InfoApiWebSocketService.InfoApi</text>
<text text-anchor="middle" x="288" y="-665" font-family="Helvetica,sans-Serif" font-size="10.00">WebSocketService</text>
</a>
</g>
</g>
<!-- Node5&#45;&gt;Node23 -->
<g id="edge18" class="edge"><title>Node5&#45;&gt;Node23</title>
<path fill="none" stroke="midnightblue" d="M89.3498,-804.554C108.025,-777.329 142.056,-733.439 182,-708.5 189.8,-703.63 198.412,-699.529 207.251,-696.08"/>
<polygon fill="midnightblue" stroke="midnightblue" points="86.2836,-802.842 83.6188,-813.096 92.0966,-806.742 86.2836,-802.842"/>
</g>
<!-- Node24 -->
<g id="node20" class="node"><title>Node24</title>
<g id="a_node20"><a xlink:href="class_little_weeb_library_1_1_handlers_1_1_irc_client_handler.html#a01745667c95f2c3d5c461f708aa13bb8" target="_top" xlink:title="LittleWeebLibrary.Handlers.\lIrcClientHandler.IrcClientHandler">
<polygon fill="white" stroke="black" points="210,-608.5 210,-638.5 366,-638.5 366,-608.5 210,-608.5"/>
<text text-anchor="start" x="218" y="-626.5" font-family="Helvetica,sans-Serif" font-size="10.00">LittleWeebLibrary.Handlers.</text>
<text text-anchor="middle" x="288" y="-615.5" font-family="Helvetica,sans-Serif" font-size="10.00">IrcClientHandler.IrcClientHandler</text>
</a>
</g>
</g>
<!-- Node5&#45;&gt;Node24 -->
<g id="edge19" class="edge"><title>Node5&#45;&gt;Node24</title>
<path fill="none" stroke="midnightblue" d="M81.7682,-803.816C95.4366,-764.572 127.613,-688.326 182,-648.5 190.315,-642.411 199.904,-637.784 209.836,-634.273"/>
<polygon fill="midnightblue" stroke="midnightblue" points="78.416,-802.804 78.5447,-813.398 85.0506,-805.036 78.416,-802.804"/>
</g>
<!-- Node25 -->
<g id="node21" class="node"><title>Node25</title>
<g id="a_node21"><a xlink:href="class_little_weeb_library_1_1_controllers_1_1_irc_web_socket_controller.html#a6668898a19272a602ab6ae79a29caaaa" target="_top" xlink:title="LittleWeebLibrary.Controllers.\lIrcWebSocketController.IrcWebSocket\lController">
<polygon fill="white" stroke="black" points="196,-548 196,-589 380,-589 380,-548 196,-548"/>
<text text-anchor="start" x="204" y="-577" font-family="Helvetica,sans-Serif" font-size="10.00">LittleWeebLibrary.Controllers.</text>
<text text-anchor="start" x="204" y="-566" font-family="Helvetica,sans-Serif" font-size="10.00">IrcWebSocketController.IrcWebSocket</text>
<text text-anchor="middle" x="288" y="-555" font-family="Helvetica,sans-Serif" font-size="10.00">Controller</text>
</a>
</g>
</g>
<!-- Node5&#45;&gt;Node25 -->
<g id="edge20" class="edge"><title>Node5&#45;&gt;Node25</title>
<path fill="none" stroke="midnightblue" d="M78.7787,-803.388C89.0591,-756.307 117.751,-654.567 182,-599.5 186.618,-595.542 191.722,-592.089 197.119,-589.077"/>
<polygon fill="midnightblue" stroke="midnightblue" points="75.317,-802.844 76.7034,-813.348 82.1698,-804.272 75.317,-802.844"/>
</g>
<!-- Node26 -->
<g id="node22" class="node"><title>Node26</title>
<g id="a_node22"><a xlink:href="class_little_weeb_library_1_1_services_1_1_irc_web_socket_service.html#a3265383962fc71a18b9a6fa0c4c84797" target="_top" xlink:title="LittleWeebLibrary.Services.\lIrcWebSocketService.IrcWebSocket\lService">
<polygon fill="white" stroke="black" points="201,-488 201,-529 375,-529 375,-488 201,-488"/>
<text text-anchor="start" x="209" y="-517" font-family="Helvetica,sans-Serif" font-size="10.00">LittleWeebLibrary.Services.</text>
<text text-anchor="start" x="209" y="-506" font-family="Helvetica,sans-Serif" font-size="10.00">IrcWebSocketService.IrcWebSocket</text>
<text text-anchor="middle" x="288" y="-495" font-family="Helvetica,sans-Serif" font-size="10.00">Service</text>
</a>
</g>
</g>
<!-- Node5&#45;&gt;Node26 -->
<g id="edge21" class="edge"><title>Node5&#45;&gt;Node26</title>
<path fill="none" stroke="midnightblue" d="M75.9443,-803.15C81.6347,-746.993 103.232,-611.337 182,-538.5 187.568,-533.351 193.959,-529.079 200.781,-525.536"/>
<polygon fill="midnightblue" stroke="midnightblue" points="72.4434,-802.999 75.0061,-813.279 79.4136,-803.644 72.4434,-802.999"/>
</g>
<!-- Node27 -->
<g id="node23" class="node"><title>Node27</title>
<g id="a_node23"><a xlink:href="class_little_weeb_library_1_1_handlers_1_1_kitsu_handler.html#a92f980060f9277a512dfda67768a7428" target="_top" xlink:title="LittleWeebLibrary.Handlers.\lKitsuHandler.KitsuHandler">
<polygon fill="white" stroke="black" points="219.5,-438.5 219.5,-468.5 356.5,-468.5 356.5,-438.5 219.5,-438.5"/>
<text text-anchor="start" x="227.5" y="-456.5" font-family="Helvetica,sans-Serif" font-size="10.00">LittleWeebLibrary.Handlers.</text>
<text text-anchor="middle" x="288" y="-445.5" font-family="Helvetica,sans-Serif" font-size="10.00">KitsuHandler.KitsuHandler</text>
</a>
</g>
</g>
<!-- Node5&#45;&gt;Node27 -->
<g id="edge22" class="edge"><title>Node5&#45;&gt;Node27</title>
<path fill="none" stroke="midnightblue" d="M73.8201,-803.097C74.8177,-738.663 86.7873,-567.667 182,-478.5 192.326,-468.829 205.695,-462.688 219.412,-458.836"/>
<polygon fill="midnightblue" stroke="midnightblue" points="70.3197,-803.147 73.7431,-813.173 77.3195,-803.2 70.3197,-803.147"/>
</g>
<!-- Node28 -->
<g id="node24" class="node"><title>Node28</title>
<g id="a_node24"><a xlink:href="class_little_weeb_library_1_1_handlers_1_1_nibl_handler.html#afdd2ee189bd6bec0a1fb4a309498e6c2" target="_top" xlink:title="LittleWeebLibrary.Handlers.\lNiblHandler.NiblHandler">
<polygon fill="white" stroke="black" points="219.5,-389.5 219.5,-419.5 356.5,-419.5 356.5,-389.5 219.5,-389.5"/>
<text text-anchor="start" x="227.5" y="-407.5" font-family="Helvetica,sans-Serif" font-size="10.00">LittleWeebLibrary.Handlers.</text>
<text text-anchor="middle" x="288" y="-396.5" font-family="Helvetica,sans-Serif" font-size="10.00">NiblHandler.NiblHandler</text>
</a>
</g>
</g>
<!-- Node5&#45;&gt;Node28 -->
<g id="edge23" class="edge"><title>Node5&#45;&gt;Node28</title>
<path fill="none" stroke="midnightblue" d="M77.4767,-802.994C88.8099,-723.554 127.141,-482.705 182,-429.5 192.223,-419.585 205.63,-413.354 219.43,-409.493"/>
<polygon fill="midnightblue" stroke="midnightblue" points="73.9828,-802.706 76.0578,-813.096 80.9148,-803.68 73.9828,-802.706"/>
</g>
<!-- Node29 -->
<g id="node25" class="node"><title>Node29</title>
<g id="a_node25"><a xlink:href="class_little_weeb_library_1_1_handlers_1_1_settings_handler.html#a6b11494ae34a6ff54b825941ef06cdb2" target="_top" xlink:title="LittleWeebLibrary.Handlers.\lSettingsHandler.SettingsHandler">
<polygon fill="white" stroke="black" points="209,-340.5 209,-370.5 367,-370.5 367,-340.5 209,-340.5"/>
<text text-anchor="start" x="217" y="-358.5" font-family="Helvetica,sans-Serif" font-size="10.00">LittleWeebLibrary.Handlers.</text>
<text text-anchor="middle" x="288" y="-347.5" font-family="Helvetica,sans-Serif" font-size="10.00">SettingsHandler.SettingsHandler</text>
</a>
</g>
</g>
<!-- Node5&#45;&gt;Node29 -->
<g id="edge24" class="edge"><title>Node5&#45;&gt;Node29</title>
<path fill="none" stroke="midnightblue" d="M76.6637,-803.042C86.1378,-717.355 120.943,-441.386 182,-380.5 189.497,-373.024 198.799,-367.63 208.745,-363.764"/>
<polygon fill="midnightblue" stroke="midnightblue" points="73.163,-802.86 75.5638,-813.179 80.1222,-803.615 73.163,-802.86"/>
</g>
<!-- Node30 -->
<g id="node26" class="node"><title>Node30</title>
<g id="a_node26"><a xlink:href="class_little_weeb_library_1_1_controllers_1_1_sub_controllers_1_1_settings_web_socket_controller.html#a81701a5495065390949f1672fcac1f40" target="_top" xlink:title="LittleWeebLibrary.Controllers.\lSubControllers.SettingsWebSocket\lController.SettingsWebSocketController">
<polygon fill="white" stroke="black" points="193.5,-280 193.5,-321 382.5,-321 382.5,-280 193.5,-280"/>
<text text-anchor="start" x="201.5" y="-309" font-family="Helvetica,sans-Serif" font-size="10.00">LittleWeebLibrary.Controllers.</text>
<text text-anchor="start" x="201.5" y="-298" font-family="Helvetica,sans-Serif" font-size="10.00">SubControllers.SettingsWebSocket</text>
<text text-anchor="middle" x="288" y="-287" font-family="Helvetica,sans-Serif" font-size="10.00">Controller.SettingsWebSocketController</text>
</a>
</g>
</g>
<!-- Node5&#45;&gt;Node30 -->
<g id="edge25" class="edge"><title>Node5&#45;&gt;Node30</title>
<path fill="none" stroke="midnightblue" d="M76.1404,-803.123C84.3336,-711.842 116.581,-401.885 182,-331.5 185.623,-327.602 189.71,-324.185 194.115,-321.192"/>
<polygon fill="midnightblue" stroke="midnightblue" points="72.649,-802.872 75.2598,-813.14 79.6222,-803.485 72.649,-802.872"/>
</g>
<!-- Node31 -->
<g id="node27" class="node"><title>Node31</title>
<g id="a_node27"><a xlink:href="class_little_weeb_library_1_1_services_1_1_settings_web_socket_service.html#aaaa502b8a0362b6852d909887727bddb" target="_top" xlink:title="LittleWeebLibrary.Services.\lSettingsWebSocketService.Settings\lWebSocketService">
<polygon fill="white" stroke="black" points="201,-220 201,-261 375,-261 375,-220 201,-220"/>
<text text-anchor="start" x="209" y="-249" font-family="Helvetica,sans-Serif" font-size="10.00">LittleWeebLibrary.Services.</text>
<text text-anchor="start" x="209" y="-238" font-family="Helvetica,sans-Serif" font-size="10.00">SettingsWebSocketService.Settings</text>
<text text-anchor="middle" x="288" y="-227" font-family="Helvetica,sans-Serif" font-size="10.00">WebSocketService</text>
</a>
</g>
</g>
<!-- Node5&#45;&gt;Node31 -->
<g id="edge26" class="edge"><title>Node5&#45;&gt;Node31</title>
<path fill="none" stroke="midnightblue" d="M75.4542,-803.274C81.6088,-705.169 108.658,-350.526 182,-270.5 187.38,-264.63 193.821,-259.878 200.83,-256.036"/>
<polygon fill="midnightblue" stroke="midnightblue" points="71.9493,-803.249 74.8342,-813.443 78.9363,-803.675 71.9493,-803.249"/>
</g>
<!-- Node32 -->
<g id="node28" class="node"><title>Node32</title>
<g id="a_node28"><a xlink:href="class_little_weeb_library_1_1_handlers_1_1_version_handler.html#a51b31c85fe764e675c800d75b668f5d4" target="_top" xlink:title="LittleWeebLibrary.Handlers.\lVersionHandler.VersionHandler">
<polygon fill="white" stroke="black" points="212,-170.5 212,-200.5 364,-200.5 364,-170.5 212,-170.5"/>
<text text-anchor="start" x="220" y="-188.5" font-family="Helvetica,sans-Serif" font-size="10.00">LittleWeebLibrary.Handlers.</text>
<text text-anchor="middle" x="288" y="-177.5" font-family="Helvetica,sans-Serif" font-size="10.00">VersionHandler.VersionHandler</text>
</a>
</g>
</g>
<!-- Node5&#45;&gt;Node32 -->
<g id="edge27" class="edge"><title>Node5&#45;&gt;Node32</title>
<path fill="none" stroke="midnightblue" d="M74.8293,-803.23C78.7904,-698.322 99.1788,-298.51 182,-210.5 190.09,-201.903 200.558,-196.023 211.742,-192.044"/>
<polygon fill="midnightblue" stroke="midnightblue" points="71.3219,-803.374 74.4595,-813.494 78.3174,-803.626 71.3219,-803.374"/>
</g>
<!-- Node33 -->
<g id="node29" class="node"><title>Node33</title>
<g id="a_node29"><a xlink:href="class_little_weeb_library_1_1_controllers_1_1_sub_controllers_1_1_version_web_socket_controller.html#a8c030dabf1c19d49efa902ef97a84f7a" target="_top" xlink:title="LittleWeebLibrary.Controllers.\lSubControllers.VersionWebSocketController.\lVersionWebSocketController">
<polygon fill="white" stroke="black" points="182,-110 182,-151 394,-151 394,-110 182,-110"/>
<text text-anchor="start" x="190" y="-139" font-family="Helvetica,sans-Serif" font-size="10.00">LittleWeebLibrary.Controllers.</text>
<text text-anchor="start" x="190" y="-128" font-family="Helvetica,sans-Serif" font-size="10.00">SubControllers.VersionWebSocketController.</text>
<text text-anchor="middle" x="288" y="-117" font-family="Helvetica,sans-Serif" font-size="10.00">VersionWebSocketController</text>
</a>
</g>
</g>
<!-- Node5&#45;&gt;Node33 -->
<g id="edge28" class="edge"><title>Node5&#45;&gt;Node33</title>
<path fill="none" stroke="midnightblue" d="M74.6077,-803.131C77.7462,-693.271 95.5119,-259.69 182,-161.5 185.392,-157.649 189.237,-154.265 193.4,-151.294"/>
<polygon fill="midnightblue" stroke="midnightblue" points="71.105,-803.187 74.3339,-813.278 78.1024,-803.376 71.105,-803.187"/>
</g>
<!-- Node34 -->
<g id="node30" class="node"><title>Node34</title>
<g id="a_node30"><a xlink:href="class_little_weeb_library_1_1_services_1_1_version_web_socket_service.html#ac36d79cd9d964d06594350e5971adb5e" target="_top" xlink:title="LittleWeebLibrary.Services.\lVersionWebSocketService.Version\lWebSocketService">
<polygon fill="white" stroke="black" points="204,-50 204,-91 372,-91 372,-50 204,-50"/>
<text text-anchor="start" x="212" y="-79" font-family="Helvetica,sans-Serif" font-size="10.00">LittleWeebLibrary.Services.</text>
<text text-anchor="start" x="212" y="-68" font-family="Helvetica,sans-Serif" font-size="10.00">VersionWebSocketService.Version</text>
<text text-anchor="middle" x="288" y="-57" font-family="Helvetica,sans-Serif" font-size="10.00">WebSocketService</text>
</a>
</g>
</g>
<!-- Node5&#45;&gt;Node34 -->
<g id="edge29" class="edge"><title>Node5&#45;&gt;Node34</title>
<path fill="none" stroke="midnightblue" d="M74.2032,-803.43C75.6463,-687.971 87.3352,-208.458 182,-100.5 188.062,-93.5865 195.596,-88.2158 203.827,-84.0515"/>
<polygon fill="midnightblue" stroke="midnightblue" points="70.7034,-803.405 74.0931,-813.443 77.703,-803.482 70.7034,-803.405"/>
</g>
<!-- Node35 -->
<g id="node31" class="node"><title>Node35</title>
<g id="a_node31"><a xlink:href="class_little_weeb_library_1_1_handlers_1_1_web_socket_handler.html#aa420f7ed35d16df6ef6f18bd0ab8fa3a" target="_top" xlink:title="LittleWeebLibrary.Handlers.\lWebSocketHandler.WebSocketHandler">
<polygon fill="white" stroke="black" points="194,-0.5 194,-30.5 382,-30.5 382,-0.5 194,-0.5"/>
<text text-anchor="start" x="202" y="-18.5" font-family="Helvetica,sans-Serif" font-size="10.00">LittleWeebLibrary.Handlers.</text>
<text text-anchor="middle" x="288" y="-7.5" font-family="Helvetica,sans-Serif" font-size="10.00">WebSocketHandler.WebSocketHandler</text>
</a>
</g>
</g>
<!-- Node5&#45;&gt;Node35 -->
<g id="edge30" class="edge"><title>Node5&#45;&gt;Node35</title>
<path fill="none" stroke="midnightblue" d="M73.7829,-803.247C73.2631,-681.474 77.201,-156.054 182,-40.5 185.525,-36.6135 189.535,-33.278 193.881,-30.4197"/>
<polygon fill="midnightblue" stroke="midnightblue" points="70.284,-803.467 73.8416,-813.447 77.2839,-803.426 70.284,-803.467"/>
</g>
</g>
</svg>
        <g id="navigator" transform="translate(0 0)" fill="#404254">
                <rect fill="#f2f5e9" fill-opacity="0.5" stroke="#606060" stroke-width=".5" x="0" y="0" width="60" height="60"/>
                <use id="zoomplus" xlink:href="#zoomPlus" x="17" y="9" onmousedown="handleZoom(evt,'in')"/>
                <use id="zoomminus" xlink:href="#zoomMin" x="42" y="9" onmousedown="handleZoom(evt,'out')"/>
                <use id="reset" xlink:href="#resetDef" x="30" y="36" onmousedown="handleReset()"/>
                <g id="arrowUp" xlink:href="#dirArrow" transform="translate(30 24)" onmousedown="handlePan(0,-1)">
                  <use xlink:href="#rim" fill="#404040">
                        <set attributeName="fill" to="#808080" begin="arrowUp.mouseover" end="arrowUp.mouseout"/>
                  </use>
                  <path fill="none" stroke="white" stroke-width="1.5" d="M0,-3.0v7 M-2.5,-0.5L0,-3.0L2.5,-0.5"/>
                </g>
                <g id="arrowRight" xlink:href="#dirArrow" transform="rotate(90) translate(36 -43)" onmousedown="handlePan(1,0)">
                  <use xlink:href="#rim" fill="#404040">
                        <set attributeName="fill" to="#808080" begin="arrowRight.mouseover" end="arrowRight.mouseout"/>
                  </use>
                  <path fill="none" stroke="white" stroke-width="1.5" d="M0,-3.0v7 M-2.5,-0.5L0,-3.0L2.5,-0.5"/>
                </g>
                <g id="arrowDown" xlink:href="#dirArrow" transform="rotate(180) translate(-30 -48)" onmousedown="handlePan(0,1)">
                  <use xlink:href="#rim" fill="#404040">
                        <set attributeName="fill" to="#808080" begin="arrowDown.mouseover" end="arrowDown.mouseout"/>
                  </use>
                  <path fill="none" stroke="white" stroke-width="1.5" d="M0,-3.0v7 M-2.5,-0.5L0,-3.0L2.5,-0.5"/>
                </g>
                <g id="arrowLeft" xlink:href="#dirArrow" transform="rotate(270) translate(-36 17)" onmousedown="handlePan(-1,0)">
                  <use xlink:href="#rim" fill="#404040">
                        <set attributeName="fill" to="#808080" begin="arrowLeft.mouseover" end="arrowLeft.mouseout"/>
                  </use>
                  <path fill="none" stroke="white" stroke-width="1.5" d="M0,-3.0v7 M-2.5,-0.5L0,-3.0L2.5,-0.5"/>
                </g>
        </g>
        <svg viewBox="0 0 15 15" width="100%" height="30px" preserveAspectRatio="xMaxYMin meet">
         <g id="arrow_out" transform="scale(0.3 0.3)">
          <a xlink:href="interface_little_weeb_library_1_1_handlers_1_1_i_debug_handler_a2e405bc3492e683cd3702fae125221bc_icgraph_org.svg" target="_base">
           <rect id="button" ry="5" rx="5" y="6" x="6" height="38" width="38"
                fill="#f2f5e9" fill-opacity="0.5" stroke="#606060" stroke-width="1.0"/>
           <path id="arrow"
             d="M 11.500037,31.436501 C 11.940474,20.09759 22.043105,11.32322 32.158766,21.979434 L 37.068811,17.246167 C 37.068811,17.246167 37.088388,32 37.088388,32 L 22.160133,31.978069 C 22.160133,31.978069 26.997745,27.140456 26.997745,27.140456 C 18.528582,18.264221 13.291696,25.230495 11.500037,31.436501 z"
             style="fill:#404040;"/>
          </a>
         </g>
        </svg>
</svg>
