<?xml version="1.0" encoding="UTF-8" standalone="no"?>
<!DOCTYPE svg PUBLIC "-//W3C//DTD SVG 1.1//EN"
 "http://www.w3.org/Graphics/SVG/1.1/DTD/svg11.dtd">
<!-- Generated by graphviz version 2.38.0 (20140413.2041)
 -->
<!-- Title: LittleWeebLibrary.Handlers.IAnimeRuleHandler Pages: 1 -->
<svg width="145pt" height="259pt"
 viewBox="0.00 0.00 145.00 259.00" xmlns="http://www.w3.org/2000/svg" xmlns:xlink="http://www.w3.org/1999/xlink">
<g id="graph0" class="graph" transform="scale(1 1) rotate(0) translate(4 255)">
<title>LittleWeebLibrary.Handlers.IAnimeRuleHandler</title>
<polygon fill="white" stroke="none" points="-4,4 -4,-255 141,-255 141,4 -4,4"/>
<!-- Node0 -->
<g id="node1" class="node"><title>Node0</title>
<polygon fill="#bfbfbf" stroke="black" points="0,-171.5 0,-250.5 137,-250.5 137,-171.5 0,-171.5"/>
<text text-anchor="start" x="8" y="-238.5" font-family="Helvetica,sans-Serif" font-size="10.00">LittleWeebLibrary.Handlers.</text>
<text text-anchor="middle" x="68.5" y="-227.5" font-family="Helvetica,sans-Serif" font-size="10.00">IAnimeRuleHandler</text>
<polyline fill="none" stroke="black" points="0,-220.5 137,-220.5 "/>
<text text-anchor="middle" x="68.5" y="-208.5" font-family="Helvetica,sans-Serif" font-size="10.00"> </text>
<polyline fill="none" stroke="black" points="0,-201.5 137,-201.5 "/>
<text text-anchor="start" x="8" y="-189.5" font-family="Helvetica,sans-Serif" font-size="10.00">+ AddRules()</text>
<text text-anchor="start" x="8" y="-178.5" font-family="Helvetica,sans-Serif" font-size="10.00">+ FilterAnimeRules()</text>
</g>
<!-- Node1 -->
<g id="node2" class="node"><title>Node1</title>
<g id="a_node2"><a xlink:href="class_little_weeb_library_1_1_handlers_1_1_anime_rule_handler.html" target="_top" xlink:title="{LittleWeebLibrary.Handlers.\lAnimeRuleHandler\n|&#45; DataBaseHandler\l&#45; DebugHandler\l&#45; GlobalRules\l|+ AnimeRuleHandler()\l+ AddRules()\l+ FilterAnimeRules()\l&#45; Get()\l&#45; Init()\l}">
<polygon fill="white" stroke="black" points="0,-0.5 0,-134.5 137,-134.5 137,-0.5 0,-0.5"/>
<text text-anchor="start" x="8" y="-122.5" font-family="Helvetica,sans-Serif" font-size="10.00">LittleWeebLibrary.Handlers.</text>
<text text-anchor="middle" x="68.5" y="-111.5" font-family="Helvetica,sans-Serif" font-size="10.00">AnimeRuleHandler</text>
<polyline fill="none" stroke="black" points="0,-104.5 137,-104.5 "/>
<text text-anchor="start" x="8" y="-92.5" font-family="Helvetica,sans-Serif" font-size="10.00">&#45; DataBaseHandler</text>
<text text-anchor="start" x="8" y="-81.5" font-family="Helvetica,sans-Serif" font-size="10.00">&#45; DebugHandler</text>
<text text-anchor="start" x="8" y="-70.5" font-family="Helvetica,sans-Serif" font-size="10.00">&#45; GlobalRules</text>
<polyline fill="none" stroke="black" points="0,-63.5 137,-63.5 "/>
<text text-anchor="start" x="8" y="-51.5" font-family="Helvetica,sans-Serif" font-size="10.00">+ AnimeRuleHandler()</text>
<text text-anchor="start" x="8" y="-40.5" font-family="Helvetica,sans-Serif" font-size="10.00">+ AddRules()</text>
<text text-anchor="start" x="8" y="-29.5" font-family="Helvetica,sans-Serif" font-size="10.00">+ FilterAnimeRules()</text>
<text text-anchor="start" x="8" y="-18.5" font-family="Helvetica,sans-Serif" font-size="10.00">&#45; Get()</text>
<text text-anchor="start" x="8" y="-7.5" font-family="Helvetica,sans-Serif" font-size="10.00">&#45; Init()</text>
</a>
</g>
</g>
<!-- Node0&#45;&gt;Node1 -->
<g id="edge1" class="edge"><title>Node0&#45;&gt;Node1</title>
<path fill="none" stroke="midnightblue" d="M68.5,-161.158C68.5,-152.59 68.5,-143.546 68.5,-134.602"/>
<polygon fill="none" stroke="midnightblue" points="65.0001,-161.334 68.5,-171.335 72.0001,-161.335 65.0001,-161.334"/>
</g>
</g>
</svg>
