<?xml version="1.0" encoding="UTF-8" standalone="no"?>
<!DOCTYPE svg PUBLIC "-//W3C//DTD SVG 1.1//EN"
 "http://www.w3.org/Graphics/SVG/1.1/DTD/svg11.dtd">
<!-- Generated by graphviz version 2.38.0 (20140413.2041)
 -->
<!-- Title: LittleWeebLibrary.Controllers.ISubWebSocketController Pages: 1 -->
<svg width="1526pt" height="226pt"
 viewBox="0.00 0.00 1525.50 226.00" xmlns="http://www.w3.org/2000/svg" xmlns:xlink="http://www.w3.org/1999/xlink">
<g id="graph0" class="graph" transform="scale(1 1) rotate(0) translate(4 222)">
<title>LittleWeebLibrary.Controllers.ISubWebSocketController</title>
<polygon fill="white" stroke="none" points="-4,4 -4,-222 1521.5,-222 1521.5,4 -4,4"/>
<!-- Node0 -->
<g id="node1" class="node"><title>Node0</title>
<polygon fill="#bfbfbf" stroke="black" points="622.5,-149.5 622.5,-217.5 767.5,-217.5 767.5,-149.5 622.5,-149.5"/>
<text text-anchor="start" x="630.5" y="-205.5" font-family="Helvetica,sans-Serif" font-size="10.00">LittleWeebLibrary.Controllers.</text>
<text text-anchor="middle" x="695" y="-194.5" font-family="Helvetica,sans-Serif" font-size="10.00">ISubWebSocketController</text>
<polyline fill="none" stroke="black" points="622.5,-187.5 767.5,-187.5 "/>
<text text-anchor="middle" x="695" y="-175.5" font-family="Helvetica,sans-Serif" font-size="10.00"> </text>
<polyline fill="none" stroke="black" points="622.5,-168.5 767.5,-168.5 "/>
<text text-anchor="start" x="630.5" y="-156.5" font-family="Helvetica,sans-Serif" font-size="10.00">+ OnWebSocketEvent()</text>
</g>
<!-- Node1 -->
<g id="node2" class="node"><title>Node1</title>
<g id="a_node2"><a xlink:href="class_little_weeb_library_1_1_controllers_1_1_download_web_socket_controller.html" target="_top" xlink:title="{LittleWeebLibrary.Controllers.\lDownloadWebSocketController\n|&#45; DebugHandler\l&#45; DirectoryWebSocketService\l&#45; DownloadWebSocketService\l&#45; WebSocketHandler\l|+ DownloadWebSocketController()\l+ OnWebSocketEvent()\l}">
<polygon fill="white" stroke="black" points="0,-0.5 0,-112.5 166,-112.5 166,-0.5 0,-0.5"/>
<text text-anchor="start" x="8" y="-100.5" font-family="Helvetica,sans-Serif" font-size="10.00">LittleWeebLibrary.Controllers.</text>
<text text-anchor="middle" x="83" y="-89.5" font-family="Helvetica,sans-Serif" font-size="10.00">DownloadWebSocketController</text>
<polyline fill="none" stroke="black" points="0,-82.5 166,-82.5 "/>
<text text-anchor="start" x="8" y="-70.5" font-family="Helvetica,sans-Serif" font-size="10.00">&#45; DebugHandler</text>
<text text-anchor="start" x="8" y="-59.5" font-family="Helvetica,sans-Serif" font-size="10.00">&#45; DirectoryWebSocketService</text>
<text text-anchor="start" x="8" y="-48.5" font-family="Helvetica,sans-Serif" font-size="10.00">&#45; DownloadWebSocketService</text>
<text text-anchor="start" x="8" y="-37.5" font-family="Helvetica,sans-Serif" font-size="10.00">&#45; WebSocketHandler</text>
<polyline fill="none" stroke="black" points="0,-30.5 166,-30.5 "/>
<text text-anchor="start" x="8" y="-18.5" font-family="Helvetica,sans-Serif" font-size="10.00">+ DownloadWebSocketController()</text>
<text text-anchor="start" x="8" y="-7.5" font-family="Helvetica,sans-Serif" font-size="10.00">+ OnWebSocketEvent()</text>
</a>
</g>
</g>
<!-- Node0&#45;&gt;Node1 -->
<g id="edge1" class="edge"><title>Node0&#45;&gt;Node1</title>
<path fill="none" stroke="midnightblue" d="M612.004,-181.749C507.296,-178.49 323.03,-165.004 175,-113 172.008,-111.949 169.008,-110.793 166.014,-109.55"/>
<polygon fill="none" stroke="midnightblue" points="612.098,-185.253 622.195,-182.041 612.299,-178.256 612.098,-185.253"/>
</g>
<!-- Node2 -->
<g id="node3" class="node"><title>Node2</title>
<g id="a_node3"><a xlink:href="class_little_weeb_library_1_1_controllers_1_1_file_web_socket_controller.html" target="_top" xlink:title="{LittleWeebLibrary.Controllers.\lFileWebSocketController\n|&#45; DebugHandler\l&#45; FileWebSocketService\l&#45; WebSocketHandler\l|+ FileWebSocketController()\l+ OnWebSocketEvent()\l}">
<polygon fill="white" stroke="black" points="184.5,-6 184.5,-107 329.5,-107 329.5,-6 184.5,-6"/>
<text text-anchor="start" x="192.5" y="-95" font-family="Helvetica,sans-Serif" font-size="10.00">LittleWeebLibrary.Controllers.</text>
<text text-anchor="middle" x="257" y="-84" font-family="Helvetica,sans-Serif" font-size="10.00">FileWebSocketController</text>
<polyline fill="none" stroke="black" points="184.5,-77 329.5,-77 "/>
<text text-anchor="start" x="192.5" y="-65" font-family="Helvetica,sans-Serif" font-size="10.00">&#45; DebugHandler</text>
<text text-anchor="start" x="192.5" y="-54" font-family="Helvetica,sans-Serif" font-size="10.00">&#45; FileWebSocketService</text>
<text text-anchor="start" x="192.5" y="-43" font-family="Helvetica,sans-Serif" font-size="10.00">&#45; WebSocketHandler</text>
<polyline fill="none" stroke="black" points="184.5,-36 329.5,-36 "/>
<text text-anchor="start" x="192.5" y="-24" font-family="Helvetica,sans-Serif" font-size="10.00">+ FileWebSocketController()</text>
<text text-anchor="start" x="192.5" y="-13" font-family="Helvetica,sans-Serif" font-size="10.00">+ OnWebSocketEvent()</text>
</a>
</g>
</g>
<!-- Node0&#45;&gt;Node2 -->
<g id="edge2" class="edge"><title>Node0&#45;&gt;Node2</title>
<path fill="none" stroke="midnightblue" d="M612.175,-176.003C537.988,-167.968 427.422,-150.438 338,-113 333.754,-111.223 329.503,-109.203 325.295,-107.011"/>
<polygon fill="none" stroke="midnightblue" points="612.085,-179.513 622.396,-177.075 612.815,-172.551 612.085,-179.513"/>
</g>
<!-- Node3 -->
<g id="node4" class="node"><title>Node3</title>
<g id="a_node4"><a xlink:href="class_little_weeb_library_1_1_controllers_1_1_irc_web_socket_controller.html" target="_top" xlink:title="{LittleWeebLibrary.Controllers.\lIrcWebSocketController\n|&#45; DebugHandler\l&#45; IrcWebSocketService\l&#45; WebSocketHandler\l|+ IrcWebSocketController()\l+ OnWebSocketEvent()\l}">
<polygon fill="white" stroke="black" points="347.5,-6 347.5,-107 492.5,-107 492.5,-6 347.5,-6"/>
<text text-anchor="start" x="355.5" y="-95" font-family="Helvetica,sans-Serif" font-size="10.00">LittleWeebLibrary.Controllers.</text>
<text text-anchor="middle" x="420" y="-84" font-family="Helvetica,sans-Serif" font-size="10.00">IrcWebSocketController</text>
<polyline fill="none" stroke="black" points="347.5,-77 492.5,-77 "/>
<text text-anchor="start" x="355.5" y="-65" font-family="Helvetica,sans-Serif" font-size="10.00">&#45; DebugHandler</text>
<text text-anchor="start" x="355.5" y="-54" font-family="Helvetica,sans-Serif" font-size="10.00">&#45; IrcWebSocketService</text>
<text text-anchor="start" x="355.5" y="-43" font-family="Helvetica,sans-Serif" font-size="10.00">&#45; WebSocketHandler</text>
<polyline fill="none" stroke="black" points="347.5,-36 492.5,-36 "/>
<text text-anchor="start" x="355.5" y="-24" font-family="Helvetica,sans-Serif" font-size="10.00">+ IrcWebSocketController()</text>
<text text-anchor="start" x="355.5" y="-13" font-family="Helvetica,sans-Serif" font-size="10.00">+ OnWebSocketEvent()</text>
</a>
</g>
</g>
<!-- Node0&#45;&gt;Node3 -->
<g id="edge3" class="edge"><title>Node0&#45;&gt;Node3</title>
<path fill="none" stroke="midnightblue" d="M612.445,-158.131C577.237,-146.423 536.237,-131.004 501,-113 497.357,-111.139 493.685,-109.138 490.021,-107.042"/>
<polygon fill="none" stroke="midnightblue" points="611.619,-161.544 622.212,-161.334 613.8,-154.893 611.619,-161.544"/>
</g>
<!-- Node4 -->
<g id="node5" class="node"><title>Node4</title>
<g id="a_node5"><a xlink:href="class_little_weeb_library_1_1_controllers_1_1_sub_controllers_1_1_data_base_web_socket_controller.html" target="_top" xlink:title="{LittleWeebLibrary.Controllers.\lSubControllers.DataBaseWebSocket\lController\n|&#45; DataBaseWebSocketService\l&#45; DebugHandler\l&#45; WebSocketHandler\l|+ DataBaseWebSocketController()\l+ OnWebSocketEvent()\l}">
<polygon fill="white" stroke="black" points="510.5,-0.5 510.5,-112.5 687.5,-112.5 687.5,-0.5 510.5,-0.5"/>
<text text-anchor="start" x="518.5" y="-100.5" font-family="Helvetica,sans-Serif" font-size="10.00">LittleWeebLibrary.Controllers.</text>
<text text-anchor="start" x="518.5" y="-89.5" font-family="Helvetica,sans-Serif" font-size="10.00">SubControllers.DataBaseWebSocket</text>
<text text-anchor="middle" x="599" y="-78.5" font-family="Helvetica,sans-Serif" font-size="10.00">Controller</text>
<polyline fill="none" stroke="black" points="510.5,-71.5 687.5,-71.5 "/>
<text text-anchor="start" x="518.5" y="-59.5" font-family="Helvetica,sans-Serif" font-size="10.00">&#45; DataBaseWebSocketService</text>
<text text-anchor="start" x="518.5" y="-48.5" font-family="Helvetica,sans-Serif" font-size="10.00">&#45; DebugHandler</text>
<text text-anchor="start" x="518.5" y="-37.5" font-family="Helvetica,sans-Serif" font-size="10.00">&#45; WebSocketHandler</text>
<polyline fill="none" stroke="black" points="510.5,-30.5 687.5,-30.5 "/>
<text text-anchor="start" x="518.5" y="-18.5" font-family="Helvetica,sans-Serif" font-size="10.00">+ DataBaseWebSocketController()</text>
<text text-anchor="start" x="518.5" y="-7.5" font-family="Helvetica,sans-Serif" font-size="10.00">+ OnWebSocketEvent()</text>
</a>
</g>
</g>
<!-- Node0&#45;&gt;Node4 -->
<g id="edge4" class="edge"><title>Node0&#45;&gt;Node4</title>
<path fill="none" stroke="midnightblue" d="M663.244,-141.152C656.222,-132.007 648.673,-122.178 641.306,-112.585"/>
<polygon fill="none" stroke="midnightblue" points="660.659,-143.531 669.526,-149.33 666.211,-139.268 660.659,-143.531"/>
</g>
<!-- Node5 -->
<g id="node6" class="node"><title>Node5</title>
<g id="a_node6"><a xlink:href="class_little_weeb_library_1_1_controllers_1_1_sub_controllers_1_1_directory_web_socket_controller.html" target="_top" xlink:title="{LittleWeebLibrary.Controllers.\lSubControllers.DirectoryWebSocket\lController\n|&#45; DebugHandler\l&#45; DirectoryWebSocketService\l&#45; WebSocketHandler\l|+ DirectoryWebSocketController()\l+ OnWebSocketEvent()\l}">
<polygon fill="white" stroke="black" points="705.5,-0.5 705.5,-112.5 878.5,-112.5 878.5,-0.5 705.5,-0.5"/>
<text text-anchor="start" x="713.5" y="-100.5" font-family="Helvetica,sans-Serif" font-size="10.00">LittleWeebLibrary.Controllers.</text>
<text text-anchor="start" x="713.5" y="-89.5" font-family="Helvetica,sans-Serif" font-size="10.00">SubControllers.DirectoryWebSocket</text>
<text text-anchor="middle" x="792" y="-78.5" font-family="Helvetica,sans-Serif" font-size="10.00">Controller</text>
<polyline fill="none" stroke="black" points="705.5,-71.5 878.5,-71.5 "/>
<text text-anchor="start" x="713.5" y="-59.5" font-family="Helvetica,sans-Serif" font-size="10.00">&#45; DebugHandler</text>
<text text-anchor="start" x="713.5" y="-48.5" font-family="Helvetica,sans-Serif" font-size="10.00">&#45; DirectoryWebSocketService</text>
<text text-anchor="start" x="713.5" y="-37.5" font-family="Helvetica,sans-Serif" font-size="10.00">&#45; WebSocketHandler</text>
<polyline fill="none" stroke="black" points="705.5,-30.5 878.5,-30.5 "/>
<text text-anchor="start" x="713.5" y="-18.5" font-family="Helvetica,sans-Serif" font-size="10.00">+ DirectoryWebSocketController()</text>
<text text-anchor="start" x="713.5" y="-7.5" font-family="Helvetica,sans-Serif" font-size="10.00">+ OnWebSocketEvent()</text>
</a>
</g>
</g>
<!-- Node0&#45;&gt;Node5 -->
<g id="edge5" class="edge"><title>Node0&#45;&gt;Node5</title>
<path fill="none" stroke="midnightblue" d="M727.086,-141.152C734.182,-132.007 741.81,-122.178 749.254,-112.585"/>
<polygon fill="none" stroke="midnightblue" points="724.105,-139.284 720.74,-149.33 729.635,-143.576 724.105,-139.284"/>
</g>
<!-- Node6 -->
<g id="node7" class="node"><title>Node6</title>
<g id="a_node7"><a xlink:href="class_little_weeb_library_1_1_controllers_1_1_sub_controllers_1_1_info_api_web_socket_controller.html" target="_top" xlink:title="{LittleWeebLibrary.Controllers.\lSubControllers.InfoApiWebSocketController\n|&#45; DebugHandler\l&#45; InfoApiWebSocketService\l&#45; WebSocketHandler\l|+ InfoApiWebSocketController()\l+ OnWebSocketEvent()\l}">
<polygon fill="white" stroke="black" points="896.5,-6 896.5,-107 1101.5,-107 1101.5,-6 896.5,-6"/>
<text text-anchor="start" x="904.5" y="-95" font-family="Helvetica,sans-Serif" font-size="10.00">LittleWeebLibrary.Controllers.</text>
<text text-anchor="middle" x="999" y="-84" font-family="Helvetica,sans-Serif" font-size="10.00">SubControllers.InfoApiWebSocketController</text>
<polyline fill="none" stroke="black" points="896.5,-77 1101.5,-77 "/>
<text text-anchor="start" x="904.5" y="-65" font-family="Helvetica,sans-Serif" font-size="10.00">&#45; DebugHandler</text>
<text text-anchor="start" x="904.5" y="-54" font-family="Helvetica,sans-Serif" font-size="10.00">&#45; InfoApiWebSocketService</text>
<text text-anchor="start" x="904.5" y="-43" font-family="Helvetica,sans-Serif" font-size="10.00">&#45; WebSocketHandler</text>
<polyline fill="none" stroke="black" points="896.5,-36 1101.5,-36 "/>
<text text-anchor="start" x="904.5" y="-24" font-family="Helvetica,sans-Serif" font-size="10.00">+ InfoApiWebSocketController()</text>
<text text-anchor="start" x="904.5" y="-13" font-family="Helvetica,sans-Serif" font-size="10.00">+ OnWebSocketEvent()</text>
</a>
</g>
</g>
<!-- Node0&#45;&gt;Node6 -->
<g id="edge6" class="edge"><title>Node0&#45;&gt;Node6</title>
<path fill="none" stroke="midnightblue" d="M777.312,-155.263C811.86,-143.214 852.241,-128.315 888,-113 892.456,-111.091 896.987,-109.09 901.544,-107.026"/>
<polygon fill="none" stroke="midnightblue" points="776.033,-152.002 767.731,-158.584 778.326,-158.616 776.033,-152.002"/>
</g>
<!-- Node7 -->
<g id="node8" class="node"><title>Node7</title>
<g id="a_node8"><a xlink:href="class_little_weeb_library_1_1_controllers_1_1_sub_controllers_1_1_settings_web_socket_controller.html" target="_top" xlink:title="{LittleWeebLibrary.Controllers.\lSubControllers.SettingsWebSocket\lController\n|&#45; DebugHandler\l&#45; SettingsWebSocketService\l&#45; WebSocketHandler\l|+ SettingsWebSocketController()\l+ OnWebSocketEvent()\l}">
<polygon fill="white" stroke="black" points="1120,-0.5 1120,-112.5 1290,-112.5 1290,-0.5 1120,-0.5"/>
<text text-anchor="start" x="1128" y="-100.5" font-family="Helvetica,sans-Serif" font-size="10.00">LittleWeebLibrary.Controllers.</text>
<text text-anchor="start" x="1128" y="-89.5" font-family="Helvetica,sans-Serif" font-size="10.00">SubControllers.SettingsWebSocket</text>
<text text-anchor="middle" x="1205" y="-78.5" font-family="Helvetica,sans-Serif" font-size="10.00">Controller</text>
<polyline fill="none" stroke="black" points="1120,-71.5 1290,-71.5 "/>
<text text-anchor="start" x="1128" y="-59.5" font-family="Helvetica,sans-Serif" font-size="10.00">&#45; DebugHandler</text>
<text text-anchor="start" x="1128" y="-48.5" font-family="Helvetica,sans-Serif" font-size="10.00">&#45; SettingsWebSocketService</text>
<text text-anchor="start" x="1128" y="-37.5" font-family="Helvetica,sans-Serif" font-size="10.00">&#45; WebSocketHandler</text>
<polyline fill="none" stroke="black" points="1120,-30.5 1290,-30.5 "/>
<text text-anchor="start" x="1128" y="-18.5" font-family="Helvetica,sans-Serif" font-size="10.00">+ SettingsWebSocketController()</text>
<text text-anchor="start" x="1128" y="-7.5" font-family="Helvetica,sans-Serif" font-size="10.00">+ OnWebSocketEvent()</text>
</a>
</g>
</g>
<!-- Node0&#45;&gt;Node7 -->
<g id="edge7" class="edge"><title>Node0&#45;&gt;Node7</title>
<path fill="none" stroke="midnightblue" d="M777.887,-177.624C863.515,-170.538 999.935,-153.472 1111,-113 1113.94,-111.929 1116.89,-110.766 1119.84,-109.527"/>
<polygon fill="none" stroke="midnightblue" points="777.39,-174.152 767.701,-178.439 777.949,-181.13 777.39,-174.152"/>
</g>
<!-- Node8 -->
<g id="node9" class="node"><title>Node8</title>
<g id="a_node9"><a xlink:href="class_little_weeb_library_1_1_controllers_1_1_sub_controllers_1_1_version_web_socket_controller.html" target="_top" xlink:title="{LittleWeebLibrary.Controllers.\lSubControllers.VersionWebSocketController\n|&#45; DebugHandler\l&#45; VersionWebSocketService\l&#45; WebSocketHandler\l|+ VersionWebSocketController()\l+ OnWebSocketEvent()\l}">
<polygon fill="white" stroke="black" points="1308.5,-6 1308.5,-107 1517.5,-107 1517.5,-6 1308.5,-6"/>
<text text-anchor="start" x="1316.5" y="-95" font-family="Helvetica,sans-Serif" font-size="10.00">LittleWeebLibrary.Controllers.</text>
<text text-anchor="middle" x="1413" y="-84" font-family="Helvetica,sans-Serif" font-size="10.00">SubControllers.VersionWebSocketController</text>
<polyline fill="none" stroke="black" points="1308.5,-77 1517.5,-77 "/>
<text text-anchor="start" x="1316.5" y="-65" font-family="Helvetica,sans-Serif" font-size="10.00">&#45; DebugHandler</text>
<text text-anchor="start" x="1316.5" y="-54" font-family="Helvetica,sans-Serif" font-size="10.00">&#45; VersionWebSocketService</text>
<text text-anchor="start" x="1316.5" y="-43" font-family="Helvetica,sans-Serif" font-size="10.00">&#45; WebSocketHandler</text>
<polyline fill="none" stroke="black" points="1308.5,-36 1517.5,-36 "/>
<text text-anchor="start" x="1316.5" y="-24" font-family="Helvetica,sans-Serif" font-size="10.00">+ VersionWebSocketController()</text>
<text text-anchor="start" x="1316.5" y="-13" font-family="Helvetica,sans-Serif" font-size="10.00">+ OnWebSocketEvent()</text>
</a>
</g>
</g>
<!-- Node0&#45;&gt;Node8 -->
<g id="edge8" class="edge"><title>Node0&#45;&gt;Node8</title>
<path fill="none" stroke="midnightblue" d="M777.728,-181.756C895.719,-178.74 1118.08,-165.773 1299,-113 1304.92,-111.274 1310.9,-109.262 1316.87,-107.046"/>
<polygon fill="none" stroke="midnightblue" points="777.595,-178.258 767.681,-181.995 777.762,-185.256 777.595,-178.258"/>
</g>
</g>
</svg>
