<?xml version="1.0" encoding="UTF-8" standalone="no"?>
<!DOCTYPE svg PUBLIC "-//W3C//DTD SVG 1.1//EN"
 "http://www.w3.org/Graphics/SVG/1.1/DTD/svg11.dtd">
<!-- Generated by graphviz version 2.38.0 (20140413.2041)
 -->
<!-- Title: LittleWeebLibrary.Handlers.ISettingsHandler.GetIrcSettings Pages: 1 -->
<svg width="553pt" height="50pt"
 viewBox="0.00 0.00 553.00 50.00" xmlns="http://www.w3.org/2000/svg" xmlns:xlink="http://www.w3.org/1999/xlink">
<g id="graph0" class="graph" transform="scale(1 1) rotate(0) translate(4 46)">
<title>LittleWeebLibrary.Handlers.ISettingsHandler.GetIrcSettings</title>
<polygon fill="white" stroke="none" points="-4,4 -4,-46 549,-46 549,4 -4,4"/>
<!-- Node1 -->
<g id="node1" class="node"><title>Node1</title>
<polygon fill="#bfbfbf" stroke="black" points="0,-6 0,-36 153,-36 153,-6 0,-6"/>
<text text-anchor="start" x="8" y="-24" font-family="Helvetica,sans-Serif" font-size="10.00">LittleWeebLibrary.Handlers.</text>
<text text-anchor="middle" x="76.5" y="-13" font-family="Helvetica,sans-Serif" font-size="10.00">ISettingsHandler.GetIrcSettings</text>
</g>
<!-- Node2 -->
<g id="node2" class="node"><title>Node2</title>
<g id="a_node2"><a xlink:href="class_little_weeb_library_1_1_services_1_1_settings_web_socket_service.html#af799e00c29f6eec4ca8874cda559c225" target="_top" xlink:title="LittleWeebLibrary.Services.\lSettingsWebSocketService.SetSettings\lClasses">
<polygon fill="white" stroke="black" points="189,-0.5 189,-41.5 378,-41.5 378,-0.5 189,-0.5"/>
<text text-anchor="start" x="197" y="-29.5" font-family="Helvetica,sans-Serif" font-size="10.00">LittleWeebLibrary.Services.</text>
<text text-anchor="start" x="197" y="-18.5" font-family="Helvetica,sans-Serif" font-size="10.00">SettingsWebSocketService.SetSettings</text>
<text text-anchor="middle" x="283.5" y="-7.5" font-family="Helvetica,sans-Serif" font-size="10.00">Classes</text>
</a>
</g>
</g>
<!-- Node1&#45;&gt;Node2 -->
<g id="edge1" class="edge"><title>Node1&#45;&gt;Node2</title>
<path fill="none" stroke="midnightblue" d="M163.449,-21C171.884,-21 180.472,-21 188.977,-21"/>
<polygon fill="midnightblue" stroke="midnightblue" points="163.252,-17.5001 153.252,-21 163.252,-24.5001 163.252,-17.5001"/>
</g>
<!-- Node3 -->
<g id="node3" class="node"><title>Node3</title>
<g id="a_node3"><a xlink:href="class_little_weeb_library_1_1_start_up.html#a7f35b9dfb45fb003a9653d1f531044c9" target="_top" xlink:title="LittleWeebLibrary.StartUp.\lStartUp">
<polygon fill="white" stroke="black" points="414,-6 414,-36 545,-36 545,-6 414,-6"/>
<text text-anchor="start" x="422" y="-24" font-family="Helvetica,sans-Serif" font-size="10.00">LittleWeebLibrary.StartUp.</text>
<text text-anchor="middle" x="479.5" y="-13" font-family="Helvetica,sans-Serif" font-size="10.00">StartUp</text>
</a>
</g>
</g>
<!-- Node2&#45;&gt;Node3 -->
<g id="edge2" class="edge"><title>Node2&#45;&gt;Node3</title>
<path fill="none" stroke="midnightblue" d="M388.31,-21C397.001,-21 405.618,-21 413.882,-21"/>
<polygon fill="midnightblue" stroke="midnightblue" points="388.091,-17.5001 378.09,-21 388.09,-24.5001 388.091,-17.5001"/>
</g>
</g>
</svg>
