<?xml version="1.0" encoding="UTF-8" standalone="no"?>
<!DOCTYPE svg PUBLIC "-//W3C//DTD SVG 1.1//EN"
 "http://www.w3.org/Graphics/SVG/1.1/DTD/svg11.dtd">
<!-- Generated by graphviz version 2.38.0 (20140413.2041)
 -->
<!-- Title: LittleWeebLibrary.GlobalInterfaces.ISettingsInterface.SetIrcSettings Pages: 1 -->
<svg width="348pt" height="50pt"
 viewBox="0.00 0.00 348.00 50.00" xmlns="http://www.w3.org/2000/svg" xmlns:xlink="http://www.w3.org/1999/xlink">
<g id="graph0" class="graph" transform="scale(1 1) rotate(0) translate(4 46)">
<title>LittleWeebLibrary.GlobalInterfaces.ISettingsInterface.SetIrcSettings</title>
<polygon fill="white" stroke="none" points="-4,4 -4,-46 344,-46 344,4 -4,4"/>
<!-- Node1 -->
<g id="node1" class="node"><title>Node1</title>
<polygon fill="#bfbfbf" stroke="black" points="0,-0.5 0,-41.5 140,-41.5 140,-0.5 0,-0.5"/>
<text text-anchor="start" x="8" y="-29.5" font-family="Helvetica,sans-Serif" font-size="10.00">LittleWeebLibrary.Global</text>
<text text-anchor="start" x="8" y="-18.5" font-family="Helvetica,sans-Serif" font-size="10.00">Interfaces.ISettingsInterface.</text>
<text text-anchor="middle" x="70" y="-7.5" font-family="Helvetica,sans-Serif" font-size="10.00">SetIrcSettings</text>
</g>
<!-- Node2 -->
<g id="node2" class="node"><title>Node2</title>
<g id="a_node2"><a xlink:href="class_little_weeb_library_1_1_services_1_1_settings_web_socket_service.html#a6eba1d3b176e627d3dae57070e1c3beb" target="_top" xlink:title="LittleWeebLibrary.Services.\lSettingsWebSocketService.SetAll\lIrcSettings">
<polygon fill="white" stroke="black" points="176,-0.5 176,-41.5 340,-41.5 340,-0.5 176,-0.5"/>
<text text-anchor="start" x="184" y="-29.5" font-family="Helvetica,sans-Serif" font-size="10.00">LittleWeebLibrary.Services.</text>
<text text-anchor="start" x="184" y="-18.5" font-family="Helvetica,sans-Serif" font-size="10.00">SettingsWebSocketService.SetAll</text>
<text text-anchor="middle" x="258" y="-7.5" font-family="Helvetica,sans-Serif" font-size="10.00">IrcSettings</text>
</a>
</g>
</g>
<!-- Node1&#45;&gt;Node2 -->
<g id="edge1" class="edge"><title>Node1&#45;&gt;Node2</title>
<path fill="none" stroke="midnightblue" d="M150.404,-21C158.797,-21 167.342,-21 175.756,-21"/>
<polygon fill="midnightblue" stroke="midnightblue" points="150.26,-17.5001 140.26,-21 150.26,-24.5001 150.26,-17.5001"/>
</g>
</g>
</svg>
